<?xml version="1.0" encoding="UTF-8" standalone="no"?>
<!DOCTYPE svg PUBLIC "-//W3C//DTD SVG 1.1//EN"
 "http://www.w3.org/Graphics/SVG/1.1/DTD/svg11.dtd">
<!-- Generated by graphviz version 2.38.0 (20140413.2041)
 -->
<!-- Title: /home/mel/projects/Misc/Minecraft Server Service/src/bukkitServer.h Pages: 1 -->
<svg width="322pt" height="128pt"
 viewBox="0.00 0.00 321.50 128.00" xmlns="http://www.w3.org/2000/svg" xmlns:xlink="http://www.w3.org/1999/xlink">
<g id="graph0" class="graph" transform="scale(1 1) rotate(0) translate(4 124)">
<title>/home/mel/projects/Misc/Minecraft Server Service/src/bukkitServer.h</title>
<!-- Node664 -->
<g id="node1" class="node"><title>Node664</title>
<polygon fill="#bfbfbf" stroke="black" points="88.5,-78.5 88.5,-119.5 223.5,-119.5 223.5,-78.5 88.5,-78.5"/>
<text text-anchor="start" x="96.5" y="-107.5" font-family="Helvetica,sans-Serif" font-size="10.00">/home/mel/projects</text>
<text text-anchor="start" x="96.5" y="-96.5" font-family="Helvetica,sans-Serif" font-size="10.00">/Misc/Minecraft Server</text>
<text text-anchor="middle" x="156" y="-85.5" font-family="Helvetica,sans-Serif" font-size="10.00"> Service/src/bukkitServer.h</text>
</g>
<!-- Node665 -->
<g id="node2" class="node"><title>Node665</title>
<g id="a_node2"><a xlink:href="$bukkit_server_8cpp.html" xlink:title="/home/mel/projects\l/Misc/Minecraft Server\l Service/src/bukkitServer.cpp">
<polygon fill="none" stroke="black" points="0,-0.5 0,-41.5 146,-41.5 146,-0.5 0,-0.5"/>
<text text-anchor="start" x="8" y="-29.5" font-family="Helvetica,sans-Serif" font-size="10.00">/home/mel/projects</text>
<text text-anchor="start" x="8" y="-18.5" font-family="Helvetica,sans-Serif" font-size="10.00">/Misc/Minecraft Server</text>
<text text-anchor="middle" x="73" y="-7.5" font-family="Helvetica,sans-Serif" font-size="10.00"> Service/src/bukkitServer.cpp</text>
</a>
</g>
</g>
<!-- Node664&#45;&gt;Node665 -->
<g id="edge1" class="edge"><title>Node664&#45;&gt;Node665</title>
<path fill="none" stroke="midnightblue" d="M127.05,-71.4916C116.28,-61.6294 104.264,-50.6273 94.3021,-41.5056"/>
<polygon fill="midnightblue" stroke="midnightblue" points="124.887,-74.2562 134.625,-78.4281 129.614,-69.0935 124.887,-74.2562"/>
</g>
<!-- Node666 -->
<g id="node3" class="node"><title>Node666</title>
<g id="a_node3"><a xlink:href="$setup_servers_8cpp.html" xlink:title="/home/mel/projects\l/Misc/Minecraft Server\l Service/src/setupServers.cpp">
<polygon fill="none" stroke="black" points="164.5,-0.5 164.5,-41.5 313.5,-41.5 313.5,-0.5 164.5,-0.5"/>
<text text-anchor="start" x="172.5" y="-29.5" font-family="Helvetica,sans-Serif" font-size="10.00">/home/mel/projects</text>
<text text-anchor="start" x="172.5" y="-18.5" font-family="Helvetica,sans-Serif" font-size="10.00">/Misc/Minecraft Server</text>
<text text-anchor="middle" x="239" y="-7.5" font-family="Helvetica,sans-Serif" font-size="10.00"> Service/src/setupServers.cpp</text>
</a>
</g>
</g>
<!-- Node664&#45;&gt;Node666 -->
<g id="edge2" class="edge"><title>Node664&#45;&gt;Node666</title>
<path fill="none" stroke="midnightblue" d="M184.95,-71.4916C195.72,-61.6294 207.736,-50.6273 217.698,-41.5056"/>
<polygon fill="midnightblue" stroke="midnightblue" points="182.386,-69.0935 177.375,-78.4281 187.113,-74.2562 182.386,-69.0935"/>
</g>
</g>
</svg>
