<?xml version="1.0" encoding="UTF-8" standalone="no"?>
<!DOCTYPE svg PUBLIC "-//W3C//DTD SVG 1.1//EN"
 "http://www.w3.org/Graphics/SVG/1.1/DTD/svg11.dtd">
<!-- Generated by graphviz version 2.38.0 (20140413.2041)
 -->
<!-- Title: MinecraftServerService::ServerStream Pages: 1 -->
<svg width="220pt" height="174pt"
 viewBox="0.00 0.00 219.50 174.00" xmlns="http://www.w3.org/2000/svg" xmlns:xlink="http://www.w3.org/1999/xlink">
<g id="graph0" class="graph" transform="scale(1 1) rotate(0) translate(4 170)">
<title>MinecraftServerService::ServerStream</title>
<!-- Node55 -->
<g id="node1" class="node"><title>Node55</title>
<polygon fill="#bfbfbf" stroke="black" points="14.5,-0.5 14.5,-30.5 133.5,-30.5 133.5,-0.5 14.5,-0.5"/>
<text text-anchor="start" x="22.5" y="-18.5" font-family="Helvetica,sans-Serif" font-size="10.00">MinecraftServerService</text>
<text text-anchor="middle" x="74" y="-7.5" font-family="Helvetica,sans-Serif" font-size="10.00">::ServerStream</text>
</g>
<!-- Node56 -->
<g id="node2" class="node"><title>Node56</title>
<polygon fill="none" stroke="#bfbfbf" points="0,-84 0,-103 74,-103 74,-84 0,-84"/>
<text text-anchor="middle" x="37" y="-91" font-family="Helvetica,sans-Serif" font-size="10.00">std::iostream</text>
</g>
<!-- Node56&#45;&gt;Node55 -->
<g id="edge1" class="edge"><title>Node56&#45;&gt;Node55</title>
<path fill="none" stroke="midnightblue" d="M45.7247,-74.579C52.2798,-61.1145 61.1321,-42.9314 67.1746,-30.5198"/>
<polygon fill="midnightblue" stroke="midnightblue" points="42.4748,-73.2587 41.2444,-83.7818 48.7686,-76.3228 42.4748,-73.2587"/>
</g>
<!-- Node57 -->
<g id="node3" class="node"><title>Node57</title>
<g id="a_node3"><a xlink:href="$class_minecraft_server_service_1_1_server_process_buf.html" xlink:title="MinecraftServerService\l::ServerProcessBuf">
<polygon fill="none" stroke="black" points="92.5,-78.5 92.5,-108.5 211.5,-108.5 211.5,-78.5 92.5,-78.5"/>
<text text-anchor="start" x="100.5" y="-96.5" font-family="Helvetica,sans-Serif" font-size="10.00">MinecraftServerService</text>
<text text-anchor="middle" x="152" y="-85.5" font-family="Helvetica,sans-Serif" font-size="10.00">::ServerProcessBuf</text>
</a>
</g>
</g>
<!-- Node57&#45;&gt;Node55 -->
<g id="edge2" class="edge"><title>Node57&#45;&gt;Node55</title>
<path fill="none" stroke="#9a32cd" stroke-dasharray="5,2" d="M129.968,-71.0332C116.727,-58.1316 100.244,-42.0716 88.6054,-30.7309"/>
<polygon fill="#9a32cd" stroke="#9a32cd" points="127.724,-73.7331 137.329,-78.205 132.609,-68.7195 127.724,-73.7331"/>
<text text-anchor="middle" x="150.5" y="-52" font-family="Helvetica,sans-Serif" font-size="10.00"> serverProcess</text>
</g>
<!-- Node58 -->
<g id="node4" class="node"><title>Node58</title>
<polygon fill="none" stroke="#bfbfbf" points="112,-146.5 112,-165.5 192,-165.5 192,-146.5 112,-146.5"/>
<text text-anchor="middle" x="152" y="-153.5" font-family="Helvetica,sans-Serif" font-size="10.00">std::streambuf</text>
</g>
<!-- Node58&#45;&gt;Node57 -->
<g id="edge3" class="edge"><title>Node58&#45;&gt;Node57</title>
<path fill="none" stroke="midnightblue" d="M152,-136.215C152,-127.356 152,-116.958 152,-108.759"/>
<polygon fill="midnightblue" stroke="midnightblue" points="148.5,-136.332 152,-146.332 155.5,-136.332 148.5,-136.332"/>
</g>
</g>
</svg>
