<?xml version="1.0" encoding="UTF-8" standalone="no"?>
<!DOCTYPE svg PUBLIC "-//W3C//DTD SVG 1.1//EN"
 "http://www.w3.org/Graphics/SVG/1.1/DTD/svg11.dtd">
<!-- Generated by graphviz version 2.38.0 (20140413.2041)
 -->
<!-- Title: Json::OurCharReader Pages: 1 -->
<svg width="190pt" height="162pt"
 viewBox="0.00 0.00 189.50 162.00" xmlns="http://www.w3.org/2000/svg" xmlns:xlink="http://www.w3.org/1999/xlink">
<g id="graph0" class="graph" transform="scale(1 1) rotate(0) translate(4 158)">
<title>Json::OurCharReader</title>
<!-- Node91 -->
<g id="node1" class="node"><title>Node91</title>
<polygon fill="#bfbfbf" stroke="black" points="10.5,-0.5 10.5,-19.5 122.5,-19.5 122.5,-0.5 10.5,-0.5"/>
<text text-anchor="middle" x="66.5" y="-7.5" font-family="Helvetica,sans-Serif" font-size="10.00">Json::OurCharReader</text>
</g>
<!-- Node92 -->
<g id="node2" class="node"><title>Node92</title>
<polygon fill="none" stroke="#bfbfbf" points="0,-67.5 0,-86.5 69,-86.5 69,-67.5 0,-67.5"/>
<text text-anchor="middle" x="34.5" y="-74.5" font-family="Helvetica,sans-Serif" font-size="10.00">CharReader</text>
</g>
<!-- Node92&#45;&gt;Node91 -->
<g id="edge1" class="edge"><title>Node92&#45;&gt;Node91</title>
<path fill="none" stroke="midnightblue" d="M43.2811,-58.1635C49.4523,-45.6281 57.4364,-29.4104 62.2527,-19.6273"/>
<polygon fill="midnightblue" stroke="midnightblue" points="40.0925,-56.7162 38.8157,-67.2338 46.3727,-59.808 40.0925,-56.7162"/>
</g>
<!-- Node93 -->
<g id="node3" class="node"><title>Node93</title>
<g id="a_node3"><a xlink:href="$class_json_1_1_our_reader.html" xlink:title="Json::OurReader">
<polygon fill="none" stroke="black" points="87,-67.5 87,-86.5 178,-86.5 178,-67.5 87,-67.5"/>
<text text-anchor="middle" x="132.5" y="-74.5" font-family="Helvetica,sans-Serif" font-size="10.00">Json::OurReader</text>
</a>
</g>
</g>
<!-- Node93&#45;&gt;Node91 -->
<g id="edge2" class="edge"><title>Node93&#45;&gt;Node91</title>
<path fill="none" stroke="#9a32cd" stroke-dasharray="5,2" d="M116.251,-59.9968C103.307,-47.2496 85.6854,-29.8947 75.26,-19.6273"/>
<polygon fill="#9a32cd" stroke="#9a32cd" points="114.018,-62.7106 123.599,-67.2338 118.93,-57.7232 114.018,-62.7106"/>
<text text-anchor="middle" x="120.5" y="-41" font-family="Helvetica,sans-Serif" font-size="10.00"> reader_</text>
</g>
<!-- Node94 -->
<g id="node4" class="node"><title>Node94</title>
<g id="a_node4"><a xlink:href="$class_json_1_1_our_features.html" xlink:title="Json::OurFeatures">
<polygon fill="none" stroke="black" points="83.5,-134.5 83.5,-153.5 181.5,-153.5 181.5,-134.5 83.5,-134.5"/>
<text text-anchor="middle" x="132.5" y="-141.5" font-family="Helvetica,sans-Serif" font-size="10.00">Json::OurFeatures</text>
</a>
</g>
</g>
<!-- Node94&#45;&gt;Node93 -->
<g id="edge3" class="edge"><title>Node94&#45;&gt;Node93</title>
<path fill="none" stroke="#9a32cd" stroke-dasharray="5,2" d="M132.5,-124.037C132.5,-111.67 132.5,-96.1198 132.5,-86.6273"/>
<polygon fill="#9a32cd" stroke="#9a32cd" points="129,-124.234 132.5,-134.234 136,-124.234 129,-124.234"/>
<text text-anchor="middle" x="154.5" y="-108" font-family="Helvetica,sans-Serif" font-size="10.00"> features_</text>
</g>
</g>
</svg>
