<?xml version="1.0" encoding="UTF-8" standalone="no"?>
<!DOCTYPE svg PUBLIC "-//W3C//DTD SVG 1.1//EN"
 "http://www.w3.org/Graphics/SVG/1.1/DTD/svg11.dtd">
<!-- Generated by graphviz version 2.38.0 (20140413.2041)
 -->
<!-- Title: /home/mel/projects/Misc/Minecraft Server Service/src/createSocket.cpp Pages: 1 -->
<svg width="730pt" height="162pt"
 viewBox="0.00 0.00 730.00 162.00" xmlns="http://www.w3.org/2000/svg" xmlns:xlink="http://www.w3.org/1999/xlink">
<g id="graph0" class="graph" transform="scale(1 1) rotate(0) translate(4 158)">
<title>/home/mel/projects/Misc/Minecraft Server Service/src/createSocket.cpp</title>
<!-- Node742 -->
<g id="node1" class="node"><title>Node742</title>
<polygon fill="#bfbfbf" stroke="black" points="298,-112.5 298,-153.5 447,-153.5 447,-112.5 298,-112.5"/>
<text text-anchor="start" x="306" y="-141.5" font-family="Helvetica,sans-Serif" font-size="10.00">/home/mel/projects</text>
<text text-anchor="start" x="306" y="-130.5" font-family="Helvetica,sans-Serif" font-size="10.00">/Misc/Minecraft Server</text>
<text text-anchor="middle" x="372.5" y="-119.5" font-family="Helvetica,sans-Serif" font-size="10.00"> Service/src/createSocket.cpp</text>
</g>
<!-- Node743 -->
<g id="node2" class="node"><title>Node743</title>
<g id="a_node2"><a xlink:href="$create_socket_8h.html" xlink:title="createSocket.h">
<polygon fill="none" stroke="black" points="75,-56.5 75,-75.5 158,-75.5 158,-56.5 75,-56.5"/>
<text text-anchor="middle" x="116.5" y="-63.5" font-family="Helvetica,sans-Serif" font-size="10.00">createSocket.h</text>
</a>
</g>
</g>
<!-- Node742&#45;&gt;Node743 -->
<g id="edge1" class="edge"><title>Node742&#45;&gt;Node743</title>
<path fill="none" stroke="midnightblue" d="M297.766,-113.025C253.114,-101.687 197.937,-87.6775 160.266,-78.1126"/>
<polygon fill="midnightblue" stroke="midnightblue" points="160.683,-74.6073 150.129,-75.5386 158.96,-81.392 160.683,-74.6073"/>
</g>
<!-- Node744 -->
<g id="node3" class="node"><title>Node744</title>
<polygon fill="none" stroke="#bfbfbf" points="0,-0.5 0,-19.5 107,-19.5 107,-0.5 0,-0.5"/>
<text text-anchor="middle" x="53.5" y="-7.5" font-family="Helvetica,sans-Serif" font-size="10.00">log4cpp/Category.hh</text>
</g>
<!-- Node742&#45;&gt;Node744 -->
<g id="edge11" class="edge"><title>Node742&#45;&gt;Node744</title>
<path fill="none" stroke="midnightblue" d="M297.873,-127.934C217.687,-121.965 97.4268,-107.859 65.5,-76 53.5782,-64.1036 51.3819,-44.4837 51.6782,-29.9062"/>
<polygon fill="midnightblue" stroke="midnightblue" points="55.1951,-29.7353 52.312,-19.5403 48.2082,-29.308 55.1951,-29.7353"/>
</g>
<!-- Node745 -->
<g id="node4" class="node"><title>Node745</title>
<polygon fill="none" stroke="#bfbfbf" points="139,-0.5 139,-19.5 220,-19.5 220,-0.5 139,-0.5"/>
<text text-anchor="middle" x="179.5" y="-7.5" font-family="Helvetica,sans-Serif" font-size="10.00">event2/event.h</text>
</g>
<!-- Node742&#45;&gt;Node745 -->
<g id="edge12" class="edge"><title>Node742&#45;&gt;Node745</title>
<path fill="none" stroke="midnightblue" d="M297.904,-121.312C266.102,-113.42 230.62,-99.7284 205.5,-76 192.545,-63.7627 185.901,-44.2203 182.588,-29.7552"/>
<polygon fill="midnightblue" stroke="midnightblue" points="186.013,-29.0289 180.655,-19.8885 179.143,-30.3749 186.013,-29.0289"/>
</g>
<!-- Node746 -->
<g id="node5" class="node"><title>Node746</title>
<polygon fill="none" stroke="#bfbfbf" points="214.5,-56.5 214.5,-75.5 282.5,-75.5 282.5,-56.5 214.5,-56.5"/>
<text text-anchor="middle" x="248.5" y="-63.5" font-family="Helvetica,sans-Serif" font-size="10.00">sys/types.h</text>
</g>
<!-- Node742&#45;&gt;Node746 -->
<g id="edge4" class="edge"><title>Node742&#45;&gt;Node746</title>
<path fill="none" stroke="midnightblue" d="M335.296,-112.498C315.553,-102.149 291.794,-89.6946 274.129,-80.4346"/>
<polygon fill="midnightblue" stroke="midnightblue" points="275.488,-77.1954 265.006,-75.6525 272.238,-83.3952 275.488,-77.1954"/>
</g>
<!-- Node747 -->
<g id="node6" class="node"><title>Node747</title>
<polygon fill="none" stroke="#bfbfbf" points="300.5,-56.5 300.5,-75.5 360.5,-75.5 360.5,-56.5 300.5,-56.5"/>
<text text-anchor="middle" x="330.5" y="-63.5" font-family="Helvetica,sans-Serif" font-size="10.00">sys/stat.h</text>
</g>
<!-- Node742&#45;&gt;Node747 -->
<g id="edge5" class="edge"><title>Node742&#45;&gt;Node747</title>
<path fill="none" stroke="midnightblue" d="M359.899,-112.498C354.078,-103.49 347.228,-92.8881 341.604,-84.1852"/>
<polygon fill="midnightblue" stroke="midnightblue" points="344.458,-82.1522 336.091,-75.6525 338.578,-85.9512 344.458,-82.1522"/>
</g>
<!-- Node748 -->
<g id="node7" class="node"><title>Node748</title>
<polygon fill="none" stroke="#bfbfbf" points="379,-56.5 379,-75.5 452,-75.5 452,-56.5 379,-56.5"/>
<text text-anchor="middle" x="415.5" y="-63.5" font-family="Helvetica,sans-Serif" font-size="10.00">sys/socket.h</text>
</g>
<!-- Node742&#45;&gt;Node748 -->
<g id="edge6" class="edge"><title>Node742&#45;&gt;Node748</title>
<path fill="none" stroke="midnightblue" d="M385.401,-112.498C391.36,-103.49 398.374,-92.8881 404.131,-84.1852"/>
<polygon fill="midnightblue" stroke="midnightblue" points="407.178,-85.9238 409.776,-75.6525 401.34,-82.0616 407.178,-85.9238"/>
</g>
<!-- Node749 -->
<g id="node8" class="node"><title>Node749</title>
<polygon fill="none" stroke="#bfbfbf" points="470.5,-56.5 470.5,-75.5 524.5,-75.5 524.5,-56.5 470.5,-56.5"/>
<text text-anchor="middle" x="497.5" y="-63.5" font-family="Helvetica,sans-Serif" font-size="10.00">sys/un.h</text>
</g>
<!-- Node742&#45;&gt;Node749 -->
<g id="edge7" class="edge"><title>Node742&#45;&gt;Node749</title>
<path fill="none" stroke="midnightblue" d="M410.004,-112.498C429.906,-102.149 453.857,-89.6946 471.664,-80.4346"/>
<polygon fill="midnightblue" stroke="midnightblue" points="473.603,-83.3713 480.861,-75.6525 470.374,-77.1608 473.603,-83.3713"/>
</g>
<!-- Node750 -->
<g id="node9" class="node"><title>Node750</title>
<polygon fill="none" stroke="#bfbfbf" points="542.5,-56.5 542.5,-75.5 586.5,-75.5 586.5,-56.5 542.5,-56.5"/>
<text text-anchor="middle" x="564.5" y="-63.5" font-family="Helvetica,sans-Serif" font-size="10.00">fcntl.h</text>
</g>
<!-- Node742&#45;&gt;Node750 -->
<g id="edge8" class="edge"><title>Node742&#45;&gt;Node750</title>
<path fill="none" stroke="midnightblue" d="M430.106,-112.498C463.751,-101.108 504.929,-87.1672 532.77,-77.7421"/>
<polygon fill="midnightblue" stroke="midnightblue" points="534.035,-81.0089 542.384,-74.4871 531.79,-74.3786 534.035,-81.0089"/>
</g>
<!-- Node751 -->
<g id="node10" class="node"><title>Node751</title>
<polygon fill="none" stroke="#bfbfbf" points="604.5,-56.5 604.5,-75.5 652.5,-75.5 652.5,-56.5 604.5,-56.5"/>
<text text-anchor="middle" x="628.5" y="-63.5" font-family="Helvetica,sans-Serif" font-size="10.00">stdlib.h</text>
</g>
<!-- Node742&#45;&gt;Node751 -->
<g id="edge9" class="edge"><title>Node742&#45;&gt;Node751</title>
<path fill="none" stroke="midnightblue" d="M447.184,-113.645C488.085,-103.499 539.907,-90.4918 594.502,-76.2258"/>
<polygon fill="midnightblue" stroke="midnightblue" points="595.578,-79.5623 604.365,-73.6428 593.804,-72.7907 595.578,-79.5623"/>
</g>
<!-- Node752 -->
<g id="node11" class="node"><title>Node752</title>
<polygon fill="none" stroke="#bfbfbf" points="671,-56.5 671,-75.5 722,-75.5 722,-56.5 671,-56.5"/>
<text text-anchor="middle" x="696.5" y="-63.5" font-family="Helvetica,sans-Serif" font-size="10.00">unistd.h</text>
</g>
<!-- Node742&#45;&gt;Node752 -->
<g id="edge10" class="edge"><title>Node742&#45;&gt;Node752</title>
<path fill="none" stroke="midnightblue" d="M447.004,-118.839C503.119,-108.632 582.154,-93.6317 660.837,-76.0367"/>
<polygon fill="midnightblue" stroke="midnightblue" points="661.942,-79.3757 670.929,-73.7651 660.404,-72.5466 661.942,-79.3757"/>
</g>
<!-- Node743&#45;&gt;Node744 -->
<g id="edge2" class="edge"><title>Node743&#45;&gt;Node744</title>
<path fill="none" stroke="midnightblue" d="M106.378,-56.324C96.9736,-48.2631 82.7559,-36.0765 71.431,-26.3695"/>
<polygon fill="midnightblue" stroke="midnightblue" points="73.6766,-23.6844 63.8062,-19.8339 69.121,-28.9993 73.6766,-23.6844"/>
</g>
<!-- Node743&#45;&gt;Node745 -->
<g id="edge3" class="edge"><title>Node743&#45;&gt;Node745</title>
<path fill="none" stroke="midnightblue" d="M126.622,-56.324C136.026,-48.2631 150.244,-36.0765 161.569,-26.3695"/>
<polygon fill="midnightblue" stroke="midnightblue" points="163.879,-28.9993 169.194,-19.8339 159.323,-23.6844 163.879,-28.9993"/>
</g>
</g>
</svg>
