<?xml version="1.0" encoding="UTF-8" standalone="no"?>
<!DOCTYPE svg PUBLIC "-//W3C//DTD SVG 1.1//EN"
 "http://www.w3.org/Graphics/SVG/1.1/DTD/svg11.dtd">
<!-- Generated by graphviz version 2.38.0 (20140413.2041)
 -->
<!-- Title: /home/mel/projects/Misc/Minecraft Server Service/src/createSocket.h Pages: 1 -->
<svg width="214pt" height="106pt"
 viewBox="0.00 0.00 214.00 106.00" xmlns="http://www.w3.org/2000/svg" xmlns:xlink="http://www.w3.org/1999/xlink">
<g id="graph0" class="graph" transform="scale(1 1) rotate(0) translate(4 102)">
<title>/home/mel/projects/Misc/Minecraft Server Service/src/createSocket.h</title>
<!-- Node754 -->
<g id="node1" class="node"><title>Node754</title>
<polygon fill="#bfbfbf" stroke="black" points="40.5,-56.5 40.5,-97.5 178.5,-97.5 178.5,-56.5 40.5,-56.5"/>
<text text-anchor="start" x="48.5" y="-85.5" font-family="Helvetica,sans-Serif" font-size="10.00">/home/mel/projects</text>
<text text-anchor="start" x="48.5" y="-74.5" font-family="Helvetica,sans-Serif" font-size="10.00">/Misc/Minecraft Server</text>
<text text-anchor="middle" x="109.5" y="-63.5" font-family="Helvetica,sans-Serif" font-size="10.00"> Service/src/createSocket.h</text>
</g>
<!-- Node755 -->
<g id="node2" class="node"><title>Node755</title>
<polygon fill="none" stroke="#bfbfbf" points="0,-0.5 0,-19.5 107,-19.5 107,-0.5 0,-0.5"/>
<text text-anchor="middle" x="53.5" y="-7.5" font-family="Helvetica,sans-Serif" font-size="10.00">log4cpp/Category.hh</text>
</g>
<!-- Node754&#45;&gt;Node755 -->
<g id="edge1" class="edge"><title>Node754&#45;&gt;Node755</title>
<path fill="none" stroke="midnightblue" d="M92.6982,-56.4979C84.6902,-47.2029 75.2191,-36.2097 67.5929,-27.3579"/>
<polygon fill="midnightblue" stroke="midnightblue" points="70.1332,-24.9441 60.9545,-19.6525 64.8299,-29.5131 70.1332,-24.9441"/>
</g>
<!-- Node756 -->
<g id="node3" class="node"><title>Node756</title>
<polygon fill="none" stroke="#bfbfbf" points="125,-0.5 125,-19.5 206,-19.5 206,-0.5 125,-0.5"/>
<text text-anchor="middle" x="165.5" y="-7.5" font-family="Helvetica,sans-Serif" font-size="10.00">event2/event.h</text>
</g>
<!-- Node754&#45;&gt;Node756 -->
<g id="edge2" class="edge"><title>Node754&#45;&gt;Node756</title>
<path fill="none" stroke="midnightblue" d="M126.302,-56.4979C134.31,-47.2029 143.781,-36.2097 151.407,-27.3579"/>
<polygon fill="midnightblue" stroke="midnightblue" points="154.17,-29.5131 158.046,-19.6525 148.867,-24.9441 154.17,-29.5131"/>
</g>
</g>
</svg>
