<?xml version="1.0" encoding="UTF-8" standalone="no"?>
<!DOCTYPE svg PUBLIC "-//W3C//DTD SVG 1.1//EN"
 "http://www.w3.org/Graphics/SVG/1.1/DTD/svg11.dtd">
<!-- Generated by graphviz version 2.38.0 (20140413.2041)
 -->
<!-- Title: /home/mel/projects/Misc/Minecraft Server Service/src/parser.cpp Pages: 1 -->
<svg width="457pt" height="162pt"
 viewBox="0.00 0.00 457.00 162.00" xmlns="http://www.w3.org/2000/svg" xmlns:xlink="http://www.w3.org/1999/xlink">
<g id="graph0" class="graph" transform="scale(1 1) rotate(0) translate(4 158)">
<title>/home/mel/projects/Misc/Minecraft Server Service/src/parser.cpp</title>
<!-- Node928 -->
<g id="node1" class="node"><title>Node928</title>
<polygon fill="#bfbfbf" stroke="black" points="137,-112.5 137,-153.5 255,-153.5 255,-112.5 137,-112.5"/>
<text text-anchor="start" x="145" y="-141.5" font-family="Helvetica,sans-Serif" font-size="10.00">/home/mel/projects</text>
<text text-anchor="start" x="145" y="-130.5" font-family="Helvetica,sans-Serif" font-size="10.00">/Misc/Minecraft Server</text>
<text text-anchor="middle" x="196" y="-119.5" font-family="Helvetica,sans-Serif" font-size="10.00"> Service/src/parser.cpp</text>
</g>
<!-- Node929 -->
<g id="node2" class="node"><title>Node929</title>
<g id="a_node2"><a xlink:href="$parser_8h.html" xlink:title="parser.h">
<polygon fill="none" stroke="black" points="51,-56.5 51,-75.5 103,-75.5 103,-56.5 51,-56.5"/>
<text text-anchor="middle" x="77" y="-63.5" font-family="Helvetica,sans-Serif" font-size="10.00">parser.h</text>
</a>
</g>
</g>
<!-- Node928&#45;&gt;Node929 -->
<g id="edge1" class="edge"><title>Node928&#45;&gt;Node929</title>
<path fill="none" stroke="midnightblue" d="M160.296,-112.498C141.525,-102.245 118.97,-89.925 102.068,-80.6927"/>
<polygon fill="midnightblue" stroke="midnightblue" points="103.295,-77.3746 92.8407,-75.6525 99.9391,-83.5179 103.295,-77.3746"/>
</g>
<!-- Node930 -->
<g id="node3" class="node"><title>Node930</title>
<polygon fill="none" stroke="#bfbfbf" points="0,-0.5 0,-19.5 48,-19.5 48,-0.5 0,-0.5"/>
<text text-anchor="middle" x="24" y="-7.5" font-family="Helvetica,sans-Serif" font-size="10.00">stdlib.h</text>
</g>
<!-- Node928&#45;&gt;Node930 -->
<g id="edge9" class="edge"><title>Node928&#45;&gt;Node930</title>
<path fill="none" stroke="midnightblue" d="M136.779,-123.883C104.617,-116.522 66.5241,-102.532 42,-76 30.4605,-63.5156 26.2203,-44.285 24.7117,-29.9758"/>
<polygon fill="midnightblue" stroke="midnightblue" points="28.1878,-29.5102 24.0001,-19.7781 21.2048,-29.9975 28.1878,-29.5102"/>
</g>
<!-- Node931 -->
<g id="node4" class="node"><title>Node931</title>
<polygon fill="none" stroke="#bfbfbf" points="69.5,-0.5 69.5,-19.5 110.5,-19.5 110.5,-0.5 69.5,-0.5"/>
<text text-anchor="middle" x="90" y="-7.5" font-family="Helvetica,sans-Serif" font-size="10.00">string</text>
</g>
<!-- Node928&#45;&gt;Node931 -->
<g id="edge7" class="edge"><title>Node928&#45;&gt;Node931</title>
<path fill="none" stroke="midnightblue" d="M178.733,-112.29C158.017,-88.6425 123.668,-49.4323 104.345,-27.3753"/>
<polygon fill="midnightblue" stroke="midnightblue" points="106.734,-24.7904 97.5118,-19.5748 101.469,-29.4031 106.734,-24.7904"/>
</g>
<!-- Node932 -->
<g id="node5" class="node"><title>Node932</title>
<polygon fill="none" stroke="#bfbfbf" points="135,-0.5 135,-19.5 199,-19.5 199,-0.5 135,-0.5"/>
<text text-anchor="middle" x="167" y="-7.5" font-family="Helvetica,sans-Serif" font-size="10.00">json/json.h</text>
</g>
<!-- Node928&#45;&gt;Node932 -->
<g id="edge6" class="edge"><title>Node928&#45;&gt;Node932</title>
<path fill="none" stroke="midnightblue" d="M191.276,-112.29C185.784,-89.3749 176.79,-51.8464 171.427,-29.4732"/>
<polygon fill="midnightblue" stroke="midnightblue" points="174.789,-28.4836 169.055,-19.5748 167.982,-30.1152 174.789,-28.4836"/>
</g>
<!-- Node933 -->
<g id="node6" class="node"><title>Node933</title>
<polygon fill="none" stroke="#bfbfbf" points="197,-56.5 197,-75.5 251,-75.5 251,-56.5 197,-56.5"/>
<text text-anchor="middle" x="224" y="-63.5" font-family="Helvetica,sans-Serif" font-size="10.00">iostream</text>
</g>
<!-- Node928&#45;&gt;Node933 -->
<g id="edge5" class="edge"><title>Node928&#45;&gt;Node933</title>
<path fill="none" stroke="midnightblue" d="M204.401,-112.498C208.157,-103.778 212.557,-93.5632 216.236,-85.0241"/>
<polygon fill="midnightblue" stroke="midnightblue" points="219.531,-86.2213 220.273,-75.6525 213.102,-83.4519 219.531,-86.2213"/>
</g>
<!-- Node934 -->
<g id="node7" class="node"><title>Node934</title>
<polygon fill="none" stroke="#bfbfbf" points="269,-56.5 269,-75.5 319,-75.5 319,-56.5 269,-56.5"/>
<text text-anchor="middle" x="294" y="-63.5" font-family="Helvetica,sans-Serif" font-size="10.00">fstream</text>
</g>
<!-- Node928&#45;&gt;Node934 -->
<g id="edge8" class="edge"><title>Node928&#45;&gt;Node934</title>
<path fill="none" stroke="midnightblue" d="M225.403,-112.498C240.573,-102.436 258.743,-90.3849 272.57,-81.2136"/>
<polygon fill="midnightblue" stroke="midnightblue" points="274.556,-84.0967 280.955,-75.6525 270.687,-78.2631 274.556,-84.0967"/>
</g>
<!-- Node935 -->
<g id="node8" class="node"><title>Node935</title>
<polygon fill="none" stroke="#bfbfbf" points="337.5,-56.5 337.5,-75.5 384.5,-75.5 384.5,-56.5 337.5,-56.5"/>
<text text-anchor="middle" x="361" y="-63.5" font-family="Helvetica,sans-Serif" font-size="10.00">errno.h</text>
</g>
<!-- Node928&#45;&gt;Node935 -->
<g id="edge10" class="edge"><title>Node928&#45;&gt;Node935</title>
<path fill="none" stroke="midnightblue" d="M245.505,-112.498C272.749,-101.766 305.74,-88.7691 329.474,-79.4192"/>
<polygon fill="midnightblue" stroke="midnightblue" points="331.015,-82.5742 339.036,-75.6525 328.449,-76.0614 331.015,-82.5742"/>
</g>
<!-- Node936 -->
<g id="node9" class="node"><title>Node936</title>
<polygon fill="none" stroke="#bfbfbf" points="403,-56.5 403,-75.5 449,-75.5 449,-56.5 403,-56.5"/>
<text text-anchor="middle" x="426" y="-63.5" font-family="Helvetica,sans-Serif" font-size="10.00">stdio.h</text>
</g>
<!-- Node928&#45;&gt;Node936 -->
<g id="edge11" class="edge"><title>Node928&#45;&gt;Node936</title>
<path fill="none" stroke="midnightblue" d="M255.231,-115.261C298.963,-102.902 356.893,-86.5304 392.788,-76.386"/>
<polygon fill="midnightblue" stroke="midnightblue" points="394.068,-79.6615 402.739,-73.5738 392.164,-72.9253 394.068,-79.6615"/>
</g>
<!-- Node929&#45;&gt;Node930 -->
<g id="edge2" class="edge"><title>Node929&#45;&gt;Node930</title>
<path fill="none" stroke="midnightblue" d="M68.2481,-56.083C60.5303,-48.2195 49.0953,-36.5688 39.7835,-27.0813"/>
<polygon fill="midnightblue" stroke="midnightblue" points="42.0916,-24.4363 32.589,-19.7511 37.0958,-29.3396 42.0916,-24.4363"/>
</g>
<!-- Node929&#45;&gt;Node931 -->
<g id="edge3" class="edge"><title>Node929&#45;&gt;Node931</title>
<path fill="none" stroke="midnightblue" d="M79.1467,-56.083C80.8694,-48.9272 83.3471,-38.6353 85.5003,-29.6911"/>
<polygon fill="midnightblue" stroke="midnightblue" points="88.9554,-30.2925 87.8933,-19.7511 82.1499,-28.6541 88.9554,-30.2925"/>
</g>
<!-- Node929&#45;&gt;Node932 -->
<g id="edge4" class="edge"><title>Node929&#45;&gt;Node932</title>
<path fill="none" stroke="midnightblue" d="M91.4601,-56.324C105.5,-47.9002 127.048,-34.9709 143.543,-25.0741"/>
<polygon fill="midnightblue" stroke="midnightblue" points="145.802,-27.8007 152.576,-19.6545 142.2,-21.7983 145.802,-27.8007"/>
</g>
</g>
</svg>
