<?xml version="1.0" encoding="UTF-8" standalone="no"?>
<!DOCTYPE svg PUBLIC "-//W3C//DTD SVG 1.1//EN"
 "http://www.w3.org/Graphics/SVG/1.1/DTD/svg11.dtd">
<!-- Generated by graphviz version 2.38.0 (20140413.2041)
 -->
<!-- Title: /home/mel/projects/Misc/Minecraft Server Service/src/parser.h Pages: 1 -->
<svg width="198pt" height="106pt"
 viewBox="0.00 0.00 198.00 106.00" xmlns="http://www.w3.org/2000/svg" xmlns:xlink="http://www.w3.org/1999/xlink">
<g id="graph0" class="graph" transform="scale(1 1) rotate(0) translate(4 102)">
<title>/home/mel/projects/Misc/Minecraft Server Service/src/parser.h</title>
<!-- Node938 -->
<g id="node1" class="node"><title>Node938</title>
<polygon fill="#bfbfbf" stroke="black" points="29,-56.5 29,-97.5 145,-97.5 145,-56.5 29,-56.5"/>
<text text-anchor="start" x="37" y="-85.5" font-family="Helvetica,sans-Serif" font-size="10.00">/home/mel/projects</text>
<text text-anchor="start" x="37" y="-74.5" font-family="Helvetica,sans-Serif" font-size="10.00">/Misc/Minecraft Server</text>
<text text-anchor="middle" x="87" y="-63.5" font-family="Helvetica,sans-Serif" font-size="10.00"> Service/src/parser.h</text>
</g>
<!-- Node939 -->
<g id="node2" class="node"><title>Node939</title>
<polygon fill="none" stroke="#bfbfbf" points="0,-0.5 0,-19.5 48,-19.5 48,-0.5 0,-0.5"/>
<text text-anchor="middle" x="24" y="-7.5" font-family="Helvetica,sans-Serif" font-size="10.00">stdlib.h</text>
</g>
<!-- Node938&#45;&gt;Node939 -->
<g id="edge1" class="edge"><title>Node938&#45;&gt;Node939</title>
<path fill="none" stroke="midnightblue" d="M68.0979,-56.4979C58.9961,-47.1071 48.2142,-35.9829 39.5899,-27.0848"/>
<polygon fill="midnightblue" stroke="midnightblue" points="41.8593,-24.3973 32.3863,-19.6525 36.8328,-29.2691 41.8593,-24.3973"/>
</g>
<!-- Node940 -->
<g id="node3" class="node"><title>Node940</title>
<polygon fill="none" stroke="#bfbfbf" points="66.5,-0.5 66.5,-19.5 107.5,-19.5 107.5,-0.5 66.5,-0.5"/>
<text text-anchor="middle" x="87" y="-7.5" font-family="Helvetica,sans-Serif" font-size="10.00">string</text>
</g>
<!-- Node938&#45;&gt;Node940 -->
<g id="edge2" class="edge"><title>Node938&#45;&gt;Node940</title>
<path fill="none" stroke="midnightblue" d="M87,-56.4979C87,-48.0653 87,-38.2351 87,-29.874"/>
<polygon fill="midnightblue" stroke="midnightblue" points="90.5001,-29.6525 87,-19.6525 83.5001,-29.6525 90.5001,-29.6525"/>
</g>
<!-- Node941 -->
<g id="node4" class="node"><title>Node941</title>
<polygon fill="none" stroke="#bfbfbf" points="126,-0.5 126,-19.5 190,-19.5 190,-0.5 126,-0.5"/>
<text text-anchor="middle" x="158" y="-7.5" font-family="Helvetica,sans-Serif" font-size="10.00">json/json.h</text>
</g>
<!-- Node938&#45;&gt;Node941 -->
<g id="edge3" class="edge"><title>Node938&#45;&gt;Node941</title>
<path fill="none" stroke="midnightblue" d="M108.302,-56.4979C118.769,-46.9154 131.208,-35.5281 141.022,-26.5428"/>
<polygon fill="midnightblue" stroke="midnightblue" points="143.536,-28.9866 148.549,-19.6525 138.81,-23.8235 143.536,-28.9866"/>
</g>
</g>
</svg>
