<?xml version="1.0" encoding="UTF-8" standalone="no"?>
<!DOCTYPE svg PUBLIC "-//W3C//DTD SVG 1.1//EN"
 "http://www.w3.org/Graphics/SVG/1.1/DTD/svg11.dtd">
<!-- Generated by graphviz version 2.38.0 (20140413.2041)
 -->
<!-- Title: /home/mel/projects/Misc/Minecraft Server Service/src/server.h Pages: 1 -->
<svg width="1940pt" height="106pt"
 viewBox="0.00 0.00 1940.00 106.00" xmlns="http://www.w3.org/2000/svg" xmlns:xlink="http://www.w3.org/1999/xlink">
<g id="graph0" class="graph" transform="scale(1 1) rotate(0) translate(4 102)">
<title>/home/mel/projects/Misc/Minecraft Server Service/src/server.h</title>
<!-- Node977 -->
<g id="node1" class="node"><title>Node977</title>
<polygon fill="#bfbfbf" stroke="black" points="1018,-56.5 1018,-97.5 1134,-97.5 1134,-56.5 1018,-56.5"/>
<text text-anchor="start" x="1026" y="-85.5" font-family="Helvetica,sans-Serif" font-size="10.00">/home/mel/projects</text>
<text text-anchor="start" x="1026" y="-74.5" font-family="Helvetica,sans-Serif" font-size="10.00">/Misc/Minecraft Server</text>
<text text-anchor="middle" x="1076" y="-63.5" font-family="Helvetica,sans-Serif" font-size="10.00"> Service/src/server.h</text>
</g>
<!-- Node978 -->
<g id="node2" class="node"><title>Node978</title>
<polygon fill="none" stroke="#bfbfbf" points="0,-0.5 0,-19.5 86,-19.5 86,-0.5 0,-0.5"/>
<text text-anchor="middle" x="43" y="-7.5" font-family="Helvetica,sans-Serif" font-size="10.00">outputListener.h</text>
</g>
<!-- Node977&#45;&gt;Node978 -->
<g id="edge1" class="edge"><title>Node977&#45;&gt;Node978</title>
<path fill="none" stroke="midnightblue" d="M1017.75,-74.9972C866.983,-71.9038 451.507,-60.2158 96.0452,-19.9837"/>
<polygon fill="midnightblue" stroke="midnightblue" points="96.4078,-16.5024 86.0754,-18.8459 95.6141,-23.4573 96.4078,-16.5024"/>
</g>
<!-- Node979 -->
<g id="node3" class="node"><title>Node979</title>
<polygon fill="none" stroke="#bfbfbf" points="104.5,-0.5 104.5,-19.5 211.5,-19.5 211.5,-0.5 104.5,-0.5"/>
<text text-anchor="middle" x="158" y="-7.5" font-family="Helvetica,sans-Serif" font-size="10.00">log4cpp/Category.hh</text>
</g>
<!-- Node977&#45;&gt;Node979 -->
<g id="edge2" class="edge"><title>Node977&#45;&gt;Node979</title>
<path fill="none" stroke="midnightblue" d="M1017.82,-73.7261C880.914,-68.0444 527.573,-51.4514 221.534,-19.9697"/>
<polygon fill="midnightblue" stroke="midnightblue" points="221.889,-16.4878 211.582,-18.9389 221.168,-23.4506 221.889,-16.4878"/>
</g>
<!-- Node980 -->
<g id="node4" class="node"><title>Node980</title>
<polygon fill="none" stroke="#bfbfbf" points="230,-0.5 230,-19.5 340,-19.5 340,-0.5 230,-0.5"/>
<text text-anchor="middle" x="285" y="-7.5" font-family="Helvetica,sans-Serif" font-size="10.00">event2/event&#45;config.h</text>
</g>
<!-- Node977&#45;&gt;Node980 -->
<g id="edge3" class="edge"><title>Node977&#45;&gt;Node980</title>
<path fill="none" stroke="midnightblue" d="M1017.93,-72.7697C896.169,-65.7272 605.043,-47.4773 350.32,-20.0798"/>
<polygon fill="midnightblue" stroke="midnightblue" points="350.449,-16.5734 340.131,-18.9768 349.696,-23.5328 350.449,-16.5734"/>
</g>
<!-- Node981 -->
<g id="node5" class="node"><title>Node981</title>
<polygon fill="none" stroke="#bfbfbf" points="358.5,-0.5 358.5,-19.5 439.5,-19.5 439.5,-0.5 358.5,-0.5"/>
<text text-anchor="middle" x="399" y="-7.5" font-family="Helvetica,sans-Serif" font-size="10.00">event2/event.h</text>
</g>
<!-- Node977&#45;&gt;Node981 -->
<g id="edge4" class="edge"><title>Node977&#45;&gt;Node981</title>
<path fill="none" stroke="midnightblue" d="M1017.89,-72.5447C908.643,-65.6705 665.024,-48.5487 449.527,-19.9489"/>
<polygon fill="midnightblue" stroke="midnightblue" points="449.987,-16.4794 439.611,-18.6221 449.059,-23.4175 449.987,-16.4794"/>
</g>
<!-- Node982 -->
<g id="node6" class="node"><title>Node982</title>
<polygon fill="none" stroke="#bfbfbf" points="458,-0.5 458,-19.5 528,-19.5 528,-0.5 458,-0.5"/>
<text text-anchor="middle" x="493" y="-7.5" font-family="Helvetica,sans-Serif" font-size="10.00">event2/util.h</text>
</g>
<!-- Node977&#45;&gt;Node982 -->
<g id="edge5" class="edge"><title>Node977&#45;&gt;Node982</title>
<path fill="none" stroke="midnightblue" d="M1017.93,-71.8484C920.681,-64.4833 718.589,-47.4174 537.956,-20.0073"/>
<polygon fill="midnightblue" stroke="midnightblue" points="538.423,-16.5381 528.009,-18.4839 537.364,-23.4574 538.423,-16.5381"/>
</g>
<!-- Node983 -->
<g id="node7" class="node"><title>Node983</title>
<polygon fill="none" stroke="#bfbfbf" points="546,-0.5 546,-19.5 608,-19.5 608,-0.5 546,-0.5"/>
<text text-anchor="middle" x="577" y="-7.5" font-family="Helvetica,sans-Serif" font-size="10.00">sys/wait.h</text>
</g>
<!-- Node977&#45;&gt;Node983 -->
<g id="edge6" class="edge"><title>Node977&#45;&gt;Node983</title>
<path fill="none" stroke="midnightblue" d="M1017.76,-70.7768C932.307,-62.6977 767.778,-45.5694 618.638,-20.1387"/>
<polygon fill="midnightblue" stroke="midnightblue" points="618.833,-16.6206 608.384,-18.3726 617.644,-23.5191 618.833,-16.6206"/>
</g>
<!-- Node984 -->
<g id="node8" class="node"><title>Node984</title>
<polygon fill="none" stroke="#bfbfbf" points="626.5,-0.5 626.5,-19.5 677.5,-19.5 677.5,-0.5 626.5,-0.5"/>
<text text-anchor="middle" x="652" y="-7.5" font-family="Helvetica,sans-Serif" font-size="10.00">unistd.h</text>
</g>
<!-- Node977&#45;&gt;Node984 -->
<g id="edge7" class="edge"><title>Node977&#45;&gt;Node984</title>
<path fill="none" stroke="midnightblue" d="M1017.82,-69.7844C943.303,-61.3487 810.059,-44.6701 687.479,-20.1146"/>
<polygon fill="midnightblue" stroke="midnightblue" points="688.041,-16.6574 677.545,-18.1023 686.651,-23.5181 688.041,-16.6574"/>
</g>
<!-- Node985 -->
<g id="node9" class="node"><title>Node985</title>
<polygon fill="none" stroke="#bfbfbf" points="695.5,-0.5 695.5,-19.5 736.5,-19.5 736.5,-0.5 695.5,-0.5"/>
<text text-anchor="middle" x="716" y="-7.5" font-family="Helvetica,sans-Serif" font-size="10.00">string</text>
</g>
<!-- Node977&#45;&gt;Node985 -->
<g id="edge8" class="edge"><title>Node977&#45;&gt;Node985</title>
<path fill="none" stroke="midnightblue" d="M1017.74,-68.3323C953.603,-59.3946 847.335,-43.1282 746.609,-19.88"/>
<polygon fill="midnightblue" stroke="midnightblue" points="747.101,-16.4007 736.567,-17.5343 745.509,-23.2172 747.101,-16.4007"/>
</g>
<!-- Node986 -->
<g id="node10" class="node"><title>Node986</title>
<polygon fill="none" stroke="#bfbfbf" points="755,-0.5 755,-19.5 807,-19.5 807,-0.5 755,-0.5"/>
<text text-anchor="middle" x="781" y="-7.5" font-family="Helvetica,sans-Serif" font-size="10.00">sstream</text>
</g>
<!-- Node977&#45;&gt;Node986 -->
<g id="edge9" class="edge"><title>Node977&#45;&gt;Node986</title>
<path fill="none" stroke="midnightblue" d="M1017.77,-64.1446C967.244,-53.7028 891.907,-37.7599 817.377,-20.2598"/>
<polygon fill="midnightblue" stroke="midnightblue" points="817.882,-16.7829 807.346,-17.8935 816.275,-23.5959 817.882,-16.7829"/>
</g>
<!-- Node987 -->
<g id="node11" class="node"><title>Node987</title>
<polygon fill="none" stroke="#bfbfbf" points="825,-0.5 825,-19.5 869,-19.5 869,-0.5 825,-0.5"/>
<text text-anchor="middle" x="847" y="-7.5" font-family="Helvetica,sans-Serif" font-size="10.00">vector</text>
</g>
<!-- Node977&#45;&gt;Node987 -->
<g id="edge10" class="edge"><title>Node977&#45;&gt;Node987</title>
<path fill="none" stroke="midnightblue" d="M1017.92,-59.6881C980.758,-49.2237 931.257,-35.2372 878.831,-20.2248"/>
<polygon fill="midnightblue" stroke="midnightblue" points="879.587,-16.8008 869.01,-17.4104 877.659,-23.5299 879.587,-16.8008"/>
</g>
<!-- Node988 -->
<g id="node12" class="node"><title>Node988</title>
<polygon fill="none" stroke="#bfbfbf" points="887,-0.5 887,-19.5 931,-19.5 931,-0.5 887,-0.5"/>
<text text-anchor="middle" x="909" y="-7.5" font-family="Helvetica,sans-Serif" font-size="10.00">thread</text>
</g>
<!-- Node977&#45;&gt;Node988 -->
<g id="edge11" class="edge"><title>Node977&#45;&gt;Node988</title>
<path fill="none" stroke="midnightblue" d="M1025.89,-56.4979C998.198,-45.7176 964.632,-32.6531 940.586,-23.2941"/>
<polygon fill="midnightblue" stroke="midnightblue" points="941.819,-20.0181 931.23,-19.6525 939.28,-26.5414 941.819,-20.0181"/>
</g>
<!-- Node989 -->
<g id="node13" class="node"><title>Node989</title>
<polygon fill="none" stroke="#bfbfbf" points="949,-0.5 949,-19.5 993,-19.5 993,-0.5 949,-0.5"/>
<text text-anchor="middle" x="971" y="-7.5" font-family="Helvetica,sans-Serif" font-size="10.00">mutex</text>
</g>
<!-- Node977&#45;&gt;Node989 -->
<g id="edge12" class="edge"><title>Node977&#45;&gt;Node989</title>
<path fill="none" stroke="midnightblue" d="M1044.5,-56.4979C1028.09,-46.3405 1008.4,-34.1551 993.538,-24.9523"/>
<polygon fill="midnightblue" stroke="midnightblue" points="995.322,-21.9402 984.977,-19.6525 991.638,-27.892 995.322,-21.9402"/>
</g>
<!-- Node990 -->
<g id="node14" class="node"><title>Node990</title>
<polygon fill="none" stroke="#bfbfbf" points="1011.5,-0.5 1011.5,-19.5 1070.5,-19.5 1070.5,-0.5 1011.5,-0.5"/>
<text text-anchor="middle" x="1041" y="-7.5" font-family="Helvetica,sans-Serif" font-size="10.00">functional</text>
</g>
<!-- Node977&#45;&gt;Node990 -->
<g id="edge13" class="edge"><title>Node977&#45;&gt;Node990</title>
<path fill="none" stroke="midnightblue" d="M1065.5,-56.4979C1060.7,-47.5862 1055.06,-37.1135 1050.4,-28.4636"/>
<polygon fill="midnightblue" stroke="midnightblue" points="1053.48,-26.7978 1045.66,-19.6525 1047.32,-30.1166 1053.48,-26.7978"/>
</g>
<!-- Node991 -->
<g id="node15" class="node"><title>Node991</title>
<polygon fill="none" stroke="#bfbfbf" points="1088.5,-0.5 1088.5,-19.5 1133.5,-19.5 1133.5,-0.5 1088.5,-0.5"/>
<text text-anchor="middle" x="1111" y="-7.5" font-family="Helvetica,sans-Serif" font-size="10.00">cstdlib</text>
</g>
<!-- Node977&#45;&gt;Node991 -->
<g id="edge14" class="edge"><title>Node977&#45;&gt;Node991</title>
<path fill="none" stroke="midnightblue" d="M1086.5,-56.4979C1091.3,-47.5862 1096.94,-37.1135 1101.6,-28.4636"/>
<polygon fill="midnightblue" stroke="midnightblue" points="1104.68,-30.1166 1106.34,-19.6525 1098.52,-26.7978 1104.68,-30.1166"/>
</g>
<!-- Node992 -->
<g id="node16" class="node"><title>Node992</title>
<polygon fill="none" stroke="#bfbfbf" points="1151.5,-0.5 1151.5,-19.5 1196.5,-19.5 1196.5,-0.5 1151.5,-0.5"/>
<text text-anchor="middle" x="1174" y="-7.5" font-family="Helvetica,sans-Serif" font-size="10.00">iosfwd</text>
</g>
<!-- Node977&#45;&gt;Node992 -->
<g id="edge15" class="edge"><title>Node977&#45;&gt;Node992</title>
<path fill="none" stroke="midnightblue" d="M1105.4,-56.4979C1120.57,-46.4363 1138.74,-34.3849 1152.57,-25.2136"/>
<polygon fill="midnightblue" stroke="midnightblue" points="1154.56,-28.0967 1160.95,-19.6525 1150.69,-22.2631 1154.56,-28.0967"/>
</g>
<!-- Node993 -->
<g id="node17" class="node"><title>Node993</title>
<polygon fill="none" stroke="#bfbfbf" points="1215,-0.5 1215,-19.5 1261,-19.5 1261,-0.5 1215,-0.5"/>
<text text-anchor="middle" x="1238" y="-7.5" font-family="Helvetica,sans-Serif" font-size="10.00">cctype</text>
</g>
<!-- Node977&#45;&gt;Node993 -->
<g id="edge16" class="edge"><title>Node977&#45;&gt;Node993</title>
<path fill="none" stroke="midnightblue" d="M1124.61,-56.4979C1151.35,-45.7655 1183.74,-32.7691 1207.05,-23.4192"/>
<polygon fill="midnightblue" stroke="midnightblue" points="1208.46,-26.6246 1216.44,-19.6525 1205.85,-20.128 1208.46,-26.6246"/>
</g>
<!-- Node994 -->
<g id="node18" class="node"><title>Node994</title>
<polygon fill="none" stroke="#bfbfbf" points="1279,-0.5 1279,-19.5 1335,-19.5 1335,-0.5 1279,-0.5"/>
<text text-anchor="middle" x="1307" y="-7.5" font-family="Helvetica,sans-Serif" font-size="10.00">algorithm</text>
</g>
<!-- Node977&#45;&gt;Node994 -->
<g id="edge17" class="edge"><title>Node977&#45;&gt;Node994</title>
<path fill="none" stroke="midnightblue" d="M1134.29,-59.5978C1176.56,-47.7034 1232.51,-31.9605 1269.11,-21.662"/>
<polygon fill="midnightblue" stroke="midnightblue" points="1270.21,-24.9872 1278.89,-18.9093 1268.32,-18.2489 1270.21,-24.9872"/>
</g>
<!-- Node995 -->
<g id="node19" class="node"><title>Node995</title>
<polygon fill="none" stroke="#bfbfbf" points="1353.5,-0.5 1353.5,-19.5 1400.5,-19.5 1400.5,-0.5 1353.5,-0.5"/>
<text text-anchor="middle" x="1377" y="-7.5" font-family="Helvetica,sans-Serif" font-size="10.00">iterator</text>
</g>
<!-- Node977&#45;&gt;Node995 -->
<g id="edge18" class="edge"><title>Node977&#45;&gt;Node995</title>
<path fill="none" stroke="midnightblue" d="M1134.26,-64.8791C1186.46,-54.6743 1265.34,-38.6704 1343.26,-20.0623"/>
<polygon fill="midnightblue" stroke="midnightblue" points="1344.35,-23.4012 1353.25,-17.6607 1342.71,-16.5951 1344.35,-23.4012"/>
</g>
<!-- Node996 -->
<g id="node20" class="node"><title>Node996</title>
<polygon fill="none" stroke="#bfbfbf" points="1418.5,-0.5 1418.5,-19.5 1467.5,-19.5 1467.5,-0.5 1418.5,-0.5"/>
<text text-anchor="middle" x="1443" y="-7.5" font-family="Helvetica,sans-Serif" font-size="10.00">cstddef</text>
</g>
<!-- Node977&#45;&gt;Node996 -->
<g id="edge19" class="edge"><title>Node977&#45;&gt;Node996</title>
<path fill="none" stroke="midnightblue" d="M1134.26,-68.0378C1199.09,-58.7744 1307.08,-42.1427 1408.42,-20.1907"/>
<polygon fill="midnightblue" stroke="midnightblue" points="1409.18,-23.6066 1418.2,-18.0498 1407.68,-16.7684 1409.18,-23.6066"/>
</g>
<!-- Node997 -->
<g id="node21" class="node"><title>Node997</title>
<polygon fill="none" stroke="#bfbfbf" points="1486,-0.5 1486,-19.5 1538,-19.5 1538,-0.5 1486,-0.5"/>
<text text-anchor="middle" x="1512" y="-7.5" font-family="Helvetica,sans-Serif" font-size="10.00">ostream</text>
</g>
<!-- Node977&#45;&gt;Node997 -->
<g id="edge20" class="edge"><title>Node977&#45;&gt;Node997</title>
<path fill="none" stroke="midnightblue" d="M1134.12,-69.9694C1210.44,-61.5872 1348.73,-44.8107 1475.79,-20.0536"/>
<polygon fill="midnightblue" stroke="midnightblue" points="1476.56,-23.469 1485.7,-18.1025 1475.21,-16.601 1476.56,-23.469"/>
</g>
<!-- Node998 -->
<g id="node22" class="node"><title>Node998</title>
<polygon fill="none" stroke="#bfbfbf" points="1556.5,-0.5 1556.5,-19.5 1605.5,-19.5 1605.5,-0.5 1556.5,-0.5"/>
<text text-anchor="middle" x="1581" y="-7.5" font-family="Helvetica,sans-Serif" font-size="10.00">cassert</text>
</g>
<!-- Node977&#45;&gt;Node998 -->
<g id="edge21" class="edge"><title>Node977&#45;&gt;Node998</title>
<path fill="none" stroke="midnightblue" d="M1134.04,-71.7389C1221.43,-64.7436 1392.05,-48.8334 1546.09,-19.9161"/>
<polygon fill="midnightblue" stroke="midnightblue" points="1547.04,-23.2981 1556.21,-17.9925 1545.73,-16.4212 1547.04,-23.2981"/>
</g>
<!-- Node999 -->
<g id="node23" class="node"><title>Node999</title>
<polygon fill="none" stroke="#bfbfbf" points="1624,-0.5 1624,-19.5 1670,-19.5 1670,-0.5 1624,-0.5"/>
<text text-anchor="middle" x="1647" y="-7.5" font-family="Helvetica,sans-Serif" font-size="10.00">cstring</text>
</g>
<!-- Node977&#45;&gt;Node999 -->
<g id="edge22" class="edge"><title>Node977&#45;&gt;Node999</title>
<path fill="none" stroke="midnightblue" d="M1134.3,-73.2082C1231.9,-67.8223 1434.48,-53.5971 1613.82,-19.93"/>
<polygon fill="midnightblue" stroke="midnightblue" points="1614.52,-23.3588 1623.69,-18.0519 1613.21,-16.4821 1614.52,-23.3588"/>
</g>
<!-- Node1000 -->
<g id="node24" class="node"><title>Node1000</title>
<polygon fill="none" stroke="#bfbfbf" points="1688,-0.5 1688,-19.5 1742,-19.5 1742,-0.5 1688,-0.5"/>
<text text-anchor="middle" x="1715" y="-7.5" font-family="Helvetica,sans-Serif" font-size="10.00">iostream</text>
</g>
<!-- Node977&#45;&gt;Node1000 -->
<g id="edge23" class="edge"><title>Node977&#45;&gt;Node1000</title>
<path fill="none" stroke="midnightblue" d="M1134.17,-73.5476C1240.45,-68.4257 1473.13,-54.2458 1677.93,-19.9299"/>
<polygon fill="midnightblue" stroke="midnightblue" points="1678.69,-23.3502 1687.97,-18.2277 1677.52,-16.4487 1678.69,-23.3502"/>
</g>
<!-- Node1001 -->
<g id="node25" class="node"><title>Node1001</title>
<polygon fill="none" stroke="#bfbfbf" points="1760,-0.5 1760,-19.5 1808,-19.5 1808,-0.5 1760,-0.5"/>
<text text-anchor="middle" x="1784" y="-7.5" font-family="Helvetica,sans-Serif" font-size="10.00">stdlib.h</text>
</g>
<!-- Node977&#45;&gt;Node1001 -->
<g id="edge24" class="edge"><title>Node977&#45;&gt;Node1001</title>
<path fill="none" stroke="midnightblue" d="M1134.25,-74.7581C1250.07,-71.5121 1517.47,-60.1414 1749.97,-19.8565"/>
<polygon fill="midnightblue" stroke="midnightblue" points="1750.72,-23.2782 1759.97,-18.1027 1749.51,-16.3835 1750.72,-23.2782"/>
</g>
<!-- Node1002 -->
<g id="node26" class="node"><title>Node1002</title>
<polygon fill="none" stroke="#bfbfbf" points="1826.5,-0.5 1826.5,-19.5 1869.5,-19.5 1869.5,-0.5 1826.5,-0.5"/>
<text text-anchor="middle" x="1848" y="-7.5" font-family="Helvetica,sans-Serif" font-size="10.00">pwd.h</text>
</g>
<!-- Node977&#45;&gt;Node1002 -->
<g id="edge25" class="edge"><title>Node977&#45;&gt;Node1002</title>
<path fill="none" stroke="midnightblue" d="M1134.16,-75.6824C1258.23,-74.1272 1557.9,-65.697 1816.5,-19.6677"/>
<polygon fill="midnightblue" stroke="midnightblue" points="1817.24,-23.0918 1826.46,-17.8733 1815.99,-16.2028 1817.24,-23.0918"/>
</g>
<!-- Node1003 -->
<g id="node27" class="node"><title>Node1003</title>
<polygon fill="none" stroke="#bfbfbf" points="1888,-0.5 1888,-19.5 1932,-19.5 1932,-0.5 1888,-0.5"/>
<text text-anchor="middle" x="1910" y="-7.5" font-family="Helvetica,sans-Serif" font-size="10.00">time.h</text>
</g>
<!-- Node977&#45;&gt;Node1003 -->
<g id="edge26" class="edge"><title>Node977&#45;&gt;Node1003</title>
<path fill="none" stroke="midnightblue" d="M1134.46,-76.1642C1266.1,-75.6238 1595.64,-69.1776 1877.77,-19.8376"/>
<polygon fill="midnightblue" stroke="midnightblue" points="1878.55,-23.2542 1887.78,-18.0643 1877.33,-16.3614 1878.55,-23.2542"/>
</g>
</g>
</svg>
