<?xml version="1.0" encoding="UTF-8" standalone="no"?>
<!DOCTYPE svg PUBLIC "-//W3C//DTD SVG 1.1//EN"
 "http://www.w3.org/Graphics/SVG/1.1/DTD/svg11.dtd">
<!-- Generated by graphviz version 2.38.0 (20140413.2041)
 -->
<!-- Title: /home/mel/projects/Misc/Minecraft Server Service/src/server.h Pages: 1 -->
<svg width="1325pt" height="206pt"
 viewBox="0.00 0.00 1325.00 206.00" xmlns="http://www.w3.org/2000/svg" xmlns:xlink="http://www.w3.org/1999/xlink">
<g id="graph0" class="graph" transform="scale(1 1) rotate(0) translate(4 202)">
<title>/home/mel/projects/Misc/Minecraft Server Service/src/server.h</title>
<!-- Node1004 -->
<g id="node1" class="node"><title>Node1004</title>
<polygon fill="#bfbfbf" stroke="black" points="746,-156.5 746,-197.5 862,-197.5 862,-156.5 746,-156.5"/>
<text text-anchor="start" x="754" y="-185.5" font-family="Helvetica,sans-Serif" font-size="10.00">/home/mel/projects</text>
<text text-anchor="start" x="754" y="-174.5" font-family="Helvetica,sans-Serif" font-size="10.00">/Misc/Minecraft Server</text>
<text text-anchor="middle" x="804" y="-163.5" font-family="Helvetica,sans-Serif" font-size="10.00"> Service/src/server.h</text>
</g>
<!-- Node1005 -->
<g id="node2" class="node"><title>Node1005</title>
<g id="a_node2"><a xlink:href="$bukkit_server_8h.html" xlink:title="/home/mel/projects\l/Misc/Minecraft Server\l Service/src/bukkitServer.h">
<polygon fill="none" stroke="black" points="131.5,-78.5 131.5,-119.5 266.5,-119.5 266.5,-78.5 131.5,-78.5"/>
<text text-anchor="start" x="139.5" y="-107.5" font-family="Helvetica,sans-Serif" font-size="10.00">/home/mel/projects</text>
<text text-anchor="start" x="139.5" y="-96.5" font-family="Helvetica,sans-Serif" font-size="10.00">/Misc/Minecraft Server</text>
<text text-anchor="middle" x="199" y="-85.5" font-family="Helvetica,sans-Serif" font-size="10.00"> Service/src/bukkitServer.h</text>
</a>
</g>
</g>
<!-- Node1004&#45;&gt;Node1005 -->
<g id="edge1" class="edge"><title>Node1004&#45;&gt;Node1005</title>
<path fill="none" stroke="midnightblue" d="M735.564,-172.087C634.28,-165.545 438.788,-150.041 275,-120 272.316,-119.508 269.588,-118.97 266.838,-118.398"/>
<polygon fill="midnightblue" stroke="midnightblue" points="735.459,-175.587 745.661,-172.729 735.904,-168.601 735.459,-175.587"/>
</g>
<!-- Node1007 -->
<g id="node4" class="node"><title>Node1007</title>
<g id="a_node4"><a xlink:href="$setup_servers_8cpp.html" xlink:title="/home/mel/projects\l/Misc/Minecraft Server\l Service/src/setupServers.cpp">
<polygon fill="none" stroke="black" points="521.5,-0.5 521.5,-41.5 670.5,-41.5 670.5,-0.5 521.5,-0.5"/>
<text text-anchor="start" x="529.5" y="-29.5" font-family="Helvetica,sans-Serif" font-size="10.00">/home/mel/projects</text>
<text text-anchor="start" x="529.5" y="-18.5" font-family="Helvetica,sans-Serif" font-size="10.00">/Misc/Minecraft Server</text>
<text text-anchor="middle" x="596" y="-7.5" font-family="Helvetica,sans-Serif" font-size="10.00"> Service/src/setupServers.cpp</text>
</a>
</g>
</g>
<!-- Node1004&#45;&gt;Node1007 -->
<g id="edge17" class="edge"><title>Node1004&#45;&gt;Node1007</title>
<path fill="none" stroke="midnightblue" d="M736.032,-162.893C706.691,-154.527 673.545,-141.134 649,-120 624.521,-98.9232 609.425,-63.6409 601.888,-41.6561"/>
<polygon fill="midnightblue" stroke="midnightblue" points="735.252,-166.308 745.819,-165.542 737.08,-159.551 735.252,-166.308"/>
</g>
<!-- Node1008 -->
<g id="node5" class="node"><title>Node1008</title>
<g id="a_node5"><a xlink:href="$bungeecord_server_8h.html" xlink:title="/home/mel/projects\l/Misc/Minecraft Server\l Service/src/bungeecordServer.h">
<polygon fill="none" stroke="black" points="284.5,-78.5 284.5,-119.5 443.5,-119.5 443.5,-78.5 284.5,-78.5"/>
<text text-anchor="start" x="292.5" y="-107.5" font-family="Helvetica,sans-Serif" font-size="10.00">/home/mel/projects</text>
<text text-anchor="start" x="292.5" y="-96.5" font-family="Helvetica,sans-Serif" font-size="10.00">/Misc/Minecraft Server</text>
<text text-anchor="middle" x="364" y="-85.5" font-family="Helvetica,sans-Serif" font-size="10.00"> Service/src/bungeecordServer.h</text>
</a>
</g>
</g>
<!-- Node1004&#45;&gt;Node1008 -->
<g id="edge4" class="edge"><title>Node1004&#45;&gt;Node1008</title>
<path fill="none" stroke="midnightblue" d="M735.592,-166.385C664.69,-156.116 550.761,-138.764 453,-120 449.889,-119.403 446.722,-118.777 443.525,-118.131"/>
<polygon fill="midnightblue" stroke="midnightblue" points="735.336,-169.885 745.734,-167.848 736.336,-162.956 735.336,-169.885"/>
</g>
<!-- Node1010 -->
<g id="node7" class="node"><title>Node1010</title>
<g id="a_node7"><a xlink:href="$generic_server_8h.html" xlink:title="/home/mel/projects\l/Misc/Minecraft Server\l Service/src/genericServer.h">
<polygon fill="none" stroke="black" points="462,-78.5 462,-119.5 602,-119.5 602,-78.5 462,-78.5"/>
<text text-anchor="start" x="470" y="-107.5" font-family="Helvetica,sans-Serif" font-size="10.00">/home/mel/projects</text>
<text text-anchor="start" x="470" y="-96.5" font-family="Helvetica,sans-Serif" font-size="10.00">/Misc/Minecraft Server</text>
<text text-anchor="middle" x="532" y="-85.5" font-family="Helvetica,sans-Serif" font-size="10.00"> Service/src/genericServer.h</text>
</a>
</g>
</g>
<!-- Node1004&#45;&gt;Node1010 -->
<g id="edge7" class="edge"><title>Node1004&#45;&gt;Node1010</title>
<path fill="none" stroke="midnightblue" d="M736.106,-157.03C695.215,-145.604 643.252,-131.085 601.99,-119.556"/>
<polygon fill="midnightblue" stroke="midnightblue" points="735.41,-160.469 745.983,-159.789 737.294,-153.727 735.41,-160.469"/>
</g>
<!-- Node1012 -->
<g id="node9" class="node"><title>Node1012</title>
<g id="a_node9"><a xlink:href="$main_8cpp.html" xlink:title="/home/mel/projects\l/Misc/Minecraft Server\l Service/src/main.cpp">
<polygon fill="none" stroke="black" points="1018,-0.5 1018,-41.5 1134,-41.5 1134,-0.5 1018,-0.5"/>
<text text-anchor="start" x="1026" y="-29.5" font-family="Helvetica,sans-Serif" font-size="10.00">/home/mel/projects</text>
<text text-anchor="start" x="1026" y="-18.5" font-family="Helvetica,sans-Serif" font-size="10.00">/Misc/Minecraft Server</text>
<text text-anchor="middle" x="1076" y="-7.5" font-family="Helvetica,sans-Serif" font-size="10.00"> Service/src/main.cpp</text>
</a>
</g>
</g>
<!-- Node1004&#45;&gt;Node1012 -->
<g id="edge10" class="edge"><title>Node1004&#45;&gt;Node1012</title>
<path fill="none" stroke="midnightblue" d="M872.289,-173.538C954.063,-168.986 1083.82,-156.122 1114,-120 1133.31,-96.8944 1111.94,-62.8621 1094.31,-41.5869"/>
<polygon fill="midnightblue" stroke="midnightblue" points="871.873,-170.055 862.072,-174.077 872.242,-177.045 871.873,-170.055"/>
</g>
<!-- Node1013 -->
<g id="node10" class="node"><title>Node1013</title>
<g id="a_node10"><a xlink:href="$setup_servers_8h.html" xlink:title="/home/mel/projects\l/Misc/Minecraft Server\l Service/src/setupServers.h">
<polygon fill="none" stroke="black" points="967,-78.5 967,-119.5 1105,-119.5 1105,-78.5 967,-78.5"/>
<text text-anchor="start" x="975" y="-107.5" font-family="Helvetica,sans-Serif" font-size="10.00">/home/mel/projects</text>
<text text-anchor="start" x="975" y="-96.5" font-family="Helvetica,sans-Serif" font-size="10.00">/Misc/Minecraft Server</text>
<text text-anchor="middle" x="1036" y="-85.5" font-family="Helvetica,sans-Serif" font-size="10.00"> Service/src/setupServers.h</text>
</a>
</g>
</g>
<!-- Node1004&#45;&gt;Node1013 -->
<g id="edge11" class="edge"><title>Node1004&#45;&gt;Node1013</title>
<path fill="none" stroke="midnightblue" d="M871.826,-153.781C904.852,-142.962 944.213,-130.068 976.115,-119.618"/>
<polygon fill="midnightblue" stroke="midnightblue" points="870.657,-150.481 862.244,-156.92 872.837,-157.133 870.657,-150.481"/>
</g>
<!-- Node1014 -->
<g id="node11" class="node"><title>Node1014</title>
<g id="a_node11"><a xlink:href="$main_loop_8cpp.html" xlink:title="/home/mel/projects\l/Misc/Minecraft Server\l Service/src/mainLoop.cpp">
<polygon fill="none" stroke="black" points="1152.5,-0.5 1152.5,-41.5 1285.5,-41.5 1285.5,-0.5 1152.5,-0.5"/>
<text text-anchor="start" x="1160.5" y="-29.5" font-family="Helvetica,sans-Serif" font-size="10.00">/home/mel/projects</text>
<text text-anchor="start" x="1160.5" y="-18.5" font-family="Helvetica,sans-Serif" font-size="10.00">/Misc/Minecraft Server</text>
<text text-anchor="middle" x="1219" y="-7.5" font-family="Helvetica,sans-Serif" font-size="10.00"> Service/src/mainLoop.cpp</text>
</a>
</g>
</g>
<!-- Node1004&#45;&gt;Node1014 -->
<g id="edge15" class="edge"><title>Node1004&#45;&gt;Node1014</title>
<path fill="none" stroke="midnightblue" d="M872.289,-169.706C954.948,-161.17 1088.49,-144.164 1132,-120 1165.61,-101.333 1192.76,-64.603 1207.33,-41.7943"/>
<polygon fill="midnightblue" stroke="midnightblue" points="871.816,-166.236 862.222,-170.73 872.524,-173.2 871.816,-166.236"/>
</g>
<!-- Node1015 -->
<g id="node12" class="node"><title>Node1015</title>
<g id="a_node12"><a xlink:href="$server_8cpp.html" xlink:title="/home/mel/projects\l/Misc/Minecraft Server\l Service/src/server.cpp">
<polygon fill="none" stroke="black" points="1199,-78.5 1199,-119.5 1317,-119.5 1317,-78.5 1199,-78.5"/>
<text text-anchor="start" x="1207" y="-107.5" font-family="Helvetica,sans-Serif" font-size="10.00">/home/mel/projects</text>
<text text-anchor="start" x="1207" y="-96.5" font-family="Helvetica,sans-Serif" font-size="10.00">/Misc/Minecraft Server</text>
<text text-anchor="middle" x="1258" y="-85.5" font-family="Helvetica,sans-Serif" font-size="10.00"> Service/src/server.cpp</text>
</a>
</g>
</g>
<!-- Node1004&#45;&gt;Node1015 -->
<g id="edge16" class="edge"><title>Node1004&#45;&gt;Node1015</title>
<path fill="none" stroke="midnightblue" d="M872.154,-168.515C948.727,-159.52 1076.51,-142.747 1185,-120 1189.5,-119.056 1194.14,-117.997 1198.78,-116.871"/>
<polygon fill="midnightblue" stroke="midnightblue" points="871.684,-165.046 862.156,-169.68 872.494,-171.999 871.684,-165.046"/>
</g>
<!-- Node1016 -->
<g id="node13" class="node"><title>Node1016</title>
<g id="a_node13"><a xlink:href="$vanilla_server_8h.html" xlink:title="/home/mel/projects\l/Misc/Minecraft Server\l Service/src/vanillaServer.h">
<polygon fill="none" stroke="black" points="658.5,-78.5 658.5,-119.5 795.5,-119.5 795.5,-78.5 658.5,-78.5"/>
<text text-anchor="start" x="666.5" y="-107.5" font-family="Helvetica,sans-Serif" font-size="10.00">/home/mel/projects</text>
<text text-anchor="start" x="666.5" y="-96.5" font-family="Helvetica,sans-Serif" font-size="10.00">/Misc/Minecraft Server</text>
<text text-anchor="middle" x="727" y="-85.5" font-family="Helvetica,sans-Serif" font-size="10.00"> Service/src/vanillaServer.h</text>
</a>
</g>
</g>
<!-- Node1004&#45;&gt;Node1016 -->
<g id="edge18" class="edge"><title>Node1004&#45;&gt;Node1016</title>
<path fill="none" stroke="midnightblue" d="M776.851,-149.204C766.935,-139.416 755.914,-128.539 746.762,-119.506"/>
<polygon fill="midnightblue" stroke="midnightblue" points="774.595,-151.894 784.171,-156.428 779.512,-146.912 774.595,-151.894"/>
</g>
<!-- Node1018 -->
<g id="node15" class="node"><title>Node1018</title>
<g id="a_node15"><a xlink:href="$spigot_server_8h.html" xlink:title="/home/mel/projects\l/Misc/Minecraft Server\l Service/src/spigotServer.h">
<polygon fill="none" stroke="black" points="813.5,-78.5 813.5,-119.5 948.5,-119.5 948.5,-78.5 813.5,-78.5"/>
<text text-anchor="start" x="821.5" y="-107.5" font-family="Helvetica,sans-Serif" font-size="10.00">/home/mel/projects</text>
<text text-anchor="start" x="821.5" y="-96.5" font-family="Helvetica,sans-Serif" font-size="10.00">/Misc/Minecraft Server</text>
<text text-anchor="middle" x="881" y="-85.5" font-family="Helvetica,sans-Serif" font-size="10.00"> Service/src/spigotServer.h</text>
</a>
</g>
</g>
<!-- Node1004&#45;&gt;Node1018 -->
<g id="edge21" class="edge"><title>Node1004&#45;&gt;Node1018</title>
<path fill="none" stroke="midnightblue" d="M831.149,-149.204C841.065,-139.416 852.086,-128.539 861.238,-119.506"/>
<polygon fill="midnightblue" stroke="midnightblue" points="828.488,-146.912 823.829,-156.428 833.405,-151.894 828.488,-146.912"/>
</g>
<!-- Node1006 -->
<g id="node3" class="node"><title>Node1006</title>
<g id="a_node3"><a xlink:href="$bukkit_server_8cpp.html" xlink:title="/home/mel/projects\l/Misc/Minecraft Server\l Service/src/bukkitServer.cpp">
<polygon fill="none" stroke="black" points="0,-0.5 0,-41.5 146,-41.5 146,-0.5 0,-0.5"/>
<text text-anchor="start" x="8" y="-29.5" font-family="Helvetica,sans-Serif" font-size="10.00">/home/mel/projects</text>
<text text-anchor="start" x="8" y="-18.5" font-family="Helvetica,sans-Serif" font-size="10.00">/Misc/Minecraft Server</text>
<text text-anchor="middle" x="73" y="-7.5" font-family="Helvetica,sans-Serif" font-size="10.00"> Service/src/bukkitServer.cpp</text>
</a>
</g>
</g>
<!-- Node1005&#45;&gt;Node1006 -->
<g id="edge2" class="edge"><title>Node1005&#45;&gt;Node1006</title>
<path fill="none" stroke="midnightblue" d="M157.889,-73.2029C140.837,-62.9176 121.342,-51.1587 105.338,-41.5056"/>
<polygon fill="midnightblue" stroke="midnightblue" points="156.181,-76.2602 166.552,-78.4281 159.797,-70.2661 156.181,-76.2602"/>
</g>
<!-- Node1005&#45;&gt;Node1007 -->
<g id="edge3" class="edge"><title>Node1005&#45;&gt;Node1007</title>
<path fill="none" stroke="midnightblue" d="M276.855,-77.7156C381.102,-56.7481 410.587,-61.7399 512,-42 515.09,-41.3985 518.239,-40.7611 521.415,-40.0978"/>
<polygon fill="midnightblue" stroke="midnightblue" points="275.965,-74.3251 266.868,-79.7568 277.366,-81.1833 275.965,-74.3251"/>
</g>
<!-- Node1008&#45;&gt;Node1007 -->
<g id="edge6" class="edge"><title>Node1008&#45;&gt;Node1007</title>
<path fill="none" stroke="midnightblue" d="M433.283,-75.3039C466.123,-64.5458 504.962,-51.8229 536.457,-41.5056"/>
<polygon fill="midnightblue" stroke="midnightblue" points="432.159,-71.9889 423.746,-78.4281 434.338,-78.641 432.159,-71.9889"/>
</g>
<!-- Node1009 -->
<g id="node6" class="node"><title>Node1009</title>
<g id="a_node6"><a xlink:href="$bungeecord_server_8cpp.html" xlink:title="/home/mel/projects\l/Misc/Minecraft Server\l Service/src/bungeecordServer.cpp">
<polygon fill="none" stroke="black" points="164,-0.5 164,-41.5 334,-41.5 334,-0.5 164,-0.5"/>
<text text-anchor="start" x="172" y="-29.5" font-family="Helvetica,sans-Serif" font-size="10.00">/home/mel/projects</text>
<text text-anchor="start" x="172" y="-18.5" font-family="Helvetica,sans-Serif" font-size="10.00">/Misc/Minecraft Server</text>
<text text-anchor="middle" x="249" y="-7.5" font-family="Helvetica,sans-Serif" font-size="10.00"> Service/src/bungeecordServer.cpp</text>
</a>
</g>
</g>
<!-- Node1008&#45;&gt;Node1009 -->
<g id="edge5" class="edge"><title>Node1008&#45;&gt;Node1009</title>
<path fill="none" stroke="midnightblue" d="M325.619,-72.6352C310.263,-62.4868 292.854,-50.9816 278.515,-41.5056"/>
<polygon fill="midnightblue" stroke="midnightblue" points="324.112,-75.8346 334.385,-78.4281 327.972,-69.9946 324.112,-75.8346"/>
</g>
<!-- Node1010&#45;&gt;Node1007 -->
<g id="edge9" class="edge"><title>Node1010&#45;&gt;Node1007</title>
<path fill="none" stroke="midnightblue" d="M555.051,-70.627C563.166,-60.9901 572.117,-50.3617 579.574,-41.5056"/>
<polygon fill="midnightblue" stroke="midnightblue" points="552.246,-68.5245 548.482,-78.4281 557.6,-73.0335 552.246,-68.5245"/>
</g>
<!-- Node1011 -->
<g id="node8" class="node"><title>Node1011</title>
<g id="a_node8"><a xlink:href="$generic_server_8cpp.html" xlink:title="/home/mel/projects\l/Misc/Minecraft Server\l Service/src/genericServer.cpp">
<polygon fill="none" stroke="black" points="352.5,-0.5 352.5,-41.5 503.5,-41.5 503.5,-0.5 352.5,-0.5"/>
<text text-anchor="start" x="360.5" y="-29.5" font-family="Helvetica,sans-Serif" font-size="10.00">/home/mel/projects</text>
<text text-anchor="start" x="360.5" y="-18.5" font-family="Helvetica,sans-Serif" font-size="10.00">/Misc/Minecraft Server</text>
<text text-anchor="middle" x="428" y="-7.5" font-family="Helvetica,sans-Serif" font-size="10.00"> Service/src/genericServer.cpp</text>
</a>
</g>
</g>
<!-- Node1010&#45;&gt;Node1011 -->
<g id="edge8" class="edge"><title>Node1010&#45;&gt;Node1011</title>
<path fill="none" stroke="midnightblue" d="M496.9,-72.3503C483.109,-62.2719 467.538,-50.893 454.692,-41.5056"/>
<polygon fill="midnightblue" stroke="midnightblue" points="495.078,-75.3538 505.217,-78.4281 499.209,-69.702 495.078,-75.3538"/>
</g>
<!-- Node1013&#45;&gt;Node1007 -->
<g id="edge14" class="edge"><title>Node1013&#45;&gt;Node1007</title>
<path fill="none" stroke="midnightblue" d="M956.866,-78.1096C832.878,-55.1549 798.405,-64.0511 679,-42 676.231,-41.4886 673.415,-40.9429 670.576,-40.3708"/>
<polygon fill="midnightblue" stroke="midnightblue" points="956.267,-81.5582 966.742,-79.9696 957.563,-74.6791 956.267,-81.5582"/>
</g>
<!-- Node1013&#45;&gt;Node1012 -->
<g id="edge12" class="edge"><title>Node1013&#45;&gt;Node1012</title>
<path fill="none" stroke="midnightblue" d="M1051.02,-69.466C1055.92,-60.1427 1061.26,-50.0074 1065.73,-41.5056"/>
<polygon fill="midnightblue" stroke="midnightblue" points="1047.86,-67.9488 1046.3,-78.4281 1054.06,-71.209 1047.86,-67.9488"/>
</g>
<!-- Node1013&#45;&gt;Node1014 -->
<g id="edge13" class="edge"><title>Node1013&#45;&gt;Node1014</title>
<path fill="none" stroke="midnightblue" d="M1092.66,-74.4689C1118.13,-63.8921 1147.83,-51.5572 1172.03,-41.5056"/>
<polygon fill="midnightblue" stroke="midnightblue" points="1091.02,-71.3603 1083.13,-78.4281 1093.7,-77.825 1091.02,-71.3603"/>
</g>
<!-- Node1016&#45;&gt;Node1007 -->
<g id="edge19" class="edge"><title>Node1016&#45;&gt;Node1007</title>
<path fill="none" stroke="midnightblue" d="M684.258,-73.2029C666.529,-62.9176 646.26,-51.1587 629.621,-41.5056"/>
<polygon fill="midnightblue" stroke="midnightblue" points="682.858,-76.4373 693.264,-78.4281 686.371,-70.3825 682.858,-76.4373"/>
</g>
<!-- Node1017 -->
<g id="node14" class="node"><title>Node1017</title>
<g id="a_node14"><a xlink:href="$vanilla_server_8cpp.html" xlink:title="/home/mel/projects\l/Misc/Minecraft Server\l Service/src/vanillaServer.cpp">
<polygon fill="none" stroke="black" points="688.5,-0.5 688.5,-41.5 835.5,-41.5 835.5,-0.5 688.5,-0.5"/>
<text text-anchor="start" x="696.5" y="-29.5" font-family="Helvetica,sans-Serif" font-size="10.00">/home/mel/projects</text>
<text text-anchor="start" x="696.5" y="-18.5" font-family="Helvetica,sans-Serif" font-size="10.00">/Misc/Minecraft Server</text>
<text text-anchor="middle" x="762" y="-7.5" font-family="Helvetica,sans-Serif" font-size="10.00"> Service/src/vanillaServer.cpp</text>
</a>
</g>
</g>
<!-- Node1016&#45;&gt;Node1017 -->
<g id="edge20" class="edge"><title>Node1016&#45;&gt;Node1017</title>
<path fill="none" stroke="midnightblue" d="M740.275,-69.1744C744.531,-59.9317 749.143,-49.9188 753.017,-41.5056"/>
<polygon fill="midnightblue" stroke="midnightblue" points="737.017,-67.8809 736.013,-78.4281 743.376,-70.8091 737.017,-67.8809"/>
</g>
<!-- Node1018&#45;&gt;Node1007 -->
<g id="edge22" class="edge"><title>Node1018&#45;&gt;Node1007</title>
<path fill="none" stroke="midnightblue" d="M803.598,-77.3594C761.79,-66.2106 710.459,-52.5225 669.301,-41.5468"/>
<polygon fill="midnightblue" stroke="midnightblue" points="802.895,-80.7942 813.459,-79.9891 804.698,-74.0305 802.895,-80.7942"/>
</g>
<!-- Node1019 -->
<g id="node16" class="node"><title>Node1019</title>
<g id="a_node16"><a xlink:href="$spigot_server_8cpp.html" xlink:title="/home/mel/projects\l/Misc/Minecraft Server\l Service/src/spigotServer.cpp">
<polygon fill="none" stroke="black" points="854,-0.5 854,-41.5 1000,-41.5 1000,-0.5 854,-0.5"/>
<text text-anchor="start" x="862" y="-29.5" font-family="Helvetica,sans-Serif" font-size="10.00">/home/mel/projects</text>
<text text-anchor="start" x="862" y="-18.5" font-family="Helvetica,sans-Serif" font-size="10.00">/Misc/Minecraft Server</text>
<text text-anchor="middle" x="927" y="-7.5" font-family="Helvetica,sans-Serif" font-size="10.00"> Service/src/spigotServer.cpp</text>
</a>
</g>
</g>
<!-- Node1018&#45;&gt;Node1019 -->
<g id="edge23" class="edge"><title>Node1018&#45;&gt;Node1019</title>
<path fill="none" stroke="midnightblue" d="M898.094,-69.7571C903.786,-60.354 909.995,-50.096 915.194,-41.5056"/>
<polygon fill="midnightblue" stroke="midnightblue" points="895.03,-68.0608 892.846,-78.4281 901.018,-71.6854 895.03,-68.0608"/>
</g>
</g>
</svg>
