<?xml version="1.0" encoding="UTF-8" standalone="no"?>
<!DOCTYPE svg PUBLIC "-//W3C//DTD SVG 1.1//EN"
 "http://www.w3.org/Graphics/SVG/1.1/DTD/svg11.dtd">
<!-- Generated by graphviz version 2.38.0 (20140413.2041)
 -->
<!-- Title: /home/mel/projects/Misc/Minecraft Server Service/src/vanillaServer.cpp Pages: 1 -->
<svg width="1939pt" height="218pt"
 viewBox="0.00 0.00 1939.00 218.00" xmlns="http://www.w3.org/2000/svg" xmlns:xlink="http://www.w3.org/1999/xlink">
<g id="graph0" class="graph" transform="scale(1 1) rotate(0) translate(4 214)">
<title>/home/mel/projects/Misc/Minecraft Server Service/src/vanillaServer.cpp</title>
<!-- Node1151 -->
<g id="node1" class="node"><title>Node1151</title>
<polygon fill="#bfbfbf" stroke="black" points="845,-168.5 845,-209.5 992,-209.5 992,-168.5 845,-168.5"/>
<text text-anchor="start" x="853" y="-197.5" font-family="Helvetica,sans-Serif" font-size="10.00">/home/mel/projects</text>
<text text-anchor="start" x="853" y="-186.5" font-family="Helvetica,sans-Serif" font-size="10.00">/Misc/Minecraft Server</text>
<text text-anchor="middle" x="918.5" y="-175.5" font-family="Helvetica,sans-Serif" font-size="10.00"> Service/src/vanillaServer.cpp</text>
</g>
<!-- Node1152 -->
<g id="node2" class="node"><title>Node1152</title>
<g id="a_node2"><a xlink:href="$vanilla_server_8h.html" xlink:title="vanillaServer.h">
<polygon fill="none" stroke="black" points="878,-112.5 878,-131.5 959,-131.5 959,-112.5 878,-112.5"/>
<text text-anchor="middle" x="918.5" y="-119.5" font-family="Helvetica,sans-Serif" font-size="10.00">vanillaServer.h</text>
</a>
</g>
</g>
<!-- Node1151&#45;&gt;Node1152 -->
<g id="edge1" class="edge"><title>Node1151&#45;&gt;Node1152</title>
<path fill="none" stroke="midnightblue" d="M918.5,-168.498C918.5,-160.065 918.5,-150.235 918.5,-141.874"/>
<polygon fill="midnightblue" stroke="midnightblue" points="922,-141.652 918.5,-131.652 915,-141.653 922,-141.652"/>
</g>
<!-- Node1155 -->
<g id="node5" class="node"><title>Node1155</title>
<polygon fill="none" stroke="#bfbfbf" points="201,-0.5 201,-19.5 308,-19.5 308,-0.5 201,-0.5"/>
<text text-anchor="middle" x="254.5" y="-7.5" font-family="Helvetica,sans-Serif" font-size="10.00">log4cpp/Category.hh</text>
</g>
<!-- Node1151&#45;&gt;Node1155 -->
<g id="edge35" class="edge"><title>Node1151&#45;&gt;Node1155</title>
<path fill="none" stroke="midnightblue" d="M845.222,-168.467C705.893,-131.326 406.84,-51.6086 296.51,-22.1984"/>
<polygon fill="midnightblue" stroke="midnightblue" points="297.303,-18.7877 286.739,-19.5939 295.5,-25.5516 297.303,-18.7877"/>
</g>
<!-- Node1160 -->
<g id="node10" class="node"><title>Node1160</title>
<polygon fill="none" stroke="#bfbfbf" points="0,-0.5 0,-19.5 51,-19.5 51,-0.5 0,-0.5"/>
<text text-anchor="middle" x="25.5" y="-7.5" font-family="Helvetica,sans-Serif" font-size="10.00">unistd.h</text>
</g>
<!-- Node1151&#45;&gt;Node1160 -->
<g id="edge41" class="edge"><title>Node1151&#45;&gt;Node1160</title>
<path fill="none" stroke="midnightblue" d="M844.952,-182.258C753.549,-174.391 593.063,-158.176 457.5,-132 362.657,-113.687 340.525,-102.018 247.5,-76 181.3,-57.4849 104.38,-34.6704 60.6693,-21.5832"/>
<polygon fill="midnightblue" stroke="midnightblue" points="61.6641,-18.2276 51.0802,-18.7086 59.654,-24.9328 61.6641,-18.2276"/>
</g>
<!-- Node1161 -->
<g id="node11" class="node"><title>Node1161</title>
<polygon fill="none" stroke="#bfbfbf" points="1688,-0.5 1688,-19.5 1729,-19.5 1729,-0.5 1688,-0.5"/>
<text text-anchor="middle" x="1708.5" y="-7.5" font-family="Helvetica,sans-Serif" font-size="10.00">string</text>
</g>
<!-- Node1151&#45;&gt;Node1161 -->
<g id="edge37" class="edge"><title>Node1151&#45;&gt;Node1161</title>
<path fill="none" stroke="midnightblue" d="M992.188,-173.866C1126.91,-147.558 1421.93,-87.7958 1678.1,-20.216"/>
<polygon fill="midnightblue" stroke="midnightblue" points="1679.2,-23.5478 1687.97,-17.6053 1677.4,-16.7809 1679.2,-23.5478"/>
</g>
<!-- Node1162 -->
<g id="node12" class="node"><title>Node1162</title>
<polygon fill="none" stroke="#bfbfbf" points="69.5,-0.5 69.5,-19.5 121.5,-19.5 121.5,-0.5 69.5,-0.5"/>
<text text-anchor="middle" x="95.5" y="-7.5" font-family="Helvetica,sans-Serif" font-size="10.00">sstream</text>
</g>
<!-- Node1151&#45;&gt;Node1162 -->
<g id="edge36" class="edge"><title>Node1151&#45;&gt;Node1162</title>
<path fill="none" stroke="midnightblue" d="M844.706,-178.692C770.359,-168.856 652.499,-152.014 551.5,-132 448.722,-111.633 423.772,-102.871 322.5,-76 254.679,-58.0049 176.07,-35.0151 131.419,-21.7545"/>
<polygon fill="midnightblue" stroke="midnightblue" points="132.206,-18.3373 121.624,-18.8397 130.21,-25.0466 132.206,-18.3373"/>
</g>
<!-- Node1163 -->
<g id="node13" class="node"><title>Node1163</title>
<polygon fill="none" stroke="#bfbfbf" points="139.5,-0.5 139.5,-19.5 183.5,-19.5 183.5,-0.5 139.5,-0.5"/>
<text text-anchor="middle" x="161.5" y="-7.5" font-family="Helvetica,sans-Serif" font-size="10.00">vector</text>
</g>
<!-- Node1151&#45;&gt;Node1163 -->
<g id="edge38" class="edge"><title>Node1151&#45;&gt;Node1163</title>
<path fill="none" stroke="midnightblue" d="M844.872,-174.199C788.505,-163.396 708.903,-147.631 639.5,-132 442.503,-87.6307 391.047,-74.8028 193.568,-20.5011"/>
<polygon fill="midnightblue" stroke="midnightblue" points="194.317,-17.0772 183.747,-17.7995 192.461,-23.8265 194.317,-17.0772"/>
</g>
<!-- Node1164 -->
<g id="node14" class="node"><title>Node1164</title>
<polygon fill="none" stroke="#bfbfbf" points="1809.5,-0.5 1809.5,-19.5 1853.5,-19.5 1853.5,-0.5 1809.5,-0.5"/>
<text text-anchor="middle" x="1831.5" y="-7.5" font-family="Helvetica,sans-Serif" font-size="10.00">thread</text>
</g>
<!-- Node1151&#45;&gt;Node1164 -->
<g id="edge39" class="edge"><title>Node1151&#45;&gt;Node1164</title>
<path fill="none" stroke="midnightblue" d="M992.326,-179.423C1072.27,-169.708 1203.38,-152.53 1315.5,-132 1426.65,-111.647 1453.4,-101.437 1563.5,-76 1665.87,-52.3492 1694.19,-47.7989 1799.44,-20.1883"/>
<polygon fill="midnightblue" stroke="midnightblue" points="1800.41,-23.5538 1809.19,-17.6242 1798.62,-16.7842 1800.41,-23.5538"/>
</g>
<!-- Node1166 -->
<g id="node16" class="node"><title>Node1166</title>
<polygon fill="none" stroke="#bfbfbf" points="1872,-0.5 1872,-19.5 1931,-19.5 1931,-0.5 1872,-0.5"/>
<text text-anchor="middle" x="1901.5" y="-7.5" font-family="Helvetica,sans-Serif" font-size="10.00">functional</text>
</g>
<!-- Node1151&#45;&gt;Node1166 -->
<g id="edge42" class="edge"><title>Node1151&#45;&gt;Node1166</title>
<path fill="none" stroke="midnightblue" d="M992.386,-181.398C1083.38,-172.714 1242.49,-155.724 1377.5,-132 1486.66,-112.818 1512.51,-100.933 1620.5,-76 1706.67,-56.1046 1807.69,-32.7228 1862.06,-20.135"/>
<polygon fill="midnightblue" stroke="midnightblue" points="1863.02,-23.5052 1871.97,-17.8395 1861.44,-16.6856 1863.02,-23.5052"/>
</g>
<!-- Node1179 -->
<g id="node29" class="node"><title>Node1179</title>
<polygon fill="none" stroke="#bfbfbf" points="1747.5,-0.5 1747.5,-19.5 1791.5,-19.5 1791.5,-0.5 1747.5,-0.5"/>
<text text-anchor="middle" x="1769.5" y="-7.5" font-family="Helvetica,sans-Serif" font-size="10.00">time.h</text>
</g>
<!-- Node1151&#45;&gt;Node1179 -->
<g id="edge40" class="edge"><title>Node1151&#45;&gt;Node1179</title>
<path fill="none" stroke="midnightblue" d="M992.216,-176.792C1060.22,-166.188 1163.91,-149.352 1253.5,-132 1366.99,-110.018 1394.88,-102.064 1507.5,-76 1607.3,-52.903 1634.77,-47.4983 1737.35,-20.2278"/>
<polygon fill="midnightblue" stroke="midnightblue" points="1738.42,-23.565 1747.18,-17.6086 1736.62,-16.801 1738.42,-23.565"/>
</g>
<!-- Node1153 -->
<g id="node3" class="node"><title>Node1153</title>
<g id="a_node3"><a xlink:href="$server_8h.html" xlink:title="server.h">
<polygon fill="none" stroke="black" points="892.5,-56.5 892.5,-75.5 944.5,-75.5 944.5,-56.5 892.5,-56.5"/>
<text text-anchor="middle" x="918.5" y="-63.5" font-family="Helvetica,sans-Serif" font-size="10.00">server.h</text>
</a>
</g>
</g>
<!-- Node1152&#45;&gt;Node1153 -->
<g id="edge2" class="edge"><title>Node1152&#45;&gt;Node1153</title>
<path fill="none" stroke="midnightblue" d="M918.5,-112.083C918.5,-105.006 918.5,-94.8611 918.5,-85.9865"/>
<polygon fill="midnightblue" stroke="midnightblue" points="922,-85.751 918.5,-75.7511 915,-85.7511 922,-85.751"/>
</g>
<!-- Node1152&#45;&gt;Node1155 -->
<g id="edge29" class="edge"><title>Node1152&#45;&gt;Node1155</title>
<path fill="none" stroke="midnightblue" d="M877.963,-114.285C765.725,-95.6909 450.35,-43.4451 316.172,-21.2168"/>
<polygon fill="midnightblue" stroke="midnightblue" points="316.499,-17.7233 306.061,-19.5418 315.355,-24.6291 316.499,-17.7233"/>
</g>
<!-- Node1152&#45;&gt;Node1161 -->
<g id="edge30" class="edge"><title>Node1152&#45;&gt;Node1161</title>
<path fill="none" stroke="midnightblue" d="M929.678,-112.48C949.645,-97.8142 993.311,-68.1988 1035.5,-56 1307.66,22.6945 1395.33,-68.6749 1677.62,-19.9048"/>
<polygon fill="midnightblue" stroke="midnightblue" points="1678.51,-23.3018 1687.74,-18.1102 1677.29,-16.4093 1678.51,-23.3018"/>
</g>
<!-- Node1152&#45;&gt;Node1162 -->
<g id="edge31" class="edge"><title>Node1152&#45;&gt;Node1162</title>
<path fill="none" stroke="midnightblue" d="M877.834,-119.399C788.385,-115.476 567.989,-103.618 385.5,-76 293.002,-62.0011 186.056,-35.2259 131.528,-20.7945"/>
<polygon fill="midnightblue" stroke="midnightblue" points="132.22,-17.3569 121.656,-18.1648 130.418,-24.121 132.22,-17.3569"/>
</g>
<!-- Node1152&#45;&gt;Node1163 -->
<g id="edge32" class="edge"><title>Node1152&#45;&gt;Node1163</title>
<path fill="none" stroke="midnightblue" d="M877.832,-117.969C768.105,-109.238 457.026,-80.8283 193.826,-20.3438"/>
<polygon fill="midnightblue" stroke="midnightblue" points="194.23,-16.8445 183.698,-17.9946 192.648,-23.6635 194.23,-16.8445"/>
</g>
<!-- Node1152&#45;&gt;Node1164 -->
<g id="edge33" class="edge"><title>Node1152&#45;&gt;Node1164</title>
<path fill="none" stroke="midnightblue" d="M959.287,-118.92C1051.17,-113.964 1281.25,-100.046 1472.5,-76 1615.94,-57.9655 1654.64,-53.3203 1799.1,-20.1275"/>
<polygon fill="midnightblue" stroke="midnightblue" points="1800.27,-23.45 1809.23,-17.7938 1798.7,-16.6287 1800.27,-23.45"/>
</g>
<!-- Node1152&#45;&gt;Node1179 -->
<g id="edge34" class="edge"><title>Node1152&#45;&gt;Node1179</title>
<path fill="none" stroke="midnightblue" d="M959.402,-118.289C1078.52,-109.901 1435.31,-81.2924 1737.43,-19.9306"/>
<polygon fill="midnightblue" stroke="midnightblue" points="1738.16,-23.3543 1747.26,-17.92 1736.76,-16.4965 1738.16,-23.3543"/>
</g>
<!-- Node1154 -->
<g id="node4" class="node"><title>Node1154</title>
<polygon fill="none" stroke="#bfbfbf" points="1356.5,-0.5 1356.5,-19.5 1442.5,-19.5 1442.5,-0.5 1356.5,-0.5"/>
<text text-anchor="middle" x="1399.5" y="-7.5" font-family="Helvetica,sans-Serif" font-size="10.00">outputListener.h</text>
</g>
<!-- Node1153&#45;&gt;Node1154 -->
<g id="edge3" class="edge"><title>Node1153&#45;&gt;Node1154</title>
<path fill="none" stroke="midnightblue" d="M944.592,-60.1812C953.146,-58.7054 962.71,-57.1655 971.5,-56 1134.67,-34.364 1179.38,-42.0145 1346.29,-20.0649"/>
<polygon fill="midnightblue" stroke="midnightblue" points="1346.96,-23.5066 1356.41,-18.7175 1346.03,-16.5678 1346.96,-23.5066"/>
</g>
<!-- Node1153&#45;&gt;Node1155 -->
<g id="edge4" class="edge"><title>Node1153&#45;&gt;Node1155</title>
<path fill="none" stroke="midnightblue" d="M892.376,-63.6724C809.847,-59.346 547.171,-44.5631 318.271,-20.0064"/>
<polygon fill="midnightblue" stroke="midnightblue" points="318.404,-16.5004 308.085,-18.9047 317.651,-23.4599 318.404,-16.5004"/>
</g>
<!-- Node1156 -->
<g id="node6" class="node"><title>Node1156</title>
<polygon fill="none" stroke="#bfbfbf" points="1460.5,-0.5 1460.5,-19.5 1570.5,-19.5 1570.5,-0.5 1460.5,-0.5"/>
<text text-anchor="middle" x="1515.5" y="-7.5" font-family="Helvetica,sans-Serif" font-size="10.00">event2/event&#45;config.h</text>
</g>
<!-- Node1153&#45;&gt;Node1156 -->
<g id="edge5" class="edge"><title>Node1153&#45;&gt;Node1156</title>
<path fill="none" stroke="midnightblue" d="M944.578,-60.0738C953.131,-58.5914 962.699,-57.0749 971.5,-56 1180.64,-30.4566 1237.1,-42.5277 1450.42,-20.0453"/>
<polygon fill="midnightblue" stroke="midnightblue" points="1450.8,-23.5251 1460.37,-18.9839 1450.06,-16.5646 1450.8,-23.5251"/>
</g>
<!-- Node1157 -->
<g id="node7" class="node"><title>Node1157</title>
<polygon fill="none" stroke="#bfbfbf" points="1589,-0.5 1589,-19.5 1670,-19.5 1670,-0.5 1589,-0.5"/>
<text text-anchor="middle" x="1629.5" y="-7.5" font-family="Helvetica,sans-Serif" font-size="10.00">event2/event.h</text>
</g>
<!-- Node1153&#45;&gt;Node1157 -->
<g id="edge6" class="edge"><title>Node1153&#45;&gt;Node1157</title>
<path fill="none" stroke="midnightblue" d="M944.568,-59.9917C953.121,-58.5044 962.691,-57.0057 971.5,-56 1237.17,-25.67 1308.96,-51.3897 1578.81,-19.9178"/>
<polygon fill="midnightblue" stroke="midnightblue" points="1579.38,-23.3742 1588.9,-18.7246 1578.56,-16.4226 1579.38,-23.3742"/>
</g>
<!-- Node1158 -->
<g id="node8" class="node"><title>Node1158</title>
<polygon fill="none" stroke="#bfbfbf" points="326.5,-0.5 326.5,-19.5 396.5,-19.5 396.5,-0.5 326.5,-0.5"/>
<text text-anchor="middle" x="361.5" y="-7.5" font-family="Helvetica,sans-Serif" font-size="10.00">event2/util.h</text>
</g>
<!-- Node1153&#45;&gt;Node1158 -->
<g id="edge7" class="edge"><title>Node1153&#45;&gt;Node1158</title>
<path fill="none" stroke="midnightblue" d="M892.488,-63.7708C818.225,-60.0396 598.744,-47.4671 406.503,-19.9822"/>
<polygon fill="midnightblue" stroke="midnightblue" points="406.899,-16.5031 396.501,-18.535 405.897,-23.431 406.899,-16.5031"/>
</g>
<!-- Node1159 -->
<g id="node9" class="node"><title>Node1159</title>
<polygon fill="none" stroke="#bfbfbf" points="414.5,-0.5 414.5,-19.5 476.5,-19.5 476.5,-0.5 414.5,-0.5"/>
<text text-anchor="middle" x="445.5" y="-7.5" font-family="Helvetica,sans-Serif" font-size="10.00">sys/wait.h</text>
</g>
<!-- Node1153&#45;&gt;Node1159 -->
<g id="edge8" class="edge"><title>Node1153&#45;&gt;Node1159</title>
<path fill="none" stroke="midnightblue" d="M892.492,-63.3698C826.372,-58.9984 646.357,-45.6792 486.864,-20.052"/>
<polygon fill="midnightblue" stroke="midnightblue" points="487.307,-16.578 476.875,-18.4261 486.182,-23.4871 487.307,-16.578"/>
</g>
<!-- Node1153&#45;&gt;Node1160 -->
<g id="edge9" class="edge"><title>Node1153&#45;&gt;Node1160</title>
<path fill="none" stroke="midnightblue" d="M892.362,-64.3317C769.367,-61.0816 246.826,-46.0726 61.518,-19.77"/>
<polygon fill="midnightblue" stroke="midnightblue" points="61.7798,-16.2706 51.3745,-18.2661 60.7531,-23.1949 61.7798,-16.2706"/>
</g>
<!-- Node1153&#45;&gt;Node1161 -->
<g id="edge10" class="edge"><title>Node1153&#45;&gt;Node1161</title>
<path fill="none" stroke="midnightblue" d="M944.563,-59.9481C953.116,-58.4582 962.687,-56.969 971.5,-56 1281.32,-21.9366 1367.44,-73.9837 1677.56,-19.9221"/>
<polygon fill="midnightblue" stroke="midnightblue" points="1678.51,-23.3096 1687.75,-18.1232 1677.29,-16.4164 1678.51,-23.3096"/>
</g>
<!-- Node1153&#45;&gt;Node1162 -->
<g id="edge11" class="edge"><title>Node1153&#45;&gt;Node1162</title>
<path fill="none" stroke="midnightblue" d="M892.458,-65.3432C794.012,-66.2593 435.208,-66.1434 132.066,-19.9295"/>
<polygon fill="midnightblue" stroke="midnightblue" points="132.176,-16.405 121.759,-18.3369 131.107,-23.3229 132.176,-16.405"/>
</g>
<!-- Node1153&#45;&gt;Node1163 -->
<g id="edge12" class="edge"><title>Node1153&#45;&gt;Node1163</title>
<path fill="none" stroke="midnightblue" d="M892.293,-64.1846C781.372,-60.6123 349.428,-45.448 193.507,-19.9552"/>
<polygon fill="midnightblue" stroke="midnightblue" points="194.091,-16.5042 183.643,-18.2611 192.906,-23.4032 194.091,-16.5042"/>
</g>
<!-- Node1153&#45;&gt;Node1164 -->
<g id="edge13" class="edge"><title>Node1153&#45;&gt;Node1164</title>
<path fill="none" stroke="midnightblue" d="M944.536,-64.4846C1069.53,-61.8882 1609.45,-49.2594 1799.18,-19.7607"/>
<polygon fill="midnightblue" stroke="midnightblue" points="1799.98,-23.176 1809.29,-18.1153 1798.86,-16.2669 1799.98,-23.176"/>
</g>
<!-- Node1165 -->
<g id="node15" class="node"><title>Node1165</title>
<polygon fill="none" stroke="#bfbfbf" points="494.5,-0.5 494.5,-19.5 538.5,-19.5 538.5,-0.5 494.5,-0.5"/>
<text text-anchor="middle" x="516.5" y="-7.5" font-family="Helvetica,sans-Serif" font-size="10.00">mutex</text>
</g>
<!-- Node1153&#45;&gt;Node1165 -->
<g id="edge14" class="edge"><title>Node1153&#45;&gt;Node1165</title>
<path fill="none" stroke="midnightblue" d="M892.177,-63.2777C832.603,-59.0687 682.823,-46.7394 548.776,-19.9626"/>
<polygon fill="midnightblue" stroke="midnightblue" points="549.24,-16.4854 538.743,-17.925 547.847,-23.3454 549.24,-16.4854"/>
</g>
<!-- Node1153&#45;&gt;Node1166 -->
<g id="edge15" class="edge"><title>Node1153&#45;&gt;Node1166</title>
<path fill="none" stroke="midnightblue" d="M944.556,-64.3897C1074.94,-61.2411 1658.01,-46.0184 1861.8,-19.772"/>
<polygon fill="midnightblue" stroke="midnightblue" points="1862.34,-23.2302 1871.79,-18.4334 1861.42,-16.2922 1862.34,-23.2302"/>
</g>
<!-- Node1167 -->
<g id="node17" class="node"><title>Node1167</title>
<polygon fill="none" stroke="#bfbfbf" points="557,-0.5 557,-19.5 602,-19.5 602,-0.5 557,-0.5"/>
<text text-anchor="middle" x="579.5" y="-7.5" font-family="Helvetica,sans-Serif" font-size="10.00">cstdlib</text>
</g>
<!-- Node1153&#45;&gt;Node1167 -->
<g id="edge16" class="edge"><title>Node1153&#45;&gt;Node1167</title>
<path fill="none" stroke="midnightblue" d="M892.323,-62.4042C840.487,-57.0026 721.015,-43.255 611.94,-20.0738"/>
<polygon fill="midnightblue" stroke="midnightblue" points="612.608,-16.6375 602.095,-17.9491 611.132,-23.48 612.608,-16.6375"/>
</g>
<!-- Node1168 -->
<g id="node18" class="node"><title>Node1168</title>
<polygon fill="none" stroke="#bfbfbf" points="620,-0.5 620,-19.5 665,-19.5 665,-0.5 620,-0.5"/>
<text text-anchor="middle" x="642.5" y="-7.5" font-family="Helvetica,sans-Serif" font-size="10.00">iosfwd</text>
</g>
<!-- Node1153&#45;&gt;Node1168 -->
<g id="edge17" class="edge"><title>Node1153&#45;&gt;Node1168</title>
<path fill="none" stroke="midnightblue" d="M892.338,-60.9843C849.157,-54.1831 760.104,-39.4263 674.981,-19.9259"/>
<polygon fill="midnightblue" stroke="midnightblue" points="675.691,-16.4979 665.159,-17.6503 674.111,-23.3172 675.691,-16.4979"/>
</g>
<!-- Node1169 -->
<g id="node19" class="node"><title>Node1169</title>
<polygon fill="none" stroke="#bfbfbf" points="683.5,-0.5 683.5,-19.5 729.5,-19.5 729.5,-0.5 683.5,-0.5"/>
<text text-anchor="middle" x="706.5" y="-7.5" font-family="Helvetica,sans-Serif" font-size="10.00">cctype</text>
</g>
<!-- Node1153&#45;&gt;Node1169 -->
<g id="edge18" class="edge"><title>Node1153&#45;&gt;Node1169</title>
<path fill="none" stroke="midnightblue" d="M892.206,-58.6811C858.943,-50.6324 799.663,-36.106 739.586,-20.2322"/>
<polygon fill="midnightblue" stroke="midnightblue" points="740.113,-16.7509 729.55,-17.5695 738.318,-23.5169 740.113,-16.7509"/>
</g>
<!-- Node1170 -->
<g id="node20" class="node"><title>Node1170</title>
<polygon fill="none" stroke="#bfbfbf" points="747.5,-0.5 747.5,-19.5 803.5,-19.5 803.5,-0.5 747.5,-0.5"/>
<text text-anchor="middle" x="775.5" y="-7.5" font-family="Helvetica,sans-Serif" font-size="10.00">algorithm</text>
</g>
<!-- Node1153&#45;&gt;Node1170 -->
<g id="edge19" class="edge"><title>Node1153&#45;&gt;Node1170</title>
<path fill="none" stroke="midnightblue" d="M895.841,-56.4435C872.098,-47.4776 834.591,-33.314 807.762,-23.1827"/>
<polygon fill="midnightblue" stroke="midnightblue" points="808.644,-19.7749 798.053,-19.5164 806.171,-26.3235 808.644,-19.7749"/>
</g>
<!-- Node1171 -->
<g id="node21" class="node"><title>Node1171</title>
<polygon fill="none" stroke="#bfbfbf" points="822,-0.5 822,-19.5 869,-19.5 869,-0.5 822,-0.5"/>
<text text-anchor="middle" x="845.5" y="-7.5" font-family="Helvetica,sans-Serif" font-size="10.00">iterator</text>
</g>
<!-- Node1153&#45;&gt;Node1171 -->
<g id="edge20" class="edge"><title>Node1153&#45;&gt;Node1171</title>
<path fill="none" stroke="midnightblue" d="M906.771,-56.324C895.663,-48.1066 878.758,-35.6017 865.517,-25.8069"/>
<polygon fill="midnightblue" stroke="midnightblue" points="867.563,-22.9671 857.442,-19.8339 863.4,-28.5948 867.563,-22.9671"/>
</g>
<!-- Node1172 -->
<g id="node22" class="node"><title>Node1172</title>
<polygon fill="none" stroke="#bfbfbf" points="887,-0.5 887,-19.5 936,-19.5 936,-0.5 887,-0.5"/>
<text text-anchor="middle" x="911.5" y="-7.5" font-family="Helvetica,sans-Serif" font-size="10.00">cstddef</text>
</g>
<!-- Node1153&#45;&gt;Node1172 -->
<g id="edge21" class="edge"><title>Node1153&#45;&gt;Node1172</title>
<path fill="none" stroke="midnightblue" d="M917.344,-56.083C916.416,-48.9272 915.082,-38.6353 913.923,-29.6911"/>
<polygon fill="midnightblue" stroke="midnightblue" points="917.391,-29.2181 912.634,-19.7511 910.449,-30.1181 917.391,-29.2181"/>
</g>
<!-- Node1173 -->
<g id="node23" class="node"><title>Node1173</title>
<polygon fill="none" stroke="#bfbfbf" points="954.5,-0.5 954.5,-19.5 1006.5,-19.5 1006.5,-0.5 954.5,-0.5"/>
<text text-anchor="middle" x="980.5" y="-7.5" font-family="Helvetica,sans-Serif" font-size="10.00">ostream</text>
</g>
<!-- Node1153&#45;&gt;Node1173 -->
<g id="edge22" class="edge"><title>Node1153&#45;&gt;Node1173</title>
<path fill="none" stroke="midnightblue" d="M928.461,-56.324C937.627,-48.3414 951.437,-36.3128 962.528,-26.6529"/>
<polygon fill="midnightblue" stroke="midnightblue" points="965.115,-29.041 970.357,-19.8339 960.518,-23.7624 965.115,-29.041"/>
</g>
<!-- Node1174 -->
<g id="node24" class="node"><title>Node1174</title>
<polygon fill="none" stroke="#bfbfbf" points="1025,-0.5 1025,-19.5 1074,-19.5 1074,-0.5 1025,-0.5"/>
<text text-anchor="middle" x="1049.5" y="-7.5" font-family="Helvetica,sans-Serif" font-size="10.00">cassert</text>
</g>
<!-- Node1153&#45;&gt;Node1174 -->
<g id="edge23" class="edge"><title>Node1153&#45;&gt;Node1174</title>
<path fill="none" stroke="midnightblue" d="M939.257,-56.4435C960.816,-47.5566 994.763,-33.5632 1019.29,-23.4514"/>
<polygon fill="midnightblue" stroke="midnightblue" points="1020.93,-26.5634 1028.84,-19.5164 1018.26,-20.0917 1020.93,-26.5634"/>
</g>
<!-- Node1175 -->
<g id="node25" class="node"><title>Node1175</title>
<polygon fill="none" stroke="#bfbfbf" points="1092.5,-0.5 1092.5,-19.5 1138.5,-19.5 1138.5,-0.5 1092.5,-0.5"/>
<text text-anchor="middle" x="1115.5" y="-7.5" font-family="Helvetica,sans-Serif" font-size="10.00">cstring</text>
</g>
<!-- Node1153&#45;&gt;Node1175 -->
<g id="edge24" class="edge"><title>Node1153&#45;&gt;Node1175</title>
<path fill="none" stroke="midnightblue" d="M944.66,-57.8292C980.209,-48.0849 1043.77,-30.6608 1082.54,-20.0343"/>
<polygon fill="midnightblue" stroke="midnightblue" points="1083.58,-23.3778 1092.3,-17.3587 1081.73,-16.6269 1083.58,-23.3778"/>
</g>
<!-- Node1176 -->
<g id="node26" class="node"><title>Node1176</title>
<polygon fill="none" stroke="#bfbfbf" points="1156.5,-0.5 1156.5,-19.5 1210.5,-19.5 1210.5,-0.5 1156.5,-0.5"/>
<text text-anchor="middle" x="1183.5" y="-7.5" font-family="Helvetica,sans-Serif" font-size="10.00">iostream</text>
</g>
<!-- Node1153&#45;&gt;Node1176 -->
<g id="edge25" class="edge"><title>Node1153&#45;&gt;Node1176</title>
<path fill="none" stroke="midnightblue" d="M944.691,-60.3022C985.58,-52.8717 1067.28,-37.639 1146.29,-20.1817"/>
<polygon fill="midnightblue" stroke="midnightblue" points="1147.41,-23.5185 1156.41,-17.93 1145.89,-16.6856 1147.41,-23.5185"/>
</g>
<!-- Node1177 -->
<g id="node27" class="node"><title>Node1177</title>
<polygon fill="none" stroke="#bfbfbf" points="1228.5,-0.5 1228.5,-19.5 1276.5,-19.5 1276.5,-0.5 1228.5,-0.5"/>
<text text-anchor="middle" x="1252.5" y="-7.5" font-family="Helvetica,sans-Serif" font-size="10.00">stdlib.h</text>
</g>
<!-- Node1153&#45;&gt;Node1177 -->
<g id="edge26" class="edge"><title>Node1153&#45;&gt;Node1177</title>
<path fill="none" stroke="midnightblue" d="M944.628,-60.4348C953.185,-58.9741 962.741,-57.3791 971.5,-56 1078.41,-39.1663 1108.76,-42.4844 1218.62,-19.9649"/>
<polygon fill="midnightblue" stroke="midnightblue" points="1219.35,-23.3876 1228.43,-17.9288 1217.93,-16.5335 1219.35,-23.3876"/>
</g>
<!-- Node1178 -->
<g id="node28" class="node"><title>Node1178</title>
<polygon fill="none" stroke="#bfbfbf" points="1295,-0.5 1295,-19.5 1338,-19.5 1338,-0.5 1295,-0.5"/>
<text text-anchor="middle" x="1316.5" y="-7.5" font-family="Helvetica,sans-Serif" font-size="10.00">pwd.h</text>
</g>
<!-- Node1153&#45;&gt;Node1178 -->
<g id="edge27" class="edge"><title>Node1153&#45;&gt;Node1178</title>
<path fill="none" stroke="midnightblue" d="M944.605,-60.2787C953.16,-58.8086 962.722,-57.2476 971.5,-56 1107.31,-36.6977 1145.98,-47.1609 1284.77,-19.8003"/>
<polygon fill="midnightblue" stroke="midnightblue" points="1285.82,-23.1596 1294.93,-17.7641 1284.44,-16.2959 1285.82,-23.1596"/>
</g>
<!-- Node1153&#45;&gt;Node1179 -->
<g id="edge28" class="edge"><title>Node1153&#45;&gt;Node1179</title>
<path fill="none" stroke="midnightblue" d="M944.51,-62.8074C968.211,-60.8551 1004.19,-58.0055 1035.5,-56 1344.36,-36.2158 1428.2,-71.1947 1737.15,-19.8192"/>
<polygon fill="midnightblue" stroke="midnightblue" points="1738.01,-23.2233 1747.29,-18.1148 1736.85,-16.3201 1738.01,-23.2233"/>
</g>
</g>
</svg>
