<?xml version="1.0" encoding="UTF-8" standalone="no"?>
<!DOCTYPE svg PUBLIC "-//W3C//DTD SVG 1.1//EN"
 "http://www.w3.org/Graphics/SVG/1.1/DTD/svg11.dtd">
<!-- Generated by graphviz version 2.38.0 (20140413.2041)
 -->
<!-- Title: /home/mel/projects/Misc/Minecraft Server Service/src/ServerStream.cpp Pages: 1 -->
<svg width="1690pt" height="274pt"
 viewBox="0.00 0.00 1690.00 274.00" xmlns="http://www.w3.org/2000/svg" xmlns:xlink="http://www.w3.org/1999/xlink">
<g id="graph0" class="graph" transform="scale(1 1) rotate(0) translate(4 270)">
<title>/home/mel/projects/Misc/Minecraft Server Service/src/ServerStream.cpp</title>
<!-- Node0 -->
<g id="node1" class="node"><title>Node0</title>
<polygon fill="#bfbfbf" stroke="black" points="658,-224.5 658,-265.5 809,-265.5 809,-224.5 658,-224.5"/>
<text text-anchor="start" x="666" y="-253.5" font-family="Helvetica,sans-Serif" font-size="10.00">/home/mel/projects</text>
<text text-anchor="start" x="666" y="-242.5" font-family="Helvetica,sans-Serif" font-size="10.00">/Misc/Minecraft Server</text>
<text text-anchor="middle" x="733.5" y="-231.5" font-family="Helvetica,sans-Serif" font-size="10.00"> Service/src/ServerStream.cpp</text>
</g>
<!-- Node1 -->
<g id="node2" class="node"><title>Node1</title>
<g id="a_node2"><a xlink:href="$_server_stream_8h.html" xlink:title="ServerStream.h">
<polygon fill="none" stroke="black" points="238,-112.5 238,-131.5 323,-131.5 323,-112.5 238,-112.5"/>
<text text-anchor="middle" x="280.5" y="-119.5" font-family="Helvetica,sans-Serif" font-size="10.00">ServerStream.h</text>
</a>
</g>
</g>
<!-- Node0&#45;&gt;Node1 -->
<g id="edge1" class="edge"><title>Node0&#45;&gt;Node1</title>
<path fill="none" stroke="midnightblue" d="M657.823,-239.555C558.739,-232.677 391.324,-217.103 337.5,-188 317.164,-177.004 300.664,-155.709 290.746,-140.489"/>
<polygon fill="midnightblue" stroke="midnightblue" points="293.692,-138.597 285.446,-131.944 287.743,-142.287 293.692,-138.597"/>
</g>
<!-- Node2 -->
<g id="node3" class="node"><title>Node2</title>
<polygon fill="none" stroke="#bfbfbf" points="0,-0.5 0,-19.5 107,-19.5 107,-0.5 0,-0.5"/>
<text text-anchor="middle" x="53.5" y="-7.5" font-family="Helvetica,sans-Serif" font-size="10.00">log4cpp/Category.hh</text>
</g>
<!-- Node0&#45;&gt;Node2 -->
<g id="edge20" class="edge"><title>Node0&#45;&gt;Node2</title>
<path fill="none" stroke="midnightblue" d="M657.986,-244.484C539.193,-242.169 304.593,-224.952 133.5,-132 99.0977,-113.31 85.3672,-109.736 65.5,-76 57.2202,-61.9402 54.4361,-43.4467 53.597,-29.7819"/>
<polygon fill="midnightblue" stroke="midnightblue" points="57.0907,-29.5251 53.2717,-19.6425 50.0943,-29.7496 57.0907,-29.5251"/>
</g>
<!-- Node7 -->
<g id="node8" class="node"><title>Node7</title>
<polygon fill="none" stroke="#bfbfbf" points="333.5,-0.5 333.5,-19.5 377.5,-19.5 377.5,-0.5 333.5,-0.5"/>
<text text-anchor="middle" x="355.5" y="-7.5" font-family="Helvetica,sans-Serif" font-size="10.00">vector</text>
</g>
<!-- Node0&#45;&gt;Node7 -->
<g id="edge27" class="edge"><title>Node0&#45;&gt;Node7</title>
<path fill="none" stroke="midnightblue" d="M657.664,-240.428C572.029,-234.836 439.859,-221.002 403.5,-188 357.762,-146.485 353.781,-66.2409 354.535,-29.8098"/>
<polygon fill="midnightblue" stroke="midnightblue" points="358.039,-29.7444 354.899,-19.6256 351.044,-29.4941 358.039,-29.7444"/>
</g>
<!-- Node8 -->
<g id="node9" class="node"><title>Node8</title>
<polygon fill="none" stroke="#bfbfbf" points="388,-56.5 388,-75.5 429,-75.5 429,-56.5 388,-56.5"/>
<text text-anchor="middle" x="408.5" y="-63.5" font-family="Helvetica,sans-Serif" font-size="10.00">string</text>
</g>
<!-- Node0&#45;&gt;Node8 -->
<g id="edge26" class="edge"><title>Node0&#45;&gt;Node8</title>
<path fill="none" stroke="midnightblue" d="M657.739,-240.777C575.232,-235.559 450.809,-222.118 419.5,-188 393.918,-160.122 398.785,-111.906 403.991,-85.5391"/>
<polygon fill="midnightblue" stroke="midnightblue" points="407.425,-86.2184 406.155,-75.7 400.588,-84.7148 407.425,-86.2184"/>
</g>
<!-- Node10 -->
<g id="node11" class="node"><title>Node10</title>
<g id="a_node11"><a xlink:href="$server_8h.html" xlink:title="server.h">
<polygon fill="none" stroke="black" points="428.5,-168.5 428.5,-187.5 480.5,-187.5 480.5,-168.5 428.5,-168.5"/>
<text text-anchor="middle" x="454.5" y="-175.5" font-family="Helvetica,sans-Serif" font-size="10.00">server.h</text>
</a>
</g>
</g>
<!-- Node0&#45;&gt;Node10 -->
<g id="edge12" class="edge"><title>Node0&#45;&gt;Node10</title>
<path fill="none" stroke="midnightblue" d="M657.999,-226.41C603.581,-213.732 532.576,-197.19 490.435,-187.372"/>
<polygon fill="midnightblue" stroke="midnightblue" points="491.159,-183.947 480.625,-185.087 489.57,-190.764 491.159,-183.947"/>
</g>
<!-- Node11 -->
<g id="node12" class="node"><title>Node11</title>
<polygon fill="none" stroke="#bfbfbf" points="493.5,-112.5 493.5,-131.5 545.5,-131.5 545.5,-112.5 493.5,-112.5"/>
<text text-anchor="middle" x="519.5" y="-119.5" font-family="Helvetica,sans-Serif" font-size="10.00">sstream</text>
</g>
<!-- Node0&#45;&gt;Node11 -->
<g id="edge28" class="edge"><title>Node0&#45;&gt;Node11</title>
<path fill="none" stroke="midnightblue" d="M660.86,-224.373C634.926,-215.521 606.268,-203.507 582.5,-188 562.445,-174.915 543.944,-154.379 532.253,-139.897"/>
<polygon fill="midnightblue" stroke="midnightblue" points="534.821,-137.499 525.9,-131.783 529.309,-141.815 534.821,-137.499"/>
</g>
<!-- Node12 -->
<g id="node13" class="node"><title>Node12</title>
<polygon fill="none" stroke="#bfbfbf" points="563.5,-112.5 563.5,-131.5 607.5,-131.5 607.5,-112.5 563.5,-112.5"/>
<text text-anchor="middle" x="585.5" y="-119.5" font-family="Helvetica,sans-Serif" font-size="10.00">thread</text>
</g>
<!-- Node0&#45;&gt;Node12 -->
<g id="edge29" class="edge"><title>Node0&#45;&gt;Node12</title>
<path fill="none" stroke="midnightblue" d="M657.924,-228.796C634.634,-220.479 611.054,-207.674 595.5,-188 585.219,-174.996 583.383,-155.835 583.72,-141.684"/>
<polygon fill="midnightblue" stroke="midnightblue" points="587.218,-141.817 584.336,-131.622 580.232,-141.389 587.218,-141.817"/>
</g>
<!-- Node13 -->
<g id="node14" class="node"><title>Node13</title>
<polygon fill="none" stroke="#bfbfbf" points="625.5,-112.5 625.5,-131.5 669.5,-131.5 669.5,-112.5 625.5,-112.5"/>
<text text-anchor="middle" x="647.5" y="-119.5" font-family="Helvetica,sans-Serif" font-size="10.00">time.h</text>
</g>
<!-- Node0&#45;&gt;Node13 -->
<g id="edge30" class="edge"><title>Node0&#45;&gt;Node13</title>
<path fill="none" stroke="midnightblue" d="M657.784,-228.021C636.655,-219.702 616.063,-207.091 603.5,-188 592.081,-170.648 609.86,-150.915 626.115,-137.788"/>
<polygon fill="midnightblue" stroke="midnightblue" points="628.458,-140.404 634.313,-131.574 624.23,-134.825 628.458,-140.404"/>
</g>
<!-- Node14 -->
<g id="node15" class="node"><title>Node14</title>
<polygon fill="none" stroke="#bfbfbf" points="612.5,-168.5 612.5,-187.5 720.5,-187.5 720.5,-168.5 612.5,-168.5"/>
<text text-anchor="middle" x="666.5" y="-175.5" font-family="Helvetica,sans-Serif" font-size="10.00">log4cpp/Appender.hh</text>
</g>
<!-- Node0&#45;&gt;Node14 -->
<g id="edge21" class="edge"><title>Node0&#45;&gt;Node14</title>
<path fill="none" stroke="midnightblue" d="M713.398,-224.498C703.619,-215.011 692.017,-203.756 682.8,-194.813"/>
<polygon fill="midnightblue" stroke="midnightblue" points="685.033,-192.104 675.419,-187.652 680.159,-197.128 685.033,-192.104"/>
</g>
<!-- Node15 -->
<g id="node16" class="node"><title>Node15</title>
<polygon fill="none" stroke="#bfbfbf" points="738.5,-168.5 738.5,-187.5 862.5,-187.5 862.5,-168.5 738.5,-168.5"/>
<text text-anchor="middle" x="800.5" y="-175.5" font-family="Helvetica,sans-Serif" font-size="10.00">log4cpp/FileAppender.hh</text>
</g>
<!-- Node0&#45;&gt;Node15 -->
<g id="edge22" class="edge"><title>Node0&#45;&gt;Node15</title>
<path fill="none" stroke="midnightblue" d="M753.602,-224.498C763.381,-215.011 774.983,-203.756 784.2,-194.813"/>
<polygon fill="midnightblue" stroke="midnightblue" points="786.841,-197.128 791.581,-187.652 781.967,-192.104 786.841,-197.128"/>
</g>
<!-- Node16 -->
<g id="node17" class="node"><title>Node16</title>
<polygon fill="none" stroke="#bfbfbf" points="880.5,-168.5 880.5,-187.5 976.5,-187.5 976.5,-168.5 880.5,-168.5"/>
<text text-anchor="middle" x="928.5" y="-175.5" font-family="Helvetica,sans-Serif" font-size="10.00">log4cpp/Layout.hh</text>
</g>
<!-- Node0&#45;&gt;Node16 -->
<g id="edge23" class="edge"><title>Node0&#45;&gt;Node16</title>
<path fill="none" stroke="midnightblue" d="M792.006,-224.498C824.878,-213.541 864.83,-200.223 892.992,-190.836"/>
<polygon fill="midnightblue" stroke="midnightblue" points="894.419,-194.05 902.799,-187.567 892.205,-187.409 894.419,-194.05"/>
</g>
<!-- Node17 -->
<g id="node18" class="node"><title>Node17</title>
<polygon fill="none" stroke="#bfbfbf" points="994.5,-168.5 994.5,-187.5 1122.5,-187.5 1122.5,-168.5 994.5,-168.5"/>
<text text-anchor="middle" x="1058.5" y="-175.5" font-family="Helvetica,sans-Serif" font-size="10.00">log4cpp/PatternLayout.hh</text>
</g>
<!-- Node0&#45;&gt;Node17 -->
<g id="edge24" class="edge"><title>Node0&#45;&gt;Node17</title>
<path fill="none" stroke="midnightblue" d="M809.288,-228.842C869.728,-216.754 952.803,-200.139 1006.08,-189.484"/>
<polygon fill="midnightblue" stroke="midnightblue" points="1006.88,-192.894 1016,-187.501 1005.5,-186.03 1006.88,-192.894"/>
</g>
<!-- Node18 -->
<g id="node19" class="node"><title>Node18</title>
<polygon fill="none" stroke="#bfbfbf" points="1140.5,-168.5 1140.5,-187.5 1238.5,-187.5 1238.5,-168.5 1140.5,-168.5"/>
<text text-anchor="middle" x="1189.5" y="-175.5" font-family="Helvetica,sans-Serif" font-size="10.00">log4cpp/Priority.hh</text>
</g>
<!-- Node0&#45;&gt;Node18 -->
<g id="edge25" class="edge"><title>Node0&#45;&gt;Node18</title>
<path fill="none" stroke="midnightblue" d="M809.105,-233.687C887.009,-222.986 1012.25,-205.577 1130.5,-188.131"/>
<polygon fill="midnightblue" stroke="midnightblue" points="1131.08,-191.584 1140.46,-186.66 1130.06,-184.659 1131.08,-191.584"/>
</g>
<!-- Node19 -->
<g id="node20" class="node"><title>Node19</title>
<polygon fill="none" stroke="#bfbfbf" points="1256.5,-168.5 1256.5,-187.5 1360.5,-187.5 1360.5,-168.5 1256.5,-168.5"/>
<text text-anchor="middle" x="1308.5" y="-175.5" font-family="Helvetica,sans-Serif" font-size="10.00">pstreams/pstream.h</text>
</g>
<!-- Node0&#45;&gt;Node19 -->
<g id="edge31" class="edge"><title>Node0&#45;&gt;Node19</title>
<path fill="none" stroke="midnightblue" d="M809.375,-236.643C907.695,-226.905 1084.69,-208.684 1246.15,-188.132"/>
<polygon fill="midnightblue" stroke="midnightblue" points="1246.8,-191.578 1256.27,-186.839 1245.91,-184.635 1246.8,-191.578"/>
</g>
<!-- Node20 -->
<g id="node21" class="node"><title>Node20</title>
<polygon fill="none" stroke="#bfbfbf" points="1379,-168.5 1379,-187.5 1460,-187.5 1460,-168.5 1379,-168.5"/>
<text text-anchor="middle" x="1419.5" y="-175.5" font-family="Helvetica,sans-Serif" font-size="10.00">event2/event.h</text>
</g>
<!-- Node0&#45;&gt;Node20 -->
<g id="edge32" class="edge"><title>Node0&#45;&gt;Node20</title>
<path fill="none" stroke="midnightblue" d="M809.129,-239.558C926.611,-232.166 1160.21,-215.512 1368.67,-187.987"/>
<polygon fill="midnightblue" stroke="midnightblue" points="1369.44,-191.416 1378.89,-186.626 1368.51,-184.477 1369.44,-191.416"/>
</g>
<!-- Node21 -->
<g id="node22" class="node"><title>Node21</title>
<polygon fill="none" stroke="#bfbfbf" points="1478.5,-168.5 1478.5,-187.5 1560.5,-187.5 1560.5,-168.5 1478.5,-168.5"/>
<text text-anchor="middle" x="1519.5" y="-175.5" font-family="Helvetica,sans-Serif" font-size="10.00">event2/buffer.h</text>
</g>
<!-- Node0&#45;&gt;Node21 -->
<g id="edge33" class="edge"><title>Node0&#45;&gt;Node21</title>
<path fill="none" stroke="midnightblue" d="M809.249,-240.793C941.133,-234.647 1221.61,-219.093 1468.12,-188.05"/>
<polygon fill="midnightblue" stroke="midnightblue" points="1468.87,-191.483 1478.35,-186.751 1467.99,-184.539 1468.87,-191.483"/>
</g>
<!-- Node22 -->
<g id="node23" class="node"><title>Node22</title>
<polygon fill="none" stroke="#bfbfbf" points="1578.5,-168.5 1578.5,-187.5 1622.5,-187.5 1622.5,-168.5 1578.5,-168.5"/>
<text text-anchor="middle" x="1600.5" y="-175.5" font-family="Helvetica,sans-Serif" font-size="10.00">mutex</text>
</g>
<!-- Node0&#45;&gt;Node22 -->
<g id="edge34" class="edge"><title>Node0&#45;&gt;Node22</title>
<path fill="none" stroke="midnightblue" d="M809.093,-244.365C954.8,-243.891 1284.47,-237.091 1568.21,-187.842"/>
<polygon fill="midnightblue" stroke="midnightblue" points="1569.04,-191.25 1578.28,-186.072 1567.83,-184.355 1569.04,-191.25"/>
</g>
<!-- Node23 -->
<g id="node24" class="node"><title>Node23</title>
<polygon fill="none" stroke="#bfbfbf" points="1641,-168.5 1641,-187.5 1682,-187.5 1682,-168.5 1641,-168.5"/>
<text text-anchor="middle" x="1661.5" y="-175.5" font-family="Helvetica,sans-Serif" font-size="10.00">future</text>
</g>
<!-- Node0&#45;&gt;Node23 -->
<g id="edge35" class="edge"><title>Node0&#45;&gt;Node23</title>
<path fill="none" stroke="midnightblue" d="M809.157,-241.513C992.234,-235.142 1456.25,-216.802 1631.14,-187.544"/>
<polygon fill="midnightblue" stroke="midnightblue" points="1631.74,-190.992 1640.99,-185.828 1630.54,-184.095 1631.74,-190.992"/>
</g>
<!-- Node1&#45;&gt;Node2 -->
<g id="edge2" class="edge"><title>Node1&#45;&gt;Node2</title>
<path fill="none" stroke="midnightblue" d="M237.94,-116.756C201.79,-111.578 149.685,-100.286 110.5,-76 91.0347,-63.9361 74.5245,-43.1629 64.3614,-28.3474"/>
<polygon fill="midnightblue" stroke="midnightblue" points="67.047,-26.0607 58.6321,-19.6233 61.1959,-29.9033 67.047,-26.0607"/>
</g>
<!-- Node3 -->
<g id="node4" class="node"><title>Node3</title>
<g id="a_node4"><a xlink:href="$_server_process_buf_8h.html" xlink:title="ServerProcessBuf.h">
<polygon fill="none" stroke="black" points="119.5,-56.5 119.5,-75.5 223.5,-75.5 223.5,-56.5 119.5,-56.5"/>
<text text-anchor="middle" x="171.5" y="-63.5" font-family="Helvetica,sans-Serif" font-size="10.00">ServerProcessBuf.h</text>
</a>
</g>
</g>
<!-- Node1&#45;&gt;Node3 -->
<g id="edge3" class="edge"><title>Node1&#45;&gt;Node3</title>
<path fill="none" stroke="midnightblue" d="M262.987,-112.324C245.428,-103.625 218.169,-90.1202 197.969,-80.113"/>
<polygon fill="midnightblue" stroke="midnightblue" points="199.484,-76.9575 188.969,-75.6545 196.376,-83.23 199.484,-76.9575"/>
</g>
<!-- Node1&#45;&gt;Node7 -->
<g id="edge10" class="edge"><title>Node1&#45;&gt;Node7</title>
<path fill="none" stroke="midnightblue" d="M286.385,-112.368C298.762,-94.2153 327.681,-51.8015 343.916,-27.9902"/>
<polygon fill="midnightblue" stroke="midnightblue" points="346.901,-29.8254 349.642,-19.5914 341.117,-25.882 346.901,-29.8254"/>
</g>
<!-- Node1&#45;&gt;Node8 -->
<g id="edge9" class="edge"><title>Node1&#45;&gt;Node8</title>
<path fill="none" stroke="midnightblue" d="M300.782,-112.444C321.847,-103.557 355.017,-89.5632 378.986,-79.4514"/>
<polygon fill="midnightblue" stroke="midnightblue" points="380.46,-82.6283 388.313,-75.5164 377.739,-76.1787 380.46,-82.6283"/>
</g>
<!-- Node9 -->
<g id="node10" class="node"><title>Node9</title>
<polygon fill="none" stroke="#bfbfbf" points="241.5,-56.5 241.5,-75.5 293.5,-75.5 293.5,-56.5 241.5,-56.5"/>
<text text-anchor="middle" x="267.5" y="-63.5" font-family="Helvetica,sans-Serif" font-size="10.00">memory</text>
</g>
<!-- Node1&#45;&gt;Node9 -->
<g id="edge11" class="edge"><title>Node1&#45;&gt;Node9</title>
<path fill="none" stroke="midnightblue" d="M278.353,-112.083C276.631,-104.927 274.153,-94.6353 272,-85.6911"/>
<polygon fill="midnightblue" stroke="midnightblue" points="275.35,-84.6541 269.607,-75.7511 268.545,-86.2925 275.35,-84.6541"/>
</g>
<!-- Node3&#45;&gt;Node2 -->
<g id="edge8" class="edge"><title>Node3&#45;&gt;Node2</title>
<path fill="none" stroke="midnightblue" d="M152.803,-56.4435C133.556,-47.6356 103.348,-33.8116 81.2999,-23.722"/>
<polygon fill="midnightblue" stroke="midnightblue" points="82.6595,-20.4951 72.11,-19.5164 79.7466,-26.8603 82.6595,-20.4951"/>
</g>
<!-- Node4 -->
<g id="node5" class="node"><title>Node4</title>
<polygon fill="none" stroke="#bfbfbf" points="124.5,-0.5 124.5,-19.5 184.5,-19.5 184.5,-0.5 124.5,-0.5"/>
<text text-anchor="middle" x="154.5" y="-7.5" font-family="Helvetica,sans-Serif" font-size="10.00">streambuf</text>
</g>
<!-- Node3&#45;&gt;Node4 -->
<g id="edge4" class="edge"><title>Node3&#45;&gt;Node4</title>
<path fill="none" stroke="midnightblue" d="M168.693,-56.083C166.415,-48.8486 163.129,-38.4087 160.292,-29.3968"/>
<polygon fill="midnightblue" stroke="midnightblue" points="163.596,-28.2385 157.255,-19.7511 156.919,-30.3406 163.596,-28.2385"/>
</g>
<!-- Node5 -->
<g id="node6" class="node"><title>Node5</title>
<polygon fill="none" stroke="#bfbfbf" points="203,-0.5 203,-19.5 248,-19.5 248,-0.5 203,-0.5"/>
<text text-anchor="middle" x="225.5" y="-7.5" font-family="Helvetica,sans-Serif" font-size="10.00">iosfwd</text>
</g>
<!-- Node3&#45;&gt;Node5 -->
<g id="edge5" class="edge"><title>Node3&#45;&gt;Node5</title>
<path fill="none" stroke="midnightblue" d="M180.417,-56.083C188.28,-48.2195 199.931,-36.5688 209.419,-27.0813"/>
<polygon fill="midnightblue" stroke="midnightblue" points="212.153,-29.2971 216.749,-19.7511 207.203,-24.3473 212.153,-29.2971"/>
</g>
<!-- Node6 -->
<g id="node7" class="node"><title>Node6</title>
<polygon fill="none" stroke="#bfbfbf" points="266,-0.5 266,-19.5 311,-19.5 311,-0.5 266,-0.5"/>
<text text-anchor="middle" x="288.5" y="-7.5" font-family="Helvetica,sans-Serif" font-size="10.00">cstdlib</text>
</g>
<!-- Node3&#45;&gt;Node6 -->
<g id="edge6" class="edge"><title>Node3&#45;&gt;Node6</title>
<path fill="none" stroke="midnightblue" d="M190.039,-56.4435C209.123,-47.6356 239.075,-33.8116 260.936,-23.722"/>
<polygon fill="midnightblue" stroke="midnightblue" points="262.435,-26.8849 270.048,-19.5164 259.501,-20.5292 262.435,-26.8849"/>
</g>
<!-- Node3&#45;&gt;Node7 -->
<g id="edge7" class="edge"><title>Node3&#45;&gt;Node7</title>
<path fill="none" stroke="midnightblue" d="M200.655,-56.4435C234.227,-46.591 289.185,-30.4621 323.796,-20.3044"/>
<polygon fill="midnightblue" stroke="midnightblue" points="324.801,-23.6571 333.411,-17.4826 322.83,-16.9404 324.801,-23.6571"/>
</g>
<!-- Node10&#45;&gt;Node1 -->
<g id="edge13" class="edge"><title>Node10&#45;&gt;Node1</title>
<path fill="none" stroke="midnightblue" d="M428.45,-168.916C399.153,-159.823 351.323,-144.979 318.005,-134.64"/>
<polygon fill="midnightblue" stroke="midnightblue" points="318.756,-131.208 308.168,-131.587 316.681,-137.893 318.756,-131.208"/>
</g>
<!-- Node10&#45;&gt;Node2 -->
<g id="edge14" class="edge"><title>Node10&#45;&gt;Node2</title>
<path fill="none" stroke="midnightblue" d="M428.077,-177.719C361.169,-178.071 183.304,-169.626 83.5,-76 70.2093,-63.5319 62.3018,-44.023 57.9709,-29.6288"/>
<polygon fill="midnightblue" stroke="midnightblue" points="61.3089,-28.5639 55.3264,-19.8197 54.5502,-30.3861 61.3089,-28.5639"/>
</g>
<!-- Node10&#45;&gt;Node7 -->
<g id="edge17" class="edge"><title>Node10&#45;&gt;Node7</title>
<path fill="none" stroke="midnightblue" d="M455.729,-168.455C458.3,-147.292 462.127,-91.5841 437.5,-56 425.57,-38.7622 404.82,-27.4665 387.179,-20.5033"/>
<polygon fill="midnightblue" stroke="midnightblue" points="388.368,-17.2115 377.774,-17.0704 385.968,-23.7871 388.368,-17.2115"/>
</g>
<!-- Node10&#45;&gt;Node8 -->
<g id="edge15" class="edge"><title>Node10&#45;&gt;Node8</title>
<path fill="none" stroke="midnightblue" d="M450.89,-168.368C443.4,-150.456 426.032,-108.923 416.006,-84.9482"/>
<polygon fill="midnightblue" stroke="midnightblue" points="419.18,-83.4669 412.093,-75.5914 412.722,-86.1676 419.18,-83.4669"/>
</g>
<!-- Node10&#45;&gt;Node11 -->
<g id="edge16" class="edge"><title>Node10&#45;&gt;Node11</title>
<path fill="none" stroke="midnightblue" d="M464.943,-168.324C474.646,-160.263 489.315,-148.077 501,-138.369"/>
<polygon fill="midnightblue" stroke="midnightblue" points="503.411,-140.916 508.867,-131.834 498.938,-135.532 503.411,-140.916"/>
</g>
<!-- Node10&#45;&gt;Node12 -->
<g id="edge18" class="edge"><title>Node10&#45;&gt;Node12</title>
<path fill="none" stroke="midnightblue" d="M475.257,-168.444C496.816,-159.557 530.763,-145.563 555.294,-135.451"/>
<polygon fill="midnightblue" stroke="midnightblue" points="556.928,-138.563 564.84,-131.516 554.261,-132.092 556.928,-138.563"/>
</g>
<!-- Node10&#45;&gt;Node13 -->
<g id="edge19" class="edge"><title>Node10&#45;&gt;Node13</title>
<path fill="none" stroke="midnightblue" d="M480.62,-169.845C510.847,-161.543 562.362,-147.327 615.843,-132.164"/>
<polygon fill="midnightblue" stroke="midnightblue" points="616.83,-135.522 625.494,-129.423 614.918,-128.788 616.83,-135.522"/>
</g>
</g>
</svg>
