<?xml version="1.0" encoding="UTF-8" standalone="no"?>
<!DOCTYPE svg PUBLIC "-//W3C//DTD SVG 1.1//EN"
 "http://www.w3.org/Graphics/SVG/1.1/DTD/svg11.dtd">
<!-- Generated by graphviz version 2.38.0 (20140413.2041)
 -->
<!-- Title: /home/mel/projects/Misc/Minecraft Server Service/src/ServerStream.h Pages: 1 -->
<svg width="454pt" height="162pt"
 viewBox="0.00 0.00 453.50 162.00" xmlns="http://www.w3.org/2000/svg" xmlns:xlink="http://www.w3.org/1999/xlink">
<g id="graph0" class="graph" transform="scale(1 1) rotate(0) translate(4 158)">
<title>/home/mel/projects/Misc/Minecraft Server Service/src/ServerStream.h</title>
<!-- Node0 -->
<g id="node1" class="node"><title>Node0</title>
<polygon fill="#bfbfbf" stroke="black" points="235.5,-112.5 235.5,-153.5 375.5,-153.5 375.5,-112.5 235.5,-112.5"/>
<text text-anchor="start" x="243.5" y="-141.5" font-family="Helvetica,sans-Serif" font-size="10.00">/home/mel/projects</text>
<text text-anchor="start" x="243.5" y="-130.5" font-family="Helvetica,sans-Serif" font-size="10.00">/Misc/Minecraft Server</text>
<text text-anchor="middle" x="305.5" y="-119.5" font-family="Helvetica,sans-Serif" font-size="10.00"> Service/src/ServerStream.h</text>
</g>
<!-- Node1 -->
<g id="node2" class="node"><title>Node1</title>
<polygon fill="none" stroke="#bfbfbf" points="0,-0.5 0,-19.5 107,-19.5 107,-0.5 0,-0.5"/>
<text text-anchor="middle" x="53.5" y="-7.5" font-family="Helvetica,sans-Serif" font-size="10.00">log4cpp/Category.hh</text>
</g>
<!-- Node0&#45;&gt;Node1 -->
<g id="edge1" class="edge"><title>Node0&#45;&gt;Node1</title>
<path fill="none" stroke="midnightblue" d="M250.769,-112.478C224.3,-102.481 192.315,-89.5703 164.5,-76 132.538,-60.4062 97.3872,-39.0601 75.3835,-25.1528"/>
<polygon fill="midnightblue" stroke="midnightblue" points="77.12,-22.1091 66.8059,-19.6864 73.358,-28.0123 77.12,-22.1091"/>
</g>
<!-- Node2 -->
<g id="node3" class="node"><title>Node2</title>
<g id="a_node3"><a xlink:href="$_server_process_buf_8h.html" xlink:title="ServerProcessBuf.h">
<polygon fill="none" stroke="black" points="173.5,-56.5 173.5,-75.5 277.5,-75.5 277.5,-56.5 173.5,-56.5"/>
<text text-anchor="middle" x="225.5" y="-63.5" font-family="Helvetica,sans-Serif" font-size="10.00">ServerProcessBuf.h</text>
</a>
</g>
</g>
<!-- Node0&#45;&gt;Node2 -->
<g id="edge2" class="edge"><title>Node0&#45;&gt;Node2</title>
<path fill="none" stroke="midnightblue" d="M281.497,-112.498C269.468,-102.724 255.127,-91.0719 243.97,-82.0066"/>
<polygon fill="midnightblue" stroke="midnightblue" points="246.117,-79.242 236.149,-75.6525 241.703,-84.6749 246.117,-79.242"/>
</g>
<!-- Node6 -->
<g id="node7" class="node"><title>Node6</title>
<polygon fill="none" stroke="#bfbfbf" points="329.5,-0.5 329.5,-19.5 373.5,-19.5 373.5,-0.5 329.5,-0.5"/>
<text text-anchor="middle" x="351.5" y="-7.5" font-family="Helvetica,sans-Serif" font-size="10.00">vector</text>
</g>
<!-- Node0&#45;&gt;Node6 -->
<g id="edge9" class="edge"><title>Node0&#45;&gt;Node6</title>
<path fill="none" stroke="midnightblue" d="M309.136,-112.485C312.402,-96.8518 317.863,-74.5454 325.5,-56 329.451,-46.4054 335.099,-36.3501 340.122,-28.1841"/>
<polygon fill="midnightblue" stroke="midnightblue" points="343.166,-29.92 345.592,-19.6067 337.264,-26.1559 343.166,-29.92"/>
</g>
<!-- Node7 -->
<g id="node8" class="node"><title>Node7</title>
<polygon fill="none" stroke="#bfbfbf" points="334,-56.5 334,-75.5 375,-75.5 375,-56.5 334,-56.5"/>
<text text-anchor="middle" x="354.5" y="-63.5" font-family="Helvetica,sans-Serif" font-size="10.00">string</text>
</g>
<!-- Node0&#45;&gt;Node7 -->
<g id="edge8" class="edge"><title>Node0&#45;&gt;Node7</title>
<path fill="none" stroke="midnightblue" d="M320.202,-112.498C327.064,-103.395 335.155,-92.6623 341.754,-83.9081"/>
<polygon fill="midnightblue" stroke="midnightblue" points="344.753,-85.7446 347.977,-75.6525 339.163,-81.5309 344.753,-85.7446"/>
</g>
<!-- Node8 -->
<g id="node9" class="node"><title>Node8</title>
<polygon fill="none" stroke="#bfbfbf" points="393.5,-56.5 393.5,-75.5 445.5,-75.5 445.5,-56.5 393.5,-56.5"/>
<text text-anchor="middle" x="419.5" y="-63.5" font-family="Helvetica,sans-Serif" font-size="10.00">memory</text>
</g>
<!-- Node0&#45;&gt;Node8 -->
<g id="edge10" class="edge"><title>Node0&#45;&gt;Node8</title>
<path fill="none" stroke="midnightblue" d="M339.704,-112.498C357.686,-102.245 379.293,-89.925 395.485,-80.6927"/>
<polygon fill="midnightblue" stroke="midnightblue" points="397.371,-83.6462 404.325,-75.6525 393.904,-77.5652 397.371,-83.6462"/>
</g>
<!-- Node2&#45;&gt;Node1 -->
<g id="edge7" class="edge"><title>Node2&#45;&gt;Node1</title>
<path fill="none" stroke="midnightblue" d="M198.246,-56.4435C169.059,-47.2801 122.579,-32.6876 90.1907,-22.5192"/>
<polygon fill="midnightblue" stroke="midnightblue" points="91.2157,-19.1726 80.6264,-19.5164 89.1188,-25.8512 91.2157,-19.1726"/>
</g>
<!-- Node3 -->
<g id="node4" class="node"><title>Node3</title>
<polygon fill="none" stroke="#bfbfbf" points="124.5,-0.5 124.5,-19.5 184.5,-19.5 184.5,-0.5 124.5,-0.5"/>
<text text-anchor="middle" x="154.5" y="-7.5" font-family="Helvetica,sans-Serif" font-size="10.00">streambuf</text>
</g>
<!-- Node2&#45;&gt;Node3 -->
<g id="edge3" class="edge"><title>Node2&#45;&gt;Node3</title>
<path fill="none" stroke="midnightblue" d="M214.093,-56.324C203.391,-48.1849 187.159,-35.8395 174.337,-26.0874"/>
<polygon fill="midnightblue" stroke="midnightblue" points="176.193,-23.1018 166.115,-19.8339 171.956,-28.6734 176.193,-23.1018"/>
</g>
<!-- Node4 -->
<g id="node5" class="node"><title>Node4</title>
<polygon fill="none" stroke="#bfbfbf" points="203,-0.5 203,-19.5 248,-19.5 248,-0.5 203,-0.5"/>
<text text-anchor="middle" x="225.5" y="-7.5" font-family="Helvetica,sans-Serif" font-size="10.00">iosfwd</text>
</g>
<!-- Node2&#45;&gt;Node4 -->
<g id="edge4" class="edge"><title>Node2&#45;&gt;Node4</title>
<path fill="none" stroke="midnightblue" d="M225.5,-56.083C225.5,-49.0059 225.5,-38.8611 225.5,-29.9865"/>
<polygon fill="midnightblue" stroke="midnightblue" points="229,-29.751 225.5,-19.7511 222,-29.7511 229,-29.751"/>
</g>
<!-- Node5 -->
<g id="node6" class="node"><title>Node5</title>
<polygon fill="none" stroke="#bfbfbf" points="266,-0.5 266,-19.5 311,-19.5 311,-0.5 266,-0.5"/>
<text text-anchor="middle" x="288.5" y="-7.5" font-family="Helvetica,sans-Serif" font-size="10.00">cstdlib</text>
</g>
<!-- Node2&#45;&gt;Node5 -->
<g id="edge5" class="edge"><title>Node2&#45;&gt;Node5</title>
<path fill="none" stroke="midnightblue" d="M235.622,-56.324C245.026,-48.2631 259.244,-36.0765 270.569,-26.3695"/>
<polygon fill="midnightblue" stroke="midnightblue" points="272.879,-28.9993 278.194,-19.8339 268.323,-23.6844 272.879,-28.9993"/>
</g>
<!-- Node2&#45;&gt;Node6 -->
<g id="edge6" class="edge"><title>Node2&#45;&gt;Node6</title>
<path fill="none" stroke="midnightblue" d="M245.465,-56.4435C266.109,-47.5961 298.563,-33.6875 322.132,-23.5865"/>
<polygon fill="midnightblue" stroke="midnightblue" points="323.816,-26.6727 331.628,-19.5164 321.058,-20.2387 323.816,-26.6727"/>
</g>
</g>
</svg>
