<?xml version="1.0" encoding="UTF-8" standalone="no"?>
<!DOCTYPE svg PUBLIC "-//W3C//DTD SVG 1.1//EN"
 "http://www.w3.org/Graphics/SVG/1.1/DTD/svg11.dtd">
<!-- Generated by graphviz version 2.38.0 (20140413.2041)
 -->
<!-- Title: /home/mel/projects/Misc/Minecraft Server Service/src/ServerProcessBuf.cpp Pages: 1 -->
<svg width="2065pt" height="162pt"
 viewBox="0.00 0.00 2064.50 162.00" xmlns="http://www.w3.org/2000/svg" xmlns:xlink="http://www.w3.org/1999/xlink">
<g id="graph0" class="graph" transform="scale(1 1) rotate(0) translate(4 158)">
<title>/home/mel/projects/Misc/Minecraft Server Service/src/ServerProcessBuf.cpp</title>
<!-- Node0 -->
<g id="node1" class="node"><title>Node0</title>
<polygon fill="#bfbfbf" stroke="black" points="1088,-112.5 1088,-153.5 1258,-153.5 1258,-112.5 1088,-112.5"/>
<text text-anchor="start" x="1096" y="-141.5" font-family="Helvetica,sans-Serif" font-size="10.00">/home/mel/projects</text>
<text text-anchor="start" x="1096" y="-130.5" font-family="Helvetica,sans-Serif" font-size="10.00">/Misc/Minecraft Server</text>
<text text-anchor="middle" x="1173" y="-119.5" font-family="Helvetica,sans-Serif" font-size="10.00"> Service/src/ServerProcessBuf.cpp</text>
</g>
<!-- Node1 -->
<g id="node2" class="node"><title>Node1</title>
<g id="a_node2"><a xlink:href="$_server_process_buf_8h.html" xlink:title="ServerProcessBuf.h">
<polygon fill="none" stroke="black" points="103,-56.5 103,-75.5 207,-75.5 207,-56.5 103,-56.5"/>
<text text-anchor="middle" x="155" y="-63.5" font-family="Helvetica,sans-Serif" font-size="10.00">ServerProcessBuf.h</text>
</a>
</g>
</g>
<!-- Node0&#45;&gt;Node1 -->
<g id="edge1" class="edge"><title>Node0&#45;&gt;Node1</title>
<path fill="none" stroke="midnightblue" d="M1087.81,-129.184C921.083,-123.187 540.061,-107.092 221,-76 219.738,-75.877 218.462,-75.748 217.177,-75.6137"/>
<polygon fill="midnightblue" stroke="midnightblue" points="217.523,-72.1307 207.195,-74.4941 216.743,-79.0871 217.523,-72.1307"/>
</g>
<!-- Node2 -->
<g id="node3" class="node"><title>Node2</title>
<polygon fill="none" stroke="#bfbfbf" points="0,-0.5 0,-19.5 60,-19.5 60,-0.5 0,-0.5"/>
<text text-anchor="middle" x="30" y="-7.5" font-family="Helvetica,sans-Serif" font-size="10.00">streambuf</text>
</g>
<!-- Node0&#45;&gt;Node2 -->
<g id="edge16" class="edge"><title>Node0&#45;&gt;Node2</title>
<path fill="none" stroke="midnightblue" d="M1087.57,-131.11C848.377,-128.124 183.552,-116.26 94,-76 71.3001,-65.7947 52.3516,-43.6232 41.1032,-28.0234"/>
<polygon fill="midnightblue" stroke="midnightblue" points="43.9531,-25.9907 35.4001,-19.738 38.1871,-29.9597 43.9531,-25.9907"/>
</g>
<!-- Node5 -->
<g id="node6" class="node"><title>Node5</title>
<polygon fill="none" stroke="#bfbfbf" points="205,-0.5 205,-19.5 249,-19.5 249,-0.5 205,-0.5"/>
<text text-anchor="middle" x="227" y="-7.5" font-family="Helvetica,sans-Serif" font-size="10.00">vector</text>
</g>
<!-- Node0&#45;&gt;Node5 -->
<g id="edge29" class="edge"><title>Node0&#45;&gt;Node5</title>
<path fill="none" stroke="midnightblue" d="M1087.93,-130.433C879.058,-126.05 352.803,-111.579 282,-76 261.63,-65.7638 245.843,-44.2717 236.509,-28.7998"/>
<polygon fill="midnightblue" stroke="midnightblue" points="239.309,-26.644 231.324,-19.6808 233.224,-30.1039 239.309,-26.644"/>
</g>
<!-- Node6 -->
<g id="node7" class="node"><title>Node6</title>
<polygon fill="none" stroke="#bfbfbf" points="266.5,-0.5 266.5,-19.5 373.5,-19.5 373.5,-0.5 266.5,-0.5"/>
<text text-anchor="middle" x="320" y="-7.5" font-family="Helvetica,sans-Serif" font-size="10.00">log4cpp/Category.hh</text>
</g>
<!-- Node0&#45;&gt;Node6 -->
<g id="edge7" class="edge"><title>Node0&#45;&gt;Node6</title>
<path fill="none" stroke="midnightblue" d="M1087.61,-129.696C871.672,-123.457 318.973,-104.742 292,-76 279.067,-62.2189 291.783,-41.5332 303.995,-27.2148"/>
<polygon fill="midnightblue" stroke="midnightblue" points="306.771,-29.3651 310.93,-19.6205 301.602,-24.645 306.771,-29.3651"/>
</g>
<!-- Node7 -->
<g id="node8" class="node"><title>Node7</title>
<polygon fill="none" stroke="#bfbfbf" points="301,-56.5 301,-75.5 409,-75.5 409,-56.5 301,-56.5"/>
<text text-anchor="middle" x="355" y="-63.5" font-family="Helvetica,sans-Serif" font-size="10.00">log4cpp/Appender.hh</text>
</g>
<!-- Node0&#45;&gt;Node7 -->
<g id="edge8" class="edge"><title>Node0&#45;&gt;Node7</title>
<path fill="none" stroke="midnightblue" d="M1087.91,-127.576C949.771,-119.975 667.951,-102.735 419.218,-76.0647"/>
<polygon fill="midnightblue" stroke="midnightblue" points="419.585,-72.5841 409.267,-74.9908 418.833,-79.5437 419.585,-72.5841"/>
</g>
<!-- Node8 -->
<g id="node9" class="node"><title>Node8</title>
<polygon fill="none" stroke="#bfbfbf" points="427,-56.5 427,-75.5 551,-75.5 551,-56.5 427,-56.5"/>
<text text-anchor="middle" x="489" y="-63.5" font-family="Helvetica,sans-Serif" font-size="10.00">log4cpp/FileAppender.hh</text>
</g>
<!-- Node0&#45;&gt;Node8 -->
<g id="edge9" class="edge"><title>Node0&#45;&gt;Node8</title>
<path fill="none" stroke="midnightblue" d="M1087.87,-125.17C971.433,-115.616 755.704,-97.1597 561.437,-76.1249"/>
<polygon fill="midnightblue" stroke="midnightblue" points="561.643,-72.6268 551.324,-75.0254 560.887,-79.5858 561.643,-72.6268"/>
</g>
<!-- Node9 -->
<g id="node10" class="node"><title>Node9</title>
<polygon fill="none" stroke="#bfbfbf" points="569,-56.5 569,-75.5 665,-75.5 665,-56.5 569,-56.5"/>
<text text-anchor="middle" x="617" y="-63.5" font-family="Helvetica,sans-Serif" font-size="10.00">log4cpp/Layout.hh</text>
</g>
<!-- Node0&#45;&gt;Node9 -->
<g id="edge10" class="edge"><title>Node0&#45;&gt;Node9</title>
<path fill="none" stroke="midnightblue" d="M1087.65,-123.598C990.317,-113.75 826.163,-96.3317 675.11,-76.0996"/>
<polygon fill="midnightblue" stroke="midnightblue" points="675.557,-72.6283 665.18,-74.7629 674.623,-79.5658 675.557,-72.6283"/>
</g>
<!-- Node10 -->
<g id="node11" class="node"><title>Node10</title>
<polygon fill="none" stroke="#bfbfbf" points="683,-56.5 683,-75.5 811,-75.5 811,-56.5 683,-56.5"/>
<text text-anchor="middle" x="747" y="-63.5" font-family="Helvetica,sans-Serif" font-size="10.00">log4cpp/PatternLayout.hh</text>
</g>
<!-- Node0&#45;&gt;Node10 -->
<g id="edge11" class="edge"><title>Node0&#45;&gt;Node10</title>
<path fill="none" stroke="midnightblue" d="M1087.82,-119.003C1006.88,-106.654 886.881,-88.3433 812.981,-77.0675"/>
<polygon fill="midnightblue" stroke="midnightblue" points="813.282,-73.573 802.868,-75.5245 812.226,-80.4929 813.282,-73.573"/>
</g>
<!-- Node11 -->
<g id="node12" class="node"><title>Node11</title>
<polygon fill="none" stroke="#bfbfbf" points="829,-56.5 829,-75.5 927,-75.5 927,-56.5 829,-56.5"/>
<text text-anchor="middle" x="878" y="-63.5" font-family="Helvetica,sans-Serif" font-size="10.00">log4cpp/Priority.hh</text>
</g>
<!-- Node0&#45;&gt;Node11 -->
<g id="edge12" class="edge"><title>Node0&#45;&gt;Node11</title>
<path fill="none" stroke="midnightblue" d="M1087.67,-113.199C1035.42,-101.686 970.422,-87.3642 926.764,-77.7447"/>
<polygon fill="midnightblue" stroke="midnightblue" points="927.486,-74.3197 916.967,-75.5859 925.979,-81.1558 927.486,-74.3197"/>
</g>
<!-- Node12 -->
<g id="node13" class="node"><title>Node12</title>
<polygon fill="none" stroke="#bfbfbf" points="945,-56.5 945,-75.5 991,-75.5 991,-56.5 945,-56.5"/>
<text text-anchor="middle" x="968" y="-63.5" font-family="Helvetica,sans-Serif" font-size="10.00">cctype</text>
</g>
<!-- Node0&#45;&gt;Node12 -->
<g id="edge13" class="edge"><title>Node0&#45;&gt;Node12</title>
<path fill="none" stroke="midnightblue" d="M1111.49,-112.498C1075.2,-100.991 1030.7,-86.8809 1000.97,-77.4534"/>
<polygon fill="midnightblue" stroke="midnightblue" points="1001.7,-74.0122 991.105,-74.326 999.58,-80.6849 1001.7,-74.0122"/>
</g>
<!-- Node13 -->
<g id="node14" class="node"><title>Node13</title>
<polygon fill="none" stroke="#bfbfbf" points="1009,-56.5 1009,-75.5 1065,-75.5 1065,-56.5 1009,-56.5"/>
<text text-anchor="middle" x="1037" y="-63.5" font-family="Helvetica,sans-Serif" font-size="10.00">algorithm</text>
</g>
<!-- Node0&#45;&gt;Node13 -->
<g id="edge14" class="edge"><title>Node0&#45;&gt;Node13</title>
<path fill="none" stroke="midnightblue" d="M1132.2,-112.498C1110.24,-102.005 1083.76,-89.3482 1064.31,-80.0507"/>
<polygon fill="midnightblue" stroke="midnightblue" points="1065.64,-76.8069 1055.1,-75.6525 1062.62,-83.1226 1065.64,-76.8069"/>
</g>
<!-- Node14 -->
<g id="node15" class="node"><title>Node14</title>
<polygon fill="none" stroke="#bfbfbf" points="1083.5,-56.5 1083.5,-75.5 1130.5,-75.5 1130.5,-56.5 1083.5,-56.5"/>
<text text-anchor="middle" x="1107" y="-63.5" font-family="Helvetica,sans-Serif" font-size="10.00">iterator</text>
</g>
<!-- Node0&#45;&gt;Node14 -->
<g id="edge15" class="edge"><title>Node0&#45;&gt;Node14</title>
<path fill="none" stroke="midnightblue" d="M1153.2,-112.498C1143.57,-103.011 1132.14,-91.7557 1123.06,-82.8131"/>
<polygon fill="midnightblue" stroke="midnightblue" points="1125.37,-80.1757 1115.79,-75.6525 1120.45,-85.1631 1125.37,-80.1757"/>
</g>
<!-- Node15 -->
<g id="node16" class="node"><title>Node15</title>
<polygon fill="none" stroke="#bfbfbf" points="1148.5,-56.5 1148.5,-75.5 1197.5,-75.5 1197.5,-56.5 1148.5,-56.5"/>
<text text-anchor="middle" x="1173" y="-63.5" font-family="Helvetica,sans-Serif" font-size="10.00">cstddef</text>
</g>
<!-- Node0&#45;&gt;Node15 -->
<g id="edge17" class="edge"><title>Node0&#45;&gt;Node15</title>
<path fill="none" stroke="midnightblue" d="M1173,-112.498C1173,-104.065 1173,-94.2351 1173,-85.874"/>
<polygon fill="midnightblue" stroke="midnightblue" points="1176.5,-85.6525 1173,-75.6525 1169.5,-85.6525 1176.5,-85.6525"/>
</g>
<!-- Node16 -->
<g id="node17" class="node"><title>Node16</title>
<polygon fill="none" stroke="#bfbfbf" points="1215.5,-56.5 1215.5,-75.5 1266.5,-75.5 1266.5,-56.5 1215.5,-56.5"/>
<text text-anchor="middle" x="1241" y="-63.5" font-family="Helvetica,sans-Serif" font-size="10.00">unistd.h</text>
</g>
<!-- Node0&#45;&gt;Node16 -->
<g id="edge18" class="edge"><title>Node0&#45;&gt;Node16</title>
<path fill="none" stroke="midnightblue" d="M1193.4,-112.498C1203.33,-103.011 1215.1,-91.7557 1224.46,-82.8131"/>
<polygon fill="midnightblue" stroke="midnightblue" points="1227.14,-85.0924 1231.95,-75.6525 1222.3,-80.0323 1227.14,-85.0924"/>
</g>
<!-- Node17 -->
<g id="node18" class="node"><title>Node17</title>
<polygon fill="none" stroke="#bfbfbf" points="1285,-56.5 1285,-75.5 1337,-75.5 1337,-56.5 1285,-56.5"/>
<text text-anchor="middle" x="1311" y="-63.5" font-family="Helvetica,sans-Serif" font-size="10.00">ostream</text>
</g>
<!-- Node0&#45;&gt;Node17 -->
<g id="edge19" class="edge"><title>Node0&#45;&gt;Node17</title>
<path fill="none" stroke="midnightblue" d="M1214.4,-112.498C1236.78,-101.957 1263.8,-89.2326 1283.56,-79.9235"/>
<polygon fill="midnightblue" stroke="midnightblue" points="1285.07,-83.08 1292.63,-75.6525 1282.09,-76.7473 1285.07,-83.08"/>
</g>
<!-- Node18 -->
<g id="node19" class="node"><title>Node18</title>
<polygon fill="none" stroke="#bfbfbf" points="1355.5,-56.5 1355.5,-75.5 1414.5,-75.5 1414.5,-56.5 1355.5,-56.5"/>
<text text-anchor="middle" x="1385" y="-63.5" font-family="Helvetica,sans-Serif" font-size="10.00">functional</text>
</g>
<!-- Node0&#45;&gt;Node18 -->
<g id="edge20" class="edge"><title>Node0&#45;&gt;Node18</title>
<path fill="none" stroke="midnightblue" d="M1236.61,-112.498C1272.66,-101.444 1316.54,-87.9895 1347.2,-78.59"/>
<polygon fill="midnightblue" stroke="midnightblue" points="1348.52,-81.8447 1357.06,-75.5671 1346.47,-75.1522 1348.52,-81.8447"/>
</g>
<!-- Node19 -->
<g id="node20" class="node"><title>Node19</title>
<polygon fill="none" stroke="#bfbfbf" points="1432.5,-56.5 1432.5,-75.5 1481.5,-75.5 1481.5,-56.5 1432.5,-56.5"/>
<text text-anchor="middle" x="1457" y="-63.5" font-family="Helvetica,sans-Serif" font-size="10.00">cassert</text>
</g>
<!-- Node0&#45;&gt;Node19 -->
<g id="edge21" class="edge"><title>Node0&#45;&gt;Node19</title>
<path fill="none" stroke="midnightblue" d="M1258.04,-114.06C1304.19,-104.081 1362.44,-91.0926 1422.18,-76.3795"/>
<polygon fill="midnightblue" stroke="midnightblue" points="1423.3,-79.7071 1432.17,-73.9064 1421.62,-72.9123 1423.3,-79.7071"/>
</g>
<!-- Node20 -->
<g id="node21" class="node"><title>Node20</title>
<polygon fill="none" stroke="#bfbfbf" points="1500,-56.5 1500,-75.5 1546,-75.5 1546,-56.5 1500,-56.5"/>
<text text-anchor="middle" x="1523" y="-63.5" font-family="Helvetica,sans-Serif" font-size="10.00">cstring</text>
</g>
<!-- Node0&#45;&gt;Node20 -->
<g id="edge22" class="edge"><title>Node0&#45;&gt;Node20</title>
<path fill="none" stroke="midnightblue" d="M1258.16,-119.372C1320.01,-109.649 1405.87,-95.0225 1490.01,-76.0407"/>
<polygon fill="midnightblue" stroke="midnightblue" points="1491.03,-79.3998 1500,-73.7656 1489.47,-72.5748 1491.03,-79.3998"/>
</g>
<!-- Node21 -->
<g id="node22" class="node"><title>Node21</title>
<polygon fill="none" stroke="#bfbfbf" points="1564,-56.5 1564,-75.5 1618,-75.5 1618,-56.5 1564,-56.5"/>
<text text-anchor="middle" x="1591" y="-63.5" font-family="Helvetica,sans-Serif" font-size="10.00">iostream</text>
</g>
<!-- Node0&#45;&gt;Node21 -->
<g id="edge23" class="edge"><title>Node0&#45;&gt;Node21</title>
<path fill="none" stroke="midnightblue" d="M1258,-122C1333.34,-112.572 1446.47,-97.037 1553.9,-76.0531"/>
<polygon fill="midnightblue" stroke="midnightblue" points="1554.8,-79.4412 1563.94,-74.0719 1553.45,-72.5736 1554.8,-79.4412"/>
</g>
<!-- Node22 -->
<g id="node23" class="node"><title>Node22</title>
<polygon fill="none" stroke="#bfbfbf" points="1636,-56.5 1636,-75.5 1684,-75.5 1684,-56.5 1636,-56.5"/>
<text text-anchor="middle" x="1660" y="-63.5" font-family="Helvetica,sans-Serif" font-size="10.00">stdlib.h</text>
</g>
<!-- Node0&#45;&gt;Node22 -->
<g id="edge24" class="edge"><title>Node0&#45;&gt;Node22</title>
<path fill="none" stroke="midnightblue" d="M1258.09,-125.179C1347.51,-117.178 1492.32,-101.866 1625.93,-75.9547"/>
<polygon fill="midnightblue" stroke="midnightblue" points="1626.81,-79.3506 1635.94,-73.9894 1625.46,-72.4817 1626.81,-79.3506"/>
</g>
<!-- Node23 -->
<g id="node24" class="node"><title>Node23</title>
<polygon fill="none" stroke="#bfbfbf" points="1702,-56.5 1702,-75.5 1770,-75.5 1770,-56.5 1702,-56.5"/>
<text text-anchor="middle" x="1736" y="-63.5" font-family="Helvetica,sans-Serif" font-size="10.00">sys/types.h</text>
</g>
<!-- Node0&#45;&gt;Node23 -->
<g id="edge25" class="edge"><title>Node0&#45;&gt;Node23</title>
<path fill="none" stroke="midnightblue" d="M1258,-125.448C1359.14,-117.066 1533.21,-100.79 1691.85,-76.0448"/>
<polygon fill="midnightblue" stroke="midnightblue" points="1692.45,-79.4921 1701.79,-74.4794 1691.37,-72.5773 1692.45,-79.4921"/>
</g>
<!-- Node24 -->
<g id="node25" class="node"><title>Node24</title>
<polygon fill="none" stroke="#bfbfbf" points="1788,-56.5 1788,-75.5 1850,-75.5 1850,-56.5 1788,-56.5"/>
<text text-anchor="middle" x="1819" y="-63.5" font-family="Helvetica,sans-Serif" font-size="10.00">sys/wait.h</text>
</g>
<!-- Node0&#45;&gt;Node24 -->
<g id="edge26" class="edge"><title>Node0&#45;&gt;Node24</title>
<path fill="none" stroke="midnightblue" d="M1258.24,-127.603C1373.91,-120.86 1587.1,-105.68 1777.71,-76.0205"/>
<polygon fill="midnightblue" stroke="midnightblue" points="1778.3,-79.4714 1787.63,-74.4603 1777.21,-72.5564 1778.3,-79.4714"/>
</g>
<!-- Node25 -->
<g id="node26" class="node"><title>Node25</title>
<polygon fill="none" stroke="#bfbfbf" points="1868,-56.5 1868,-75.5 1930,-75.5 1930,-56.5 1868,-56.5"/>
<text text-anchor="middle" x="1899" y="-63.5" font-family="Helvetica,sans-Serif" font-size="10.00">sys/ioctl.h</text>
</g>
<!-- Node0&#45;&gt;Node25 -->
<g id="edge27" class="edge"><title>Node0&#45;&gt;Node25</title>
<path fill="none" stroke="midnightblue" d="M1258.2,-128.877C1386.36,-123.33 1636.44,-109.21 1857.47,-76.0356"/>
<polygon fill="midnightblue" stroke="midnightblue" points="1858.27,-79.4531 1867.64,-74.4924 1857.22,-72.5324 1858.27,-79.4531"/>
</g>
<!-- Node26 -->
<g id="node27" class="node"><title>Node26</title>
<polygon fill="none" stroke="#bfbfbf" points="1948.5,-56.5 1948.5,-75.5 1991.5,-75.5 1991.5,-56.5 1948.5,-56.5"/>
<text text-anchor="middle" x="1970" y="-63.5" font-family="Helvetica,sans-Serif" font-size="10.00">pwd.h</text>
</g>
<!-- Node0&#45;&gt;Node26 -->
<g id="edge28" class="edge"><title>Node0&#45;&gt;Node26</title>
<path fill="none" stroke="midnightblue" d="M1258.17,-131.574C1398.47,-129.599 1686.83,-120.169 1938.39,-75.6821"/>
<polygon fill="midnightblue" stroke="midnightblue" points="1939.23,-79.0882 1948.46,-73.8803 1938,-72.1978 1939.23,-79.0882"/>
</g>
<!-- Node27 -->
<g id="node28" class="node"><title>Node27</title>
<polygon fill="none" stroke="#bfbfbf" points="2009.5,-56.5 2009.5,-75.5 2056.5,-75.5 2056.5,-56.5 2009.5,-56.5"/>
<text text-anchor="middle" x="2033" y="-63.5" font-family="Helvetica,sans-Serif" font-size="10.00">errno.h</text>
</g>
<!-- Node0&#45;&gt;Node27 -->
<g id="edge30" class="edge"><title>Node0&#45;&gt;Node27</title>
<path fill="none" stroke="midnightblue" d="M1258.02,-132.017C1406.96,-130.784 1724.6,-122.533 1999.2,-75.9802"/>
<polygon fill="midnightblue" stroke="midnightblue" points="2000.1,-79.3776 2009.36,-74.2367 1998.91,-72.4785 2000.1,-79.3776"/>
</g>
<!-- Node1&#45;&gt;Node2 -->
<g id="edge2" class="edge"><title>Node1&#45;&gt;Node2</title>
<path fill="none" stroke="midnightblue" d="M135.193,-56.4435C114.713,-47.5961 82.5173,-33.6875 59.1353,-23.5865"/>
<polygon fill="midnightblue" stroke="midnightblue" points="60.282,-20.2692 49.714,-19.5164 57.5059,-26.6953 60.282,-20.2692"/>
</g>
<!-- Node3 -->
<g id="node4" class="node"><title>Node3</title>
<polygon fill="none" stroke="#bfbfbf" points="141.5,-0.5 141.5,-19.5 186.5,-19.5 186.5,-0.5 141.5,-0.5"/>
<text text-anchor="middle" x="164" y="-7.5" font-family="Helvetica,sans-Serif" font-size="10.00">iosfwd</text>
</g>
<!-- Node1&#45;&gt;Node3 -->
<g id="edge3" class="edge"><title>Node1&#45;&gt;Node3</title>
<path fill="none" stroke="midnightblue" d="M156.486,-56.083C157.679,-48.9272 159.394,-38.6353 160.885,-29.6911"/>
<polygon fill="midnightblue" stroke="midnightblue" points="164.35,-30.1904 162.541,-19.7511 157.445,-29.0396 164.35,-30.1904"/>
</g>
<!-- Node4 -->
<g id="node5" class="node"><title>Node4</title>
<polygon fill="none" stroke="#bfbfbf" points="78.5,-0.5 78.5,-19.5 123.5,-19.5 123.5,-0.5 78.5,-0.5"/>
<text text-anchor="middle" x="101" y="-7.5" font-family="Helvetica,sans-Serif" font-size="10.00">cstdlib</text>
</g>
<!-- Node1&#45;&gt;Node4 -->
<g id="edge4" class="edge"><title>Node1&#45;&gt;Node4</title>
<path fill="none" stroke="midnightblue" d="M146.083,-56.083C138.22,-48.2195 126.569,-36.5688 117.081,-27.0813"/>
<polygon fill="midnightblue" stroke="midnightblue" points="119.297,-24.3473 109.751,-19.7511 114.347,-29.2971 119.297,-24.3473"/>
</g>
<!-- Node1&#45;&gt;Node5 -->
<g id="edge5" class="edge"><title>Node1&#45;&gt;Node5</title>
<path fill="none" stroke="midnightblue" d="M166.568,-56.324C177.42,-48.1849 193.881,-35.8395 206.883,-26.0874"/>
<polygon fill="midnightblue" stroke="midnightblue" points="209.321,-28.6339 215.221,-19.8339 205.121,-23.0339 209.321,-28.6339"/>
</g>
<!-- Node1&#45;&gt;Node6 -->
<g id="edge6" class="edge"><title>Node1&#45;&gt;Node6</title>
<path fill="none" stroke="midnightblue" d="M181.145,-56.4435C209.023,-47.3196 253.348,-32.8133 284.4,-22.6509"/>
<polygon fill="midnightblue" stroke="midnightblue" points="285.562,-25.9533 293.978,-19.5164 283.385,-19.3005 285.562,-25.9533"/>
</g>
</g>
</svg>
