<?xml version="1.0" encoding="UTF-8" standalone="no"?>
<!DOCTYPE svg PUBLIC "-//W3C//DTD SVG 1.1//EN"
 "http://www.w3.org/Graphics/SVG/1.1/DTD/svg11.dtd">
<!-- Generated by graphviz version 2.38.0 (20140413.2041)
 -->
<!-- Title: MinecraftServerService::Server::launchServerProcess Pages: 1 -->
<svg width="556pt" height="235pt"
 viewBox="0.00 0.00 556.00 235.00" xmlns="http://www.w3.org/2000/svg" xmlns:xlink="http://www.w3.org/1999/xlink">
<g id="graph0" class="graph" transform="scale(1 1) rotate(0) translate(4 231)">
<title>MinecraftServerService::Server::launchServerProcess</title>
<!-- Node45 -->
<g id="node1" class="node"><title>Node45</title>
<polygon fill="#bfbfbf" stroke="black" points="0,-98.5 0,-128.5 150,-128.5 150,-98.5 0,-98.5"/>
<text text-anchor="start" x="8" y="-116.5" font-family="Helvetica,sans-Serif" font-size="10.00">MinecraftServerService</text>
<text text-anchor="middle" x="75" y="-105.5" font-family="Helvetica,sans-Serif" font-size="10.00">::Server::launchServerProcess</text>
</g>
<!-- Node46 -->
<g id="node2" class="node"><title>Node46</title>
<g id="a_node2"><a xlink:href="$class_minecraft_server_service_1_1_bukkit_server.html#a40a879282d13c0996d05f1165fa5c4c2" xlink:title="MinecraftServerService\l::BukkitServer::startServer">
<polygon fill="none" stroke="black" points="199,-196.5 199,-226.5 332,-226.5 332,-196.5 199,-196.5"/>
<text text-anchor="start" x="207" y="-214.5" font-family="Helvetica,sans-Serif" font-size="10.00">MinecraftServerService</text>
<text text-anchor="middle" x="265.5" y="-203.5" font-family="Helvetica,sans-Serif" font-size="10.00">::BukkitServer::startServer</text>
</a>
</g>
</g>
<!-- Node45&#45;&gt;Node46 -->
<g id="edge1" class="edge"><title>Node45&#45;&gt;Node46</title>
<path fill="none" stroke="midnightblue" d="M102.819,-134.856C124.294,-151.116 155.731,-173.085 186,-187.5 192.948,-190.809 200.458,-193.79 207.983,-196.433"/>
<polygon fill="midnightblue" stroke="midnightblue" points="104.882,-132.028 94.819,-128.714 100.619,-137.58 104.882,-132.028"/>
</g>
<!-- Node48 -->
<g id="node4" class="node"><title>Node48</title>
<g id="a_node4"><a xlink:href="$class_minecraft_server_service_1_1_bungee_cord_server.html#a5f03992324f892fa1cedcef5153a7d3f" xlink:title="MinecraftServerService\l::BungeeCordServer::startServer">
<polygon fill="none" stroke="black" points="186,-147.5 186,-177.5 345,-177.5 345,-147.5 186,-147.5"/>
<text text-anchor="start" x="194" y="-165.5" font-family="Helvetica,sans-Serif" font-size="10.00">MinecraftServerService</text>
<text text-anchor="middle" x="265.5" y="-154.5" font-family="Helvetica,sans-Serif" font-size="10.00">::BungeeCordServer::startServer</text>
</a>
</g>
</g>
<!-- Node45&#45;&gt;Node48 -->
<g id="edge3" class="edge"><title>Node45&#45;&gt;Node48</title>
<path fill="none" stroke="midnightblue" d="M143.794,-131.123C164.417,-136.484 186.879,-142.323 206.772,-147.494"/>
<polygon fill="midnightblue" stroke="midnightblue" points="144.396,-127.663 133.837,-128.535 142.635,-134.438 144.396,-127.663"/>
</g>
<!-- Node50 -->
<g id="node6" class="node"><title>Node50</title>
<g id="a_node6"><a xlink:href="$class_minecraft_server_service_1_1_generic_server.html#aa3e2da3f6458e579697154360f6e05e5" xlink:title="MinecraftServerService\l::GenericServer::startServer">
<polygon fill="none" stroke="black" points="196,-98.5 196,-128.5 335,-128.5 335,-98.5 196,-98.5"/>
<text text-anchor="start" x="204" y="-116.5" font-family="Helvetica,sans-Serif" font-size="10.00">MinecraftServerService</text>
<text text-anchor="middle" x="265.5" y="-105.5" font-family="Helvetica,sans-Serif" font-size="10.00">::GenericServer::startServer</text>
</a>
</g>
</g>
<!-- Node45&#45;&gt;Node50 -->
<g id="edge5" class="edge"><title>Node45&#45;&gt;Node50</title>
<path fill="none" stroke="midnightblue" d="M160.544,-113.5C172.363,-113.5 184.388,-113.5 195.865,-113.5"/>
<polygon fill="midnightblue" stroke="midnightblue" points="160.23,-110 150.23,-113.5 160.23,-117 160.23,-110"/>
</g>
<!-- Node52 -->
<g id="node8" class="node"><title>Node52</title>
<g id="a_node8"><a xlink:href="$class_minecraft_server_service_1_1_spigot_server.html#a08bc3d74d604968034303efc7334dd08" xlink:title="MinecraftServerService\l::SpigotServer::startServer">
<polygon fill="none" stroke="black" points="199,-49.5 199,-79.5 332,-79.5 332,-49.5 199,-49.5"/>
<text text-anchor="start" x="207" y="-67.5" font-family="Helvetica,sans-Serif" font-size="10.00">MinecraftServerService</text>
<text text-anchor="middle" x="265.5" y="-56.5" font-family="Helvetica,sans-Serif" font-size="10.00">::SpigotServer::startServer</text>
</a>
</g>
</g>
<!-- Node45&#45;&gt;Node52 -->
<g id="edge7" class="edge"><title>Node45&#45;&gt;Node52</title>
<path fill="none" stroke="midnightblue" d="M143.794,-95.8771C164.417,-90.5163 186.879,-84.6775 206.772,-79.5062"/>
<polygon fill="midnightblue" stroke="midnightblue" points="142.635,-92.562 133.837,-98.4654 144.396,-99.3369 142.635,-92.562"/>
</g>
<!-- Node54 -->
<g id="node10" class="node"><title>Node54</title>
<g id="a_node10"><a xlink:href="$class_minecraft_server_service_1_1_vanilla_server.html#a9f1ea90c5bcd4f183303d169d0427b46" xlink:title="MinecraftServerService\l::VanillaServer::startServer">
<polygon fill="none" stroke="black" points="198.5,-0.5 198.5,-30.5 332.5,-30.5 332.5,-0.5 198.5,-0.5"/>
<text text-anchor="start" x="206.5" y="-18.5" font-family="Helvetica,sans-Serif" font-size="10.00">MinecraftServerService</text>
<text text-anchor="middle" x="265.5" y="-7.5" font-family="Helvetica,sans-Serif" font-size="10.00">::VanillaServer::startServer</text>
</a>
</g>
</g>
<!-- Node45&#45;&gt;Node54 -->
<g id="edge9" class="edge"><title>Node45&#45;&gt;Node54</title>
<path fill="none" stroke="midnightblue" d="M103.303,-92.2608C124.818,-76.3153 156.078,-54.8474 186,-40.5 193.609,-36.8514 201.881,-33.5567 210.105,-30.6466"/>
<polygon fill="midnightblue" stroke="midnightblue" points="101.171,-89.4852 95.2765,-98.2892 105.374,-95.0824 101.171,-89.4852"/>
</g>
<!-- Node47 -->
<g id="node3" class="node"><title>Node47</title>
<g id="a_node3"><a xlink:href="$class_minecraft_server_service_1_1_bukkit_server.html#afdd768465fedfbea100da7f62cbd11d0" xlink:title="MinecraftServerService\l::BukkitServer::restartServer">
<polygon fill="none" stroke="black" points="394,-196.5 394,-226.5 535,-226.5 535,-196.5 394,-196.5"/>
<text text-anchor="start" x="402" y="-214.5" font-family="Helvetica,sans-Serif" font-size="10.00">MinecraftServerService</text>
<text text-anchor="middle" x="464.5" y="-203.5" font-family="Helvetica,sans-Serif" font-size="10.00">::BukkitServer::restartServer</text>
</a>
</g>
</g>
<!-- Node46&#45;&gt;Node47 -->
<g id="edge2" class="edge"><title>Node46&#45;&gt;Node47</title>
<path fill="none" stroke="midnightblue" d="M342.472,-211.5C359.358,-211.5 377.176,-211.5 393.796,-211.5"/>
<polygon fill="midnightblue" stroke="midnightblue" points="342.098,-208 332.098,-211.5 342.098,-215 342.098,-208"/>
</g>
<!-- Node49 -->
<g id="node5" class="node"><title>Node49</title>
<g id="a_node5"><a xlink:href="$class_minecraft_server_service_1_1_bungee_cord_server.html#a471a30d5fd0c2dca57970aef99eaa2b7" xlink:title="MinecraftServerService\l::BungeeCordServer::restartServer">
<polygon fill="none" stroke="black" points="381,-147.5 381,-177.5 548,-177.5 548,-147.5 381,-147.5"/>
<text text-anchor="start" x="389" y="-165.5" font-family="Helvetica,sans-Serif" font-size="10.00">MinecraftServerService</text>
<text text-anchor="middle" x="464.5" y="-154.5" font-family="Helvetica,sans-Serif" font-size="10.00">::BungeeCordServer::restartServer</text>
</a>
</g>
</g>
<!-- Node48&#45;&gt;Node49 -->
<g id="edge4" class="edge"><title>Node48&#45;&gt;Node49</title>
<path fill="none" stroke="midnightblue" d="M355.42,-162.5C363.843,-162.5 372.36,-162.5 380.722,-162.5"/>
<polygon fill="midnightblue" stroke="midnightblue" points="355.209,-159 345.209,-162.5 355.209,-166 355.209,-159"/>
</g>
<!-- Node51 -->
<g id="node7" class="node"><title>Node51</title>
<g id="a_node7"><a xlink:href="$class_minecraft_server_service_1_1_generic_server.html#a91d7fee4ca078709180084768e85149f" xlink:title="MinecraftServerService\l::GenericServer::restartServer">
<polygon fill="none" stroke="black" points="391,-98.5 391,-128.5 538,-128.5 538,-98.5 391,-98.5"/>
<text text-anchor="start" x="399" y="-116.5" font-family="Helvetica,sans-Serif" font-size="10.00">MinecraftServerService</text>
<text text-anchor="middle" x="464.5" y="-105.5" font-family="Helvetica,sans-Serif" font-size="10.00">::GenericServer::restartServer</text>
</a>
</g>
</g>
<!-- Node50&#45;&gt;Node51 -->
<g id="edge6" class="edge"><title>Node50&#45;&gt;Node51</title>
<path fill="none" stroke="midnightblue" d="M345.38,-113.5C360.366,-113.5 375.982,-113.5 390.766,-113.5"/>
<polygon fill="midnightblue" stroke="midnightblue" points="345.125,-110 335.124,-113.5 345.124,-117 345.125,-110"/>
</g>
<!-- Node53 -->
<g id="node9" class="node"><title>Node53</title>
<g id="a_node9"><a xlink:href="$class_minecraft_server_service_1_1_spigot_server.html#a8868ea31ed029270de60becebf36fc69" xlink:title="MinecraftServerService\l::SpigotServer::restartServer">
<polygon fill="none" stroke="black" points="394,-49.5 394,-79.5 535,-79.5 535,-49.5 394,-49.5"/>
<text text-anchor="start" x="402" y="-67.5" font-family="Helvetica,sans-Serif" font-size="10.00">MinecraftServerService</text>
<text text-anchor="middle" x="464.5" y="-56.5" font-family="Helvetica,sans-Serif" font-size="10.00">::SpigotServer::restartServer</text>
</a>
</g>
</g>
<!-- Node52&#45;&gt;Node53 -->
<g id="edge8" class="edge"><title>Node52&#45;&gt;Node53</title>
<path fill="none" stroke="midnightblue" d="M342.472,-64.5C359.358,-64.5 377.176,-64.5 393.796,-64.5"/>
<polygon fill="midnightblue" stroke="midnightblue" points="342.098,-61.0001 332.098,-64.5 342.098,-68.0001 342.098,-61.0001"/>
</g>
<!-- Node55 -->
<g id="node11" class="node"><title>Node55</title>
<g id="a_node11"><a xlink:href="$class_minecraft_server_service_1_1_vanilla_server.html#a99ac73bdf44e6d77933e95c769f4d95a" xlink:title="MinecraftServerService\l::VanillaServer::restartServer">
<polygon fill="none" stroke="black" points="393,-0.5 393,-30.5 536,-30.5 536,-0.5 393,-0.5"/>
<text text-anchor="start" x="401" y="-18.5" font-family="Helvetica,sans-Serif" font-size="10.00">MinecraftServerService</text>
<text text-anchor="middle" x="464.5" y="-7.5" font-family="Helvetica,sans-Serif" font-size="10.00">::VanillaServer::restartServer</text>
</a>
</g>
</g>
<!-- Node54&#45;&gt;Node55 -->
<g id="edge10" class="edge"><title>Node54&#45;&gt;Node55</title>
<path fill="none" stroke="midnightblue" d="M342.765,-15.5C359.227,-15.5 376.563,-15.5 392.801,-15.5"/>
<polygon fill="midnightblue" stroke="midnightblue" points="342.646,-12.0001 332.646,-15.5 342.646,-19.0001 342.646,-12.0001"/>
</g>
</g>
</svg>
