<?xml version="1.0" encoding="UTF-8" standalone="no"?>
<!DOCTYPE svg PUBLIC "-//W3C//DTD SVG 1.1//EN"
 "http://www.w3.org/Graphics/SVG/1.1/DTD/svg11.dtd">
<!-- Generated by graphviz version 2.38.0 (20140413.2041)
 -->
<!-- Title: MinecraftServerService::BungeeCordServer::restartServer Pages: 1 -->
<svg width="958pt" height="147pt"
 viewBox="0.00 0.00 958.00 147.27" xmlns="http://www.w3.org/2000/svg" xmlns:xlink="http://www.w3.org/1999/xlink">
<g id="graph0" class="graph" transform="scale(1 1) rotate(0) translate(4 143.273)">
<title>MinecraftServerService::BungeeCordServer::restartServer</title>
<!-- Node16 -->
<g id="node1" class="node"><title>Node16</title>
<polygon fill="#bfbfbf" stroke="black" points="0,-93.5 0,-123.5 167,-123.5 167,-93.5 0,-93.5"/>
<text text-anchor="start" x="8" y="-111.5" font-family="Helvetica,sans-Serif" font-size="10.00">MinecraftServerService</text>
<text text-anchor="middle" x="83.5" y="-100.5" font-family="Helvetica,sans-Serif" font-size="10.00">::BungeeCordServer::restartServer</text>
</g>
<!-- Node17 -->
<g id="node2" class="node"><title>Node17</title>
<g id="a_node2"><a xlink:href="$class_minecraft_server_service_1_1_server.html#a1954e7c7756cd956e7282887ffca73e4" xlink:title="MinecraftServerService\l::Server::isRunning">
<polygon fill="none" stroke="black" points="413.5,-93.5 413.5,-123.5 532.5,-123.5 532.5,-93.5 413.5,-93.5"/>
<text text-anchor="start" x="421.5" y="-111.5" font-family="Helvetica,sans-Serif" font-size="10.00">MinecraftServerService</text>
<text text-anchor="middle" x="473" y="-100.5" font-family="Helvetica,sans-Serif" font-size="10.00">::Server::isRunning</text>
</a>
</g>
</g>
<!-- Node16&#45;&gt;Node17 -->
<g id="edge1" class="edge"><title>Node16&#45;&gt;Node17</title>
<path fill="none" stroke="midnightblue" d="M143.792,-123.531C162.595,-127.617 183.552,-131.471 203,-133.5 273.285,-140.833 291.774,-141.38 362,-133.5 376.706,-131.85 392.314,-128.996 407.011,-125.792"/>
<polygon fill="midnightblue" stroke="midnightblue" points="408.036,-129.149 417.017,-123.529 406.491,-122.321 408.036,-129.149"/>
</g>
<!-- Node18 -->
<g id="node3" class="node"><title>Node18</title>
<g id="a_node3"><a xlink:href="$class_minecraft_server_service_1_1_bungee_cord_server.html#a20602e6aa9b12c5f7c1c61e0a3341ab7" xlink:title="MinecraftServerService\l::BungeeCordServer::stopServer">
<polygon fill="none" stroke="black" points="203.5,-93.5 203.5,-123.5 361.5,-123.5 361.5,-93.5 203.5,-93.5"/>
<text text-anchor="start" x="211.5" y="-111.5" font-family="Helvetica,sans-Serif" font-size="10.00">MinecraftServerService</text>
<text text-anchor="middle" x="282.5" y="-100.5" font-family="Helvetica,sans-Serif" font-size="10.00">::BungeeCordServer::stopServer</text>
</a>
</g>
</g>
<!-- Node16&#45;&gt;Node18 -->
<g id="edge2" class="edge"><title>Node16&#45;&gt;Node18</title>
<path fill="none" stroke="midnightblue" d="M167.189,-108.5C175.817,-108.5 184.611,-108.5 193.297,-108.5"/>
<polygon fill="midnightblue" stroke="midnightblue" points="193.427,-112 203.427,-108.5 193.427,-105 193.427,-112"/>
</g>
<!-- Node19 -->
<g id="node4" class="node"><title>Node19</title>
<g id="a_node4"><a xlink:href="$class_minecraft_server_service_1_1_bungee_cord_server.html#a5f03992324f892fa1cedcef5153a7d3f" xlink:title="MinecraftServerService\l::BungeeCordServer::startServer">
<polygon fill="none" stroke="black" points="203,-44.5 203,-74.5 362,-74.5 362,-44.5 203,-44.5"/>
<text text-anchor="start" x="211" y="-62.5" font-family="Helvetica,sans-Serif" font-size="10.00">MinecraftServerService</text>
<text text-anchor="middle" x="282.5" y="-51.5" font-family="Helvetica,sans-Serif" font-size="10.00">::BungeeCordServer::startServer</text>
</a>
</g>
</g>
<!-- Node16&#45;&gt;Node19 -->
<g id="edge4" class="edge"><title>Node16&#45;&gt;Node19</title>
<path fill="none" stroke="midnightblue" d="M144.945,-93.4654C165.935,-88.2446 189.649,-82.3463 211.354,-76.9474"/>
<polygon fill="midnightblue" stroke="midnightblue" points="212.31,-80.3165 221.169,-74.5062 210.62,-73.5235 212.31,-80.3165"/>
</g>
<!-- Node18&#45;&gt;Node17 -->
<g id="edge3" class="edge"><title>Node18&#45;&gt;Node17</title>
<path fill="none" stroke="midnightblue" d="M361.531,-108.5C375.332,-108.5 389.612,-108.5 403.139,-108.5"/>
<polygon fill="midnightblue" stroke="midnightblue" points="403.315,-112 413.315,-108.5 403.315,-105 403.315,-112"/>
</g>
<!-- Node19&#45;&gt;Node17 -->
<g id="edge5" class="edge"><title>Node19&#45;&gt;Node17</title>
<path fill="none" stroke="midnightblue" d="M341.337,-74.5346C361.24,-79.7083 383.703,-85.5475 404.319,-90.9066"/>
<polygon fill="midnightblue" stroke="midnightblue" points="403.713,-94.3653 414.272,-93.4938 405.474,-87.5905 403.713,-94.3653"/>
</g>
<!-- Node20 -->
<g id="node5" class="node"><title>Node20</title>
<g id="a_node5"><a xlink:href="$class_minecraft_server_service_1_1_server.html#a16a19b4cfd94f23c20442cea9b46f678" xlink:title="MinecraftServerService\l::Server::launchServerProcess">
<polygon fill="none" stroke="black" points="398,-44.5 398,-74.5 548,-74.5 548,-44.5 398,-44.5"/>
<text text-anchor="start" x="406" y="-62.5" font-family="Helvetica,sans-Serif" font-size="10.00">MinecraftServerService</text>
<text text-anchor="middle" x="473" y="-51.5" font-family="Helvetica,sans-Serif" font-size="10.00">::Server::launchServerProcess</text>
</a>
</g>
</g>
<!-- Node19&#45;&gt;Node20 -->
<g id="edge6" class="edge"><title>Node19&#45;&gt;Node20</title>
<path fill="none" stroke="midnightblue" d="M362.076,-59.5C370.479,-59.5 379.053,-59.5 387.52,-59.5"/>
<polygon fill="midnightblue" stroke="midnightblue" points="387.777,-63.0001 397.777,-59.5 387.777,-56.0001 387.777,-63.0001"/>
</g>
<!-- Node22 -->
<g id="node7" class="node"><title>Node22</title>
<g id="a_node7"><a xlink:href="$class_minecraft_server_service_1_1_server.html#a3040817c744456263f8ba36bdb72bf20" xlink:title="MinecraftServerService\l::Server::outputListenerThread">
<polygon fill="none" stroke="black" points="605,-0.5 605,-30.5 754,-30.5 754,-0.5 605,-0.5"/>
<text text-anchor="start" x="613" y="-18.5" font-family="Helvetica,sans-Serif" font-size="10.00">MinecraftServerService</text>
<text text-anchor="middle" x="679.5" y="-7.5" font-family="Helvetica,sans-Serif" font-size="10.00">::Server::outputListenerThread</text>
</a>
</g>
</g>
<!-- Node19&#45;&gt;Node22 -->
<g id="edge11" class="edge"><title>Node19&#45;&gt;Node22</title>
<path fill="none" stroke="midnightblue" d="M344.403,-44.4589C361.637,-40.6788 380.475,-36.9929 398,-34.5 463.735,-25.1493 538.813,-20.3712 594.743,-17.9465"/>
<polygon fill="midnightblue" stroke="midnightblue" points="595.112,-21.4342 604.957,-17.5205 594.82,-14.4403 595.112,-21.4342"/>
</g>
<!-- Node21 -->
<g id="node6" class="node"><title>Node21</title>
<g id="a_node6"><a xlink:href="$class_minecraft_server_service_1_1_server.html#a085f201bd563ce47e2b41778ef72d20d" xlink:title="MinecraftServerService\l::Server::getUIDAndGIDFromUsername">
<polygon fill="none" stroke="black" points="584,-88.5 584,-118.5 775,-118.5 775,-88.5 584,-88.5"/>
<text text-anchor="start" x="592" y="-106.5" font-family="Helvetica,sans-Serif" font-size="10.00">MinecraftServerService</text>
<text text-anchor="middle" x="679.5" y="-95.5" font-family="Helvetica,sans-Serif" font-size="10.00">::Server::getUIDAndGIDFromUsername</text>
</a>
</g>
</g>
<!-- Node20&#45;&gt;Node21 -->
<g id="edge7" class="edge"><title>Node20&#45;&gt;Node21</title>
<path fill="none" stroke="midnightblue" d="M543.805,-74.5192C561.476,-78.3212 580.589,-82.4336 598.712,-86.3328"/>
<polygon fill="midnightblue" stroke="midnightblue" points="598.15,-89.792 608.662,-88.4738 599.622,-82.9486 598.15,-89.792"/>
</g>
<!-- Node20&#45;&gt;Node22 -->
<g id="edge8" class="edge"><title>Node20&#45;&gt;Node22</title>
<path fill="none" stroke="midnightblue" d="M543.805,-44.4808C561.476,-40.6788 580.589,-36.5664 598.712,-32.6672"/>
<polygon fill="midnightblue" stroke="midnightblue" points="599.622,-36.0514 608.662,-30.5262 598.15,-29.208 599.622,-36.0514"/>
</g>
<!-- Node23 -->
<g id="node8" class="node"><title>Node23</title>
<g id="a_node8"><a xlink:href="$class_minecraft_server_service_1_1_server.html#a4ecf103c62bd8f1e54b2ff436fa1645a" xlink:title="MinecraftServerService\l::Server::serverOutputEvent">
<polygon fill="none" stroke="black" points="811,-22.5 811,-52.5 950,-52.5 950,-22.5 811,-22.5"/>
<text text-anchor="start" x="819" y="-40.5" font-family="Helvetica,sans-Serif" font-size="10.00">MinecraftServerService</text>
<text text-anchor="middle" x="880.5" y="-29.5" font-family="Helvetica,sans-Serif" font-size="10.00">::Server::serverOutputEvent</text>
</a>
</g>
</g>
<!-- Node20&#45;&gt;Node23 -->
<g id="edge10" class="edge"><title>Node20&#45;&gt;Node23</title>
<path fill="none" stroke="midnightblue" d="M548.375,-55.4649C620,-51.5789 727.937,-45.7229 800.938,-41.7623"/>
<polygon fill="midnightblue" stroke="midnightblue" points="801.203,-45.2531 810.999,-41.2164 800.824,-38.2634 801.203,-45.2531"/>
</g>
<!-- Node22&#45;&gt;Node23 -->
<g id="edge9" class="edge"><title>Node22&#45;&gt;Node23</title>
<path fill="none" stroke="midnightblue" d="M754.035,-23.6295C769.293,-25.3163 785.427,-27.1 800.861,-28.8062"/>
<polygon fill="midnightblue" stroke="midnightblue" points="800.561,-32.2943 810.885,-29.9144 801.33,-25.3367 800.561,-32.2943"/>
</g>
</g>
</svg>
