<?xml version="1.0" encoding="UTF-8" standalone="no"?>
<!DOCTYPE svg PUBLIC "-//W3C//DTD SVG 1.1//EN"
 "http://www.w3.org/Graphics/SVG/1.1/DTD/svg11.dtd">
<!-- Generated by graphviz version 2.38.0 (20140413.2041)
 -->
<!-- Title: MinecraftServerService::ServerProcessBuf::startServer Pages: 1 -->
<svg width="558pt" height="50pt"
 viewBox="0.00 0.00 558.00 50.00" xmlns="http://www.w3.org/2000/svg" xmlns:xlink="http://www.w3.org/1999/xlink">
<g id="graph0" class="graph" transform="scale(1 1) rotate(0) translate(4 46)">
<title>MinecraftServerService::ServerProcessBuf::startServer</title>
<!-- Node33 -->
<g id="node1" class="node"><title>Node33</title>
<polygon fill="#bfbfbf" stroke="black" points="0,-6 0,-36 156,-36 156,-6 0,-6"/>
<text text-anchor="start" x="8" y="-24" font-family="Helvetica,sans-Serif" font-size="10.00">MinecraftServerService</text>
<text text-anchor="middle" x="78" y="-13" font-family="Helvetica,sans-Serif" font-size="10.00">::ServerProcessBuf::startServer</text>
</g>
<!-- Node34 -->
<g id="node2" class="node"><title>Node34</title>
<g id="a_node2"><a xlink:href="$class_minecraft_server_service_1_1_server_process_buf.html#ac4ad22e1d1978d98b06a999a1100fd27" xlink:title="MinecraftServerService\l::ServerProcessBuf::launchServer\lProcess">
<polygon fill="none" stroke="black" points="192,-0.5 192,-41.5 357,-41.5 357,-0.5 192,-0.5"/>
<text text-anchor="start" x="200" y="-29.5" font-family="Helvetica,sans-Serif" font-size="10.00">MinecraftServerService</text>
<text text-anchor="start" x="200" y="-18.5" font-family="Helvetica,sans-Serif" font-size="10.00">::ServerProcessBuf::launchServer</text>
<text text-anchor="middle" x="274.5" y="-7.5" font-family="Helvetica,sans-Serif" font-size="10.00">Process</text>
</a>
</g>
</g>
<!-- Node33&#45;&gt;Node34 -->
<g id="edge1" class="edge"><title>Node33&#45;&gt;Node34</title>
<path fill="none" stroke="midnightblue" d="M156.151,-21C164.613,-21 173.287,-21 181.901,-21"/>
<polygon fill="midnightblue" stroke="midnightblue" points="181.97,-24.5001 191.97,-21 181.97,-17.5001 181.97,-24.5001"/>
</g>
<!-- Node35 -->
<g id="node3" class="node"><title>Node35</title>
<g id="a_node3"><a xlink:href="$class_minecraft_server_service_1_1_server_process_buf.html#a50b92162fbeba7f6cba82eab4ecabef0" xlink:title="MinecraftServerService\l::ServerProcessBuf::getUIDAnd\lGIDFromUsername">
<polygon fill="none" stroke="black" points="393,-0.5 393,-41.5 550,-41.5 550,-0.5 393,-0.5"/>
<text text-anchor="start" x="401" y="-29.5" font-family="Helvetica,sans-Serif" font-size="10.00">MinecraftServerService</text>
<text text-anchor="start" x="401" y="-18.5" font-family="Helvetica,sans-Serif" font-size="10.00">::ServerProcessBuf::getUIDAnd</text>
<text text-anchor="middle" x="471.5" y="-7.5" font-family="Helvetica,sans-Serif" font-size="10.00">GIDFromUsername</text>
</a>
</g>
</g>
<!-- Node34&#45;&gt;Node35 -->
<g id="edge2" class="edge"><title>Node34&#45;&gt;Node35</title>
<path fill="none" stroke="midnightblue" d="M357.068,-21C365.452,-21 373.998,-21 382.448,-21"/>
<polygon fill="midnightblue" stroke="midnightblue" points="382.691,-24.5001 392.691,-21 382.691,-17.5001 382.691,-24.5001"/>
</g>
</g>
</svg>
