<?xml version="1.0" encoding="UTF-8" standalone="no"?>
<!DOCTYPE svg PUBLIC "-//W3C//DTD SVG 1.1//EN"
 "http://www.w3.org/Graphics/SVG/1.1/DTD/svg11.dtd">
<!-- Generated by graphviz version 2.38.0 (20140413.2041)
 -->
<!-- Title: Parser::getFileContents Pages: 1 -->
<svg width="313pt" height="28pt"
 viewBox="0.00 0.00 313.00 28.00" xmlns="http://www.w3.org/2000/svg" xmlns:xlink="http://www.w3.org/1999/xlink">
<g id="graph0" class="graph" transform="scale(1 1) rotate(0) translate(4 24)">
<title>Parser::getFileContents</title>
<!-- Node1 -->
<g id="node1" class="node"><title>Node1</title>
<polygon fill="#bfbfbf" stroke="black" points="0,-0.5 0,-19.5 120,-19.5 120,-0.5 0,-0.5"/>
<text text-anchor="middle" x="60" y="-7.5" font-family="Helvetica,sans-Serif" font-size="10.00">Parser::getFileContents</text>
</g>
<!-- Node2 -->
<g id="node2" class="node"><title>Node2</title>
<g id="a_node2"><a xlink:href="$class_parser.html#a9ee227e9602693296fa201ebf86d2166" xlink:title="Parser::parse">
<polygon fill="none" stroke="black" points="156,-0.5 156,-19.5 231,-19.5 231,-0.5 156,-0.5"/>
<text text-anchor="middle" x="193.5" y="-7.5" font-family="Helvetica,sans-Serif" font-size="10.00">Parser::parse</text>
</a>
</g>
</g>
<!-- Node1&#45;&gt;Node2 -->
<g id="edge1" class="edge"><title>Node1&#45;&gt;Node2</title>
<path fill="none" stroke="midnightblue" d="M130.483,-10C139.23,-10 147.89,-10 155.839,-10"/>
<polygon fill="midnightblue" stroke="midnightblue" points="130.21,-6.5001 120.21,-10 130.21,-13.5001 130.21,-6.5001"/>
</g>
<!-- Node3 -->
<g id="node3" class="node"><title>Node3</title>
<g id="a_node3"><a xlink:href="$main_8cpp.html#a840291bc02cba5474a4cb46a9b9566fe" xlink:title="main">
<polygon fill="none" stroke="black" points="267,-0.5 267,-19.5 305,-19.5 305,-0.5 267,-0.5"/>
<text text-anchor="middle" x="286" y="-7.5" font-family="Helvetica,sans-Serif" font-size="10.00">main</text>
</a>
</g>
</g>
<!-- Node2&#45;&gt;Node3 -->
<g id="edge2" class="edge"><title>Node2&#45;&gt;Node3</title>
<path fill="none" stroke="midnightblue" d="M241.313,-10C250.441,-10 259.485,-10 266.956,-10"/>
<polygon fill="midnightblue" stroke="midnightblue" points="241.049,-6.5001 231.049,-10 241.049,-13.5001 241.049,-6.5001"/>
</g>
</g>
</svg>
