<?xml version="1.0" encoding="UTF-8" standalone="no"?>
<!DOCTYPE svg PUBLIC "-//W3C//DTD SVG 1.1//EN"
 "http://www.w3.org/Graphics/SVG/1.1/DTD/svg11.dtd">
<!-- Generated by graphviz version 2.38.0 (20140413.2041)
 -->
<!-- Title: Json::OurReader::readCStyleComment Pages: 1 -->
<svg width="1225pt" height="176pt"
 viewBox="0.00 0.00 1225.00 176.06" xmlns="http://www.w3.org/2000/svg" xmlns:xlink="http://www.w3.org/1999/xlink">
<g id="graph0" class="graph" transform="scale(1 1) rotate(0) translate(4 172.056)">
<title>Json::OurReader::readCStyleComment</title>
<!-- Node249 -->
<g id="node1" class="node"><title>Node249</title>
<polygon fill="#bfbfbf" stroke="black" points="0,-60.556 0,-90.556 146,-90.556 146,-60.556 0,-60.556"/>
<text text-anchor="start" x="8" y="-78.556" font-family="Helvetica,sans-Serif" font-size="10.00">Json::OurReader::readCStyle</text>
<text text-anchor="middle" x="73" y="-67.556" font-family="Helvetica,sans-Serif" font-size="10.00">Comment</text>
</g>
<!-- Node250 -->
<g id="node2" class="node"><title>Node250</title>
<g id="a_node2"><a xlink:href="$class_json_1_1_our_reader.html#a90f6bb9e55b2bc3d6c1880809495c222" xlink:title="Json::OurReader::readComment">
<polygon fill="none" stroke="black" points="182,-66.056 182,-85.056 340,-85.056 340,-66.056 182,-66.056"/>
<text text-anchor="middle" x="261" y="-73.056" font-family="Helvetica,sans-Serif" font-size="10.00">Json::OurReader::readComment</text>
</a>
</g>
</g>
<!-- Node249&#45;&gt;Node250 -->
<g id="edge1" class="edge"><title>Node249&#45;&gt;Node250</title>
<path fill="none" stroke="midnightblue" d="M156.37,-75.556C164.788,-75.556 173.324,-75.556 181.697,-75.556"/>
<polygon fill="midnightblue" stroke="midnightblue" points="156.179,-72.0561 146.179,-75.556 156.179,-79.0561 156.179,-72.0561"/>
</g>
<!-- Node251 -->
<g id="node3" class="node"><title>Node251</title>
<g id="a_node3"><a xlink:href="$class_json_1_1_our_reader.html#a0d1e66da47fe2e85f5033c59326dfdc3" xlink:title="Json::OurReader::readToken">
<polygon fill="none" stroke="black" points="376,-66.056 376,-85.056 519,-85.056 519,-66.056 376,-66.056"/>
<text text-anchor="middle" x="447.5" y="-73.056" font-family="Helvetica,sans-Serif" font-size="10.00">Json::OurReader::readToken</text>
</a>
</g>
</g>
<!-- Node250&#45;&gt;Node251 -->
<g id="edge2" class="edge"><title>Node250&#45;&gt;Node251</title>
<path fill="none" stroke="midnightblue" d="M350.245,-75.556C358.797,-75.556 367.395,-75.556 375.745,-75.556"/>
<polygon fill="midnightblue" stroke="midnightblue" points="350.245,-72.0561 340.245,-75.556 350.245,-79.0561 350.245,-72.0561"/>
</g>
<!-- Node252 -->
<g id="node4" class="node"><title>Node252</title>
<g id="a_node4"><a xlink:href="$class_json_1_1_our_reader.html#a856dea44d92578c276856d7a65a4ebdc" xlink:title="Json::OurReader::skipComment\lTokens">
<polygon fill="none" stroke="black" points="555,-85.556 555,-115.556 713,-115.556 713,-85.556 555,-85.556"/>
<text text-anchor="start" x="563" y="-103.556" font-family="Helvetica,sans-Serif" font-size="10.00">Json::OurReader::skipComment</text>
<text text-anchor="middle" x="634" y="-92.556" font-family="Helvetica,sans-Serif" font-size="10.00">Tokens</text>
</a>
</g>
</g>
<!-- Node251&#45;&gt;Node252 -->
<g id="edge3" class="edge"><title>Node251&#45;&gt;Node252</title>
<path fill="none" stroke="midnightblue" d="M528.847,-86.4432C537.497,-87.6152 546.288,-88.8064 554.91,-89.9747"/>
<polygon fill="midnightblue" stroke="midnightblue" points="529.157,-82.9532 518.778,-85.0787 528.217,-89.8899 529.157,-82.9532"/>
</g>
<!-- Node256 -->
<g id="node8" class="node"><title>Node256</title>
<g id="a_node8"><a xlink:href="$class_json_1_1_our_reader.html#aea198f8101dba55099f4d8121a993530" xlink:title="Json::OurReader::readObject">
<polygon fill="none" stroke="black" points="925,-86.056 925,-105.056 1069,-105.056 1069,-86.056 925,-86.056"/>
<text text-anchor="middle" x="997" y="-93.056" font-family="Helvetica,sans-Serif" font-size="10.00">Json::OurReader::readObject</text>
</a>
</g>
</g>
<!-- Node251&#45;&gt;Node256 -->
<g id="edge12" class="edge"><title>Node251&#45;&gt;Node256</title>
<path fill="none" stroke="midnightblue" d="M473.284,-90.1663C494.272,-101.739 525.56,-117.149 555,-124.556 699.05,-160.801 742.939,-163.582 889,-136.556 921.276,-130.584 956.396,-115.278 977.286,-105.151"/>
<polygon fill="midnightblue" stroke="midnightblue" points="474.839,-87.0249 464.409,-85.1617 471.401,-93.1223 474.839,-87.0249"/>
</g>
<!-- Node257 -->
<g id="node9" class="node"><title>Node257</title>
<g id="a_node9"><a xlink:href="$class_json_1_1_our_reader.html#a0b9f58faf4212c6ecb5d8e2a1ac10257" xlink:title="Json::OurReader::readArray">
<polygon fill="none" stroke="black" points="927.5,-42.056 927.5,-61.056 1066.5,-61.056 1066.5,-42.056 927.5,-42.056"/>
<text text-anchor="middle" x="997" y="-49.056" font-family="Helvetica,sans-Serif" font-size="10.00">Json::OurReader::readArray</text>
</a>
</g>
</g>
<!-- Node251&#45;&gt;Node257 -->
<g id="edge13" class="edge"><title>Node251&#45;&gt;Node257</title>
<path fill="none" stroke="midnightblue" d="M473.255,-60.827C494.226,-49.1836 525.504,-33.7362 555,-26.556 699.285,8.56752 742.255,5.19804 889,-17.556 918.855,-22.1853 951.783,-33.6729 973.118,-42.0168"/>
<polygon fill="midnightblue" stroke="midnightblue" points="471.353,-57.8819 464.388,-65.8656 474.812,-63.9678 471.353,-57.8819"/>
</g>
<!-- Node258 -->
<g id="node10" class="node"><title>Node258</title>
<g id="a_node10"><a xlink:href="$class_json_1_1_our_reader.html#a035651f0700a76a815e5f904c63ebb1c" xlink:title="Json::OurReader::recover\lFromError">
<polygon fill="none" stroke="black" points="569.5,-36.556 569.5,-66.556 698.5,-66.556 698.5,-36.556 569.5,-36.556"/>
<text text-anchor="start" x="577.5" y="-54.556" font-family="Helvetica,sans-Serif" font-size="10.00">Json::OurReader::recover</text>
<text text-anchor="middle" x="634" y="-43.556" font-family="Helvetica,sans-Serif" font-size="10.00">FromError</text>
</a>
</g>
</g>
<!-- Node251&#45;&gt;Node258 -->
<g id="edge14" class="edge"><title>Node251&#45;&gt;Node258</title>
<path fill="none" stroke="midnightblue" d="M529.249,-65.052C542.708,-63.3013 556.498,-61.5074 569.451,-59.8226"/>
<polygon fill="midnightblue" stroke="midnightblue" points="528.506,-61.6191 519.041,-66.3799 529.409,-68.5606 528.506,-61.6191"/>
</g>
<!-- Node253 -->
<g id="node5" class="node"><title>Node253</title>
<g id="a_node5"><a xlink:href="$class_json_1_1_our_reader.html#aba4f8749aab7f02ec17f107e392caf80" xlink:title="Json::OurReader::parse">
<polygon fill="none" stroke="black" points="936.5,-143.056 936.5,-162.056 1057.5,-162.056 1057.5,-143.056 936.5,-143.056"/>
<text text-anchor="middle" x="997" y="-150.056" font-family="Helvetica,sans-Serif" font-size="10.00">Json::OurReader::parse</text>
</a>
</g>
</g>
<!-- Node252&#45;&gt;Node253 -->
<g id="edge4" class="edge"><title>Node252&#45;&gt;Node253</title>
<path fill="none" stroke="midnightblue" d="M683.963,-118.87C703.868,-125.561 727.261,-132.481 749,-136.556 812.249,-148.411 886.02,-151.871 936.36,-152.702"/>
<polygon fill="midnightblue" stroke="midnightblue" points="685.09,-115.557 674.495,-115.618 682.815,-122.177 685.09,-115.557"/>
</g>
<!-- Node255 -->
<g id="node7" class="node"><title>Node255</title>
<g id="a_node7"><a xlink:href="$class_json_1_1_our_reader.html#a1765d9670d191c89a57a22ea5591d35f" xlink:title="Json::OurReader::readValue">
<polygon fill="none" stroke="black" points="749,-86.056 749,-105.056 889,-105.056 889,-86.056 749,-86.056"/>
<text text-anchor="middle" x="819" y="-93.056" font-family="Helvetica,sans-Serif" font-size="10.00">Json::OurReader::readValue</text>
</a>
</g>
</g>
<!-- Node252&#45;&gt;Node255 -->
<g id="edge6" class="edge"><title>Node252&#45;&gt;Node255</title>
<path fill="none" stroke="midnightblue" d="M723.194,-98.1463C731.789,-97.9115 740.424,-97.6756 748.793,-97.4469"/>
<polygon fill="midnightblue" stroke="midnightblue" points="723.04,-94.6491 713.139,-98.421 723.231,-101.647 723.04,-94.6491"/>
</g>
<!-- Node254 -->
<g id="node6" class="node"><title>Node254</title>
<g id="a_node6"><a xlink:href="$class_json_1_1_our_char_reader.html#a52a1fb5fee88d9b63dd462f63b1c9570" xlink:title="Json::OurCharReader\l::parse">
<polygon fill="none" stroke="black" points="1105,-137.556 1105,-167.556 1217,-167.556 1217,-137.556 1105,-137.556"/>
<text text-anchor="start" x="1113" y="-155.556" font-family="Helvetica,sans-Serif" font-size="10.00">Json::OurCharReader</text>
<text text-anchor="middle" x="1161" y="-144.556" font-family="Helvetica,sans-Serif" font-size="10.00">::parse</text>
</a>
</g>
</g>
<!-- Node253&#45;&gt;Node254 -->
<g id="edge5" class="edge"><title>Node253&#45;&gt;Node254</title>
<path fill="none" stroke="midnightblue" d="M1068.11,-152.556C1080.43,-152.556 1093.1,-152.556 1104.94,-152.556"/>
<polygon fill="midnightblue" stroke="midnightblue" points="1067.86,-149.056 1057.86,-152.556 1067.86,-156.056 1067.86,-149.056"/>
</g>
<!-- Node255&#45;&gt;Node253 -->
<g id="edge7" class="edge"><title>Node255&#45;&gt;Node253</title>
<path fill="none" stroke="midnightblue" d="M859.077,-108.212C891.521,-118.719 936.968,-133.438 966.445,-142.984"/>
<polygon fill="midnightblue" stroke="midnightblue" points="860.05,-104.848 849.458,-105.096 857.894,-111.507 860.05,-104.848"/>
</g>
<!-- Node255&#45;&gt;Node256 -->
<g id="edge8" class="edge"><title>Node255&#45;&gt;Node256</title>
<path fill="none" stroke="midnightblue" d="M899.06,-88.837C907.645,-88.7772 916.345,-88.8038 924.828,-88.9169"/>
<polygon fill="midnightblue" stroke="midnightblue" points="899.016,-85.3372 889.055,-88.947 899.093,-92.3368 899.016,-85.3372"/>
</g>
<!-- Node255&#45;&gt;Node257 -->
<g id="edge10" class="edge"><title>Node255&#45;&gt;Node257</title>
<path fill="none" stroke="midnightblue" d="M849.768,-82.9024C872.106,-75.9055 903.525,-67.6108 931.518,-61.1454"/>
<polygon fill="midnightblue" stroke="midnightblue" points="848.619,-79.5958 840.189,-86.0147 850.782,-86.2533 848.619,-79.5958"/>
</g>
<!-- Node256&#45;&gt;Node255 -->
<g id="edge9" class="edge"><title>Node256&#45;&gt;Node255</title>
<path fill="none" stroke="midnightblue" d="M914.79,-102.288C906.188,-102.334 897.499,-102.292 889.055,-102.165"/>
<polygon fill="midnightblue" stroke="midnightblue" points="914.861,-105.788 924.828,-102.195 914.796,-98.788 914.861,-105.788"/>
</g>
<!-- Node257&#45;&gt;Node255 -->
<g id="edge11" class="edge"><title>Node257&#45;&gt;Node255</title>
<path fill="none" stroke="midnightblue" d="M966.054,-64.2652C943.742,-71.2459 912.442,-79.5076 884.537,-85.9539"/>
<polygon fill="midnightblue" stroke="midnightblue" points="967.196,-67.5743 975.628,-61.1591 965.036,-60.9159 967.196,-67.5743"/>
</g>
<!-- Node258&#45;&gt;Node256 -->
<g id="edge15" class="edge"><title>Node258&#45;&gt;Node256</title>
<path fill="none" stroke="midnightblue" d="M704.838,-70.932C707.653,-72.3712 710.387,-73.9105 713,-75.556 732.962,-88.1249 727.391,-105.095 749,-114.556 824.053,-147.417 924.181,-120.85 970.505,-105.104"/>
<polygon fill="midnightblue" stroke="midnightblue" points="706.167,-67.6903 695.621,-66.6686 703.228,-74.0436 706.167,-67.6903"/>
</g>
<!-- Node258&#45;&gt;Node257 -->
<g id="edge16" class="edge"><title>Node258&#45;&gt;Node257</title>
<path fill="none" stroke="midnightblue" d="M701.943,-34.3552C717.3,-31.1142 733.632,-28.2213 749,-26.556 810.86,-19.8527 827.187,-19.4308 889,-26.556 914.395,-29.4832 942.521,-36.1957 963.561,-41.9287"/>
<polygon fill="midnightblue" stroke="midnightblue" points="701.033,-30.9712 692.011,-36.5258 702.528,-37.8097 701.033,-30.9712"/>
</g>
<!-- Node259 -->
<g id="node11" class="node"><title>Node259</title>
<g id="a_node11"><a xlink:href="$class_json_1_1_our_reader.html#ae68a7047acd692be8077e259d524c6d9" xlink:title="Json::OurReader::addError\lAndRecover">
<polygon fill="none" stroke="black" points="752,-36.556 752,-66.556 886,-66.556 886,-36.556 752,-36.556"/>
<text text-anchor="start" x="760" y="-54.556" font-family="Helvetica,sans-Serif" font-size="10.00">Json::OurReader::addError</text>
<text text-anchor="middle" x="819" y="-43.556" font-family="Helvetica,sans-Serif" font-size="10.00">AndRecover</text>
</a>
</g>
</g>
<!-- Node258&#45;&gt;Node259 -->
<g id="edge17" class="edge"><title>Node258&#45;&gt;Node259</title>
<path fill="none" stroke="midnightblue" d="M708.986,-51.556C723.219,-51.556 738.038,-51.556 751.997,-51.556"/>
<polygon fill="midnightblue" stroke="midnightblue" points="708.748,-48.0561 698.748,-51.556 708.748,-55.0561 708.748,-48.0561"/>
</g>
<!-- Node259&#45;&gt;Node256 -->
<g id="edge18" class="edge"><title>Node259&#45;&gt;Node256</title>
<path fill="none" stroke="midnightblue" d="M889.896,-69.03C913.105,-74.8323 938.07,-81.0736 957.95,-86.0436"/>
<polygon fill="midnightblue" stroke="midnightblue" points="890.627,-65.6052 880.077,-66.5752 888.929,-72.3962 890.627,-65.6052"/>
</g>
<!-- Node259&#45;&gt;Node257 -->
<g id="edge19" class="edge"><title>Node259&#45;&gt;Node257</title>
<path fill="none" stroke="midnightblue" d="M896.248,-51.556C906.554,-51.556 917.078,-51.556 927.243,-51.556"/>
<polygon fill="midnightblue" stroke="midnightblue" points="896.037,-48.0561 886.037,-51.556 896.037,-55.0561 896.037,-48.0561"/>
</g>
</g>
</svg>
