<?xml version="1.0" encoding="UTF-8" standalone="no"?>
<!DOCTYPE svg PUBLIC "-//W3C//DTD SVG 1.1//EN"
 "http://www.w3.org/Graphics/SVG/1.1/DTD/svg11.dtd">
<!-- Generated by graphviz version 2.38.0 (20140413.2041)
 -->
<!-- Title: Json::OurReader::decodeNumber Pages: 1 -->
<svg width="675pt" height="104pt"
 viewBox="0.00 0.00 675.00 104.00" xmlns="http://www.w3.org/2000/svg" xmlns:xlink="http://www.w3.org/1999/xlink">
<g id="graph0" class="graph" transform="scale(1 1) rotate(0) translate(4 100)">
<title>Json::OurReader::decodeNumber</title>
<!-- Node74 -->
<g id="node1" class="node"><title>Node74</title>
<polygon fill="#bfbfbf" stroke="black" points="0,-57.5 0,-76.5 163,-76.5 163,-57.5 0,-57.5"/>
<text text-anchor="middle" x="81.5" y="-64.5" font-family="Helvetica,sans-Serif" font-size="10.00">Json::OurReader::decodeNumber</text>
</g>
<!-- Node75 -->
<g id="node2" class="node"><title>Node75</title>
<g id="a_node2"><a xlink:href="$class_json_1_1_our_reader.html#a1765d9670d191c89a57a22ea5591d35f" xlink:title="Json::OurReader::readValue">
<polygon fill="none" stroke="black" points="199,-38.5 199,-57.5 339,-57.5 339,-38.5 199,-38.5"/>
<text text-anchor="middle" x="269" y="-45.5" font-family="Helvetica,sans-Serif" font-size="10.00">Json::OurReader::readValue</text>
</a>
</g>
</g>
<!-- Node74&#45;&gt;Node75 -->
<g id="edge1" class="edge"><title>Node74&#45;&gt;Node75</title>
<path fill="none" stroke="midnightblue" d="M173.166,-57.7135C181.804,-56.8287 190.467,-55.9414 198.854,-55.0824"/>
<polygon fill="midnightblue" stroke="midnightblue" points="172.645,-54.2484 163.054,-58.7492 173.358,-61.212 172.645,-54.2484"/>
</g>
<!-- Node78 -->
<g id="node5" class="node"><title>Node78</title>
<g id="a_node5"><a xlink:href="$class_json_1_1_our_reader.html#aea198f8101dba55099f4d8121a993530" xlink:title="Json::OurReader::readObject">
<polygon fill="none" stroke="black" points="375,-76.5 375,-95.5 519,-95.5 519,-76.5 375,-76.5"/>
<text text-anchor="middle" x="447" y="-83.5" font-family="Helvetica,sans-Serif" font-size="10.00">Json::OurReader::readObject</text>
</a>
</g>
</g>
<!-- Node74&#45;&gt;Node78 -->
<g id="edge8" class="edge"><title>Node74&#45;&gt;Node78</title>
<path fill="none" stroke="midnightblue" d="M173.392,-71.7509C235.694,-75.0074 317.172,-79.2662 374.773,-82.277"/>
<polygon fill="midnightblue" stroke="midnightblue" points="173.342,-68.2436 163.172,-71.2167 172.976,-75.234 173.342,-68.2436"/>
</g>
<!-- Node76 -->
<g id="node3" class="node"><title>Node76</title>
<g id="a_node3"><a xlink:href="$class_json_1_1_our_reader.html#aba4f8749aab7f02ec17f107e392caf80" xlink:title="Json::OurReader::parse">
<polygon fill="none" stroke="black" points="386.5,-38.5 386.5,-57.5 507.5,-57.5 507.5,-38.5 386.5,-38.5"/>
<text text-anchor="middle" x="447" y="-45.5" font-family="Helvetica,sans-Serif" font-size="10.00">Json::OurReader::parse</text>
</a>
</g>
</g>
<!-- Node75&#45;&gt;Node76 -->
<g id="edge2" class="edge"><title>Node75&#45;&gt;Node76</title>
<path fill="none" stroke="midnightblue" d="M349.391,-48C361.786,-48 374.412,-48 386.271,-48"/>
<polygon fill="midnightblue" stroke="midnightblue" points="349.055,-44.5001 339.055,-48 349.055,-51.5001 349.055,-44.5001"/>
</g>
<!-- Node75&#45;&gt;Node78 -->
<g id="edge4" class="edge"><title>Node75&#45;&gt;Node78</title>
<path fill="none" stroke="midnightblue" d="M349.005,-58.3394C376.209,-64.0222 404.572,-70.8233 423.547,-76.4659"/>
<polygon fill="midnightblue" stroke="midnightblue" points="349.554,-54.8791 339.055,-56.3005 348.149,-61.7367 349.554,-54.8791"/>
</g>
<!-- Node79 -->
<g id="node6" class="node"><title>Node79</title>
<g id="a_node6"><a xlink:href="$class_json_1_1_our_reader.html#a0b9f58faf4212c6ecb5d8e2a1ac10257" xlink:title="Json::OurReader::readArray">
<polygon fill="none" stroke="black" points="377.5,-0.5 377.5,-19.5 516.5,-19.5 516.5,-0.5 377.5,-0.5"/>
<text text-anchor="middle" x="447" y="-7.5" font-family="Helvetica,sans-Serif" font-size="10.00">Json::OurReader::readArray</text>
</a>
</g>
</g>
<!-- Node75&#45;&gt;Node79 -->
<g id="edge6" class="edge"><title>Node75&#45;&gt;Node79</title>
<path fill="none" stroke="midnightblue" d="M302.314,-35.6573C323.254,-29.9161 351.336,-23.4396 377.117,-18.2661"/>
<polygon fill="midnightblue" stroke="midnightblue" points="301.309,-32.3041 292.649,-38.4076 303.225,-39.0368 301.309,-32.3041"/>
</g>
<!-- Node77 -->
<g id="node4" class="node"><title>Node77</title>
<g id="a_node4"><a xlink:href="$class_json_1_1_our_char_reader.html#a52a1fb5fee88d9b63dd462f63b1c9570" xlink:title="Json::OurCharReader\l::parse">
<polygon fill="none" stroke="black" points="555,-33 555,-63 667,-63 667,-33 555,-33"/>
<text text-anchor="start" x="563" y="-51" font-family="Helvetica,sans-Serif" font-size="10.00">Json::OurCharReader</text>
<text text-anchor="middle" x="611" y="-40" font-family="Helvetica,sans-Serif" font-size="10.00">::parse</text>
</a>
</g>
</g>
<!-- Node76&#45;&gt;Node77 -->
<g id="edge3" class="edge"><title>Node76&#45;&gt;Node77</title>
<path fill="none" stroke="midnightblue" d="M518.109,-48C530.434,-48 543.101,-48 554.941,-48"/>
<polygon fill="midnightblue" stroke="midnightblue" points="517.863,-44.5001 507.863,-48 517.863,-51.5001 517.863,-44.5001"/>
</g>
<!-- Node78&#45;&gt;Node75 -->
<g id="edge5" class="edge"><title>Node78&#45;&gt;Node75</title>
<path fill="none" stroke="midnightblue" d="M364.704,-75.1799C338.301,-69.617 311.089,-63.065 292.649,-57.5924"/>
<polygon fill="midnightblue" stroke="midnightblue" points="364.261,-78.6624 374.763,-77.2592 365.678,-71.8074 364.261,-78.6624"/>
</g>
<!-- Node79&#45;&gt;Node75 -->
<g id="edge7" class="edge"><title>Node79&#45;&gt;Node75</title>
<path fill="none" stroke="midnightblue" d="M413.898,-22.2846C392.982,-28.0274 364.876,-34.5142 339.055,-39.6995"/>
<polygon fill="midnightblue" stroke="midnightblue" points="414.89,-25.6414 423.547,-19.5341 412.971,-18.9096 414.89,-25.6414"/>
</g>
</g>
</svg>
