<?xml version="1.0" encoding="UTF-8" standalone="no"?>
<!DOCTYPE svg PUBLIC "-//W3C//DTD SVG 1.1//EN"
 "http://www.w3.org/Graphics/SVG/1.1/DTD/svg11.dtd">
<!-- Generated by graphviz version 2.38.0 (20140413.2041)
 -->
<!-- Title: MinecraftServerService::ServerProcessBuf::exited Pages: 1 -->
<svg width="754pt" height="127pt"
 viewBox="0.00 0.00 754.00 127.00" xmlns="http://www.w3.org/2000/svg" xmlns:xlink="http://www.w3.org/1999/xlink">
<g id="graph0" class="graph" transform="scale(1 1) rotate(0) translate(4 123)">
<title>MinecraftServerService::ServerProcessBuf::exited</title>
<!-- Node12 -->
<g id="node1" class="node"><title>Node12</title>
<polygon fill="#bfbfbf" stroke="black" points="0,-44.5 0,-74.5 134,-74.5 134,-44.5 0,-44.5"/>
<text text-anchor="start" x="8" y="-62.5" font-family="Helvetica,sans-Serif" font-size="10.00">MinecraftServerService</text>
<text text-anchor="middle" x="67" y="-51.5" font-family="Helvetica,sans-Serif" font-size="10.00">::ServerProcessBuf::exited</text>
</g>
<!-- Node13 -->
<g id="node2" class="node"><title>Node13</title>
<g id="a_node2"><a xlink:href="$class_minecraft_server_service_1_1_server_process_buf.html#af423d2111395bb308c6ac079e299ea40" xlink:title="MinecraftServerService\l::ServerProcessBuf::stopServer">
<polygon fill="none" stroke="black" points="170,-88.5 170,-118.5 325,-118.5 325,-88.5 170,-88.5"/>
<text text-anchor="start" x="178" y="-106.5" font-family="Helvetica,sans-Serif" font-size="10.00">MinecraftServerService</text>
<text text-anchor="middle" x="247.5" y="-95.5" font-family="Helvetica,sans-Serif" font-size="10.00">::ServerProcessBuf::stopServer</text>
</a>
</g>
</g>
<!-- Node12&#45;&gt;Node13 -->
<g id="edge1" class="edge"><title>Node12&#45;&gt;Node13</title>
<path fill="none" stroke="midnightblue" d="M138.935,-76.9855C154.359,-80.7873 170.544,-84.777 185.541,-88.4738"/>
<polygon fill="midnightblue" stroke="midnightblue" points="139.477,-73.5144 128.93,-74.5192 137.802,-80.3109 139.477,-73.5144"/>
</g>
<!-- Node15 -->
<g id="node4" class="node"><title>Node15</title>
<g id="a_node4"><a xlink:href="$class_minecraft_server_service_1_1_server_stream.html#af8529e03480497e12e171cf93709e757" xlink:title="MinecraftServerService\l::ServerStream::stopServer">
<polygon fill="none" stroke="black" points="390,-20.5 390,-50.5 526,-50.5 526,-20.5 390,-20.5"/>
<text text-anchor="start" x="398" y="-38.5" font-family="Helvetica,sans-Serif" font-size="10.00">MinecraftServerService</text>
<text text-anchor="middle" x="458" y="-27.5" font-family="Helvetica,sans-Serif" font-size="10.00">::ServerStream::stopServer</text>
</a>
</g>
</g>
<!-- Node12&#45;&gt;Node15 -->
<g id="edge3" class="edge"><title>Node12&#45;&gt;Node15</title>
<path fill="none" stroke="midnightblue" d="M144.718,-54.7668C216.179,-50.3578 321.667,-43.8496 389.867,-39.6419"/>
<polygon fill="midnightblue" stroke="midnightblue" points="144.195,-51.2923 134.429,-55.4015 144.626,-58.279 144.195,-51.2923"/>
</g>
<!-- Node17 -->
<g id="node6" class="node"><title>Node17</title>
<g id="a_node6"><a xlink:href="$class_minecraft_server_service_1_1_server_stream.html#a194212956c6eb928a2db1b25e70dc565" xlink:title="MinecraftServerService\l::ServerStream::sendCommand">
<polygon fill="none" stroke="black" points="170,-0.5 170,-30.5 325,-30.5 325,-0.5 170,-0.5"/>
<text text-anchor="start" x="178" y="-18.5" font-family="Helvetica,sans-Serif" font-size="10.00">MinecraftServerService</text>
<text text-anchor="middle" x="247.5" y="-7.5" font-family="Helvetica,sans-Serif" font-size="10.00">::ServerStream::sendCommand</text>
</a>
</g>
</g>
<!-- Node12&#45;&gt;Node17 -->
<g id="edge5" class="edge"><title>Node12&#45;&gt;Node17</title>
<path fill="none" stroke="midnightblue" d="M138.935,-42.0145C154.359,-38.2127 170.544,-34.223 185.541,-30.5262"/>
<polygon fill="midnightblue" stroke="midnightblue" points="137.802,-38.6891 128.93,-44.4808 139.477,-45.4856 137.802,-38.6891"/>
</g>
<!-- Node14 -->
<g id="node3" class="node"><title>Node14</title>
<g id="a_node3"><a xlink:href="$class_minecraft_server_service_1_1_server_process_buf.html#a468e3dbe9766a721b9fa88fed5b5a05c" xlink:title="MinecraftServerService\l::ServerProcessBuf::~ServerProcessBuf">
<polygon fill="none" stroke="black" points="361,-88.5 361,-118.5 555,-118.5 555,-88.5 361,-88.5"/>
<text text-anchor="start" x="369" y="-106.5" font-family="Helvetica,sans-Serif" font-size="10.00">MinecraftServerService</text>
<text text-anchor="middle" x="458" y="-95.5" font-family="Helvetica,sans-Serif" font-size="10.00">::ServerProcessBuf::~ServerProcessBuf</text>
</a>
</g>
</g>
<!-- Node13&#45;&gt;Node14 -->
<g id="edge2" class="edge"><title>Node13&#45;&gt;Node14</title>
<path fill="none" stroke="midnightblue" d="M335.426,-103.5C343.845,-103.5 352.419,-103.5 360.92,-103.5"/>
<polygon fill="midnightblue" stroke="midnightblue" points="335.249,-100 325.249,-103.5 335.249,-107 335.249,-100"/>
</g>
<!-- Node16 -->
<g id="node5" class="node"><title>Node16</title>
<g id="a_node5"><a xlink:href="$class_minecraft_server_service_1_1_server_stream.html#a8cb55e6e481c6d4338d446a7b92df3d3" xlink:title="MinecraftServerService\l::ServerStream::~ServerStream">
<polygon fill="none" stroke="black" points="591,-20.5 591,-50.5 746,-50.5 746,-20.5 591,-20.5"/>
<text text-anchor="start" x="599" y="-38.5" font-family="Helvetica,sans-Serif" font-size="10.00">MinecraftServerService</text>
<text text-anchor="middle" x="668.5" y="-27.5" font-family="Helvetica,sans-Serif" font-size="10.00">::ServerStream::~ServerStream</text>
</a>
</g>
</g>
<!-- Node15&#45;&gt;Node16 -->
<g id="edge4" class="edge"><title>Node15&#45;&gt;Node16</title>
<path fill="none" stroke="midnightblue" d="M536.417,-35.5C554.157,-35.5 573.008,-35.5 590.721,-35.5"/>
<polygon fill="midnightblue" stroke="midnightblue" points="536.118,-32.0001 526.118,-35.5 536.118,-39.0001 536.118,-32.0001"/>
</g>
<!-- Node17&#45;&gt;Node15 -->
<g id="edge6" class="edge"><title>Node17&#45;&gt;Node15</title>
<path fill="none" stroke="midnightblue" d="M335.26,-23.8223C353.44,-25.5662 372.35,-27.3801 389.694,-29.0438"/>
<polygon fill="midnightblue" stroke="midnightblue" points="335.538,-20.333 325.249,-22.8621 334.87,-27.301 335.538,-20.333"/>
</g>
</g>
</svg>
