<?xml version="1.0" encoding="UTF-8" standalone="no"?>
<!DOCTYPE svg PUBLIC "-//W3C//DTD SVG 1.1//EN"
 "http://www.w3.org/Graphics/SVG/1.1/DTD/svg11.dtd">
<!-- Generated by graphviz version 2.38.0 (20140413.2041)
 -->
<!-- Title: MinecraftServerService::GenericServer::reloadServer Pages: 1 -->
<svg width="354pt" height="137pt"
 viewBox="0.00 0.00 354.00 137.00" xmlns="http://www.w3.org/2000/svg" xmlns:xlink="http://www.w3.org/1999/xlink">
<g id="graph0" class="graph" transform="scale(1 1) rotate(0) translate(4 133)">
<title>MinecraftServerService::GenericServer::reloadServer</title>
<!-- Node18 -->
<g id="node1" class="node"><title>Node18</title>
<polygon fill="#bfbfbf" stroke="black" points="0,-49.5 0,-79.5 146,-79.5 146,-49.5 0,-49.5"/>
<text text-anchor="start" x="8" y="-67.5" font-family="Helvetica,sans-Serif" font-size="10.00">MinecraftServerService</text>
<text text-anchor="middle" x="73" y="-56.5" font-family="Helvetica,sans-Serif" font-size="10.00">::GenericServer::reloadServer</text>
</g>
<!-- Node19 -->
<g id="node2" class="node"><title>Node19</title>
<g id="a_node2"><a xlink:href="$class_minecraft_server_service_1_1_generic_server.html#acf3ea010924f6c82540482a73c222c38" xlink:title="MinecraftServerService\l::GenericServer::listOnlinePlayers">
<polygon fill="none" stroke="black" points="182,-98.5 182,-128.5 346,-128.5 346,-98.5 182,-98.5"/>
<text text-anchor="start" x="190" y="-116.5" font-family="Helvetica,sans-Serif" font-size="10.00">MinecraftServerService</text>
<text text-anchor="middle" x="264" y="-105.5" font-family="Helvetica,sans-Serif" font-size="10.00">::GenericServer::listOnlinePlayers</text>
</a>
</g>
</g>
<!-- Node18&#45;&gt;Node19 -->
<g id="edge1" class="edge"><title>Node18&#45;&gt;Node19</title>
<path fill="none" stroke="midnightblue" d="M131.991,-79.5346C152.037,-84.7318 174.674,-90.6006 195.421,-95.9796"/>
<polygon fill="midnightblue" stroke="midnightblue" points="194.561,-99.3721 205.119,-98.4938 196.317,-92.5961 194.561,-99.3721"/>
</g>
<!-- Node20 -->
<g id="node3" class="node"><title>Node20</title>
<g id="a_node3"><a xlink:href="$class_minecraft_server_service_1_1_generic_server.html#a42c34bc2e24173077e67c6b83a346b5d" xlink:title="MinecraftServerService\l::GenericServer::sendCommand">
<polygon fill="none" stroke="black" points="185.5,-49.5 185.5,-79.5 342.5,-79.5 342.5,-49.5 185.5,-49.5"/>
<text text-anchor="start" x="193.5" y="-67.5" font-family="Helvetica,sans-Serif" font-size="10.00">MinecraftServerService</text>
<text text-anchor="middle" x="264" y="-56.5" font-family="Helvetica,sans-Serif" font-size="10.00">::GenericServer::sendCommand</text>
</a>
</g>
</g>
<!-- Node18&#45;&gt;Node20 -->
<g id="edge2" class="edge"><title>Node18&#45;&gt;Node20</title>
<path fill="none" stroke="midnightblue" d="M146.262,-64.5C155.775,-64.5 165.607,-64.5 175.342,-64.5"/>
<polygon fill="midnightblue" stroke="midnightblue" points="175.434,-68.0001 185.434,-64.5 175.433,-61.0001 175.434,-68.0001"/>
</g>
<!-- Node21 -->
<g id="node4" class="node"><title>Node21</title>
<g id="a_node4"><a xlink:href="$class_minecraft_server_service_1_1_generic_server.html#a199a74d244fba2c026a0981ec49e06e4" xlink:title="MinecraftServerService\l::GenericServer::logger">
<polygon fill="none" stroke="black" points="204.5,-0.5 204.5,-30.5 323.5,-30.5 323.5,-0.5 204.5,-0.5"/>
<text text-anchor="start" x="212.5" y="-18.5" font-family="Helvetica,sans-Serif" font-size="10.00">MinecraftServerService</text>
<text text-anchor="middle" x="264" y="-7.5" font-family="Helvetica,sans-Serif" font-size="10.00">::GenericServer::logger</text>
</a>
</g>
</g>
<!-- Node18&#45;&gt;Node21 -->
<g id="edge3" class="edge"><title>Node18&#45;&gt;Node21</title>
<path fill="none" stroke="midnightblue" d="M131.991,-49.4654C152.037,-44.2682 174.674,-38.3994 195.421,-33.0204"/>
<polygon fill="midnightblue" stroke="midnightblue" points="196.317,-36.4039 205.119,-30.5062 194.561,-29.6279 196.317,-36.4039"/>
</g>
</g>
</svg>
