<?xml version="1.0" encoding="UTF-8" standalone="no"?>
<!DOCTYPE svg PUBLIC "-//W3C//DTD SVG 1.1//EN"
 "http://www.w3.org/Graphics/SVG/1.1/DTD/svg11.dtd">
<!-- Generated by graphviz version 2.38.0 (20140413.2041)
 -->
<!-- Title: MinecraftServerService::ServerStream::sendCommand Pages: 1 -->
<svg width="526pt" height="39pt"
 viewBox="0.00 0.00 526.00 39.00" xmlns="http://www.w3.org/2000/svg" xmlns:xlink="http://www.w3.org/1999/xlink">
<g id="graph0" class="graph" transform="scale(1 1) rotate(0) translate(4 35)">
<title>MinecraftServerService::ServerStream::sendCommand</title>
<!-- Node11 -->
<g id="node1" class="node"><title>Node11</title>
<polygon fill="#bfbfbf" stroke="black" points="0,-0.5 0,-30.5 155,-30.5 155,-0.5 0,-0.5"/>
<text text-anchor="start" x="8" y="-18.5" font-family="Helvetica,sans-Serif" font-size="10.00">MinecraftServerService</text>
<text text-anchor="middle" x="77.5" y="-7.5" font-family="Helvetica,sans-Serif" font-size="10.00">::ServerStream::sendCommand</text>
</g>
<!-- Node12 -->
<g id="node2" class="node"><title>Node12</title>
<g id="a_node2"><a xlink:href="$class_minecraft_server_service_1_1_server_stream.html#af8529e03480497e12e171cf93709e757" xlink:title="MinecraftServerService\l::ServerStream::stopServer">
<polygon fill="none" stroke="black" points="191,-0.5 191,-30.5 327,-30.5 327,-0.5 191,-0.5"/>
<text text-anchor="start" x="199" y="-18.5" font-family="Helvetica,sans-Serif" font-size="10.00">MinecraftServerService</text>
<text text-anchor="middle" x="259" y="-7.5" font-family="Helvetica,sans-Serif" font-size="10.00">::ServerStream::stopServer</text>
</a>
</g>
</g>
<!-- Node11&#45;&gt;Node12 -->
<g id="edge1" class="edge"><title>Node11&#45;&gt;Node12</title>
<path fill="none" stroke="midnightblue" d="M165.25,-15.5C173.889,-15.5 182.566,-15.5 190.958,-15.5"/>
<polygon fill="midnightblue" stroke="midnightblue" points="165.145,-12.0001 155.145,-15.5 165.145,-19.0001 165.145,-12.0001"/>
</g>
<!-- Node13 -->
<g id="node3" class="node"><title>Node13</title>
<g id="a_node3"><a xlink:href="$class_minecraft_server_service_1_1_server_stream.html#a8cb55e6e481c6d4338d446a7b92df3d3" xlink:title="MinecraftServerService\l::ServerStream::~ServerStream">
<polygon fill="none" stroke="black" points="363,-0.5 363,-30.5 518,-30.5 518,-0.5 363,-0.5"/>
<text text-anchor="start" x="371" y="-18.5" font-family="Helvetica,sans-Serif" font-size="10.00">MinecraftServerService</text>
<text text-anchor="middle" x="440.5" y="-7.5" font-family="Helvetica,sans-Serif" font-size="10.00">::ServerStream::~ServerStream</text>
</a>
</g>
</g>
<!-- Node12&#45;&gt;Node13 -->
<g id="edge2" class="edge"><title>Node12&#45;&gt;Node13</title>
<path fill="none" stroke="midnightblue" d="M337.314,-15.5C345.77,-15.5 354.376,-15.5 362.824,-15.5"/>
<polygon fill="midnightblue" stroke="midnightblue" points="337.094,-12.0001 327.094,-15.5 337.094,-19.0001 337.094,-12.0001"/>
</g>
</g>
</svg>
