<?xml version="1.0" encoding="UTF-8" standalone="no"?>
<!DOCTYPE svg PUBLIC "-//W3C//DTD SVG 1.1//EN"
 "http://www.w3.org/Graphics/SVG/1.1/DTD/svg11.dtd">
<!-- Generated by graphviz version 2.38.0 (20140413.2041)
 -->
<!-- Title: Json::OurReader::readComment Pages: 1 -->
<svg width="704pt" height="185pt"
 viewBox="0.00 0.00 704.00 185.06" xmlns="http://www.w3.org/2000/svg" xmlns:xlink="http://www.w3.org/1999/xlink">
<g id="graph0" class="graph" transform="scale(1 1) rotate(0) translate(4 181.062)">
<title>Json::OurReader::readComment</title>
<!-- Node215 -->
<g id="node1" class="node"><title>Node215</title>
<polygon fill="#bfbfbf" stroke="black" points="0,-82.5 0,-101.5 158,-101.5 158,-82.5 0,-82.5"/>
<text text-anchor="middle" x="79" y="-89.5" font-family="Helvetica,sans-Serif" font-size="10.00">Json::OurReader::readComment</text>
</g>
<!-- Node216 -->
<g id="node2" class="node"><title>Node216</title>
<g id="a_node2"><a xlink:href="$class_json_1_1_our_reader.html#a298285d035fdbc554caae09d9f0a5859" xlink:title="Json::OurReader::getNextChar">
<polygon fill="none" stroke="black" points="385,-131.5 385,-150.5 537,-150.5 537,-131.5 385,-131.5"/>
<text text-anchor="middle" x="461" y="-138.5" font-family="Helvetica,sans-Serif" font-size="10.00">Json::OurReader::getNextChar</text>
</a>
</g>
</g>
<!-- Node215&#45;&gt;Node216 -->
<g id="edge1" class="edge"><title>Node215&#45;&gt;Node216</title>
<path fill="none" stroke="midnightblue" d="M90.2531,-101.681C109.039,-118.674 151.013,-153.271 194,-166 272.388,-189.211 368.923,-168.612 421.462,-153.525"/>
<polygon fill="midnightblue" stroke="midnightblue" points="422.768,-156.788 431.365,-150.595 420.783,-150.076 422.768,-156.788"/>
</g>
<!-- Node217 -->
<g id="node3" class="node"><title>Node217</title>
<g id="a_node3"><a xlink:href="$class_json_1_1_our_reader.html#aba784b125baa1b62387e767b791f2f89" xlink:title="Json::OurReader::readCStyle\lComment">
<polygon fill="none" stroke="black" points="198.5,-126 198.5,-156 344.5,-156 344.5,-126 198.5,-126"/>
<text text-anchor="start" x="206.5" y="-144" font-family="Helvetica,sans-Serif" font-size="10.00">Json::OurReader::readCStyle</text>
<text text-anchor="middle" x="271.5" y="-133" font-family="Helvetica,sans-Serif" font-size="10.00">Comment</text>
</a>
</g>
</g>
<!-- Node215&#45;&gt;Node217 -->
<g id="edge2" class="edge"><title>Node215&#45;&gt;Node217</title>
<path fill="none" stroke="midnightblue" d="M117.183,-101.564C141.3,-107.768 173.45,-116.037 202.079,-123.401"/>
<polygon fill="midnightblue" stroke="midnightblue" points="201.483,-126.862 212.04,-125.963 203.227,-120.082 201.483,-126.862"/>
</g>
<!-- Node218 -->
<g id="node4" class="node"><title>Node218</title>
<g id="a_node4"><a xlink:href="$class_json_1_1_our_reader.html#ae3de80671f0f997053e1c1c8a47a45c5" xlink:title="Json::OurReader::readCpp\lStyleComment">
<polygon fill="none" stroke="black" points="204.5,-77 204.5,-107 338.5,-107 338.5,-77 204.5,-77"/>
<text text-anchor="start" x="212.5" y="-95" font-family="Helvetica,sans-Serif" font-size="10.00">Json::OurReader::readCpp</text>
<text text-anchor="middle" x="271.5" y="-84" font-family="Helvetica,sans-Serif" font-size="10.00">StyleComment</text>
</a>
</g>
</g>
<!-- Node215&#45;&gt;Node218 -->
<g id="edge4" class="edge"><title>Node215&#45;&gt;Node218</title>
<path fill="none" stroke="midnightblue" d="M158.033,-92C169.954,-92 182.247,-92 194.132,-92"/>
<polygon fill="midnightblue" stroke="midnightblue" points="194.451,-95.5001 204.451,-92 194.451,-88.5001 194.451,-95.5001"/>
</g>
<!-- Node219 -->
<g id="node5" class="node"><title>Node219</title>
<g id="a_node5"><a xlink:href="$namespace_json.html#a4d6ab0f651348832e5cc49b577a854d2" xlink:title="Json::containsNewLine">
<polygon fill="none" stroke="black" points="212,-38.5 212,-57.5 331,-57.5 331,-38.5 212,-38.5"/>
<text text-anchor="middle" x="271.5" y="-45.5" font-family="Helvetica,sans-Serif" font-size="10.00">Json::containsNewLine</text>
</a>
</g>
</g>
<!-- Node215&#45;&gt;Node219 -->
<g id="edge6" class="edge"><title>Node215&#45;&gt;Node219</title>
<path fill="none" stroke="midnightblue" d="M121.336,-82.4527C150.044,-75.8219 188.494,-66.9409 219.167,-59.8565"/>
<polygon fill="midnightblue" stroke="midnightblue" points="220.289,-63.1895 229.245,-57.5287 218.714,-56.369 220.289,-63.1895"/>
</g>
<!-- Node221 -->
<g id="node7" class="node"><title>Node221</title>
<g id="a_node7"><a xlink:href="$class_json_1_1_our_reader.html#ad7318c37469a9106069a236fb4b10e1f" xlink:title="Json::OurReader::addComment">
<polygon fill="none" stroke="black" points="194,-0.5 194,-19.5 349,-19.5 349,-0.5 194,-0.5"/>
<text text-anchor="middle" x="271.5" y="-7.5" font-family="Helvetica,sans-Serif" font-size="10.00">Json::OurReader::addComment</text>
</a>
</g>
</g>
<!-- Node215&#45;&gt;Node221 -->
<g id="edge8" class="edge"><title>Node215&#45;&gt;Node221</title>
<path fill="none" stroke="midnightblue" d="M94.5106,-82.345C115.6,-68.7004 156.323,-43.7936 194,-29 200.333,-26.5133 207.092,-24.2758 213.872,-22.2846"/>
<polygon fill="midnightblue" stroke="midnightblue" points="215.07,-25.5846 223.774,-19.543 213.202,-18.8384 215.07,-25.5846"/>
</g>
<!-- Node217&#45;&gt;Node216 -->
<g id="edge3" class="edge"><title>Node217&#45;&gt;Node216</title>
<path fill="none" stroke="midnightblue" d="M344.724,-141C354.448,-141 364.499,-141 374.426,-141"/>
<polygon fill="midnightblue" stroke="midnightblue" points="374.708,-144.5 384.708,-141 374.708,-137.5 374.708,-144.5"/>
</g>
<!-- Node218&#45;&gt;Node216 -->
<g id="edge5" class="edge"><title>Node218&#45;&gt;Node216</title>
<path fill="none" stroke="midnightblue" d="M330.03,-107.035C356.925,-114.063 388.519,-122.32 413.823,-128.932"/>
<polygon fill="midnightblue" stroke="midnightblue" points="412.981,-132.33 423.541,-131.472 414.751,-125.557 412.981,-132.33"/>
</g>
<!-- Node220 -->
<g id="node6" class="node"><title>Node220</title>
<g id="a_node6"><a xlink:href="$namespace_json.html#a97f039a107b3f6cf1c3edee50e978f76" xlink:title="Json::throwRuntimeError">
<polygon fill="none" stroke="black" points="398.5,-38.5 398.5,-57.5 523.5,-57.5 523.5,-38.5 398.5,-38.5"/>
<text text-anchor="middle" x="461" y="-45.5" font-family="Helvetica,sans-Serif" font-size="10.00">Json::throwRuntimeError</text>
</a>
</g>
</g>
<!-- Node219&#45;&gt;Node220 -->
<g id="edge7" class="edge"><title>Node219&#45;&gt;Node220</title>
<path fill="none" stroke="midnightblue" d="M331.055,-48C349.18,-48 369.358,-48 388.27,-48"/>
<polygon fill="midnightblue" stroke="midnightblue" points="388.324,-51.5001 398.324,-48 388.324,-44.5001 388.324,-51.5001"/>
</g>
<!-- Node222 -->
<g id="node8" class="node"><title>Node222</title>
<g id="a_node8"><a xlink:href="$namespace_json.html#a2e6b8616041876128cbef54b8c75da62" xlink:title="Json::normalizeEOL">
<polygon fill="none" stroke="black" points="408.5,-0.5 408.5,-19.5 513.5,-19.5 513.5,-0.5 408.5,-0.5"/>
<text text-anchor="middle" x="461" y="-7.5" font-family="Helvetica,sans-Serif" font-size="10.00">Json::normalizeEOL</text>
</a>
</g>
</g>
<!-- Node221&#45;&gt;Node222 -->
<g id="edge9" class="edge"><title>Node221&#45;&gt;Node222</title>
<path fill="none" stroke="midnightblue" d="M349.034,-10C365.398,-10 382.487,-10 398.212,-10"/>
<polygon fill="midnightblue" stroke="midnightblue" points="398.328,-13.5001 408.328,-10 398.328,-6.5001 398.328,-13.5001"/>
</g>
<!-- Node223 -->
<g id="node9" class="node"><title>Node223</title>
<g id="a_node9"><a xlink:href="$namespace_json.html#adf0456e397a18cd7218a7b51dfc13c73" xlink:title="Converts a unicode code&#45;point to UTF&#45;8. ">
<polygon fill="none" stroke="black" points="573,-0.5 573,-19.5 696,-19.5 696,-0.5 573,-0.5"/>
<text text-anchor="middle" x="634.5" y="-7.5" font-family="Helvetica,sans-Serif" font-size="10.00">Json::codePointToUTF8</text>
</a>
</g>
</g>
<!-- Node222&#45;&gt;Node223 -->
<g id="edge10" class="edge"><title>Node222&#45;&gt;Node223</title>
<path fill="none" stroke="midnightblue" d="M513.921,-10C529.27,-10 546.341,-10 562.668,-10"/>
<polygon fill="midnightblue" stroke="midnightblue" points="562.715,-13.5001 572.715,-10 562.715,-6.5001 562.715,-13.5001"/>
</g>
</g>
</svg>
