<?xml version="1.0" encoding="UTF-8" standalone="no"?>
<!DOCTYPE svg PUBLIC "-//W3C//DTD SVG 1.1//EN"
 "http://www.w3.org/Graphics/SVG/1.1/DTD/svg11.dtd">
<!-- Generated by graphviz version 2.38.0 (20140413.2041)
 -->
<!-- Title: MinecraftServerService::Server Pages: 1 -->
<svg width="220pt" height="252pt"
 viewBox="0.00 0.00 219.50 252.00" xmlns="http://www.w3.org/2000/svg" xmlns:xlink="http://www.w3.org/1999/xlink">
<g id="graph0" class="graph" transform="scale(1 1) rotate(0) translate(4 248)">
<title>MinecraftServerService::Server</title>
<!-- Node1 -->
<g id="node1" class="node"><title>Node1</title>
<polygon fill="#bfbfbf" stroke="black" points="14.5,-0.5 14.5,-30.5 133.5,-30.5 133.5,-0.5 14.5,-0.5"/>
<text text-anchor="start" x="22.5" y="-18.5" font-family="Helvetica,sans-Serif" font-size="10.00">MinecraftServerService</text>
<text text-anchor="middle" x="74" y="-7.5" font-family="Helvetica,sans-Serif" font-size="10.00">::Server</text>
</g>
<!-- Node2 -->
<g id="node2" class="node"><title>Node2</title>
<g id="a_node2"><a xlink:href="$class_minecraft_server_service_1_1_server_stream.html" xlink:title="MinecraftServerService\l::ServerStream">
<polygon fill="none" stroke="black" points="14.5,-78.5 14.5,-108.5 133.5,-108.5 133.5,-78.5 14.5,-78.5"/>
<text text-anchor="start" x="22.5" y="-96.5" font-family="Helvetica,sans-Serif" font-size="10.00">MinecraftServerService</text>
<text text-anchor="middle" x="74" y="-85.5" font-family="Helvetica,sans-Serif" font-size="10.00">::ServerStream</text>
</a>
</g>
</g>
<!-- Node2&#45;&gt;Node1 -->
<g id="edge1" class="edge"><title>Node2&#45;&gt;Node1</title>
<path fill="none" stroke="#9a32cd" stroke-dasharray="5,2" d="M74,-68.0898C74,-55.7565 74,-41.2237 74,-30.7309"/>
<polygon fill="#9a32cd" stroke="#9a32cd" points="70.5001,-68.2049 74,-78.205 77.5001,-68.205 70.5001,-68.2049"/>
<text text-anchor="middle" x="107.5" y="-52" font-family="Helvetica,sans-Serif" font-size="10.00"> serverProcess</text>
</g>
<!-- Node3 -->
<g id="node3" class="node"><title>Node3</title>
<polygon fill="none" stroke="#bfbfbf" points="0,-162 0,-181 74,-181 74,-162 0,-162"/>
<text text-anchor="middle" x="37" y="-169" font-family="Helvetica,sans-Serif" font-size="10.00">std::iostream</text>
</g>
<!-- Node3&#45;&gt;Node2 -->
<g id="edge2" class="edge"><title>Node3&#45;&gt;Node2</title>
<path fill="none" stroke="midnightblue" d="M45.7247,-152.579C52.2798,-139.114 61.1321,-120.931 67.1746,-108.52"/>
<polygon fill="midnightblue" stroke="midnightblue" points="42.4748,-151.259 41.2444,-161.782 48.7686,-154.323 42.4748,-151.259"/>
</g>
<!-- Node4 -->
<g id="node4" class="node"><title>Node4</title>
<g id="a_node4"><a xlink:href="$class_minecraft_server_service_1_1_server_process_buf.html" xlink:title="MinecraftServerService\l::ServerProcessBuf">
<polygon fill="none" stroke="black" points="92.5,-156.5 92.5,-186.5 211.5,-186.5 211.5,-156.5 92.5,-156.5"/>
<text text-anchor="start" x="100.5" y="-174.5" font-family="Helvetica,sans-Serif" font-size="10.00">MinecraftServerService</text>
<text text-anchor="middle" x="152" y="-163.5" font-family="Helvetica,sans-Serif" font-size="10.00">::ServerProcessBuf</text>
</a>
</g>
</g>
<!-- Node4&#45;&gt;Node2 -->
<g id="edge3" class="edge"><title>Node4&#45;&gt;Node2</title>
<path fill="none" stroke="#9a32cd" stroke-dasharray="5,2" d="M129.968,-149.033C116.727,-136.132 100.244,-120.072 88.6054,-108.731"/>
<polygon fill="#9a32cd" stroke="#9a32cd" points="127.724,-151.733 137.329,-156.205 132.609,-146.719 127.724,-151.733"/>
<text text-anchor="middle" x="150.5" y="-130" font-family="Helvetica,sans-Serif" font-size="10.00"> serverProcess</text>
</g>
<!-- Node5 -->
<g id="node5" class="node"><title>Node5</title>
<polygon fill="none" stroke="#bfbfbf" points="112,-224.5 112,-243.5 192,-243.5 192,-224.5 112,-224.5"/>
<text text-anchor="middle" x="152" y="-231.5" font-family="Helvetica,sans-Serif" font-size="10.00">std::streambuf</text>
</g>
<!-- Node5&#45;&gt;Node4 -->
<g id="edge4" class="edge"><title>Node5&#45;&gt;Node4</title>
<path fill="none" stroke="midnightblue" d="M152,-214.215C152,-205.356 152,-194.958 152,-186.759"/>
<polygon fill="midnightblue" stroke="midnightblue" points="148.5,-214.332 152,-224.332 155.5,-214.332 148.5,-214.332"/>
</g>
</g>
</svg>
