<?xml version="1.0" encoding="UTF-8" standalone="no"?>
<!DOCTYPE svg PUBLIC "-//W3C//DTD SVG 1.1//EN"
 "http://www.w3.org/Graphics/SVG/1.1/DTD/svg11.dtd">
<!-- Generated by graphviz version 2.38.0 (20140413.2041)
 -->
<!-- Title: ServerStream Pages: 1 -->
<svg width="196pt" height="152pt"
 viewBox="0.00 0.00 196.00 152.00" xmlns="http://www.w3.org/2000/svg" xmlns:xlink="http://www.w3.org/1999/xlink">
<g id="graph0" class="graph" transform="scale(1 1) rotate(0) translate(4 148)">
<title>ServerStream</title>
<!-- Node2 -->
<g id="node1" class="node"><title>Node2</title>
<polygon fill="#bfbfbf" stroke="black" points="32.5,-0.5 32.5,-19.5 109.5,-19.5 109.5,-0.5 32.5,-0.5"/>
<text text-anchor="middle" x="71" y="-7.5" font-family="Helvetica,sans-Serif" font-size="10.00">ServerStream</text>
</g>
<!-- Node3 -->
<g id="node2" class="node"><title>Node3</title>
<polygon fill="none" stroke="#bfbfbf" points="0,-67.5 0,-86.5 74,-86.5 74,-67.5 0,-67.5"/>
<text text-anchor="middle" x="37" y="-74.5" font-family="Helvetica,sans-Serif" font-size="10.00">std::iostream</text>
</g>
<!-- Node3&#45;&gt;Node2 -->
<g id="edge1" class="edge"><title>Node3&#45;&gt;Node2</title>
<path fill="none" stroke="midnightblue" d="M46.3299,-58.1635C52.8868,-45.6281 61.37,-29.4104 66.4873,-19.6273"/>
<polygon fill="midnightblue" stroke="midnightblue" points="43.1191,-56.7506 41.5854,-67.2338 49.3218,-59.9951 43.1191,-56.7506"/>
</g>
<!-- Node4 -->
<g id="node3" class="node"><title>Node4</title>
<g id="a_node3"><a xlink:href="$class_server_process_buf.html" xlink:title="ServerProcessBuf">
<polygon fill="none" stroke="black" points="92,-67.5 92,-86.5 188,-86.5 188,-67.5 92,-67.5"/>
<text text-anchor="middle" x="140" y="-74.5" font-family="Helvetica,sans-Serif" font-size="10.00">ServerProcessBuf</text>
</a>
</g>
</g>
<!-- Node4&#45;&gt;Node2 -->
<g id="edge2" class="edge"><title>Node4&#45;&gt;Node2</title>
<path fill="none" stroke="#9a32cd" stroke-dasharray="5,2" d="M123.394,-60.3564C109.829,-47.5777 91.1602,-29.9915 80.1582,-19.6273"/>
<polygon fill="#9a32cd" stroke="#9a32cd" points="121.015,-62.9245 130.694,-67.2338 125.815,-57.8292 121.015,-62.9245"/>
<text text-anchor="middle" x="142.5" y="-41" font-family="Helvetica,sans-Serif" font-size="10.00"> serverProcess</text>
</g>
<!-- Node5 -->
<g id="node4" class="node"><title>Node5</title>
<polygon fill="none" stroke="#bfbfbf" points="100,-124.5 100,-143.5 180,-143.5 180,-124.5 100,-124.5"/>
<text text-anchor="middle" x="140" y="-131.5" font-family="Helvetica,sans-Serif" font-size="10.00">std::streambuf</text>
</g>
<!-- Node5&#45;&gt;Node4 -->
<g id="edge3" class="edge"><title>Node5&#45;&gt;Node4</title>
<path fill="none" stroke="midnightblue" d="M140,-114.117C140,-104.817 140,-94.0557 140,-86.7149"/>
<polygon fill="midnightblue" stroke="midnightblue" points="136.5,-114.406 140,-124.406 143.5,-114.406 136.5,-114.406"/>
</g>
</g>
</svg>
