<?xml version="1.0" encoding="UTF-8" standalone="no"?>
<!DOCTYPE svg PUBLIC "-//W3C//DTD SVG 1.1//EN"
 "http://www.w3.org/Graphics/SVG/1.1/DTD/svg11.dtd">
<!-- Generated by graphviz version 2.38.0 (20140413.2041)
 -->
<!-- Title: Json::OurReader::decodeUnicodeCodePoint Pages: 1 -->
<svg width="542pt" height="61pt"
 viewBox="0.00 0.00 542.00 61.00" xmlns="http://www.w3.org/2000/svg" xmlns:xlink="http://www.w3.org/1999/xlink">
<g id="graph0" class="graph" transform="scale(1 1) rotate(0) translate(4 57)">
<title>Json::OurReader::decodeUnicodeCodePoint</title>
<!-- Node98 -->
<g id="node1" class="node"><title>Node98</title>
<polygon fill="#bfbfbf" stroke="black" points="0,-0.5 0,-30.5 164,-30.5 164,-0.5 0,-0.5"/>
<text text-anchor="start" x="8" y="-18.5" font-family="Helvetica,sans-Serif" font-size="10.00">Json::OurReader::decodeUnicode</text>
<text text-anchor="middle" x="82" y="-7.5" font-family="Helvetica,sans-Serif" font-size="10.00">CodePoint</text>
</g>
<!-- Node99 -->
<g id="node2" class="node"><title>Node99</title>
<g id="a_node2"><a xlink:href="$class_json_1_1_our_reader.html#adb39be814cc6076b91a0919bdd5b24b0" xlink:title="Json::OurReader::decodeUnicode\lEscapeSequence">
<polygon fill="none" stroke="black" points="200,-22.5 200,-52.5 364,-52.5 364,-22.5 200,-22.5"/>
<text text-anchor="start" x="208" y="-40.5" font-family="Helvetica,sans-Serif" font-size="10.00">Json::OurReader::decodeUnicode</text>
<text text-anchor="middle" x="282" y="-29.5" font-family="Helvetica,sans-Serif" font-size="10.00">EscapeSequence</text>
</a>
</g>
</g>
<!-- Node98&#45;&gt;Node99 -->
<g id="edge1" class="edge"><title>Node98&#45;&gt;Node99</title>
<path fill="none" stroke="midnightblue" d="M164.105,-24.5117C172.549,-25.4499 181.172,-26.4081 189.719,-27.3576"/>
<polygon fill="midnightblue" stroke="midnightblue" points="189.375,-30.8409 199.7,-28.4667 190.148,-23.8837 189.375,-30.8409"/>
</g>
<!-- Node100 -->
<g id="node3" class="node"><title>Node100</title>
<g id="a_node3"><a xlink:href="$class_json_1_1_our_reader.html#a5a48b71c1c16fa671814c8338e452bc0" xlink:title="Json::OurReader::addError">
<polygon fill="none" stroke="black" points="400,-6 400,-25 534,-25 534,-6 400,-6"/>
<text text-anchor="middle" x="467" y="-13" font-family="Helvetica,sans-Serif" font-size="10.00">Json::OurReader::addError</text>
</a>
</g>
</g>
<!-- Node98&#45;&gt;Node100 -->
<g id="edge3" class="edge"><title>Node98&#45;&gt;Node100</title>
<path fill="none" stroke="midnightblue" d="M164.191,-13.9327C176.197,-13.753 188.421,-13.599 200,-13.5 272.886,-12.8771 291.115,-12.7855 364,-13.5 372.338,-13.5817 381.059,-13.701 389.74,-13.8414"/>
<polygon fill="midnightblue" stroke="midnightblue" points="389.828,-17.3433 399.886,-14.0147 389.948,-10.3443 389.828,-17.3433"/>
</g>
<!-- Node99&#45;&gt;Node100 -->
<g id="edge2" class="edge"><title>Node99&#45;&gt;Node100</title>
<path fill="none" stroke="midnightblue" d="M364.066,-27.7544C372.562,-26.733 381.179,-25.697 389.62,-24.6822"/>
<polygon fill="midnightblue" stroke="midnightblue" points="390.298,-28.126 399.809,-23.4574 389.463,-21.1761 390.298,-28.126"/>
</g>
</g>
</svg>
