<?xml version="1.0" encoding="UTF-8" standalone="no"?>
<!DOCTYPE svg PUBLIC "-//W3C//DTD SVG 1.1//EN"
 "http://www.w3.org/Graphics/SVG/1.1/DTD/svg11.dtd">
<!-- Generated by graphviz version 2.38.0 (20140413.2041)
 -->
<!-- Title: MinecraftServerService::BukkitServer::reloadServer Pages: 1 -->
<svg width="342pt" height="137pt"
 viewBox="0.00 0.00 342.00 137.00" xmlns="http://www.w3.org/2000/svg" xmlns:xlink="http://www.w3.org/1999/xlink">
<g id="graph0" class="graph" transform="scale(1 1) rotate(0) translate(4 133)">
<title>MinecraftServerService::BukkitServer::reloadServer</title>
<!-- Node18 -->
<g id="node1" class="node"><title>Node18</title>
<polygon fill="#bfbfbf" stroke="black" points="0,-49.5 0,-79.5 140,-79.5 140,-49.5 0,-49.5"/>
<text text-anchor="start" x="8" y="-67.5" font-family="Helvetica,sans-Serif" font-size="10.00">MinecraftServerService</text>
<text text-anchor="middle" x="70" y="-56.5" font-family="Helvetica,sans-Serif" font-size="10.00">::BukkitServer::reloadServer</text>
</g>
<!-- Node19 -->
<g id="node2" class="node"><title>Node19</title>
<g id="a_node2"><a xlink:href="$class_minecraft_server_service_1_1_bukkit_server.html#a844cd7da677288fc68ed835020f3fe2a" xlink:title="MinecraftServerService\l::BukkitServer::listOnlinePlayers">
<polygon fill="none" stroke="black" points="176,-98.5 176,-128.5 334,-128.5 334,-98.5 176,-98.5"/>
<text text-anchor="start" x="184" y="-116.5" font-family="Helvetica,sans-Serif" font-size="10.00">MinecraftServerService</text>
<text text-anchor="middle" x="255" y="-105.5" font-family="Helvetica,sans-Serif" font-size="10.00">::BukkitServer::listOnlinePlayers</text>
</a>
</g>
</g>
<!-- Node18&#45;&gt;Node19 -->
<g id="edge1" class="edge"><title>Node18&#45;&gt;Node19</title>
<path fill="none" stroke="midnightblue" d="M127.399,-79.6014C146.535,-84.7253 168.086,-90.4956 187.908,-95.8032"/>
<polygon fill="midnightblue" stroke="midnightblue" points="187.222,-99.2428 197.787,-98.4484 189.033,-92.481 187.222,-99.2428"/>
</g>
<!-- Node20 -->
<g id="node3" class="node"><title>Node20</title>
<g id="a_node3"><a xlink:href="$class_minecraft_server_service_1_1_bukkit_server.html#a177fd65626604d0cdf2b105454bd1d18" xlink:title="MinecraftServerService\l::BukkitServer::sendCommand">
<polygon fill="none" stroke="black" points="179.5,-49.5 179.5,-79.5 330.5,-79.5 330.5,-49.5 179.5,-49.5"/>
<text text-anchor="start" x="187.5" y="-67.5" font-family="Helvetica,sans-Serif" font-size="10.00">MinecraftServerService</text>
<text text-anchor="middle" x="255" y="-56.5" font-family="Helvetica,sans-Serif" font-size="10.00">::BukkitServer::sendCommand</text>
</a>
</g>
</g>
<!-- Node18&#45;&gt;Node20 -->
<g id="edge2" class="edge"><title>Node18&#45;&gt;Node20</title>
<path fill="none" stroke="midnightblue" d="M140.184,-64.5C149.65,-64.5 159.454,-64.5 169.158,-64.5"/>
<polygon fill="midnightblue" stroke="midnightblue" points="169.216,-68.0001 179.216,-64.5 169.216,-61.0001 169.216,-68.0001"/>
</g>
<!-- Node21 -->
<g id="node4" class="node"><title>Node21</title>
<g id="a_node4"><a xlink:href="$class_minecraft_server_service_1_1_bukkit_server.html#ac0e659931423f6e6330b650636f1061d" xlink:title="MinecraftServerService\l::BukkitServer::logger">
<polygon fill="none" stroke="black" points="195.5,-0.5 195.5,-30.5 314.5,-30.5 314.5,-0.5 195.5,-0.5"/>
<text text-anchor="start" x="203.5" y="-18.5" font-family="Helvetica,sans-Serif" font-size="10.00">MinecraftServerService</text>
<text text-anchor="middle" x="255" y="-7.5" font-family="Helvetica,sans-Serif" font-size="10.00">::BukkitServer::logger</text>
</a>
</g>
</g>
<!-- Node18&#45;&gt;Node21 -->
<g id="edge3" class="edge"><title>Node18&#45;&gt;Node21</title>
<path fill="none" stroke="midnightblue" d="M127.399,-49.3986C146.535,-44.2747 168.086,-38.5044 187.908,-33.1968"/>
<polygon fill="midnightblue" stroke="midnightblue" points="189.033,-36.519 197.787,-30.5516 187.222,-29.7572 189.033,-36.519"/>
</g>
</g>
</svg>
