<?xml version="1.0" encoding="UTF-8" standalone="no"?>
<!DOCTYPE svg PUBLIC "-//W3C//DTD SVG 1.1//EN"
 "http://www.w3.org/Graphics/SVG/1.1/DTD/svg11.dtd">
<!-- Generated by graphviz version 2.38.0 (20140413.2041)
 -->
<!-- Title: Json::OurReader::parse Pages: 1 -->
<svg width="1779pt" height="550pt"
 viewBox="0.00 0.00 1779.00 549.92" xmlns="http://www.w3.org/2000/svg" xmlns:xlink="http://www.w3.org/1999/xlink">
<g id="graph0" class="graph" transform="scale(1 1) rotate(0) translate(4 545.923)">
<title>Json::OurReader::parse</title>
<!-- Node153 -->
<g id="node1" class="node"><title>Node153</title>
<polygon fill="#bfbfbf" stroke="black" points="0,-501.249 0,-520.249 121,-520.249 121,-501.249 0,-501.249"/>
<text text-anchor="middle" x="60.5" y="-508.249" font-family="Helvetica,sans-Serif" font-size="10.00">Json::OurReader::parse</text>
</g>
<!-- Node154 -->
<g id="node2" class="node"><title>Node154</title>
<g id="a_node2"><a xlink:href="$class_json_1_1_our_reader.html#a1765d9670d191c89a57a22ea5591d35f" xlink:title="Json::OurReader::readValue">
<polygon fill="none" stroke="black" points="157,-210.249 157,-229.249 297,-229.249 297,-210.249 157,-210.249"/>
<text text-anchor="middle" x="227" y="-217.249" font-family="Helvetica,sans-Serif" font-size="10.00">Json::OurReader::readValue</text>
</a>
</g>
</g>
<!-- Node153&#45;&gt;Node154 -->
<g id="edge1" class="edge"><title>Node153&#45;&gt;Node154</title>
<path fill="none" stroke="midnightblue" d="M66.9732,-501.067C90.5865,-459.295 183.967,-294.105 215.52,-238.288"/>
<polygon fill="midnightblue" stroke="midnightblue" points="218.632,-239.895 220.506,-229.467 212.538,-236.45 218.632,-239.895"/>
</g>
<!-- Node156 -->
<g id="node4" class="node"><title>Node156</title>
<g id="a_node4"><a xlink:href="$class_json_1_1_our_reader.html#a856dea44d92578c276856d7a65a4ebdc" xlink:title="Json::OurReader::skipComment\lTokens">
<polygon fill="none" stroke="black" points="333,-495.749 333,-525.749 491,-525.749 491,-495.749 333,-495.749"/>
<text text-anchor="start" x="341" y="-513.749" font-family="Helvetica,sans-Serif" font-size="10.00">Json::OurReader::skipComment</text>
<text text-anchor="middle" x="412" y="-502.749" font-family="Helvetica,sans-Serif" font-size="10.00">Tokens</text>
</a>
</g>
</g>
<!-- Node153&#45;&gt;Node156 -->
<g id="edge49" class="edge"><title>Node153&#45;&gt;Node156</title>
<path fill="none" stroke="midnightblue" d="M121.184,-510.749C176.496,-510.749 259.496,-510.749 322.515,-510.749"/>
<polygon fill="midnightblue" stroke="midnightblue" points="322.846,-514.249 332.846,-510.749 322.846,-507.249 322.846,-514.249"/>
</g>
<!-- Node177 -->
<g id="node25" class="node"><title>Node177</title>
<g id="a_node25"><a xlink:href="$class_json_1_1_our_reader.html#a5a48b71c1c16fa671814c8338e452bc0" xlink:title="Json::OurReader::addError">
<polygon fill="none" stroke="black" points="726,-469.249 726,-488.249 860,-488.249 860,-469.249 726,-469.249"/>
<text text-anchor="middle" x="793" y="-476.249" font-family="Helvetica,sans-Serif" font-size="10.00">Json::OurReader::addError</text>
</a>
</g>
</g>
<!-- Node153&#45;&gt;Node177 -->
<g id="edge50" class="edge"><title>Node153&#45;&gt;Node177</title>
<path fill="none" stroke="midnightblue" d="M120.747,-520.269C132.724,-521.958 145.247,-523.556 157,-524.749 304.752,-539.747 343.117,-548.389 491,-534.749 581.062,-526.442 684.379,-504.438 743.542,-490.615"/>
<polygon fill="midnightblue" stroke="midnightblue" points="744.426,-494.002 753.356,-488.302 742.82,-487.189 744.426,-494.002"/>
</g>
<!-- Node155 -->
<g id="node3" class="node"><title>Node155</title>
<g id="a_node3"><a xlink:href="$namespace_json.html#a97f039a107b3f6cf1c3edee50e978f76" xlink:title="Json::throwRuntimeError">
<polygon fill="none" stroke="black" points="1473.5,-191.249 1473.5,-210.249 1598.5,-210.249 1598.5,-191.249 1473.5,-191.249"/>
<text text-anchor="middle" x="1536" y="-198.249" font-family="Helvetica,sans-Serif" font-size="10.00">Json::throwRuntimeError</text>
</a>
</g>
</g>
<!-- Node154&#45;&gt;Node155 -->
<g id="edge2" class="edge"><title>Node154&#45;&gt;Node155</title>
<path fill="none" stroke="midnightblue" d="M230.301,-210.198C238.294,-179.325 267.986,-81.7878 333,-39.749 436.019,26.8639 484.821,-10.749 607.5,-10.749 607.5,-10.749 607.5,-10.749 1155,-10.749 1309.41,-10.749 1465.4,-137.807 1517.12,-184.118"/>
<polygon fill="midnightblue" stroke="midnightblue" points="1515.02,-186.934 1524.77,-191.066 1519.72,-181.752 1515.02,-186.934"/>
</g>
<!-- Node154&#45;&gt;Node156 -->
<g id="edge3" class="edge"><title>Node154&#45;&gt;Node156</title>
<path fill="none" stroke="midnightblue" d="M229.103,-229.309C233.922,-266.789 256.44,-405.353 333,-480.749 336.78,-484.471 341.071,-487.742 345.65,-490.615"/>
<polygon fill="midnightblue" stroke="midnightblue" points="344.31,-493.874 354.753,-495.662 347.704,-487.752 344.31,-493.874"/>
</g>
<!-- Node171 -->
<g id="node19" class="node"><title>Node171</title>
<g id="a_node19"><a xlink:href="$class_json_1_1_our_reader.html#a2acd5b1d53e7d7e17c21ff8e96edc09d" xlink:title="Json::OurReader::current\lValue">
<polygon fill="none" stroke="black" points="729.5,-109.749 729.5,-139.749 856.5,-139.749 856.5,-109.749 729.5,-109.749"/>
<text text-anchor="start" x="737.5" y="-127.749" font-family="Helvetica,sans-Serif" font-size="10.00">Json::OurReader::current</text>
<text text-anchor="middle" x="793" y="-116.749" font-family="Helvetica,sans-Serif" font-size="10.00">Value</text>
</a>
</g>
</g>
<!-- Node154&#45;&gt;Node171 -->
<g id="edge24" class="edge"><title>Node154&#45;&gt;Node171</title>
<path fill="none" stroke="midnightblue" d="M233.618,-209.913C247.314,-186.928 284.856,-129.612 333,-102.749 472.221,-25.0669 535.72,-27.5656 690,-67.749 716.897,-74.7546 744.221,-90.5893 763.811,-103.795"/>
<polygon fill="midnightblue" stroke="midnightblue" points="762.025,-106.816 772.237,-109.637 766.013,-101.063 762.025,-106.816"/>
</g>
<!-- Node172 -->
<g id="node20" class="node"><title>Node172</title>
<g id="a_node20"><a xlink:href="$class_json_1_1_our_reader.html#aea198f8101dba55099f4d8121a993530" xlink:title="Json::OurReader::readObject">
<polygon fill="none" stroke="black" points="340,-210.249 340,-229.249 484,-229.249 484,-210.249 340,-210.249"/>
<text text-anchor="middle" x="412" y="-217.249" font-family="Helvetica,sans-Serif" font-size="10.00">Json::OurReader::readObject</text>
</a>
</g>
</g>
<!-- Node154&#45;&gt;Node172 -->
<g id="edge25" class="edge"><title>Node154&#45;&gt;Node172</title>
<path fill="none" stroke="midnightblue" d="M297.184,-213.181C307.769,-213.005 318.779,-212.957 329.597,-213.036"/>
<polygon fill="midnightblue" stroke="midnightblue" points="329.853,-216.539 339.891,-213.15 329.931,-209.539 329.853,-216.539"/>
</g>
<!-- Node173 -->
<g id="node21" class="node"><title>Node173</title>
<g id="a_node21"><a xlink:href="$class_json_1_1_our_reader.html#a34e31d8b8399b7ad493359702b6de6c9" xlink:title="Json::OurReader::decodeString">
<polygon fill="none" stroke="black" points="531.5,-115.249 531.5,-134.249 685.5,-134.249 685.5,-115.249 531.5,-115.249"/>
<text text-anchor="middle" x="608.5" y="-122.249" font-family="Helvetica,sans-Serif" font-size="10.00">Json::OurReader::decodeString</text>
</a>
</g>
</g>
<!-- Node154&#45;&gt;Node173 -->
<g id="edge47" class="edge"><title>Node154&#45;&gt;Node173</title>
<path fill="none" stroke="midnightblue" d="M266.224,-210.132C323.074,-195.835 433.277,-168.146 527,-144.749 537.376,-142.159 548.507,-139.388 559.081,-136.76"/>
<polygon fill="midnightblue" stroke="midnightblue" points="560.145,-140.102 569.006,-134.294 558.457,-133.309 560.145,-140.102"/>
</g>
<!-- Node175 -->
<g id="node23" class="node"><title>Node175</title>
<g id="a_node23"><a xlink:href="$class_json_1_1_our_reader.html#a272d271290933a89abfd5096dd69c9e9" xlink:title="Json::OurReader::decodeNumber">
<polygon fill="none" stroke="black" points="527,-77.249 527,-96.249 690,-96.249 690,-77.249 527,-77.249"/>
<text text-anchor="middle" x="608.5" y="-84.249" font-family="Helvetica,sans-Serif" font-size="10.00">Json::OurReader::decodeNumber</text>
</a>
</g>
</g>
<!-- Node154&#45;&gt;Node175 -->
<g id="edge46" class="edge"><title>Node154&#45;&gt;Node175</title>
<path fill="none" stroke="midnightblue" d="M239.829,-210.123C258.501,-195.402 296.452,-167.363 333,-151.749 396.409,-124.659 473.102,-107.706 529.287,-97.9333"/>
<polygon fill="midnightblue" stroke="midnightblue" points="529.907,-101.378 539.178,-96.2501 528.732,-94.4774 529.907,-101.378"/>
</g>
<!-- Node154&#45;&gt;Node177 -->
<g id="edge48" class="edge"><title>Node154&#45;&gt;Node177</title>
<path fill="none" stroke="midnightblue" d="M231.427,-229.431C241.846,-257.37 275.963,-338.628 333,-377.749 449.653,-457.759 618.811,-475.722 715.862,-478.982"/>
<polygon fill="midnightblue" stroke="midnightblue" points="715.792,-482.481 725.89,-479.275 715.996,-475.484 715.792,-482.481"/>
</g>
<!-- Node178 -->
<g id="node26" class="node"><title>Node178</title>
<g id="a_node26"><a xlink:href="$class_json_1_1_our_reader.html#a0b9f58faf4212c6ecb5d8e2a1ac10257" xlink:title="Json::OurReader::readArray">
<polygon fill="none" stroke="black" points="342.5,-349.249 342.5,-368.249 481.5,-368.249 481.5,-349.249 342.5,-349.249"/>
<text text-anchor="middle" x="412" y="-356.249" font-family="Helvetica,sans-Serif" font-size="10.00">Json::OurReader::readArray</text>
</a>
</g>
</g>
<!-- Node154&#45;&gt;Node178 -->
<g id="edge39" class="edge"><title>Node154&#45;&gt;Node178</title>
<path fill="none" stroke="midnightblue" d="M246.216,-229.342C281.886,-253.035 360.44,-312.761 394.599,-342.228"/>
<polygon fill="midnightblue" stroke="midnightblue" points="392.468,-345.015 402.274,-349.027 397.109,-339.776 392.468,-345.015"/>
</g>
<!-- Node157 -->
<g id="node5" class="node"><title>Node157</title>
<g id="a_node5"><a xlink:href="$class_json_1_1_our_reader.html#a0d1e66da47fe2e85f5033c59326dfdc3" xlink:title="Json::OurReader::readToken">
<polygon fill="none" stroke="black" points="896,-381.249 896,-400.249 1039,-400.249 1039,-381.249 896,-381.249"/>
<text text-anchor="middle" x="967.5" y="-388.249" font-family="Helvetica,sans-Serif" font-size="10.00">Json::OurReader::readToken</text>
</a>
</g>
</g>
<!-- Node156&#45;&gt;Node157 -->
<g id="edge4" class="edge"><title>Node156&#45;&gt;Node157</title>
<path fill="none" stroke="midnightblue" d="M491.066,-525.32C583.35,-538.832 739.585,-549.857 860,-497.749 902.872,-479.197 937.67,-434.613 954.855,-409.237"/>
<polygon fill="midnightblue" stroke="midnightblue" points="957.998,-410.827 960.56,-400.546 952.146,-406.986 957.998,-410.827"/>
</g>
<!-- Node158 -->
<g id="node6" class="node"><title>Node158</title>
<g id="a_node6"><a xlink:href="$class_json_1_1_our_reader.html#a6fbc6d58a4505e5ccadf330b57b17ca5" xlink:title="Json::OurReader::skipSpaces">
<polygon fill="none" stroke="black" points="1080,-507.249 1080,-526.249 1228,-526.249 1228,-507.249 1080,-507.249"/>
<text text-anchor="middle" x="1154" y="-514.249" font-family="Helvetica,sans-Serif" font-size="10.00">Json::OurReader::skipSpaces</text>
</a>
</g>
</g>
<!-- Node157&#45;&gt;Node158 -->
<g id="edge5" class="edge"><title>Node157&#45;&gt;Node158</title>
<path fill="none" stroke="midnightblue" d="M975.277,-400.358C990.55,-421.27 1029.87,-471.089 1075,-496.749 1079.79,-499.47 1084.94,-501.827 1090.25,-503.868"/>
<polygon fill="midnightblue" stroke="midnightblue" points="1089.31,-507.246 1099.9,-507.21 1091.6,-500.631 1089.31,-507.246"/>
</g>
<!-- Node159 -->
<g id="node7" class="node"><title>Node159</title>
<g id="a_node7"><a xlink:href="$class_json_1_1_our_reader.html#a298285d035fdbc554caae09d9f0a5859" xlink:title="Json::OurReader::getNextChar">
<polygon fill="none" stroke="black" points="1460,-411.249 1460,-430.249 1612,-430.249 1612,-411.249 1460,-411.249"/>
<text text-anchor="middle" x="1536" y="-418.249" font-family="Helvetica,sans-Serif" font-size="10.00">Json::OurReader::getNextChar</text>
</a>
</g>
</g>
<!-- Node157&#45;&gt;Node159 -->
<g id="edge6" class="edge"><title>Node157&#45;&gt;Node159</title>
<path fill="none" stroke="midnightblue" d="M982.451,-381.092C1041.2,-341.717 1272.46,-199.85 1424,-295.749 1455.58,-315.736 1435.43,-343.582 1460,-371.749 1472.53,-386.115 1490.25,-397.957 1505.32,-406.398"/>
<polygon fill="midnightblue" stroke="midnightblue" points="1503.83,-409.568 1514.3,-411.207 1507.14,-403.398 1503.83,-409.568"/>
</g>
<!-- Node160 -->
<g id="node8" class="node"><title>Node160</title>
<g id="a_node8"><a xlink:href="$class_json_1_1_our_reader.html#a5d39b12671499ec5975f3bbc84b7d438" xlink:title="Json::OurReader::readString">
<polygon fill="none" stroke="black" points="1276,-229.249 1276,-248.249 1417,-248.249 1417,-229.249 1276,-229.249"/>
<text text-anchor="middle" x="1346.5" y="-236.249" font-family="Helvetica,sans-Serif" font-size="10.00">Json::OurReader::readString</text>
</a>
</g>
</g>
<!-- Node157&#45;&gt;Node160 -->
<g id="edge7" class="edge"><title>Node157&#45;&gt;Node160</title>
<path fill="none" stroke="midnightblue" d="M973.064,-381.171C985.434,-356.429 1022.25,-290.389 1075,-262.749 1133.58,-232.055 1209.17,-227.792 1265.55,-230.21"/>
<polygon fill="midnightblue" stroke="midnightblue" points="1265.68,-233.721 1275.85,-230.734 1266.04,-226.73 1265.68,-233.721"/>
</g>
<!-- Node161 -->
<g id="node9" class="node"><title>Node161</title>
<g id="a_node9"><a xlink:href="$class_json_1_1_our_reader.html#ac78592defdc333faf56c6d0908758da3" xlink:title="Json::OurReader::readString\lSingleQuote">
<polygon fill="none" stroke="black" points="1083.5,-457.749 1083.5,-487.749 1224.5,-487.749 1224.5,-457.749 1083.5,-457.749"/>
<text text-anchor="start" x="1091.5" y="-475.749" font-family="Helvetica,sans-Serif" font-size="10.00">Json::OurReader::readString</text>
<text text-anchor="middle" x="1154" y="-464.749" font-family="Helvetica,sans-Serif" font-size="10.00">SingleQuote</text>
</a>
</g>
</g>
<!-- Node157&#45;&gt;Node161 -->
<g id="edge9" class="edge"><title>Node157&#45;&gt;Node161</title>
<path fill="none" stroke="midnightblue" d="M984.291,-400.375C1004.7,-412.54 1041.59,-433.594 1075,-447.749 1080.37,-450.024 1086.02,-452.211 1091.72,-454.281"/>
<polygon fill="midnightblue" stroke="midnightblue" points="1090.73,-457.643 1101.33,-457.647 1093.05,-451.037 1090.73,-457.643"/>
</g>
<!-- Node162 -->
<g id="node10" class="node"><title>Node162</title>
<g id="a_node10"><a xlink:href="$class_json_1_1_our_reader.html#a90f6bb9e55b2bc3d6c1880809495c222" xlink:title="Json::OurReader::readComment">
<polygon fill="none" stroke="black" points="1075,-343.249 1075,-362.249 1233,-362.249 1233,-343.249 1075,-343.249"/>
<text text-anchor="middle" x="1154" y="-350.249" font-family="Helvetica,sans-Serif" font-size="10.00">Json::OurReader::readComment</text>
</a>
</g>
</g>
<!-- Node157&#45;&gt;Node162 -->
<g id="edge11" class="edge"><title>Node157&#45;&gt;Node162</title>
<path fill="none" stroke="midnightblue" d="M1015.06,-381.16C1039.84,-376.055 1070.52,-369.738 1096.64,-364.357"/>
<polygon fill="midnightblue" stroke="midnightblue" points="1097.69,-367.714 1106.78,-362.269 1096.28,-360.858 1097.69,-367.714"/>
</g>
<!-- Node169 -->
<g id="node17" class="node"><title>Node169</title>
<g id="a_node17"><a xlink:href="$class_json_1_1_our_reader.html#aefcb9a78cc45870ccac2db2a66c8ec50" xlink:title="Json::OurReader::readNumber">
<polygon fill="none" stroke="black" points="1079,-419.249 1079,-438.249 1229,-438.249 1229,-419.249 1079,-419.249"/>
<text text-anchor="middle" x="1154" y="-426.249" font-family="Helvetica,sans-Serif" font-size="10.00">Json::OurReader::readNumber</text>
</a>
</g>
</g>
<!-- Node157&#45;&gt;Node169 -->
<g id="edge22" class="edge"><title>Node157&#45;&gt;Node169</title>
<path fill="none" stroke="midnightblue" d="M1015.06,-400.338C1039.84,-405.443 1070.52,-411.76 1096.64,-417.141"/>
<polygon fill="midnightblue" stroke="midnightblue" points="1096.28,-420.64 1106.78,-419.229 1097.69,-413.784 1096.28,-420.64"/>
</g>
<!-- Node170 -->
<g id="node18" class="node"><title>Node170</title>
<g id="a_node18"><a xlink:href="$class_json_1_1_our_reader.html#a4a03f1b266def9b47c4fef35386557fb" xlink:title="Json::OurReader::match">
<polygon fill="none" stroke="black" points="1092,-381.249 1092,-400.249 1216,-400.249 1216,-381.249 1092,-381.249"/>
<text text-anchor="middle" x="1154" y="-388.249" font-family="Helvetica,sans-Serif" font-size="10.00">Json::OurReader::match</text>
</a>
</g>
</g>
<!-- Node157&#45;&gt;Node170 -->
<g id="edge23" class="edge"><title>Node157&#45;&gt;Node170</title>
<path fill="none" stroke="midnightblue" d="M1039.04,-390.749C1053.04,-390.749 1067.74,-390.749 1081.77,-390.749"/>
<polygon fill="midnightblue" stroke="midnightblue" points="1081.83,-394.249 1091.83,-390.749 1081.83,-387.249 1081.83,-394.249"/>
</g>
<!-- Node160&#45;&gt;Node159 -->
<g id="edge8" class="edge"><title>Node160&#45;&gt;Node159</title>
<path fill="none" stroke="midnightblue" d="M1400.95,-248.289C1409.45,-251.727 1417.55,-256.399 1424,-262.749 1460.34,-298.553 1428.9,-331.306 1460,-371.749 1471.38,-386.554 1488.59,-398.251 1503.65,-406.498"/>
<polygon fill="midnightblue" stroke="midnightblue" points="1502.19,-409.684 1512.68,-411.184 1505.42,-403.471 1502.19,-409.684"/>
</g>
<!-- Node161&#45;&gt;Node159 -->
<g id="edge10" class="edge"><title>Node161&#45;&gt;Node159</title>
<path fill="none" stroke="midnightblue" d="M1199.38,-487.761C1220.24,-494.054 1245.62,-500.627 1269,-503.749 1337.28,-512.868 1358.63,-525.486 1424,-503.749 1463.11,-490.745 1499.57,-457.992 1519.42,-437.735"/>
<polygon fill="midnightblue" stroke="midnightblue" points="1522.04,-440.055 1526.42,-430.404 1516.98,-435.223 1522.04,-440.055"/>
</g>
<!-- Node162&#45;&gt;Node159 -->
<g id="edge12" class="edge"><title>Node162&#45;&gt;Node159</title>
<path fill="none" stroke="midnightblue" d="M1218.62,-362.39C1223.84,-364.869 1228.74,-367.943 1233,-371.749 1267.61,-402.653 1230.95,-443.191 1269,-469.749 1344.97,-522.772 1461.82,-464.97 1511.43,-435.667"/>
<polygon fill="midnightblue" stroke="midnightblue" points="1513.41,-438.562 1520.15,-430.394 1509.78,-432.571 1513.41,-438.562"/>
</g>
<!-- Node163 -->
<g id="node11" class="node"><title>Node163</title>
<g id="a_node11"><a xlink:href="$class_json_1_1_our_reader.html#aba784b125baa1b62387e767b791f2f89" xlink:title="Json::OurReader::readCStyle\lComment">
<polygon fill="none" stroke="black" points="1273.5,-430.749 1273.5,-460.749 1419.5,-460.749 1419.5,-430.749 1273.5,-430.749"/>
<text text-anchor="start" x="1281.5" y="-448.749" font-family="Helvetica,sans-Serif" font-size="10.00">Json::OurReader::readCStyle</text>
<text text-anchor="middle" x="1346.5" y="-437.749" font-family="Helvetica,sans-Serif" font-size="10.00">Comment</text>
</a>
</g>
</g>
<!-- Node162&#45;&gt;Node163 -->
<g id="edge13" class="edge"><title>Node162&#45;&gt;Node163</title>
<path fill="none" stroke="midnightblue" d="M1213.97,-362.348C1220.69,-364.803 1227.2,-367.883 1233,-371.749 1255.48,-386.74 1247.11,-404.905 1269,-420.749 1271.66,-422.674 1274.48,-424.457 1277.4,-426.106"/>
<polygon fill="midnightblue" stroke="midnightblue" points="1275.92,-429.282 1286.43,-430.667 1279.08,-423.034 1275.92,-429.282"/>
</g>
<!-- Node164 -->
<g id="node12" class="node"><title>Node164</title>
<g id="a_node12"><a xlink:href="$class_json_1_1_our_reader.html#ae3de80671f0f997053e1c1c8a47a45c5" xlink:title="Json::OurReader::readCpp\lStyleComment">
<polygon fill="none" stroke="black" points="1279.5,-381.749 1279.5,-411.749 1413.5,-411.749 1413.5,-381.749 1279.5,-381.749"/>
<text text-anchor="start" x="1287.5" y="-399.749" font-family="Helvetica,sans-Serif" font-size="10.00">Json::OurReader::readCpp</text>
<text text-anchor="middle" x="1346.5" y="-388.749" font-family="Helvetica,sans-Serif" font-size="10.00">StyleComment</text>
</a>
</g>
</g>
<!-- Node162&#45;&gt;Node164 -->
<g id="edge15" class="edge"><title>Node162&#45;&gt;Node164</title>
<path fill="none" stroke="midnightblue" d="M1196.34,-362.296C1217.98,-367.294 1245.15,-373.571 1270.36,-379.393"/>
<polygon fill="midnightblue" stroke="midnightblue" points="1269.74,-382.843 1280.27,-381.684 1271.32,-376.023 1269.74,-382.843"/>
</g>
<!-- Node165 -->
<g id="node13" class="node"><title>Node165</title>
<g id="a_node13"><a xlink:href="$namespace_json.html#a4d6ab0f651348832e5cc49b577a854d2" xlink:title="Json::containsNewLine">
<polygon fill="none" stroke="black" points="1287,-305.249 1287,-324.249 1406,-324.249 1406,-305.249 1287,-305.249"/>
<text text-anchor="middle" x="1346.5" y="-312.249" font-family="Helvetica,sans-Serif" font-size="10.00">Json::containsNewLine</text>
</a>
</g>
</g>
<!-- Node162&#45;&gt;Node165 -->
<g id="edge17" class="edge"><title>Node162&#45;&gt;Node165</title>
<path fill="none" stroke="midnightblue" d="M1203.07,-343.16C1228.78,-338.033 1260.61,-331.682 1287.66,-326.286"/>
<polygon fill="midnightblue" stroke="midnightblue" points="1288.65,-329.658 1297.77,-324.269 1287.28,-322.793 1288.65,-329.658"/>
</g>
<!-- Node166 -->
<g id="node14" class="node"><title>Node166</title>
<g id="a_node14"><a xlink:href="$class_json_1_1_our_reader.html#ad7318c37469a9106069a236fb4b10e1f" xlink:title="Json::OurReader::addComment">
<polygon fill="none" stroke="black" points="1269,-343.249 1269,-362.249 1424,-362.249 1424,-343.249 1269,-343.249"/>
<text text-anchor="middle" x="1346.5" y="-350.249" font-family="Helvetica,sans-Serif" font-size="10.00">Json::OurReader::addComment</text>
</a>
</g>
</g>
<!-- Node162&#45;&gt;Node166 -->
<g id="edge19" class="edge"><title>Node162&#45;&gt;Node166</title>
<path fill="none" stroke="midnightblue" d="M1233.03,-352.749C1241.53,-352.749 1250.21,-352.749 1258.8,-352.749"/>
<polygon fill="midnightblue" stroke="midnightblue" points="1258.82,-356.249 1268.82,-352.749 1258.82,-349.249 1258.82,-356.249"/>
</g>
<!-- Node163&#45;&gt;Node159 -->
<g id="edge14" class="edge"><title>Node163&#45;&gt;Node159</title>
<path fill="none" stroke="midnightblue" d="M1419.72,-436.119C1430.78,-434.645 1442.26,-433.114 1453.5,-431.615"/>
<polygon fill="midnightblue" stroke="midnightblue" points="1454.29,-435.041 1463.74,-430.25 1453.37,-428.103 1454.29,-435.041"/>
</g>
<!-- Node164&#45;&gt;Node159 -->
<g id="edge16" class="edge"><title>Node164&#45;&gt;Node159</title>
<path fill="none" stroke="midnightblue" d="M1413.61,-405.211C1425.47,-406.729 1437.98,-408.33 1450.28,-409.904"/>
<polygon fill="midnightblue" stroke="midnightblue" points="1450.18,-413.42 1460.54,-411.218 1451.07,-406.477 1450.18,-413.42"/>
</g>
<!-- Node165&#45;&gt;Node155 -->
<g id="edge18" class="edge"><title>Node165&#45;&gt;Node155</title>
<path fill="none" stroke="midnightblue" d="M1363.16,-305.226C1395.84,-285.359 1471.47,-239.375 1510.59,-215.593"/>
<polygon fill="midnightblue" stroke="midnightblue" points="1512.52,-218.511 1519.25,-210.326 1508.89,-212.53 1512.52,-218.511"/>
</g>
<!-- Node167 -->
<g id="node15" class="node"><title>Node167</title>
<g id="a_node15"><a xlink:href="$namespace_json.html#a2e6b8616041876128cbef54b8c75da62" xlink:title="Json::normalizeEOL">
<polygon fill="none" stroke="black" points="1483.5,-343.249 1483.5,-362.249 1588.5,-362.249 1588.5,-343.249 1483.5,-343.249"/>
<text text-anchor="middle" x="1536" y="-350.249" font-family="Helvetica,sans-Serif" font-size="10.00">Json::normalizeEOL</text>
</a>
</g>
</g>
<!-- Node166&#45;&gt;Node167 -->
<g id="edge20" class="edge"><title>Node166&#45;&gt;Node167</title>
<path fill="none" stroke="midnightblue" d="M1424.03,-352.749C1440.4,-352.749 1457.49,-352.749 1473.21,-352.749"/>
<polygon fill="midnightblue" stroke="midnightblue" points="1473.33,-356.249 1483.33,-352.749 1473.33,-349.249 1473.33,-356.249"/>
</g>
<!-- Node168 -->
<g id="node16" class="node"><title>Node168</title>
<g id="a_node16"><a xlink:href="$namespace_json.html#adf0456e397a18cd7218a7b51dfc13c73" xlink:title="Converts a unicode code&#45;point to UTF&#45;8. ">
<polygon fill="none" stroke="black" points="1648,-343.249 1648,-362.249 1771,-362.249 1771,-343.249 1648,-343.249"/>
<text text-anchor="middle" x="1709.5" y="-350.249" font-family="Helvetica,sans-Serif" font-size="10.00">Json::codePointToUTF8</text>
</a>
</g>
</g>
<!-- Node167&#45;&gt;Node168 -->
<g id="edge21" class="edge"><title>Node167&#45;&gt;Node168</title>
<path fill="none" stroke="midnightblue" d="M1588.92,-352.749C1604.27,-352.749 1621.34,-352.749 1637.67,-352.749"/>
<polygon fill="midnightblue" stroke="midnightblue" points="1637.71,-356.249 1647.71,-352.749 1637.71,-349.249 1637.71,-356.249"/>
</g>
<!-- Node172&#45;&gt;Node154 -->
<g id="edge38" class="edge"><title>Node172&#45;&gt;Node154</title>
<path fill="none" stroke="midnightblue" d="M339.891,-226.348C329.257,-226.508 318.236,-226.541 307.443,-226.447"/>
<polygon fill="midnightblue" stroke="midnightblue" points="307.228,-222.944 297.184,-226.317 307.14,-229.943 307.228,-222.944"/>
</g>
<!-- Node172&#45;&gt;Node155 -->
<g id="edge37" class="edge"><title>Node172&#45;&gt;Node155</title>
<path fill="none" stroke="midnightblue" d="M484.196,-214.048C560.326,-208.452 684.614,-200.749 792,-200.749 792,-200.749 792,-200.749 1155,-200.749 1262.27,-200.749 1386.58,-200.749 1463,-200.749"/>
<polygon fill="midnightblue" stroke="midnightblue" points="1463.46,-204.249 1473.46,-200.749 1463.46,-197.249 1463.46,-204.249"/>
</g>
<!-- Node172&#45;&gt;Node157 -->
<g id="edge27" class="edge"><title>Node172&#45;&gt;Node157</title>
<path fill="none" stroke="midnightblue" d="M484.153,-226.793C540.792,-233.594 621.624,-245.985 690,-266.749 786.039,-295.914 892.497,-350.476 940.506,-376.384"/>
<polygon fill="midnightblue" stroke="midnightblue" points="938.851,-379.468 949.308,-381.168 942.193,-373.318 938.851,-379.468"/>
</g>
<!-- Node172&#45;&gt;Node171 -->
<g id="edge26" class="edge"><title>Node172&#45;&gt;Node171</title>
<path fill="none" stroke="midnightblue" d="M444.331,-210.204C467.165,-203.364 498.893,-194.1 527,-186.749 591.738,-169.818 665.95,-152.645 719.341,-140.68"/>
<polygon fill="midnightblue" stroke="midnightblue" points="720.401,-144.029 729.397,-138.433 718.874,-137.198 720.401,-144.029"/>
</g>
<!-- Node172&#45;&gt;Node173 -->
<g id="edge28" class="edge"><title>Node172&#45;&gt;Node173</title>
<path fill="none" stroke="midnightblue" d="M427.39,-210.111C453.232,-192.917 506.699,-157.897 527,-148.749 536.774,-144.345 547.572,-140.491 558,-137.235"/>
<polygon fill="midnightblue" stroke="midnightblue" points="559.258,-140.512 567.839,-134.297 557.256,-133.804 559.258,-140.512"/>
</g>
<!-- Node174 -->
<g id="node22" class="node"><title>Node174</title>
<g id="a_node22"><a xlink:href="$class_json_1_1_our_reader.html#a035651f0700a76a815e5f904c63ebb1c" xlink:title="Json::OurReader::recover\lFromError">
<polygon fill="none" stroke="black" points="728.5,-359.749 728.5,-389.749 857.5,-389.749 857.5,-359.749 728.5,-359.749"/>
<text text-anchor="start" x="736.5" y="-377.749" font-family="Helvetica,sans-Serif" font-size="10.00">Json::OurReader::recover</text>
<text text-anchor="middle" x="793" y="-366.749" font-family="Helvetica,sans-Serif" font-size="10.00">FromError</text>
</a>
</g>
</g>
<!-- Node172&#45;&gt;Node174 -->
<g id="edge30" class="edge"><title>Node172&#45;&gt;Node174</title>
<path fill="none" stroke="midnightblue" d="M436.422,-229.328C497.758,-254.412 663.956,-322.383 745.545,-355.75"/>
<polygon fill="midnightblue" stroke="midnightblue" points="744.482,-359.097 755.063,-359.643 747.132,-352.618 744.482,-359.097"/>
</g>
<!-- Node172&#45;&gt;Node175 -->
<g id="edge32" class="edge"><title>Node172&#45;&gt;Node175</title>
<path fill="none" stroke="midnightblue" d="M419.721,-210.018C435.608,-187.798 477.861,-133.144 527,-105.749 531.17,-103.424 535.615,-101.382 540.193,-99.59"/>
<polygon fill="midnightblue" stroke="midnightblue" points="541.451,-102.858 549.732,-96.2493 539.137,-96.2516 541.451,-102.858"/>
</g>
<!-- Node176 -->
<g id="node24" class="node"><title>Node176</title>
<g id="a_node24"><a xlink:href="$class_json_1_1_our_reader.html#ae68a7047acd692be8077e259d524c6d9" xlink:title="Json::OurReader::addError\lAndRecover">
<polygon fill="none" stroke="black" points="541.5,-343.749 541.5,-373.749 675.5,-373.749 675.5,-343.749 541.5,-343.749"/>
<text text-anchor="start" x="549.5" y="-361.749" font-family="Helvetica,sans-Serif" font-size="10.00">Json::OurReader::addError</text>
<text text-anchor="middle" x="608.5" y="-350.749" font-family="Helvetica,sans-Serif" font-size="10.00">AndRecover</text>
</a>
</g>
</g>
<!-- Node172&#45;&gt;Node176 -->
<g id="edge34" class="edge"><title>Node172&#45;&gt;Node176</title>
<path fill="none" stroke="midnightblue" d="M420.571,-229.25C437.553,-249.998 480.827,-299.811 527,-328.749 533.576,-332.87 540.804,-336.555 548.147,-339.812"/>
<polygon fill="midnightblue" stroke="midnightblue" points="546.894,-343.081 557.471,-343.707 549.593,-336.623 546.894,-343.081"/>
</g>
<!-- Node173&#45;&gt;Node171 -->
<g id="edge29" class="edge"><title>Node173&#45;&gt;Node171</title>
<path fill="none" stroke="midnightblue" d="M685.575,-124.749C696.732,-124.749 708.201,-124.749 719.289,-124.749"/>
<polygon fill="midnightblue" stroke="midnightblue" points="719.344,-128.249 729.344,-124.749 719.344,-121.249 719.344,-128.249"/>
</g>
<!-- Node174&#45;&gt;Node157 -->
<g id="edge31" class="edge"><title>Node174&#45;&gt;Node157</title>
<path fill="none" stroke="midnightblue" d="M857.743,-380.661C866.835,-381.505 876.285,-382.381 885.651,-383.25"/>
<polygon fill="midnightblue" stroke="midnightblue" points="885.479,-386.749 895.759,-384.188 886.125,-379.779 885.479,-386.749"/>
</g>
<!-- Node175&#45;&gt;Node171 -->
<g id="edge33" class="edge"><title>Node175&#45;&gt;Node171</title>
<path fill="none" stroke="midnightblue" d="M655.552,-96.338C674.965,-100.38 698.029,-105.183 719.62,-109.678"/>
<polygon fill="midnightblue" stroke="midnightblue" points="718.914,-113.106 729.417,-111.718 720.341,-106.253 718.914,-113.106"/>
</g>
<!-- Node176&#45;&gt;Node174 -->
<g id="edge36" class="edge"><title>Node176&#45;&gt;Node174</title>
<path fill="none" stroke="midnightblue" d="M675.645,-364.548C689.435,-365.757 704.055,-367.039 718.105,-368.271"/>
<polygon fill="midnightblue" stroke="midnightblue" points="717.947,-371.77 728.214,-369.157 718.558,-364.797 717.947,-371.77"/>
</g>
<!-- Node176&#45;&gt;Node177 -->
<g id="edge35" class="edge"><title>Node176&#45;&gt;Node177</title>
<path fill="none" stroke="midnightblue" d="M632.614,-373.947C667.656,-396.989 733.846,-440.511 768.888,-463.552"/>
<polygon fill="midnightblue" stroke="midnightblue" points="767.213,-466.639 777.491,-469.209 771.059,-460.79 767.213,-466.639"/>
</g>
<!-- Node178&#45;&gt;Node154 -->
<g id="edge43" class="edge"><title>Node178&#45;&gt;Node154</title>
<path fill="none" stroke="midnightblue" d="M392.876,-349.218C357.293,-325.596 278.786,-265.911 244.529,-236.381"/>
<polygon fill="midnightblue" stroke="midnightblue" points="246.634,-233.57 236.826,-229.563 241.995,-238.812 246.634,-233.57"/>
</g>
<!-- Node178&#45;&gt;Node157 -->
<g id="edge42" class="edge"><title>Node178&#45;&gt;Node157</title>
<path fill="none" stroke="midnightblue" d="M433.014,-368.348C455.336,-378.479 492.812,-393.788 527,-399.749 651.698,-421.491 799.298,-411.283 887.782,-401.398"/>
<polygon fill="midnightblue" stroke="midnightblue" points="888.206,-404.872 897.744,-400.258 887.411,-397.918 888.206,-404.872"/>
</g>
<!-- Node178&#45;&gt;Node158 -->
<g id="edge41" class="edge"><title>Node178&#45;&gt;Node158</title>
<path fill="none" stroke="midnightblue" d="M429.271,-368.467C451.088,-381.293 491.223,-404.182 527,-420.749 613.056,-460.598 633.187,-478.274 726,-497.749 843.536,-522.412 983.12,-523.485 1069.9,-520.938"/>
<polygon fill="midnightblue" stroke="midnightblue" points="1070.07,-524.434 1079.95,-520.62 1069.85,-517.438 1070.07,-524.434"/>
</g>
<!-- Node178&#45;&gt;Node171 -->
<g id="edge40" class="edge"><title>Node178&#45;&gt;Node171</title>
<path fill="none" stroke="midnightblue" d="M428.803,-348.992C485.661,-313.887 680.596,-193.531 758.976,-145.139"/>
<polygon fill="midnightblue" stroke="midnightblue" points="760.834,-148.105 767.504,-139.873 757.156,-142.149 760.834,-148.105"/>
</g>
<!-- Node178&#45;&gt;Node174 -->
<g id="edge44" class="edge"><title>Node178&#45;&gt;Node174</title>
<path fill="none" stroke="midnightblue" d="M448.893,-368.303C471.19,-373.737 500.546,-379.995 527,-382.749 599.055,-390.252 617.611,-385.583 690,-382.749 699.124,-382.392 708.697,-381.855 718.17,-381.226"/>
<polygon fill="midnightblue" stroke="midnightblue" points="718.653,-384.701 728.385,-380.511 718.165,-377.718 718.653,-384.701"/>
</g>
<!-- Node178&#45;&gt;Node176 -->
<g id="edge45" class="edge"><title>Node178&#45;&gt;Node176</title>
<path fill="none" stroke="midnightblue" d="M481.573,-358.749C497.605,-358.749 514.778,-358.749 531.125,-358.749"/>
<polygon fill="midnightblue" stroke="midnightblue" points="531.179,-362.249 541.179,-358.749 531.179,-355.249 531.179,-362.249"/>
</g>
</g>
</svg>
