<?xml version="1.0" encoding="UTF-8" standalone="no"?>
<!DOCTYPE svg PUBLIC "-//W3C//DTD SVG 1.1//EN"
 "http://www.w3.org/Graphics/SVG/1.1/DTD/svg11.dtd">
<!-- Generated by graphviz version 2.38.0 (20140413.2041)
 -->
<!-- Title: Json::OurReader::recoverFromError Pages: 1 -->
<svg width="1048pt" height="355pt"
 viewBox="0.00 0.00 1048.00 355.00" xmlns="http://www.w3.org/2000/svg" xmlns:xlink="http://www.w3.org/1999/xlink">
<g id="graph0" class="graph" transform="scale(1 1) rotate(0) translate(4 351)">
<title>Json::OurReader::recoverFromError</title>
<!-- Node379 -->
<g id="node1" class="node"><title>Node379</title>
<polygon fill="#bfbfbf" stroke="black" points="0,-202 0,-232 129,-232 129,-202 0,-202"/>
<text text-anchor="start" x="8" y="-220" font-family="Helvetica,sans-Serif" font-size="10.00">Json::OurReader::recover</text>
<text text-anchor="middle" x="64.5" y="-209" font-family="Helvetica,sans-Serif" font-size="10.00">FromError</text>
</g>
<!-- Node380 -->
<g id="node2" class="node"><title>Node380</title>
<g id="a_node2"><a xlink:href="$class_json_1_1_our_reader.html#a0d1e66da47fe2e85f5033c59326dfdc3" xlink:title="Json::OurReader::readToken">
<polygon fill="none" stroke="black" points="165,-207.5 165,-226.5 308,-226.5 308,-207.5 165,-207.5"/>
<text text-anchor="middle" x="236.5" y="-214.5" font-family="Helvetica,sans-Serif" font-size="10.00">Json::OurReader::readToken</text>
</a>
</g>
</g>
<!-- Node379&#45;&gt;Node380 -->
<g id="edge1" class="edge"><title>Node379&#45;&gt;Node380</title>
<path fill="none" stroke="midnightblue" d="M129.285,-217C137.615,-217 146.234,-217 154.795,-217"/>
<polygon fill="midnightblue" stroke="midnightblue" points="154.798,-220.5 164.798,-217 154.798,-213.5 154.798,-220.5"/>
</g>
<!-- Node381 -->
<g id="node3" class="node"><title>Node381</title>
<g id="a_node3"><a xlink:href="$class_json_1_1_our_reader.html#a6fbc6d58a4505e5ccadf330b57b17ca5" xlink:title="Json::OurReader::skipSpaces">
<polygon fill="none" stroke="black" points="349,-327.5 349,-346.5 497,-346.5 497,-327.5 349,-327.5"/>
<text text-anchor="middle" x="423" y="-334.5" font-family="Helvetica,sans-Serif" font-size="10.00">Json::OurReader::skipSpaces</text>
</a>
</g>
</g>
<!-- Node380&#45;&gt;Node381 -->
<g id="edge2" class="edge"><title>Node380&#45;&gt;Node381</title>
<path fill="none" stroke="midnightblue" d="M245.567,-226.675C262.087,-245.885 301.78,-289.048 344,-313 351.79,-317.419 360.488,-321.119 369.171,-324.186"/>
<polygon fill="midnightblue" stroke="midnightblue" points="368.327,-327.592 378.92,-327.384 370.509,-320.941 368.327,-327.592"/>
</g>
<!-- Node382 -->
<g id="node4" class="node"><title>Node382</title>
<g id="a_node4"><a xlink:href="$class_json_1_1_our_reader.html#a298285d035fdbc554caae09d9f0a5859" xlink:title="Json::OurReader::getNextChar">
<polygon fill="none" stroke="black" points="729,-194.5 729,-213.5 881,-213.5 881,-194.5 729,-194.5"/>
<text text-anchor="middle" x="805" y="-201.5" font-family="Helvetica,sans-Serif" font-size="10.00">Json::OurReader::getNextChar</text>
</a>
</g>
</g>
<!-- Node380&#45;&gt;Node382 -->
<g id="edge3" class="edge"><title>Node380&#45;&gt;Node382</title>
<path fill="none" stroke="midnightblue" d="M254.973,-226.631C275.581,-237.489 311.195,-254.709 344,-263 494.56,-301.054 544.65,-325.92 693,-280 730.453,-268.407 766.517,-239.338 786.909,-220.697"/>
<polygon fill="midnightblue" stroke="midnightblue" points="789.511,-223.055 794.408,-213.66 784.721,-217.951 789.511,-223.055"/>
</g>
<!-- Node383 -->
<g id="node5" class="node"><title>Node383</title>
<g id="a_node5"><a xlink:href="$class_json_1_1_our_reader.html#a5d39b12671499ec5975f3bbc84b7d438" xlink:title="Json::OurReader::readString">
<polygon fill="none" stroke="black" points="545,-251.5 545,-270.5 686,-270.5 686,-251.5 545,-251.5"/>
<text text-anchor="middle" x="615.5" y="-258.5" font-family="Helvetica,sans-Serif" font-size="10.00">Json::OurReader::readString</text>
</a>
</g>
</g>
<!-- Node380&#45;&gt;Node383 -->
<g id="edge4" class="edge"><title>Node380&#45;&gt;Node383</title>
<path fill="none" stroke="midnightblue" d="M271.761,-226.52C292.507,-231.913 319.589,-238.302 344,-242 407.734,-251.655 480.674,-256.417 534.74,-258.759"/>
<polygon fill="midnightblue" stroke="midnightblue" points="534.814,-262.265 544.951,-259.182 535.104,-255.271 534.814,-262.265"/>
</g>
<!-- Node384 -->
<g id="node6" class="node"><title>Node384</title>
<g id="a_node6"><a xlink:href="$class_json_1_1_our_reader.html#ac78592defdc333faf56c6d0908758da3" xlink:title="Json::OurReader::readString\lSingleQuote">
<polygon fill="none" stroke="black" points="352.5,-202 352.5,-232 493.5,-232 493.5,-202 352.5,-202"/>
<text text-anchor="start" x="360.5" y="-220" font-family="Helvetica,sans-Serif" font-size="10.00">Json::OurReader::readString</text>
<text text-anchor="middle" x="423" y="-209" font-family="Helvetica,sans-Serif" font-size="10.00">SingleQuote</text>
</a>
</g>
</g>
<!-- Node380&#45;&gt;Node384 -->
<g id="edge6" class="edge"><title>Node380&#45;&gt;Node384</title>
<path fill="none" stroke="midnightblue" d="M308.041,-217C319.179,-217 330.764,-217 342.096,-217"/>
<polygon fill="midnightblue" stroke="midnightblue" points="342.412,-220.5 352.412,-217 342.412,-213.5 342.412,-220.5"/>
</g>
<!-- Node385 -->
<g id="node7" class="node"><title>Node385</title>
<g id="a_node7"><a xlink:href="$class_json_1_1_our_reader.html#a90f6bb9e55b2bc3d6c1880809495c222" xlink:title="Json::OurReader::readComment">
<polygon fill="none" stroke="black" points="344,-147.5 344,-166.5 502,-166.5 502,-147.5 344,-147.5"/>
<text text-anchor="middle" x="423" y="-154.5" font-family="Helvetica,sans-Serif" font-size="10.00">Json::OurReader::readComment</text>
</a>
</g>
</g>
<!-- Node380&#45;&gt;Node385 -->
<g id="edge8" class="edge"><title>Node380&#45;&gt;Node385</title>
<path fill="none" stroke="midnightblue" d="M266.735,-207.493C298.085,-197.297 348.036,-181.053 382.784,-169.753"/>
<polygon fill="midnightblue" stroke="midnightblue" points="384.17,-172.983 392.597,-166.562 382.005,-166.326 384.17,-172.983"/>
</g>
<!-- Node393 -->
<g id="node15" class="node"><title>Node393</title>
<g id="a_node15"><a xlink:href="$class_json_1_1_our_reader.html#aefcb9a78cc45870ccac2db2a66c8ec50" xlink:title="Json::OurReader::readNumber">
<polygon fill="none" stroke="black" points="348,-109.5 348,-128.5 498,-128.5 498,-109.5 348,-109.5"/>
<text text-anchor="middle" x="423" y="-116.5" font-family="Helvetica,sans-Serif" font-size="10.00">Json::OurReader::readNumber</text>
</a>
</g>
</g>
<!-- Node380&#45;&gt;Node393 -->
<g id="edge19" class="edge"><title>Node380&#45;&gt;Node393</title>
<path fill="none" stroke="midnightblue" d="M247.472,-207.396C265.332,-190.731 304.608,-156.477 344,-138 349.254,-135.535 354.863,-133.37 360.572,-131.471"/>
<polygon fill="midnightblue" stroke="midnightblue" points="361.687,-134.791 370.229,-128.523 359.643,-128.096 361.687,-134.791"/>
</g>
<!-- Node394 -->
<g id="node16" class="node"><title>Node394</title>
<g id="a_node16"><a xlink:href="$class_json_1_1_our_reader.html#a4a03f1b266def9b47c4fef35386557fb" xlink:title="Json::OurReader::match">
<polygon fill="none" stroke="black" points="361,-71.5 361,-90.5 485,-90.5 485,-71.5 361,-71.5"/>
<text text-anchor="middle" x="423" y="-78.5" font-family="Helvetica,sans-Serif" font-size="10.00">Json::OurReader::match</text>
</a>
</g>
</g>
<!-- Node380&#45;&gt;Node394 -->
<g id="edge20" class="edge"><title>Node380&#45;&gt;Node394</title>
<path fill="none" stroke="midnightblue" d="M243.348,-207.359C257.562,-184.793 296.287,-128.319 344,-100 347.708,-97.7992 351.659,-95.8529 355.74,-94.1316"/>
<polygon fill="midnightblue" stroke="midnightblue" points="357.3,-97.2853 365.445,-90.51 354.853,-90.727 357.3,-97.2853"/>
</g>
<!-- Node383&#45;&gt;Node382 -->
<g id="edge5" class="edge"><title>Node383&#45;&gt;Node382</title>
<path fill="none" stroke="midnightblue" d="M647.883,-251.459C679.385,-241.883 728.081,-227.079 762.703,-216.554"/>
<polygon fill="midnightblue" stroke="midnightblue" points="763.965,-219.829 772.514,-213.572 761.929,-213.132 763.965,-219.829"/>
</g>
<!-- Node384&#45;&gt;Node382 -->
<g id="edge7" class="edge"><title>Node384&#45;&gt;Node382</title>
<path fill="none" stroke="midnightblue" d="M493.698,-214.616C557.08,-212.447 650.804,-209.241 718.652,-206.92"/>
<polygon fill="midnightblue" stroke="midnightblue" points="719.014,-210.41 728.889,-206.57 718.775,-203.414 719.014,-210.41"/>
</g>
<!-- Node385&#45;&gt;Node382 -->
<g id="edge9" class="edge"><title>Node385&#45;&gt;Node382</title>
<path fill="none" stroke="midnightblue" d="M500.899,-166.511C563.994,-174.315 653.251,-185.355 718.566,-193.433"/>
<polygon fill="midnightblue" stroke="midnightblue" points="718.482,-196.949 728.836,-194.703 719.341,-190.002 718.482,-196.949"/>
</g>
<!-- Node386 -->
<g id="node8" class="node"><title>Node386</title>
<g id="a_node8"><a xlink:href="$class_json_1_1_our_reader.html#aba784b125baa1b62387e767b791f2f89" xlink:title="Json::OurReader::readCStyle\lComment">
<polygon fill="none" stroke="black" points="542.5,-126 542.5,-156 688.5,-156 688.5,-126 542.5,-126"/>
<text text-anchor="start" x="550.5" y="-144" font-family="Helvetica,sans-Serif" font-size="10.00">Json::OurReader::readCStyle</text>
<text text-anchor="middle" x="615.5" y="-133" font-family="Helvetica,sans-Serif" font-size="10.00">Comment</text>
</a>
</g>
</g>
<!-- Node385&#45;&gt;Node386 -->
<g id="edge10" class="edge"><title>Node385&#45;&gt;Node386</title>
<path fill="none" stroke="midnightblue" d="M502.033,-150.446C512.052,-149.605 522.333,-148.741 532.413,-147.894"/>
<polygon fill="midnightblue" stroke="midnightblue" points="532.738,-151.38 542.41,-147.055 532.152,-144.404 532.738,-151.38"/>
</g>
<!-- Node387 -->
<g id="node9" class="node"><title>Node387</title>
<g id="a_node9"><a xlink:href="$class_json_1_1_our_reader.html#ae3de80671f0f997053e1c1c8a47a45c5" xlink:title="Json::OurReader::readCpp\lStyleComment">
<polygon fill="none" stroke="black" points="548.5,-77 548.5,-107 682.5,-107 682.5,-77 548.5,-77"/>
<text text-anchor="start" x="556.5" y="-95" font-family="Helvetica,sans-Serif" font-size="10.00">Json::OurReader::readCpp</text>
<text text-anchor="middle" x="615.5" y="-84" font-family="Helvetica,sans-Serif" font-size="10.00">StyleComment</text>
</a>
</g>
</g>
<!-- Node385&#45;&gt;Node387 -->
<g id="edge12" class="edge"><title>Node385&#45;&gt;Node387</title>
<path fill="none" stroke="midnightblue" d="M472.538,-147.483C482.453,-144.901 492.694,-141.755 502,-138 519.178,-131.069 521.101,-124.586 538,-117 543.019,-114.747 548.304,-112.595 553.654,-110.567"/>
<polygon fill="midnightblue" stroke="midnightblue" points="555.11,-113.762 563.312,-107.056 552.718,-107.184 555.11,-113.762"/>
</g>
<!-- Node388 -->
<g id="node10" class="node"><title>Node388</title>
<g id="a_node10"><a xlink:href="$namespace_json.html#a4d6ab0f651348832e5cc49b577a854d2" xlink:title="Json::containsNewLine">
<polygon fill="none" stroke="black" points="556,-38.5 556,-57.5 675,-57.5 675,-38.5 556,-38.5"/>
<text text-anchor="middle" x="615.5" y="-45.5" font-family="Helvetica,sans-Serif" font-size="10.00">Json::containsNewLine</text>
</a>
</g>
</g>
<!-- Node385&#45;&gt;Node388 -->
<g id="edge14" class="edge"><title>Node385&#45;&gt;Node388</title>
<path fill="none" stroke="midnightblue" d="M485.6,-147.495C491.488,-145.009 497.085,-141.896 502,-138 529.727,-116.023 510.323,-89.0394 538,-67 540.623,-64.9115 543.444,-63.0486 546.402,-61.3875"/>
<polygon fill="midnightblue" stroke="midnightblue" points="548.108,-64.4518 555.624,-56.985 545.092,-58.1347 548.108,-64.4518"/>
</g>
<!-- Node390 -->
<g id="node12" class="node"><title>Node390</title>
<g id="a_node12"><a xlink:href="$class_json_1_1_our_reader.html#ad7318c37469a9106069a236fb4b10e1f" xlink:title="Json::OurReader::addComment">
<polygon fill="none" stroke="black" points="538,-0.5 538,-19.5 693,-19.5 693,-0.5 538,-0.5"/>
<text text-anchor="middle" x="615.5" y="-7.5" font-family="Helvetica,sans-Serif" font-size="10.00">Json::OurReader::addComment</text>
</a>
</g>
</g>
<!-- Node385&#45;&gt;Node390 -->
<g id="edge16" class="edge"><title>Node385&#45;&gt;Node390</title>
<path fill="none" stroke="midnightblue" d="M488.133,-147.322C493.182,-144.845 497.903,-141.781 502,-138 539.49,-103.397 500.588,-63.6871 538,-29 539.671,-27.4503 541.449,-26.0218 543.313,-24.7053"/>
<polygon fill="midnightblue" stroke="midnightblue" points="545.115,-27.7055 551.964,-19.622 541.569,-21.6701 545.115,-27.7055"/>
</g>
<!-- Node386&#45;&gt;Node382 -->
<g id="edge11" class="edge"><title>Node386&#45;&gt;Node382</title>
<path fill="none" stroke="midnightblue" d="M661.411,-156.09C693.24,-166.785 735.49,-180.981 765.721,-191.138"/>
<polygon fill="midnightblue" stroke="midnightblue" points="764.887,-194.55 775.481,-194.417 767.116,-187.915 764.887,-194.55"/>
</g>
<!-- Node387&#45;&gt;Node382 -->
<g id="edge13" class="edge"><title>Node387&#45;&gt;Node382</title>
<path fill="none" stroke="midnightblue" d="M670.575,-107.035C678.284,-109.93 685.974,-113.25 693,-117 729.421,-136.441 766.02,-168.016 786.761,-187.306"/>
<polygon fill="midnightblue" stroke="midnightblue" points="784.472,-189.958 794.145,-194.281 789.279,-184.87 784.472,-189.958"/>
</g>
<!-- Node389 -->
<g id="node11" class="node"><title>Node389</title>
<g id="a_node11"><a xlink:href="$namespace_json.html#a97f039a107b3f6cf1c3edee50e978f76" xlink:title="Json::throwRuntimeError">
<polygon fill="none" stroke="black" points="742.5,-38.5 742.5,-57.5 867.5,-57.5 867.5,-38.5 742.5,-38.5"/>
<text text-anchor="middle" x="805" y="-45.5" font-family="Helvetica,sans-Serif" font-size="10.00">Json::throwRuntimeError</text>
</a>
</g>
</g>
<!-- Node388&#45;&gt;Node389 -->
<g id="edge15" class="edge"><title>Node388&#45;&gt;Node389</title>
<path fill="none" stroke="midnightblue" d="M675.055,-48C693.18,-48 713.358,-48 732.27,-48"/>
<polygon fill="midnightblue" stroke="midnightblue" points="732.324,-51.5001 742.324,-48 732.324,-44.5001 732.324,-51.5001"/>
</g>
<!-- Node391 -->
<g id="node13" class="node"><title>Node391</title>
<g id="a_node13"><a xlink:href="$namespace_json.html#a2e6b8616041876128cbef54b8c75da62" xlink:title="Json::normalizeEOL">
<polygon fill="none" stroke="black" points="752.5,-0.5 752.5,-19.5 857.5,-19.5 857.5,-0.5 752.5,-0.5"/>
<text text-anchor="middle" x="805" y="-7.5" font-family="Helvetica,sans-Serif" font-size="10.00">Json::normalizeEOL</text>
</a>
</g>
</g>
<!-- Node390&#45;&gt;Node391 -->
<g id="edge17" class="edge"><title>Node390&#45;&gt;Node391</title>
<path fill="none" stroke="midnightblue" d="M693.034,-10C709.398,-10 726.487,-10 742.212,-10"/>
<polygon fill="midnightblue" stroke="midnightblue" points="742.328,-13.5001 752.328,-10 742.328,-6.5001 742.328,-13.5001"/>
</g>
<!-- Node392 -->
<g id="node14" class="node"><title>Node392</title>
<g id="a_node14"><a xlink:href="$namespace_json.html#adf0456e397a18cd7218a7b51dfc13c73" xlink:title="Converts a unicode code&#45;point to UTF&#45;8. ">
<polygon fill="none" stroke="black" points="917,-0.5 917,-19.5 1040,-19.5 1040,-0.5 917,-0.5"/>
<text text-anchor="middle" x="978.5" y="-7.5" font-family="Helvetica,sans-Serif" font-size="10.00">Json::codePointToUTF8</text>
</a>
</g>
</g>
<!-- Node391&#45;&gt;Node392 -->
<g id="edge18" class="edge"><title>Node391&#45;&gt;Node392</title>
<path fill="none" stroke="midnightblue" d="M857.921,-10C873.27,-10 890.341,-10 906.668,-10"/>
<polygon fill="midnightblue" stroke="midnightblue" points="906.715,-13.5001 916.715,-10 906.715,-6.5001 906.715,-13.5001"/>
</g>
</g>
</svg>
