<?xml version="1.0" encoding="UTF-8" standalone="no"?>
<!DOCTYPE svg PUBLIC "-//W3C//DTD SVG 1.1//EN"
 "http://www.w3.org/Graphics/SVG/1.1/DTD/svg11.dtd">
<!-- Generated by graphviz version 2.38.0 (20140413.2041)
 -->
<!-- Title: Json::OurReader::skipSpaces Pages: 1 -->
<svg width="1033pt" height="214pt"
 viewBox="0.00 0.00 1033.00 213.50" xmlns="http://www.w3.org/2000/svg" xmlns:xlink="http://www.w3.org/1999/xlink">
<g id="graph0" class="graph" transform="scale(1 1) rotate(0) translate(4 209.5)">
<title>Json::OurReader::skipSpaces</title>
<!-- Node425 -->
<g id="node1" class="node"><title>Node425</title>
<polygon fill="#bfbfbf" stroke="black" points="0,-0.5 0,-19.5 148,-19.5 148,-0.5 0,-0.5"/>
<text text-anchor="middle" x="74" y="-7.5" font-family="Helvetica,sans-Serif" font-size="10.00">Json::OurReader::skipSpaces</text>
</g>
<!-- Node426 -->
<g id="node2" class="node"><title>Node426</title>
<g id="a_node2"><a xlink:href="$class_json_1_1_our_reader.html#a0d1e66da47fe2e85f5033c59326dfdc3" xlink:title="Json::OurReader::readToken">
<polygon fill="none" stroke="black" points="184,-41.5 184,-60.5 327,-60.5 327,-41.5 184,-41.5"/>
<text text-anchor="middle" x="255.5" y="-48.5" font-family="Helvetica,sans-Serif" font-size="10.00">Json::OurReader::readToken</text>
</a>
</g>
</g>
<!-- Node425&#45;&gt;Node426 -->
<g id="edge1" class="edge"><title>Node425&#45;&gt;Node426</title>
<path fill="none" stroke="midnightblue" d="M126.428,-21.7467C153.802,-27.9993 187.032,-35.5895 212.783,-41.4714"/>
<polygon fill="midnightblue" stroke="midnightblue" points="127.16,-18.324 116.632,-19.5093 125.602,-25.1483 127.16,-18.324"/>
</g>
<!-- Node432 -->
<g id="node8" class="node"><title>Node432</title>
<g id="a_node8"><a xlink:href="$class_json_1_1_our_reader.html#a0b9f58faf4212c6ecb5d8e2a1ac10257" xlink:title="Json::OurReader::readArray">
<polygon fill="none" stroke="black" points="735.5,-19.5 735.5,-38.5 874.5,-38.5 874.5,-19.5 735.5,-19.5"/>
<text text-anchor="middle" x="805" y="-26.5" font-family="Helvetica,sans-Serif" font-size="10.00">Json::OurReader::readArray</text>
</a>
</g>
</g>
<!-- Node425&#45;&gt;Node432 -->
<g id="edge19" class="edge"><title>Node425&#45;&gt;Node432</title>
<path fill="none" stroke="midnightblue" d="M158.495,-8.70269C277.956,-7.38553 504.499,-6.88956 697,-18 709.398,-18.7156 722.575,-19.8016 735.289,-21.0174"/>
<polygon fill="midnightblue" stroke="midnightblue" points="158.285,-5.20478 148.326,-8.81969 158.365,-12.2043 158.285,-5.20478"/>
</g>
<!-- Node427 -->
<g id="node3" class="node"><title>Node427</title>
<g id="a_node3"><a xlink:href="$class_json_1_1_our_reader.html#a856dea44d92578c276856d7a65a4ebdc" xlink:title="Json::OurReader::skipComment\lTokens">
<polygon fill="none" stroke="black" points="363,-162 363,-192 521,-192 521,-162 363,-162"/>
<text text-anchor="start" x="371" y="-180" font-family="Helvetica,sans-Serif" font-size="10.00">Json::OurReader::skipComment</text>
<text text-anchor="middle" x="442" y="-169" font-family="Helvetica,sans-Serif" font-size="10.00">Tokens</text>
</a>
</g>
</g>
<!-- Node426&#45;&gt;Node427 -->
<g id="edge2" class="edge"><title>Node426&#45;&gt;Node427</title>
<path fill="none" stroke="midnightblue" d="M271.837,-68.2614C291.279,-89.2727 326.663,-124.703 363,-147 372.398,-152.767 383.091,-157.754 393.481,-161.916"/>
<polygon fill="midnightblue" stroke="midnightblue" points="274.292,-65.7592 264.972,-60.7208 269.116,-70.4716 274.292,-65.7592"/>
</g>
<!-- Node431 -->
<g id="node7" class="node"><title>Node431</title>
<g id="a_node7"><a xlink:href="$class_json_1_1_our_reader.html#aea198f8101dba55099f4d8121a993530" xlink:title="Json::OurReader::readObject">
<polygon fill="none" stroke="black" points="733,-123.5 733,-142.5 877,-142.5 877,-123.5 733,-123.5"/>
<text text-anchor="middle" x="805" y="-130.5" font-family="Helvetica,sans-Serif" font-size="10.00">Json::OurReader::readObject</text>
</a>
</g>
</g>
<!-- Node426&#45;&gt;Node431 -->
<g id="edge11" class="edge"><title>Node426&#45;&gt;Node431</title>
<path fill="none" stroke="midnightblue" d="M306.016,-62.8417C323.919,-66.9421 344.321,-71.4066 363,-75 448.744,-91.4949 470.463,-94.3635 557,-106 616.105,-113.948 683.408,-121.186 732.817,-126.163"/>
<polygon fill="midnightblue" stroke="midnightblue" points="306.608,-59.3862 296.076,-60.5442 305.031,-66.2064 306.608,-59.3862"/>
</g>
<!-- Node426&#45;&gt;Node432 -->
<g id="edge12" class="edge"><title>Node426&#45;&gt;Node432</title>
<path fill="none" stroke="midnightblue" d="M299.468,-38.9568C318.739,-34.0644 341.848,-28.8921 363,-26 510.118,-5.88407 548.708,-10.3975 697,-18 709.402,-18.6358 722.581,-19.6836 735.297,-20.8863"/>
<polygon fill="midnightblue" stroke="midnightblue" points="298.57,-35.5739 289.772,-41.4762 300.331,-42.3489 298.57,-35.5739"/>
</g>
<!-- Node433 -->
<g id="node9" class="node"><title>Node433</title>
<g id="a_node9"><a xlink:href="$class_json_1_1_our_reader.html#a035651f0700a76a815e5f904c63ebb1c" xlink:title="Json::OurReader::recover\lFromError">
<polygon fill="none" stroke="black" points="377.5,-36 377.5,-66 506.5,-66 506.5,-36 377.5,-36"/>
<text text-anchor="start" x="385.5" y="-54" font-family="Helvetica,sans-Serif" font-size="10.00">Json::OurReader::recover</text>
<text text-anchor="middle" x="442" y="-43" font-family="Helvetica,sans-Serif" font-size="10.00">FromError</text>
</a>
</g>
</g>
<!-- Node426&#45;&gt;Node433 -->
<g id="edge13" class="edge"><title>Node426&#45;&gt;Node433</title>
<path fill="none" stroke="midnightblue" d="M337.249,-51C350.708,-51 364.498,-51 377.451,-51"/>
<polygon fill="midnightblue" stroke="midnightblue" points="337.041,-47.5001 327.041,-51 337.041,-54.5001 337.041,-47.5001"/>
</g>
<!-- Node428 -->
<g id="node4" class="node"><title>Node428</title>
<g id="a_node4"><a xlink:href="$class_json_1_1_our_reader.html#aba4f8749aab7f02ec17f107e392caf80" xlink:title="Json::OurReader::parse">
<polygon fill="none" stroke="black" points="744.5,-180.5 744.5,-199.5 865.5,-199.5 865.5,-180.5 744.5,-180.5"/>
<text text-anchor="middle" x="805" y="-187.5" font-family="Helvetica,sans-Serif" font-size="10.00">Json::OurReader::parse</text>
</a>
</g>
</g>
<!-- Node427&#45;&gt;Node428 -->
<g id="edge3" class="edge"><title>Node427&#45;&gt;Node428</title>
<path fill="none" stroke="midnightblue" d="M531.262,-188.067C539.947,-188.855 548.638,-189.525 557,-190 620.898,-193.632 694.245,-193.029 744.304,-191.894"/>
<polygon fill="midnightblue" stroke="midnightblue" points="531.376,-184.562 521.088,-187.093 530.709,-191.53 531.376,-184.562"/>
</g>
<!-- Node430 -->
<g id="node6" class="node"><title>Node430</title>
<g id="a_node6"><a xlink:href="$class_json_1_1_our_reader.html#a1765d9670d191c89a57a22ea5591d35f" xlink:title="Json::OurReader::readValue">
<polygon fill="none" stroke="black" points="557,-161.5 557,-180.5 697,-180.5 697,-161.5 557,-161.5"/>
<text text-anchor="middle" x="627" y="-168.5" font-family="Helvetica,sans-Serif" font-size="10.00">Json::OurReader::readValue</text>
</a>
</g>
</g>
<!-- Node427&#45;&gt;Node430 -->
<g id="edge5" class="edge"><title>Node427&#45;&gt;Node430</title>
<path fill="none" stroke="midnightblue" d="M531.194,-174.108C539.789,-173.827 548.424,-173.543 556.793,-173.269"/>
<polygon fill="midnightblue" stroke="midnightblue" points="531.019,-170.612 521.139,-174.438 531.249,-177.608 531.019,-170.612"/>
</g>
<!-- Node429 -->
<g id="node5" class="node"><title>Node429</title>
<g id="a_node5"><a xlink:href="$class_json_1_1_our_char_reader.html#a52a1fb5fee88d9b63dd462f63b1c9570" xlink:title="Json::OurCharReader\l::parse">
<polygon fill="none" stroke="black" points="913,-175 913,-205 1025,-205 1025,-175 913,-175"/>
<text text-anchor="start" x="921" y="-193" font-family="Helvetica,sans-Serif" font-size="10.00">Json::OurCharReader</text>
<text text-anchor="middle" x="969" y="-182" font-family="Helvetica,sans-Serif" font-size="10.00">::parse</text>
</a>
</g>
</g>
<!-- Node428&#45;&gt;Node429 -->
<g id="edge4" class="edge"><title>Node428&#45;&gt;Node429</title>
<path fill="none" stroke="midnightblue" d="M876.109,-190C888.434,-190 901.101,-190 912.941,-190"/>
<polygon fill="midnightblue" stroke="midnightblue" points="875.863,-186.5 865.863,-190 875.863,-193.5 875.863,-186.5"/>
</g>
<!-- Node430&#45;&gt;Node428 -->
<g id="edge6" class="edge"><title>Node430&#45;&gt;Node428</title>
<path fill="none" stroke="midnightblue" d="M707.019,-179.53C719.534,-180.881 732.293,-182.259 744.271,-183.552"/>
<polygon fill="midnightblue" stroke="midnightblue" points="707.373,-176.048 697.055,-178.455 706.621,-183.008 707.373,-176.048"/>
</g>
<!-- Node430&#45;&gt;Node431 -->
<g id="edge7" class="edge"><title>Node430&#45;&gt;Node431</title>
<path fill="none" stroke="midnightblue" d="M660.323,-158.655C680.627,-153.088 707.641,-146.831 732.763,-141.741"/>
<polygon fill="midnightblue" stroke="midnightblue" points="659.309,-155.304 650.649,-161.408 661.225,-162.037 659.309,-155.304"/>
</g>
<!-- Node430&#45;&gt;Node432 -->
<g id="edge9" class="edge"><title>Node430&#45;&gt;Node432</title>
<path fill="none" stroke="midnightblue" d="M643.358,-154.59C676.145,-124.555 752.777,-62.6678 786.986,-38.5345"/>
<polygon fill="midnightblue" stroke="midnightblue" points="640.902,-152.095 636.02,-161.498 645.7,-157.192 640.902,-152.095"/>
</g>
<!-- Node431&#45;&gt;Node430 -->
<g id="edge8" class="edge"><title>Node431&#45;&gt;Node430</title>
<path fill="none" stroke="midnightblue" d="M771.898,-145.285C750.982,-151.027 722.876,-157.514 697.055,-162.699"/>
<polygon fill="midnightblue" stroke="midnightblue" points="772.89,-148.641 781.547,-142.534 770.971,-141.91 772.89,-148.641"/>
</g>
<!-- Node432&#45;&gt;Node430 -->
<g id="edge10" class="edge"><title>Node432&#45;&gt;Node430</title>
<path fill="none" stroke="midnightblue" d="M788.615,-45.4349C755.871,-75.4267 679.484,-137.12 645.196,-161.337"/>
<polygon fill="midnightblue" stroke="midnightblue" points="791.063,-47.937 795.947,-38.5349 786.266,-42.8392 791.063,-47.937"/>
</g>
<!-- Node433&#45;&gt;Node431 -->
<g id="edge14" class="edge"><title>Node433&#45;&gt;Node431</title>
<path fill="none" stroke="midnightblue" d="M516.89,-67.7838C590.86,-84.5859 702.059,-109.844 762.049,-123.471"/>
<polygon fill="midnightblue" stroke="midnightblue" points="517.235,-64.2733 506.709,-65.4712 515.685,-71.0994 517.235,-64.2733"/>
</g>
<!-- Node433&#45;&gt;Node432 -->
<g id="edge15" class="edge"><title>Node433&#45;&gt;Node432</title>
<path fill="none" stroke="midnightblue" d="M509.943,-33.7992C525.3,-30.5582 541.632,-27.6653 557,-26 617.009,-19.4973 685.696,-21.0519 735.379,-23.7695"/>
<polygon fill="midnightblue" stroke="midnightblue" points="509.033,-30.4152 500.011,-35.9698 510.528,-37.2538 509.033,-30.4152"/>
</g>
<!-- Node434 -->
<g id="node10" class="node"><title>Node434</title>
<g id="a_node10"><a xlink:href="$class_json_1_1_our_reader.html#ae68a7047acd692be8077e259d524c6d9" xlink:title="Json::OurReader::addError\lAndRecover">
<polygon fill="none" stroke="black" points="560,-36 560,-66 694,-66 694,-36 560,-36"/>
<text text-anchor="start" x="568" y="-54" font-family="Helvetica,sans-Serif" font-size="10.00">Json::OurReader::addError</text>
<text text-anchor="middle" x="627" y="-43" font-family="Helvetica,sans-Serif" font-size="10.00">AndRecover</text>
</a>
</g>
</g>
<!-- Node433&#45;&gt;Node434 -->
<g id="edge16" class="edge"><title>Node433&#45;&gt;Node434</title>
<path fill="none" stroke="midnightblue" d="M516.986,-51C531.219,-51 546.038,-51 559.997,-51"/>
<polygon fill="midnightblue" stroke="midnightblue" points="516.748,-47.5001 506.748,-51 516.748,-54.5001 516.748,-47.5001"/>
</g>
<!-- Node434&#45;&gt;Node431 -->
<g id="edge17" class="edge"><title>Node434&#45;&gt;Node431</title>
<path fill="none" stroke="midnightblue" d="M672.883,-70.1872C680.939,-73.724 689.239,-77.4287 697,-81 727.959,-95.2452 763.46,-112.729 784.787,-123.359"/>
<polygon fill="midnightblue" stroke="midnightblue" points="674.15,-66.9213 663.585,-66.1304 671.351,-73.3373 674.15,-66.9213"/>
</g>
<!-- Node434&#45;&gt;Node432 -->
<g id="edge18" class="edge"><title>Node434&#45;&gt;Node432</title>
<path fill="none" stroke="midnightblue" d="M704.248,-41.469C714.554,-40.1808 725.078,-38.8652 735.243,-37.5946"/>
<polygon fill="midnightblue" stroke="midnightblue" points="703.525,-38.032 694.037,-42.7454 704.394,-44.978 703.525,-38.032"/>
</g>
</g>
</svg>
