<?xml version="1.0" encoding="UTF-8" standalone="no"?>
<!DOCTYPE svg PUBLIC "-//W3C//DTD SVG 1.1//EN"
 "http://www.w3.org/Graphics/SVG/1.1/DTD/svg11.dtd">
<!-- Generated by graphviz version 2.38.0 (20140413.2041)
 -->
<!-- Title: Json::OurReader::currentValue Pages: 1 -->
<svg width="861pt" height="209pt"
 viewBox="0.00 0.00 861.00 209.33" xmlns="http://www.w3.org/2000/svg" xmlns:xlink="http://www.w3.org/1999/xlink">
<g id="graph0" class="graph" transform="scale(1 1) rotate(0) translate(4 205.326)">
<title>Json::OurReader::currentValue</title>
<!-- Node55 -->
<g id="node1" class="node"><title>Node55</title>
<polygon fill="#bfbfbf" stroke="black" points="0,-90 0,-120 127,-120 127,-90 0,-90"/>
<text text-anchor="start" x="8" y="-108" font-family="Helvetica,sans-Serif" font-size="10.00">Json::OurReader::current</text>
<text text-anchor="middle" x="63.5" y="-97" font-family="Helvetica,sans-Serif" font-size="10.00">Value</text>
</g>
<!-- Node56 -->
<g id="node2" class="node"><title>Node56</title>
<g id="a_node2"><a xlink:href="$class_json_1_1_our_reader.html#a1765d9670d191c89a57a22ea5591d35f" xlink:title="Json::OurReader::readValue">
<polygon fill="none" stroke="black" points="373.5,-76.5 373.5,-95.5 513.5,-95.5 513.5,-76.5 373.5,-76.5"/>
<text text-anchor="middle" x="443.5" y="-83.5" font-family="Helvetica,sans-Serif" font-size="10.00">Json::OurReader::readValue</text>
</a>
</g>
</g>
<!-- Node55&#45;&gt;Node56 -->
<g id="edge1" class="edge"><title>Node55&#45;&gt;Node56</title>
<path fill="none" stroke="midnightblue" d="M137.569,-101.327C205.705,-97.9024 306.596,-92.8312 373.417,-89.4724"/>
<polygon fill="midnightblue" stroke="midnightblue" points="137.155,-97.8435 127.343,-101.841 137.506,-104.835 137.155,-97.8435"/>
</g>
<!-- Node59 -->
<g id="node5" class="node"><title>Node59</title>
<g id="a_node5"><a xlink:href="$class_json_1_1_our_reader.html#aea198f8101dba55099f4d8121a993530" xlink:title="Json::OurReader::readObject">
<polygon fill="none" stroke="black" points="561,-114.5 561,-133.5 705,-133.5 705,-114.5 561,-114.5"/>
<text text-anchor="middle" x="633" y="-121.5" font-family="Helvetica,sans-Serif" font-size="10.00">Json::OurReader::readObject</text>
</a>
</g>
</g>
<!-- Node55&#45;&gt;Node59 -->
<g id="edge8" class="edge"><title>Node55&#45;&gt;Node59</title>
<path fill="none" stroke="midnightblue" d="M85.2217,-127.739C103.598,-146.087 132.232,-170.51 163,-181 327.197,-236.982 540.205,-161.556 609.297,-133.643"/>
<polygon fill="midnightblue" stroke="midnightblue" points="87.4773,-125.038 77.9981,-120.306 82.4573,-129.916 87.4773,-125.038"/>
</g>
<!-- Node60 -->
<g id="node6" class="node"><title>Node60</title>
<g id="a_node6"><a xlink:href="$class_json_1_1_our_reader.html#a0b9f58faf4212c6ecb5d8e2a1ac10257" xlink:title="Json::OurReader::readArray">
<polygon fill="none" stroke="black" points="563.5,-38.5 563.5,-57.5 702.5,-57.5 702.5,-38.5 563.5,-38.5"/>
<text text-anchor="middle" x="633" y="-45.5" font-family="Helvetica,sans-Serif" font-size="10.00">Json::OurReader::readArray</text>
</a>
</g>
</g>
<!-- Node55&#45;&gt;Node60 -->
<g id="edge9" class="edge"><title>Node55&#45;&gt;Node60</title>
<path fill="none" stroke="midnightblue" d="M137.294,-91.883C145.945,-90.4882 154.661,-89.1583 163,-88 304.649,-68.3243 471.801,-56.857 563.396,-51.5701"/>
<polygon fill="midnightblue" stroke="midnightblue" points="136.495,-88.4673 127.196,-93.5437 137.631,-95.3745 136.495,-88.4673"/>
</g>
<!-- Node61 -->
<g id="node7" class="node"><title>Node61</title>
<g id="a_node7"><a xlink:href="$class_json_1_1_our_reader.html#a272d271290933a89abfd5096dd69c9e9" xlink:title="Json::OurReader::decodeNumber">
<polygon fill="none" stroke="black" points="163,-114.5 163,-133.5 326,-133.5 326,-114.5 163,-114.5"/>
<text text-anchor="middle" x="244.5" y="-121.5" font-family="Helvetica,sans-Serif" font-size="10.00">Json::OurReader::decodeNumber</text>
</a>
</g>
</g>
<!-- Node55&#45;&gt;Node61 -->
<g id="edge10" class="edge"><title>Node55&#45;&gt;Node61</title>
<path fill="none" stroke="midnightblue" d="M137.305,-112.728C145.768,-113.626 154.437,-114.546 162.996,-115.455"/>
<polygon fill="midnightblue" stroke="midnightblue" points="137.419,-109.22 127.106,-111.645 136.68,-116.181 137.419,-109.22"/>
</g>
<!-- Node62 -->
<g id="node8" class="node"><title>Node62</title>
<g id="a_node8"><a xlink:href="$class_json_1_1_our_reader.html#a1d1c3b44f6720a0e7c39b5ae8de3981c" xlink:title="Json::OurReader::decodeDouble">
<polygon fill="none" stroke="black" points="165,-0.5 165,-19.5 324,-19.5 324,-0.5 165,-0.5"/>
<text text-anchor="middle" x="244.5" y="-7.5" font-family="Helvetica,sans-Serif" font-size="10.00">Json::OurReader::decodeDouble</text>
</a>
</g>
</g>
<!-- Node55&#45;&gt;Node62 -->
<g id="edge13" class="edge"><title>Node55&#45;&gt;Node62</title>
<path fill="none" stroke="midnightblue" d="M89.3779,-83.4431C108.44,-67.8598 135.977,-47.2926 163,-34 175.17,-28.0135 189.122,-23.2092 201.954,-19.5182"/>
<polygon fill="midnightblue" stroke="midnightblue" points="86.9516,-80.9087 81.5012,-89.994 91.4277,-86.2906 86.9516,-80.9087"/>
</g>
<!-- Node64 -->
<g id="node10" class="node"><title>Node64</title>
<g id="a_node10"><a xlink:href="$class_json_1_1_our_reader.html#a34e31d8b8399b7ad493359702b6de6c9" xlink:title="Json::OurReader::decodeString">
<polygon fill="none" stroke="black" points="167.5,-152.5 167.5,-171.5 321.5,-171.5 321.5,-152.5 167.5,-152.5"/>
<text text-anchor="middle" x="244.5" y="-159.5" font-family="Helvetica,sans-Serif" font-size="10.00">Json::OurReader::decodeString</text>
</a>
</g>
</g>
<!-- Node55&#45;&gt;Node64 -->
<g id="edge15" class="edge"><title>Node55&#45;&gt;Node64</title>
<path fill="none" stroke="midnightblue" d="M109.578,-123.877C126.196,-130.44 145.288,-137.521 163,-143 174.249,-146.48 186.551,-149.679 198.077,-152.422"/>
<polygon fill="midnightblue" stroke="midnightblue" points="110.694,-120.554 100.11,-120.089 108.094,-127.053 110.694,-120.554"/>
</g>
<!-- Node57 -->
<g id="node3" class="node"><title>Node57</title>
<g id="a_node3"><a xlink:href="$class_json_1_1_our_reader.html#aba4f8749aab7f02ec17f107e392caf80" xlink:title="Json::OurReader::parse">
<polygon fill="none" stroke="black" points="572.5,-76.5 572.5,-95.5 693.5,-95.5 693.5,-76.5 572.5,-76.5"/>
<text text-anchor="middle" x="633" y="-83.5" font-family="Helvetica,sans-Serif" font-size="10.00">Json::OurReader::parse</text>
</a>
</g>
</g>
<!-- Node56&#45;&gt;Node57 -->
<g id="edge2" class="edge"><title>Node56&#45;&gt;Node57</title>
<path fill="none" stroke="midnightblue" d="M523.595,-86C539.934,-86 556.881,-86 572.385,-86"/>
<polygon fill="midnightblue" stroke="midnightblue" points="523.519,-82.5001 513.519,-86 523.519,-89.5001 523.519,-82.5001"/>
</g>
<!-- Node56&#45;&gt;Node59 -->
<g id="edge4" class="edge"><title>Node56&#45;&gt;Node59</title>
<path fill="none" stroke="midnightblue" d="M523.358,-95.3081C553.948,-101.192 586.709,-108.496 608.162,-114.489"/>
<polygon fill="midnightblue" stroke="midnightblue" points="523.995,-91.8667 513.519,-93.4511 522.697,-98.7452 523.995,-91.8667"/>
</g>
<!-- Node56&#45;&gt;Node60 -->
<g id="edge6" class="edge"><title>Node56&#45;&gt;Node60</title>
<path fill="none" stroke="midnightblue" d="M478.493,-73.7685C502.083,-67.6809 534.328,-60.7489 563.177,-55.4148"/>
<polygon fill="midnightblue" stroke="midnightblue" points="477.384,-70.442 468.628,-76.4076 479.193,-77.2042 477.384,-70.442"/>
</g>
<!-- Node58 -->
<g id="node4" class="node"><title>Node58</title>
<g id="a_node4"><a xlink:href="$class_json_1_1_our_char_reader.html#a52a1fb5fee88d9b63dd462f63b1c9570" xlink:title="Json::OurCharReader\l::parse">
<polygon fill="none" stroke="black" points="741,-71 741,-101 853,-101 853,-71 741,-71"/>
<text text-anchor="start" x="749" y="-89" font-family="Helvetica,sans-Serif" font-size="10.00">Json::OurCharReader</text>
<text text-anchor="middle" x="797" y="-78" font-family="Helvetica,sans-Serif" font-size="10.00">::parse</text>
</a>
</g>
</g>
<!-- Node57&#45;&gt;Node58 -->
<g id="edge3" class="edge"><title>Node57&#45;&gt;Node58</title>
<path fill="none" stroke="midnightblue" d="M704.109,-86C716.434,-86 729.101,-86 740.941,-86"/>
<polygon fill="midnightblue" stroke="midnightblue" points="703.863,-82.5001 693.863,-86 703.863,-89.5001 703.863,-82.5001"/>
</g>
<!-- Node59&#45;&gt;Node56 -->
<g id="edge5" class="edge"><title>Node59&#45;&gt;Node56</title>
<path fill="none" stroke="midnightblue" d="M550.692,-114.219C520.952,-108.446 489.511,-101.41 468.628,-95.5924"/>
<polygon fill="midnightblue" stroke="midnightblue" points="550.217,-117.691 560.695,-116.124 551.527,-110.815 550.217,-117.691"/>
</g>
<!-- Node60&#45;&gt;Node56 -->
<g id="edge7" class="edge"><title>Node60&#45;&gt;Node56</title>
<path fill="none" stroke="midnightblue" d="M598.315,-60.152C574.751,-66.2449 542.444,-73.1964 513.519,-78.5489"/>
<polygon fill="midnightblue" stroke="midnightblue" points="599.409,-63.4821 608.162,-57.5114 597.596,-56.721 599.409,-63.4821"/>
</g>
<!-- Node61&#45;&gt;Node56 -->
<g id="edge11" class="edge"><title>Node61&#45;&gt;Node56</title>
<path fill="none" stroke="midnightblue" d="M305.064,-112.511C333.172,-107.089 366.322,-100.694 393.023,-95.5439"/>
<polygon fill="midnightblue" stroke="midnightblue" points="304.113,-109.129 294.957,-114.46 305.439,-116.003 304.113,-109.129"/>
</g>
<!-- Node61&#45;&gt;Node59 -->
<g id="edge12" class="edge"><title>Node61&#45;&gt;Node59</title>
<path fill="none" stroke="midnightblue" d="M336.418,-124C405.012,-124 497.78,-124 560.973,-124"/>
<polygon fill="midnightblue" stroke="midnightblue" points="336.053,-120.5 326.053,-124 336.053,-127.5 336.053,-120.5"/>
</g>
<!-- Node63 -->
<g id="node9" class="node"><title>Node63</title>
<g id="a_node9"><a xlink:href="$class_json_1_1_our_reader.html#a712270d53a2f023c2f406ac813548340" xlink:title="Json::OurReader::decodeNumber">
<polygon fill="none" stroke="black" points="362,-0.5 362,-19.5 525,-19.5 525,-0.5 362,-0.5"/>
<text text-anchor="middle" x="443.5" y="-7.5" font-family="Helvetica,sans-Serif" font-size="10.00">Json::OurReader::decodeNumber</text>
</a>
</g>
</g>
<!-- Node62&#45;&gt;Node63 -->
<g id="edge14" class="edge"><title>Node62&#45;&gt;Node63</title>
<path fill="none" stroke="midnightblue" d="M334.488,-10C343.65,-10 352.922,-10 361.984,-10"/>
<polygon fill="midnightblue" stroke="midnightblue" points="334.209,-6.5001 324.209,-10 334.209,-13.5001 334.209,-6.5001"/>
</g>
<!-- Node64&#45;&gt;Node56 -->
<g id="edge16" class="edge"><title>Node64&#45;&gt;Node56</title>
<path fill="none" stroke="midnightblue" d="M303.626,-149.922C311.229,-147.865 318.855,-145.555 326,-143 363.104,-129.733 403.92,-107.968 426.035,-95.5235"/>
<polygon fill="midnightblue" stroke="midnightblue" points="302.499,-146.598 293.687,-152.479 304.244,-153.377 302.499,-146.598"/>
</g>
<!-- Node64&#45;&gt;Node59 -->
<g id="edge17" class="edge"><title>Node64&#45;&gt;Node59</title>
<path fill="none" stroke="midnightblue" d="M331.622,-155.599C386.931,-151.243 460.273,-145.01 525,-138 537.2,-136.679 550.162,-135.117 562.696,-133.525"/>
<polygon fill="midnightblue" stroke="midnightblue" points="331.206,-152.121 321.51,-156.391 331.753,-159.1 331.206,-152.121"/>
</g>
</g>
</svg>
