<?xml version="1.0" encoding="UTF-8" standalone="no"?>
<!DOCTYPE svg PUBLIC "-//W3C//DTD SVG 1.1//EN"
 "http://www.w3.org/Graphics/SVG/1.1/DTD/svg11.dtd">
<!-- Generated by graphviz version 2.38.0 (20140413.2041)
 -->
<!-- Title: Json::OurReader::decodeString Pages: 1 -->
<svg width="732pt" height="94pt"
 viewBox="0.00 0.00 732.00 94.18" xmlns="http://www.w3.org/2000/svg" xmlns:xlink="http://www.w3.org/1999/xlink">
<g id="graph0" class="graph" transform="scale(1 1) rotate(0) translate(4 90.1767)">
<title>Json::OurReader::decodeString</title>
<!-- Node92 -->
<g id="node1" class="node"><title>Node92</title>
<polygon fill="#bfbfbf" stroke="black" points="0,-44.5 0,-63.5 154,-63.5 154,-44.5 0,-44.5"/>
<text text-anchor="middle" x="77" y="-51.5" font-family="Helvetica,sans-Serif" font-size="10.00">Json::OurReader::decodeString</text>
</g>
<!-- Node93 -->
<g id="node2" class="node"><title>Node93</title>
<g id="a_node2"><a xlink:href="$class_json_1_1_our_reader.html#a5a48b71c1c16fa671814c8338e452bc0" xlink:title="Json::OurReader::addError">
<polygon fill="none" stroke="black" points="590,-50.5 590,-69.5 724,-69.5 724,-50.5 590,-50.5"/>
<text text-anchor="middle" x="657" y="-57.5" font-family="Helvetica,sans-Serif" font-size="10.00">Json::OurReader::addError</text>
</a>
</g>
</g>
<!-- Node92&#45;&gt;Node93 -->
<g id="edge1" class="edge"><title>Node92&#45;&gt;Node93</title>
<path fill="none" stroke="midnightblue" d="M111.493,-63.5002C133.582,-69.2615 163.266,-76.0526 190,-79 326.725,-94.074 487.198,-80.7748 579.693,-70.1213"/>
<polygon fill="midnightblue" stroke="midnightblue" points="580.279,-73.5767 589.803,-68.936 579.464,-66.6243 580.279,-73.5767"/>
</g>
<!-- Node94 -->
<g id="node3" class="node"><title>Node94</title>
<g id="a_node3"><a xlink:href="$class_json_1_1_our_reader.html#ac1bf03c161ece082e48da450c50f528d" xlink:title="Json::OurReader::decodeUnicode\lCodePoint">
<polygon fill="none" stroke="black" points="190,-39 190,-69 354,-69 354,-39 190,-39"/>
<text text-anchor="start" x="198" y="-57" font-family="Helvetica,sans-Serif" font-size="10.00">Json::OurReader::decodeUnicode</text>
<text text-anchor="middle" x="272" y="-46" font-family="Helvetica,sans-Serif" font-size="10.00">CodePoint</text>
</a>
</g>
</g>
<!-- Node92&#45;&gt;Node94 -->
<g id="edge2" class="edge"><title>Node92&#45;&gt;Node94</title>
<path fill="none" stroke="midnightblue" d="M154.002,-54C162.493,-54 171.207,-54 179.863,-54"/>
<polygon fill="midnightblue" stroke="midnightblue" points="179.981,-57.5001 189.981,-54 179.981,-50.5001 179.981,-57.5001"/>
</g>
<!-- Node96 -->
<g id="node5" class="node"><title>Node96</title>
<g id="a_node5"><a xlink:href="$namespace_json.html#adf0456e397a18cd7218a7b51dfc13c73" xlink:title="Converts a unicode code&#45;point to UTF&#45;8. ">
<polygon fill="none" stroke="black" points="210.5,-0.5 210.5,-19.5 333.5,-19.5 333.5,-0.5 210.5,-0.5"/>
<text text-anchor="middle" x="272" y="-7.5" font-family="Helvetica,sans-Serif" font-size="10.00">Json::codePointToUTF8</text>
</a>
</g>
</g>
<!-- Node92&#45;&gt;Node96 -->
<g id="edge6" class="edge"><title>Node92&#45;&gt;Node96</title>
<path fill="none" stroke="midnightblue" d="M119.878,-44.4527C149.089,-37.7931 188.257,-28.8637 219.398,-21.7642"/>
<polygon fill="midnightblue" stroke="midnightblue" points="220.232,-25.164 229.204,-19.5287 218.676,-18.3391 220.232,-25.164"/>
</g>
<!-- Node94&#45;&gt;Node93 -->
<g id="edge5" class="edge"><title>Node94&#45;&gt;Node93</title>
<path fill="none" stroke="midnightblue" d="M354.224,-55.2724C420.818,-56.3157 514.402,-57.7817 579.636,-58.8037"/>
<polygon fill="midnightblue" stroke="midnightblue" points="579.8,-62.3066 589.853,-58.9638 579.909,-55.3075 579.8,-62.3066"/>
</g>
<!-- Node95 -->
<g id="node4" class="node"><title>Node95</title>
<g id="a_node4"><a xlink:href="$class_json_1_1_our_reader.html#adb39be814cc6076b91a0919bdd5b24b0" xlink:title="Json::OurReader::decodeUnicode\lEscapeSequence">
<polygon fill="none" stroke="black" points="390,-1 390,-31 554,-31 554,-1 390,-1"/>
<text text-anchor="start" x="398" y="-19" font-family="Helvetica,sans-Serif" font-size="10.00">Json::OurReader::decodeUnicode</text>
<text text-anchor="middle" x="472" y="-8" font-family="Helvetica,sans-Serif" font-size="10.00">EscapeSequence</text>
</a>
</g>
</g>
<!-- Node94&#45;&gt;Node95 -->
<g id="edge3" class="edge"><title>Node94&#45;&gt;Node95</title>
<path fill="none" stroke="midnightblue" d="M351.255,-38.9814C361.576,-37.0005 372.212,-34.9592 382.687,-32.9489"/>
<polygon fill="midnightblue" stroke="midnightblue" points="383.504,-36.3561 392.665,-31.034 382.185,-29.4816 383.504,-36.3561"/>
</g>
<!-- Node95&#45;&gt;Node93 -->
<g id="edge4" class="edge"><title>Node95&#45;&gt;Node93</title>
<path fill="none" stroke="midnightblue" d="M535.466,-31.0192C558.722,-36.6108 584.769,-42.8735 606.684,-48.1426"/>
<polygon fill="midnightblue" stroke="midnightblue" points="605.896,-51.5528 616.437,-50.4876 607.532,-44.7467 605.896,-51.5528"/>
</g>
</g>
</svg>
