<?xml version="1.0" encoding="UTF-8" standalone="no"?>
<!DOCTYPE svg PUBLIC "-//W3C//DTD SVG 1.1//EN"
 "http://www.w3.org/Graphics/SVG/1.1/DTD/svg11.dtd">
<!-- Generated by graphviz version 2.38.0 (20140413.2041)
 -->
<!-- Title: Json::OurReader::readValue Pages: 1 -->
<svg width="476pt" height="110pt"
 viewBox="0.00 0.00 476.00 109.50" xmlns="http://www.w3.org/2000/svg" xmlns:xlink="http://www.w3.org/1999/xlink">
<g id="graph0" class="graph" transform="scale(1 1) rotate(0) translate(4 105.5)">
<title>Json::OurReader::readValue</title>
<!-- Node374 -->
<g id="node1" class="node"><title>Node374</title>
<polygon fill="#bfbfbf" stroke="black" points="0,-38.5 0,-57.5 140,-57.5 140,-38.5 0,-38.5"/>
<text text-anchor="middle" x="70" y="-45.5" font-family="Helvetica,sans-Serif" font-size="10.00">Json::OurReader::readValue</text>
</g>
<!-- Node375 -->
<g id="node2" class="node"><title>Node375</title>
<g id="a_node2"><a xlink:href="$class_json_1_1_our_reader.html#aba4f8749aab7f02ec17f107e392caf80" xlink:title="Json::OurReader::parse">
<polygon fill="none" stroke="black" points="187.5,-76.5 187.5,-95.5 308.5,-95.5 308.5,-76.5 187.5,-76.5"/>
<text text-anchor="middle" x="248" y="-83.5" font-family="Helvetica,sans-Serif" font-size="10.00">Json::OurReader::parse</text>
</a>
</g>
</g>
<!-- Node374&#45;&gt;Node375 -->
<g id="edge1" class="edge"><title>Node374&#45;&gt;Node375</title>
<path fill="none" stroke="midnightblue" d="M125.433,-59.7526C150.319,-65.1258 179.419,-71.4086 202.907,-76.4799"/>
<polygon fill="midnightblue" stroke="midnightblue" points="125.926,-56.2784 115.412,-57.589 124.448,-63.1207 125.926,-56.2784"/>
</g>
<!-- Node377 -->
<g id="node4" class="node"><title>Node377</title>
<g id="a_node4"><a xlink:href="$class_json_1_1_our_reader.html#aea198f8101dba55099f4d8121a993530" xlink:title="Json::OurReader::readObject">
<polygon fill="none" stroke="black" points="176,-38.5 176,-57.5 320,-57.5 320,-38.5 176,-38.5"/>
<text text-anchor="middle" x="248" y="-45.5" font-family="Helvetica,sans-Serif" font-size="10.00">Json::OurReader::readObject</text>
</a>
</g>
</g>
<!-- Node374&#45;&gt;Node377 -->
<g id="edge3" class="edge"><title>Node374&#45;&gt;Node377</title>
<path fill="none" stroke="midnightblue" d="M150.06,-41.2811C158.645,-41.2212 167.345,-41.2478 175.828,-41.3609"/>
<polygon fill="midnightblue" stroke="midnightblue" points="150.016,-37.7812 140.055,-41.391 150.093,-44.7808 150.016,-37.7812"/>
</g>
<!-- Node378 -->
<g id="node5" class="node"><title>Node378</title>
<g id="a_node5"><a xlink:href="$class_json_1_1_our_reader.html#a0b9f58faf4212c6ecb5d8e2a1ac10257" xlink:title="Json::OurReader::readArray">
<polygon fill="none" stroke="black" points="178.5,-0.5 178.5,-19.5 317.5,-19.5 317.5,-0.5 178.5,-0.5"/>
<text text-anchor="middle" x="248" y="-7.5" font-family="Helvetica,sans-Serif" font-size="10.00">Json::OurReader::readArray</text>
</a>
</g>
</g>
<!-- Node374&#45;&gt;Node378 -->
<g id="edge5" class="edge"><title>Node374&#45;&gt;Node378</title>
<path fill="none" stroke="midnightblue" d="M103.314,-35.6573C124.254,-29.9161 152.336,-23.4396 178.117,-18.2661"/>
<polygon fill="midnightblue" stroke="midnightblue" points="102.309,-32.3041 93.6486,-38.4076 104.225,-39.0368 102.309,-32.3041"/>
</g>
<!-- Node376 -->
<g id="node3" class="node"><title>Node376</title>
<g id="a_node3"><a xlink:href="$class_json_1_1_our_char_reader.html#a52a1fb5fee88d9b63dd462f63b1c9570" xlink:title="Json::OurCharReader\l::parse">
<polygon fill="none" stroke="black" points="356,-71 356,-101 468,-101 468,-71 356,-71"/>
<text text-anchor="start" x="364" y="-89" font-family="Helvetica,sans-Serif" font-size="10.00">Json::OurCharReader</text>
<text text-anchor="middle" x="412" y="-78" font-family="Helvetica,sans-Serif" font-size="10.00">::parse</text>
</a>
</g>
</g>
<!-- Node375&#45;&gt;Node376 -->
<g id="edge2" class="edge"><title>Node375&#45;&gt;Node376</title>
<path fill="none" stroke="midnightblue" d="M319.109,-86C331.434,-86 344.101,-86 355.941,-86"/>
<polygon fill="midnightblue" stroke="midnightblue" points="318.863,-82.5001 308.863,-86 318.863,-89.5001 318.863,-82.5001"/>
</g>
<!-- Node377&#45;&gt;Node374 -->
<g id="edge4" class="edge"><title>Node377&#45;&gt;Node374</title>
<path fill="none" stroke="midnightblue" d="M165.79,-54.7321C157.188,-54.7775 148.499,-54.7365 140.055,-54.609"/>
<polygon fill="midnightblue" stroke="midnightblue" points="165.861,-58.2317 175.828,-54.6391 165.796,-51.232 165.861,-58.2317"/>
</g>
<!-- Node378&#45;&gt;Node374 -->
<g id="edge6" class="edge"><title>Node378&#45;&gt;Node374</title>
<path fill="none" stroke="midnightblue" d="M214.898,-22.2846C193.982,-28.0274 165.876,-34.5142 140.055,-39.6995"/>
<polygon fill="midnightblue" stroke="midnightblue" points="215.89,-25.6414 224.547,-19.5341 213.971,-18.9096 215.89,-25.6414"/>
</g>
</g>
</svg>
