<?xml version="1.0" encoding="UTF-8" standalone="no"?>
<!DOCTYPE svg PUBLIC "-//W3C//DTD SVG 1.1//EN"
 "http://www.w3.org/Graphics/SVG/1.1/DTD/svg11.dtd">
<!-- Generated by graphviz version 2.38.0 (20140413.2041)
 -->
<!-- Title: Json::OurReader::decodeUnicodeEscapeSequence Pages: 1 -->
<svg width="562pt" height="39pt"
 viewBox="0.00 0.00 562.00 39.00" xmlns="http://www.w3.org/2000/svg" xmlns:xlink="http://www.w3.org/1999/xlink">
<g id="graph0" class="graph" transform="scale(1 1) rotate(0) translate(4 35)">
<title>Json::OurReader::decodeUnicodeEscapeSequence</title>
<!-- Node105 -->
<g id="node1" class="node"><title>Node105</title>
<polygon fill="#bfbfbf" stroke="black" points="0,-0.5 0,-30.5 164,-30.5 164,-0.5 0,-0.5"/>
<text text-anchor="start" x="8" y="-18.5" font-family="Helvetica,sans-Serif" font-size="10.00">Json::OurReader::decodeUnicode</text>
<text text-anchor="middle" x="82" y="-7.5" font-family="Helvetica,sans-Serif" font-size="10.00">EscapeSequence</text>
</g>
<!-- Node106 -->
<g id="node2" class="node"><title>Node106</title>
<g id="a_node2"><a xlink:href="$class_json_1_1_our_reader.html#ac1bf03c161ece082e48da450c50f528d" xlink:title="Json::OurReader::decodeUnicode\lCodePoint">
<polygon fill="none" stroke="black" points="200,-0.5 200,-30.5 364,-30.5 364,-0.5 200,-0.5"/>
<text text-anchor="start" x="208" y="-18.5" font-family="Helvetica,sans-Serif" font-size="10.00">Json::OurReader::decodeUnicode</text>
<text text-anchor="middle" x="282" y="-7.5" font-family="Helvetica,sans-Serif" font-size="10.00">CodePoint</text>
</a>
</g>
</g>
<!-- Node105&#45;&gt;Node106 -->
<g id="edge1" class="edge"><title>Node105&#45;&gt;Node106</title>
<path fill="none" stroke="midnightblue" d="M174.363,-15.5C182.817,-15.5 191.346,-15.5 199.7,-15.5"/>
<polygon fill="midnightblue" stroke="midnightblue" points="174.106,-12.0001 164.105,-15.5 174.105,-19.0001 174.106,-12.0001"/>
</g>
<!-- Node107 -->
<g id="node3" class="node"><title>Node107</title>
<g id="a_node3"><a xlink:href="$class_json_1_1_our_reader.html#a44b589a85f02f0e2de1b4ad6916be0c5" xlink:title="Json::OurReader::decodeString">
<polygon fill="none" stroke="black" points="400,-6 400,-25 554,-25 554,-6 400,-6"/>
<text text-anchor="middle" x="477" y="-13" font-family="Helvetica,sans-Serif" font-size="10.00">Json::OurReader::decodeString</text>
</a>
</g>
</g>
<!-- Node106&#45;&gt;Node107 -->
<g id="edge2" class="edge"><title>Node106&#45;&gt;Node107</title>
<path fill="none" stroke="midnightblue" d="M374.08,-15.5C382.694,-15.5 391.365,-15.5 399.819,-15.5"/>
<polygon fill="midnightblue" stroke="midnightblue" points="374.011,-12.0001 364.01,-15.5 374.01,-19.0001 374.011,-12.0001"/>
</g>
</g>
</svg>
