<?xml version="1.0" encoding="UTF-8" standalone="no"?>
<!DOCTYPE svg PUBLIC "-//W3C//DTD SVG 1.1//EN"
 "http://www.w3.org/Graphics/SVG/1.1/DTD/svg11.dtd">
<!-- Generated by graphviz version 2.38.0 (20140413.2041)
 -->
<!-- Title: Json::OurReader::skipCommentTokens Pages: 1 -->
<svg width="670pt" height="110pt"
 viewBox="0.00 0.00 670.00 109.50" xmlns="http://www.w3.org/2000/svg" xmlns:xlink="http://www.w3.org/1999/xlink">
<g id="graph0" class="graph" transform="scale(1 1) rotate(0) translate(4 105.5)">
<title>Json::OurReader::skipCommentTokens</title>
<!-- Node418 -->
<g id="node1" class="node"><title>Node418</title>
<polygon fill="#bfbfbf" stroke="black" points="0,-52 0,-82 158,-82 158,-52 0,-52"/>
<text text-anchor="start" x="8" y="-70" font-family="Helvetica,sans-Serif" font-size="10.00">Json::OurReader::skipComment</text>
<text text-anchor="middle" x="79" y="-59" font-family="Helvetica,sans-Serif" font-size="10.00">Tokens</text>
</g>
<!-- Node419 -->
<g id="node2" class="node"><title>Node419</title>
<g id="a_node2"><a xlink:href="$class_json_1_1_our_reader.html#aba4f8749aab7f02ec17f107e392caf80" xlink:title="Json::OurReader::parse">
<polygon fill="none" stroke="black" points="381.5,-76.5 381.5,-95.5 502.5,-95.5 502.5,-76.5 381.5,-76.5"/>
<text text-anchor="middle" x="442" y="-83.5" font-family="Helvetica,sans-Serif" font-size="10.00">Json::OurReader::parse</text>
</a>
</g>
</g>
<!-- Node418&#45;&gt;Node419 -->
<g id="edge1" class="edge"><title>Node418&#45;&gt;Node419</title>
<path fill="none" stroke="midnightblue" d="M168.336,-71.6493C234.505,-75.1318 323.257,-79.803 381.265,-82.856"/>
<polygon fill="midnightblue" stroke="midnightblue" points="168.502,-68.1532 158.332,-71.1227 168.134,-75.1436 168.502,-68.1532"/>
</g>
<!-- Node421 -->
<g id="node4" class="node"><title>Node421</title>
<g id="a_node4"><a xlink:href="$class_json_1_1_our_reader.html#a1765d9670d191c89a57a22ea5591d35f" xlink:title="Json::OurReader::readValue">
<polygon fill="none" stroke="black" points="194,-38.5 194,-57.5 334,-57.5 334,-38.5 194,-38.5"/>
<text text-anchor="middle" x="264" y="-45.5" font-family="Helvetica,sans-Serif" font-size="10.00">Json::OurReader::readValue</text>
</a>
</g>
</g>
<!-- Node418&#45;&gt;Node421 -->
<g id="edge3" class="edge"><title>Node418&#45;&gt;Node421</title>
<path fill="none" stroke="midnightblue" d="M168.194,-57.8433C176.789,-56.9509 185.424,-56.0544 193.793,-55.1854"/>
<polygon fill="midnightblue" stroke="midnightblue" points="167.724,-54.3731 158.139,-58.8872 168.447,-61.3357 167.724,-54.3731"/>
</g>
<!-- Node420 -->
<g id="node3" class="node"><title>Node420</title>
<g id="a_node3"><a xlink:href="$class_json_1_1_our_char_reader.html#a52a1fb5fee88d9b63dd462f63b1c9570" xlink:title="Json::OurCharReader\l::parse">
<polygon fill="none" stroke="black" points="550,-71 550,-101 662,-101 662,-71 550,-71"/>
<text text-anchor="start" x="558" y="-89" font-family="Helvetica,sans-Serif" font-size="10.00">Json::OurCharReader</text>
<text text-anchor="middle" x="606" y="-78" font-family="Helvetica,sans-Serif" font-size="10.00">::parse</text>
</a>
</g>
</g>
<!-- Node419&#45;&gt;Node420 -->
<g id="edge2" class="edge"><title>Node419&#45;&gt;Node420</title>
<path fill="none" stroke="midnightblue" d="M513.109,-86C525.434,-86 538.101,-86 549.941,-86"/>
<polygon fill="midnightblue" stroke="midnightblue" points="512.863,-82.5001 502.863,-86 512.863,-89.5001 512.863,-82.5001"/>
</g>
<!-- Node421&#45;&gt;Node419 -->
<g id="edge4" class="edge"><title>Node421&#45;&gt;Node419</title>
<path fill="none" stroke="midnightblue" d="M319.433,-59.7526C344.319,-65.1258 373.419,-71.4086 396.907,-76.4799"/>
<polygon fill="midnightblue" stroke="midnightblue" points="319.926,-56.2784 309.412,-57.589 318.448,-63.1207 319.926,-56.2784"/>
</g>
<!-- Node422 -->
<g id="node5" class="node"><title>Node422</title>
<g id="a_node5"><a xlink:href="$class_json_1_1_our_reader.html#aea198f8101dba55099f4d8121a993530" xlink:title="Json::OurReader::readObject">
<polygon fill="none" stroke="black" points="370,-38.5 370,-57.5 514,-57.5 514,-38.5 370,-38.5"/>
<text text-anchor="middle" x="442" y="-45.5" font-family="Helvetica,sans-Serif" font-size="10.00">Json::OurReader::readObject</text>
</a>
</g>
</g>
<!-- Node421&#45;&gt;Node422 -->
<g id="edge5" class="edge"><title>Node421&#45;&gt;Node422</title>
<path fill="none" stroke="midnightblue" d="M344.06,-41.2811C352.645,-41.2212 361.345,-41.2478 369.828,-41.3609"/>
<polygon fill="midnightblue" stroke="midnightblue" points="344.016,-37.7812 334.055,-41.391 344.093,-44.7808 344.016,-37.7812"/>
</g>
<!-- Node423 -->
<g id="node6" class="node"><title>Node423</title>
<g id="a_node6"><a xlink:href="$class_json_1_1_our_reader.html#a0b9f58faf4212c6ecb5d8e2a1ac10257" xlink:title="Json::OurReader::readArray">
<polygon fill="none" stroke="black" points="372.5,-0.5 372.5,-19.5 511.5,-19.5 511.5,-0.5 372.5,-0.5"/>
<text text-anchor="middle" x="442" y="-7.5" font-family="Helvetica,sans-Serif" font-size="10.00">Json::OurReader::readArray</text>
</a>
</g>
</g>
<!-- Node421&#45;&gt;Node423 -->
<g id="edge7" class="edge"><title>Node421&#45;&gt;Node423</title>
<path fill="none" stroke="midnightblue" d="M297.314,-35.6573C318.254,-29.9161 346.336,-23.4396 372.117,-18.2661"/>
<polygon fill="midnightblue" stroke="midnightblue" points="296.309,-32.3041 287.649,-38.4076 298.225,-39.0368 296.309,-32.3041"/>
</g>
<!-- Node422&#45;&gt;Node421 -->
<g id="edge6" class="edge"><title>Node422&#45;&gt;Node421</title>
<path fill="none" stroke="midnightblue" d="M359.79,-54.7321C351.188,-54.7775 342.499,-54.7365 334.055,-54.609"/>
<polygon fill="midnightblue" stroke="midnightblue" points="359.861,-58.2317 369.828,-54.6391 359.796,-51.232 359.861,-58.2317"/>
</g>
<!-- Node423&#45;&gt;Node421 -->
<g id="edge8" class="edge"><title>Node423&#45;&gt;Node421</title>
<path fill="none" stroke="midnightblue" d="M408.898,-22.2846C387.982,-28.0274 359.876,-34.5142 334.055,-39.6995"/>
<polygon fill="midnightblue" stroke="midnightblue" points="409.89,-25.6414 418.547,-19.5341 407.971,-18.9096 409.89,-25.6414"/>
</g>
</g>
</svg>
