<?xml version="1.0" encoding="UTF-8" standalone="no"?>
<!DOCTYPE svg PUBLIC "-//W3C//DTD SVG 1.1//EN"
 "http://www.w3.org/Graphics/SVG/1.1/DTD/svg11.dtd">
<!-- Generated by graphviz version 2.38.0 (20140413.2041)
 -->
<!-- Title: Json::OurReader::readComment Pages: 1 -->
<svg width="1043pt" height="176pt"
 viewBox="0.00 0.00 1043.00 176.06" xmlns="http://www.w3.org/2000/svg" xmlns:xlink="http://www.w3.org/1999/xlink">
<g id="graph0" class="graph" transform="scale(1 1) rotate(0) translate(4 172.056)">
<title>Json::OurReader::readComment</title>
<!-- Node224 -->
<g id="node1" class="node"><title>Node224</title>
<polygon fill="#bfbfbf" stroke="black" points="0,-66.056 0,-85.056 158,-85.056 158,-66.056 0,-66.056"/>
<text text-anchor="middle" x="79" y="-73.056" font-family="Helvetica,sans-Serif" font-size="10.00">Json::OurReader::readComment</text>
</g>
<!-- Node225 -->
<g id="node2" class="node"><title>Node225</title>
<g id="a_node2"><a xlink:href="$class_json_1_1_our_reader.html#a0d1e66da47fe2e85f5033c59326dfdc3" xlink:title="Json::OurReader::readToken">
<polygon fill="none" stroke="black" points="194,-66.056 194,-85.056 337,-85.056 337,-66.056 194,-66.056"/>
<text text-anchor="middle" x="265.5" y="-73.056" font-family="Helvetica,sans-Serif" font-size="10.00">Json::OurReader::readToken</text>
</a>
</g>
</g>
<!-- Node224&#45;&gt;Node225 -->
<g id="edge1" class="edge"><title>Node224&#45;&gt;Node225</title>
<path fill="none" stroke="midnightblue" d="M168.245,-75.556C176.797,-75.556 185.395,-75.556 193.745,-75.556"/>
<polygon fill="midnightblue" stroke="midnightblue" points="168.245,-72.0561 158.245,-75.556 168.245,-79.0561 168.245,-72.0561"/>
</g>
<!-- Node226 -->
<g id="node3" class="node"><title>Node226</title>
<g id="a_node3"><a xlink:href="$class_json_1_1_our_reader.html#a856dea44d92578c276856d7a65a4ebdc" xlink:title="Json::OurReader::skipComment\lTokens">
<polygon fill="none" stroke="black" points="373,-85.556 373,-115.556 531,-115.556 531,-85.556 373,-85.556"/>
<text text-anchor="start" x="381" y="-103.556" font-family="Helvetica,sans-Serif" font-size="10.00">Json::OurReader::skipComment</text>
<text text-anchor="middle" x="452" y="-92.556" font-family="Helvetica,sans-Serif" font-size="10.00">Tokens</text>
</a>
</g>
</g>
<!-- Node225&#45;&gt;Node226 -->
<g id="edge2" class="edge"><title>Node225&#45;&gt;Node226</title>
<path fill="none" stroke="midnightblue" d="M346.847,-86.4432C355.497,-87.6152 364.288,-88.8064 372.91,-89.9747"/>
<polygon fill="midnightblue" stroke="midnightblue" points="347.157,-82.9532 336.778,-85.0787 346.217,-89.8899 347.157,-82.9532"/>
</g>
<!-- Node230 -->
<g id="node7" class="node"><title>Node230</title>
<g id="a_node7"><a xlink:href="$class_json_1_1_our_reader.html#aea198f8101dba55099f4d8121a993530" xlink:title="Json::OurReader::readObject">
<polygon fill="none" stroke="black" points="743,-86.056 743,-105.056 887,-105.056 887,-86.056 743,-86.056"/>
<text text-anchor="middle" x="815" y="-93.056" font-family="Helvetica,sans-Serif" font-size="10.00">Json::OurReader::readObject</text>
</a>
</g>
</g>
<!-- Node225&#45;&gt;Node230 -->
<g id="edge11" class="edge"><title>Node225&#45;&gt;Node230</title>
<path fill="none" stroke="midnightblue" d="M291.284,-90.1663C312.272,-101.739 343.56,-117.149 373,-124.556 517.05,-160.801 560.939,-163.582 707,-136.556 739.276,-130.584 774.396,-115.278 795.286,-105.151"/>
<polygon fill="midnightblue" stroke="midnightblue" points="292.839,-87.0249 282.409,-85.1617 289.401,-93.1223 292.839,-87.0249"/>
</g>
<!-- Node231 -->
<g id="node8" class="node"><title>Node231</title>
<g id="a_node8"><a xlink:href="$class_json_1_1_our_reader.html#a0b9f58faf4212c6ecb5d8e2a1ac10257" xlink:title="Json::OurReader::readArray">
<polygon fill="none" stroke="black" points="745.5,-42.056 745.5,-61.056 884.5,-61.056 884.5,-42.056 745.5,-42.056"/>
<text text-anchor="middle" x="815" y="-49.056" font-family="Helvetica,sans-Serif" font-size="10.00">Json::OurReader::readArray</text>
</a>
</g>
</g>
<!-- Node225&#45;&gt;Node231 -->
<g id="edge12" class="edge"><title>Node225&#45;&gt;Node231</title>
<path fill="none" stroke="midnightblue" d="M291.255,-60.827C312.226,-49.1836 343.504,-33.7362 373,-26.556 517.285,8.56752 560.255,5.19804 707,-17.556 736.855,-22.1853 769.783,-33.6729 791.118,-42.0168"/>
<polygon fill="midnightblue" stroke="midnightblue" points="289.353,-57.8819 282.388,-65.8656 292.812,-63.9678 289.353,-57.8819"/>
</g>
<!-- Node232 -->
<g id="node9" class="node"><title>Node232</title>
<g id="a_node9"><a xlink:href="$class_json_1_1_our_reader.html#a035651f0700a76a815e5f904c63ebb1c" xlink:title="Json::OurReader::recover\lFromError">
<polygon fill="none" stroke="black" points="387.5,-36.556 387.5,-66.556 516.5,-66.556 516.5,-36.556 387.5,-36.556"/>
<text text-anchor="start" x="395.5" y="-54.556" font-family="Helvetica,sans-Serif" font-size="10.00">Json::OurReader::recover</text>
<text text-anchor="middle" x="452" y="-43.556" font-family="Helvetica,sans-Serif" font-size="10.00">FromError</text>
</a>
</g>
</g>
<!-- Node225&#45;&gt;Node232 -->
<g id="edge13" class="edge"><title>Node225&#45;&gt;Node232</title>
<path fill="none" stroke="midnightblue" d="M347.249,-65.052C360.708,-63.3013 374.498,-61.5074 387.451,-59.8226"/>
<polygon fill="midnightblue" stroke="midnightblue" points="346.506,-61.6191 337.041,-66.3799 347.409,-68.5606 346.506,-61.6191"/>
</g>
<!-- Node227 -->
<g id="node4" class="node"><title>Node227</title>
<g id="a_node4"><a xlink:href="$class_json_1_1_our_reader.html#aba4f8749aab7f02ec17f107e392caf80" xlink:title="Json::OurReader::parse">
<polygon fill="none" stroke="black" points="754.5,-143.056 754.5,-162.056 875.5,-162.056 875.5,-143.056 754.5,-143.056"/>
<text text-anchor="middle" x="815" y="-150.056" font-family="Helvetica,sans-Serif" font-size="10.00">Json::OurReader::parse</text>
</a>
</g>
</g>
<!-- Node226&#45;&gt;Node227 -->
<g id="edge3" class="edge"><title>Node226&#45;&gt;Node227</title>
<path fill="none" stroke="midnightblue" d="M501.963,-118.87C521.868,-125.561 545.261,-132.481 567,-136.556 630.249,-148.411 704.02,-151.871 754.36,-152.702"/>
<polygon fill="midnightblue" stroke="midnightblue" points="503.09,-115.557 492.495,-115.618 500.815,-122.177 503.09,-115.557"/>
</g>
<!-- Node229 -->
<g id="node6" class="node"><title>Node229</title>
<g id="a_node6"><a xlink:href="$class_json_1_1_our_reader.html#a1765d9670d191c89a57a22ea5591d35f" xlink:title="Json::OurReader::readValue">
<polygon fill="none" stroke="black" points="567,-86.056 567,-105.056 707,-105.056 707,-86.056 567,-86.056"/>
<text text-anchor="middle" x="637" y="-93.056" font-family="Helvetica,sans-Serif" font-size="10.00">Json::OurReader::readValue</text>
</a>
</g>
</g>
<!-- Node226&#45;&gt;Node229 -->
<g id="edge5" class="edge"><title>Node226&#45;&gt;Node229</title>
<path fill="none" stroke="midnightblue" d="M541.194,-98.1463C549.789,-97.9115 558.424,-97.6756 566.793,-97.4469"/>
<polygon fill="midnightblue" stroke="midnightblue" points="541.04,-94.6491 531.139,-98.421 541.231,-101.647 541.04,-94.6491"/>
</g>
<!-- Node228 -->
<g id="node5" class="node"><title>Node228</title>
<g id="a_node5"><a xlink:href="$class_json_1_1_our_char_reader.html#a52a1fb5fee88d9b63dd462f63b1c9570" xlink:title="Json::OurCharReader\l::parse">
<polygon fill="none" stroke="black" points="923,-137.556 923,-167.556 1035,-167.556 1035,-137.556 923,-137.556"/>
<text text-anchor="start" x="931" y="-155.556" font-family="Helvetica,sans-Serif" font-size="10.00">Json::OurCharReader</text>
<text text-anchor="middle" x="979" y="-144.556" font-family="Helvetica,sans-Serif" font-size="10.00">::parse</text>
</a>
</g>
</g>
<!-- Node227&#45;&gt;Node228 -->
<g id="edge4" class="edge"><title>Node227&#45;&gt;Node228</title>
<path fill="none" stroke="midnightblue" d="M886.109,-152.556C898.434,-152.556 911.101,-152.556 922.941,-152.556"/>
<polygon fill="midnightblue" stroke="midnightblue" points="885.863,-149.056 875.863,-152.556 885.863,-156.056 885.863,-149.056"/>
</g>
<!-- Node229&#45;&gt;Node227 -->
<g id="edge6" class="edge"><title>Node229&#45;&gt;Node227</title>
<path fill="none" stroke="midnightblue" d="M677.077,-108.212C709.521,-118.719 754.968,-133.438 784.445,-142.984"/>
<polygon fill="midnightblue" stroke="midnightblue" points="678.05,-104.848 667.458,-105.096 675.894,-111.507 678.05,-104.848"/>
</g>
<!-- Node229&#45;&gt;Node230 -->
<g id="edge7" class="edge"><title>Node229&#45;&gt;Node230</title>
<path fill="none" stroke="midnightblue" d="M717.06,-88.837C725.645,-88.7772 734.345,-88.8038 742.828,-88.9169"/>
<polygon fill="midnightblue" stroke="midnightblue" points="717.016,-85.3372 707.055,-88.947 717.093,-92.3368 717.016,-85.3372"/>
</g>
<!-- Node229&#45;&gt;Node231 -->
<g id="edge9" class="edge"><title>Node229&#45;&gt;Node231</title>
<path fill="none" stroke="midnightblue" d="M667.768,-82.9024C690.106,-75.9055 721.525,-67.6108 749.518,-61.1454"/>
<polygon fill="midnightblue" stroke="midnightblue" points="666.619,-79.5958 658.189,-86.0147 668.782,-86.2533 666.619,-79.5958"/>
</g>
<!-- Node230&#45;&gt;Node229 -->
<g id="edge8" class="edge"><title>Node230&#45;&gt;Node229</title>
<path fill="none" stroke="midnightblue" d="M732.79,-102.288C724.188,-102.334 715.499,-102.292 707.055,-102.165"/>
<polygon fill="midnightblue" stroke="midnightblue" points="732.861,-105.788 742.828,-102.195 732.796,-98.788 732.861,-105.788"/>
</g>
<!-- Node231&#45;&gt;Node229 -->
<g id="edge10" class="edge"><title>Node231&#45;&gt;Node229</title>
<path fill="none" stroke="midnightblue" d="M784.054,-64.2652C761.742,-71.2459 730.442,-79.5076 702.537,-85.9539"/>
<polygon fill="midnightblue" stroke="midnightblue" points="785.196,-67.5743 793.628,-61.1591 783.036,-60.9159 785.196,-67.5743"/>
</g>
<!-- Node232&#45;&gt;Node230 -->
<g id="edge14" class="edge"><title>Node232&#45;&gt;Node230</title>
<path fill="none" stroke="midnightblue" d="M522.838,-70.932C525.653,-72.3712 528.387,-73.9105 531,-75.556 550.962,-88.1249 545.391,-105.095 567,-114.556 642.053,-147.417 742.181,-120.85 788.505,-105.104"/>
<polygon fill="midnightblue" stroke="midnightblue" points="524.167,-67.6903 513.621,-66.6686 521.228,-74.0436 524.167,-67.6903"/>
</g>
<!-- Node232&#45;&gt;Node231 -->
<g id="edge15" class="edge"><title>Node232&#45;&gt;Node231</title>
<path fill="none" stroke="midnightblue" d="M519.943,-34.3552C535.3,-31.1142 551.632,-28.2213 567,-26.556 628.86,-19.8527 645.187,-19.4308 707,-26.556 732.395,-29.4832 760.521,-36.1957 781.561,-41.9287"/>
<polygon fill="midnightblue" stroke="midnightblue" points="519.033,-30.9712 510.011,-36.5258 520.528,-37.8097 519.033,-30.9712"/>
</g>
<!-- Node233 -->
<g id="node10" class="node"><title>Node233</title>
<g id="a_node10"><a xlink:href="$class_json_1_1_our_reader.html#ae68a7047acd692be8077e259d524c6d9" xlink:title="Json::OurReader::addError\lAndRecover">
<polygon fill="none" stroke="black" points="570,-36.556 570,-66.556 704,-66.556 704,-36.556 570,-36.556"/>
<text text-anchor="start" x="578" y="-54.556" font-family="Helvetica,sans-Serif" font-size="10.00">Json::OurReader::addError</text>
<text text-anchor="middle" x="637" y="-43.556" font-family="Helvetica,sans-Serif" font-size="10.00">AndRecover</text>
</a>
</g>
</g>
<!-- Node232&#45;&gt;Node233 -->
<g id="edge16" class="edge"><title>Node232&#45;&gt;Node233</title>
<path fill="none" stroke="midnightblue" d="M526.986,-51.556C541.219,-51.556 556.038,-51.556 569.997,-51.556"/>
<polygon fill="midnightblue" stroke="midnightblue" points="526.748,-48.0561 516.748,-51.556 526.748,-55.0561 526.748,-48.0561"/>
</g>
<!-- Node233&#45;&gt;Node230 -->
<g id="edge17" class="edge"><title>Node233&#45;&gt;Node230</title>
<path fill="none" stroke="midnightblue" d="M707.896,-69.03C731.105,-74.8323 756.07,-81.0736 775.95,-86.0436"/>
<polygon fill="midnightblue" stroke="midnightblue" points="708.627,-65.6052 698.077,-66.5752 706.929,-72.3962 708.627,-65.6052"/>
</g>
<!-- Node233&#45;&gt;Node231 -->
<g id="edge18" class="edge"><title>Node233&#45;&gt;Node231</title>
<path fill="none" stroke="midnightblue" d="M714.248,-51.556C724.554,-51.556 735.078,-51.556 745.243,-51.556"/>
<polygon fill="midnightblue" stroke="midnightblue" points="714.037,-48.0561 704.037,-51.556 714.037,-55.0561 714.037,-48.0561"/>
</g>
</g>
</svg>
