<?xml version="1.0" encoding="UTF-8" standalone="no"?>
<!DOCTYPE svg PUBLIC "-//W3C//DTD SVG 1.1//EN"
 "http://www.w3.org/Graphics/SVG/1.1/DTD/svg11.dtd">
<!-- Generated by graphviz version 2.38.0 (20140413.2041)
 -->
<!-- Title: Json::OurReader::readToken Pages: 1 -->
<svg width="849pt" height="176pt"
 viewBox="0.00 0.00 849.00 176.06" xmlns="http://www.w3.org/2000/svg" xmlns:xlink="http://www.w3.org/1999/xlink">
<g id="graph0" class="graph" transform="scale(1 1) rotate(0) translate(4 172.056)">
<title>Json::OurReader::readToken</title>
<!-- Node340 -->
<g id="node1" class="node"><title>Node340</title>
<polygon fill="#bfbfbf" stroke="black" points="0,-66.056 0,-85.056 143,-85.056 143,-66.056 0,-66.056"/>
<text text-anchor="middle" x="71.5" y="-73.056" font-family="Helvetica,sans-Serif" font-size="10.00">Json::OurReader::readToken</text>
</g>
<!-- Node341 -->
<g id="node2" class="node"><title>Node341</title>
<g id="a_node2"><a xlink:href="$class_json_1_1_our_reader.html#a856dea44d92578c276856d7a65a4ebdc" xlink:title="Json::OurReader::skipComment\lTokens">
<polygon fill="none" stroke="black" points="179,-85.556 179,-115.556 337,-115.556 337,-85.556 179,-85.556"/>
<text text-anchor="start" x="187" y="-103.556" font-family="Helvetica,sans-Serif" font-size="10.00">Json::OurReader::skipComment</text>
<text text-anchor="middle" x="258" y="-92.556" font-family="Helvetica,sans-Serif" font-size="10.00">Tokens</text>
</a>
</g>
</g>
<!-- Node340&#45;&gt;Node341 -->
<g id="edge1" class="edge"><title>Node340&#45;&gt;Node341</title>
<path fill="none" stroke="midnightblue" d="M152.847,-86.4432C161.497,-87.6152 170.288,-88.8064 178.91,-89.9747"/>
<polygon fill="midnightblue" stroke="midnightblue" points="153.157,-82.9532 142.778,-85.0787 152.217,-89.8899 153.157,-82.9532"/>
</g>
<!-- Node345 -->
<g id="node6" class="node"><title>Node345</title>
<g id="a_node6"><a xlink:href="$class_json_1_1_our_reader.html#aea198f8101dba55099f4d8121a993530" xlink:title="Json::OurReader::readObject">
<polygon fill="none" stroke="black" points="549,-86.056 549,-105.056 693,-105.056 693,-86.056 549,-86.056"/>
<text text-anchor="middle" x="621" y="-93.056" font-family="Helvetica,sans-Serif" font-size="10.00">Json::OurReader::readObject</text>
</a>
</g>
</g>
<!-- Node340&#45;&gt;Node345 -->
<g id="edge10" class="edge"><title>Node340&#45;&gt;Node345</title>
<path fill="none" stroke="midnightblue" d="M97.2841,-90.1663C118.272,-101.739 149.56,-117.149 179,-124.556 323.05,-160.801 366.939,-163.582 513,-136.556 545.276,-130.584 580.396,-115.278 601.286,-105.151"/>
<polygon fill="midnightblue" stroke="midnightblue" points="98.8389,-87.0249 88.4091,-85.1617 95.4005,-93.1223 98.8389,-87.0249"/>
</g>
<!-- Node346 -->
<g id="node7" class="node"><title>Node346</title>
<g id="a_node7"><a xlink:href="$class_json_1_1_our_reader.html#a0b9f58faf4212c6ecb5d8e2a1ac10257" xlink:title="Json::OurReader::readArray">
<polygon fill="none" stroke="black" points="551.5,-42.056 551.5,-61.056 690.5,-61.056 690.5,-42.056 551.5,-42.056"/>
<text text-anchor="middle" x="621" y="-49.056" font-family="Helvetica,sans-Serif" font-size="10.00">Json::OurReader::readArray</text>
</a>
</g>
</g>
<!-- Node340&#45;&gt;Node346 -->
<g id="edge11" class="edge"><title>Node340&#45;&gt;Node346</title>
<path fill="none" stroke="midnightblue" d="M97.2547,-60.827C118.226,-49.1836 149.504,-33.7362 179,-26.556 323.285,8.56752 366.255,5.19804 513,-17.556 542.855,-22.1853 575.783,-33.6729 597.118,-42.0168"/>
<polygon fill="midnightblue" stroke="midnightblue" points="95.3531,-57.8819 88.3882,-65.8656 98.8117,-63.9678 95.3531,-57.8819"/>
</g>
<!-- Node347 -->
<g id="node8" class="node"><title>Node347</title>
<g id="a_node8"><a xlink:href="$class_json_1_1_our_reader.html#a035651f0700a76a815e5f904c63ebb1c" xlink:title="Json::OurReader::recover\lFromError">
<polygon fill="none" stroke="black" points="193.5,-36.556 193.5,-66.556 322.5,-66.556 322.5,-36.556 193.5,-36.556"/>
<text text-anchor="start" x="201.5" y="-54.556" font-family="Helvetica,sans-Serif" font-size="10.00">Json::OurReader::recover</text>
<text text-anchor="middle" x="258" y="-43.556" font-family="Helvetica,sans-Serif" font-size="10.00">FromError</text>
</a>
</g>
</g>
<!-- Node340&#45;&gt;Node347 -->
<g id="edge12" class="edge"><title>Node340&#45;&gt;Node347</title>
<path fill="none" stroke="midnightblue" d="M153.249,-65.052C166.708,-63.3013 180.498,-61.5074 193.451,-59.8226"/>
<polygon fill="midnightblue" stroke="midnightblue" points="152.506,-61.6191 143.041,-66.3799 153.409,-68.5606 152.506,-61.6191"/>
</g>
<!-- Node342 -->
<g id="node3" class="node"><title>Node342</title>
<g id="a_node3"><a xlink:href="$class_json_1_1_our_reader.html#aba4f8749aab7f02ec17f107e392caf80" xlink:title="Json::OurReader::parse">
<polygon fill="none" stroke="black" points="560.5,-143.056 560.5,-162.056 681.5,-162.056 681.5,-143.056 560.5,-143.056"/>
<text text-anchor="middle" x="621" y="-150.056" font-family="Helvetica,sans-Serif" font-size="10.00">Json::OurReader::parse</text>
</a>
</g>
</g>
<!-- Node341&#45;&gt;Node342 -->
<g id="edge2" class="edge"><title>Node341&#45;&gt;Node342</title>
<path fill="none" stroke="midnightblue" d="M307.963,-118.87C327.868,-125.561 351.261,-132.481 373,-136.556 436.249,-148.411 510.02,-151.871 560.36,-152.702"/>
<polygon fill="midnightblue" stroke="midnightblue" points="309.09,-115.557 298.495,-115.618 306.815,-122.177 309.09,-115.557"/>
</g>
<!-- Node344 -->
<g id="node5" class="node"><title>Node344</title>
<g id="a_node5"><a xlink:href="$class_json_1_1_our_reader.html#a1765d9670d191c89a57a22ea5591d35f" xlink:title="Json::OurReader::readValue">
<polygon fill="none" stroke="black" points="373,-86.056 373,-105.056 513,-105.056 513,-86.056 373,-86.056"/>
<text text-anchor="middle" x="443" y="-93.056" font-family="Helvetica,sans-Serif" font-size="10.00">Json::OurReader::readValue</text>
</a>
</g>
</g>
<!-- Node341&#45;&gt;Node344 -->
<g id="edge4" class="edge"><title>Node341&#45;&gt;Node344</title>
<path fill="none" stroke="midnightblue" d="M347.194,-98.1463C355.789,-97.9115 364.424,-97.6756 372.793,-97.4469"/>
<polygon fill="midnightblue" stroke="midnightblue" points="347.04,-94.6491 337.139,-98.421 347.231,-101.647 347.04,-94.6491"/>
</g>
<!-- Node343 -->
<g id="node4" class="node"><title>Node343</title>
<g id="a_node4"><a xlink:href="$class_json_1_1_our_char_reader.html#a52a1fb5fee88d9b63dd462f63b1c9570" xlink:title="Json::OurCharReader\l::parse">
<polygon fill="none" stroke="black" points="729,-137.556 729,-167.556 841,-167.556 841,-137.556 729,-137.556"/>
<text text-anchor="start" x="737" y="-155.556" font-family="Helvetica,sans-Serif" font-size="10.00">Json::OurCharReader</text>
<text text-anchor="middle" x="785" y="-144.556" font-family="Helvetica,sans-Serif" font-size="10.00">::parse</text>
</a>
</g>
</g>
<!-- Node342&#45;&gt;Node343 -->
<g id="edge3" class="edge"><title>Node342&#45;&gt;Node343</title>
<path fill="none" stroke="midnightblue" d="M692.109,-152.556C704.434,-152.556 717.101,-152.556 728.941,-152.556"/>
<polygon fill="midnightblue" stroke="midnightblue" points="691.863,-149.056 681.863,-152.556 691.863,-156.056 691.863,-149.056"/>
</g>
<!-- Node344&#45;&gt;Node342 -->
<g id="edge5" class="edge"><title>Node344&#45;&gt;Node342</title>
<path fill="none" stroke="midnightblue" d="M483.077,-108.212C515.521,-118.719 560.968,-133.438 590.445,-142.984"/>
<polygon fill="midnightblue" stroke="midnightblue" points="484.05,-104.848 473.458,-105.096 481.894,-111.507 484.05,-104.848"/>
</g>
<!-- Node344&#45;&gt;Node345 -->
<g id="edge6" class="edge"><title>Node344&#45;&gt;Node345</title>
<path fill="none" stroke="midnightblue" d="M523.06,-88.837C531.645,-88.7772 540.345,-88.8038 548.828,-88.9169"/>
<polygon fill="midnightblue" stroke="midnightblue" points="523.016,-85.3372 513.055,-88.947 523.093,-92.3368 523.016,-85.3372"/>
</g>
<!-- Node344&#45;&gt;Node346 -->
<g id="edge8" class="edge"><title>Node344&#45;&gt;Node346</title>
<path fill="none" stroke="midnightblue" d="M473.768,-82.9024C496.106,-75.9055 527.525,-67.6108 555.518,-61.1454"/>
<polygon fill="midnightblue" stroke="midnightblue" points="472.619,-79.5958 464.189,-86.0147 474.782,-86.2533 472.619,-79.5958"/>
</g>
<!-- Node345&#45;&gt;Node344 -->
<g id="edge7" class="edge"><title>Node345&#45;&gt;Node344</title>
<path fill="none" stroke="midnightblue" d="M538.79,-102.288C530.188,-102.334 521.499,-102.292 513.055,-102.165"/>
<polygon fill="midnightblue" stroke="midnightblue" points="538.861,-105.788 548.828,-102.195 538.796,-98.788 538.861,-105.788"/>
</g>
<!-- Node346&#45;&gt;Node344 -->
<g id="edge9" class="edge"><title>Node346&#45;&gt;Node344</title>
<path fill="none" stroke="midnightblue" d="M590.054,-64.2652C567.742,-71.2459 536.442,-79.5076 508.537,-85.9539"/>
<polygon fill="midnightblue" stroke="midnightblue" points="591.196,-67.5743 599.628,-61.1591 589.036,-60.9159 591.196,-67.5743"/>
</g>
<!-- Node347&#45;&gt;Node345 -->
<g id="edge13" class="edge"><title>Node347&#45;&gt;Node345</title>
<path fill="none" stroke="midnightblue" d="M328.838,-70.932C331.653,-72.3712 334.387,-73.9105 337,-75.556 356.962,-88.1249 351.391,-105.095 373,-114.556 448.053,-147.417 548.181,-120.85 594.505,-105.104"/>
<polygon fill="midnightblue" stroke="midnightblue" points="330.167,-67.6903 319.621,-66.6686 327.228,-74.0436 330.167,-67.6903"/>
</g>
<!-- Node347&#45;&gt;Node346 -->
<g id="edge14" class="edge"><title>Node347&#45;&gt;Node346</title>
<path fill="none" stroke="midnightblue" d="M325.943,-34.3552C341.3,-31.1142 357.632,-28.2213 373,-26.556 434.86,-19.8527 451.187,-19.4308 513,-26.556 538.395,-29.4832 566.521,-36.1957 587.561,-41.9287"/>
<polygon fill="midnightblue" stroke="midnightblue" points="325.033,-30.9712 316.011,-36.5258 326.528,-37.8097 325.033,-30.9712"/>
</g>
<!-- Node348 -->
<g id="node9" class="node"><title>Node348</title>
<g id="a_node9"><a xlink:href="$class_json_1_1_our_reader.html#ae68a7047acd692be8077e259d524c6d9" xlink:title="Json::OurReader::addError\lAndRecover">
<polygon fill="none" stroke="black" points="376,-36.556 376,-66.556 510,-66.556 510,-36.556 376,-36.556"/>
<text text-anchor="start" x="384" y="-54.556" font-family="Helvetica,sans-Serif" font-size="10.00">Json::OurReader::addError</text>
<text text-anchor="middle" x="443" y="-43.556" font-family="Helvetica,sans-Serif" font-size="10.00">AndRecover</text>
</a>
</g>
</g>
<!-- Node347&#45;&gt;Node348 -->
<g id="edge15" class="edge"><title>Node347&#45;&gt;Node348</title>
<path fill="none" stroke="midnightblue" d="M332.986,-51.556C347.219,-51.556 362.038,-51.556 375.997,-51.556"/>
<polygon fill="midnightblue" stroke="midnightblue" points="332.748,-48.0561 322.748,-51.556 332.748,-55.0561 332.748,-48.0561"/>
</g>
<!-- Node348&#45;&gt;Node345 -->
<g id="edge16" class="edge"><title>Node348&#45;&gt;Node345</title>
<path fill="none" stroke="midnightblue" d="M513.896,-69.03C537.105,-74.8323 562.07,-81.0736 581.95,-86.0436"/>
<polygon fill="midnightblue" stroke="midnightblue" points="514.627,-65.6052 504.077,-66.5752 512.929,-72.3962 514.627,-65.6052"/>
</g>
<!-- Node348&#45;&gt;Node346 -->
<g id="edge17" class="edge"><title>Node348&#45;&gt;Node346</title>
<path fill="none" stroke="midnightblue" d="M520.248,-51.556C530.554,-51.556 541.078,-51.556 551.243,-51.556"/>
<polygon fill="midnightblue" stroke="midnightblue" points="520.037,-48.0561 510.037,-51.556 520.037,-55.0561 520.037,-48.0561"/>
</g>
</g>
</svg>
