<?xml version="1.0" encoding="UTF-8" standalone="no"?>
<!DOCTYPE svg PUBLIC "-//W3C//DTD SVG 1.1//EN"
 "http://www.w3.org/Graphics/SVG/1.1/DTD/svg11.dtd">
<!-- Generated by graphviz version 2.38.0 (20140413.2041)
 -->
<!-- Title: Json::OurReader::decodeNumber Pages: 1 -->
<svg width="529pt" height="39pt"
 viewBox="0.00 0.00 529.00 39.00" xmlns="http://www.w3.org/2000/svg" xmlns:xlink="http://www.w3.org/1999/xlink">
<g id="graph0" class="graph" transform="scale(1 1) rotate(0) translate(4 35)">
<title>Json::OurReader::decodeNumber</title>
<!-- Node80 -->
<g id="node1" class="node"><title>Node80</title>
<polygon fill="#bfbfbf" stroke="black" points="0,-6 0,-25 163,-25 163,-6 0,-6"/>
<text text-anchor="middle" x="81.5" y="-13" font-family="Helvetica,sans-Serif" font-size="10.00">Json::OurReader::decodeNumber</text>
</g>
<!-- Node81 -->
<g id="node2" class="node"><title>Node81</title>
<g id="a_node2"><a xlink:href="$class_json_1_1_our_reader.html#a1d1c3b44f6720a0e7c39b5ae8de3981c" xlink:title="Json::OurReader::decodeDouble">
<polygon fill="none" stroke="black" points="199,-6 199,-25 358,-25 358,-6 199,-6"/>
<text text-anchor="middle" x="278.5" y="-13" font-family="Helvetica,sans-Serif" font-size="10.00">Json::OurReader::decodeDouble</text>
</a>
</g>
</g>
<!-- Node80&#45;&gt;Node81 -->
<g id="edge1" class="edge"><title>Node80&#45;&gt;Node81</title>
<path fill="none" stroke="midnightblue" d="M163.222,-15.5C171.564,-15.5 180.076,-15.5 188.503,-15.5"/>
<polygon fill="midnightblue" stroke="midnightblue" points="188.722,-19.0001 198.722,-15.5 188.722,-12.0001 188.722,-19.0001"/>
</g>
<!-- Node82 -->
<g id="node3" class="node"><title>Node82</title>
<g id="a_node3"><a xlink:href="$class_json_1_1_our_reader.html#a2acd5b1d53e7d7e17c21ff8e96edc09d" xlink:title="Json::OurReader::current\lValue">
<polygon fill="none" stroke="black" points="394,-0.5 394,-30.5 521,-30.5 521,-0.5 394,-0.5"/>
<text text-anchor="start" x="402" y="-18.5" font-family="Helvetica,sans-Serif" font-size="10.00">Json::OurReader::current</text>
<text text-anchor="middle" x="457.5" y="-7.5" font-family="Helvetica,sans-Serif" font-size="10.00">Value</text>
</a>
</g>
</g>
<!-- Node81&#45;&gt;Node82 -->
<g id="edge2" class="edge"><title>Node81&#45;&gt;Node82</title>
<path fill="none" stroke="midnightblue" d="M358.166,-15.5C366.633,-15.5 375.222,-15.5 383.618,-15.5"/>
<polygon fill="midnightblue" stroke="midnightblue" points="383.741,-19.0001 393.741,-15.5 383.741,-12.0001 383.741,-19.0001"/>
</g>
</g>
</svg>
