<?xml version="1.0" encoding="UTF-8" standalone="no"?>
<!DOCTYPE svg PUBLIC "-//W3C//DTD SVG 1.1//EN"
 "http://www.w3.org/Graphics/SVG/1.1/DTD/svg11.dtd">
<!-- Generated by graphviz version 2.38.0 (20140413.2041)
 -->
<!-- Title: MinecraftServerService::ServerProcessBuf::launchServerProcess Pages: 1 -->
<svg width="589pt" height="50pt"
 viewBox="0.00 0.00 589.00 50.00" xmlns="http://www.w3.org/2000/svg" xmlns:xlink="http://www.w3.org/1999/xlink">
<g id="graph0" class="graph" transform="scale(1 1) rotate(0) translate(4 46)">
<title>MinecraftServerService::ServerProcessBuf::launchServerProcess</title>
<!-- Node25 -->
<g id="node1" class="node"><title>Node25</title>
<polygon fill="#bfbfbf" stroke="black" points="0,-0.5 0,-41.5 165,-41.5 165,-0.5 0,-0.5"/>
<text text-anchor="start" x="8" y="-29.5" font-family="Helvetica,sans-Serif" font-size="10.00">MinecraftServerService</text>
<text text-anchor="start" x="8" y="-18.5" font-family="Helvetica,sans-Serif" font-size="10.00">::ServerProcessBuf::launchServer</text>
<text text-anchor="middle" x="82.5" y="-7.5" font-family="Helvetica,sans-Serif" font-size="10.00">Process</text>
</g>
<!-- Node26 -->
<g id="node2" class="node"><title>Node26</title>
<g id="a_node2"><a xlink:href="$class_minecraft_server_service_1_1_server_process_buf.html#a53c4f3c1837c2d1f5ce2a3388f8eaecf" xlink:title="MinecraftServerService\l::ServerProcessBuf::startServer">
<polygon fill="none" stroke="black" points="201,-6 201,-36 357,-36 357,-6 201,-6"/>
<text text-anchor="start" x="209" y="-24" font-family="Helvetica,sans-Serif" font-size="10.00">MinecraftServerService</text>
<text text-anchor="middle" x="279" y="-13" font-family="Helvetica,sans-Serif" font-size="10.00">::ServerProcessBuf::startServer</text>
</a>
</g>
</g>
<!-- Node25&#45;&gt;Node26 -->
<g id="edge1" class="edge"><title>Node25&#45;&gt;Node26</title>
<path fill="none" stroke="midnightblue" d="M175.199,-21C183.804,-21 192.467,-21 200.918,-21"/>
<polygon fill="midnightblue" stroke="midnightblue" points="175.14,-17.5001 165.14,-21 175.14,-24.5001 175.14,-17.5001"/>
</g>
<!-- Node27 -->
<g id="node3" class="node"><title>Node27</title>
<g id="a_node3"><a xlink:href="$class_minecraft_server_service_1_1_server_process_buf.html#a85dc6fa4e2d6a14cfed883b1fc7fec00" xlink:title="MinecraftServerService\l::ServerProcessBuf::ServerProcessBuf">
<polygon fill="none" stroke="black" points="393,-6 393,-36 581,-36 581,-6 393,-6"/>
<text text-anchor="start" x="401" y="-24" font-family="Helvetica,sans-Serif" font-size="10.00">MinecraftServerService</text>
<text text-anchor="middle" x="487" y="-13" font-family="Helvetica,sans-Serif" font-size="10.00">::ServerProcessBuf::ServerProcessBuf</text>
</a>
</g>
</g>
<!-- Node26&#45;&gt;Node27 -->
<g id="edge2" class="edge"><title>Node26&#45;&gt;Node27</title>
<path fill="none" stroke="midnightblue" d="M367.493,-21C375.926,-21 384.501,-21 392.984,-21"/>
<polygon fill="midnightblue" stroke="midnightblue" points="367.293,-17.5001 357.293,-21 367.293,-24.5001 367.293,-17.5001"/>
</g>
</g>
</svg>
