<?xml version="1.0" encoding="UTF-8" standalone="no"?>
<!DOCTYPE svg PUBLIC "-//W3C//DTD SVG 1.1//EN"
 "http://www.w3.org/Graphics/SVG/1.1/DTD/svg11.dtd">
<!-- Generated by graphviz version 2.38.0 (20140413.2041)
 -->
<!-- Title: MinecraftServerService::Server::restartServer Pages: 1 -->
<svg width="452pt" height="121pt"
 viewBox="0.00 0.00 452.00 120.64" xmlns="http://www.w3.org/2000/svg" xmlns:xlink="http://www.w3.org/1999/xlink">
<g id="graph0" class="graph" transform="scale(1 1) rotate(0) translate(4 116.64)">
<title>MinecraftServerService::Server::restartServer</title>
<!-- Node20 -->
<g id="node1" class="node"><title>Node20</title>
<polygon fill="#bfbfbf" stroke="black" points="0,-40.7421 0,-70.7421 119,-70.7421 119,-40.7421 0,-40.7421"/>
<text text-anchor="start" x="8" y="-58.7421" font-family="Helvetica,sans-Serif" font-size="10.00">MinecraftServerService</text>
<text text-anchor="middle" x="59.5" y="-47.7421" font-family="Helvetica,sans-Serif" font-size="10.00">::Server::restartServer</text>
</g>
<!-- Node21 -->
<g id="node2" class="node"><title>Node21</title>
<g id="a_node2"><a xlink:href="$class_minecraft_server_service_1_1_server_stream.html#acfaf50ff9b711062de3bb8a650ba11dd" xlink:title="MinecraftServerService\l::ServerStream::rdbuf">
<polygon fill="none" stroke="black" points="317.5,-65.7421 317.5,-95.7421 436.5,-95.7421 436.5,-65.7421 317.5,-65.7421"/>
<text text-anchor="start" x="325.5" y="-83.7421" font-family="Helvetica,sans-Serif" font-size="10.00">MinecraftServerService</text>
<text text-anchor="middle" x="377" y="-72.7421" font-family="Helvetica,sans-Serif" font-size="10.00">::ServerStream::rdbuf</text>
</a>
</g>
</g>
<!-- Node20&#45;&gt;Node21 -->
<g id="edge1" class="edge"><title>Node20&#45;&gt;Node21</title>
<path fill="none" stroke="midnightblue" d="M81.7899,-70.91C100.179,-83.0209 127.978,-99.0341 155,-105.742 209.351,-119.235 273.05,-109.415 318.061,-98.3676"/>
<polygon fill="midnightblue" stroke="midnightblue" points="319.115,-101.711 327.941,-95.8494 317.386,-94.9278 319.115,-101.711"/>
</g>
<!-- Node22 -->
<g id="node3" class="node"><title>Node22</title>
<g id="a_node3"><a xlink:href="$class_minecraft_server_service_1_1_server_process_buf.html#aea2e874a9ba6aa6558201008d9b909f0" xlink:title="MinecraftServerService\l::ServerProcessBuf::exited">
<polygon fill="none" stroke="black" points="310,-16.7421 310,-46.7421 444,-46.7421 444,-16.7421 310,-16.7421"/>
<text text-anchor="start" x="318" y="-34.7421" font-family="Helvetica,sans-Serif" font-size="10.00">MinecraftServerService</text>
<text text-anchor="middle" x="377" y="-23.7421" font-family="Helvetica,sans-Serif" font-size="10.00">::ServerProcessBuf::exited</text>
</a>
</g>
</g>
<!-- Node20&#45;&gt;Node22 -->
<g id="edge2" class="edge"><title>Node20&#45;&gt;Node22</title>
<path fill="none" stroke="midnightblue" d="M82.2057,-40.6361C100.624,-28.7945 128.248,-13.2655 155,-6.74209 209.232,6.48206 272.69,-3.20198 317.659,-14.1383"/>
<polygon fill="midnightblue" stroke="midnightblue" points="316.981,-17.5767 327.533,-16.6318 318.695,-10.7898 316.981,-17.5767"/>
</g>
<!-- Node23 -->
<g id="node4" class="node"><title>Node23</title>
<g id="a_node4"><a xlink:href="$class_minecraft_server_service_1_1_server.html#a9061f08bdc394835afe2b42a495a3ab0" xlink:title="MinecraftServerService\l::Server::stopServer">
<polygon fill="none" stroke="black" points="155,-65.7421 155,-95.7421 274,-95.7421 274,-65.7421 155,-65.7421"/>
<text text-anchor="start" x="163" y="-83.7421" font-family="Helvetica,sans-Serif" font-size="10.00">MinecraftServerService</text>
<text text-anchor="middle" x="214.5" y="-72.7421" font-family="Helvetica,sans-Serif" font-size="10.00">::Server::stopServer</text>
</a>
</g>
</g>
<!-- Node20&#45;&gt;Node23 -->
<g id="edge3" class="edge"><title>Node20&#45;&gt;Node23</title>
<path fill="none" stroke="midnightblue" d="M119.216,-65.3362C127.635,-66.7119 136.359,-68.1373 144.947,-69.5407"/>
<polygon fill="midnightblue" stroke="midnightblue" points="144.507,-73.0151 154.941,-71.1736 145.636,-66.1067 144.507,-73.0151"/>
</g>
<!-- Node24 -->
<g id="node5" class="node"><title>Node24</title>
<g id="a_node5"><a xlink:href="$class_minecraft_server_service_1_1_server.html#a602c9585f3f9f1352996a04eab14f497" xlink:title="MinecraftServerService\l::Server::startServer">
<polygon fill="none" stroke="black" points="155,-16.7421 155,-46.7421 274,-46.7421 274,-16.7421 155,-16.7421"/>
<text text-anchor="start" x="163" y="-34.7421" font-family="Helvetica,sans-Serif" font-size="10.00">MinecraftServerService</text>
<text text-anchor="middle" x="214.5" y="-23.7421" font-family="Helvetica,sans-Serif" font-size="10.00">::Server::startServer</text>
</a>
</g>
</g>
<!-- Node20&#45;&gt;Node24 -->
<g id="edge6" class="edge"><title>Node20&#45;&gt;Node24</title>
<path fill="none" stroke="midnightblue" d="M119.216,-46.5317C127.635,-45.211 136.359,-43.8427 144.947,-42.4955"/>
<polygon fill="midnightblue" stroke="midnightblue" points="145.604,-45.9353 154.941,-40.9278 144.519,-39.0199 145.604,-45.9353"/>
</g>
<!-- Node23&#45;&gt;Node21 -->
<g id="edge4" class="edge"><title>Node23&#45;&gt;Node21</title>
<path fill="none" stroke="midnightblue" d="M274.353,-80.7421C285.107,-80.7421 296.414,-80.7421 307.422,-80.7421"/>
<polygon fill="midnightblue" stroke="midnightblue" points="307.423,-84.2422 317.422,-80.7421 307.422,-77.2422 307.423,-84.2422"/>
</g>
<!-- Node23&#45;&gt;Node22 -->
<g id="edge5" class="edge"><title>Node23&#45;&gt;Node22</title>
<path fill="none" stroke="midnightblue" d="M264.965,-65.6406C281.365,-60.6338 299.787,-55.0096 316.841,-49.8031"/>
<polygon fill="midnightblue" stroke="midnightblue" points="318.156,-53.0611 326.698,-46.7937 316.112,-46.3662 318.156,-53.0611"/>
</g>
<!-- Node24&#45;&gt;Node21 -->
<g id="edge7" class="edge"><title>Node24&#45;&gt;Node21</title>
<path fill="none" stroke="midnightblue" d="M264.965,-46.8435C281.365,-51.8504 299.787,-57.4745 316.841,-62.6811"/>
<polygon fill="midnightblue" stroke="midnightblue" points="316.112,-66.118 326.698,-65.6905 318.156,-59.4231 316.112,-66.118"/>
</g>
<!-- Node24&#45;&gt;Node22 -->
<g id="edge8" class="edge"><title>Node24&#45;&gt;Node22</title>
<path fill="none" stroke="midnightblue" d="M274.353,-31.7421C282.558,-31.7421 291.085,-31.7421 299.555,-31.7421"/>
<polygon fill="midnightblue" stroke="midnightblue" points="299.834,-35.2422 309.834,-31.7421 299.834,-28.2422 299.834,-35.2422"/>
</g>
</g>
</svg>
