<?xml version="1.0" encoding="UTF-8" standalone="no"?>
<!DOCTYPE svg PUBLIC "-//W3C//DTD SVG 1.1//EN"
 "http://www.w3.org/Graphics/SVG/1.1/DTD/svg11.dtd">
<!-- Generated by graphviz version 2.38.0 (20140413.2041)
 -->
<!-- Title: MinecraftServerService::BungeeCordServer::startServer Pages: 1 -->
<svg width="755pt" height="132pt"
 viewBox="0.00 0.00 755.00 132.00" xmlns="http://www.w3.org/2000/svg" xmlns:xlink="http://www.w3.org/1999/xlink">
<g id="graph0" class="graph" transform="scale(1 1) rotate(0) translate(4 128)">
<title>MinecraftServerService::BungeeCordServer::startServer</title>
<!-- Node30 -->
<g id="node1" class="node"><title>Node30</title>
<polygon fill="#bfbfbf" stroke="black" points="0,-44.5 0,-74.5 159,-74.5 159,-44.5 0,-44.5"/>
<text text-anchor="start" x="8" y="-62.5" font-family="Helvetica,sans-Serif" font-size="10.00">MinecraftServerService</text>
<text text-anchor="middle" x="79.5" y="-51.5" font-family="Helvetica,sans-Serif" font-size="10.00">::BungeeCordServer::startServer</text>
</g>
<!-- Node31 -->
<g id="node2" class="node"><title>Node31</title>
<g id="a_node2"><a xlink:href="$class_minecraft_server_service_1_1_server.html#a1954e7c7756cd956e7282887ffca73e4" xlink:title="MinecraftServerService\l::Server::isRunning">
<polygon fill="none" stroke="black" points="210.5,-93.5 210.5,-123.5 329.5,-123.5 329.5,-93.5 210.5,-93.5"/>
<text text-anchor="start" x="218.5" y="-111.5" font-family="Helvetica,sans-Serif" font-size="10.00">MinecraftServerService</text>
<text text-anchor="middle" x="270" y="-100.5" font-family="Helvetica,sans-Serif" font-size="10.00">::Server::isRunning</text>
</a>
</g>
</g>
<!-- Node30&#45;&gt;Node31 -->
<g id="edge1" class="edge"><title>Node30&#45;&gt;Node31</title>
<path fill="none" stroke="midnightblue" d="M138.337,-74.5346C158.24,-79.7083 180.703,-85.5475 201.319,-90.9066"/>
<polygon fill="midnightblue" stroke="midnightblue" points="200.713,-94.3653 211.272,-93.4938 202.474,-87.5905 200.713,-94.3653"/>
</g>
<!-- Node32 -->
<g id="node3" class="node"><title>Node32</title>
<g id="a_node3"><a xlink:href="$class_minecraft_server_service_1_1_server.html#a16a19b4cfd94f23c20442cea9b46f678" xlink:title="MinecraftServerService\l::Server::launchServerProcess">
<polygon fill="none" stroke="black" points="195,-44.5 195,-74.5 345,-74.5 345,-44.5 195,-44.5"/>
<text text-anchor="start" x="203" y="-62.5" font-family="Helvetica,sans-Serif" font-size="10.00">MinecraftServerService</text>
<text text-anchor="middle" x="270" y="-51.5" font-family="Helvetica,sans-Serif" font-size="10.00">::Server::launchServerProcess</text>
</a>
</g>
</g>
<!-- Node30&#45;&gt;Node32 -->
<g id="edge2" class="edge"><title>Node30&#45;&gt;Node32</title>
<path fill="none" stroke="midnightblue" d="M159.076,-59.5C167.479,-59.5 176.053,-59.5 184.52,-59.5"/>
<polygon fill="midnightblue" stroke="midnightblue" points="184.777,-63.0001 194.777,-59.5 184.777,-56.0001 184.777,-63.0001"/>
</g>
<!-- Node34 -->
<g id="node5" class="node"><title>Node34</title>
<g id="a_node5"><a xlink:href="$class_minecraft_server_service_1_1_server.html#a3040817c744456263f8ba36bdb72bf20" xlink:title="MinecraftServerService\l::Server::outputListenerThread">
<polygon fill="none" stroke="black" points="402,-0.5 402,-30.5 551,-30.5 551,-0.5 402,-0.5"/>
<text text-anchor="start" x="410" y="-18.5" font-family="Helvetica,sans-Serif" font-size="10.00">MinecraftServerService</text>
<text text-anchor="middle" x="476.5" y="-7.5" font-family="Helvetica,sans-Serif" font-size="10.00">::Server::outputListenerThread</text>
</a>
</g>
</g>
<!-- Node30&#45;&gt;Node34 -->
<g id="edge7" class="edge"><title>Node30&#45;&gt;Node34</title>
<path fill="none" stroke="midnightblue" d="M141.403,-44.4589C158.637,-40.6788 177.475,-36.9929 195,-34.5 260.735,-25.1493 335.813,-20.3712 391.743,-17.9465"/>
<polygon fill="midnightblue" stroke="midnightblue" points="392.112,-21.4342 401.957,-17.5205 391.82,-14.4403 392.112,-21.4342"/>
</g>
<!-- Node33 -->
<g id="node4" class="node"><title>Node33</title>
<g id="a_node4"><a xlink:href="$class_minecraft_server_service_1_1_server.html#a085f201bd563ce47e2b41778ef72d20d" xlink:title="MinecraftServerService\l::Server::getUIDAndGIDFromUsername">
<polygon fill="none" stroke="black" points="381,-88.5 381,-118.5 572,-118.5 572,-88.5 381,-88.5"/>
<text text-anchor="start" x="389" y="-106.5" font-family="Helvetica,sans-Serif" font-size="10.00">MinecraftServerService</text>
<text text-anchor="middle" x="476.5" y="-95.5" font-family="Helvetica,sans-Serif" font-size="10.00">::Server::getUIDAndGIDFromUsername</text>
</a>
</g>
</g>
<!-- Node32&#45;&gt;Node33 -->
<g id="edge3" class="edge"><title>Node32&#45;&gt;Node33</title>
<path fill="none" stroke="midnightblue" d="M340.805,-74.5192C358.476,-78.3212 377.589,-82.4336 395.712,-86.3328"/>
<polygon fill="midnightblue" stroke="midnightblue" points="395.15,-89.792 405.662,-88.4738 396.622,-82.9486 395.15,-89.792"/>
</g>
<!-- Node32&#45;&gt;Node34 -->
<g id="edge4" class="edge"><title>Node32&#45;&gt;Node34</title>
<path fill="none" stroke="midnightblue" d="M340.805,-44.4808C358.476,-40.6788 377.589,-36.5664 395.712,-32.6672"/>
<polygon fill="midnightblue" stroke="midnightblue" points="396.622,-36.0514 405.662,-30.5262 395.15,-29.208 396.622,-36.0514"/>
</g>
<!-- Node35 -->
<g id="node6" class="node"><title>Node35</title>
<g id="a_node6"><a xlink:href="$class_minecraft_server_service_1_1_server.html#a4ecf103c62bd8f1e54b2ff436fa1645a" xlink:title="MinecraftServerService\l::Server::serverOutputEvent">
<polygon fill="none" stroke="black" points="608,-22.5 608,-52.5 747,-52.5 747,-22.5 608,-22.5"/>
<text text-anchor="start" x="616" y="-40.5" font-family="Helvetica,sans-Serif" font-size="10.00">MinecraftServerService</text>
<text text-anchor="middle" x="677.5" y="-29.5" font-family="Helvetica,sans-Serif" font-size="10.00">::Server::serverOutputEvent</text>
</a>
</g>
</g>
<!-- Node32&#45;&gt;Node35 -->
<g id="edge6" class="edge"><title>Node32&#45;&gt;Node35</title>
<path fill="none" stroke="midnightblue" d="M345.375,-55.4649C417,-51.5789 524.937,-45.7229 597.938,-41.7623"/>
<polygon fill="midnightblue" stroke="midnightblue" points="598.203,-45.2531 607.999,-41.2164 597.824,-38.2634 598.203,-45.2531"/>
</g>
<!-- Node34&#45;&gt;Node35 -->
<g id="edge5" class="edge"><title>Node34&#45;&gt;Node35</title>
<path fill="none" stroke="midnightblue" d="M551.035,-23.6295C566.293,-25.3163 582.427,-27.1 597.861,-28.8062"/>
<polygon fill="midnightblue" stroke="midnightblue" points="597.561,-32.2943 607.885,-29.9144 598.33,-25.3367 597.561,-32.2943"/>
</g>
</g>
</svg>
