<?xml version="1.0" encoding="UTF-8" standalone="no"?>
<!DOCTYPE svg PUBLIC "-//W3C//DTD SVG 1.1//EN"
 "http://www.w3.org/Graphics/SVG/1.1/DTD/svg11.dtd">
<!-- Generated by graphviz version 2.38.0 (20140413.2041)
 -->
<!-- Title: Json::OurReader::addErrorAndRecover Pages: 1 -->
<svg width="1223pt" height="355pt"
 viewBox="0.00 0.00 1223.00 355.00" xmlns="http://www.w3.org/2000/svg" xmlns:xlink="http://www.w3.org/1999/xlink">
<g id="graph0" class="graph" transform="scale(1 1) rotate(0) translate(4 351)">
<title>Json::OurReader::addErrorAndRecover</title>
<!-- Node30 -->
<g id="node1" class="node"><title>Node30</title>
<polygon fill="#bfbfbf" stroke="black" points="0,-224 0,-254 134,-254 134,-224 0,-224"/>
<text text-anchor="start" x="8" y="-242" font-family="Helvetica,sans-Serif" font-size="10.00">Json::OurReader::addError</text>
<text text-anchor="middle" x="67" y="-231" font-family="Helvetica,sans-Serif" font-size="10.00">AndRecover</text>
</g>
<!-- Node31 -->
<g id="node2" class="node"><title>Node31</title>
<g id="a_node2"><a xlink:href="$class_json_1_1_our_reader.html#a5a48b71c1c16fa671814c8338e452bc0" xlink:title="Json::OurReader::addError">
<polygon fill="none" stroke="black" points="170,-251.5 170,-270.5 304,-270.5 304,-251.5 170,-251.5"/>
<text text-anchor="middle" x="237" y="-258.5" font-family="Helvetica,sans-Serif" font-size="10.00">Json::OurReader::addError</text>
</a>
</g>
</g>
<!-- Node30&#45;&gt;Node31 -->
<g id="edge1" class="edge"><title>Node30&#45;&gt;Node31</title>
<path fill="none" stroke="midnightblue" d="M134.398,-247.695C142.77,-248.791 151.386,-249.92 159.894,-251.034"/>
<polygon fill="midnightblue" stroke="midnightblue" points="159.439,-254.504 169.809,-252.332 160.348,-247.563 159.439,-254.504"/>
</g>
<!-- Node32 -->
<g id="node3" class="node"><title>Node32</title>
<g id="a_node3"><a xlink:href="$class_json_1_1_our_reader.html#a035651f0700a76a815e5f904c63ebb1c" xlink:title="Json::OurReader::recover\lFromError">
<polygon fill="none" stroke="black" points="172.5,-202 172.5,-232 301.5,-232 301.5,-202 172.5,-202"/>
<text text-anchor="start" x="180.5" y="-220" font-family="Helvetica,sans-Serif" font-size="10.00">Json::OurReader::recover</text>
<text text-anchor="middle" x="237" y="-209" font-family="Helvetica,sans-Serif" font-size="10.00">FromError</text>
</a>
</g>
</g>
<!-- Node30&#45;&gt;Node32 -->
<g id="edge2" class="edge"><title>Node30&#45;&gt;Node32</title>
<path fill="none" stroke="midnightblue" d="M134.398,-230.305C143.558,-229.105 153.011,-227.868 162.293,-226.652"/>
<polygon fill="midnightblue" stroke="midnightblue" points="162.816,-230.114 172.277,-225.345 161.907,-223.173 162.816,-230.114"/>
</g>
<!-- Node33 -->
<g id="node4" class="node"><title>Node33</title>
<g id="a_node4"><a xlink:href="$class_json_1_1_our_reader.html#a0d1e66da47fe2e85f5033c59326dfdc3" xlink:title="Json::OurReader::readToken">
<polygon fill="none" stroke="black" points="340,-207.5 340,-226.5 483,-226.5 483,-207.5 340,-207.5"/>
<text text-anchor="middle" x="411.5" y="-214.5" font-family="Helvetica,sans-Serif" font-size="10.00">Json::OurReader::readToken</text>
</a>
</g>
</g>
<!-- Node32&#45;&gt;Node33 -->
<g id="edge3" class="edge"><title>Node32&#45;&gt;Node33</title>
<path fill="none" stroke="midnightblue" d="M301.743,-217C310.835,-217 320.285,-217 329.651,-217"/>
<polygon fill="midnightblue" stroke="midnightblue" points="329.759,-220.5 339.759,-217 329.759,-213.5 329.759,-220.5"/>
</g>
<!-- Node34 -->
<g id="node5" class="node"><title>Node34</title>
<g id="a_node5"><a xlink:href="$class_json_1_1_our_reader.html#a6fbc6d58a4505e5ccadf330b57b17ca5" xlink:title="Json::OurReader::skipSpaces">
<polygon fill="none" stroke="black" points="524,-327.5 524,-346.5 672,-346.5 672,-327.5 524,-327.5"/>
<text text-anchor="middle" x="598" y="-334.5" font-family="Helvetica,sans-Serif" font-size="10.00">Json::OurReader::skipSpaces</text>
</a>
</g>
</g>
<!-- Node33&#45;&gt;Node34 -->
<g id="edge4" class="edge"><title>Node33&#45;&gt;Node34</title>
<path fill="none" stroke="midnightblue" d="M420.567,-226.675C437.087,-245.885 476.78,-289.048 519,-313 526.79,-317.419 535.488,-321.119 544.171,-324.186"/>
<polygon fill="midnightblue" stroke="midnightblue" points="543.327,-327.592 553.92,-327.384 545.509,-320.941 543.327,-327.592"/>
</g>
<!-- Node35 -->
<g id="node6" class="node"><title>Node35</title>
<g id="a_node6"><a xlink:href="$class_json_1_1_our_reader.html#a298285d035fdbc554caae09d9f0a5859" xlink:title="Json::OurReader::getNextChar">
<polygon fill="none" stroke="black" points="904,-194.5 904,-213.5 1056,-213.5 1056,-194.5 904,-194.5"/>
<text text-anchor="middle" x="980" y="-201.5" font-family="Helvetica,sans-Serif" font-size="10.00">Json::OurReader::getNextChar</text>
</a>
</g>
</g>
<!-- Node33&#45;&gt;Node35 -->
<g id="edge5" class="edge"><title>Node33&#45;&gt;Node35</title>
<path fill="none" stroke="midnightblue" d="M429.973,-226.631C450.581,-237.489 486.195,-254.709 519,-263 669.56,-301.054 719.65,-325.92 868,-280 905.453,-268.407 941.517,-239.338 961.909,-220.697"/>
<polygon fill="midnightblue" stroke="midnightblue" points="964.511,-223.055 969.408,-213.66 959.721,-217.951 964.511,-223.055"/>
</g>
<!-- Node36 -->
<g id="node7" class="node"><title>Node36</title>
<g id="a_node7"><a xlink:href="$class_json_1_1_our_reader.html#a5d39b12671499ec5975f3bbc84b7d438" xlink:title="Json::OurReader::readString">
<polygon fill="none" stroke="black" points="720,-251.5 720,-270.5 861,-270.5 861,-251.5 720,-251.5"/>
<text text-anchor="middle" x="790.5" y="-258.5" font-family="Helvetica,sans-Serif" font-size="10.00">Json::OurReader::readString</text>
</a>
</g>
</g>
<!-- Node33&#45;&gt;Node36 -->
<g id="edge6" class="edge"><title>Node33&#45;&gt;Node36</title>
<path fill="none" stroke="midnightblue" d="M446.761,-226.52C467.507,-231.913 494.589,-238.302 519,-242 582.734,-251.655 655.674,-256.417 709.74,-258.759"/>
<polygon fill="midnightblue" stroke="midnightblue" points="709.814,-262.265 719.951,-259.182 710.104,-255.271 709.814,-262.265"/>
</g>
<!-- Node37 -->
<g id="node8" class="node"><title>Node37</title>
<g id="a_node8"><a xlink:href="$class_json_1_1_our_reader.html#ac78592defdc333faf56c6d0908758da3" xlink:title="Json::OurReader::readString\lSingleQuote">
<polygon fill="none" stroke="black" points="527.5,-202 527.5,-232 668.5,-232 668.5,-202 527.5,-202"/>
<text text-anchor="start" x="535.5" y="-220" font-family="Helvetica,sans-Serif" font-size="10.00">Json::OurReader::readString</text>
<text text-anchor="middle" x="598" y="-209" font-family="Helvetica,sans-Serif" font-size="10.00">SingleQuote</text>
</a>
</g>
</g>
<!-- Node33&#45;&gt;Node37 -->
<g id="edge8" class="edge"><title>Node33&#45;&gt;Node37</title>
<path fill="none" stroke="midnightblue" d="M483.041,-217C494.179,-217 505.764,-217 517.096,-217"/>
<polygon fill="midnightblue" stroke="midnightblue" points="517.412,-220.5 527.412,-217 517.412,-213.5 517.412,-220.5"/>
</g>
<!-- Node38 -->
<g id="node9" class="node"><title>Node38</title>
<g id="a_node9"><a xlink:href="$class_json_1_1_our_reader.html#a90f6bb9e55b2bc3d6c1880809495c222" xlink:title="Json::OurReader::readComment">
<polygon fill="none" stroke="black" points="519,-147.5 519,-166.5 677,-166.5 677,-147.5 519,-147.5"/>
<text text-anchor="middle" x="598" y="-154.5" font-family="Helvetica,sans-Serif" font-size="10.00">Json::OurReader::readComment</text>
</a>
</g>
</g>
<!-- Node33&#45;&gt;Node38 -->
<g id="edge10" class="edge"><title>Node33&#45;&gt;Node38</title>
<path fill="none" stroke="midnightblue" d="M441.735,-207.493C473.085,-197.297 523.036,-181.053 557.784,-169.753"/>
<polygon fill="midnightblue" stroke="midnightblue" points="559.17,-172.983 567.597,-166.562 557.005,-166.326 559.17,-172.983"/>
</g>
<!-- Node46 -->
<g id="node17" class="node"><title>Node46</title>
<g id="a_node17"><a xlink:href="$class_json_1_1_our_reader.html#aefcb9a78cc45870ccac2db2a66c8ec50" xlink:title="Json::OurReader::readNumber">
<polygon fill="none" stroke="black" points="523,-109.5 523,-128.5 673,-128.5 673,-109.5 523,-109.5"/>
<text text-anchor="middle" x="598" y="-116.5" font-family="Helvetica,sans-Serif" font-size="10.00">Json::OurReader::readNumber</text>
</a>
</g>
</g>
<!-- Node33&#45;&gt;Node46 -->
<g id="edge21" class="edge"><title>Node33&#45;&gt;Node46</title>
<path fill="none" stroke="midnightblue" d="M422.472,-207.396C440.332,-190.731 479.608,-156.477 519,-138 524.254,-135.535 529.863,-133.37 535.572,-131.471"/>
<polygon fill="midnightblue" stroke="midnightblue" points="536.687,-134.791 545.229,-128.523 534.643,-128.096 536.687,-134.791"/>
</g>
<!-- Node47 -->
<g id="node18" class="node"><title>Node47</title>
<g id="a_node18"><a xlink:href="$class_json_1_1_our_reader.html#a4a03f1b266def9b47c4fef35386557fb" xlink:title="Json::OurReader::match">
<polygon fill="none" stroke="black" points="536,-71.5 536,-90.5 660,-90.5 660,-71.5 536,-71.5"/>
<text text-anchor="middle" x="598" y="-78.5" font-family="Helvetica,sans-Serif" font-size="10.00">Json::OurReader::match</text>
</a>
</g>
</g>
<!-- Node33&#45;&gt;Node47 -->
<g id="edge22" class="edge"><title>Node33&#45;&gt;Node47</title>
<path fill="none" stroke="midnightblue" d="M418.348,-207.359C432.562,-184.793 471.287,-128.319 519,-100 522.708,-97.7992 526.659,-95.8529 530.74,-94.1316"/>
<polygon fill="midnightblue" stroke="midnightblue" points="532.3,-97.2853 540.445,-90.51 529.853,-90.727 532.3,-97.2853"/>
</g>
<!-- Node36&#45;&gt;Node35 -->
<g id="edge7" class="edge"><title>Node36&#45;&gt;Node35</title>
<path fill="none" stroke="midnightblue" d="M822.883,-251.459C854.385,-241.883 903.081,-227.079 937.703,-216.554"/>
<polygon fill="midnightblue" stroke="midnightblue" points="938.965,-219.829 947.514,-213.572 936.929,-213.132 938.965,-219.829"/>
</g>
<!-- Node37&#45;&gt;Node35 -->
<g id="edge9" class="edge"><title>Node37&#45;&gt;Node35</title>
<path fill="none" stroke="midnightblue" d="M668.698,-214.616C732.08,-212.447 825.804,-209.241 893.652,-206.92"/>
<polygon fill="midnightblue" stroke="midnightblue" points="894.014,-210.41 903.889,-206.57 893.775,-203.414 894.014,-210.41"/>
</g>
<!-- Node38&#45;&gt;Node35 -->
<g id="edge11" class="edge"><title>Node38&#45;&gt;Node35</title>
<path fill="none" stroke="midnightblue" d="M675.899,-166.511C738.994,-174.315 828.251,-185.355 893.566,-193.433"/>
<polygon fill="midnightblue" stroke="midnightblue" points="893.482,-196.949 903.836,-194.703 894.341,-190.002 893.482,-196.949"/>
</g>
<!-- Node39 -->
<g id="node10" class="node"><title>Node39</title>
<g id="a_node10"><a xlink:href="$class_json_1_1_our_reader.html#aba784b125baa1b62387e767b791f2f89" xlink:title="Json::OurReader::readCStyle\lComment">
<polygon fill="none" stroke="black" points="717.5,-126 717.5,-156 863.5,-156 863.5,-126 717.5,-126"/>
<text text-anchor="start" x="725.5" y="-144" font-family="Helvetica,sans-Serif" font-size="10.00">Json::OurReader::readCStyle</text>
<text text-anchor="middle" x="790.5" y="-133" font-family="Helvetica,sans-Serif" font-size="10.00">Comment</text>
</a>
</g>
</g>
<!-- Node38&#45;&gt;Node39 -->
<g id="edge12" class="edge"><title>Node38&#45;&gt;Node39</title>
<path fill="none" stroke="midnightblue" d="M677.033,-150.446C687.052,-149.605 697.333,-148.741 707.413,-147.894"/>
<polygon fill="midnightblue" stroke="midnightblue" points="707.738,-151.38 717.41,-147.055 707.152,-144.404 707.738,-151.38"/>
</g>
<!-- Node40 -->
<g id="node11" class="node"><title>Node40</title>
<g id="a_node11"><a xlink:href="$class_json_1_1_our_reader.html#ae3de80671f0f997053e1c1c8a47a45c5" xlink:title="Json::OurReader::readCpp\lStyleComment">
<polygon fill="none" stroke="black" points="723.5,-77 723.5,-107 857.5,-107 857.5,-77 723.5,-77"/>
<text text-anchor="start" x="731.5" y="-95" font-family="Helvetica,sans-Serif" font-size="10.00">Json::OurReader::readCpp</text>
<text text-anchor="middle" x="790.5" y="-84" font-family="Helvetica,sans-Serif" font-size="10.00">StyleComment</text>
</a>
</g>
</g>
<!-- Node38&#45;&gt;Node40 -->
<g id="edge14" class="edge"><title>Node38&#45;&gt;Node40</title>
<path fill="none" stroke="midnightblue" d="M647.538,-147.483C657.453,-144.901 667.694,-141.755 677,-138 694.178,-131.069 696.101,-124.586 713,-117 718.019,-114.747 723.304,-112.595 728.654,-110.567"/>
<polygon fill="midnightblue" stroke="midnightblue" points="730.11,-113.762 738.312,-107.056 727.718,-107.184 730.11,-113.762"/>
</g>
<!-- Node41 -->
<g id="node12" class="node"><title>Node41</title>
<g id="a_node12"><a xlink:href="$namespace_json.html#a4d6ab0f651348832e5cc49b577a854d2" xlink:title="Json::containsNewLine">
<polygon fill="none" stroke="black" points="731,-38.5 731,-57.5 850,-57.5 850,-38.5 731,-38.5"/>
<text text-anchor="middle" x="790.5" y="-45.5" font-family="Helvetica,sans-Serif" font-size="10.00">Json::containsNewLine</text>
</a>
</g>
</g>
<!-- Node38&#45;&gt;Node41 -->
<g id="edge16" class="edge"><title>Node38&#45;&gt;Node41</title>
<path fill="none" stroke="midnightblue" d="M660.6,-147.495C666.488,-145.009 672.085,-141.896 677,-138 704.727,-116.023 685.323,-89.0394 713,-67 715.623,-64.9115 718.444,-63.0486 721.402,-61.3875"/>
<polygon fill="midnightblue" stroke="midnightblue" points="723.108,-64.4518 730.624,-56.985 720.092,-58.1347 723.108,-64.4518"/>
</g>
<!-- Node43 -->
<g id="node14" class="node"><title>Node43</title>
<g id="a_node14"><a xlink:href="$class_json_1_1_our_reader.html#ad7318c37469a9106069a236fb4b10e1f" xlink:title="Json::OurReader::addComment">
<polygon fill="none" stroke="black" points="713,-0.5 713,-19.5 868,-19.5 868,-0.5 713,-0.5"/>
<text text-anchor="middle" x="790.5" y="-7.5" font-family="Helvetica,sans-Serif" font-size="10.00">Json::OurReader::addComment</text>
</a>
</g>
</g>
<!-- Node38&#45;&gt;Node43 -->
<g id="edge18" class="edge"><title>Node38&#45;&gt;Node43</title>
<path fill="none" stroke="midnightblue" d="M663.133,-147.322C668.182,-144.845 672.903,-141.781 677,-138 714.49,-103.397 675.588,-63.6871 713,-29 714.671,-27.4503 716.449,-26.0218 718.313,-24.7053"/>
<polygon fill="midnightblue" stroke="midnightblue" points="720.115,-27.7055 726.964,-19.622 716.569,-21.6701 720.115,-27.7055"/>
</g>
<!-- Node39&#45;&gt;Node35 -->
<g id="edge13" class="edge"><title>Node39&#45;&gt;Node35</title>
<path fill="none" stroke="midnightblue" d="M836.411,-156.09C868.24,-166.785 910.49,-180.981 940.721,-191.138"/>
<polygon fill="midnightblue" stroke="midnightblue" points="939.887,-194.55 950.481,-194.417 942.116,-187.915 939.887,-194.55"/>
</g>
<!-- Node40&#45;&gt;Node35 -->
<g id="edge15" class="edge"><title>Node40&#45;&gt;Node35</title>
<path fill="none" stroke="midnightblue" d="M845.575,-107.035C853.284,-109.93 860.974,-113.25 868,-117 904.421,-136.441 941.02,-168.016 961.761,-187.306"/>
<polygon fill="midnightblue" stroke="midnightblue" points="959.472,-189.958 969.145,-194.281 964.279,-184.87 959.472,-189.958"/>
</g>
<!-- Node42 -->
<g id="node13" class="node"><title>Node42</title>
<g id="a_node13"><a xlink:href="$namespace_json.html#a97f039a107b3f6cf1c3edee50e978f76" xlink:title="Json::throwRuntimeError">
<polygon fill="none" stroke="black" points="917.5,-38.5 917.5,-57.5 1042.5,-57.5 1042.5,-38.5 917.5,-38.5"/>
<text text-anchor="middle" x="980" y="-45.5" font-family="Helvetica,sans-Serif" font-size="10.00">Json::throwRuntimeError</text>
</a>
</g>
</g>
<!-- Node41&#45;&gt;Node42 -->
<g id="edge17" class="edge"><title>Node41&#45;&gt;Node42</title>
<path fill="none" stroke="midnightblue" d="M850.055,-48C868.18,-48 888.358,-48 907.27,-48"/>
<polygon fill="midnightblue" stroke="midnightblue" points="907.324,-51.5001 917.324,-48 907.324,-44.5001 907.324,-51.5001"/>
</g>
<!-- Node44 -->
<g id="node15" class="node"><title>Node44</title>
<g id="a_node15"><a xlink:href="$namespace_json.html#a2e6b8616041876128cbef54b8c75da62" xlink:title="Json::normalizeEOL">
<polygon fill="none" stroke="black" points="927.5,-0.5 927.5,-19.5 1032.5,-19.5 1032.5,-0.5 927.5,-0.5"/>
<text text-anchor="middle" x="980" y="-7.5" font-family="Helvetica,sans-Serif" font-size="10.00">Json::normalizeEOL</text>
</a>
</g>
</g>
<!-- Node43&#45;&gt;Node44 -->
<g id="edge19" class="edge"><title>Node43&#45;&gt;Node44</title>
<path fill="none" stroke="midnightblue" d="M868.034,-10C884.398,-10 901.487,-10 917.212,-10"/>
<polygon fill="midnightblue" stroke="midnightblue" points="917.328,-13.5001 927.328,-10 917.328,-6.5001 917.328,-13.5001"/>
</g>
<!-- Node45 -->
<g id="node16" class="node"><title>Node45</title>
<g id="a_node16"><a xlink:href="$namespace_json.html#adf0456e397a18cd7218a7b51dfc13c73" xlink:title="Converts a unicode code&#45;point to UTF&#45;8. ">
<polygon fill="none" stroke="black" points="1092,-0.5 1092,-19.5 1215,-19.5 1215,-0.5 1092,-0.5"/>
<text text-anchor="middle" x="1153.5" y="-7.5" font-family="Helvetica,sans-Serif" font-size="10.00">Json::codePointToUTF8</text>
</a>
</g>
</g>
<!-- Node44&#45;&gt;Node45 -->
<g id="edge20" class="edge"><title>Node44&#45;&gt;Node45</title>
<path fill="none" stroke="midnightblue" d="M1032.92,-10C1048.27,-10 1065.34,-10 1081.67,-10"/>
<polygon fill="midnightblue" stroke="midnightblue" points="1081.71,-13.5001 1091.71,-10 1081.71,-6.5001 1081.71,-13.5001"/>
</g>
</g>
</svg>
