<?xml version="1.0" encoding="UTF-8" standalone="no"?>
<!DOCTYPE svg PUBLIC "-//W3C//DTD SVG 1.1//EN"
 "http://www.w3.org/Graphics/SVG/1.1/DTD/svg11.dtd">
<!-- Generated by graphviz version 2.38.0 (20140413.2041)
 -->
<!-- Title: /home/mel/projects/Misc/Minecraft Server Service/src/client.cpp Pages: 1 -->
<svg width="850pt" height="106pt"
 viewBox="0.00 0.00 850.00 106.00" xmlns="http://www.w3.org/2000/svg" xmlns:xlink="http://www.w3.org/1999/xlink">
<g id="graph0" class="graph" transform="scale(1 1) rotate(0) translate(4 102)">
<title>/home/mel/projects/Misc/Minecraft Server Service/src/client.cpp</title>
<!-- Node0 -->
<g id="node1" class="node"><title>Node0</title>
<polygon fill="#bfbfbf" stroke="black" points="391,-56.5 391,-97.5 507,-97.5 507,-56.5 391,-56.5"/>
<text text-anchor="start" x="399" y="-85.5" font-family="Helvetica,sans-Serif" font-size="10.00">/home/mel/projects</text>
<text text-anchor="start" x="399" y="-74.5" font-family="Helvetica,sans-Serif" font-size="10.00">/Misc/Minecraft Server</text>
<text text-anchor="middle" x="449" y="-63.5" font-family="Helvetica,sans-Serif" font-size="10.00"> Service/src/client.cpp</text>
</g>
<!-- Node1 -->
<g id="node2" class="node"><title>Node1</title>
<polygon fill="none" stroke="#bfbfbf" points="0,-0.5 0,-19.5 44,-19.5 44,-0.5 0,-0.5"/>
<text text-anchor="middle" x="22" y="-7.5" font-family="Helvetica,sans-Serif" font-size="10.00">fcntl.h</text>
</g>
<!-- Node0&#45;&gt;Node1 -->
<g id="edge1" class="edge"><title>Node0&#45;&gt;Node1</title>
<path fill="none" stroke="midnightblue" d="M390.834,-70.3905C315.276,-62.5251 179.215,-46.3903 54.3713,-20.035"/>
<polygon fill="midnightblue" stroke="midnightblue" points="54.7655,-16.5403 44.2546,-17.8713 53.3014,-23.3855 54.7655,-16.5403"/>
</g>
<!-- Node2 -->
<g id="node3" class="node"><title>Node2</title>
<polygon fill="none" stroke="#bfbfbf" points="62,-0.5 62,-19.5 122,-19.5 122,-0.5 62,-0.5"/>
<text text-anchor="middle" x="92" y="-7.5" font-family="Helvetica,sans-Serif" font-size="10.00">sys/stat.h</text>
</g>
<!-- Node0&#45;&gt;Node2 -->
<g id="edge2" class="edge"><title>Node0&#45;&gt;Node2</title>
<path fill="none" stroke="midnightblue" d="M390.8,-66.6925C329.024,-56.6014 228.329,-39.55 132.097,-20.1417"/>
<polygon fill="midnightblue" stroke="midnightblue" points="132.696,-16.692 122.2,-18.1339 131.304,-23.5522 132.696,-16.692"/>
</g>
<!-- Node3 -->
<g id="node4" class="node"><title>Node3</title>
<polygon fill="none" stroke="#bfbfbf" points="140,-0.5 140,-19.5 208,-19.5 208,-0.5 140,-0.5"/>
<text text-anchor="middle" x="174" y="-7.5" font-family="Helvetica,sans-Serif" font-size="10.00">sys/types.h</text>
</g>
<!-- Node0&#45;&gt;Node3 -->
<g id="edge3" class="edge"><title>Node0&#45;&gt;Node3</title>
<path fill="none" stroke="midnightblue" d="M390.68,-62.2152C339.123,-50.029 265.036,-32.5175 218.229,-21.4541"/>
<polygon fill="midnightblue" stroke="midnightblue" points="218.923,-18.0217 208.386,-19.1275 217.312,-24.834 218.923,-18.0217"/>
</g>
<!-- Node4 -->
<g id="node5" class="node"><title>Node4</title>
<polygon fill="none" stroke="#bfbfbf" points="226.5,-0.5 226.5,-19.5 299.5,-19.5 299.5,-0.5 226.5,-0.5"/>
<text text-anchor="middle" x="263" y="-7.5" font-family="Helvetica,sans-Serif" font-size="10.00">sys/socket.h</text>
</g>
<!-- Node0&#45;&gt;Node4 -->
<g id="edge4" class="edge"><title>Node0&#45;&gt;Node4</title>
<path fill="none" stroke="midnightblue" d="M393.194,-56.4979C362.072,-45.6218 324.296,-32.4206 297.469,-23.0455"/>
<polygon fill="midnightblue" stroke="midnightblue" points="298.354,-19.6475 287.759,-19.6525 296.045,-26.2556 298.354,-19.6475"/>
</g>
<!-- Node5 -->
<g id="node6" class="node"><title>Node5</title>
<polygon fill="none" stroke="#bfbfbf" points="318,-0.5 318,-19.5 372,-19.5 372,-0.5 318,-0.5"/>
<text text-anchor="middle" x="345" y="-7.5" font-family="Helvetica,sans-Serif" font-size="10.00">sys/un.h</text>
</g>
<!-- Node0&#45;&gt;Node5 -->
<g id="edge5" class="edge"><title>Node0&#45;&gt;Node5</title>
<path fill="none" stroke="midnightblue" d="M417.797,-56.4979C401.698,-46.4363 382.416,-34.3849 367.742,-25.2136"/>
<polygon fill="midnightblue" stroke="midnightblue" points="369.179,-21.9845 358.844,-19.6525 365.469,-27.9205 369.179,-21.9845"/>
</g>
<!-- Node6 -->
<g id="node7" class="node"><title>Node6</title>
<polygon fill="none" stroke="#bfbfbf" points="390.5,-0.5 390.5,-19.5 441.5,-19.5 441.5,-0.5 390.5,-0.5"/>
<text text-anchor="middle" x="416" y="-7.5" font-family="Helvetica,sans-Serif" font-size="10.00">unistd.h</text>
</g>
<!-- Node0&#45;&gt;Node6 -->
<g id="edge6" class="edge"><title>Node0&#45;&gt;Node6</title>
<path fill="none" stroke="midnightblue" d="M439.099,-56.4979C434.623,-47.682 429.372,-37.3385 425.008,-28.7432"/>
<polygon fill="midnightblue" stroke="midnightblue" points="428.041,-26.9847 420.393,-19.6525 421.799,-30.1536 428.041,-26.9847"/>
</g>
<!-- Node7 -->
<g id="node8" class="node"><title>Node7</title>
<polygon fill="none" stroke="#bfbfbf" points="460,-0.5 460,-19.5 506,-19.5 506,-0.5 460,-0.5"/>
<text text-anchor="middle" x="483" y="-7.5" font-family="Helvetica,sans-Serif" font-size="10.00">stdio.h</text>
</g>
<!-- Node0&#45;&gt;Node7 -->
<g id="edge7" class="edge"><title>Node0&#45;&gt;Node7</title>
<path fill="none" stroke="midnightblue" d="M459.201,-56.4979C463.812,-47.682 469.223,-37.3385 473.719,-28.7432"/>
<polygon fill="midnightblue" stroke="midnightblue" points="476.94,-30.1357 478.474,-19.6525 470.738,-26.8912 476.94,-30.1357"/>
</g>
<!-- Node8 -->
<g id="node9" class="node"><title>Node8</title>
<polygon fill="none" stroke="#bfbfbf" points="524,-0.5 524,-19.5 572,-19.5 572,-0.5 524,-0.5"/>
<text text-anchor="middle" x="548" y="-7.5" font-family="Helvetica,sans-Serif" font-size="10.00">stdlib.h</text>
</g>
<!-- Node0&#45;&gt;Node8 -->
<g id="edge8" class="edge"><title>Node0&#45;&gt;Node8</title>
<path fill="none" stroke="midnightblue" d="M478.703,-56.4979C494.028,-46.4363 512.383,-34.3849 526.352,-25.2136"/>
<polygon fill="midnightblue" stroke="midnightblue" points="528.383,-28.0667 534.822,-19.6525 524.541,-22.2152 528.383,-28.0667"/>
</g>
<!-- Node9 -->
<g id="node10" class="node"><title>Node9</title>
<polygon fill="none" stroke="#bfbfbf" points="590,-0.5 590,-19.5 644,-19.5 644,-0.5 590,-0.5"/>
<text text-anchor="middle" x="617" y="-7.5" font-family="Helvetica,sans-Serif" font-size="10.00">iostream</text>
</g>
<!-- Node0&#45;&gt;Node9 -->
<g id="edge9" class="edge"><title>Node0&#45;&gt;Node9</title>
<path fill="none" stroke="midnightblue" d="M499.406,-56.4979C527.268,-45.7176 561.035,-32.6531 585.224,-23.2941"/>
<polygon fill="midnightblue" stroke="midnightblue" points="586.573,-26.5251 594.637,-19.6525 584.047,-19.9967 586.573,-26.5251"/>
</g>
<!-- Node10 -->
<g id="node11" class="node"><title>Node10</title>
<polygon fill="none" stroke="#bfbfbf" points="662.5,-0.5 662.5,-19.5 703.5,-19.5 703.5,-0.5 662.5,-0.5"/>
<text text-anchor="middle" x="683" y="-7.5" font-family="Helvetica,sans-Serif" font-size="10.00">string</text>
</g>
<!-- Node0&#45;&gt;Node10 -->
<g id="edge10" class="edge"><title>Node0&#45;&gt;Node10</title>
<path fill="none" stroke="midnightblue" d="M507.137,-60.4313C545.693,-50.0164 597.646,-35.8119 652.46,-20.1058"/>
<polygon fill="midnightblue" stroke="midnightblue" points="653.717,-23.3862 662.362,-17.261 651.784,-16.6584 653.717,-23.3862"/>
</g>
<!-- Node11 -->
<g id="node12" class="node"><title>Node11</title>
<polygon fill="none" stroke="#bfbfbf" points="722,-0.5 722,-19.5 774,-19.5 774,-0.5 722,-0.5"/>
<text text-anchor="middle" x="748" y="-7.5" font-family="Helvetica,sans-Serif" font-size="10.00">sstream</text>
</g>
<!-- Node0&#45;&gt;Node11 -->
<g id="edge11" class="edge"><title>Node0&#45;&gt;Node11</title>
<path fill="none" stroke="midnightblue" d="M507.097,-64.4184C558.495,-54.0035 635.754,-37.9392 711.895,-20.1889"/>
<polygon fill="midnightblue" stroke="midnightblue" points="712.718,-23.5909 721.656,-17.9024 711.122,-16.7754 712.718,-23.5909"/>
</g>
<!-- Node12 -->
<g id="node13" class="node"><title>Node12</title>
<polygon fill="none" stroke="#bfbfbf" points="792,-0.5 792,-19.5 842,-19.5 842,-0.5 792,-0.5"/>
<text text-anchor="middle" x="817" y="-7.5" font-family="Helvetica,sans-Serif" font-size="10.00">iomanip</text>
</g>
<!-- Node0&#45;&gt;Node12 -->
<g id="edge12" class="edge"><title>Node0&#45;&gt;Node12</title>
<path fill="none" stroke="midnightblue" d="M507.235,-67.9077C572.038,-58.5286 680.008,-41.7906 781.965,-20.0636"/>
<polygon fill="midnightblue" stroke="midnightblue" points="782.772,-23.4704 791.812,-17.9455 781.299,-16.6269 782.772,-23.4704"/>
</g>
</g>
</svg>
