<?xml version="1.0" encoding="UTF-8" standalone="no"?>
<!DOCTYPE svg PUBLIC "-//W3C//DTD SVG 1.1//EN"
 "http://www.w3.org/Graphics/SVG/1.1/DTD/svg11.dtd">
<!-- Generated by graphviz version 2.38.0 (20140413.2041)
 -->
<!-- Title: /home/mel/projects/Misc/Minecraft Server Service/src/listener.h Pages: 1 -->
<svg width="324pt" height="206pt"
 viewBox="0.00 0.00 324.00 206.00" xmlns="http://www.w3.org/2000/svg" xmlns:xlink="http://www.w3.org/1999/xlink">
<g id="graph0" class="graph" transform="scale(1 1) rotate(0) translate(4 202)">
<title>/home/mel/projects/Misc/Minecraft Server Service/src/listener.h</title>
<!-- Node2 -->
<g id="node1" class="node"><title>Node2</title>
<polygon fill="#bfbfbf" stroke="black" points="133.5,-156.5 133.5,-197.5 249.5,-197.5 249.5,-156.5 133.5,-156.5"/>
<text text-anchor="start" x="141.5" y="-185.5" font-family="Helvetica,sans-Serif" font-size="10.00">/home/mel/projects</text>
<text text-anchor="start" x="141.5" y="-174.5" font-family="Helvetica,sans-Serif" font-size="10.00">/Misc/Minecraft Server</text>
<text text-anchor="middle" x="191.5" y="-163.5" font-family="Helvetica,sans-Serif" font-size="10.00"> Service/src/listener.h</text>
</g>
<!-- Node3 -->
<g id="node2" class="node"><title>Node3</title>
<g id="a_node2"><a xlink:href="$server_output_8h.html" xlink:title="/home/mel/projects\l/Misc/Minecraft Server\l Service/src/serverOutput.h">
<polygon fill="none" stroke="black" points="75,-78.5 75,-119.5 212,-119.5 212,-78.5 75,-78.5"/>
<text text-anchor="start" x="83" y="-107.5" font-family="Helvetica,sans-Serif" font-size="10.00">/home/mel/projects</text>
<text text-anchor="start" x="83" y="-96.5" font-family="Helvetica,sans-Serif" font-size="10.00">/Misc/Minecraft Server</text>
<text text-anchor="middle" x="143.5" y="-85.5" font-family="Helvetica,sans-Serif" font-size="10.00"> Service/src/serverOutput.h</text>
</a>
</g>
</g>
<!-- Node2&#45;&gt;Node3 -->
<g id="edge1" class="edge"><title>Node2&#45;&gt;Node3</title>
<path fill="none" stroke="midnightblue" d="M173.662,-147.757C167.724,-138.354 161.245,-128.096 155.819,-119.506"/>
<polygon fill="midnightblue" stroke="midnightblue" points="170.84,-149.842 179.139,-156.428 176.758,-146.104 170.84,-149.842"/>
</g>
<!-- Node5 -->
<g id="node4" class="node"><title>Node5</title>
<g id="a_node4"><a xlink:href="$_server_stream_8cpp.html" xlink:title="/home/mel/projects\l/Misc/Minecraft Server\l Service/src/ServerStream.cpp">
<polygon fill="none" stroke="black" points="165,-0.5 165,-41.5 316,-41.5 316,-0.5 165,-0.5"/>
<text text-anchor="start" x="173" y="-29.5" font-family="Helvetica,sans-Serif" font-size="10.00">/home/mel/projects</text>
<text text-anchor="start" x="173" y="-18.5" font-family="Helvetica,sans-Serif" font-size="10.00">/Misc/Minecraft Server</text>
<text text-anchor="middle" x="240.5" y="-7.5" font-family="Helvetica,sans-Serif" font-size="10.00"> Service/src/ServerStream.cpp</text>
</a>
</g>
</g>
<!-- Node2&#45;&gt;Node5 -->
<g id="edge4" class="edge"><title>Node2&#45;&gt;Node5</title>
<path fill="none" stroke="midnightblue" d="M208.189,-147.5C212.7,-138.883 217.233,-129.249 220.5,-120 229.812,-93.6395 235.322,-61.6743 238.129,-41.5802"/>
<polygon fill="midnightblue" stroke="midnightblue" points="205.06,-145.927 203.362,-156.385 211.211,-149.269 205.06,-145.927"/>
</g>
<!-- Node4 -->
<g id="node3" class="node"><title>Node4</title>
<g id="a_node3"><a xlink:href="$server_output_8cpp.html" xlink:title="/home/mel/projects\l/Misc/Minecraft Server\l Service/src/serverOutput.cpp">
<polygon fill="none" stroke="black" points="0,-0.5 0,-41.5 147,-41.5 147,-0.5 0,-0.5"/>
<text text-anchor="start" x="8" y="-29.5" font-family="Helvetica,sans-Serif" font-size="10.00">/home/mel/projects</text>
<text text-anchor="start" x="8" y="-18.5" font-family="Helvetica,sans-Serif" font-size="10.00">/Misc/Minecraft Server</text>
<text text-anchor="middle" x="73.5" y="-7.5" font-family="Helvetica,sans-Serif" font-size="10.00"> Service/src/serverOutput.cpp</text>
</a>
</g>
</g>
<!-- Node3&#45;&gt;Node4 -->
<g id="edge2" class="edge"><title>Node3&#45;&gt;Node4</title>
<path fill="none" stroke="midnightblue" d="M118.554,-70.9158C109.608,-61.2029 99.7041,-50.4502 91.4657,-41.5056"/>
<polygon fill="midnightblue" stroke="midnightblue" points="116.124,-73.4438 125.473,-78.4281 121.273,-68.7015 116.124,-73.4438"/>
</g>
<!-- Node3&#45;&gt;Node5 -->
<g id="edge3" class="edge"><title>Node3&#45;&gt;Node5</title>
<path fill="none" stroke="midnightblue" d="M176.602,-72.0648C189.374,-62.0574 203.736,-50.8045 215.605,-41.5056"/>
<polygon fill="midnightblue" stroke="midnightblue" points="174.193,-69.5055 168.48,-78.4281 178.51,-75.0157 174.193,-69.5055"/>
</g>
</g>
</svg>
