<?xml version="1.0" encoding="UTF-8" standalone="no"?>
<!DOCTYPE svg PUBLIC "-//W3C//DTD SVG 1.1//EN"
 "http://www.w3.org/Graphics/SVG/1.1/DTD/svg11.dtd">
<!-- Generated by graphviz version 2.38.0 (20140413.2041)
 -->
<!-- Title: writeToSocket Pages: 1 -->
<svg width="386pt" height="28pt"
 viewBox="0.00 0.00 386.00 28.00" xmlns="http://www.w3.org/2000/svg" xmlns:xlink="http://www.w3.org/1999/xlink">
<g id="graph0" class="graph" transform="scale(1 1) rotate(0) translate(4 24)">
<title>writeToSocket</title>
<!-- Node16 -->
<g id="node1" class="node"><title>Node16</title>
<polygon fill="#bfbfbf" stroke="black" points="0,-0.5 0,-19.5 80,-19.5 80,-0.5 0,-0.5"/>
<text text-anchor="middle" x="40" y="-7.5" font-family="Helvetica,sans-Serif" font-size="10.00">writeToSocket</text>
</g>
<!-- Node17 -->
<g id="node2" class="node"><title>Node17</title>
<g id="a_node2"><a xlink:href="$main_loop_8h.html#a49d60dd7e88e6b6c879c9465bebaed5e" xlink:title="recieveCommand">
<polygon fill="none" stroke="black" points="116,-0.5 116,-19.5 209,-19.5 209,-0.5 116,-0.5"/>
<text text-anchor="middle" x="162.5" y="-7.5" font-family="Helvetica,sans-Serif" font-size="10.00">recieveCommand</text>
</a>
</g>
</g>
<!-- Node16&#45;&gt;Node17 -->
<g id="edge1" class="edge"><title>Node16&#45;&gt;Node17</title>
<path fill="none" stroke="midnightblue" d="M90.2585,-10C98.7284,-10 107.498,-10 115.868,-10"/>
<polygon fill="midnightblue" stroke="midnightblue" points="90.1229,-6.5001 80.1229,-10 90.1229,-13.5001 90.1229,-6.5001"/>
</g>
<!-- Node18 -->
<g id="node3" class="node"><title>Node18</title>
<g id="a_node3"><a xlink:href="$main_loop_8cpp.html#a5b8ae8d09b7249084a22620e375fd5e5" xlink:title="mainLoop">
<polygon fill="none" stroke="black" points="245,-0.5 245,-19.5 304,-19.5 304,-0.5 245,-0.5"/>
<text text-anchor="middle" x="274.5" y="-7.5" font-family="Helvetica,sans-Serif" font-size="10.00">mainLoop</text>
</a>
</g>
</g>
<!-- Node17&#45;&gt;Node18 -->
<g id="edge2" class="edge"><title>Node17&#45;&gt;Node18</title>
<path fill="none" stroke="midnightblue" d="M219.447,-10C228.213,-10 236.947,-10 244.758,-10"/>
<polygon fill="midnightblue" stroke="midnightblue" points="219.194,-6.5001 209.194,-10 219.194,-13.5001 219.194,-6.5001"/>
</g>
<!-- Node19 -->
<g id="node4" class="node"><title>Node19</title>
<g id="a_node4"><a xlink:href="$main_8cpp.html#a840291bc02cba5474a4cb46a9b9566fe" xlink:title="main">
<polygon fill="none" stroke="black" points="340,-0.5 340,-19.5 378,-19.5 378,-0.5 340,-0.5"/>
<text text-anchor="middle" x="359" y="-7.5" font-family="Helvetica,sans-Serif" font-size="10.00">main</text>
</a>
</g>
</g>
<!-- Node18&#45;&gt;Node19 -->
<g id="edge3" class="edge"><title>Node18&#45;&gt;Node19</title>
<path fill="none" stroke="midnightblue" d="M314.488,-10C323.254,-10 332.158,-10 339.607,-10"/>
<polygon fill="midnightblue" stroke="midnightblue" points="314.355,-6.5001 304.354,-10 314.354,-13.5001 314.355,-6.5001"/>
</g>
</g>
</svg>
