<?xml version="1.0" encoding="UTF-8" standalone="no"?>
<!DOCTYPE svg PUBLIC "-//W3C//DTD SVG 1.1//EN"
 "http://www.w3.org/Graphics/SVG/1.1/DTD/svg11.dtd">
<!-- Generated by graphviz version 2.38.0 (20140413.2041)
 -->
<!-- Title: main Pages: 1 -->
<svg width="431pt" height="180pt"
 viewBox="0.00 0.00 431.00 180.00" xmlns="http://www.w3.org/2000/svg" xmlns:xlink="http://www.w3.org/1999/xlink">
<g id="graph0" class="graph" transform="scale(1 1) rotate(0) translate(4 176)">
<title>main</title>
<!-- Node0 -->
<g id="node1" class="node"><title>Node0</title>
<polygon fill="#bfbfbf" stroke="black" points="0,-76.5 0,-95.5 38,-95.5 38,-76.5 0,-76.5"/>
<text text-anchor="middle" x="19" y="-83.5" font-family="Helvetica,sans-Serif" font-size="10.00">main</text>
</g>
<!-- Node1 -->
<g id="node2" class="node"><title>Node1</title>
<g id="a_node2"><a xlink:href="$main_loop_8cpp.html#a258e3b580e688a0cf46e4258525aeaf1" xlink:title="sigint_handler">
<polygon fill="none" stroke="black" points="74,-152.5 74,-171.5 151,-171.5 151,-152.5 74,-152.5"/>
<text text-anchor="middle" x="112.5" y="-159.5" font-family="Helvetica,sans-Serif" font-size="10.00">sigint_handler</text>
</a>
</g>
</g>
<!-- Node0&#45;&gt;Node1 -->
<g id="edge1" class="edge"><title>Node0&#45;&gt;Node1</title>
<path fill="none" stroke="midnightblue" d="M27.5553,-95.8567C37.2884,-108.072 55.2036,-128.985 74,-143 76.0478,-144.527 78.2367,-145.991 80.4897,-147.382"/>
<polygon fill="midnightblue" stroke="midnightblue" points="78.9027,-150.505 89.3347,-152.356 82.3336,-144.404 78.9027,-150.505"/>
</g>
<!-- Node2 -->
<g id="node3" class="node"><title>Node2</title>
<g id="a_node3"><a xlink:href="$class_parser.html#a9ee227e9602693296fa201ebf86d2166" xlink:title="Parser::parse">
<polygon fill="none" stroke="black" points="75,-114.5 75,-133.5 150,-133.5 150,-114.5 75,-114.5"/>
<text text-anchor="middle" x="112.5" y="-121.5" font-family="Helvetica,sans-Serif" font-size="10.00">Parser::parse</text>
</a>
</g>
</g>
<!-- Node0&#45;&gt;Node2 -->
<g id="edge2" class="edge"><title>Node0&#45;&gt;Node2</title>
<path fill="none" stroke="midnightblue" d="M38.0775,-93.5076C49.7283,-98.3462 65.2145,-104.778 78.9604,-110.486"/>
<polygon fill="midnightblue" stroke="midnightblue" points="78.0046,-113.879 88.5822,-114.482 80.6894,-107.414 78.0046,-113.879"/>
</g>
<!-- Node4 -->
<g id="node5" class="node"><title>Node4</title>
<g id="a_node5"><a xlink:href="$create_socket_8cpp.html#a0300be853ca0519cc094d30a0c18be20" xlink:title="createSocket">
<polygon fill="none" stroke="black" points="75.5,-76.5 75.5,-95.5 149.5,-95.5 149.5,-76.5 75.5,-76.5"/>
<text text-anchor="middle" x="112.5" y="-83.5" font-family="Helvetica,sans-Serif" font-size="10.00">createSocket</text>
</a>
</g>
</g>
<!-- Node0&#45;&gt;Node4 -->
<g id="edge4" class="edge"><title>Node0&#45;&gt;Node4</title>
<path fill="none" stroke="midnightblue" d="M38.0775,-86C45.963,-86 55.6054,-86 65.276,-86"/>
<polygon fill="midnightblue" stroke="midnightblue" points="65.2916,-89.5001 75.2916,-86 65.2916,-82.5001 65.2916,-89.5001"/>
</g>
<!-- Node5 -->
<g id="node6" class="node"><title>Node5</title>
<g id="a_node6"><a xlink:href="$setup_servers_8cpp.html#a094482a2850da71d05a99a1a56e6650d" xlink:title="setupServers">
<polygon fill="none" stroke="black" points="75.5,-38.5 75.5,-57.5 149.5,-57.5 149.5,-38.5 75.5,-38.5"/>
<text text-anchor="middle" x="112.5" y="-45.5" font-family="Helvetica,sans-Serif" font-size="10.00">setupServers</text>
</a>
</g>
</g>
<!-- Node0&#45;&gt;Node5 -->
<g id="edge5" class="edge"><title>Node0&#45;&gt;Node5</title>
<path fill="none" stroke="midnightblue" d="M38.0775,-78.4924C49.7283,-73.6538 65.2145,-67.2224 78.9604,-61.5137"/>
<polygon fill="midnightblue" stroke="midnightblue" points="80.6894,-64.5856 88.5822,-57.5178 78.0046,-58.1209 80.6894,-64.5856"/>
</g>
<!-- Node6 -->
<g id="node7" class="node"><title>Node6</title>
<g id="a_node7"><a xlink:href="$main_loop_8cpp.html#a5b8ae8d09b7249084a22620e375fd5e5" xlink:title="mainLoop">
<polygon fill="none" stroke="black" points="83,-0.5 83,-19.5 142,-19.5 142,-0.5 83,-0.5"/>
<text text-anchor="middle" x="112.5" y="-7.5" font-family="Helvetica,sans-Serif" font-size="10.00">mainLoop</text>
</a>
</g>
</g>
<!-- Node0&#45;&gt;Node6 -->
<g id="edge6" class="edge"><title>Node0&#45;&gt;Node6</title>
<path fill="none" stroke="midnightblue" d="M27.5553,-76.1433C37.2884,-63.928 55.2036,-43.015 74,-29 76.0478,-27.4731 78.2367,-26.0085 80.4897,-24.6178"/>
<polygon fill="midnightblue" stroke="midnightblue" points="82.3336,-27.5965 89.3347,-19.6444 78.9027,-21.4949 82.3336,-27.5965"/>
</g>
<!-- Node3 -->
<g id="node4" class="node"><title>Node3</title>
<g id="a_node4"><a xlink:href="$class_parser.html#ae0115d243f4729f798bb632050ff692a" xlink:title="Parser::getFileContents">
<polygon fill="none" stroke="black" points="187,-114.5 187,-133.5 307,-133.5 307,-114.5 187,-114.5"/>
<text text-anchor="middle" x="247" y="-121.5" font-family="Helvetica,sans-Serif" font-size="10.00">Parser::getFileContents</text>
</a>
</g>
</g>
<!-- Node2&#45;&gt;Node3 -->
<g id="edge3" class="edge"><title>Node2&#45;&gt;Node3</title>
<path fill="none" stroke="midnightblue" d="M150.057,-124C158.439,-124 167.62,-124 176.876,-124"/>
<polygon fill="midnightblue" stroke="midnightblue" points="176.915,-127.5 186.915,-124 176.915,-120.5 176.915,-127.5"/>
</g>
<!-- Node7 -->
<g id="node8" class="node"><title>Node7</title>
<g id="a_node8"><a xlink:href="$main_loop_8cpp.html#a016c2c474e0f9f1d97700898a33615e4" xlink:title="recieveCommand">
<polygon fill="none" stroke="black" points="200.5,-0.5 200.5,-19.5 293.5,-19.5 293.5,-0.5 200.5,-0.5"/>
<text text-anchor="middle" x="247" y="-7.5" font-family="Helvetica,sans-Serif" font-size="10.00">recieveCommand</text>
</a>
</g>
</g>
<!-- Node6&#45;&gt;Node7 -->
<g id="edge7" class="edge"><title>Node6&#45;&gt;Node7</title>
<path fill="none" stroke="midnightblue" d="M142.251,-10C156.306,-10 173.72,-10 190.24,-10"/>
<polygon fill="midnightblue" stroke="midnightblue" points="190.374,-13.5001 200.373,-10 190.373,-6.5001 190.374,-13.5001"/>
</g>
<!-- Node8 -->
<g id="node9" class="node"><title>Node8</title>
<g id="a_node9"><a xlink:href="$main_loop_8cpp.html#ae78f03fb04ce6bc07ec81b0f6648e0b4" xlink:title="writeToSocket">
<polygon fill="none" stroke="black" points="343,-0.5 343,-19.5 423,-19.5 423,-0.5 343,-0.5"/>
<text text-anchor="middle" x="383" y="-7.5" font-family="Helvetica,sans-Serif" font-size="10.00">writeToSocket</text>
</a>
</g>
</g>
<!-- Node7&#45;&gt;Node8 -->
<g id="edge8" class="edge"><title>Node7&#45;&gt;Node8</title>
<path fill="none" stroke="midnightblue" d="M293.74,-10C306.179,-10 319.709,-10 332.353,-10"/>
<polygon fill="midnightblue" stroke="midnightblue" points="332.722,-13.5001 342.722,-10 332.722,-6.5001 332.722,-13.5001"/>
</g>
</g>
</svg>
