<?xml version="1.0" encoding="UTF-8" standalone="no"?>
<!DOCTYPE svg PUBLIC "-//W3C//DTD SVG 1.1//EN"
 "http://www.w3.org/Graphics/SVG/1.1/DTD/svg11.dtd">
<!-- Generated by graphviz version 2.38.0 (20140413.2041)
 -->
<!-- Title: Json::valueToQuotedString Pages: 1 -->
<svg width="495pt" height="47pt"
 viewBox="0.00 0.00 495.00 47.00" xmlns="http://www.w3.org/2000/svg" xmlns:xlink="http://www.w3.org/1999/xlink">
<g id="graph0" class="graph" transform="scale(1 1) rotate(0) translate(4 43)">
<title>Json::valueToQuotedString</title>
<!-- Node155 -->
<g id="node1" class="node"><title>Node155</title>
<polygon fill="#bfbfbf" stroke="black" points="0,-0.5 0,-19.5 135,-19.5 135,-0.5 0,-0.5"/>
<text text-anchor="middle" x="67.5" y="-7.5" font-family="Helvetica,sans-Serif" font-size="10.00">Json::valueToQuotedString</text>
</g>
<!-- Node156 -->
<g id="node2" class="node"><title>Node156</title>
<g id="a_node2"><a xlink:href="$namespace_json.html#aa11b210ff98a4f4dd4e2df19260f8c3a" xlink:title="Json::containsControlCharacter">
<polygon fill="none" stroke="black" points="171,-19.5 171,-38.5 326,-38.5 326,-19.5 171,-19.5"/>
<text text-anchor="middle" x="248.5" y="-26.5" font-family="Helvetica,sans-Serif" font-size="10.00">Json::containsControlCharacter</text>
</a>
</g>
</g>
<!-- Node155&#45;&gt;Node156 -->
<g id="edge1" class="edge"><title>Node155&#45;&gt;Node156</title>
<path fill="none" stroke="midnightblue" d="M135.153,-17.0749C143.512,-17.9621 152.156,-18.8796 160.765,-19.7935"/>
<polygon fill="midnightblue" stroke="midnightblue" points="160.524,-23.2875 170.837,-20.8626 161.263,-16.3266 160.524,-23.2875"/>
</g>
<!-- Node157 -->
<g id="node3" class="node"><title>Node157</title>
<g id="a_node3"><a xlink:href="$namespace_json.html#a0381e631737f51331065a388f4f59197" xlink:title="Returns true if ch is a control character (in range [1,31]). ">
<polygon fill="none" stroke="black" points="362,-0.5 362,-19.5 487,-19.5 487,-0.5 362,-0.5"/>
<text text-anchor="middle" x="424.5" y="-7.5" font-family="Helvetica,sans-Serif" font-size="10.00">Json::isControlCharacter</text>
</a>
</g>
</g>
<!-- Node155&#45;&gt;Node157 -->
<g id="edge3" class="edge"><title>Node155&#45;&gt;Node157</title>
<path fill="none" stroke="midnightblue" d="M135.273,-10C196.916,-10 288.225,-10 351.484,-10"/>
<polygon fill="midnightblue" stroke="midnightblue" points="351.778,-13.5001 361.778,-10 351.778,-6.5001 351.778,-13.5001"/>
</g>
<!-- Node156&#45;&gt;Node157 -->
<g id="edge2" class="edge"><title>Node156&#45;&gt;Node157</title>
<path fill="none" stroke="midnightblue" d="M326.072,-20.6387C334.564,-19.7114 343.19,-18.7695 351.62,-17.849"/>
<polygon fill="midnightblue" stroke="midnightblue" points="352.223,-21.304 361.784,-16.7391 351.463,-14.3453 352.223,-21.304"/>
</g>
</g>
</svg>
