<?xml version="1.0" encoding="UTF-8" standalone="no"?>
<!DOCTYPE svg PUBLIC "-//W3C//DTD SVG 1.1//EN"
 "http://www.w3.org/Graphics/SVG/1.1/DTD/svg11.dtd">
<!-- Generated by graphviz version 2.38.0 (20140413.2041)
 -->
<!-- Title: Json::strnpbrk Pages: 1 -->
<svg width="821pt" height="145pt"
 viewBox="0.00 0.00 821.00 145.00" xmlns="http://www.w3.org/2000/svg" xmlns:xlink="http://www.w3.org/1999/xlink">
<g id="graph0" class="graph" transform="scale(1 1) rotate(0) translate(4 141)">
<title>Json::strnpbrk</title>
<!-- Node107 -->
<g id="node1" class="node"><title>Node107</title>
<polygon fill="#bfbfbf" stroke="black" points="0,-59 0,-78 79,-78 79,-59 0,-59"/>
<text text-anchor="middle" x="39.5" y="-66" font-family="Helvetica,sans-Serif" font-size="10.00">Json::strnpbrk</text>
</g>
<!-- Node108 -->
<g id="node2" class="node"><title>Node108</title>
<g id="a_node2"><a xlink:href="$namespace_json.html#a20d52b5a457ee5d833645d119451c2cd" xlink:title="Json::valueToQuotedStringN">
<polygon fill="none" stroke="black" points="115,-59 115,-78 258,-78 258,-59 115,-59"/>
<text text-anchor="middle" x="186.5" y="-66" font-family="Helvetica,sans-Serif" font-size="10.00">Json::valueToQuotedStringN</text>
</a>
</g>
</g>
<!-- Node107&#45;&gt;Node108 -->
<g id="edge1" class="edge"><title>Node107&#45;&gt;Node108</title>
<path fill="none" stroke="midnightblue" d="M89.4585,-68.5C97.652,-68.5 106.295,-68.5 114.903,-68.5"/>
<polygon fill="midnightblue" stroke="midnightblue" points="89.3574,-65.0001 79.3573,-68.5 89.3573,-72.0001 89.3574,-65.0001"/>
</g>
<!-- Node109 -->
<g id="node3" class="node"><title>Node109</title>
<g id="a_node3"><a xlink:href="$struct_json_1_1_built_styled_stream_writer.html#a7c9da861861e570a51b45f270c9ff150" xlink:title="Json::BuiltStyledStreamWriter\l::writeValue">
<polygon fill="none" stroke="black" points="294,-53.5 294,-83.5 443,-83.5 443,-53.5 294,-53.5"/>
<text text-anchor="start" x="302" y="-71.5" font-family="Helvetica,sans-Serif" font-size="10.00">Json::BuiltStyledStreamWriter</text>
<text text-anchor="middle" x="368.5" y="-60.5" font-family="Helvetica,sans-Serif" font-size="10.00">::writeValue</text>
</a>
</g>
</g>
<!-- Node108&#45;&gt;Node109 -->
<g id="edge2" class="edge"><title>Node108&#45;&gt;Node109</title>
<path fill="none" stroke="midnightblue" d="M268.383,-68.5C276.854,-68.5 285.435,-68.5 293.82,-68.5"/>
<polygon fill="midnightblue" stroke="midnightblue" points="268.124,-65.0001 258.124,-68.5 268.124,-72.0001 268.124,-65.0001"/>
</g>
<!-- Node110 -->
<g id="node4" class="node"><title>Node110</title>
<g id="a_node4"><a xlink:href="$struct_json_1_1_built_styled_stream_writer.html#a2ecffc3d66c4feddf208e5cd3b1c0f18" xlink:title="Json::BuiltStyledStreamWriter\l::write">
<polygon fill="none" stroke="black" points="479,-106.5 479,-136.5 628,-136.5 628,-106.5 479,-106.5"/>
<text text-anchor="start" x="487" y="-124.5" font-family="Helvetica,sans-Serif" font-size="10.00">Json::BuiltStyledStreamWriter</text>
<text text-anchor="middle" x="553.5" y="-113.5" font-family="Helvetica,sans-Serif" font-size="10.00">::write</text>
</a>
</g>
</g>
<!-- Node109&#45;&gt;Node110 -->
<g id="edge3" class="edge"><title>Node109&#45;&gt;Node110</title>
<path fill="none" stroke="midnightblue" d="M431.231,-86.3783C453.704,-92.8868 478.865,-100.174 500.419,-106.416"/>
<polygon fill="midnightblue" stroke="midnightblue" points="432.03,-82.966 421.451,-83.5459 430.083,-89.6897 432.03,-82.966"/>
</g>
<!-- Node111 -->
<g id="node5" class="node"><title>Node111</title>
<g id="a_node5"><a xlink:href="$struct_json_1_1_built_styled_stream_writer.html#acd20e9274bbcf7876ef3af2e7d23a31f" xlink:title="Json::BuiltStyledStreamWriter\l::writeArrayValue">
<polygon fill="none" stroke="black" points="664,-53.5 664,-83.5 813,-83.5 813,-53.5 664,-53.5"/>
<text text-anchor="start" x="672" y="-71.5" font-family="Helvetica,sans-Serif" font-size="10.00">Json::BuiltStyledStreamWriter</text>
<text text-anchor="middle" x="738.5" y="-60.5" font-family="Helvetica,sans-Serif" font-size="10.00">::writeArrayValue</text>
</a>
</g>
</g>
<!-- Node109&#45;&gt;Node111 -->
<g id="edge4" class="edge"><title>Node109&#45;&gt;Node111</title>
<path fill="none" stroke="midnightblue" d="M453.451,-62.7294C516.834,-61.348 602.975,-61.4279 663.727,-62.969"/>
<polygon fill="midnightblue" stroke="midnightblue" points="453.001,-59.239 443.086,-62.9737 453.166,-66.237 453.001,-59.239"/>
</g>
<!-- Node112 -->
<g id="node6" class="node"><title>Node112</title>
<g id="a_node6"><a xlink:href="$struct_json_1_1_built_styled_stream_writer.html#af423fd33b3d580506ea3efc53b05a077" xlink:title="Json::BuiltStyledStreamWriter\l::isMultineArray">
<polygon fill="none" stroke="black" points="479,-0.5 479,-30.5 628,-30.5 628,-0.5 479,-0.5"/>
<text text-anchor="start" x="487" y="-18.5" font-family="Helvetica,sans-Serif" font-size="10.00">Json::BuiltStyledStreamWriter</text>
<text text-anchor="middle" x="553.5" y="-7.5" font-family="Helvetica,sans-Serif" font-size="10.00">::isMultineArray</text>
</a>
</g>
</g>
<!-- Node109&#45;&gt;Node112 -->
<g id="edge6" class="edge"><title>Node109&#45;&gt;Node112</title>
<path fill="none" stroke="midnightblue" d="M431.231,-50.6217C453.704,-44.1132 478.865,-36.8259 500.419,-30.5835"/>
<polygon fill="midnightblue" stroke="midnightblue" points="430.083,-47.3103 421.451,-53.4541 432.03,-54.034 430.083,-47.3103"/>
</g>
<!-- Node111&#45;&gt;Node109 -->
<g id="edge5" class="edge"><title>Node111&#45;&gt;Node109</title>
<path fill="none" stroke="midnightblue" d="M653.353,-74.2748C589.924,-75.6532 503.785,-75.5704 443.086,-74.0263"/>
<polygon fill="midnightblue" stroke="midnightblue" points="653.812,-77.7651 663.727,-74.031 653.648,-70.767 653.812,-77.7651"/>
</g>
<!-- Node112&#45;&gt;Node111 -->
<g id="edge7" class="edge"><title>Node112&#45;&gt;Node111</title>
<path fill="none" stroke="midnightblue" d="M616.231,-33.3783C638.704,-39.8868 663.865,-47.1741 685.419,-53.4165"/>
<polygon fill="midnightblue" stroke="midnightblue" points="617.03,-29.966 606.451,-30.5459 615.083,-36.6897 617.03,-29.966"/>
</g>
</g>
</svg>
