<?xml version="1.0" encoding="UTF-8" standalone="no"?>
<!DOCTYPE svg PUBLIC "-//W3C//DTD SVG 1.1//EN"
 "http://www.w3.org/Graphics/SVG/1.1/DTD/svg11.dtd">
<!-- Generated by graphviz version 2.38.0 (20140413.2041)
 -->
<!-- Title: Json::normalizeEOL Pages: 1 -->
<svg width="1375pt" height="176pt"
 viewBox="0.00 0.00 1375.00 176.06" xmlns="http://www.w3.org/2000/svg" xmlns:xlink="http://www.w3.org/1999/xlink">
<g id="graph0" class="graph" transform="scale(1 1) rotate(0) translate(4 172.056)">
<title>Json::normalizeEOL</title>
<!-- Node82 -->
<g id="node1" class="node"><title>Node82</title>
<polygon fill="#bfbfbf" stroke="black" points="0,-66.056 0,-85.056 105,-85.056 105,-66.056 0,-66.056"/>
<text text-anchor="middle" x="52.5" y="-73.056" font-family="Helvetica,sans-Serif" font-size="10.00">Json::normalizeEOL</text>
</g>
<!-- Node83 -->
<g id="node2" class="node"><title>Node83</title>
<g id="a_node2"><a xlink:href="$class_json_1_1_our_reader.html#ad7318c37469a9106069a236fb4b10e1f" xlink:title="Json::OurReader::addComment">
<polygon fill="none" stroke="black" points="141,-66.056 141,-85.056 296,-85.056 296,-66.056 141,-66.056"/>
<text text-anchor="middle" x="218.5" y="-73.056" font-family="Helvetica,sans-Serif" font-size="10.00">Json::OurReader::addComment</text>
</a>
</g>
</g>
<!-- Node82&#45;&gt;Node83 -->
<g id="edge1" class="edge"><title>Node82&#45;&gt;Node83</title>
<path fill="none" stroke="midnightblue" d="M115.626,-75.556C123.847,-75.556 132.352,-75.556 140.782,-75.556"/>
<polygon fill="midnightblue" stroke="midnightblue" points="115.391,-72.0561 105.391,-75.556 115.391,-79.0561 115.391,-72.0561"/>
</g>
<!-- Node84 -->
<g id="node3" class="node"><title>Node84</title>
<g id="a_node3"><a xlink:href="$class_json_1_1_our_reader.html#a90f6bb9e55b2bc3d6c1880809495c222" xlink:title="Json::OurReader::readComment">
<polygon fill="none" stroke="black" points="332,-66.056 332,-85.056 490,-85.056 490,-66.056 332,-66.056"/>
<text text-anchor="middle" x="411" y="-73.056" font-family="Helvetica,sans-Serif" font-size="10.00">Json::OurReader::readComment</text>
</a>
</g>
</g>
<!-- Node83&#45;&gt;Node84 -->
<g id="edge2" class="edge"><title>Node83&#45;&gt;Node84</title>
<path fill="none" stroke="midnightblue" d="M306.182,-75.556C314.77,-75.556 323.451,-75.556 331.944,-75.556"/>
<polygon fill="midnightblue" stroke="midnightblue" points="306.16,-72.0561 296.16,-75.556 306.16,-79.0561 306.16,-72.0561"/>
</g>
<!-- Node85 -->
<g id="node4" class="node"><title>Node85</title>
<g id="a_node4"><a xlink:href="$class_json_1_1_our_reader.html#a0d1e66da47fe2e85f5033c59326dfdc3" xlink:title="Json::OurReader::readToken">
<polygon fill="none" stroke="black" points="526,-66.056 526,-85.056 669,-85.056 669,-66.056 526,-66.056"/>
<text text-anchor="middle" x="597.5" y="-73.056" font-family="Helvetica,sans-Serif" font-size="10.00">Json::OurReader::readToken</text>
</a>
</g>
</g>
<!-- Node84&#45;&gt;Node85 -->
<g id="edge3" class="edge"><title>Node84&#45;&gt;Node85</title>
<path fill="none" stroke="midnightblue" d="M500.245,-75.556C508.797,-75.556 517.395,-75.556 525.745,-75.556"/>
<polygon fill="midnightblue" stroke="midnightblue" points="500.245,-72.0561 490.245,-75.556 500.245,-79.0561 500.245,-72.0561"/>
</g>
<!-- Node86 -->
<g id="node5" class="node"><title>Node86</title>
<g id="a_node5"><a xlink:href="$class_json_1_1_our_reader.html#a856dea44d92578c276856d7a65a4ebdc" xlink:title="Json::OurReader::skipComment\lTokens">
<polygon fill="none" stroke="black" points="705,-85.556 705,-115.556 863,-115.556 863,-85.556 705,-85.556"/>
<text text-anchor="start" x="713" y="-103.556" font-family="Helvetica,sans-Serif" font-size="10.00">Json::OurReader::skipComment</text>
<text text-anchor="middle" x="784" y="-92.556" font-family="Helvetica,sans-Serif" font-size="10.00">Tokens</text>
</a>
</g>
</g>
<!-- Node85&#45;&gt;Node86 -->
<g id="edge4" class="edge"><title>Node85&#45;&gt;Node86</title>
<path fill="none" stroke="midnightblue" d="M678.847,-86.4432C687.497,-87.6152 696.288,-88.8064 704.91,-89.9747"/>
<polygon fill="midnightblue" stroke="midnightblue" points="679.157,-82.9532 668.778,-85.0787 678.217,-89.8899 679.157,-82.9532"/>
</g>
<!-- Node90 -->
<g id="node9" class="node"><title>Node90</title>
<g id="a_node9"><a xlink:href="$class_json_1_1_our_reader.html#aea198f8101dba55099f4d8121a993530" xlink:title="Json::OurReader::readObject">
<polygon fill="none" stroke="black" points="1075,-86.056 1075,-105.056 1219,-105.056 1219,-86.056 1075,-86.056"/>
<text text-anchor="middle" x="1147" y="-93.056" font-family="Helvetica,sans-Serif" font-size="10.00">Json::OurReader::readObject</text>
</a>
</g>
</g>
<!-- Node85&#45;&gt;Node90 -->
<g id="edge13" class="edge"><title>Node85&#45;&gt;Node90</title>
<path fill="none" stroke="midnightblue" d="M623.284,-90.1663C644.272,-101.739 675.56,-117.149 705,-124.556 849.05,-160.801 892.939,-163.582 1039,-136.556 1071.28,-130.584 1106.4,-115.278 1127.29,-105.151"/>
<polygon fill="midnightblue" stroke="midnightblue" points="624.839,-87.0249 614.409,-85.1617 621.401,-93.1223 624.839,-87.0249"/>
</g>
<!-- Node91 -->
<g id="node10" class="node"><title>Node91</title>
<g id="a_node10"><a xlink:href="$class_json_1_1_our_reader.html#a0b9f58faf4212c6ecb5d8e2a1ac10257" xlink:title="Json::OurReader::readArray">
<polygon fill="none" stroke="black" points="1077.5,-42.056 1077.5,-61.056 1216.5,-61.056 1216.5,-42.056 1077.5,-42.056"/>
<text text-anchor="middle" x="1147" y="-49.056" font-family="Helvetica,sans-Serif" font-size="10.00">Json::OurReader::readArray</text>
</a>
</g>
</g>
<!-- Node85&#45;&gt;Node91 -->
<g id="edge14" class="edge"><title>Node85&#45;&gt;Node91</title>
<path fill="none" stroke="midnightblue" d="M623.255,-60.827C644.226,-49.1836 675.504,-33.7362 705,-26.556 849.285,8.56752 892.255,5.19804 1039,-17.556 1068.86,-22.1853 1101.78,-33.6729 1123.12,-42.0168"/>
<polygon fill="midnightblue" stroke="midnightblue" points="621.353,-57.8819 614.388,-65.8656 624.812,-63.9678 621.353,-57.8819"/>
</g>
<!-- Node92 -->
<g id="node11" class="node"><title>Node92</title>
<g id="a_node11"><a xlink:href="$class_json_1_1_our_reader.html#a035651f0700a76a815e5f904c63ebb1c" xlink:title="Json::OurReader::recover\lFromError">
<polygon fill="none" stroke="black" points="719.5,-36.556 719.5,-66.556 848.5,-66.556 848.5,-36.556 719.5,-36.556"/>
<text text-anchor="start" x="727.5" y="-54.556" font-family="Helvetica,sans-Serif" font-size="10.00">Json::OurReader::recover</text>
<text text-anchor="middle" x="784" y="-43.556" font-family="Helvetica,sans-Serif" font-size="10.00">FromError</text>
</a>
</g>
</g>
<!-- Node85&#45;&gt;Node92 -->
<g id="edge15" class="edge"><title>Node85&#45;&gt;Node92</title>
<path fill="none" stroke="midnightblue" d="M679.249,-65.052C692.708,-63.3013 706.498,-61.5074 719.451,-59.8226"/>
<polygon fill="midnightblue" stroke="midnightblue" points="678.506,-61.6191 669.041,-66.3799 679.409,-68.5606 678.506,-61.6191"/>
</g>
<!-- Node87 -->
<g id="node6" class="node"><title>Node87</title>
<g id="a_node6"><a xlink:href="$class_json_1_1_our_reader.html#aba4f8749aab7f02ec17f107e392caf80" xlink:title="Json::OurReader::parse">
<polygon fill="none" stroke="black" points="1086.5,-143.056 1086.5,-162.056 1207.5,-162.056 1207.5,-143.056 1086.5,-143.056"/>
<text text-anchor="middle" x="1147" y="-150.056" font-family="Helvetica,sans-Serif" font-size="10.00">Json::OurReader::parse</text>
</a>
</g>
</g>
<!-- Node86&#45;&gt;Node87 -->
<g id="edge5" class="edge"><title>Node86&#45;&gt;Node87</title>
<path fill="none" stroke="midnightblue" d="M833.963,-118.87C853.868,-125.561 877.261,-132.481 899,-136.556 962.249,-148.411 1036.02,-151.871 1086.36,-152.702"/>
<polygon fill="midnightblue" stroke="midnightblue" points="835.09,-115.557 824.495,-115.618 832.815,-122.177 835.09,-115.557"/>
</g>
<!-- Node89 -->
<g id="node8" class="node"><title>Node89</title>
<g id="a_node8"><a xlink:href="$class_json_1_1_our_reader.html#a1765d9670d191c89a57a22ea5591d35f" xlink:title="Json::OurReader::readValue">
<polygon fill="none" stroke="black" points="899,-86.056 899,-105.056 1039,-105.056 1039,-86.056 899,-86.056"/>
<text text-anchor="middle" x="969" y="-93.056" font-family="Helvetica,sans-Serif" font-size="10.00">Json::OurReader::readValue</text>
</a>
</g>
</g>
<!-- Node86&#45;&gt;Node89 -->
<g id="edge7" class="edge"><title>Node86&#45;&gt;Node89</title>
<path fill="none" stroke="midnightblue" d="M873.194,-98.1463C881.789,-97.9115 890.424,-97.6756 898.793,-97.4469"/>
<polygon fill="midnightblue" stroke="midnightblue" points="873.04,-94.6491 863.139,-98.421 873.231,-101.647 873.04,-94.6491"/>
</g>
<!-- Node88 -->
<g id="node7" class="node"><title>Node88</title>
<g id="a_node7"><a xlink:href="$class_json_1_1_our_char_reader.html#a52a1fb5fee88d9b63dd462f63b1c9570" xlink:title="Json::OurCharReader\l::parse">
<polygon fill="none" stroke="black" points="1255,-137.556 1255,-167.556 1367,-167.556 1367,-137.556 1255,-137.556"/>
<text text-anchor="start" x="1263" y="-155.556" font-family="Helvetica,sans-Serif" font-size="10.00">Json::OurCharReader</text>
<text text-anchor="middle" x="1311" y="-144.556" font-family="Helvetica,sans-Serif" font-size="10.00">::parse</text>
</a>
</g>
</g>
<!-- Node87&#45;&gt;Node88 -->
<g id="edge6" class="edge"><title>Node87&#45;&gt;Node88</title>
<path fill="none" stroke="midnightblue" d="M1218.11,-152.556C1230.43,-152.556 1243.1,-152.556 1254.94,-152.556"/>
<polygon fill="midnightblue" stroke="midnightblue" points="1217.86,-149.056 1207.86,-152.556 1217.86,-156.056 1217.86,-149.056"/>
</g>
<!-- Node89&#45;&gt;Node87 -->
<g id="edge8" class="edge"><title>Node89&#45;&gt;Node87</title>
<path fill="none" stroke="midnightblue" d="M1009.08,-108.212C1041.52,-118.719 1086.97,-133.438 1116.45,-142.984"/>
<polygon fill="midnightblue" stroke="midnightblue" points="1010.05,-104.848 999.458,-105.096 1007.89,-111.507 1010.05,-104.848"/>
</g>
<!-- Node89&#45;&gt;Node90 -->
<g id="edge9" class="edge"><title>Node89&#45;&gt;Node90</title>
<path fill="none" stroke="midnightblue" d="M1049.06,-88.837C1057.65,-88.7772 1066.35,-88.8038 1074.83,-88.9169"/>
<polygon fill="midnightblue" stroke="midnightblue" points="1049.02,-85.3372 1039.05,-88.947 1049.09,-92.3368 1049.02,-85.3372"/>
</g>
<!-- Node89&#45;&gt;Node91 -->
<g id="edge11" class="edge"><title>Node89&#45;&gt;Node91</title>
<path fill="none" stroke="midnightblue" d="M999.768,-82.9024C1022.11,-75.9055 1053.53,-67.6108 1081.52,-61.1454"/>
<polygon fill="midnightblue" stroke="midnightblue" points="998.619,-79.5958 990.189,-86.0147 1000.78,-86.2533 998.619,-79.5958"/>
</g>
<!-- Node90&#45;&gt;Node89 -->
<g id="edge10" class="edge"><title>Node90&#45;&gt;Node89</title>
<path fill="none" stroke="midnightblue" d="M1064.79,-102.288C1056.19,-102.334 1047.5,-102.292 1039.05,-102.165"/>
<polygon fill="midnightblue" stroke="midnightblue" points="1064.86,-105.788 1074.83,-102.195 1064.8,-98.788 1064.86,-105.788"/>
</g>
<!-- Node91&#45;&gt;Node89 -->
<g id="edge12" class="edge"><title>Node91&#45;&gt;Node89</title>
<path fill="none" stroke="midnightblue" d="M1116.05,-64.2652C1093.74,-71.2459 1062.44,-79.5076 1034.54,-85.9539"/>
<polygon fill="midnightblue" stroke="midnightblue" points="1117.2,-67.5743 1125.63,-61.1591 1115.04,-60.9159 1117.2,-67.5743"/>
</g>
<!-- Node92&#45;&gt;Node90 -->
<g id="edge16" class="edge"><title>Node92&#45;&gt;Node90</title>
<path fill="none" stroke="midnightblue" d="M854.838,-70.932C857.653,-72.3712 860.387,-73.9105 863,-75.556 882.962,-88.1249 877.391,-105.095 899,-114.556 974.053,-147.417 1074.18,-120.85 1120.51,-105.104"/>
<polygon fill="midnightblue" stroke="midnightblue" points="856.167,-67.6903 845.621,-66.6686 853.228,-74.0436 856.167,-67.6903"/>
</g>
<!-- Node92&#45;&gt;Node91 -->
<g id="edge17" class="edge"><title>Node92&#45;&gt;Node91</title>
<path fill="none" stroke="midnightblue" d="M851.943,-34.3552C867.3,-31.1142 883.632,-28.2213 899,-26.556 960.86,-19.8527 977.187,-19.4308 1039,-26.556 1064.39,-29.4832 1092.52,-36.1957 1113.56,-41.9287"/>
<polygon fill="midnightblue" stroke="midnightblue" points="851.033,-30.9712 842.011,-36.5258 852.528,-37.8097 851.033,-30.9712"/>
</g>
<!-- Node93 -->
<g id="node12" class="node"><title>Node93</title>
<g id="a_node12"><a xlink:href="$class_json_1_1_our_reader.html#ae68a7047acd692be8077e259d524c6d9" xlink:title="Json::OurReader::addError\lAndRecover">
<polygon fill="none" stroke="black" points="902,-36.556 902,-66.556 1036,-66.556 1036,-36.556 902,-36.556"/>
<text text-anchor="start" x="910" y="-54.556" font-family="Helvetica,sans-Serif" font-size="10.00">Json::OurReader::addError</text>
<text text-anchor="middle" x="969" y="-43.556" font-family="Helvetica,sans-Serif" font-size="10.00">AndRecover</text>
</a>
</g>
</g>
<!-- Node92&#45;&gt;Node93 -->
<g id="edge18" class="edge"><title>Node92&#45;&gt;Node93</title>
<path fill="none" stroke="midnightblue" d="M858.986,-51.556C873.219,-51.556 888.038,-51.556 901.997,-51.556"/>
<polygon fill="midnightblue" stroke="midnightblue" points="858.748,-48.0561 848.748,-51.556 858.748,-55.0561 858.748,-48.0561"/>
</g>
<!-- Node93&#45;&gt;Node90 -->
<g id="edge19" class="edge"><title>Node93&#45;&gt;Node90</title>
<path fill="none" stroke="midnightblue" d="M1039.9,-69.03C1063.11,-74.8323 1088.07,-81.0736 1107.95,-86.0436"/>
<polygon fill="midnightblue" stroke="midnightblue" points="1040.63,-65.6052 1030.08,-66.5752 1038.93,-72.3962 1040.63,-65.6052"/>
</g>
<!-- Node93&#45;&gt;Node91 -->
<g id="edge20" class="edge"><title>Node93&#45;&gt;Node91</title>
<path fill="none" stroke="midnightblue" d="M1046.25,-51.556C1056.55,-51.556 1067.08,-51.556 1077.24,-51.556"/>
<polygon fill="midnightblue" stroke="midnightblue" points="1046.04,-48.0561 1036.04,-51.556 1046.04,-55.0561 1046.04,-48.0561"/>
</g>
</g>
</svg>
