<?xml version="1.0" encoding="UTF-8" standalone="no"?>
<!DOCTYPE svg PUBLIC "-//W3C//DTD SVG 1.1//EN"
 "http://www.w3.org/Graphics/SVG/1.1/DTD/svg11.dtd">
<!-- Generated by graphviz version 2.38.0 (20140413.2041)
 -->
<!-- Title: Json::valueToQuotedStringN Pages: 1 -->
<svg width="706pt" height="145pt"
 viewBox="0.00 0.00 706.00 145.00" xmlns="http://www.w3.org/2000/svg" xmlns:xlink="http://www.w3.org/1999/xlink">
<g id="graph0" class="graph" transform="scale(1 1) rotate(0) translate(4 141)">
<title>Json::valueToQuotedStringN</title>
<!-- Node172 -->
<g id="node1" class="node"><title>Node172</title>
<polygon fill="#bfbfbf" stroke="black" points="0,-59 0,-78 143,-78 143,-59 0,-59"/>
<text text-anchor="middle" x="71.5" y="-66" font-family="Helvetica,sans-Serif" font-size="10.00">Json::valueToQuotedStringN</text>
</g>
<!-- Node173 -->
<g id="node2" class="node"><title>Node173</title>
<g id="a_node2"><a xlink:href="$struct_json_1_1_built_styled_stream_writer.html#a7c9da861861e570a51b45f270c9ff150" xlink:title="Json::BuiltStyledStreamWriter\l::writeValue">
<polygon fill="none" stroke="black" points="179,-53.5 179,-83.5 328,-83.5 328,-53.5 179,-53.5"/>
<text text-anchor="start" x="187" y="-71.5" font-family="Helvetica,sans-Serif" font-size="10.00">Json::BuiltStyledStreamWriter</text>
<text text-anchor="middle" x="253.5" y="-60.5" font-family="Helvetica,sans-Serif" font-size="10.00">::writeValue</text>
</a>
</g>
</g>
<!-- Node172&#45;&gt;Node173 -->
<g id="edge1" class="edge"><title>Node172&#45;&gt;Node173</title>
<path fill="none" stroke="midnightblue" d="M153.383,-68.5C161.854,-68.5 170.435,-68.5 178.82,-68.5"/>
<polygon fill="midnightblue" stroke="midnightblue" points="153.124,-65.0001 143.124,-68.5 153.124,-72.0001 153.124,-65.0001"/>
</g>
<!-- Node174 -->
<g id="node3" class="node"><title>Node174</title>
<g id="a_node3"><a xlink:href="$struct_json_1_1_built_styled_stream_writer.html#a2ecffc3d66c4feddf208e5cd3b1c0f18" xlink:title="Json::BuiltStyledStreamWriter\l::write">
<polygon fill="none" stroke="black" points="364,-106.5 364,-136.5 513,-136.5 513,-106.5 364,-106.5"/>
<text text-anchor="start" x="372" y="-124.5" font-family="Helvetica,sans-Serif" font-size="10.00">Json::BuiltStyledStreamWriter</text>
<text text-anchor="middle" x="438.5" y="-113.5" font-family="Helvetica,sans-Serif" font-size="10.00">::write</text>
</a>
</g>
</g>
<!-- Node173&#45;&gt;Node174 -->
<g id="edge2" class="edge"><title>Node173&#45;&gt;Node174</title>
<path fill="none" stroke="midnightblue" d="M316.231,-86.3783C338.704,-92.8868 363.865,-100.174 385.419,-106.416"/>
<polygon fill="midnightblue" stroke="midnightblue" points="317.03,-82.966 306.451,-83.5459 315.083,-89.6897 317.03,-82.966"/>
</g>
<!-- Node175 -->
<g id="node4" class="node"><title>Node175</title>
<g id="a_node4"><a xlink:href="$struct_json_1_1_built_styled_stream_writer.html#acd20e9274bbcf7876ef3af2e7d23a31f" xlink:title="Json::BuiltStyledStreamWriter\l::writeArrayValue">
<polygon fill="none" stroke="black" points="549,-53.5 549,-83.5 698,-83.5 698,-53.5 549,-53.5"/>
<text text-anchor="start" x="557" y="-71.5" font-family="Helvetica,sans-Serif" font-size="10.00">Json::BuiltStyledStreamWriter</text>
<text text-anchor="middle" x="623.5" y="-60.5" font-family="Helvetica,sans-Serif" font-size="10.00">::writeArrayValue</text>
</a>
</g>
</g>
<!-- Node173&#45;&gt;Node175 -->
<g id="edge3" class="edge"><title>Node173&#45;&gt;Node175</title>
<path fill="none" stroke="midnightblue" d="M338.451,-62.7294C401.834,-61.348 487.975,-61.4279 548.727,-62.969"/>
<polygon fill="midnightblue" stroke="midnightblue" points="338.001,-59.239 328.086,-62.9737 338.166,-66.237 338.001,-59.239"/>
</g>
<!-- Node176 -->
<g id="node5" class="node"><title>Node176</title>
<g id="a_node5"><a xlink:href="$struct_json_1_1_built_styled_stream_writer.html#af423fd33b3d580506ea3efc53b05a077" xlink:title="Json::BuiltStyledStreamWriter\l::isMultineArray">
<polygon fill="none" stroke="black" points="364,-0.5 364,-30.5 513,-30.5 513,-0.5 364,-0.5"/>
<text text-anchor="start" x="372" y="-18.5" font-family="Helvetica,sans-Serif" font-size="10.00">Json::BuiltStyledStreamWriter</text>
<text text-anchor="middle" x="438.5" y="-7.5" font-family="Helvetica,sans-Serif" font-size="10.00">::isMultineArray</text>
</a>
</g>
</g>
<!-- Node173&#45;&gt;Node176 -->
<g id="edge5" class="edge"><title>Node173&#45;&gt;Node176</title>
<path fill="none" stroke="midnightblue" d="M316.231,-50.6217C338.704,-44.1132 363.865,-36.8259 385.419,-30.5835"/>
<polygon fill="midnightblue" stroke="midnightblue" points="315.083,-47.3103 306.451,-53.4541 317.03,-54.034 315.083,-47.3103"/>
</g>
<!-- Node175&#45;&gt;Node173 -->
<g id="edge4" class="edge"><title>Node175&#45;&gt;Node173</title>
<path fill="none" stroke="midnightblue" d="M538.353,-74.2748C474.924,-75.6532 388.785,-75.5704 328.086,-74.0263"/>
<polygon fill="midnightblue" stroke="midnightblue" points="538.812,-77.7651 548.727,-74.031 538.648,-70.767 538.812,-77.7651"/>
</g>
<!-- Node176&#45;&gt;Node175 -->
<g id="edge6" class="edge"><title>Node176&#45;&gt;Node175</title>
<path fill="none" stroke="midnightblue" d="M501.231,-33.3783C523.704,-39.8868 548.865,-47.1741 570.419,-53.4165"/>
<polygon fill="midnightblue" stroke="midnightblue" points="502.03,-29.966 491.451,-30.5459 500.083,-36.6897 502.03,-29.966"/>
</g>
</g>
</svg>
