<?xml version="1.0" encoding="UTF-8" standalone="no"?>
<!DOCTYPE svg PUBLIC "-//W3C//DTD SVG 1.1//EN"
 "http://www.w3.org/Graphics/SVG/1.1/DTD/svg11.dtd">
<!-- Generated by graphviz version 2.38.0 (20140413.2041)
 -->
<!-- Title: Json::valueToQuotedString Pages: 1 -->
<svg width="877pt" height="145pt"
 viewBox="0.00 0.00 877.00 145.00" xmlns="http://www.w3.org/2000/svg" xmlns:xlink="http://www.w3.org/1999/xlink">
<g id="graph0" class="graph" transform="scale(1 1) rotate(0) translate(4 141)">
<title>Json::valueToQuotedString</title>
<!-- Node158 -->
<g id="node1" class="node"><title>Node158</title>
<polygon fill="#bfbfbf" stroke="black" points="0,-59 0,-78 135,-78 135,-59 0,-59"/>
<text text-anchor="middle" x="67.5" y="-66" font-family="Helvetica,sans-Serif" font-size="10.00">Json::valueToQuotedString</text>
</g>
<!-- Node159 -->
<g id="node2" class="node"><title>Node159</title>
<g id="a_node2"><a xlink:href="$namespace_json.html#a20d52b5a457ee5d833645d119451c2cd" xlink:title="Json::valueToQuotedStringN">
<polygon fill="none" stroke="black" points="171,-59 171,-78 314,-78 314,-59 171,-59"/>
<text text-anchor="middle" x="242.5" y="-66" font-family="Helvetica,sans-Serif" font-size="10.00">Json::valueToQuotedStringN</text>
</a>
</g>
</g>
<!-- Node158&#45;&gt;Node159 -->
<g id="edge1" class="edge"><title>Node158&#45;&gt;Node159</title>
<path fill="none" stroke="midnightblue" d="M145.549,-68.5C153.947,-68.5 162.465,-68.5 170.781,-68.5"/>
<polygon fill="midnightblue" stroke="midnightblue" points="145.386,-65.0001 135.386,-68.5 145.386,-72.0001 145.386,-65.0001"/>
</g>
<!-- Node160 -->
<g id="node3" class="node"><title>Node160</title>
<g id="a_node3"><a xlink:href="$struct_json_1_1_built_styled_stream_writer.html#a7c9da861861e570a51b45f270c9ff150" xlink:title="Json::BuiltStyledStreamWriter\l::writeValue">
<polygon fill="none" stroke="black" points="350,-53.5 350,-83.5 499,-83.5 499,-53.5 350,-53.5"/>
<text text-anchor="start" x="358" y="-71.5" font-family="Helvetica,sans-Serif" font-size="10.00">Json::BuiltStyledStreamWriter</text>
<text text-anchor="middle" x="424.5" y="-60.5" font-family="Helvetica,sans-Serif" font-size="10.00">::writeValue</text>
</a>
</g>
</g>
<!-- Node159&#45;&gt;Node160 -->
<g id="edge2" class="edge"><title>Node159&#45;&gt;Node160</title>
<path fill="none" stroke="midnightblue" d="M324.383,-68.5C332.854,-68.5 341.435,-68.5 349.82,-68.5"/>
<polygon fill="midnightblue" stroke="midnightblue" points="324.124,-65.0001 314.124,-68.5 324.124,-72.0001 324.124,-65.0001"/>
</g>
<!-- Node161 -->
<g id="node4" class="node"><title>Node161</title>
<g id="a_node4"><a xlink:href="$struct_json_1_1_built_styled_stream_writer.html#a2ecffc3d66c4feddf208e5cd3b1c0f18" xlink:title="Json::BuiltStyledStreamWriter\l::write">
<polygon fill="none" stroke="black" points="535,-106.5 535,-136.5 684,-136.5 684,-106.5 535,-106.5"/>
<text text-anchor="start" x="543" y="-124.5" font-family="Helvetica,sans-Serif" font-size="10.00">Json::BuiltStyledStreamWriter</text>
<text text-anchor="middle" x="609.5" y="-113.5" font-family="Helvetica,sans-Serif" font-size="10.00">::write</text>
</a>
</g>
</g>
<!-- Node160&#45;&gt;Node161 -->
<g id="edge3" class="edge"><title>Node160&#45;&gt;Node161</title>
<path fill="none" stroke="midnightblue" d="M487.231,-86.3783C509.704,-92.8868 534.865,-100.174 556.419,-106.416"/>
<polygon fill="midnightblue" stroke="midnightblue" points="488.03,-82.966 477.451,-83.5459 486.083,-89.6897 488.03,-82.966"/>
</g>
<!-- Node162 -->
<g id="node5" class="node"><title>Node162</title>
<g id="a_node5"><a xlink:href="$struct_json_1_1_built_styled_stream_writer.html#acd20e9274bbcf7876ef3af2e7d23a31f" xlink:title="Json::BuiltStyledStreamWriter\l::writeArrayValue">
<polygon fill="none" stroke="black" points="720,-53.5 720,-83.5 869,-83.5 869,-53.5 720,-53.5"/>
<text text-anchor="start" x="728" y="-71.5" font-family="Helvetica,sans-Serif" font-size="10.00">Json::BuiltStyledStreamWriter</text>
<text text-anchor="middle" x="794.5" y="-60.5" font-family="Helvetica,sans-Serif" font-size="10.00">::writeArrayValue</text>
</a>
</g>
</g>
<!-- Node160&#45;&gt;Node162 -->
<g id="edge4" class="edge"><title>Node160&#45;&gt;Node162</title>
<path fill="none" stroke="midnightblue" d="M509.451,-62.7294C572.834,-61.348 658.975,-61.4279 719.727,-62.969"/>
<polygon fill="midnightblue" stroke="midnightblue" points="509.001,-59.239 499.086,-62.9737 509.166,-66.237 509.001,-59.239"/>
</g>
<!-- Node163 -->
<g id="node6" class="node"><title>Node163</title>
<g id="a_node6"><a xlink:href="$struct_json_1_1_built_styled_stream_writer.html#af423fd33b3d580506ea3efc53b05a077" xlink:title="Json::BuiltStyledStreamWriter\l::isMultineArray">
<polygon fill="none" stroke="black" points="535,-0.5 535,-30.5 684,-30.5 684,-0.5 535,-0.5"/>
<text text-anchor="start" x="543" y="-18.5" font-family="Helvetica,sans-Serif" font-size="10.00">Json::BuiltStyledStreamWriter</text>
<text text-anchor="middle" x="609.5" y="-7.5" font-family="Helvetica,sans-Serif" font-size="10.00">::isMultineArray</text>
</a>
</g>
</g>
<!-- Node160&#45;&gt;Node163 -->
<g id="edge6" class="edge"><title>Node160&#45;&gt;Node163</title>
<path fill="none" stroke="midnightblue" d="M487.231,-50.6217C509.704,-44.1132 534.865,-36.8259 556.419,-30.5835"/>
<polygon fill="midnightblue" stroke="midnightblue" points="486.083,-47.3103 477.451,-53.4541 488.03,-54.034 486.083,-47.3103"/>
</g>
<!-- Node162&#45;&gt;Node160 -->
<g id="edge5" class="edge"><title>Node162&#45;&gt;Node160</title>
<path fill="none" stroke="midnightblue" d="M709.353,-74.2748C645.924,-75.6532 559.785,-75.5704 499.086,-74.0263"/>
<polygon fill="midnightblue" stroke="midnightblue" points="709.812,-77.7651 719.727,-74.031 709.648,-70.767 709.812,-77.7651"/>
</g>
<!-- Node163&#45;&gt;Node162 -->
<g id="edge7" class="edge"><title>Node163&#45;&gt;Node162</title>
<path fill="none" stroke="midnightblue" d="M672.231,-33.3783C694.704,-39.8868 719.865,-47.1741 741.419,-53.4165"/>
<polygon fill="midnightblue" stroke="midnightblue" points="673.03,-29.966 662.451,-30.5459 671.083,-36.6897 673.03,-29.966"/>
</g>
</g>
</svg>
