<?xml version="1.0" encoding="UTF-8" standalone="no"?>
<!DOCTYPE svg PUBLIC "-//W3C//DTD SVG 1.1//EN"
 "http://www.w3.org/Graphics/SVG/1.1/DTD/svg11.dtd">
<!-- Generated by graphviz version 2.38.0 (20140413.2041)
 -->
<!-- Title: Json::operator&gt;&gt; Pages: 1 -->
<svg width="260pt" height="66pt"
 viewBox="0.00 0.00 260.00 66.00" xmlns="http://www.w3.org/2000/svg" xmlns:xlink="http://www.w3.org/1999/xlink">
<g id="graph0" class="graph" transform="scale(1 1) rotate(0) translate(4 62)">
<title>Json::operator&gt;&gt;</title>
<!-- Node96 -->
<g id="node1" class="node"><title>Node96</title>
<polygon fill="#bfbfbf" stroke="black" points="0,-19.5 0,-38.5 91,-38.5 91,-19.5 0,-19.5"/>
<text text-anchor="middle" x="45.5" y="-26.5" font-family="Helvetica,sans-Serif" font-size="10.00">Json::operator&gt;&gt;</text>
</g>
<!-- Node97 -->
<g id="node2" class="node"><title>Node97</title>
<g id="a_node2"><a xlink:href="$namespace_json.html#a7b90be78407a3a1f241b2a3048ef3d19" xlink:title="Json::parseFromStream">
<polygon fill="none" stroke="black" points="128.5,-38.5 128.5,-57.5 250.5,-57.5 250.5,-38.5 128.5,-38.5"/>
<text text-anchor="middle" x="189.5" y="-45.5" font-family="Helvetica,sans-Serif" font-size="10.00">Json::parseFromStream</text>
</a>
</g>
</g>
<!-- Node96&#45;&gt;Node97 -->
<g id="edge1" class="edge"><title>Node96&#45;&gt;Node97</title>
<path fill="none" stroke="midnightblue" d="M91.0401,-34.9596C99.7608,-36.1264 109.103,-37.3765 118.424,-38.6236"/>
<polygon fill="midnightblue" stroke="midnightblue" points="118.124,-42.1146 128.5,-39.9718 119.052,-35.1764 118.124,-42.1146"/>
</g>
<!-- Node98 -->
<g id="node3" class="node"><title>Node98</title>
<g id="a_node3"><a xlink:href="$namespace_json.html#a97f039a107b3f6cf1c3edee50e978f76" xlink:title="Json::throwRuntimeError">
<polygon fill="none" stroke="black" points="127,-0.5 127,-19.5 252,-19.5 252,-0.5 127,-0.5"/>
<text text-anchor="middle" x="189.5" y="-7.5" font-family="Helvetica,sans-Serif" font-size="10.00">Json::throwRuntimeError</text>
</a>
</g>
</g>
<!-- Node96&#45;&gt;Node98 -->
<g id="edge2" class="edge"><title>Node96&#45;&gt;Node98</title>
<path fill="none" stroke="midnightblue" d="M91.0401,-23.0404C99.3135,-21.9334 108.146,-20.7516 116.99,-19.5683"/>
<polygon fill="midnightblue" stroke="midnightblue" points="117.502,-23.0311 126.949,-18.2357 116.573,-16.0929 117.502,-23.0311"/>
</g>
</g>
</svg>
