<?xml version="1.0" encoding="UTF-8" standalone="no"?>
<!DOCTYPE svg PUBLIC "-//W3C//DTD SVG 1.1//EN"
 "http://www.w3.org/Graphics/SVG/1.1/DTD/svg11.dtd">
<!-- Generated by graphviz version 2.38.0 (20140413.2041)
 -->
<!-- Title: Json::valueToString Pages: 1 -->
<svg width="846pt" height="182pt"
 viewBox="0.00 0.00 846.00 181.50" xmlns="http://www.w3.org/2000/svg" xmlns:xlink="http://www.w3.org/1999/xlink">
<g id="graph0" class="graph" transform="scale(1 1) rotate(0) translate(4 177.5)">
<title>Json::valueToString</title>
<!-- Node179 -->
<g id="node1" class="node"><title>Node179</title>
<polygon fill="#bfbfbf" stroke="black" points="0,-97 0,-116 104,-116 104,-97 0,-97"/>
<text text-anchor="middle" x="52" y="-104" font-family="Helvetica,sans-Serif" font-size="10.00">Json::valueToString</text>
</g>
<!-- Node180 -->
<g id="node2" class="node"><title>Node180</title>
<g id="a_node2"><a xlink:href="$namespace_json.html#a27613326e9e36bbfe04a905ac90caa91" xlink:title="Json::throwLogicError">
<polygon fill="none" stroke="black" points="155.5,-154 155.5,-173 267.5,-173 267.5,-154 155.5,-154"/>
<text text-anchor="middle" x="211.5" y="-161" font-family="Helvetica,sans-Serif" font-size="10.00">Json::throwLogicError</text>
</a>
</g>
</g>
<!-- Node179&#45;&gt;Node180 -->
<g id="edge1" class="edge"><title>Node179&#45;&gt;Node180</title>
<path fill="none" stroke="midnightblue" d="M81.9393,-120.431C98.6618,-128.153 120.239,-137.565 140,-144.5 149.928,-147.984 160.829,-151.206 171.028,-153.97"/>
<polygon fill="midnightblue" stroke="midnightblue" points="83.2458,-117.178 72.7048,-116.111 80.2798,-123.519 83.2458,-117.178"/>
</g>
<!-- Node181 -->
<g id="node3" class="node"><title>Node181</title>
<g id="a_node3"><a xlink:href="$namespace_json.html#a5d3eba6789f9a9c1ab563ff8b4a5090f" xlink:title="Json::valueToString">
<polygon fill="none" stroke="black" points="159.5,-116 159.5,-135 263.5,-135 263.5,-116 159.5,-116"/>
<text text-anchor="middle" x="211.5" y="-123" font-family="Helvetica,sans-Serif" font-size="10.00">Json::valueToString</text>
</a>
</g>
</g>
<!-- Node179&#45;&gt;Node181 -->
<g id="edge2" class="edge"><title>Node179&#45;&gt;Node181</title>
<path fill="none" stroke="midnightblue" d="M114.286,-113.893C129.19,-115.691 144.974,-117.595 159.352,-119.33"/>
<polygon fill="midnightblue" stroke="midnightblue" points="114.483,-110.392 104.136,-112.669 113.645,-117.341 114.483,-110.392"/>
</g>
<!-- Node182 -->
<g id="node4" class="node"><title>Node182</title>
<g id="a_node4"><a xlink:href="$namespace_json.html#a20d52b5a457ee5d833645d119451c2cd" xlink:title="Json::valueToQuotedStringN">
<polygon fill="none" stroke="black" points="140,-78 140,-97 283,-97 283,-78 140,-78"/>
<text text-anchor="middle" x="211.5" y="-85" font-family="Helvetica,sans-Serif" font-size="10.00">Json::valueToQuotedStringN</text>
</a>
</g>
</g>
<!-- Node179&#45;&gt;Node182 -->
<g id="edge3" class="edge"><title>Node179&#45;&gt;Node182</title>
<path fill="none" stroke="midnightblue" d="M114.222,-99.1144C122.628,-98.1004 131.315,-97.0525 139.872,-96.0201"/>
<polygon fill="midnightblue" stroke="midnightblue" points="113.645,-95.6587 104.136,-100.331 114.483,-102.608 113.645,-95.6587"/>
</g>
<!-- Node183 -->
<g id="node5" class="node"><title>Node183</title>
<g id="a_node5"><a xlink:href="$struct_json_1_1_built_styled_stream_writer.html#a7c9da861861e570a51b45f270c9ff150" xlink:title="Json::BuiltStyledStreamWriter\l::writeValue">
<polygon fill="none" stroke="black" points="319,-53.5 319,-83.5 468,-83.5 468,-53.5 319,-53.5"/>
<text text-anchor="start" x="327" y="-71.5" font-family="Helvetica,sans-Serif" font-size="10.00">Json::BuiltStyledStreamWriter</text>
<text text-anchor="middle" x="393.5" y="-60.5" font-family="Helvetica,sans-Serif" font-size="10.00">::writeValue</text>
</a>
</g>
</g>
<!-- Node179&#45;&gt;Node183 -->
<g id="edge10" class="edge"><title>Node179&#45;&gt;Node183</title>
<path fill="none" stroke="midnightblue" d="M78.4929,-92.0255C95.3575,-83.3047 118.286,-73.0353 140,-68.5 199.217,-56.1317 267.964,-57.098 318.759,-60.6166"/>
<polygon fill="midnightblue" stroke="midnightblue" points="76.4903,-89.1272 69.3191,-96.9263 79.7886,-95.3014 76.4903,-89.1272"/>
</g>
<!-- Node182&#45;&gt;Node183 -->
<g id="edge4" class="edge"><title>Node182&#45;&gt;Node183</title>
<path fill="none" stroke="midnightblue" d="M293.104,-78.9918C301.666,-78.0881 310.343,-77.1722 318.82,-76.2774"/>
<polygon fill="midnightblue" stroke="midnightblue" points="292.701,-75.5148 283.124,-80.0452 293.436,-82.4761 292.701,-75.5148"/>
</g>
<!-- Node184 -->
<g id="node6" class="node"><title>Node184</title>
<g id="a_node6"><a xlink:href="$struct_json_1_1_built_styled_stream_writer.html#a2ecffc3d66c4feddf208e5cd3b1c0f18" xlink:title="Json::BuiltStyledStreamWriter\l::write">
<polygon fill="none" stroke="black" points="504,-106.5 504,-136.5 653,-136.5 653,-106.5 504,-106.5"/>
<text text-anchor="start" x="512" y="-124.5" font-family="Helvetica,sans-Serif" font-size="10.00">Json::BuiltStyledStreamWriter</text>
<text text-anchor="middle" x="578.5" y="-113.5" font-family="Helvetica,sans-Serif" font-size="10.00">::write</text>
</a>
</g>
</g>
<!-- Node183&#45;&gt;Node184 -->
<g id="edge5" class="edge"><title>Node183&#45;&gt;Node184</title>
<path fill="none" stroke="midnightblue" d="M456.231,-86.3783C478.704,-92.8868 503.865,-100.174 525.419,-106.416"/>
<polygon fill="midnightblue" stroke="midnightblue" points="457.03,-82.966 446.451,-83.5459 455.083,-89.6897 457.03,-82.966"/>
</g>
<!-- Node185 -->
<g id="node7" class="node"><title>Node185</title>
<g id="a_node7"><a xlink:href="$struct_json_1_1_built_styled_stream_writer.html#acd20e9274bbcf7876ef3af2e7d23a31f" xlink:title="Json::BuiltStyledStreamWriter\l::writeArrayValue">
<polygon fill="none" stroke="black" points="689,-53.5 689,-83.5 838,-83.5 838,-53.5 689,-53.5"/>
<text text-anchor="start" x="697" y="-71.5" font-family="Helvetica,sans-Serif" font-size="10.00">Json::BuiltStyledStreamWriter</text>
<text text-anchor="middle" x="763.5" y="-60.5" font-family="Helvetica,sans-Serif" font-size="10.00">::writeArrayValue</text>
</a>
</g>
</g>
<!-- Node183&#45;&gt;Node185 -->
<g id="edge6" class="edge"><title>Node183&#45;&gt;Node185</title>
<path fill="none" stroke="midnightblue" d="M478.451,-62.7294C541.834,-61.348 627.975,-61.4279 688.727,-62.969"/>
<polygon fill="midnightblue" stroke="midnightblue" points="478.001,-59.239 468.086,-62.9737 478.166,-66.237 478.001,-59.239"/>
</g>
<!-- Node186 -->
<g id="node8" class="node"><title>Node186</title>
<g id="a_node8"><a xlink:href="$struct_json_1_1_built_styled_stream_writer.html#af423fd33b3d580506ea3efc53b05a077" xlink:title="Json::BuiltStyledStreamWriter\l::isMultineArray">
<polygon fill="none" stroke="black" points="504,-0.5 504,-30.5 653,-30.5 653,-0.5 504,-0.5"/>
<text text-anchor="start" x="512" y="-18.5" font-family="Helvetica,sans-Serif" font-size="10.00">Json::BuiltStyledStreamWriter</text>
<text text-anchor="middle" x="578.5" y="-7.5" font-family="Helvetica,sans-Serif" font-size="10.00">::isMultineArray</text>
</a>
</g>
</g>
<!-- Node183&#45;&gt;Node186 -->
<g id="edge8" class="edge"><title>Node183&#45;&gt;Node186</title>
<path fill="none" stroke="midnightblue" d="M456.231,-50.6217C478.704,-44.1132 503.865,-36.8259 525.419,-30.5835"/>
<polygon fill="midnightblue" stroke="midnightblue" points="455.083,-47.3103 446.451,-53.4541 457.03,-54.034 455.083,-47.3103"/>
</g>
<!-- Node185&#45;&gt;Node183 -->
<g id="edge7" class="edge"><title>Node185&#45;&gt;Node183</title>
<path fill="none" stroke="midnightblue" d="M678.353,-74.2748C614.924,-75.6532 528.785,-75.5704 468.086,-74.0263"/>
<polygon fill="midnightblue" stroke="midnightblue" points="678.812,-77.7651 688.727,-74.031 678.648,-70.767 678.812,-77.7651"/>
</g>
<!-- Node186&#45;&gt;Node185 -->
<g id="edge9" class="edge"><title>Node186&#45;&gt;Node185</title>
<path fill="none" stroke="midnightblue" d="M641.231,-33.3783C663.704,-39.8868 688.865,-47.1741 710.419,-53.4165"/>
<polygon fill="midnightblue" stroke="midnightblue" points="642.03,-29.966 631.451,-30.5459 640.083,-36.6897 642.03,-29.966"/>
</g>
</g>
</svg>
