<?xml version="1.0" encoding="UTF-8" standalone="no"?>
<!DOCTYPE svg PUBLIC "-//W3C//DTD SVG 1.1//EN"
 "http://www.w3.org/Graphics/SVG/1.1/DTD/svg11.dtd">
<!-- Generated by graphviz version 2.38.0 (20140413.2041)
 -->
<!-- Title: Json::codePointToUTF8 Pages: 1 -->
<svg width="1583pt" height="175pt"
 viewBox="0.00 0.00 1583.00 174.61" xmlns="http://www.w3.org/2000/svg" xmlns:xlink="http://www.w3.org/1999/xlink">
<g id="graph0" class="graph" transform="scale(1 1) rotate(0) translate(4 170.607)">
<title>Json::codePointToUTF8</title>
<!-- Node3 -->
<g id="node1" class="node"><title>Node3</title>
<polygon fill="#bfbfbf" stroke="black" points="0,-45.6073 0,-64.6073 123,-64.6073 123,-45.6073 0,-45.6073"/>
<text text-anchor="middle" x="61.5" y="-52.6073" font-family="Helvetica,sans-Serif" font-size="10.00">Json::codePointToUTF8</text>
</g>
<!-- Node4 -->
<g id="node2" class="node"><title>Node4</title>
<g id="a_node2"><a xlink:href="$namespace_json.html#a2e6b8616041876128cbef54b8c75da62" xlink:title="Json::normalizeEOL">
<polygon fill="none" stroke="black" points="183.5,-64.6073 183.5,-83.6073 288.5,-83.6073 288.5,-64.6073 183.5,-64.6073"/>
<text text-anchor="middle" x="236" y="-71.6073" font-family="Helvetica,sans-Serif" font-size="10.00">Json::normalizeEOL</text>
</a>
</g>
</g>
<!-- Node3&#45;&gt;Node4 -->
<g id="edge1" class="edge"><title>Node3&#45;&gt;Node4</title>
<path fill="none" stroke="midnightblue" d="M133.567,-62.935C150.229,-64.7702 167.672,-66.6914 183.301,-68.4129"/>
<polygon fill="midnightblue" stroke="midnightblue" points="133.64,-59.4219 123.317,-61.806 132.874,-66.3798 133.64,-59.4219"/>
</g>
<!-- Node16 -->
<g id="node14" class="node"><title>Node16</title>
<g id="a_node14"><a xlink:href="$class_json_1_1_our_reader.html#a44b589a85f02f0e2de1b4ad6916be0c5" xlink:title="Json::OurReader::decodeString">
<polygon fill="none" stroke="black" points="159,-26.6073 159,-45.6073 313,-45.6073 313,-26.6073 159,-26.6073"/>
<text text-anchor="middle" x="236" y="-33.6073" font-family="Helvetica,sans-Serif" font-size="10.00">Json::OurReader::decodeString</text>
</a>
</g>
</g>
<!-- Node3&#45;&gt;Node16 -->
<g id="edge22" class="edge"><title>Node3&#45;&gt;Node16</title>
<path fill="none" stroke="midnightblue" d="M133.385,-47.2996C141.738,-46.3796 150.29,-45.4376 158.713,-44.5099"/>
<polygon fill="midnightblue" stroke="midnightblue" points="132.874,-43.8347 123.317,-48.4086 133.64,-50.7926 132.874,-43.8347"/>
</g>
<!-- Node5 -->
<g id="node3" class="node"><title>Node5</title>
<g id="a_node3"><a xlink:href="$class_json_1_1_our_reader.html#ad7318c37469a9106069a236fb4b10e1f" xlink:title="Json::OurReader::addComment">
<polygon fill="none" stroke="black" points="349,-64.6073 349,-83.6073 504,-83.6073 504,-64.6073 349,-64.6073"/>
<text text-anchor="middle" x="426.5" y="-71.6073" font-family="Helvetica,sans-Serif" font-size="10.00">Json::OurReader::addComment</text>
</a>
</g>
</g>
<!-- Node4&#45;&gt;Node5 -->
<g id="edge2" class="edge"><title>Node4&#45;&gt;Node5</title>
<path fill="none" stroke="midnightblue" d="M298.808,-74.1073C314.828,-74.1073 332.272,-74.1073 348.949,-74.1073"/>
<polygon fill="midnightblue" stroke="midnightblue" points="298.508,-70.6074 288.508,-74.1073 298.508,-77.6074 298.508,-70.6074"/>
</g>
<!-- Node6 -->
<g id="node4" class="node"><title>Node6</title>
<g id="a_node4"><a xlink:href="$class_json_1_1_our_reader.html#a90f6bb9e55b2bc3d6c1880809495c222" xlink:title="Json::OurReader::readComment">
<polygon fill="none" stroke="black" points="540,-64.6073 540,-83.6073 698,-83.6073 698,-64.6073 540,-64.6073"/>
<text text-anchor="middle" x="619" y="-71.6073" font-family="Helvetica,sans-Serif" font-size="10.00">Json::OurReader::readComment</text>
</a>
</g>
</g>
<!-- Node5&#45;&gt;Node6 -->
<g id="edge3" class="edge"><title>Node5&#45;&gt;Node6</title>
<path fill="none" stroke="midnightblue" d="M514.182,-74.1073C522.77,-74.1073 531.451,-74.1073 539.944,-74.1073"/>
<polygon fill="midnightblue" stroke="midnightblue" points="514.16,-70.6074 504.16,-74.1073 514.16,-77.6074 514.16,-70.6074"/>
</g>
<!-- Node7 -->
<g id="node5" class="node"><title>Node7</title>
<g id="a_node5"><a xlink:href="$class_json_1_1_our_reader.html#a0d1e66da47fe2e85f5033c59326dfdc3" xlink:title="Json::OurReader::readToken">
<polygon fill="none" stroke="black" points="734,-64.6073 734,-83.6073 877,-83.6073 877,-64.6073 734,-64.6073"/>
<text text-anchor="middle" x="805.5" y="-71.6073" font-family="Helvetica,sans-Serif" font-size="10.00">Json::OurReader::readToken</text>
</a>
</g>
</g>
<!-- Node6&#45;&gt;Node7 -->
<g id="edge4" class="edge"><title>Node6&#45;&gt;Node7</title>
<path fill="none" stroke="midnightblue" d="M708.245,-74.1073C716.797,-74.1073 725.395,-74.1073 733.745,-74.1073"/>
<polygon fill="midnightblue" stroke="midnightblue" points="708.245,-70.6074 698.245,-74.1073 708.245,-77.6074 708.245,-70.6074"/>
</g>
<!-- Node8 -->
<g id="node6" class="node"><title>Node8</title>
<g id="a_node6"><a xlink:href="$class_json_1_1_our_reader.html#a856dea44d92578c276856d7a65a4ebdc" xlink:title="Json::OurReader::skipComment\lTokens">
<polygon fill="none" stroke="black" points="913,-84.1073 913,-114.107 1071,-114.107 1071,-84.1073 913,-84.1073"/>
<text text-anchor="start" x="921" y="-102.107" font-family="Helvetica,sans-Serif" font-size="10.00">Json::OurReader::skipComment</text>
<text text-anchor="middle" x="992" y="-91.1073" font-family="Helvetica,sans-Serif" font-size="10.00">Tokens</text>
</a>
</g>
</g>
<!-- Node7&#45;&gt;Node8 -->
<g id="edge5" class="edge"><title>Node7&#45;&gt;Node8</title>
<path fill="none" stroke="midnightblue" d="M886.847,-84.9945C895.497,-86.1664 904.288,-87.3577 912.91,-88.526"/>
<polygon fill="midnightblue" stroke="midnightblue" points="887.157,-81.5045 876.778,-83.63 886.217,-88.4411 887.157,-81.5045"/>
</g>
<!-- Node12 -->
<g id="node10" class="node"><title>Node12</title>
<g id="a_node10"><a xlink:href="$class_json_1_1_our_reader.html#aea198f8101dba55099f4d8121a993530" xlink:title="Json::OurReader::readObject">
<polygon fill="none" stroke="black" points="1283,-84.6073 1283,-103.607 1427,-103.607 1427,-84.6073 1283,-84.6073"/>
<text text-anchor="middle" x="1355" y="-91.6073" font-family="Helvetica,sans-Serif" font-size="10.00">Json::OurReader::readObject</text>
</a>
</g>
</g>
<!-- Node7&#45;&gt;Node12 -->
<g id="edge14" class="edge"><title>Node7&#45;&gt;Node12</title>
<path fill="none" stroke="midnightblue" d="M830.859,-88.8941C851.813,-100.776 883.273,-116.668 913,-124.107 1057.07,-160.161 1100.86,-160.53 1247,-134.107 1279.01,-128.32 1313.92,-113.532 1334.88,-103.65"/>
<polygon fill="midnightblue" stroke="midnightblue" points="832.421,-85.7539 822.016,-83.7615 828.908,-91.8082 832.421,-85.7539"/>
</g>
<!-- Node13 -->
<g id="node11" class="node"><title>Node13</title>
<g id="a_node11"><a xlink:href="$class_json_1_1_our_reader.html#a0b9f58faf4212c6ecb5d8e2a1ac10257" xlink:title="Json::OurReader::readArray">
<polygon fill="none" stroke="black" points="1285.5,-40.6073 1285.5,-59.6073 1424.5,-59.6073 1424.5,-40.6073 1285.5,-40.6073"/>
<text text-anchor="middle" x="1355" y="-47.6073" font-family="Helvetica,sans-Serif" font-size="10.00">Json::OurReader::readArray</text>
</a>
</g>
</g>
<!-- Node7&#45;&gt;Node13 -->
<g id="edge15" class="edge"><title>Node7&#45;&gt;Node13</title>
<path fill="none" stroke="midnightblue" d="M831.662,-59.4831C852.653,-48.1031 883.752,-33.1069 913,-26.1073 1057.42,8.45494 1100.16,5.02205 1247,-17.1073 1276.41,-21.5396 1308.89,-32.4613 1330.26,-40.5323"/>
<polygon fill="midnightblue" stroke="midnightblue" points="829.818,-56.5036 822.771,-64.4156 833.214,-62.6247 829.818,-56.5036"/>
</g>
<!-- Node14 -->
<g id="node12" class="node"><title>Node14</title>
<g id="a_node12"><a xlink:href="$class_json_1_1_our_reader.html#a035651f0700a76a815e5f904c63ebb1c" xlink:title="Json::OurReader::recover\lFromError">
<polygon fill="none" stroke="black" points="927.5,-35.1073 927.5,-65.1073 1056.5,-65.1073 1056.5,-35.1073 927.5,-35.1073"/>
<text text-anchor="start" x="935.5" y="-53.1073" font-family="Helvetica,sans-Serif" font-size="10.00">Json::OurReader::recover</text>
<text text-anchor="middle" x="992" y="-42.1073" font-family="Helvetica,sans-Serif" font-size="10.00">FromError</text>
</a>
</g>
</g>
<!-- Node7&#45;&gt;Node14 -->
<g id="edge16" class="edge"><title>Node7&#45;&gt;Node14</title>
<path fill="none" stroke="midnightblue" d="M887.249,-63.6033C900.708,-61.8526 914.498,-60.0587 927.451,-58.3739"/>
<polygon fill="midnightblue" stroke="midnightblue" points="886.506,-60.1704 877.041,-64.9312 887.409,-67.1119 886.506,-60.1704"/>
</g>
<!-- Node9 -->
<g id="node7" class="node"><title>Node9</title>
<g id="a_node7"><a xlink:href="$class_json_1_1_our_reader.html#aba4f8749aab7f02ec17f107e392caf80" xlink:title="Json::OurReader::parse">
<polygon fill="none" stroke="black" points="1294.5,-141.607 1294.5,-160.607 1415.5,-160.607 1415.5,-141.607 1294.5,-141.607"/>
<text text-anchor="middle" x="1355" y="-148.607" font-family="Helvetica,sans-Serif" font-size="10.00">Json::OurReader::parse</text>
</a>
</g>
</g>
<!-- Node8&#45;&gt;Node9 -->
<g id="edge6" class="edge"><title>Node8&#45;&gt;Node9</title>
<path fill="none" stroke="midnightblue" d="M1043.49,-117.332C1063.07,-123.678 1085.84,-130.185 1107,-134.107 1170.29,-145.84 1244.05,-149.663 1294.38,-150.816"/>
<polygon fill="midnightblue" stroke="midnightblue" points="1044.45,-113.964 1033.86,-114.142 1042.25,-120.609 1044.45,-113.964"/>
</g>
<!-- Node11 -->
<g id="node9" class="node"><title>Node11</title>
<g id="a_node9"><a xlink:href="$class_json_1_1_our_reader.html#a1765d9670d191c89a57a22ea5591d35f" xlink:title="Json::OurReader::readValue">
<polygon fill="none" stroke="black" points="1107,-84.6073 1107,-103.607 1247,-103.607 1247,-84.6073 1107,-84.6073"/>
<text text-anchor="middle" x="1177" y="-91.6073" font-family="Helvetica,sans-Serif" font-size="10.00">Json::OurReader::readValue</text>
</a>
</g>
</g>
<!-- Node8&#45;&gt;Node11 -->
<g id="edge8" class="edge"><title>Node8&#45;&gt;Node11</title>
<path fill="none" stroke="midnightblue" d="M1081.19,-96.6976C1089.79,-96.4628 1098.42,-96.2268 1106.79,-95.9982"/>
<polygon fill="midnightblue" stroke="midnightblue" points="1081.04,-93.2004 1071.14,-96.9723 1081.23,-100.198 1081.04,-93.2004"/>
</g>
<!-- Node10 -->
<g id="node8" class="node"><title>Node10</title>
<g id="a_node8"><a xlink:href="$class_json_1_1_our_char_reader.html#a52a1fb5fee88d9b63dd462f63b1c9570" xlink:title="Json::OurCharReader\l::parse">
<polygon fill="none" stroke="black" points="1463,-136.107 1463,-166.107 1575,-166.107 1575,-136.107 1463,-136.107"/>
<text text-anchor="start" x="1471" y="-154.107" font-family="Helvetica,sans-Serif" font-size="10.00">Json::OurCharReader</text>
<text text-anchor="middle" x="1519" y="-143.107" font-family="Helvetica,sans-Serif" font-size="10.00">::parse</text>
</a>
</g>
</g>
<!-- Node9&#45;&gt;Node10 -->
<g id="edge7" class="edge"><title>Node9&#45;&gt;Node10</title>
<path fill="none" stroke="midnightblue" d="M1426.11,-151.107C1438.43,-151.107 1451.1,-151.107 1462.94,-151.107"/>
<polygon fill="midnightblue" stroke="midnightblue" points="1425.86,-147.607 1415.86,-151.107 1425.86,-154.607 1425.86,-147.607"/>
</g>
<!-- Node11&#45;&gt;Node9 -->
<g id="edge9" class="edge"><title>Node11&#45;&gt;Node9</title>
<path fill="none" stroke="midnightblue" d="M1217.08,-106.763C1249.52,-117.27 1294.97,-131.989 1324.45,-141.536"/>
<polygon fill="midnightblue" stroke="midnightblue" points="1218.05,-103.399 1207.46,-103.648 1215.89,-110.059 1218.05,-103.399"/>
</g>
<!-- Node11&#45;&gt;Node12 -->
<g id="edge10" class="edge"><title>Node11&#45;&gt;Node12</title>
<path fill="none" stroke="midnightblue" d="M1257.06,-87.3883C1265.65,-87.3285 1274.35,-87.3551 1282.83,-87.4682"/>
<polygon fill="midnightblue" stroke="midnightblue" points="1257.02,-83.8885 1247.05,-87.4983 1257.09,-90.8881 1257.02,-83.8885"/>
</g>
<!-- Node11&#45;&gt;Node13 -->
<g id="edge12" class="edge"><title>Node11&#45;&gt;Node13</title>
<path fill="none" stroke="midnightblue" d="M1207.77,-81.4537C1230.11,-74.4567 1261.53,-66.162 1289.52,-59.6967"/>
<polygon fill="midnightblue" stroke="midnightblue" points="1206.62,-78.1471 1198.19,-84.5659 1208.78,-84.8046 1206.62,-78.1471"/>
</g>
<!-- Node12&#45;&gt;Node11 -->
<g id="edge11" class="edge"><title>Node12&#45;&gt;Node11</title>
<path fill="none" stroke="midnightblue" d="M1272.79,-100.839C1264.19,-100.885 1255.5,-100.844 1247.05,-100.716"/>
<polygon fill="midnightblue" stroke="midnightblue" points="1272.86,-104.339 1282.83,-100.746 1272.8,-97.3393 1272.86,-104.339"/>
</g>
<!-- Node13&#45;&gt;Node11 -->
<g id="edge13" class="edge"><title>Node13&#45;&gt;Node11</title>
<path fill="none" stroke="midnightblue" d="M1324.05,-62.8165C1301.74,-69.7972 1270.44,-78.0589 1242.54,-84.5052"/>
<polygon fill="midnightblue" stroke="midnightblue" points="1325.2,-66.1256 1333.63,-59.7104 1323.04,-59.4672 1325.2,-66.1256"/>
</g>
<!-- Node14&#45;&gt;Node12 -->
<g id="edge17" class="edge"><title>Node14&#45;&gt;Node12</title>
<path fill="none" stroke="midnightblue" d="M1060.95,-69.5107C1064.43,-71.2342 1067.8,-73.0967 1071,-75.1073 1090.69,-87.4905 1085.63,-103.915 1107,-113.107 1182.07,-145.396 1281.76,-119.29 1328.18,-103.683"/>
<polygon fill="midnightblue" stroke="midnightblue" points="1062.1,-66.1892 1051.54,-65.267 1059.22,-72.5699 1062.1,-66.1892"/>
</g>
<!-- Node14&#45;&gt;Node13 -->
<g id="edge18" class="edge"><title>Node14&#45;&gt;Node13</title>
<path fill="none" stroke="midnightblue" d="M1062.88,-33.0116C1077.37,-30.1381 1092.62,-27.6049 1107,-26.1073 1168.89,-19.6634 1185.16,-19.2566 1247,-26.1073 1271.79,-28.8531 1299.23,-35.0733 1320.11,-40.4931"/>
<polygon fill="midnightblue" stroke="midnightblue" points="1062.07,-29.6046 1052.98,-35.0468 1063.48,-36.4612 1062.07,-29.6046"/>
</g>
<!-- Node15 -->
<g id="node13" class="node"><title>Node15</title>
<g id="a_node13"><a xlink:href="$class_json_1_1_our_reader.html#ae68a7047acd692be8077e259d524c6d9" xlink:title="Json::OurReader::addError\lAndRecover">
<polygon fill="none" stroke="black" points="1110,-35.1073 1110,-65.1073 1244,-65.1073 1244,-35.1073 1110,-35.1073"/>
<text text-anchor="start" x="1118" y="-53.1073" font-family="Helvetica,sans-Serif" font-size="10.00">Json::OurReader::addError</text>
<text text-anchor="middle" x="1177" y="-42.1073" font-family="Helvetica,sans-Serif" font-size="10.00">AndRecover</text>
</a>
</g>
</g>
<!-- Node14&#45;&gt;Node15 -->
<g id="edge19" class="edge"><title>Node14&#45;&gt;Node15</title>
<path fill="none" stroke="midnightblue" d="M1066.99,-50.1073C1081.22,-50.1073 1096.04,-50.1073 1110,-50.1073"/>
<polygon fill="midnightblue" stroke="midnightblue" points="1066.75,-46.6074 1056.75,-50.1073 1066.75,-53.6074 1066.75,-46.6074"/>
</g>
<!-- Node15&#45;&gt;Node12 -->
<g id="edge20" class="edge"><title>Node15&#45;&gt;Node12</title>
<path fill="none" stroke="midnightblue" d="M1247.9,-67.5813C1271.11,-73.3836 1296.07,-79.6249 1315.95,-84.5948"/>
<polygon fill="midnightblue" stroke="midnightblue" points="1248.63,-64.1564 1238.08,-65.1265 1246.93,-70.9474 1248.63,-64.1564"/>
</g>
<!-- Node15&#45;&gt;Node13 -->
<g id="edge21" class="edge"><title>Node15&#45;&gt;Node13</title>
<path fill="none" stroke="midnightblue" d="M1254.25,-50.1073C1264.55,-50.1073 1275.08,-50.1073 1285.24,-50.1073"/>
<polygon fill="midnightblue" stroke="midnightblue" points="1254.04,-46.6074 1244.04,-50.1073 1254.04,-53.6074 1254.04,-46.6074"/>
</g>
</g>
</svg>
