<?xml version="1.0" encoding="UTF-8" standalone="no"?>
<!DOCTYPE svg PUBLIC "-//W3C//DTD SVG 1.1//EN"
 "http://www.w3.org/Graphics/SVG/1.1/DTD/svg11.dtd">
<!-- Generated by graphviz version 2.38.0 (20140413.2041)
 -->
<!-- Title: Json::containsNewLine Pages: 1 -->
<svg width="1198pt" height="176pt"
 viewBox="0.00 0.00 1198.00 176.06" xmlns="http://www.w3.org/2000/svg" xmlns:xlink="http://www.w3.org/1999/xlink">
<g id="graph0" class="graph" transform="scale(1 1) rotate(0) translate(4 172.056)">
<title>Json::containsNewLine</title>
<!-- Node36 -->
<g id="node1" class="node"><title>Node36</title>
<polygon fill="#bfbfbf" stroke="black" points="0,-66.056 0,-85.056 119,-85.056 119,-66.056 0,-66.056"/>
<text text-anchor="middle" x="59.5" y="-73.056" font-family="Helvetica,sans-Serif" font-size="10.00">Json::containsNewLine</text>
</g>
<!-- Node37 -->
<g id="node2" class="node"><title>Node37</title>
<g id="a_node2"><a xlink:href="$class_json_1_1_our_reader.html#a90f6bb9e55b2bc3d6c1880809495c222" xlink:title="Json::OurReader::readComment">
<polygon fill="none" stroke="black" points="155,-66.056 155,-85.056 313,-85.056 313,-66.056 155,-66.056"/>
<text text-anchor="middle" x="234" y="-73.056" font-family="Helvetica,sans-Serif" font-size="10.00">Json::OurReader::readComment</text>
</a>
</g>
</g>
<!-- Node36&#45;&gt;Node37 -->
<g id="edge1" class="edge"><title>Node36&#45;&gt;Node37</title>
<path fill="none" stroke="midnightblue" d="M129.442,-75.556C137.799,-75.556 146.382,-75.556 154.86,-75.556"/>
<polygon fill="midnightblue" stroke="midnightblue" points="129.382,-72.0561 119.382,-75.556 129.382,-79.0561 129.382,-72.0561"/>
</g>
<!-- Node38 -->
<g id="node3" class="node"><title>Node38</title>
<g id="a_node3"><a xlink:href="$class_json_1_1_our_reader.html#a0d1e66da47fe2e85f5033c59326dfdc3" xlink:title="Json::OurReader::readToken">
<polygon fill="none" stroke="black" points="349,-66.056 349,-85.056 492,-85.056 492,-66.056 349,-66.056"/>
<text text-anchor="middle" x="420.5" y="-73.056" font-family="Helvetica,sans-Serif" font-size="10.00">Json::OurReader::readToken</text>
</a>
</g>
</g>
<!-- Node37&#45;&gt;Node38 -->
<g id="edge2" class="edge"><title>Node37&#45;&gt;Node38</title>
<path fill="none" stroke="midnightblue" d="M323.245,-75.556C331.797,-75.556 340.395,-75.556 348.745,-75.556"/>
<polygon fill="midnightblue" stroke="midnightblue" points="323.245,-72.0561 313.245,-75.556 323.245,-79.0561 323.245,-72.0561"/>
</g>
<!-- Node39 -->
<g id="node4" class="node"><title>Node39</title>
<g id="a_node4"><a xlink:href="$class_json_1_1_our_reader.html#a856dea44d92578c276856d7a65a4ebdc" xlink:title="Json::OurReader::skipComment\lTokens">
<polygon fill="none" stroke="black" points="528,-85.556 528,-115.556 686,-115.556 686,-85.556 528,-85.556"/>
<text text-anchor="start" x="536" y="-103.556" font-family="Helvetica,sans-Serif" font-size="10.00">Json::OurReader::skipComment</text>
<text text-anchor="middle" x="607" y="-92.556" font-family="Helvetica,sans-Serif" font-size="10.00">Tokens</text>
</a>
</g>
</g>
<!-- Node38&#45;&gt;Node39 -->
<g id="edge3" class="edge"><title>Node38&#45;&gt;Node39</title>
<path fill="none" stroke="midnightblue" d="M501.847,-86.4432C510.497,-87.6152 519.288,-88.8064 527.91,-89.9747"/>
<polygon fill="midnightblue" stroke="midnightblue" points="502.157,-82.9532 491.778,-85.0787 501.217,-89.8899 502.157,-82.9532"/>
</g>
<!-- Node43 -->
<g id="node8" class="node"><title>Node43</title>
<g id="a_node8"><a xlink:href="$class_json_1_1_our_reader.html#aea198f8101dba55099f4d8121a993530" xlink:title="Json::OurReader::readObject">
<polygon fill="none" stroke="black" points="898,-86.056 898,-105.056 1042,-105.056 1042,-86.056 898,-86.056"/>
<text text-anchor="middle" x="970" y="-93.056" font-family="Helvetica,sans-Serif" font-size="10.00">Json::OurReader::readObject</text>
</a>
</g>
</g>
<!-- Node38&#45;&gt;Node43 -->
<g id="edge12" class="edge"><title>Node38&#45;&gt;Node43</title>
<path fill="none" stroke="midnightblue" d="M446.284,-90.1663C467.272,-101.739 498.56,-117.149 528,-124.556 672.05,-160.801 715.939,-163.582 862,-136.556 894.276,-130.584 929.396,-115.278 950.286,-105.151"/>
<polygon fill="midnightblue" stroke="midnightblue" points="447.839,-87.0249 437.409,-85.1617 444.401,-93.1223 447.839,-87.0249"/>
</g>
<!-- Node44 -->
<g id="node9" class="node"><title>Node44</title>
<g id="a_node9"><a xlink:href="$class_json_1_1_our_reader.html#a0b9f58faf4212c6ecb5d8e2a1ac10257" xlink:title="Json::OurReader::readArray">
<polygon fill="none" stroke="black" points="900.5,-42.056 900.5,-61.056 1039.5,-61.056 1039.5,-42.056 900.5,-42.056"/>
<text text-anchor="middle" x="970" y="-49.056" font-family="Helvetica,sans-Serif" font-size="10.00">Json::OurReader::readArray</text>
</a>
</g>
</g>
<!-- Node38&#45;&gt;Node44 -->
<g id="edge13" class="edge"><title>Node38&#45;&gt;Node44</title>
<path fill="none" stroke="midnightblue" d="M446.255,-60.827C467.226,-49.1836 498.504,-33.7362 528,-26.556 672.285,8.56752 715.255,5.19804 862,-17.556 891.855,-22.1853 924.783,-33.6729 946.118,-42.0168"/>
<polygon fill="midnightblue" stroke="midnightblue" points="444.353,-57.8819 437.388,-65.8656 447.812,-63.9678 444.353,-57.8819"/>
</g>
<!-- Node45 -->
<g id="node10" class="node"><title>Node45</title>
<g id="a_node10"><a xlink:href="$class_json_1_1_our_reader.html#a035651f0700a76a815e5f904c63ebb1c" xlink:title="Json::OurReader::recover\lFromError">
<polygon fill="none" stroke="black" points="542.5,-36.556 542.5,-66.556 671.5,-66.556 671.5,-36.556 542.5,-36.556"/>
<text text-anchor="start" x="550.5" y="-54.556" font-family="Helvetica,sans-Serif" font-size="10.00">Json::OurReader::recover</text>
<text text-anchor="middle" x="607" y="-43.556" font-family="Helvetica,sans-Serif" font-size="10.00">FromError</text>
</a>
</g>
</g>
<!-- Node38&#45;&gt;Node45 -->
<g id="edge14" class="edge"><title>Node38&#45;&gt;Node45</title>
<path fill="none" stroke="midnightblue" d="M502.249,-65.052C515.708,-63.3013 529.498,-61.5074 542.451,-59.8226"/>
<polygon fill="midnightblue" stroke="midnightblue" points="501.506,-61.6191 492.041,-66.3799 502.409,-68.5606 501.506,-61.6191"/>
</g>
<!-- Node40 -->
<g id="node5" class="node"><title>Node40</title>
<g id="a_node5"><a xlink:href="$class_json_1_1_our_reader.html#aba4f8749aab7f02ec17f107e392caf80" xlink:title="Json::OurReader::parse">
<polygon fill="none" stroke="black" points="909.5,-143.056 909.5,-162.056 1030.5,-162.056 1030.5,-143.056 909.5,-143.056"/>
<text text-anchor="middle" x="970" y="-150.056" font-family="Helvetica,sans-Serif" font-size="10.00">Json::OurReader::parse</text>
</a>
</g>
</g>
<!-- Node39&#45;&gt;Node40 -->
<g id="edge4" class="edge"><title>Node39&#45;&gt;Node40</title>
<path fill="none" stroke="midnightblue" d="M656.963,-118.87C676.868,-125.561 700.261,-132.481 722,-136.556 785.249,-148.411 859.02,-151.871 909.36,-152.702"/>
<polygon fill="midnightblue" stroke="midnightblue" points="658.09,-115.557 647.495,-115.618 655.815,-122.177 658.09,-115.557"/>
</g>
<!-- Node42 -->
<g id="node7" class="node"><title>Node42</title>
<g id="a_node7"><a xlink:href="$class_json_1_1_our_reader.html#a1765d9670d191c89a57a22ea5591d35f" xlink:title="Json::OurReader::readValue">
<polygon fill="none" stroke="black" points="722,-86.056 722,-105.056 862,-105.056 862,-86.056 722,-86.056"/>
<text text-anchor="middle" x="792" y="-93.056" font-family="Helvetica,sans-Serif" font-size="10.00">Json::OurReader::readValue</text>
</a>
</g>
</g>
<!-- Node39&#45;&gt;Node42 -->
<g id="edge6" class="edge"><title>Node39&#45;&gt;Node42</title>
<path fill="none" stroke="midnightblue" d="M696.194,-98.1463C704.789,-97.9115 713.424,-97.6756 721.793,-97.4469"/>
<polygon fill="midnightblue" stroke="midnightblue" points="696.04,-94.6491 686.139,-98.421 696.231,-101.647 696.04,-94.6491"/>
</g>
<!-- Node41 -->
<g id="node6" class="node"><title>Node41</title>
<g id="a_node6"><a xlink:href="$class_json_1_1_our_char_reader.html#a52a1fb5fee88d9b63dd462f63b1c9570" xlink:title="Json::OurCharReader\l::parse">
<polygon fill="none" stroke="black" points="1078,-137.556 1078,-167.556 1190,-167.556 1190,-137.556 1078,-137.556"/>
<text text-anchor="start" x="1086" y="-155.556" font-family="Helvetica,sans-Serif" font-size="10.00">Json::OurCharReader</text>
<text text-anchor="middle" x="1134" y="-144.556" font-family="Helvetica,sans-Serif" font-size="10.00">::parse</text>
</a>
</g>
</g>
<!-- Node40&#45;&gt;Node41 -->
<g id="edge5" class="edge"><title>Node40&#45;&gt;Node41</title>
<path fill="none" stroke="midnightblue" d="M1041.11,-152.556C1053.43,-152.556 1066.1,-152.556 1077.94,-152.556"/>
<polygon fill="midnightblue" stroke="midnightblue" points="1040.86,-149.056 1030.86,-152.556 1040.86,-156.056 1040.86,-149.056"/>
</g>
<!-- Node42&#45;&gt;Node40 -->
<g id="edge7" class="edge"><title>Node42&#45;&gt;Node40</title>
<path fill="none" stroke="midnightblue" d="M832.077,-108.212C864.521,-118.719 909.968,-133.438 939.445,-142.984"/>
<polygon fill="midnightblue" stroke="midnightblue" points="833.05,-104.848 822.458,-105.096 830.894,-111.507 833.05,-104.848"/>
</g>
<!-- Node42&#45;&gt;Node43 -->
<g id="edge8" class="edge"><title>Node42&#45;&gt;Node43</title>
<path fill="none" stroke="midnightblue" d="M872.06,-88.837C880.645,-88.7772 889.345,-88.8038 897.828,-88.9169"/>
<polygon fill="midnightblue" stroke="midnightblue" points="872.016,-85.3372 862.055,-88.947 872.093,-92.3368 872.016,-85.3372"/>
</g>
<!-- Node42&#45;&gt;Node44 -->
<g id="edge10" class="edge"><title>Node42&#45;&gt;Node44</title>
<path fill="none" stroke="midnightblue" d="M822.768,-82.9024C845.106,-75.9055 876.525,-67.6108 904.518,-61.1454"/>
<polygon fill="midnightblue" stroke="midnightblue" points="821.619,-79.5958 813.189,-86.0147 823.782,-86.2533 821.619,-79.5958"/>
</g>
<!-- Node43&#45;&gt;Node42 -->
<g id="edge9" class="edge"><title>Node43&#45;&gt;Node42</title>
<path fill="none" stroke="midnightblue" d="M887.79,-102.288C879.188,-102.334 870.499,-102.292 862.055,-102.165"/>
<polygon fill="midnightblue" stroke="midnightblue" points="887.861,-105.788 897.828,-102.195 887.796,-98.788 887.861,-105.788"/>
</g>
<!-- Node44&#45;&gt;Node42 -->
<g id="edge11" class="edge"><title>Node44&#45;&gt;Node42</title>
<path fill="none" stroke="midnightblue" d="M939.054,-64.2652C916.742,-71.2459 885.442,-79.5076 857.537,-85.9539"/>
<polygon fill="midnightblue" stroke="midnightblue" points="940.196,-67.5743 948.628,-61.1591 938.036,-60.9159 940.196,-67.5743"/>
</g>
<!-- Node45&#45;&gt;Node43 -->
<g id="edge15" class="edge"><title>Node45&#45;&gt;Node43</title>
<path fill="none" stroke="midnightblue" d="M677.838,-70.932C680.653,-72.3712 683.387,-73.9105 686,-75.556 705.962,-88.1249 700.391,-105.095 722,-114.556 797.053,-147.417 897.181,-120.85 943.505,-105.104"/>
<polygon fill="midnightblue" stroke="midnightblue" points="679.167,-67.6903 668.621,-66.6686 676.228,-74.0436 679.167,-67.6903"/>
</g>
<!-- Node45&#45;&gt;Node44 -->
<g id="edge16" class="edge"><title>Node45&#45;&gt;Node44</title>
<path fill="none" stroke="midnightblue" d="M674.943,-34.3552C690.3,-31.1142 706.632,-28.2213 722,-26.556 783.86,-19.8527 800.187,-19.4308 862,-26.556 887.395,-29.4832 915.521,-36.1957 936.561,-41.9287"/>
<polygon fill="midnightblue" stroke="midnightblue" points="674.033,-30.9712 665.011,-36.5258 675.528,-37.8097 674.033,-30.9712"/>
</g>
<!-- Node46 -->
<g id="node11" class="node"><title>Node46</title>
<g id="a_node11"><a xlink:href="$class_json_1_1_our_reader.html#ae68a7047acd692be8077e259d524c6d9" xlink:title="Json::OurReader::addError\lAndRecover">
<polygon fill="none" stroke="black" points="725,-36.556 725,-66.556 859,-66.556 859,-36.556 725,-36.556"/>
<text text-anchor="start" x="733" y="-54.556" font-family="Helvetica,sans-Serif" font-size="10.00">Json::OurReader::addError</text>
<text text-anchor="middle" x="792" y="-43.556" font-family="Helvetica,sans-Serif" font-size="10.00">AndRecover</text>
</a>
</g>
</g>
<!-- Node45&#45;&gt;Node46 -->
<g id="edge17" class="edge"><title>Node45&#45;&gt;Node46</title>
<path fill="none" stroke="midnightblue" d="M681.986,-51.556C696.219,-51.556 711.038,-51.556 724.997,-51.556"/>
<polygon fill="midnightblue" stroke="midnightblue" points="681.748,-48.0561 671.748,-51.556 681.748,-55.0561 681.748,-48.0561"/>
</g>
<!-- Node46&#45;&gt;Node43 -->
<g id="edge18" class="edge"><title>Node46&#45;&gt;Node43</title>
<path fill="none" stroke="midnightblue" d="M862.896,-69.03C886.105,-74.8323 911.07,-81.0736 930.95,-86.0436"/>
<polygon fill="midnightblue" stroke="midnightblue" points="863.627,-65.6052 853.077,-66.5752 861.929,-72.3962 863.627,-65.6052"/>
</g>
<!-- Node46&#45;&gt;Node44 -->
<g id="edge19" class="edge"><title>Node46&#45;&gt;Node44</title>
<path fill="none" stroke="midnightblue" d="M869.248,-51.556C879.554,-51.556 890.078,-51.556 900.243,-51.556"/>
<polygon fill="midnightblue" stroke="midnightblue" points="869.037,-48.0561 859.037,-51.556 869.037,-55.0561 869.037,-48.0561"/>
</g>
</g>
</svg>
