<?xml version="1.0" encoding="UTF-8" standalone="no"?>
<!DOCTYPE svg PUBLIC "-//W3C//DTD SVG 1.1//EN"
 "http://www.w3.org/Graphics/SVG/1.1/DTD/svg11.dtd">
<!-- Generated by graphviz version 2.38.0 (20140413.2041)
 -->
<!-- Title: /home/mel/projects/Misc/Minecraft Server Service/src/outputListener.h Pages: 1 -->
<svg width="334pt" height="106pt"
 viewBox="0.00 0.00 333.50 106.00" xmlns="http://www.w3.org/2000/svg" xmlns:xlink="http://www.w3.org/1999/xlink">
<g id="graph0" class="graph" transform="scale(1 1) rotate(0) translate(4 102)">
<title>/home/mel/projects/Misc/Minecraft Server Service/src/outputListener.h</title>
<!-- Node0 -->
<g id="node1" class="node"><title>Node0</title>
<polygon fill="#bfbfbf" stroke="black" points="66,-56.5 66,-97.5 208,-97.5 208,-56.5 66,-56.5"/>
<text text-anchor="start" x="74" y="-85.5" font-family="Helvetica,sans-Serif" font-size="10.00">/home/mel/projects</text>
<text text-anchor="start" x="74" y="-74.5" font-family="Helvetica,sans-Serif" font-size="10.00">/Misc/Minecraft Server</text>
<text text-anchor="middle" x="137" y="-63.5" font-family="Helvetica,sans-Serif" font-size="10.00"> Service/src/outputListener.h</text>
</g>
<!-- Node1 -->
<g id="node2" class="node"><title>Node1</title>
<polygon fill="none" stroke="#bfbfbf" points="0,-0.5 0,-19.5 52,-19.5 52,-0.5 0,-0.5"/>
<text text-anchor="middle" x="26" y="-7.5" font-family="Helvetica,sans-Serif" font-size="10.00">sstream</text>
</g>
<!-- Node0&#45;&gt;Node1 -->
<g id="edge1" class="edge"><title>Node0&#45;&gt;Node1</title>
<path fill="none" stroke="midnightblue" d="M103.696,-56.4979C86.3507,-46.3405 65.5418,-34.1551 49.8263,-24.9523"/>
<polygon fill="midnightblue" stroke="midnightblue" points="51.1738,-21.6855 40.7758,-19.6525 47.6365,-27.726 51.1738,-21.6855"/>
</g>
<!-- Node2 -->
<g id="node3" class="node"><title>Node2</title>
<polygon fill="none" stroke="#bfbfbf" points="70.5,-0.5 70.5,-19.5 129.5,-19.5 129.5,-0.5 70.5,-0.5"/>
<text text-anchor="middle" x="100" y="-7.5" font-family="Helvetica,sans-Serif" font-size="10.00">functional</text>
</g>
<!-- Node0&#45;&gt;Node2 -->
<g id="edge2" class="edge"><title>Node0&#45;&gt;Node2</title>
<path fill="none" stroke="midnightblue" d="M125.899,-56.4979C120.826,-47.5862 114.865,-37.1135 109.941,-28.4636"/>
<polygon fill="midnightblue" stroke="midnightblue" points="112.914,-26.6117 104.925,-19.6525 106.831,-30.0746 112.914,-26.6117"/>
</g>
<!-- Node3 -->
<g id="node4" class="node"><title>Node3</title>
<polygon fill="none" stroke="#bfbfbf" points="148,-0.5 148,-19.5 200,-19.5 200,-0.5 148,-0.5"/>
<text text-anchor="middle" x="174" y="-7.5" font-family="Helvetica,sans-Serif" font-size="10.00">memory</text>
</g>
<!-- Node0&#45;&gt;Node3 -->
<g id="edge3" class="edge"><title>Node0&#45;&gt;Node3</title>
<path fill="none" stroke="midnightblue" d="M148.101,-56.4979C153.174,-47.5862 159.135,-37.1135 164.059,-28.4636"/>
<polygon fill="midnightblue" stroke="midnightblue" points="167.169,-30.0746 169.075,-19.6525 161.086,-26.6117 167.169,-30.0746"/>
</g>
<!-- Node4 -->
<g id="node5" class="node"><title>Node4</title>
<polygon fill="none" stroke="#bfbfbf" points="218.5,-0.5 218.5,-19.5 325.5,-19.5 325.5,-0.5 218.5,-0.5"/>
<text text-anchor="middle" x="272" y="-7.5" font-family="Helvetica,sans-Serif" font-size="10.00">log4cpp/Category.hh</text>
</g>
<!-- Node0&#45;&gt;Node4 -->
<g id="edge4" class="edge"><title>Node0&#45;&gt;Node4</title>
<path fill="none" stroke="midnightblue" d="M177.504,-56.4979C199.297,-46.0051 225.584,-33.3482 244.895,-24.0507"/>
<polygon fill="midnightblue" stroke="midnightblue" points="246.538,-27.1442 254.029,-19.6525 243.501,-20.8372 246.538,-27.1442"/>
</g>
</g>
</svg>
