<?xml version="1.0" encoding="UTF-8" standalone="no"?>
<!DOCTYPE svg PUBLIC "-//W3C//DTD SVG 1.1//EN"
 "http://www.w3.org/Graphics/SVG/1.1/DTD/svg11.dtd">
<!-- Generated by graphviz version 2.38.0 (20140413.2041)
 -->
<!-- Title: /home/mel/projects/Misc/Minecraft Server Service/src/outputListener.cpp Pages: 1 -->
<svg width="334pt" height="162pt"
 viewBox="0.00 0.00 333.50 162.00" xmlns="http://www.w3.org/2000/svg" xmlns:xlink="http://www.w3.org/1999/xlink">
<g id="graph0" class="graph" transform="scale(1 1) rotate(0) translate(4 158)">
<title>/home/mel/projects/Misc/Minecraft Server Service/src/outputListener.cpp</title>
<!-- Node0 -->
<g id="node1" class="node"><title>Node0</title>
<polygon fill="#bfbfbf" stroke="black" points="61,-112.5 61,-153.5 213,-153.5 213,-112.5 61,-112.5"/>
<text text-anchor="start" x="69" y="-141.5" font-family="Helvetica,sans-Serif" font-size="10.00">/home/mel/projects</text>
<text text-anchor="start" x="69" y="-130.5" font-family="Helvetica,sans-Serif" font-size="10.00">/Misc/Minecraft Server</text>
<text text-anchor="middle" x="137" y="-119.5" font-family="Helvetica,sans-Serif" font-size="10.00"> Service/src/outputListener.cpp</text>
</g>
<!-- Node1 -->
<g id="node2" class="node"><title>Node1</title>
<g id="a_node2"><a xlink:href="$output_listener_8h.html" xlink:title="outputListener.h">
<polygon fill="none" stroke="black" points="94,-56.5 94,-75.5 180,-75.5 180,-56.5 94,-56.5"/>
<text text-anchor="middle" x="137" y="-63.5" font-family="Helvetica,sans-Serif" font-size="10.00">outputListener.h</text>
</a>
</g>
</g>
<!-- Node0&#45;&gt;Node1 -->
<g id="edge1" class="edge"><title>Node0&#45;&gt;Node1</title>
<path fill="none" stroke="midnightblue" d="M137,-112.498C137,-104.065 137,-94.2351 137,-85.874"/>
<polygon fill="midnightblue" stroke="midnightblue" points="140.5,-85.6525 137,-75.6525 133.5,-85.6525 140.5,-85.6525"/>
</g>
<!-- Node2 -->
<g id="node3" class="node"><title>Node2</title>
<polygon fill="none" stroke="#bfbfbf" points="0,-0.5 0,-19.5 52,-19.5 52,-0.5 0,-0.5"/>
<text text-anchor="middle" x="26" y="-7.5" font-family="Helvetica,sans-Serif" font-size="10.00">sstream</text>
</g>
<!-- Node1&#45;&gt;Node2 -->
<g id="edge2" class="edge"><title>Node1&#45;&gt;Node2</title>
<path fill="none" stroke="midnightblue" d="M119.166,-56.324C101.284,-47.6247 73.5249,-34.1202 52.9544,-24.113"/>
<polygon fill="midnightblue" stroke="midnightblue" points="54.3133,-20.8819 43.7898,-19.6545 51.251,-27.1765 54.3133,-20.8819"/>
</g>
<!-- Node3 -->
<g id="node4" class="node"><title>Node3</title>
<polygon fill="none" stroke="#bfbfbf" points="70.5,-0.5 70.5,-19.5 129.5,-19.5 129.5,-0.5 70.5,-0.5"/>
<text text-anchor="middle" x="100" y="-7.5" font-family="Helvetica,sans-Serif" font-size="10.00">functional</text>
</g>
<!-- Node1&#45;&gt;Node3 -->
<g id="edge3" class="edge"><title>Node1&#45;&gt;Node3</title>
<path fill="none" stroke="midnightblue" d="M130.89,-56.083C125.718,-48.5341 118.154,-37.4948 111.806,-28.2298"/>
<polygon fill="midnightblue" stroke="midnightblue" points="114.536,-26.0221 105.996,-19.7511 108.761,-29.9787 114.536,-26.0221"/>
</g>
<!-- Node4 -->
<g id="node5" class="node"><title>Node4</title>
<polygon fill="none" stroke="#bfbfbf" points="148,-0.5 148,-19.5 200,-19.5 200,-0.5 148,-0.5"/>
<text text-anchor="middle" x="174" y="-7.5" font-family="Helvetica,sans-Serif" font-size="10.00">memory</text>
</g>
<!-- Node1&#45;&gt;Node4 -->
<g id="edge4" class="edge"><title>Node1&#45;&gt;Node4</title>
<path fill="none" stroke="midnightblue" d="M143.11,-56.083C148.282,-48.5341 155.846,-37.4948 162.194,-28.2298"/>
<polygon fill="midnightblue" stroke="midnightblue" points="165.239,-29.9787 168.004,-19.7511 159.464,-26.0221 165.239,-29.9787"/>
</g>
<!-- Node5 -->
<g id="node6" class="node"><title>Node5</title>
<polygon fill="none" stroke="#bfbfbf" points="218.5,-0.5 218.5,-19.5 325.5,-19.5 325.5,-0.5 218.5,-0.5"/>
<text text-anchor="middle" x="272" y="-7.5" font-family="Helvetica,sans-Serif" font-size="10.00">log4cpp/Category.hh</text>
</g>
<!-- Node1&#45;&gt;Node5 -->
<g id="edge5" class="edge"><title>Node1&#45;&gt;Node5</title>
<path fill="none" stroke="midnightblue" d="M158.391,-56.4435C180.707,-47.5171 215.903,-33.4387 241.208,-23.3168"/>
<polygon fill="midnightblue" stroke="midnightblue" points="242.724,-26.4801 250.709,-19.5164 240.124,-19.9807 242.724,-26.4801"/>
</g>
</g>
</svg>
