<?xml version="1.0" encoding="UTF-8" standalone="no"?>
<!DOCTYPE svg PUBLIC "-//W3C//DTD SVG 1.1//EN"
 "http://www.w3.org/Graphics/SVG/1.1/DTD/svg11.dtd">
<!-- Generated by graphviz version 2.38.0 (20140413.2041)
 -->
<!-- Title: /home/mel/projects/Misc/Minecraft Server Service/src/serverOutput.h Pages: 1 -->
<svg width="188pt" height="162pt"
 viewBox="0.00 0.00 188.00 162.00" xmlns="http://www.w3.org/2000/svg" xmlns:xlink="http://www.w3.org/1999/xlink">
<g id="graph0" class="graph" transform="scale(1 1) rotate(0) translate(4 158)">
<title>/home/mel/projects/Misc/Minecraft Server Service/src/serverOutput.h</title>
<!-- Node0 -->
<g id="node1" class="node"><title>Node0</title>
<polygon fill="#bfbfbf" stroke="black" points="27.5,-112.5 27.5,-153.5 164.5,-153.5 164.5,-112.5 27.5,-112.5"/>
<text text-anchor="start" x="35.5" y="-141.5" font-family="Helvetica,sans-Serif" font-size="10.00">/home/mel/projects</text>
<text text-anchor="start" x="35.5" y="-130.5" font-family="Helvetica,sans-Serif" font-size="10.00">/Misc/Minecraft Server</text>
<text text-anchor="middle" x="96" y="-119.5" font-family="Helvetica,sans-Serif" font-size="10.00"> Service/src/serverOutput.h</text>
</g>
<!-- Node1 -->
<g id="node2" class="node"><title>Node1</title>
<g id="a_node2"><a xlink:href="$listener_8h.html" xlink:title="listener.h">
<polygon fill="none" stroke="black" points="-3.55271e-15,-56.5 -3.55271e-15,-75.5 56,-75.5 56,-56.5 -3.55271e-15,-56.5"/>
<text text-anchor="middle" x="28" y="-63.5" font-family="Helvetica,sans-Serif" font-size="10.00">listener.h</text>
</a>
</g>
</g>
<!-- Node0&#45;&gt;Node1 -->
<g id="edge1" class="edge"><title>Node0&#45;&gt;Node1</title>
<path fill="none" stroke="midnightblue" d="M75.5978,-112.498C65.6733,-103.011 53.8982,-91.7557 44.5429,-82.8131"/>
<polygon fill="midnightblue" stroke="midnightblue" points="46.699,-80.0323 37.0518,-75.6525 41.8621,-85.0924 46.699,-80.0323"/>
</g>
<!-- Node3 -->
<g id="node4" class="node"><title>Node3</title>
<polygon fill="none" stroke="#bfbfbf" points="74,-56.5 74,-75.5 118,-75.5 118,-56.5 74,-56.5"/>
<text text-anchor="middle" x="96" y="-63.5" font-family="Helvetica,sans-Serif" font-size="10.00">mutex</text>
</g>
<!-- Node0&#45;&gt;Node3 -->
<g id="edge3" class="edge"><title>Node0&#45;&gt;Node3</title>
<path fill="none" stroke="midnightblue" d="M96,-112.498C96,-104.065 96,-94.2351 96,-85.874"/>
<polygon fill="midnightblue" stroke="midnightblue" points="99.5001,-85.6525 96,-75.6525 92.5001,-85.6525 99.5001,-85.6525"/>
</g>
<!-- Node4 -->
<g id="node5" class="node"><title>Node4</title>
<polygon fill="none" stroke="#bfbfbf" points="136,-56.5 136,-75.5 180,-75.5 180,-56.5 136,-56.5"/>
<text text-anchor="middle" x="158" y="-63.5" font-family="Helvetica,sans-Serif" font-size="10.00">vector</text>
</g>
<!-- Node0&#45;&gt;Node4 -->
<g id="edge4" class="edge"><title>Node0&#45;&gt;Node4</title>
<path fill="none" stroke="midnightblue" d="M114.602,-112.498C123.559,-103.107 134.17,-91.9829 142.658,-83.0848"/>
<polygon fill="midnightblue" stroke="midnightblue" points="145.377,-85.3043 149.747,-75.6525 140.312,-80.4729 145.377,-85.3043"/>
</g>
<!-- Node2 -->
<g id="node3" class="node"><title>Node2</title>
<polygon fill="none" stroke="#bfbfbf" points="2,-0.5 2,-19.5 54,-19.5 54,-0.5 2,-0.5"/>
<text text-anchor="middle" x="28" y="-7.5" font-family="Helvetica,sans-Serif" font-size="10.00">sstream</text>
</g>
<!-- Node1&#45;&gt;Node2 -->
<g id="edge2" class="edge"><title>Node1&#45;&gt;Node2</title>
<path fill="none" stroke="midnightblue" d="M28,-56.083C28,-49.0059 28,-38.8611 28,-29.9865"/>
<polygon fill="midnightblue" stroke="midnightblue" points="31.5001,-29.751 28,-19.7511 24.5001,-29.7511 31.5001,-29.751"/>
</g>
</g>
</svg>
