<?xml version="1.0" encoding="UTF-8" standalone="no"?>
<!DOCTYPE svg PUBLIC "-//W3C//DTD SVG 1.1//EN"
 "http://www.w3.org/Graphics/SVG/1.1/DTD/svg11.dtd">
<!-- Generated by graphviz version 2.38.0 (20140413.2041)
 -->
<!-- Title: /home/mel/projects/Misc/Minecraft Server Service/src/serverOutput.h Pages: 1 -->
<svg width="324pt" height="128pt"
 viewBox="0.00 0.00 324.00 128.00" xmlns="http://www.w3.org/2000/svg" xmlns:xlink="http://www.w3.org/1999/xlink">
<g id="graph0" class="graph" transform="scale(1 1) rotate(0) translate(4 124)">
<title>/home/mel/projects/Misc/Minecraft Server Service/src/serverOutput.h</title>
<!-- Node5 -->
<g id="node1" class="node"><title>Node5</title>
<polygon fill="#bfbfbf" stroke="black" points="88,-78.5 88,-119.5 225,-119.5 225,-78.5 88,-78.5"/>
<text text-anchor="start" x="96" y="-107.5" font-family="Helvetica,sans-Serif" font-size="10.00">/home/mel/projects</text>
<text text-anchor="start" x="96" y="-96.5" font-family="Helvetica,sans-Serif" font-size="10.00">/Misc/Minecraft Server</text>
<text text-anchor="middle" x="156.5" y="-85.5" font-family="Helvetica,sans-Serif" font-size="10.00"> Service/src/serverOutput.h</text>
</g>
<!-- Node6 -->
<g id="node2" class="node"><title>Node6</title>
<g id="a_node2"><a xlink:href="$server_output_8cpp.html" xlink:title="/home/mel/projects\l/Misc/Minecraft Server\l Service/src/serverOutput.cpp">
<polygon fill="none" stroke="black" points="0,-0.5 0,-41.5 147,-41.5 147,-0.5 0,-0.5"/>
<text text-anchor="start" x="8" y="-29.5" font-family="Helvetica,sans-Serif" font-size="10.00">/home/mel/projects</text>
<text text-anchor="start" x="8" y="-18.5" font-family="Helvetica,sans-Serif" font-size="10.00">/Misc/Minecraft Server</text>
<text text-anchor="middle" x="73.5" y="-7.5" font-family="Helvetica,sans-Serif" font-size="10.00"> Service/src/serverOutput.cpp</text>
</a>
</g>
</g>
<!-- Node5&#45;&gt;Node6 -->
<g id="edge1" class="edge"><title>Node5&#45;&gt;Node6</title>
<path fill="none" stroke="midnightblue" d="M127.55,-71.4916C116.78,-61.6294 104.764,-50.6273 94.8021,-41.5056"/>
<polygon fill="midnightblue" stroke="midnightblue" points="125.387,-74.2562 135.125,-78.4281 130.114,-69.0935 125.387,-74.2562"/>
</g>
<!-- Node7 -->
<g id="node3" class="node"><title>Node7</title>
<g id="a_node3"><a xlink:href="$_server_stream_8cpp.html" xlink:title="/home/mel/projects\l/Misc/Minecraft Server\l Service/src/ServerStream.cpp">
<polygon fill="none" stroke="black" points="165,-0.5 165,-41.5 316,-41.5 316,-0.5 165,-0.5"/>
<text text-anchor="start" x="173" y="-29.5" font-family="Helvetica,sans-Serif" font-size="10.00">/home/mel/projects</text>
<text text-anchor="start" x="173" y="-18.5" font-family="Helvetica,sans-Serif" font-size="10.00">/Misc/Minecraft Server</text>
<text text-anchor="middle" x="240.5" y="-7.5" font-family="Helvetica,sans-Serif" font-size="10.00"> Service/src/ServerStream.cpp</text>
</a>
</g>
</g>
<!-- Node5&#45;&gt;Node7 -->
<g id="edge2" class="edge"><title>Node5&#45;&gt;Node7</title>
<path fill="none" stroke="midnightblue" d="M185.799,-71.4916C196.699,-61.6294 208.859,-50.6273 218.941,-41.5056"/>
<polygon fill="midnightblue" stroke="midnightblue" points="183.199,-69.1236 178.132,-78.4281 187.896,-74.3143 183.199,-69.1236"/>
</g>
</g>
</svg>
