<?xml version="1.0" encoding="UTF-8" standalone="no"?>
<!DOCTYPE svg PUBLIC "-//W3C//DTD SVG 1.1//EN"
 "http://www.w3.org/Graphics/SVG/1.1/DTD/svg11.dtd">
<!-- Generated by graphviz version 2.38.0 (20140413.2041)
 -->
<!-- Title: /home/mel/projects/Misc/Minecraft Server Service/src/setupServers.h Pages: 1 -->
<svg width="1940pt" height="162pt"
 viewBox="0.00 0.00 1940.00 162.00" xmlns="http://www.w3.org/2000/svg" xmlns:xlink="http://www.w3.org/1999/xlink">
<g id="graph0" class="graph" transform="scale(1 1) rotate(0) translate(4 158)">
<title>/home/mel/projects/Misc/Minecraft Server Service/src/setupServers.h</title>
<!-- Node0 -->
<g id="node1" class="node"><title>Node0</title>
<polygon fill="#bfbfbf" stroke="black" points="972,-112.5 972,-153.5 1110,-153.5 1110,-112.5 972,-112.5"/>
<text text-anchor="start" x="980" y="-141.5" font-family="Helvetica,sans-Serif" font-size="10.00">/home/mel/projects</text>
<text text-anchor="start" x="980" y="-130.5" font-family="Helvetica,sans-Serif" font-size="10.00">/Misc/Minecraft Server</text>
<text text-anchor="middle" x="1041" y="-119.5" font-family="Helvetica,sans-Serif" font-size="10.00"> Service/src/setupServers.h</text>
</g>
<!-- Node1 -->
<g id="node2" class="node"><title>Node1</title>
<g id="a_node2"><a xlink:href="$server_8h.html" xlink:title="server.h">
<polygon fill="none" stroke="black" points="1015,-56.5 1015,-75.5 1067,-75.5 1067,-56.5 1015,-56.5"/>
<text text-anchor="middle" x="1041" y="-63.5" font-family="Helvetica,sans-Serif" font-size="10.00">server.h</text>
</a>
</g>
</g>
<!-- Node0&#45;&gt;Node1 -->
<g id="edge1" class="edge"><title>Node0&#45;&gt;Node1</title>
<path fill="none" stroke="midnightblue" d="M1041,-112.498C1041,-104.065 1041,-94.2351 1041,-85.874"/>
<polygon fill="midnightblue" stroke="midnightblue" points="1044.5,-85.6525 1041,-75.6525 1037.5,-85.6525 1044.5,-85.6525"/>
</g>
<!-- Node11 -->
<g id="node12" class="node"><title>Node11</title>
<polygon fill="none" stroke="#bfbfbf" points="0,-0.5 0,-19.5 44,-19.5 44,-0.5 0,-0.5"/>
<text text-anchor="middle" x="22" y="-7.5" font-family="Helvetica,sans-Serif" font-size="10.00">vector</text>
</g>
<!-- Node0&#45;&gt;Node11 -->
<g id="edge28" class="edge"><title>Node0&#45;&gt;Node11</title>
<path fill="none" stroke="midnightblue" d="M971.803,-128.205C811.352,-118.536 401.752,-88.8571 54.2434,-19.9446"/>
<polygon fill="midnightblue" stroke="midnightblue" points="54.7309,-16.4729 44.239,-17.9463 53.3598,-23.3373 54.7309,-16.4729"/>
</g>
<!-- Node28 -->
<g id="node29" class="node"><title>Node28</title>
<polygon fill="none" stroke="#bfbfbf" points="1085,-56.5 1085,-75.5 1149,-75.5 1149,-56.5 1085,-56.5"/>
<text text-anchor="middle" x="1117" y="-63.5" font-family="Helvetica,sans-Serif" font-size="10.00">json/json.h</text>
</g>
<!-- Node0&#45;&gt;Node28 -->
<g id="edge29" class="edge"><title>Node0&#45;&gt;Node28</title>
<path fill="none" stroke="midnightblue" d="M1063.8,-112.498C1075.12,-102.82 1088.59,-91.3002 1099.14,-82.274"/>
<polygon fill="midnightblue" stroke="midnightblue" points="1101.56,-84.8121 1106.88,-75.6525 1097.01,-79.4923 1101.56,-84.8121"/>
</g>
<!-- Node2 -->
<g id="node3" class="node"><title>Node2</title>
<polygon fill="none" stroke="#bfbfbf" points="62,-0.5 62,-19.5 148,-19.5 148,-0.5 62,-0.5"/>
<text text-anchor="middle" x="105" y="-7.5" font-family="Helvetica,sans-Serif" font-size="10.00">outputListener.h</text>
</g>
<!-- Node1&#45;&gt;Node2 -->
<g id="edge2" class="edge"><title>Node1&#45;&gt;Node2</title>
<path fill="none" stroke="midnightblue" d="M1014.91,-64.7866C908.262,-63.679 495.196,-57.0926 158,-20 157.899,-19.9888 157.797,-19.9776 157.695,-19.9663"/>
<polygon fill="midnightblue" stroke="midnightblue" points="158.4,-16.5277 148.039,-18.7427 157.52,-23.4722 158.4,-16.5277"/>
</g>
<!-- Node3 -->
<g id="node4" class="node"><title>Node3</title>
<polygon fill="none" stroke="#bfbfbf" points="166.5,-0.5 166.5,-19.5 273.5,-19.5 273.5,-0.5 166.5,-0.5"/>
<text text-anchor="middle" x="220" y="-7.5" font-family="Helvetica,sans-Serif" font-size="10.00">log4cpp/Category.hh</text>
</g>
<!-- Node1&#45;&gt;Node3 -->
<g id="edge3" class="edge"><title>Node1&#45;&gt;Node3</title>
<path fill="none" stroke="midnightblue" d="M1014.75,-64.2276C918.649,-61.2344 576.733,-49.1375 283.55,-19.962"/>
<polygon fill="midnightblue" stroke="midnightblue" points="283.879,-16.4775 273.579,-18.9612 283.18,-23.4425 283.879,-16.4775"/>
</g>
<!-- Node4 -->
<g id="node5" class="node"><title>Node4</title>
<polygon fill="none" stroke="#bfbfbf" points="292,-0.5 292,-19.5 402,-19.5 402,-0.5 292,-0.5"/>
<text text-anchor="middle" x="347" y="-7.5" font-family="Helvetica,sans-Serif" font-size="10.00">event2/event&#45;config.h</text>
</g>
<!-- Node1&#45;&gt;Node4 -->
<g id="edge4" class="edge"><title>Node1&#45;&gt;Node4</title>
<path fill="none" stroke="midnightblue" d="M1014.88,-63.7521C929.836,-59.558 652.994,-44.877 412.277,-19.9512"/>
<polygon fill="midnightblue" stroke="midnightblue" points="412.597,-16.4657 402.288,-18.9087 411.871,-23.4279 412.597,-16.4657"/>
</g>
<!-- Node5 -->
<g id="node6" class="node"><title>Node5</title>
<polygon fill="none" stroke="#bfbfbf" points="420.5,-0.5 420.5,-19.5 501.5,-19.5 501.5,-0.5 420.5,-0.5"/>
<text text-anchor="middle" x="461" y="-7.5" font-family="Helvetica,sans-Serif" font-size="10.00">event2/event.h</text>
</g>
<!-- Node1&#45;&gt;Node5 -->
<g id="edge5" class="edge"><title>Node1&#45;&gt;Node5</title>
<path fill="none" stroke="midnightblue" d="M1014.99,-63.6543C939.127,-59.548 711.441,-45.9309 511.701,-19.9628"/>
<polygon fill="midnightblue" stroke="midnightblue" points="511.98,-16.4695 501.609,-18.637 511.068,-23.4099 511.98,-16.4695"/>
</g>
<!-- Node6 -->
<g id="node7" class="node"><title>Node6</title>
<polygon fill="none" stroke="#bfbfbf" points="520,-0.5 520,-19.5 590,-19.5 590,-0.5 520,-0.5"/>
<text text-anchor="middle" x="555" y="-7.5" font-family="Helvetica,sans-Serif" font-size="10.00">event2/util.h</text>
</g>
<!-- Node1&#45;&gt;Node6 -->
<g id="edge6" class="edge"><title>Node1&#45;&gt;Node6</title>
<path fill="none" stroke="midnightblue" d="M1014.98,-63.2671C947.964,-58.6102 763.833,-44.5891 600.254,-20.0459"/>
<polygon fill="midnightblue" stroke="midnightblue" points="600.42,-16.531 590.008,-18.4905 599.369,-23.4518 600.42,-16.531"/>
</g>
<!-- Node7 -->
<g id="node8" class="node"><title>Node7</title>
<polygon fill="none" stroke="#bfbfbf" points="608,-0.5 608,-19.5 670,-19.5 670,-0.5 608,-0.5"/>
<text text-anchor="middle" x="639" y="-7.5" font-family="Helvetica,sans-Serif" font-size="10.00">sys/wait.h</text>
</g>
<!-- Node1&#45;&gt;Node7 -->
<g id="edge7" class="edge"><title>Node1&#45;&gt;Node7</title>
<path fill="none" stroke="midnightblue" d="M1014.61,-62.5509C956.264,-56.9581 811.781,-42.125 680.138,-19.8626"/>
<polygon fill="midnightblue" stroke="midnightblue" points="680.728,-16.4127 670.281,-18.1774 679.548,-23.3126 680.728,-16.4127"/>
</g>
<!-- Node8 -->
<g id="node9" class="node"><title>Node8</title>
<polygon fill="none" stroke="#bfbfbf" points="688.5,-0.5 688.5,-19.5 739.5,-19.5 739.5,-0.5 688.5,-0.5"/>
<text text-anchor="middle" x="714" y="-7.5" font-family="Helvetica,sans-Serif" font-size="10.00">unistd.h</text>
</g>
<!-- Node1&#45;&gt;Node8 -->
<g id="edge8" class="edge"><title>Node1&#45;&gt;Node8</title>
<path fill="none" stroke="midnightblue" d="M1014.67,-61.8289C964.906,-55.6462 853.481,-40.9019 749.576,-19.9288"/>
<polygon fill="midnightblue" stroke="midnightblue" points="750.045,-16.4523 739.546,-17.8797 748.644,-23.3107 750.045,-16.4523"/>
</g>
<!-- Node9 -->
<g id="node10" class="node"><title>Node9</title>
<polygon fill="none" stroke="#bfbfbf" points="757.5,-0.5 757.5,-19.5 798.5,-19.5 798.5,-0.5 757.5,-0.5"/>
<text text-anchor="middle" x="778" y="-7.5" font-family="Helvetica,sans-Serif" font-size="10.00">string</text>
</g>
<!-- Node1&#45;&gt;Node9 -->
<g id="edge9" class="edge"><title>Node1&#45;&gt;Node9</title>
<path fill="none" stroke="midnightblue" d="M1014.96,-60.8507C973.384,-54.0391 889.318,-39.4939 808.428,-19.8878"/>
<polygon fill="midnightblue" stroke="midnightblue" points="809.128,-16.4558 798.582,-17.4719 807.46,-23.2541 809.128,-16.4558"/>
</g>
<!-- Node10 -->
<g id="node11" class="node"><title>Node10</title>
<polygon fill="none" stroke="#bfbfbf" points="817,-0.5 817,-19.5 869,-19.5 869,-0.5 817,-0.5"/>
<text text-anchor="middle" x="843" y="-7.5" font-family="Helvetica,sans-Serif" font-size="10.00">sstream</text>
</g>
<!-- Node1&#45;&gt;Node10 -->
<g id="edge10" class="edge"><title>Node1&#45;&gt;Node10</title>
<path fill="none" stroke="midnightblue" d="M1014.71,-57.8292C979.773,-48.3016 917.919,-31.4323 878.763,-20.7535"/>
<polygon fill="midnightblue" stroke="midnightblue" points="879.655,-17.369 869.086,-18.1144 877.813,-24.1224 879.655,-17.369"/>
</g>
<!-- Node1&#45;&gt;Node11 -->
<g id="edge11" class="edge"><title>Node1&#45;&gt;Node11</title>
<path fill="none" stroke="midnightblue" d="M1014.61,-64.6435C879.76,-62.6953 266.132,-52.2737 54.2866,-19.7462"/>
<polygon fill="midnightblue" stroke="midnightblue" points="54.6333,-16.2572 44.2054,-18.1303 53.5254,-23.169 54.6333,-16.2572"/>
</g>
<!-- Node12 -->
<g id="node13" class="node"><title>Node12</title>
<polygon fill="none" stroke="#bfbfbf" points="887,-0.5 887,-19.5 931,-19.5 931,-0.5 887,-0.5"/>
<text text-anchor="middle" x="909" y="-7.5" font-family="Helvetica,sans-Serif" font-size="10.00">thread</text>
</g>
<!-- Node1&#45;&gt;Node12 -->
<g id="edge12" class="edge"><title>Node1&#45;&gt;Node12</title>
<path fill="none" stroke="midnightblue" d="M1020.08,-56.4435C998.264,-47.5171 963.85,-33.4387 939.108,-23.3168"/>
<polygon fill="midnightblue" stroke="midnightblue" points="940.399,-20.0634 929.818,-19.5164 937.748,-26.5422 940.399,-20.0634"/>
</g>
<!-- Node13 -->
<g id="node14" class="node"><title>Node13</title>
<polygon fill="none" stroke="#bfbfbf" points="949,-0.5 949,-19.5 993,-19.5 993,-0.5 949,-0.5"/>
<text text-anchor="middle" x="971" y="-7.5" font-family="Helvetica,sans-Serif" font-size="10.00">mutex</text>
</g>
<!-- Node1&#45;&gt;Node13 -->
<g id="edge13" class="edge"><title>Node1&#45;&gt;Node13</title>
<path fill="none" stroke="midnightblue" d="M1029.75,-56.324C1019.2,-48.1849 1003.2,-35.8395 990.558,-26.0874"/>
<polygon fill="midnightblue" stroke="midnightblue" points="992.507,-23.1707 982.451,-19.8339 988.231,-28.7132 992.507,-23.1707"/>
</g>
<!-- Node14 -->
<g id="node15" class="node"><title>Node14</title>
<polygon fill="none" stroke="#bfbfbf" points="1011.5,-0.5 1011.5,-19.5 1070.5,-19.5 1070.5,-0.5 1011.5,-0.5"/>
<text text-anchor="middle" x="1041" y="-7.5" font-family="Helvetica,sans-Serif" font-size="10.00">functional</text>
</g>
<!-- Node1&#45;&gt;Node14 -->
<g id="edge14" class="edge"><title>Node1&#45;&gt;Node14</title>
<path fill="none" stroke="midnightblue" d="M1041,-56.083C1041,-49.0059 1041,-38.8611 1041,-29.9865"/>
<polygon fill="midnightblue" stroke="midnightblue" points="1044.5,-29.751 1041,-19.7511 1037.5,-29.7511 1044.5,-29.751"/>
</g>
<!-- Node15 -->
<g id="node16" class="node"><title>Node15</title>
<polygon fill="none" stroke="#bfbfbf" points="1088.5,-0.5 1088.5,-19.5 1133.5,-19.5 1133.5,-0.5 1088.5,-0.5"/>
<text text-anchor="middle" x="1111" y="-7.5" font-family="Helvetica,sans-Serif" font-size="10.00">cstdlib</text>
</g>
<!-- Node1&#45;&gt;Node15 -->
<g id="edge15" class="edge"><title>Node1&#45;&gt;Node15</title>
<path fill="none" stroke="midnightblue" d="M1052.25,-56.324C1062.8,-48.1849 1078.8,-35.8395 1091.44,-26.0874"/>
<polygon fill="midnightblue" stroke="midnightblue" points="1093.77,-28.7132 1099.55,-19.8339 1089.49,-23.1707 1093.77,-28.7132"/>
</g>
<!-- Node16 -->
<g id="node17" class="node"><title>Node16</title>
<polygon fill="none" stroke="#bfbfbf" points="1151.5,-0.5 1151.5,-19.5 1196.5,-19.5 1196.5,-0.5 1151.5,-0.5"/>
<text text-anchor="middle" x="1174" y="-7.5" font-family="Helvetica,sans-Serif" font-size="10.00">iosfwd</text>
</g>
<!-- Node1&#45;&gt;Node16 -->
<g id="edge16" class="edge"><title>Node1&#45;&gt;Node16</title>
<path fill="none" stroke="midnightblue" d="M1062.07,-56.4435C1084.06,-47.5171 1118.73,-33.4387 1143.66,-23.3168"/>
<polygon fill="midnightblue" stroke="midnightblue" points="1145.08,-26.5213 1153.02,-19.5164 1142.44,-20.0355 1145.08,-26.5213"/>
</g>
<!-- Node17 -->
<g id="node18" class="node"><title>Node17</title>
<polygon fill="none" stroke="#bfbfbf" points="1215,-0.5 1215,-19.5 1261,-19.5 1261,-0.5 1215,-0.5"/>
<text text-anchor="middle" x="1238" y="-7.5" font-family="Helvetica,sans-Serif" font-size="10.00">cctype</text>
</g>
<!-- Node1&#45;&gt;Node17 -->
<g id="edge17" class="edge"><title>Node1&#45;&gt;Node17</title>
<path fill="none" stroke="midnightblue" d="M1067.02,-57.971C1097.71,-49.6677 1150.51,-35.3355 1205.09,-20.2375"/>
<polygon fill="midnightblue" stroke="midnightblue" points="1206.23,-23.5527 1214.93,-17.5108 1204.36,-16.8066 1206.23,-23.5527"/>
</g>
<!-- Node18 -->
<g id="node19" class="node"><title>Node18</title>
<polygon fill="none" stroke="#bfbfbf" points="1279,-0.5 1279,-19.5 1335,-19.5 1335,-0.5 1279,-0.5"/>
<text text-anchor="middle" x="1307" y="-7.5" font-family="Helvetica,sans-Serif" font-size="10.00">algorithm</text>
</g>
<!-- Node1&#45;&gt;Node18 -->
<g id="edge18" class="edge"><title>Node1&#45;&gt;Node18</title>
<path fill="none" stroke="midnightblue" d="M1067.33,-58.0251C1070.25,-57.3127 1073.18,-56.623 1076,-56 1158.53,-37.7533 1182.53,-38.3027 1268.79,-20.1612"/>
<polygon fill="midnightblue" stroke="midnightblue" points="1269.7,-23.5446 1278.76,-18.0401 1268.25,-16.6979 1269.7,-23.5446"/>
</g>
<!-- Node19 -->
<g id="node20" class="node"><title>Node19</title>
<polygon fill="none" stroke="#bfbfbf" points="1353.5,-0.5 1353.5,-19.5 1400.5,-19.5 1400.5,-0.5 1353.5,-0.5"/>
<text text-anchor="middle" x="1377" y="-7.5" font-family="Helvetica,sans-Serif" font-size="10.00">iterator</text>
</g>
<!-- Node1&#45;&gt;Node19 -->
<g id="edge19" class="edge"><title>Node1&#45;&gt;Node19</title>
<path fill="none" stroke="midnightblue" d="M1067.3,-57.8826C1070.22,-57.197 1073.17,-56.5525 1076,-56 1190.85,-33.6015 1224.45,-43.3138 1343.44,-19.8494"/>
<polygon fill="midnightblue" stroke="midnightblue" points="1344.18,-23.27 1353.3,-17.8688 1342.8,-16.4072 1344.18,-23.27"/>
</g>
<!-- Node20 -->
<g id="node21" class="node"><title>Node20</title>
<polygon fill="none" stroke="#bfbfbf" points="1418.5,-0.5 1418.5,-19.5 1467.5,-19.5 1467.5,-0.5 1418.5,-0.5"/>
<text text-anchor="middle" x="1443" y="-7.5" font-family="Helvetica,sans-Serif" font-size="10.00">cstddef</text>
</g>
<!-- Node1&#45;&gt;Node20 -->
<g id="edge20" class="edge"><title>Node1&#45;&gt;Node20</title>
<path fill="none" stroke="midnightblue" d="M1067.28,-57.8077C1070.21,-57.1361 1073.16,-56.5154 1076,-56 1219.75,-29.912 1261.51,-46.9603 1408.4,-20.0458"/>
<polygon fill="midnightblue" stroke="midnightblue" points="1409.05,-23.4863 1418.23,-18.2085 1407.76,-16.6054 1409.05,-23.4863"/>
</g>
<!-- Node21 -->
<g id="node22" class="node"><title>Node21</title>
<polygon fill="none" stroke="#bfbfbf" points="1486,-0.5 1486,-19.5 1538,-19.5 1538,-0.5 1486,-0.5"/>
<text text-anchor="middle" x="1512" y="-7.5" font-family="Helvetica,sans-Serif" font-size="10.00">ostream</text>
</g>
<!-- Node1&#45;&gt;Node21 -->
<g id="edge21" class="edge"><title>Node1&#45;&gt;Node21</title>
<path fill="none" stroke="midnightblue" d="M1067.27,-57.7565C1070.2,-57.0945 1073.16,-56.49 1076,-56 1249.16,-26.1675 1298.87,-49.5046 1475.83,-19.9302"/>
<polygon fill="midnightblue" stroke="midnightblue" points="1476.46,-23.3737 1485.73,-18.2435 1475.28,-16.4732 1476.46,-23.3737"/>
</g>
<!-- Node22 -->
<g id="node23" class="node"><title>Node22</title>
<polygon fill="none" stroke="#bfbfbf" points="1556.5,-0.5 1556.5,-19.5 1605.5,-19.5 1605.5,-0.5 1556.5,-0.5"/>
<text text-anchor="middle" x="1581" y="-7.5" font-family="Helvetica,sans-Serif" font-size="10.00">cassert</text>
</g>
<!-- Node1&#45;&gt;Node22 -->
<g id="edge22" class="edge"><title>Node1&#45;&gt;Node22</title>
<path fill="none" stroke="midnightblue" d="M1067.27,-57.7185C1070.2,-57.0636 1073.15,-56.4712 1076,-56 1279.89,-22.2615 1338.18,-53.9836 1546.21,-19.7937"/>
<polygon fill="midnightblue" stroke="midnightblue" points="1546.95,-23.2192 1556.23,-18.1152 1545.79,-16.3154 1546.95,-23.2192"/>
</g>
<!-- Node23 -->
<g id="node24" class="node"><title>Node23</title>
<polygon fill="none" stroke="#bfbfbf" points="1624,-0.5 1624,-19.5 1670,-19.5 1670,-0.5 1624,-0.5"/>
<text text-anchor="middle" x="1647" y="-7.5" font-family="Helvetica,sans-Serif" font-size="10.00">cstring</text>
</g>
<!-- Node1&#45;&gt;Node23 -->
<g id="edge23" class="edge"><title>Node1&#45;&gt;Node23</title>
<path fill="none" stroke="midnightblue" d="M1067.26,-57.6909C1070.19,-57.0412 1073.15,-56.4575 1076,-56 1309.81,-18.4616 1376.57,-59.5658 1613.75,-19.8519"/>
<polygon fill="midnightblue" stroke="midnightblue" points="1614.44,-23.2845 1623.71,-18.1534 1613.26,-16.384 1614.44,-23.2845"/>
</g>
<!-- Node24 -->
<g id="node25" class="node"><title>Node24</title>
<polygon fill="none" stroke="#bfbfbf" points="1688,-0.5 1688,-19.5 1742,-19.5 1742,-0.5 1688,-0.5"/>
<text text-anchor="middle" x="1715" y="-7.5" font-family="Helvetica,sans-Serif" font-size="10.00">iostream</text>
</g>
<!-- Node1&#45;&gt;Node24 -->
<g id="edge24" class="edge"><title>Node1&#45;&gt;Node24</title>
<path fill="none" stroke="midnightblue" d="M1067.26,-57.6706C1070.19,-57.0247 1073.15,-56.4474 1076,-56 1337.99,-14.8854 1411.83,-59.6138 1678.03,-19.8387"/>
<polygon fill="midnightblue" stroke="midnightblue" points="1678.62,-23.2882 1687.98,-18.325 1677.57,-16.3677 1678.62,-23.2882"/>
</g>
<!-- Node25 -->
<g id="node26" class="node"><title>Node25</title>
<polygon fill="none" stroke="#bfbfbf" points="1760,-0.5 1760,-19.5 1808,-19.5 1808,-0.5 1760,-0.5"/>
<text text-anchor="middle" x="1784" y="-7.5" font-family="Helvetica,sans-Serif" font-size="10.00">stdlib.h</text>
</g>
<!-- Node1&#45;&gt;Node25 -->
<g id="edge25" class="edge"><title>Node1&#45;&gt;Node25</title>
<path fill="none" stroke="midnightblue" d="M1067.26,-57.6523C1070.19,-57.0098 1073.15,-56.4384 1076,-56 1369.61,-10.8789 1452.54,-66.5175 1749.77,-19.8177"/>
<polygon fill="midnightblue" stroke="midnightblue" points="1750.66,-23.2202 1759.98,-18.1865 1749.55,-16.3079 1750.66,-23.2202"/>
</g>
<!-- Node26 -->
<g id="node27" class="node"><title>Node26</title>
<polygon fill="none" stroke="#bfbfbf" points="1826.5,-0.5 1826.5,-19.5 1869.5,-19.5 1869.5,-0.5 1826.5,-0.5"/>
<text text-anchor="middle" x="1848" y="-7.5" font-family="Helvetica,sans-Serif" font-size="10.00">pwd.h</text>
</g>
<!-- Node1&#45;&gt;Node26 -->
<g id="edge26" class="edge"><title>Node1&#45;&gt;Node26</title>
<path fill="none" stroke="midnightblue" d="M1067.26,-57.6387C1070.19,-56.9987 1073.15,-56.4316 1076,-56 1398.67,-7.19435 1489.92,-72.9614 1816.25,-19.6451"/>
<polygon fill="midnightblue" stroke="midnightblue" points="1817.18,-23.0393 1826.47,-17.9494 1816.03,-16.1338 1817.18,-23.0393"/>
</g>
<!-- Node27 -->
<g id="node28" class="node"><title>Node27</title>
<polygon fill="none" stroke="#bfbfbf" points="1888,-0.5 1888,-19.5 1932,-19.5 1932,-0.5 1888,-0.5"/>
<text text-anchor="middle" x="1910" y="-7.5" font-family="Helvetica,sans-Serif" font-size="10.00">time.h</text>
</g>
<!-- Node1&#45;&gt;Node27 -->
<g id="edge27" class="edge"><title>Node1&#45;&gt;Node27</title>
<path fill="none" stroke="midnightblue" d="M1067.25,-57.6279C1070.19,-56.99 1073.15,-56.4263 1076,-56 1426.05,-3.72284 1524.7,-76.8327 1877.81,-19.7697"/>
<polygon fill="midnightblue" stroke="midnightblue" points="1878.49,-23.2042 1887.79,-18.1322 1877.36,-16.2964 1878.49,-23.2042"/>
</g>
</g>
</svg>
