<?xml version="1.0" encoding="UTF-8" standalone="no"?>
<!DOCTYPE svg PUBLIC "-//W3C//DTD SVG 1.1//EN"
 "http://www.w3.org/Graphics/SVG/1.1/DTD/svg11.dtd">
<!-- Generated by graphviz version 2.38.0 (20140413.2041)
 -->
<!-- Title: Json::BuiltStyledStreamWriter::writeWithIndent Pages: 1 -->
<svg width="712pt" height="168pt"
 viewBox="0.00 0.00 712.00 168.22" xmlns="http://www.w3.org/2000/svg" xmlns:xlink="http://www.w3.org/1999/xlink">
<g id="graph0" class="graph" transform="scale(1 1) rotate(0) translate(4 164.225)">
<title>Json::BuiltStyledStreamWriter::writeWithIndent</title>
<!-- Node156 -->
<g id="node1" class="node"><title>Node156</title>
<polygon fill="#bfbfbf" stroke="black" points="0,-27.7246 0,-57.7246 149,-57.7246 149,-27.7246 0,-27.7246"/>
<text text-anchor="start" x="8" y="-45.7246" font-family="Helvetica,sans-Serif" font-size="10.00">Json::BuiltStyledStreamWriter</text>
<text text-anchor="middle" x="74.5" y="-34.7246" font-family="Helvetica,sans-Serif" font-size="10.00">::writeWithIndent</text>
</g>
<!-- Node157 -->
<g id="node2" class="node"><title>Node157</title>
<g id="a_node2"><a xlink:href="$struct_json_1_1_built_styled_stream_writer.html#a7c9da861861e570a51b45f270c9ff150" xlink:title="Json::BuiltStyledStreamWriter\l::writeValue">
<polygon fill="none" stroke="black" points="185,-76.7246 185,-106.725 334,-106.725 334,-76.7246 185,-76.7246"/>
<text text-anchor="start" x="193" y="-94.7246" font-family="Helvetica,sans-Serif" font-size="10.00">Json::BuiltStyledStreamWriter</text>
<text text-anchor="middle" x="259.5" y="-83.7246" font-family="Helvetica,sans-Serif" font-size="10.00">::writeValue</text>
</a>
</g>
</g>
<!-- Node156&#45;&gt;Node157 -->
<g id="edge1" class="edge"><title>Node156&#45;&gt;Node157</title>
<path fill="none" stroke="midnightblue" d="M141.785,-60.4731C161.619,-65.7837 183.167,-71.5534 202.287,-76.673"/>
<polygon fill="midnightblue" stroke="midnightblue" points="142.464,-57.0317 131.899,-57.826 140.654,-63.7935 142.464,-57.0317"/>
</g>
<!-- Node159 -->
<g id="node4" class="node"><title>Node159</title>
<g id="a_node4"><a xlink:href="$struct_json_1_1_built_styled_stream_writer.html#acd20e9274bbcf7876ef3af2e7d23a31f" xlink:title="Json::BuiltStyledStreamWriter\l::writeArrayValue">
<polygon fill="none" stroke="black" points="555,-49.7246 555,-79.7246 704,-79.7246 704,-49.7246 555,-49.7246"/>
<text text-anchor="start" x="563" y="-67.7246" font-family="Helvetica,sans-Serif" font-size="10.00">Json::BuiltStyledStreamWriter</text>
<text text-anchor="middle" x="629.5" y="-56.7246" font-family="Helvetica,sans-Serif" font-size="10.00">::writeArrayValue</text>
</a>
</g>
</g>
<!-- Node156&#45;&gt;Node159 -->
<g id="edge7" class="edge"><title>Node156&#45;&gt;Node159</title>
<path fill="none" stroke="midnightblue" d="M147.99,-25.6403C236.598,-7.56978 390.604,14.7094 519,-13.7246 549.917,-20.5715 582.459,-37.0849 603.952,-49.4792"/>
<polygon fill="midnightblue" stroke="midnightblue" points="147.121,-22.2461 138.042,-27.7077 148.545,-29.0997 147.121,-22.2461"/>
</g>
<!-- Node158 -->
<g id="node3" class="node"><title>Node158</title>
<g id="a_node3"><a xlink:href="$struct_json_1_1_built_styled_stream_writer.html#a2ecffc3d66c4feddf208e5cd3b1c0f18" xlink:title="Json::BuiltStyledStreamWriter\l::write">
<polygon fill="none" stroke="black" points="370,-129.725 370,-159.725 519,-159.725 519,-129.725 370,-129.725"/>
<text text-anchor="start" x="378" y="-147.725" font-family="Helvetica,sans-Serif" font-size="10.00">Json::BuiltStyledStreamWriter</text>
<text text-anchor="middle" x="444.5" y="-136.725" font-family="Helvetica,sans-Serif" font-size="10.00">::write</text>
</a>
</g>
</g>
<!-- Node157&#45;&gt;Node158 -->
<g id="edge2" class="edge"><title>Node157&#45;&gt;Node158</title>
<path fill="none" stroke="midnightblue" d="M322.231,-109.603C344.704,-116.111 369.865,-123.399 391.419,-129.641"/>
<polygon fill="midnightblue" stroke="midnightblue" points="323.03,-106.191 312.451,-106.77 321.083,-112.914 323.03,-106.191"/>
</g>
<!-- Node157&#45;&gt;Node159 -->
<g id="edge3" class="edge"><title>Node157&#45;&gt;Node159</title>
<path fill="none" stroke="midnightblue" d="M344.06,-79.8318C407.479,-73.7886 493.85,-67.5285 554.727,-64.6062"/>
<polygon fill="midnightblue" stroke="midnightblue" points="343.701,-76.3501 334.086,-80.7993 344.377,-83.3174 343.701,-76.3501"/>
</g>
<!-- Node160 -->
<g id="node5" class="node"><title>Node160</title>
<g id="a_node5"><a xlink:href="$struct_json_1_1_built_styled_stream_writer.html#af423fd33b3d580506ea3efc53b05a077" xlink:title="Json::BuiltStyledStreamWriter\l::isMultineArray">
<polygon fill="none" stroke="black" points="370,-23.7246 370,-53.7246 519,-53.7246 519,-23.7246 370,-23.7246"/>
<text text-anchor="start" x="378" y="-41.7246" font-family="Helvetica,sans-Serif" font-size="10.00">Json::BuiltStyledStreamWriter</text>
<text text-anchor="middle" x="444.5" y="-30.7246" font-family="Helvetica,sans-Serif" font-size="10.00">::isMultineArray</text>
</a>
</g>
</g>
<!-- Node157&#45;&gt;Node160 -->
<g id="edge5" class="edge"><title>Node157&#45;&gt;Node160</title>
<path fill="none" stroke="midnightblue" d="M322.231,-73.8463C344.704,-67.3378 369.865,-60.0505 391.419,-53.8081"/>
<polygon fill="midnightblue" stroke="midnightblue" points="321.083,-70.5349 312.451,-76.6787 323.03,-77.2586 321.083,-70.5349"/>
</g>
<!-- Node159&#45;&gt;Node157 -->
<g id="edge4" class="edge"><title>Node159&#45;&gt;Node157</title>
<path fill="none" stroke="midnightblue" d="M544.745,-76.6359C481.279,-82.6797 394.91,-88.9365 334.086,-91.8519"/>
<polygon fill="midnightblue" stroke="midnightblue" points="545.111,-80.1169 554.727,-75.6683 544.436,-73.1496 545.111,-80.1169"/>
</g>
<!-- Node160&#45;&gt;Node159 -->
<g id="edge6" class="edge"><title>Node160&#45;&gt;Node159</title>
<path fill="none" stroke="midnightblue" d="M529.109,-50.6035C537.651,-51.817 546.285,-53.0438 554.711,-54.2409"/>
<polygon fill="midnightblue" stroke="midnightblue" points="529.535,-47.1289 519.142,-49.1874 528.55,-54.0593 529.535,-47.1289"/>
</g>
</g>
</svg>
