<?xml version="1.0" encoding="UTF-8" standalone="no"?>
<!DOCTYPE svg PUBLIC "-//W3C//DTD SVG 1.1//EN"
 "http://www.w3.org/Graphics/SVG/1.1/DTD/svg11.dtd">
<!-- Generated by graphviz version 2.38.0 (20140413.2041)
 -->
<!-- Title: Json::BuiltStyledStreamWriter::isMultineArray Pages: 1 -->
<svg width="712pt" height="61pt"
 viewBox="0.00 0.00 712.00 61.00" xmlns="http://www.w3.org/2000/svg" xmlns:xlink="http://www.w3.org/1999/xlink">
<g id="graph0" class="graph" transform="scale(1 1) rotate(0) translate(4 57)">
<title>Json::BuiltStyledStreamWriter::isMultineArray</title>
<!-- Node42 -->
<g id="node1" class="node"><title>Node42</title>
<polygon fill="#bfbfbf" stroke="black" points="0,-0.5 0,-30.5 149,-30.5 149,-0.5 0,-0.5"/>
<text text-anchor="start" x="8" y="-18.5" font-family="Helvetica,sans-Serif" font-size="10.00">Json::BuiltStyledStreamWriter</text>
<text text-anchor="middle" x="74.5" y="-7.5" font-family="Helvetica,sans-Serif" font-size="10.00">::isMultineArray</text>
</g>
<!-- Node43 -->
<g id="node2" class="node"><title>Node43</title>
<g id="a_node2"><a xlink:href="$struct_json_1_1_built_styled_stream_writer.html#acd20e9274bbcf7876ef3af2e7d23a31f" xlink:title="Json::BuiltStyledStreamWriter\l::writeArrayValue">
<polygon fill="none" stroke="black" points="185,-22.5 185,-52.5 334,-52.5 334,-22.5 185,-22.5"/>
<text text-anchor="start" x="193" y="-40.5" font-family="Helvetica,sans-Serif" font-size="10.00">Json::BuiltStyledStreamWriter</text>
<text text-anchor="middle" x="259.5" y="-29.5" font-family="Helvetica,sans-Serif" font-size="10.00">::writeArrayValue</text>
</a>
</g>
</g>
<!-- Node42&#45;&gt;Node43 -->
<g id="edge1" class="edge"><title>Node42&#45;&gt;Node43</title>
<path fill="none" stroke="midnightblue" d="M159.109,-25.5513C167.651,-26.5782 176.285,-27.6162 184.711,-28.6292"/>
<polygon fill="midnightblue" stroke="midnightblue" points="159.488,-22.0718 149.142,-24.3531 158.653,-29.0218 159.488,-22.0718"/>
</g>
<!-- Node44 -->
<g id="node3" class="node"><title>Node44</title>
<g id="a_node3"><a xlink:href="$struct_json_1_1_built_styled_stream_writer.html#a7c9da861861e570a51b45f270c9ff150" xlink:title="Json::BuiltStyledStreamWriter\l::writeValue">
<polygon fill="none" stroke="black" points="370,-22.5 370,-52.5 519,-52.5 519,-22.5 370,-22.5"/>
<text text-anchor="start" x="378" y="-40.5" font-family="Helvetica,sans-Serif" font-size="10.00">Json::BuiltStyledStreamWriter</text>
<text text-anchor="middle" x="444.5" y="-29.5" font-family="Helvetica,sans-Serif" font-size="10.00">::writeValue</text>
</a>
</g>
</g>
<!-- Node43&#45;&gt;Node44 -->
<g id="edge2" class="edge"><title>Node43&#45;&gt;Node44</title>
<path fill="none" stroke="midnightblue" d="M344.387,-30.7708C352.838,-30.7245 361.376,-30.7555 369.711,-30.8637"/>
<polygon fill="midnightblue" stroke="midnightblue" points="344.109,-27.2731 334.142,-30.8656 344.174,-34.2728 344.109,-27.2731"/>
</g>
<!-- Node44&#45;&gt;Node42 -->
<g id="edge5" class="edge"><title>Node44&#45;&gt;Node42</title>
<path fill="none" stroke="midnightblue" d="M376.009,-20.3226C362.201,-17.4832 347.701,-14.9839 334,-13.5 271.98,-6.78298 201.1,-7.94986 149.266,-10.4195"/>
<polygon fill="midnightblue" stroke="midnightblue" points="375.409,-23.7734 385.92,-22.4406 376.872,-16.928 375.409,-23.7734"/>
</g>
<!-- Node44&#45;&gt;Node43 -->
<g id="edge4" class="edge"><title>Node44&#45;&gt;Node43</title>
<path fill="none" stroke="midnightblue" d="M359.463,-44.23C351.011,-44.2754 342.474,-44.2435 334.142,-44.1344"/>
<polygon fill="midnightblue" stroke="midnightblue" points="359.743,-47.7277 369.711,-44.1363 359.679,-40.728 359.743,-47.7277"/>
</g>
<!-- Node45 -->
<g id="node4" class="node"><title>Node45</title>
<g id="a_node4"><a xlink:href="$struct_json_1_1_built_styled_stream_writer.html#a2ecffc3d66c4feddf208e5cd3b1c0f18" xlink:title="Json::BuiltStyledStreamWriter\l::write">
<polygon fill="none" stroke="black" points="555,-22.5 555,-52.5 704,-52.5 704,-22.5 555,-22.5"/>
<text text-anchor="start" x="563" y="-40.5" font-family="Helvetica,sans-Serif" font-size="10.00">Json::BuiltStyledStreamWriter</text>
<text text-anchor="middle" x="629.5" y="-29.5" font-family="Helvetica,sans-Serif" font-size="10.00">::write</text>
</a>
</g>
</g>
<!-- Node44&#45;&gt;Node45 -->
<g id="edge3" class="edge"><title>Node44&#45;&gt;Node45</title>
<path fill="none" stroke="midnightblue" d="M529.387,-37.5C537.838,-37.5 546.376,-37.5 554.711,-37.5"/>
<polygon fill="midnightblue" stroke="midnightblue" points="529.142,-34.0001 519.142,-37.5 529.142,-41.0001 529.142,-34.0001"/>
</g>
</g>
</svg>
