<?xml version="1.0" encoding="UTF-8" standalone="no"?>
<!DOCTYPE svg PUBLIC "-//W3C//DTD SVG 1.1//EN"
 "http://www.w3.org/Graphics/SVG/1.1/DTD/svg11.dtd">
<!-- Generated by graphviz version 2.38.0 (20140413.2041)
 -->
<!-- Title: Json::BuiltStyledStreamWriter::writeValue Pages: 1 -->
<svg width="527pt" height="145pt"
 viewBox="0.00 0.00 527.00 145.00" xmlns="http://www.w3.org/2000/svg" xmlns:xlink="http://www.w3.org/1999/xlink">
<g id="graph0" class="graph" transform="scale(1 1) rotate(0) translate(4 141)">
<title>Json::BuiltStyledStreamWriter::writeValue</title>
<!-- Node150 -->
<g id="node1" class="node"><title>Node150</title>
<polygon fill="#bfbfbf" stroke="black" points="0,-53.5 0,-83.5 149,-83.5 149,-53.5 0,-53.5"/>
<text text-anchor="start" x="8" y="-71.5" font-family="Helvetica,sans-Serif" font-size="10.00">Json::BuiltStyledStreamWriter</text>
<text text-anchor="middle" x="74.5" y="-60.5" font-family="Helvetica,sans-Serif" font-size="10.00">::writeValue</text>
</g>
<!-- Node151 -->
<g id="node2" class="node"><title>Node151</title>
<g id="a_node2"><a xlink:href="$struct_json_1_1_built_styled_stream_writer.html#a2ecffc3d66c4feddf208e5cd3b1c0f18" xlink:title="Json::BuiltStyledStreamWriter\l::write">
<polygon fill="none" stroke="black" points="185,-106.5 185,-136.5 334,-136.5 334,-106.5 185,-106.5"/>
<text text-anchor="start" x="193" y="-124.5" font-family="Helvetica,sans-Serif" font-size="10.00">Json::BuiltStyledStreamWriter</text>
<text text-anchor="middle" x="259.5" y="-113.5" font-family="Helvetica,sans-Serif" font-size="10.00">::write</text>
</a>
</g>
</g>
<!-- Node150&#45;&gt;Node151 -->
<g id="edge1" class="edge"><title>Node150&#45;&gt;Node151</title>
<path fill="none" stroke="midnightblue" d="M137.231,-86.3783C159.704,-92.8868 184.865,-100.174 206.419,-106.416"/>
<polygon fill="midnightblue" stroke="midnightblue" points="138.03,-82.966 127.451,-83.5459 136.083,-89.6897 138.03,-82.966"/>
</g>
<!-- Node152 -->
<g id="node3" class="node"><title>Node152</title>
<g id="a_node3"><a xlink:href="$struct_json_1_1_built_styled_stream_writer.html#acd20e9274bbcf7876ef3af2e7d23a31f" xlink:title="Json::BuiltStyledStreamWriter\l::writeArrayValue">
<polygon fill="none" stroke="black" points="370,-53.5 370,-83.5 519,-83.5 519,-53.5 370,-53.5"/>
<text text-anchor="start" x="378" y="-71.5" font-family="Helvetica,sans-Serif" font-size="10.00">Json::BuiltStyledStreamWriter</text>
<text text-anchor="middle" x="444.5" y="-60.5" font-family="Helvetica,sans-Serif" font-size="10.00">::writeArrayValue</text>
</a>
</g>
</g>
<!-- Node150&#45;&gt;Node152 -->
<g id="edge2" class="edge"><title>Node150&#45;&gt;Node152</title>
<path fill="none" stroke="midnightblue" d="M159.451,-62.7294C222.834,-61.348 308.975,-61.4279 369.727,-62.969"/>
<polygon fill="midnightblue" stroke="midnightblue" points="159.001,-59.239 149.086,-62.9737 159.166,-66.237 159.001,-59.239"/>
</g>
<!-- Node153 -->
<g id="node4" class="node"><title>Node153</title>
<g id="a_node4"><a xlink:href="$struct_json_1_1_built_styled_stream_writer.html#af423fd33b3d580506ea3efc53b05a077" xlink:title="Json::BuiltStyledStreamWriter\l::isMultineArray">
<polygon fill="none" stroke="black" points="185,-0.5 185,-30.5 334,-30.5 334,-0.5 185,-0.5"/>
<text text-anchor="start" x="193" y="-18.5" font-family="Helvetica,sans-Serif" font-size="10.00">Json::BuiltStyledStreamWriter</text>
<text text-anchor="middle" x="259.5" y="-7.5" font-family="Helvetica,sans-Serif" font-size="10.00">::isMultineArray</text>
</a>
</g>
</g>
<!-- Node150&#45;&gt;Node153 -->
<g id="edge4" class="edge"><title>Node150&#45;&gt;Node153</title>
<path fill="none" stroke="midnightblue" d="M137.231,-50.6217C159.704,-44.1132 184.865,-36.8259 206.419,-30.5835"/>
<polygon fill="midnightblue" stroke="midnightblue" points="136.083,-47.3103 127.451,-53.4541 138.03,-54.034 136.083,-47.3103"/>
</g>
<!-- Node152&#45;&gt;Node150 -->
<g id="edge3" class="edge"><title>Node152&#45;&gt;Node150</title>
<path fill="none" stroke="midnightblue" d="M359.353,-74.2748C295.924,-75.6532 209.785,-75.5704 149.086,-74.0263"/>
<polygon fill="midnightblue" stroke="midnightblue" points="359.812,-77.7651 369.727,-74.031 359.648,-70.767 359.812,-77.7651"/>
</g>
<!-- Node153&#45;&gt;Node152 -->
<g id="edge5" class="edge"><title>Node153&#45;&gt;Node152</title>
<path fill="none" stroke="midnightblue" d="M322.231,-33.3783C344.704,-39.8868 369.865,-47.1741 391.419,-53.4165"/>
<polygon fill="midnightblue" stroke="midnightblue" points="323.03,-29.966 312.451,-30.5459 321.083,-36.6897 323.03,-29.966"/>
</g>
</g>
</svg>
