<?xml version="1.0" encoding="UTF-8" standalone="no"?>
<!DOCTYPE svg PUBLIC "-//W3C//DTD SVG 1.1//EN"
 "http://www.w3.org/Graphics/SVG/1.1/DTD/svg11.dtd">
<!-- Generated by graphviz version 2.38.0 (20140413.2041)
 -->
<!-- Title: Json::BuiltStyledStreamWriter::writeArrayValue Pages: 1 -->
<svg width="527pt" height="88pt"
 viewBox="0.00 0.00 527.00 88.00" xmlns="http://www.w3.org/2000/svg" xmlns:xlink="http://www.w3.org/1999/xlink">
<g id="graph0" class="graph" transform="scale(1 1) rotate(0) translate(4 84)">
<title>Json::BuiltStyledStreamWriter::writeArrayValue</title>
<!-- Node102 -->
<g id="node1" class="node"><title>Node102</title>
<polygon fill="#bfbfbf" stroke="black" points="0,-44.5 0,-74.5 149,-74.5 149,-44.5 0,-44.5"/>
<text text-anchor="start" x="8" y="-62.5" font-family="Helvetica,sans-Serif" font-size="10.00">Json::BuiltStyledStreamWriter</text>
<text text-anchor="middle" x="74.5" y="-51.5" font-family="Helvetica,sans-Serif" font-size="10.00">::writeArrayValue</text>
</g>
<!-- Node103 -->
<g id="node2" class="node"><title>Node103</title>
<g id="a_node2"><a xlink:href="$struct_json_1_1_built_styled_stream_writer.html#a7c9da861861e570a51b45f270c9ff150" xlink:title="Json::BuiltStyledStreamWriter\l::writeValue">
<polygon fill="none" stroke="black" points="185,-44.5 185,-74.5 334,-74.5 334,-44.5 185,-44.5"/>
<text text-anchor="start" x="193" y="-62.5" font-family="Helvetica,sans-Serif" font-size="10.00">Json::BuiltStyledStreamWriter</text>
<text text-anchor="middle" x="259.5" y="-51.5" font-family="Helvetica,sans-Serif" font-size="10.00">::writeValue</text>
</a>
</g>
</g>
<!-- Node102&#45;&gt;Node103 -->
<g id="edge1" class="edge"><title>Node102&#45;&gt;Node103</title>
<path fill="none" stroke="midnightblue" d="M159.387,-52.7708C167.838,-52.7245 176.376,-52.7555 184.711,-52.8637"/>
<polygon fill="midnightblue" stroke="midnightblue" points="159.109,-49.2731 149.142,-52.8656 159.174,-56.2728 159.109,-49.2731"/>
</g>
<!-- Node103&#45;&gt;Node102 -->
<g id="edge3" class="edge"><title>Node103&#45;&gt;Node102</title>
<path fill="none" stroke="midnightblue" d="M174.463,-66.23C166.011,-66.2754 157.474,-66.2435 149.142,-66.1344"/>
<polygon fill="midnightblue" stroke="midnightblue" points="174.743,-69.7277 184.711,-66.1363 174.679,-62.728 174.743,-69.7277"/>
</g>
<!-- Node104 -->
<g id="node3" class="node"><title>Node104</title>
<g id="a_node3"><a xlink:href="$struct_json_1_1_built_styled_stream_writer.html#a2ecffc3d66c4feddf208e5cd3b1c0f18" xlink:title="Json::BuiltStyledStreamWriter\l::write">
<polygon fill="none" stroke="black" points="370,-49.5 370,-79.5 519,-79.5 519,-49.5 370,-49.5"/>
<text text-anchor="start" x="378" y="-67.5" font-family="Helvetica,sans-Serif" font-size="10.00">Json::BuiltStyledStreamWriter</text>
<text text-anchor="middle" x="444.5" y="-56.5" font-family="Helvetica,sans-Serif" font-size="10.00">::write</text>
</a>
</g>
</g>
<!-- Node103&#45;&gt;Node104 -->
<g id="edge2" class="edge"><title>Node103&#45;&gt;Node104</title>
<path fill="none" stroke="midnightblue" d="M344.387,-61.792C352.838,-62.0229 361.376,-62.2562 369.711,-62.4839"/>
<polygon fill="midnightblue" stroke="midnightblue" points="344.234,-58.2866 334.142,-61.5121 344.043,-65.284 344.234,-58.2866"/>
</g>
<!-- Node105 -->
<g id="node4" class="node"><title>Node105</title>
<g id="a_node4"><a xlink:href="$struct_json_1_1_built_styled_stream_writer.html#af423fd33b3d580506ea3efc53b05a077" xlink:title="Json::BuiltStyledStreamWriter\l::isMultineArray">
<polygon fill="none" stroke="black" points="370,-0.5 370,-30.5 519,-30.5 519,-0.5 370,-0.5"/>
<text text-anchor="start" x="378" y="-18.5" font-family="Helvetica,sans-Serif" font-size="10.00">Json::BuiltStyledStreamWriter</text>
<text text-anchor="middle" x="444.5" y="-7.5" font-family="Helvetica,sans-Serif" font-size="10.00">::isMultineArray</text>
</a>
</g>
</g>
<!-- Node103&#45;&gt;Node105 -->
<g id="edge4" class="edge"><title>Node103&#45;&gt;Node105</title>
<path fill="none" stroke="midnightblue" d="M332.772,-42.1231C348.72,-38.2888 365.483,-34.2582 381.005,-30.5262"/>
<polygon fill="midnightblue" stroke="midnightblue" points="331.871,-38.7399 322.966,-44.4808 333.508,-45.546 331.871,-38.7399"/>
</g>
<!-- Node105&#45;&gt;Node102 -->
<g id="edge5" class="edge"><title>Node105&#45;&gt;Node102</title>
<path fill="none" stroke="midnightblue" d="M359.644,-18.4533C308.886,-21.0365 242.974,-25.8023 185,-34.5 168.223,-37.017 150.203,-40.7105 133.722,-44.4903"/>
<polygon fill="midnightblue" stroke="midnightblue" points="360.095,-21.9355 369.912,-17.9499 359.752,-14.9439 360.095,-21.9355"/>
</g>
</g>
</svg>
