<?xml version="1.0" encoding="UTF-8" standalone="no"?>
<!DOCTYPE svg PUBLIC "-//W3C//DTD SVG 1.1//EN"
 "http://www.w3.org/Graphics/SVG/1.1/DTD/svg11.dtd">
<!-- Generated by graphviz version 2.38.0 (20140413.2041)
 -->
<!-- Title: Json::BuiltStyledStreamWriter::writeCommentBeforeValue Pages: 1 -->
<svg width="712pt" height="164pt"
 viewBox="0.00 0.00 712.00 164.16" xmlns="http://www.w3.org/2000/svg" xmlns:xlink="http://www.w3.org/1999/xlink">
<g id="graph0" class="graph" transform="scale(1 1) rotate(0) translate(4 160.156)">
<title>Json::BuiltStyledStreamWriter::writeCommentBeforeValue</title>
<!-- Node115 -->
<g id="node1" class="node"><title>Node115</title>
<polygon fill="#bfbfbf" stroke="black" points="0,-72.6562 0,-102.656 149,-102.656 149,-72.6562 0,-72.6562"/>
<text text-anchor="start" x="8" y="-90.6562" font-family="Helvetica,sans-Serif" font-size="10.00">Json::BuiltStyledStreamWriter</text>
<text text-anchor="middle" x="74.5" y="-79.6562" font-family="Helvetica,sans-Serif" font-size="10.00">::writeCommentBeforeValue</text>
</g>
<!-- Node116 -->
<g id="node2" class="node"><title>Node116</title>
<g id="a_node2"><a xlink:href="$struct_json_1_1_built_styled_stream_writer.html#a2ecffc3d66c4feddf208e5cd3b1c0f18" xlink:title="Json::BuiltStyledStreamWriter\l::write">
<polygon fill="none" stroke="black" points="370,-125.656 370,-155.656 519,-155.656 519,-125.656 370,-125.656"/>
<text text-anchor="start" x="378" y="-143.656" font-family="Helvetica,sans-Serif" font-size="10.00">Json::BuiltStyledStreamWriter</text>
<text text-anchor="middle" x="444.5" y="-132.656" font-family="Helvetica,sans-Serif" font-size="10.00">::write</text>
</a>
</g>
</g>
<!-- Node115&#45;&gt;Node116 -->
<g id="edge1" class="edge"><title>Node115&#45;&gt;Node116</title>
<path fill="none" stroke="midnightblue" d="M148.73,-104.809C160.806,-107.32 173.224,-109.711 185,-111.656 247.044,-121.907 318.075,-129.587 369.959,-134.459"/>
<polygon fill="midnightblue" stroke="midnightblue" points="149.196,-101.33 138.687,-102.678 147.743,-108.177 149.196,-101.33"/>
</g>
<!-- Node117 -->
<g id="node3" class="node"><title>Node117</title>
<g id="a_node3"><a xlink:href="$struct_json_1_1_built_styled_stream_writer.html#a7c9da861861e570a51b45f270c9ff150" xlink:title="Json::BuiltStyledStreamWriter\l::writeValue">
<polygon fill="none" stroke="black" points="185,-72.6562 185,-102.656 334,-102.656 334,-72.6562 185,-72.6562"/>
<text text-anchor="start" x="193" y="-90.6562" font-family="Helvetica,sans-Serif" font-size="10.00">Json::BuiltStyledStreamWriter</text>
<text text-anchor="middle" x="259.5" y="-79.6562" font-family="Helvetica,sans-Serif" font-size="10.00">::writeValue</text>
</a>
</g>
</g>
<!-- Node115&#45;&gt;Node117 -->
<g id="edge2" class="edge"><title>Node115&#45;&gt;Node117</title>
<path fill="none" stroke="midnightblue" d="M159.387,-87.6562C167.838,-87.6562 176.376,-87.6562 184.711,-87.6562"/>
<polygon fill="midnightblue" stroke="midnightblue" points="159.142,-84.1563 149.142,-87.6562 159.142,-91.1563 159.142,-84.1563"/>
</g>
<!-- Node118 -->
<g id="node4" class="node"><title>Node118</title>
<g id="a_node4"><a xlink:href="$struct_json_1_1_built_styled_stream_writer.html#acd20e9274bbcf7876ef3af2e7d23a31f" xlink:title="Json::BuiltStyledStreamWriter\l::writeArrayValue">
<polygon fill="none" stroke="black" points="555,-45.6562 555,-75.6562 704,-75.6562 704,-45.6562 555,-45.6562"/>
<text text-anchor="start" x="563" y="-63.6562" font-family="Helvetica,sans-Serif" font-size="10.00">Json::BuiltStyledStreamWriter</text>
<text text-anchor="middle" x="629.5" y="-52.6562" font-family="Helvetica,sans-Serif" font-size="10.00">::writeArrayValue</text>
</a>
</g>
</g>
<!-- Node115&#45;&gt;Node118 -->
<g id="edge8" class="edge"><title>Node115&#45;&gt;Node118</title>
<path fill="none" stroke="midnightblue" d="M119.364,-68.5545C199.266,-36.2829 373.701,22.521 519,-9.6562 549.917,-16.5031 582.459,-33.0165 603.952,-45.4108"/>
<polygon fill="midnightblue" stroke="midnightblue" points="117.566,-65.509 109.641,-72.5405 120.221,-71.986 117.566,-65.509"/>
</g>
<!-- Node117&#45;&gt;Node116 -->
<g id="edge3" class="edge"><title>Node117&#45;&gt;Node116</title>
<path fill="none" stroke="midnightblue" d="M322.231,-105.534C344.704,-112.043 369.865,-119.33 391.419,-125.573"/>
<polygon fill="midnightblue" stroke="midnightblue" points="323.03,-102.122 312.451,-102.702 321.083,-108.846 323.03,-102.122"/>
</g>
<!-- Node117&#45;&gt;Node118 -->
<g id="edge4" class="edge"><title>Node117&#45;&gt;Node118</title>
<path fill="none" stroke="midnightblue" d="M344.06,-75.7634C407.479,-69.7202 493.85,-63.4601 554.727,-60.5378"/>
<polygon fill="midnightblue" stroke="midnightblue" points="343.701,-72.2817 334.086,-76.7309 344.377,-79.249 343.701,-72.2817"/>
</g>
<!-- Node119 -->
<g id="node5" class="node"><title>Node119</title>
<g id="a_node5"><a xlink:href="$struct_json_1_1_built_styled_stream_writer.html#af423fd33b3d580506ea3efc53b05a077" xlink:title="Json::BuiltStyledStreamWriter\l::isMultineArray">
<polygon fill="none" stroke="black" points="370,-19.6562 370,-49.6562 519,-49.6562 519,-19.6562 370,-19.6562"/>
<text text-anchor="start" x="378" y="-37.6562" font-family="Helvetica,sans-Serif" font-size="10.00">Json::BuiltStyledStreamWriter</text>
<text text-anchor="middle" x="444.5" y="-26.6562" font-family="Helvetica,sans-Serif" font-size="10.00">::isMultineArray</text>
</a>
</g>
</g>
<!-- Node117&#45;&gt;Node119 -->
<g id="edge6" class="edge"><title>Node117&#45;&gt;Node119</title>
<path fill="none" stroke="midnightblue" d="M322.231,-69.7779C344.704,-63.2694 369.865,-55.9821 391.419,-49.7397"/>
<polygon fill="midnightblue" stroke="midnightblue" points="321.083,-66.4665 312.451,-72.6103 323.03,-73.1902 321.083,-66.4665"/>
</g>
<!-- Node118&#45;&gt;Node117 -->
<g id="edge5" class="edge"><title>Node118&#45;&gt;Node117</title>
<path fill="none" stroke="midnightblue" d="M544.745,-72.5675C481.279,-78.6113 394.91,-84.8681 334.086,-87.7835"/>
<polygon fill="midnightblue" stroke="midnightblue" points="545.111,-76.0485 554.727,-71.5999 544.436,-69.0812 545.111,-76.0485"/>
</g>
<!-- Node119&#45;&gt;Node118 -->
<g id="edge7" class="edge"><title>Node119&#45;&gt;Node118</title>
<path fill="none" stroke="midnightblue" d="M529.109,-46.5351C537.651,-47.7486 546.285,-48.9754 554.711,-50.1725"/>
<polygon fill="midnightblue" stroke="midnightblue" points="529.535,-43.0605 519.142,-45.119 528.55,-49.9909 529.535,-43.0605"/>
</g>
</g>
</svg>
