<?xml version="1.0" encoding="UTF-8" standalone="no"?>
<!DOCTYPE svg PUBLIC "-//W3C//DTD SVG 1.1//EN"
 "http://www.w3.org/Graphics/SVG/1.1/DTD/svg11.dtd">
<!-- Generated by graphviz version 2.38.0 (20140413.2041)
 -->
<!-- Title: Json::BuiltStyledStreamWriter::writeValue Pages: 1 -->
<svg width="947pt" height="563pt"
 viewBox="0.00 0.00 947.00 562.50" xmlns="http://www.w3.org/2000/svg" xmlns:xlink="http://www.w3.org/1999/xlink">
<g id="graph0" class="graph" transform="scale(1 1) rotate(0) translate(4 558.5)">
<title>Json::BuiltStyledStreamWriter::writeValue</title>
<!-- Node129 -->
<g id="node1" class="node"><title>Node129</title>
<polygon fill="#bfbfbf" stroke="black" points="0,-333 0,-363 149,-363 149,-333 0,-333"/>
<text text-anchor="start" x="8" y="-351" font-family="Helvetica,sans-Serif" font-size="10.00">Json::BuiltStyledStreamWriter</text>
<text text-anchor="middle" x="74.5" y="-340" font-family="Helvetica,sans-Serif" font-size="10.00">::writeValue</text>
</g>
<!-- Node130 -->
<g id="node2" class="node"><title>Node130</title>
<g id="a_node2"><a xlink:href="$struct_json_1_1_built_styled_stream_writer.html#a53de0fe57c883d621c7255e49248651e" xlink:title="Json::BuiltStyledStreamWriter\l::pushValue">
<polygon fill="none" stroke="black" points="389.5,-524 389.5,-554 538.5,-554 538.5,-524 389.5,-524"/>
<text text-anchor="start" x="397.5" y="-542" font-family="Helvetica,sans-Serif" font-size="10.00">Json::BuiltStyledStreamWriter</text>
<text text-anchor="middle" x="464" y="-531" font-family="Helvetica,sans-Serif" font-size="10.00">::pushValue</text>
</a>
</g>
</g>
<!-- Node129&#45;&gt;Node130 -->
<g id="edge1" class="edge"><title>Node129&#45;&gt;Node130</title>
<path fill="none" stroke="midnightblue" d="M86.4936,-363.294C104.446,-387.179 142.358,-433.261 185,-459 244.727,-495.052 321.488,-515.533 379.212,-526.728"/>
<polygon fill="midnightblue" stroke="midnightblue" points="378.921,-530.234 389.396,-528.645 380.216,-523.355 378.921,-530.234"/>
</g>
<!-- Node131 -->
<g id="node3" class="node"><title>Node131</title>
<g id="a_node3"><a xlink:href="$namespace_json.html#abd9c650f70d9434f98f9025e2e2faf2d" xlink:title="Json::valueToString">
<polygon fill="none" stroke="black" points="412,-152.5 412,-171.5 516,-171.5 516,-152.5 412,-152.5"/>
<text text-anchor="middle" x="464" y="-159.5" font-family="Helvetica,sans-Serif" font-size="10.00">Json::valueToString</text>
</a>
</g>
</g>
<!-- Node129&#45;&gt;Node131 -->
<g id="edge2" class="edge"><title>Node129&#45;&gt;Node131</title>
<path fill="none" stroke="midnightblue" d="M84.1457,-332.808C100.283,-305.924 137.678,-250.156 185,-222 252.049,-182.107 342.24,-168.602 401.461,-164.108"/>
<polygon fill="midnightblue" stroke="midnightblue" points="402.048,-167.576 411.782,-163.392 401.564,-160.593 402.048,-167.576"/>
</g>
<!-- Node133 -->
<g id="node5" class="node"><title>Node133</title>
<g id="a_node5"><a xlink:href="$namespace_json.html#a20d52b5a457ee5d833645d119451c2cd" xlink:title="Json::valueToQuotedStringN">
<polygon fill="none" stroke="black" points="188,-95.5 188,-114.5 331,-114.5 331,-95.5 188,-95.5"/>
<text text-anchor="middle" x="259.5" y="-102.5" font-family="Helvetica,sans-Serif" font-size="10.00">Json::valueToQuotedStringN</text>
</a>
</g>
</g>
<!-- Node129&#45;&gt;Node133 -->
<g id="edge4" class="edge"><title>Node129&#45;&gt;Node133</title>
<path fill="none" stroke="midnightblue" d="M80.894,-332.791C94.0457,-297.396 130.713,-208.18 185,-151 197.328,-138.015 214.068,-127.166 228.458,-119.271"/>
<polygon fill="midnightblue" stroke="midnightblue" points="230.281,-122.267 237.505,-114.517 227.024,-116.07 230.281,-122.267"/>
</g>
<!-- Node139 -->
<g id="node11" class="node"><title>Node139</title>
<g id="a_node11"><a xlink:href="$struct_json_1_1_built_styled_stream_writer.html#acd20e9274bbcf7876ef3af2e7d23a31f" xlink:title="Json::BuiltStyledStreamWriter\l::writeArrayValue">
<polygon fill="none" stroke="black" points="185,-333 185,-363 334,-363 334,-333 185,-333"/>
<text text-anchor="start" x="193" y="-351" font-family="Helvetica,sans-Serif" font-size="10.00">Json::BuiltStyledStreamWriter</text>
<text text-anchor="middle" x="259.5" y="-340" font-family="Helvetica,sans-Serif" font-size="10.00">::writeArrayValue</text>
</a>
</g>
</g>
<!-- Node129&#45;&gt;Node139 -->
<g id="edge14" class="edge"><title>Node129&#45;&gt;Node139</title>
<path fill="none" stroke="midnightblue" d="M149.142,-341.366C157.474,-341.256 166.011,-341.225 174.463,-341.27"/>
<polygon fill="midnightblue" stroke="midnightblue" points="174.679,-344.772 184.711,-341.364 174.743,-337.772 174.679,-344.772"/>
</g>
<!-- Node144 -->
<g id="node16" class="node"><title>Node144</title>
<g id="a_node16"><a xlink:href="$struct_json_1_1_built_styled_stream_writer.html#a764c6d530b5bd660c4a7d1ad4eff6b8d" xlink:title="Json::BuiltStyledStreamWriter\l::writeWithIndent">
<polygon fill="none" stroke="black" points="389.5,-426 389.5,-456 538.5,-456 538.5,-426 389.5,-426"/>
<text text-anchor="start" x="397.5" y="-444" font-family="Helvetica,sans-Serif" font-size="10.00">Json::BuiltStyledStreamWriter</text>
<text text-anchor="middle" x="464" y="-433" font-family="Helvetica,sans-Serif" font-size="10.00">::writeWithIndent</text>
</a>
</g>
</g>
<!-- Node129&#45;&gt;Node144 -->
<g id="edge31" class="edge"><title>Node129&#45;&gt;Node144</title>
<path fill="none" stroke="midnightblue" d="M105.962,-363.034C127.559,-373.133 157.475,-386.008 185,-394 248.945,-412.567 323.43,-424.673 379.196,-431.942"/>
<polygon fill="midnightblue" stroke="midnightblue" points="379.022,-435.448 389.385,-433.243 379.909,-428.504 379.022,-435.448"/>
</g>
<!-- Node146 -->
<g id="node18" class="node"><title>Node146</title>
<g id="a_node18"><a xlink:href="$struct_json_1_1_built_styled_stream_writer.html#a73e09692a2cfbd6e67836b060dc34a9f" xlink:title="Json::BuiltStyledStreamWriter\l::indent">
<polygon fill="none" stroke="black" points="389.5,-240 389.5,-270 538.5,-270 538.5,-240 389.5,-240"/>
<text text-anchor="start" x="397.5" y="-258" font-family="Helvetica,sans-Serif" font-size="10.00">Json::BuiltStyledStreamWriter</text>
<text text-anchor="middle" x="464" y="-247" font-family="Helvetica,sans-Serif" font-size="10.00">::indent</text>
</a>
</g>
</g>
<!-- Node129&#45;&gt;Node146 -->
<g id="edge32" class="edge"><title>Node129&#45;&gt;Node146</title>
<path fill="none" stroke="midnightblue" d="M108.944,-332.887C130.331,-323.721 158.865,-312.404 185,-305 249.071,-286.848 323.394,-273.885 379.063,-265.713"/>
<polygon fill="midnightblue" stroke="midnightblue" points="379.838,-269.137 389.234,-264.242 378.836,-262.209 379.838,-269.137"/>
</g>
<!-- Node147 -->
<g id="node19" class="node"><title>Node147</title>
<g id="a_node19"><a xlink:href="$struct_json_1_1_built_styled_stream_writer.html#a32c4afca4e08fba79bb0a80a8010283a" xlink:title="Json::BuiltStyledStreamWriter\l::writeCommentBeforeValue">
<polygon fill="none" stroke="black" points="389.5,-377 389.5,-407 538.5,-407 538.5,-377 389.5,-377"/>
<text text-anchor="start" x="397.5" y="-395" font-family="Helvetica,sans-Serif" font-size="10.00">Json::BuiltStyledStreamWriter</text>
<text text-anchor="middle" x="464" y="-384" font-family="Helvetica,sans-Serif" font-size="10.00">::writeCommentBeforeValue</text>
</a>
</g>
</g>
<!-- Node129&#45;&gt;Node147 -->
<g id="edge33" class="edge"><title>Node129&#45;&gt;Node147</title>
<path fill="none" stroke="midnightblue" d="M136.604,-363.021C152.295,-366.429 169.206,-369.713 185,-372 249.807,-381.384 323.782,-386.435 379.122,-389.113"/>
<polygon fill="midnightblue" stroke="midnightblue" points="379.08,-392.614 389.232,-389.586 379.407,-385.622 379.08,-392.614"/>
</g>
<!-- Node148 -->
<g id="node20" class="node"><title>Node148</title>
<g id="a_node20"><a xlink:href="$struct_json_1_1_built_styled_stream_writer.html#a89625b134fce0255263ca40e6125742b" xlink:title="Json::BuiltStyledStreamWriter\l::writeCommentAfterValueOnSameLine">
<polygon fill="none" stroke="black" points="370,-289 370,-319 558,-319 558,-289 370,-289"/>
<text text-anchor="start" x="378" y="-307" font-family="Helvetica,sans-Serif" font-size="10.00">Json::BuiltStyledStreamWriter</text>
<text text-anchor="middle" x="464" y="-296" font-family="Helvetica,sans-Serif" font-size="10.00">::writeCommentAfterValueOnSameLine</text>
</a>
</g>
</g>
<!-- Node129&#45;&gt;Node148 -->
<g id="edge34" class="edge"><title>Node129&#45;&gt;Node148</title>
<path fill="none" stroke="midnightblue" d="M133.429,-332.999C149.987,-329.196 168.12,-325.488 185,-323 242.551,-314.517 307.374,-309.811 359.94,-307.205"/>
<polygon fill="midnightblue" stroke="midnightblue" points="360.123,-310.701 369.945,-306.727 359.789,-303.709 360.123,-310.701"/>
</g>
<!-- Node149 -->
<g id="node21" class="node"><title>Node149</title>
<g id="a_node21"><a xlink:href="$struct_json_1_1_built_styled_stream_writer.html#a0da6c6f603e00c8c6e38af553edd8c55" xlink:title="Json::BuiltStyledStreamWriter\l::unindent">
<polygon fill="none" stroke="black" points="389.5,-191 389.5,-221 538.5,-221 538.5,-191 389.5,-191"/>
<text text-anchor="start" x="397.5" y="-209" font-family="Helvetica,sans-Serif" font-size="10.00">Json::BuiltStyledStreamWriter</text>
<text text-anchor="middle" x="464" y="-198" font-family="Helvetica,sans-Serif" font-size="10.00">::unindent</text>
</a>
</g>
</g>
<!-- Node129&#45;&gt;Node149 -->
<g id="edge35" class="edge"><title>Node129&#45;&gt;Node149</title>
<path fill="none" stroke="midnightblue" d="M92.3794,-332.703C112.828,-314.989 149.025,-286.178 185,-270 247.105,-242.071 322.691,-225.681 379.362,-216.491"/>
<polygon fill="midnightblue" stroke="midnightblue" points="380.027,-219.93 389.359,-214.913 378.935,-213.016 380.027,-219.93"/>
</g>
<!-- Node132 -->
<g id="node4" class="node"><title>Node132</title>
<g id="a_node4"><a xlink:href="$namespace_json.html#ac1ffd21a9e55122014353c773ccc496e" xlink:title="Json::uintToString">
<polygon fill="none" stroke="black" points="626,-152.5 626,-171.5 722,-171.5 722,-152.5 626,-152.5"/>
<text text-anchor="middle" x="674" y="-159.5" font-family="Helvetica,sans-Serif" font-size="10.00">Json::uintToString</text>
</a>
</g>
</g>
<!-- Node131&#45;&gt;Node132 -->
<g id="edge3" class="edge"><title>Node131&#45;&gt;Node132</title>
<path fill="none" stroke="midnightblue" d="M516.149,-162C546.301,-162 584.524,-162 615.689,-162"/>
<polygon fill="midnightblue" stroke="midnightblue" points="615.966,-165.5 625.966,-162 615.966,-158.5 615.966,-165.5"/>
</g>
<!-- Node133&#45;&gt;Node131 -->
<g id="edge9" class="edge"><title>Node133&#45;&gt;Node131</title>
<path fill="none" stroke="midnightblue" d="M291.084,-114.576C312.991,-121.347 343.23,-130.515 370,-138 384.483,-142.049 400.304,-146.224 414.722,-149.934"/>
<polygon fill="midnightblue" stroke="midnightblue" points="413.891,-153.334 424.447,-152.42 415.626,-146.552 413.891,-153.334"/>
</g>
<!-- Node134 -->
<g id="node6" class="node"><title>Node134</title>
<g id="a_node6"><a xlink:href="$namespace_json.html#a7492156d0c7d2dd2f672acacfb240320" xlink:title="Json::strnpbrk">
<polygon fill="none" stroke="black" points="424.5,-0.5 424.5,-19.5 503.5,-19.5 503.5,-0.5 424.5,-0.5"/>
<text text-anchor="middle" x="464" y="-7.5" font-family="Helvetica,sans-Serif" font-size="10.00">Json::strnpbrk</text>
</a>
</g>
</g>
<!-- Node133&#45;&gt;Node134 -->
<g id="edge5" class="edge"><title>Node133&#45;&gt;Node134</title>
<path fill="none" stroke="midnightblue" d="M272.555,-95.2893C291.962,-80.1099 331.832,-50.7666 370,-34 383.893,-27.8972 399.66,-23.1005 414.213,-19.4525"/>
<polygon fill="midnightblue" stroke="midnightblue" points="415.14,-22.8299 424.057,-17.1086 413.518,-16.0203 415.14,-22.8299"/>
</g>
<!-- Node135 -->
<g id="node7" class="node"><title>Node135</title>
<g id="a_node7"><a xlink:href="$namespace_json.html#ae8a357381f264cf28f46449e79ab1dea" xlink:title="Json::containsControlCharacter0">
<polygon fill="none" stroke="black" points="594,-0.5 594,-19.5 754,-19.5 754,-0.5 594,-0.5"/>
<text text-anchor="middle" x="674" y="-7.5" font-family="Helvetica,sans-Serif" font-size="10.00">Json::containsControlCharacter0</text>
</a>
</g>
</g>
<!-- Node133&#45;&gt;Node135 -->
<g id="edge6" class="edge"><title>Node133&#45;&gt;Node135</title>
<path fill="none" stroke="midnightblue" d="M284.965,-95.3392C306.946,-86.942 340.247,-74.9145 370,-67 413.75,-55.3621 531.976,-34.2173 607.153,-21.2105"/>
<polygon fill="midnightblue" stroke="midnightblue" points="607.75,-24.6594 617.008,-19.5094 606.559,-17.7615 607.75,-24.6594"/>
</g>
<!-- Node136 -->
<g id="node8" class="node"><title>Node136</title>
<g id="a_node8"><a xlink:href="$namespace_json.html#a0381e631737f51331065a388f4f59197" xlink:title="Returns true if ch is a control character (in range [1,31]). ">
<polygon fill="none" stroke="black" points="802,-57.5 802,-76.5 927,-76.5 927,-57.5 802,-57.5"/>
<text text-anchor="middle" x="864.5" y="-64.5" font-family="Helvetica,sans-Serif" font-size="10.00">Json::isControlCharacter</text>
</a>
</g>
</g>
<!-- Node133&#45;&gt;Node136 -->
<g id="edge8" class="edge"><title>Node133&#45;&gt;Node136</title>
<path fill="none" stroke="midnightblue" d="M331.205,-107.763C427.401,-110.407 604.651,-111.307 754,-90 773.887,-87.1628 795.576,-82.8646 814.365,-78.7488"/>
<polygon fill="midnightblue" stroke="midnightblue" points="815.19,-82.1509 824.187,-76.5568 813.665,-75.3189 815.19,-82.1509"/>
</g>
<!-- Node137 -->
<g id="node9" class="node"><title>Node137</title>
<g id="a_node9"><a xlink:href="$namespace_json.html#aa0c8235a4a5c6599da5d3332743db8ac" xlink:title="Json::valueToQuotedString">
<polygon fill="none" stroke="black" points="396.5,-76.5 396.5,-95.5 531.5,-95.5 531.5,-76.5 396.5,-76.5"/>
<text text-anchor="middle" x="464" y="-83.5" font-family="Helvetica,sans-Serif" font-size="10.00">Json::valueToQuotedString</text>
</a>
</g>
</g>
<!-- Node133&#45;&gt;Node137 -->
<g id="edge10" class="edge"><title>Node133&#45;&gt;Node137</title>
<path fill="none" stroke="midnightblue" d="M331.04,-98.3814C348.954,-96.7006 368.284,-94.887 386.479,-93.1798"/>
<polygon fill="midnightblue" stroke="midnightblue" points="386.825,-96.6628 396.454,-92.2438 386.171,-89.6934 386.825,-96.6628"/>
</g>
<!-- Node135&#45;&gt;Node136 -->
<g id="edge7" class="edge"><title>Node135&#45;&gt;Node136</title>
<path fill="none" stroke="midnightblue" d="M718.253,-19.5941C729.918,-22.4012 742.493,-25.6285 754,-29 779.173,-36.3757 807.101,-46.0928 828.452,-53.8544"/>
<polygon fill="midnightblue" stroke="midnightblue" points="827.471,-57.2223 838.064,-57.3779 829.88,-50.6499 827.471,-57.2223"/>
</g>
<!-- Node137&#45;&gt;Node136 -->
<g id="edge13" class="edge"><title>Node137&#45;&gt;Node136</title>
<path fill="none" stroke="midnightblue" d="M531.7,-82.8198C603.649,-79.3894 717.8,-73.9468 791.68,-70.4243"/>
<polygon fill="midnightblue" stroke="midnightblue" points="792.007,-73.9128 801.828,-69.9404 791.673,-66.9207 792.007,-73.9128"/>
</g>
<!-- Node138 -->
<g id="node10" class="node"><title>Node138</title>
<g id="a_node10"><a xlink:href="$namespace_json.html#aa11b210ff98a4f4dd4e2df19260f8c3a" xlink:title="Json::containsControlCharacter">
<polygon fill="none" stroke="black" points="596.5,-38.5 596.5,-57.5 751.5,-57.5 751.5,-38.5 596.5,-38.5"/>
<text text-anchor="middle" x="674" y="-45.5" font-family="Helvetica,sans-Serif" font-size="10.00">Json::containsControlCharacter</text>
</a>
</g>
</g>
<!-- Node137&#45;&gt;Node138 -->
<g id="edge11" class="edge"><title>Node137&#45;&gt;Node138</title>
<path fill="none" stroke="midnightblue" d="M517.219,-76.46C545.654,-71.2652 581.022,-64.8037 610.868,-59.3511"/>
<polygon fill="midnightblue" stroke="midnightblue" points="611.552,-62.7842 620.76,-57.5439 610.294,-55.8981 611.552,-62.7842"/>
</g>
<!-- Node138&#45;&gt;Node136 -->
<g id="edge12" class="edge"><title>Node138&#45;&gt;Node136</title>
<path fill="none" stroke="midnightblue" d="M751.67,-55.728C764.86,-57.0575 778.527,-58.4351 791.586,-59.7514"/>
<polygon fill="midnightblue" stroke="midnightblue" points="791.608,-63.2712 801.908,-60.7918 792.31,-56.3065 791.608,-63.2712"/>
</g>
<!-- Node139&#45;&gt;Node129 -->
<g id="edge27" class="edge"><title>Node139&#45;&gt;Node129</title>
<path fill="none" stroke="midnightblue" d="M184.711,-354.636C176.376,-354.745 167.838,-354.775 159.387,-354.729"/>
<polygon fill="midnightblue" stroke="midnightblue" points="159.174,-351.227 149.142,-354.634 159.109,-358.227 159.174,-351.227"/>
</g>
<!-- Node139&#45;&gt;Node130 -->
<g id="edge15" class="edge"><title>Node139&#45;&gt;Node130</title>
<path fill="none" stroke="midnightblue" d="M266.026,-363.176C278.855,-396.199 313.908,-474.829 370,-515 373.097,-517.218 376.382,-519.231 379.796,-521.058"/>
<polygon fill="midnightblue" stroke="midnightblue" points="378.562,-524.347 389.097,-525.474 381.564,-518.024 378.562,-524.347"/>
</g>
<!-- Node140 -->
<g id="node12" class="node"><title>Node140</title>
<g id="a_node12"><a xlink:href="$struct_json_1_1_built_styled_stream_writer.html#af423fd33b3d580506ea3efc53b05a077" xlink:title="Json::BuiltStyledStreamWriter\l::isMultineArray">
<polygon fill="none" stroke="black" points="389.5,-475 389.5,-505 538.5,-505 538.5,-475 389.5,-475"/>
<text text-anchor="start" x="397.5" y="-493" font-family="Helvetica,sans-Serif" font-size="10.00">Json::BuiltStyledStreamWriter</text>
<text text-anchor="middle" x="464" y="-482" font-family="Helvetica,sans-Serif" font-size="10.00">::isMultineArray</text>
</a>
</g>
</g>
<!-- Node139&#45;&gt;Node140 -->
<g id="edge16" class="edge"><title>Node139&#45;&gt;Node140</title>
<path fill="none" stroke="midnightblue" d="M270.293,-363.263C287.375,-388.609 325.111,-439.236 370,-466 373.196,-467.905 376.541,-469.661 379.985,-471.278"/>
<polygon fill="midnightblue" stroke="midnightblue" points="378.727,-474.547 389.299,-475.245 381.47,-468.106 378.727,-474.547"/>
</g>
<!-- Node139&#45;&gt;Node144 -->
<g id="edge21" class="edge"><title>Node139&#45;&gt;Node144</title>
<path fill="none" stroke="midnightblue" d="M280.89,-363.221C302.158,-378.466 336.946,-401.666 370,-416 375.637,-418.444 381.572,-420.702 387.604,-422.777"/>
<polygon fill="midnightblue" stroke="midnightblue" points="386.54,-426.111 397.132,-425.886 388.711,-419.456 386.54,-426.111"/>
</g>
<!-- Node145 -->
<g id="node17" class="node"><title>Node145</title>
<g id="a_node17"><a xlink:href="$struct_json_1_1_built_styled_stream_writer.html#a2b38a3714d415c4bd3b4812897130f3d" xlink:title="Json::BuiltStyledStreamWriter\l::writeIndent">
<polygon fill="none" stroke="black" points="599.5,-355 599.5,-385 748.5,-385 748.5,-355 599.5,-355"/>
<text text-anchor="start" x="607.5" y="-373" font-family="Helvetica,sans-Serif" font-size="10.00">Json::BuiltStyledStreamWriter</text>
<text text-anchor="middle" x="674" y="-362" font-family="Helvetica,sans-Serif" font-size="10.00">::writeIndent</text>
</a>
</g>
</g>
<!-- Node139&#45;&gt;Node145 -->
<g id="edge26" class="edge"><title>Node139&#45;&gt;Node145</title>
<path fill="none" stroke="midnightblue" d="M334.247,-351.933C405.736,-355.746 514.055,-361.523 588.87,-365.513"/>
<polygon fill="midnightblue" stroke="midnightblue" points="589.025,-369.026 599.197,-366.064 589.398,-362.036 589.025,-369.026"/>
</g>
<!-- Node139&#45;&gt;Node146 -->
<g id="edge23" class="edge"><title>Node139&#45;&gt;Node146</title>
<path fill="none" stroke="midnightblue" d="M280.43,-332.757C301.607,-317.224 336.578,-293.424 370,-279 374.758,-276.947 379.731,-275.038 384.798,-273.269"/>
<polygon fill="midnightblue" stroke="midnightblue" points="386.216,-276.487 394.623,-270.04 384.03,-269.838 386.216,-276.487"/>
</g>
<!-- Node139&#45;&gt;Node147 -->
<g id="edge24" class="edge"><title>Node139&#45;&gt;Node147</title>
<path fill="none" stroke="midnightblue" d="M329.623,-363.019C347.12,-366.821 366.046,-370.934 383.992,-374.833"/>
<polygon fill="midnightblue" stroke="midnightblue" points="383.33,-378.271 393.845,-376.974 384.817,-371.43 383.33,-378.271"/>
</g>
<!-- Node139&#45;&gt;Node148 -->
<g id="edge28" class="edge"><title>Node139&#45;&gt;Node148</title>
<path fill="none" stroke="midnightblue" d="M329.623,-332.981C347.12,-329.179 366.046,-325.066 383.992,-321.167"/>
<polygon fill="midnightblue" stroke="midnightblue" points="384.817,-324.57 393.845,-319.026 383.33,-317.729 384.817,-324.57"/>
</g>
<!-- Node139&#45;&gt;Node149 -->
<g id="edge30" class="edge"><title>Node139&#45;&gt;Node149</title>
<path fill="none" stroke="midnightblue" d="M270.293,-332.737C287.375,-307.391 325.111,-256.764 370,-230 373.196,-228.095 376.541,-226.339 379.985,-224.722"/>
<polygon fill="midnightblue" stroke="midnightblue" points="381.47,-227.894 389.299,-220.755 378.727,-221.453 381.47,-227.894"/>
</g>
<!-- Node140&#45;&gt;Node129 -->
<g id="edge20" class="edge"><title>Node140&#45;&gt;Node129</title>
<path fill="none" stroke="midnightblue" d="M389.218,-479.736C331.78,-469.986 251,-452.357 185,-423 153.961,-409.194 122.356,-386.415 101.131,-369.578"/>
<polygon fill="midnightblue" stroke="midnightblue" points="103.234,-366.777 93.2533,-363.221 98.8382,-372.225 103.234,-366.777"/>
</g>
<!-- Node141 -->
<g id="node13" class="node"><title>Node141</title>
<g id="a_node13"><a xlink:href="$struct_json_1_1_built_styled_stream_writer.html#a457c2f3c1e8c952caeb60e52477d0c9a" xlink:title="Json::BuiltStyledStreamWriter\l::hasCommentForValue">
<polygon fill="none" stroke="black" points="599.5,-475 599.5,-505 748.5,-505 748.5,-475 599.5,-475"/>
<text text-anchor="start" x="607.5" y="-493" font-family="Helvetica,sans-Serif" font-size="10.00">Json::BuiltStyledStreamWriter</text>
<text text-anchor="middle" x="674" y="-482" font-family="Helvetica,sans-Serif" font-size="10.00">::hasCommentForValue</text>
</a>
</g>
</g>
<!-- Node140&#45;&gt;Node141 -->
<g id="edge17" class="edge"><title>Node140&#45;&gt;Node141</title>
<path fill="none" stroke="midnightblue" d="M538.626,-490C554.981,-490 572.436,-490 589.166,-490"/>
<polygon fill="midnightblue" stroke="midnightblue" points="589.473,-493.5 599.473,-490 589.473,-486.5 589.473,-493.5"/>
</g>
<!-- Node142 -->
<g id="node14" class="node"><title>Node142</title>
<g id="a_node14"><a xlink:href="$namespace_json.html#a97f039a107b3f6cf1c3edee50e978f76" xlink:title="Json::throwRuntimeError">
<polygon fill="none" stroke="black" points="802,-458.5 802,-477.5 927,-477.5 927,-458.5 802,-458.5"/>
<text text-anchor="middle" x="864.5" y="-465.5" font-family="Helvetica,sans-Serif" font-size="10.00">Json::throwRuntimeError</text>
</a>
</g>
</g>
<!-- Node141&#45;&gt;Node142 -->
<g id="edge18" class="edge"><title>Node141&#45;&gt;Node142</title>
<path fill="none" stroke="midnightblue" d="M748.689,-481.4C762.814,-479.751 777.588,-478.027 791.654,-476.385"/>
<polygon fill="midnightblue" stroke="midnightblue" points="792.226,-479.842 801.753,-475.207 791.414,-472.89 792.226,-479.842"/>
</g>
<!-- Node143 -->
<g id="node15" class="node"><title>Node143</title>
<g id="a_node15"><a xlink:href="$struct_json_1_1_built_styled_stream_writer.html#ab0c2e665c86b22f8fafb0e52c8069954" xlink:title="Json::BuiltStyledStreamWriter\l::BuiltStyledStreamWriter">
<polygon fill="none" stroke="black" points="790,-497 790,-527 939,-527 939,-497 790,-497"/>
<text text-anchor="start" x="798" y="-515" font-family="Helvetica,sans-Serif" font-size="10.00">Json::BuiltStyledStreamWriter</text>
<text text-anchor="middle" x="864.5" y="-504" font-family="Helvetica,sans-Serif" font-size="10.00">::BuiltStyledStreamWriter</text>
</a>
</g>
</g>
<!-- Node141&#45;&gt;Node143 -->
<g id="edge19" class="edge"><title>Node141&#45;&gt;Node143</title>
<path fill="none" stroke="midnightblue" d="M748.689,-498.6C758.834,-499.784 769.313,-501.007 779.625,-502.211"/>
<polygon fill="midnightblue" stroke="midnightblue" points="779.524,-505.723 789.862,-503.406 780.335,-498.77 779.524,-505.723"/>
</g>
<!-- Node144&#45;&gt;Node145 -->
<g id="edge22" class="edge"><title>Node144&#45;&gt;Node145</title>
<path fill="none" stroke="midnightblue" d="M525.343,-425.891C536.279,-422.838 547.531,-419.487 558,-416 581.795,-408.073 607.78,-397.821 629.019,-389.007"/>
<polygon fill="midnightblue" stroke="midnightblue" points="630.546,-392.163 638.419,-385.073 627.843,-385.705 630.546,-392.163"/>
</g>
<!-- Node147&#45;&gt;Node145 -->
<g id="edge25" class="edge"><title>Node147&#45;&gt;Node145</title>
<path fill="none" stroke="midnightblue" d="M538.626,-384.213C554.981,-382.483 572.436,-380.637 589.166,-378.867"/>
<polygon fill="midnightblue" stroke="midnightblue" points="589.897,-382.309 599.473,-377.777 589.161,-375.348 589.897,-382.309"/>
</g>
<!-- Node148&#45;&gt;Node145 -->
<g id="edge29" class="edge"><title>Node148&#45;&gt;Node145</title>
<path fill="none" stroke="midnightblue" d="M512.459,-319.059C543.101,-328.782 583.151,-341.49 615.584,-351.781"/>
<polygon fill="midnightblue" stroke="midnightblue" points="614.795,-355.203 625.386,-354.892 616.912,-348.531 614.795,-355.203"/>
</g>
</g>
</svg>
