<?xml version="1.0" encoding="UTF-8" standalone="no"?>
<!DOCTYPE svg PUBLIC "-//W3C//DTD SVG 1.1//EN"
 "http://www.w3.org/Graphics/SVG/1.1/DTD/svg11.dtd">
<!-- Generated by graphviz version 2.38.0 (20140413.2041)
 -->
<!-- Title: Json::BuiltStyledStreamWriter::write Pages: 1 -->
<svg width="1132pt" height="603pt"
 viewBox="0.00 0.00 1132.00 603.48" xmlns="http://www.w3.org/2000/svg" xmlns:xlink="http://www.w3.org/1999/xlink">
<g id="graph0" class="graph" transform="scale(1 1) rotate(0) translate(4 599.484)">
<title>Json::BuiltStyledStreamWriter::write</title>
<!-- Node58 -->
<g id="node1" class="node"><title>Node58</title>
<polygon fill="#bfbfbf" stroke="black" points="0,-43.4838 0,-73.4838 149,-73.4838 149,-43.4838 0,-43.4838"/>
<text text-anchor="start" x="8" y="-61.4838" font-family="Helvetica,sans-Serif" font-size="10.00">Json::BuiltStyledStreamWriter</text>
<text text-anchor="middle" x="74.5" y="-50.4838" font-family="Helvetica,sans-Serif" font-size="10.00">::write</text>
</g>
<!-- Node59 -->
<g id="node2" class="node"><title>Node59</title>
<g id="a_node2"><a xlink:href="$struct_json_1_1_built_styled_stream_writer.html#a32c4afca4e08fba79bb0a80a8010283a" xlink:title="Json::BuiltStyledStreamWriter\l::writeCommentBeforeValue">
<polygon fill="none" stroke="black" points="574.5,-90.4838 574.5,-120.484 723.5,-120.484 723.5,-90.4838 574.5,-90.4838"/>
<text text-anchor="start" x="582.5" y="-108.484" font-family="Helvetica,sans-Serif" font-size="10.00">Json::BuiltStyledStreamWriter</text>
<text text-anchor="middle" x="649" y="-97.4838" font-family="Helvetica,sans-Serif" font-size="10.00">::writeCommentBeforeValue</text>
</a>
</g>
</g>
<!-- Node58&#45;&gt;Node59 -->
<g id="edge1" class="edge"><title>Node58&#45;&gt;Node59</title>
<path fill="none" stroke="midnightblue" d="M149.062,-68.4634C161.06,-69.9257 173.367,-71.3264 185,-72.4838 317.17,-85.6327 471.073,-95.5294 563.936,-100.911"/>
<polygon fill="midnightblue" stroke="midnightblue" points="563.933,-104.417 574.118,-101.497 564.336,-97.4283 563.933,-104.417"/>
</g>
<!-- Node60 -->
<g id="node3" class="node"><title>Node60</title>
<g id="a_node3"><a xlink:href="$struct_json_1_1_built_styled_stream_writer.html#a2b38a3714d415c4bd3b4812897130f3d" xlink:title="Json::BuiltStyledStreamWriter\l::writeIndent">
<polygon fill="none" stroke="black" points="784.5,-90.4838 784.5,-120.484 933.5,-120.484 933.5,-90.4838 784.5,-90.4838"/>
<text text-anchor="start" x="792.5" y="-108.484" font-family="Helvetica,sans-Serif" font-size="10.00">Json::BuiltStyledStreamWriter</text>
<text text-anchor="middle" x="859" y="-97.4838" font-family="Helvetica,sans-Serif" font-size="10.00">::writeIndent</text>
</a>
</g>
</g>
<!-- Node58&#45;&gt;Node60 -->
<g id="edge3" class="edge"><title>Node58&#45;&gt;Node60</title>
<path fill="none" stroke="midnightblue" d="M135.547,-43.439C254.405,-16.3789 526.853,32.0507 743,-31.4838 777.538,-41.6359 811.507,-65.7224 833.464,-83.6751"/>
<polygon fill="midnightblue" stroke="midnightblue" points="831.354,-86.4737 841.267,-90.2135 835.85,-81.1083 831.354,-86.4737"/>
</g>
<!-- Node61 -->
<g id="node4" class="node"><title>Node61</title>
<g id="a_node4"><a xlink:href="$struct_json_1_1_built_styled_stream_writer.html#a7c9da861861e570a51b45f270c9ff150" xlink:title="Json::BuiltStyledStreamWriter\l::writeValue">
<polygon fill="none" stroke="black" points="185,-239.484 185,-269.484 334,-269.484 334,-239.484 185,-239.484"/>
<text text-anchor="start" x="193" y="-257.484" font-family="Helvetica,sans-Serif" font-size="10.00">Json::BuiltStyledStreamWriter</text>
<text text-anchor="middle" x="259.5" y="-246.484" font-family="Helvetica,sans-Serif" font-size="10.00">::writeValue</text>
</a>
</g>
</g>
<!-- Node58&#45;&gt;Node61 -->
<g id="edge4" class="edge"><title>Node58&#45;&gt;Node61</title>
<path fill="none" stroke="midnightblue" d="M89.5558,-73.5381C121.491,-107.741 199.656,-191.459 237.41,-231.895"/>
<polygon fill="midnightblue" stroke="midnightblue" points="235.013,-234.457 244.396,-239.378 240.13,-229.68 235.013,-234.457"/>
</g>
<!-- Node78 -->
<g id="node21" class="node"><title>Node78</title>
<g id="a_node21"><a xlink:href="$struct_json_1_1_built_styled_stream_writer.html#a89625b134fce0255263ca40e6125742b" xlink:title="Json::BuiltStyledStreamWriter\l::writeCommentAfterValueOnSameLine">
<polygon fill="none" stroke="black" points="555,-41.4838 555,-71.4838 743,-71.4838 743,-41.4838 555,-41.4838"/>
<text text-anchor="start" x="563" y="-59.4838" font-family="Helvetica,sans-Serif" font-size="10.00">Json::BuiltStyledStreamWriter</text>
<text text-anchor="middle" x="649" y="-48.4838" font-family="Helvetica,sans-Serif" font-size="10.00">::writeCommentAfterValueOnSameLine</text>
</a>
</g>
</g>
<!-- Node58&#45;&gt;Node78 -->
<g id="edge39" class="edge"><title>Node58&#45;&gt;Node78</title>
<path fill="none" stroke="midnightblue" d="M149.172,-58.2264C249.723,-57.8751 430.445,-57.2438 544.546,-56.8452"/>
<polygon fill="midnightblue" stroke="midnightblue" points="544.704,-60.3447 554.691,-56.8097 544.679,-53.3448 544.704,-60.3447"/>
</g>
<!-- Node59&#45;&gt;Node60 -->
<g id="edge2" class="edge"><title>Node59&#45;&gt;Node60</title>
<path fill="none" stroke="midnightblue" d="M723.626,-105.484C739.981,-105.484 757.436,-105.484 774.166,-105.484"/>
<polygon fill="midnightblue" stroke="midnightblue" points="774.473,-108.984 784.473,-105.484 774.473,-101.984 774.473,-108.984"/>
</g>
<!-- Node61&#45;&gt;Node59 -->
<g id="edge36" class="edge"><title>Node61&#45;&gt;Node59</title>
<path fill="none" stroke="midnightblue" d="M276.146,-239.194C296.219,-220.441 332.893,-188.991 370,-171.484 431.79,-142.331 507.561,-125.443 564.384,-116.061"/>
<polygon fill="midnightblue" stroke="midnightblue" points="565.088,-119.493 574.407,-114.451 563.978,-112.581 565.088,-119.493"/>
</g>
<!-- Node62 -->
<g id="node5" class="node"><title>Node62</title>
<g id="a_node5"><a xlink:href="$struct_json_1_1_built_styled_stream_writer.html#a53de0fe57c883d621c7255e49248651e" xlink:title="Json::BuiltStyledStreamWriter\l::pushValue">
<polygon fill="none" stroke="black" points="574.5,-188.484 574.5,-218.484 723.5,-218.484 723.5,-188.484 574.5,-188.484"/>
<text text-anchor="start" x="582.5" y="-206.484" font-family="Helvetica,sans-Serif" font-size="10.00">Json::BuiltStyledStreamWriter</text>
<text text-anchor="middle" x="649" y="-195.484" font-family="Helvetica,sans-Serif" font-size="10.00">::pushValue</text>
</a>
</g>
</g>
<!-- Node61&#45;&gt;Node62 -->
<g id="edge5" class="edge"><title>Node61&#45;&gt;Node62</title>
<path fill="none" stroke="midnightblue" d="M319.894,-239.431C336.064,-235.743 353.634,-232.106 370,-229.484 434.773,-219.107 508.75,-212.435 564.1,-208.451"/>
<polygon fill="midnightblue" stroke="midnightblue" points="564.482,-211.933 574.211,-207.738 563.99,-204.95 564.482,-211.933"/>
</g>
<!-- Node63 -->
<g id="node6" class="node"><title>Node63</title>
<g id="a_node6"><a xlink:href="$namespace_json.html#abd9c650f70d9434f98f9025e2e2faf2d" xlink:title="Json::valueToString">
<polygon fill="none" stroke="black" points="597,-575.984 597,-594.984 701,-594.984 701,-575.984 597,-575.984"/>
<text text-anchor="middle" x="649" y="-582.984" font-family="Helvetica,sans-Serif" font-size="10.00">Json::valueToString</text>
</a>
</g>
</g>
<!-- Node61&#45;&gt;Node63 -->
<g id="edge6" class="edge"><title>Node61&#45;&gt;Node63</title>
<path fill="none" stroke="midnightblue" d="M262.465,-269.766C268.97,-313.926 293.907,-442.799 370,-509.484 430.686,-562.667 525.239,-579.004 586.904,-583.813"/>
<polygon fill="midnightblue" stroke="midnightblue" points="586.665,-587.304 596.886,-584.513 587.155,-580.321 586.665,-587.304"/>
</g>
<!-- Node65 -->
<g id="node8" class="node"><title>Node65</title>
<g id="a_node8"><a xlink:href="$namespace_json.html#a20d52b5a457ee5d833645d119451c2cd" xlink:title="Json::valueToQuotedStringN">
<polygon fill="none" stroke="black" points="373,-480.984 373,-499.984 516,-499.984 516,-480.984 373,-480.984"/>
<text text-anchor="middle" x="444.5" y="-487.984" font-family="Helvetica,sans-Serif" font-size="10.00">Json::valueToQuotedStringN</text>
</a>
</g>
</g>
<!-- Node61&#45;&gt;Node65 -->
<g id="edge8" class="edge"><title>Node61&#45;&gt;Node65</title>
<path fill="none" stroke="midnightblue" d="M272.295,-269.849C292.326,-295.928 334.296,-350.503 370,-396.484 390.73,-423.18 414.892,-454.031 429.691,-472.896"/>
<polygon fill="midnightblue" stroke="midnightblue" points="427.039,-475.186 435.966,-480.893 432.546,-470.865 427.039,-475.186"/>
</g>
<!-- Node71 -->
<g id="node14" class="node"><title>Node71</title>
<g id="a_node14"><a xlink:href="$struct_json_1_1_built_styled_stream_writer.html#acd20e9274bbcf7876ef3af2e7d23a31f" xlink:title="Json::BuiltStyledStreamWriter\l::writeArrayValue">
<polygon fill="none" stroke="black" points="370,-239.484 370,-269.484 519,-269.484 519,-239.484 370,-239.484"/>
<text text-anchor="start" x="378" y="-257.484" font-family="Helvetica,sans-Serif" font-size="10.00">Json::BuiltStyledStreamWriter</text>
<text text-anchor="middle" x="444.5" y="-246.484" font-family="Helvetica,sans-Serif" font-size="10.00">::writeArrayValue</text>
</a>
</g>
</g>
<!-- Node61&#45;&gt;Node71 -->
<g id="edge18" class="edge"><title>Node61&#45;&gt;Node71</title>
<path fill="none" stroke="midnightblue" d="M334.142,-247.849C342.474,-247.74 351.011,-247.708 359.463,-247.754"/>
<polygon fill="midnightblue" stroke="midnightblue" points="359.679,-251.256 369.711,-247.847 359.743,-244.256 359.679,-251.256"/>
</g>
<!-- Node76 -->
<g id="node19" class="node"><title>Node76</title>
<g id="a_node19"><a xlink:href="$struct_json_1_1_built_styled_stream_writer.html#a764c6d530b5bd660c4a7d1ad4eff6b8d" xlink:title="Json::BuiltStyledStreamWriter\l::writeWithIndent">
<polygon fill="none" stroke="black" points="574.5,-139.484 574.5,-169.484 723.5,-169.484 723.5,-139.484 574.5,-139.484"/>
<text text-anchor="start" x="582.5" y="-157.484" font-family="Helvetica,sans-Serif" font-size="10.00">Json::BuiltStyledStreamWriter</text>
<text text-anchor="middle" x="649" y="-146.484" font-family="Helvetica,sans-Serif" font-size="10.00">::writeWithIndent</text>
</a>
</g>
</g>
<!-- Node61&#45;&gt;Node76 -->
<g id="edge34" class="edge"><title>Node61&#45;&gt;Node76</title>
<path fill="none" stroke="midnightblue" d="M291.492,-239.443C313.08,-229.472 342.772,-216.751 370,-208.484 433.997,-189.053 508.478,-175.024 564.23,-166.144"/>
<polygon fill="midnightblue" stroke="midnightblue" points="565.08,-169.553 574.416,-164.545 563.994,-162.638 565.08,-169.553"/>
</g>
<!-- Node77 -->
<g id="node20" class="node"><title>Node77</title>
<g id="a_node20"><a xlink:href="$struct_json_1_1_built_styled_stream_writer.html#a73e09692a2cfbd6e67836b060dc34a9f" xlink:title="Json::BuiltStyledStreamWriter\l::indent">
<polygon fill="none" stroke="black" points="574.5,-325.484 574.5,-355.484 723.5,-355.484 723.5,-325.484 574.5,-325.484"/>
<text text-anchor="start" x="582.5" y="-343.484" font-family="Helvetica,sans-Serif" font-size="10.00">Json::BuiltStyledStreamWriter</text>
<text text-anchor="middle" x="649" y="-332.484" font-family="Helvetica,sans-Serif" font-size="10.00">::indent</text>
</a>
</g>
</g>
<!-- Node61&#45;&gt;Node77 -->
<g id="edge35" class="edge"><title>Node61&#45;&gt;Node77</title>
<path fill="none" stroke="midnightblue" d="M292.403,-269.596C313.893,-279.199 343.117,-291.159 370,-298.484 434.064,-315.939 508.541,-326.703 564.275,-332.958"/>
<polygon fill="midnightblue" stroke="midnightblue" points="564.135,-336.464 574.457,-334.074 564.898,-329.505 564.135,-336.464"/>
</g>
<!-- Node61&#45;&gt;Node78 -->
<g id="edge37" class="edge"><title>Node61&#45;&gt;Node78</title>
<path fill="none" stroke="midnightblue" d="M268.463,-239.384C284.016,-211.447 321.22,-151.785 370,-121.484 422.42,-88.9219 489.605,-72.6581 544.795,-64.5413"/>
<polygon fill="midnightblue" stroke="midnightblue" points="545.537,-67.9717 554.955,-63.1184 544.566,-61.0393 545.537,-67.9717"/>
</g>
<!-- Node79 -->
<g id="node22" class="node"><title>Node79</title>
<g id="a_node22"><a xlink:href="$struct_json_1_1_built_styled_stream_writer.html#a0da6c6f603e00c8c6e38af553edd8c55" xlink:title="Json::BuiltStyledStreamWriter\l::unindent">
<polygon fill="none" stroke="black" points="574.5,-276.484 574.5,-306.484 723.5,-306.484 723.5,-276.484 574.5,-276.484"/>
<text text-anchor="start" x="582.5" y="-294.484" font-family="Helvetica,sans-Serif" font-size="10.00">Json::BuiltStyledStreamWriter</text>
<text text-anchor="middle" x="649" y="-283.484" font-family="Helvetica,sans-Serif" font-size="10.00">::unindent</text>
</a>
</g>
</g>
<!-- Node61&#45;&gt;Node79 -->
<g id="edge38" class="edge"><title>Node61&#45;&gt;Node79</title>
<path fill="none" stroke="midnightblue" d="M320.42,-269.53C336.432,-273.025 353.793,-276.344 370,-278.484 434.823,-287.041 508.797,-290.184 564.133,-291.245"/>
<polygon fill="midnightblue" stroke="midnightblue" points="564.183,-294.747 574.242,-291.42 564.304,-287.748 564.183,-294.747"/>
</g>
<!-- Node64 -->
<g id="node7" class="node"><title>Node64</title>
<g id="a_node7"><a xlink:href="$namespace_json.html#ac1ffd21a9e55122014353c773ccc496e" xlink:title="Json::uintToString">
<polygon fill="none" stroke="black" points="811,-575.984 811,-594.984 907,-594.984 907,-575.984 811,-575.984"/>
<text text-anchor="middle" x="859" y="-582.984" font-family="Helvetica,sans-Serif" font-size="10.00">Json::uintToString</text>
</a>
</g>
</g>
<!-- Node63&#45;&gt;Node64 -->
<g id="edge7" class="edge"><title>Node63&#45;&gt;Node64</title>
<path fill="none" stroke="midnightblue" d="M701.149,-585.484C731.301,-585.484 769.524,-585.484 800.689,-585.484"/>
<polygon fill="midnightblue" stroke="midnightblue" points="800.966,-588.984 810.966,-585.484 800.966,-581.984 800.966,-588.984"/>
</g>
<!-- Node65&#45;&gt;Node63 -->
<g id="edge13" class="edge"><title>Node65&#45;&gt;Node63</title>
<path fill="none" stroke="midnightblue" d="M457.555,-500.194C476.962,-515.374 516.832,-544.717 555,-561.484 565.627,-566.152 577.351,-570.056 588.789,-573.266"/>
<polygon fill="midnightblue" stroke="midnightblue" points="588.17,-576.723 598.733,-575.911 589.969,-569.958 588.17,-576.723"/>
</g>
<!-- Node66 -->
<g id="node9" class="node"><title>Node66</title>
<g id="a_node9"><a xlink:href="$namespace_json.html#a7492156d0c7d2dd2f672acacfb240320" xlink:title="Json::strnpbrk">
<polygon fill="none" stroke="black" points="609.5,-423.984 609.5,-442.984 688.5,-442.984 688.5,-423.984 609.5,-423.984"/>
<text text-anchor="middle" x="649" y="-430.984" font-family="Helvetica,sans-Serif" font-size="10.00">Json::strnpbrk</text>
</a>
</g>
</g>
<!-- Node65&#45;&gt;Node66 -->
<g id="edge9" class="edge"><title>Node65&#45;&gt;Node66</title>
<path fill="none" stroke="midnightblue" d="M476.084,-480.908C497.991,-474.136 528.23,-464.969 555,-457.484 569.483,-453.434 585.304,-449.259 599.722,-445.55"/>
<polygon fill="midnightblue" stroke="midnightblue" points="600.626,-448.932 609.447,-443.064 598.891,-442.15 600.626,-448.932"/>
</g>
<!-- Node67 -->
<g id="node10" class="node"><title>Node67</title>
<g id="a_node10"><a xlink:href="$namespace_json.html#ae8a357381f264cf28f46449e79ab1dea" xlink:title="Json::containsControlCharacter0">
<polygon fill="none" stroke="black" points="779,-423.984 779,-442.984 939,-442.984 939,-423.984 779,-423.984"/>
<text text-anchor="middle" x="859" y="-430.984" font-family="Helvetica,sans-Serif" font-size="10.00">Json::containsControlCharacter0</text>
</a>
</g>
</g>
<!-- Node65&#45;&gt;Node67 -->
<g id="edge10" class="edge"><title>Node65&#45;&gt;Node67</title>
<path fill="none" stroke="midnightblue" d="M516.228,-482.19C576.568,-474.938 665.592,-463.818 743,-452.484 759.167,-450.117 776.575,-447.353 792.834,-444.678"/>
<polygon fill="midnightblue" stroke="midnightblue" points="793.494,-448.116 802.787,-443.028 792.35,-441.21 793.494,-448.116"/>
</g>
<!-- Node68 -->
<g id="node11" class="node"><title>Node68</title>
<g id="a_node11"><a xlink:href="$namespace_json.html#a0381e631737f51331065a388f4f59197" xlink:title="Returns true if ch is a control character (in range [1,31]). ">
<polygon fill="none" stroke="black" points="987,-473.984 987,-492.984 1112,-492.984 1112,-473.984 987,-473.984"/>
<text text-anchor="middle" x="1049.5" y="-480.984" font-family="Helvetica,sans-Serif" font-size="10.00">Json::isControlCharacter</text>
</a>
</g>
</g>
<!-- Node65&#45;&gt;Node68 -->
<g id="edge12" class="edge"><title>Node65&#45;&gt;Node68</title>
<path fill="none" stroke="midnightblue" d="M502.696,-499.989C508.289,-501.561 513.81,-503.381 519,-505.484 536.597,-512.613 536.775,-523.159 555,-528.484 719.858,-576.651 927.705,-522.329 1011.24,-496.073"/>
<polygon fill="midnightblue" stroke="midnightblue" points="1012.34,-499.396 1020.8,-493.019 1010.21,-492.728 1012.34,-499.396"/>
</g>
<!-- Node69 -->
<g id="node12" class="node"><title>Node69</title>
<g id="a_node12"><a xlink:href="$namespace_json.html#aa0c8235a4a5c6599da5d3332743db8ac" xlink:title="Json::valueToQuotedString">
<polygon fill="none" stroke="black" points="581.5,-499.984 581.5,-518.984 716.5,-518.984 716.5,-499.984 581.5,-499.984"/>
<text text-anchor="middle" x="649" y="-506.984" font-family="Helvetica,sans-Serif" font-size="10.00">Json::valueToQuotedString</text>
</a>
</g>
</g>
<!-- Node65&#45;&gt;Node69 -->
<g id="edge14" class="edge"><title>Node65&#45;&gt;Node69</title>
<path fill="none" stroke="midnightblue" d="M516.04,-497.102C533.954,-498.783 553.284,-500.597 571.479,-502.304"/>
<polygon fill="midnightblue" stroke="midnightblue" points="571.171,-505.79 581.454,-503.24 571.825,-498.821 571.171,-505.79"/>
</g>
<!-- Node67&#45;&gt;Node68 -->
<g id="edge11" class="edge"><title>Node67&#45;&gt;Node68</title>
<path fill="none" stroke="midnightblue" d="M901.08,-443.036C913.308,-445.967 926.718,-449.27 939,-452.484 961.238,-458.303 985.879,-465.236 1006.15,-471.068"/>
<polygon fill="midnightblue" stroke="midnightblue" points="1005.43,-474.505 1016.01,-473.919 1007.38,-467.78 1005.43,-474.505"/>
</g>
<!-- Node69&#45;&gt;Node68 -->
<g id="edge17" class="edge"><title>Node69&#45;&gt;Node68</title>
<path fill="none" stroke="midnightblue" d="M716.7,-505.132C788.649,-500.438 902.8,-492.99 976.68,-488.17"/>
<polygon fill="midnightblue" stroke="midnightblue" points="977.078,-491.651 986.828,-487.507 976.622,-484.666 977.078,-491.651"/>
</g>
<!-- Node70 -->
<g id="node13" class="node"><title>Node70</title>
<g id="a_node13"><a xlink:href="$namespace_json.html#aa11b210ff98a4f4dd4e2df19260f8c3a" xlink:title="Json::containsControlCharacter">
<polygon fill="none" stroke="black" points="781.5,-461.984 781.5,-480.984 936.5,-480.984 936.5,-461.984 781.5,-461.984"/>
<text text-anchor="middle" x="859" y="-468.984" font-family="Helvetica,sans-Serif" font-size="10.00">Json::containsControlCharacter</text>
</a>
</g>
</g>
<!-- Node69&#45;&gt;Node70 -->
<g id="edge15" class="edge"><title>Node69&#45;&gt;Node70</title>
<path fill="none" stroke="midnightblue" d="M702.219,-499.944C730.654,-494.749 766.022,-488.287 795.868,-482.835"/>
<polygon fill="midnightblue" stroke="midnightblue" points="796.552,-486.268 805.76,-481.028 795.294,-479.382 796.552,-486.268"/>
</g>
<!-- Node70&#45;&gt;Node68 -->
<g id="edge16" class="edge"><title>Node70&#45;&gt;Node68</title>
<path fill="none" stroke="midnightblue" d="M936.67,-476.365C949.86,-477.204 963.527,-478.074 976.586,-478.906"/>
<polygon fill="midnightblue" stroke="midnightblue" points="976.706,-482.42 986.908,-479.563 977.151,-475.434 976.706,-482.42"/>
</g>
<!-- Node71&#45;&gt;Node59 -->
<g id="edge28" class="edge"><title>Node71&#45;&gt;Node59</title>
<path fill="none" stroke="midnightblue" d="M454.534,-239.155C471.013,-212.583 508.571,-158.076 555,-129.484 558.168,-127.533 561.49,-125.74 564.916,-124.091"/>
<polygon fill="midnightblue" stroke="midnightblue" points="566.415,-127.256 574.19,-120.059 563.623,-120.837 566.415,-127.256"/>
</g>
<!-- Node71&#45;&gt;Node60 -->
<g id="edge29" class="edge"><title>Node71&#45;&gt;Node60</title>
<path fill="none" stroke="midnightblue" d="M519.048,-261.871C581.727,-264.976 672.578,-261.738 743,-227.484 787.876,-205.656 824.223,-158.346 843.337,-129.476"/>
<polygon fill="midnightblue" stroke="midnightblue" points="846.45,-131.107 848.927,-120.806 840.567,-127.314 846.45,-131.107"/>
</g>
<!-- Node71&#45;&gt;Node61 -->
<g id="edge30" class="edge"><title>Node71&#45;&gt;Node61</title>
<path fill="none" stroke="midnightblue" d="M369.711,-261.12C361.376,-261.228 352.838,-261.259 344.387,-261.213"/>
<polygon fill="midnightblue" stroke="midnightblue" points="344.174,-257.711 334.142,-261.118 344.109,-264.711 344.174,-257.711"/>
</g>
<!-- Node71&#45;&gt;Node62 -->
<g id="edge19" class="edge"><title>Node71&#45;&gt;Node62</title>
<path fill="none" stroke="midnightblue" d="M505.161,-239.458C528.232,-233.647 554.79,-226.959 578.7,-220.937"/>
<polygon fill="midnightblue" stroke="midnightblue" points="579.573,-224.327 588.415,-218.49 577.863,-217.539 579.573,-224.327"/>
</g>
<!-- Node72 -->
<g id="node15" class="node"><title>Node72</title>
<g id="a_node15"><a xlink:href="$struct_json_1_1_built_styled_stream_writer.html#af423fd33b3d580506ea3efc53b05a077" xlink:title="Json::BuiltStyledStreamWriter\l::isMultineArray">
<polygon fill="none" stroke="black" points="574.5,-374.484 574.5,-404.484 723.5,-404.484 723.5,-374.484 574.5,-374.484"/>
<text text-anchor="start" x="582.5" y="-392.484" font-family="Helvetica,sans-Serif" font-size="10.00">Json::BuiltStyledStreamWriter</text>
<text text-anchor="middle" x="649" y="-381.484" font-family="Helvetica,sans-Serif" font-size="10.00">::isMultineArray</text>
</a>
</g>
</g>
<!-- Node71&#45;&gt;Node72 -->
<g id="edge20" class="edge"><title>Node71&#45;&gt;Node72</title>
<path fill="none" stroke="midnightblue" d="M456.432,-269.794C474.301,-293.676 512.1,-339.627 555,-364.484 558.847,-366.713 562.899,-368.749 567.07,-370.607"/>
<polygon fill="midnightblue" stroke="midnightblue" points="565.782,-373.861 576.363,-374.399 568.426,-367.38 565.782,-373.861"/>
</g>
<!-- Node71&#45;&gt;Node76 -->
<g id="edge25" class="edge"><title>Node71&#45;&gt;Node76</title>
<path fill="none" stroke="midnightblue" d="M462.893,-239.457C483.544,-222.347 519.657,-194.678 555,-178.484 559.41,-176.463 564.02,-174.591 568.725,-172.862"/>
<polygon fill="midnightblue" stroke="midnightblue" points="570.168,-176.067 578.487,-169.507 567.892,-169.447 570.168,-176.067"/>
</g>
<!-- Node71&#45;&gt;Node77 -->
<g id="edge27" class="edge"><title>Node71&#45;&gt;Node77</title>
<path fill="none" stroke="midnightblue" d="M468.589,-269.555C490.196,-283.115 523.745,-302.803 555,-315.484 561.141,-317.975 567.611,-320.295 574.159,-322.436"/>
<polygon fill="midnightblue" stroke="midnightblue" points="573.192,-325.8 583.781,-325.444 575.281,-319.119 573.192,-325.8"/>
</g>
<!-- Node71&#45;&gt;Node78 -->
<g id="edge31" class="edge"><title>Node71&#45;&gt;Node78</title>
<path fill="none" stroke="midnightblue" d="M450.56,-239.447C462.775,-205.518 497.21,-122.693 555,-80.4838 557.062,-78.9778 559.21,-77.5661 561.426,-76.2428"/>
<polygon fill="midnightblue" stroke="midnightblue" points="563.071,-79.3321 570.277,-71.5645 559.8,-73.1434 563.071,-79.3321"/>
</g>
<!-- Node71&#45;&gt;Node79 -->
<g id="edge33" class="edge"><title>Node71&#45;&gt;Node79</title>
<path fill="none" stroke="midnightblue" d="M519.18,-267.946C533.789,-270.616 549.227,-273.436 564.146,-276.162"/>
<polygon fill="midnightblue" stroke="midnightblue" points="563.909,-279.677 574.375,-278.031 565.167,-272.791 563.909,-279.677"/>
</g>
<!-- Node72&#45;&gt;Node61 -->
<g id="edge24" class="edge"><title>Node72&#45;&gt;Node61</title>
<path fill="none" stroke="midnightblue" d="M574.362,-380.16C517.002,-371.17 436.257,-354.673 370,-326.484 339.504,-313.509 308.261,-291.989 286.994,-275.849"/>
<polygon fill="midnightblue" stroke="midnightblue" points="289.132,-273.078 279.077,-269.738 284.855,-278.619 289.132,-273.078"/>
</g>
<!-- Node73 -->
<g id="node16" class="node"><title>Node73</title>
<g id="a_node16"><a xlink:href="$struct_json_1_1_built_styled_stream_writer.html#a457c2f3c1e8c952caeb60e52477d0c9a" xlink:title="Json::BuiltStyledStreamWriter\l::hasCommentForValue">
<polygon fill="none" stroke="black" points="784.5,-374.484 784.5,-404.484 933.5,-404.484 933.5,-374.484 784.5,-374.484"/>
<text text-anchor="start" x="792.5" y="-392.484" font-family="Helvetica,sans-Serif" font-size="10.00">Json::BuiltStyledStreamWriter</text>
<text text-anchor="middle" x="859" y="-381.484" font-family="Helvetica,sans-Serif" font-size="10.00">::hasCommentForValue</text>
</a>
</g>
</g>
<!-- Node72&#45;&gt;Node73 -->
<g id="edge21" class="edge"><title>Node72&#45;&gt;Node73</title>
<path fill="none" stroke="midnightblue" d="M723.626,-389.484C739.981,-389.484 757.436,-389.484 774.166,-389.484"/>
<polygon fill="midnightblue" stroke="midnightblue" points="774.473,-392.984 784.473,-389.484 774.473,-385.984 774.473,-392.984"/>
</g>
<!-- Node74 -->
<g id="node17" class="node"><title>Node74</title>
<g id="a_node17"><a xlink:href="$namespace_json.html#a97f039a107b3f6cf1c3edee50e978f76" xlink:title="Json::throwRuntimeError">
<polygon fill="none" stroke="black" points="987,-366.984 987,-385.984 1112,-385.984 1112,-366.984 987,-366.984"/>
<text text-anchor="middle" x="1049.5" y="-373.984" font-family="Helvetica,sans-Serif" font-size="10.00">Json::throwRuntimeError</text>
</a>
</g>
</g>
<!-- Node73&#45;&gt;Node74 -->
<g id="edge22" class="edge"><title>Node73&#45;&gt;Node74</title>
<path fill="none" stroke="midnightblue" d="M933.689,-384.402C947.814,-383.428 962.588,-382.409 976.654,-381.439"/>
<polygon fill="midnightblue" stroke="midnightblue" points="977.017,-384.922 986.753,-380.742 976.535,-377.939 977.017,-384.922"/>
</g>
<!-- Node75 -->
<g id="node18" class="node"><title>Node75</title>
<g id="a_node18"><a xlink:href="$struct_json_1_1_built_styled_stream_writer.html#ab0c2e665c86b22f8fafb0e52c8069954" xlink:title="Json::BuiltStyledStreamWriter\l::BuiltStyledStreamWriter">
<polygon fill="none" stroke="black" points="975,-405.484 975,-435.484 1124,-435.484 1124,-405.484 975,-405.484"/>
<text text-anchor="start" x="983" y="-423.484" font-family="Helvetica,sans-Serif" font-size="10.00">Json::BuiltStyledStreamWriter</text>
<text text-anchor="middle" x="1049.5" y="-412.484" font-family="Helvetica,sans-Serif" font-size="10.00">::BuiltStyledStreamWriter</text>
</a>
</g>
</g>
<!-- Node73&#45;&gt;Node75 -->
<g id="edge23" class="edge"><title>Node73&#45;&gt;Node75</title>
<path fill="none" stroke="midnightblue" d="M933.689,-401.602C943.94,-403.288 954.532,-405.03 964.947,-406.743"/>
<polygon fill="midnightblue" stroke="midnightblue" points="964.427,-410.204 974.862,-408.374 965.563,-403.297 964.427,-410.204"/>
</g>
<!-- Node76&#45;&gt;Node60 -->
<g id="edge26" class="edge"><title>Node76&#45;&gt;Node60</title>
<path fill="none" stroke="midnightblue" d="M713.82,-139.449C736.182,-134.181 761.471,-128.224 784.557,-122.785"/>
<polygon fill="midnightblue" stroke="midnightblue" points="785.369,-126.19 794.3,-120.49 783.764,-119.376 785.369,-126.19"/>
</g>
<!-- Node78&#45;&gt;Node60 -->
<g id="edge32" class="edge"><title>Node78&#45;&gt;Node60</title>
<path fill="none" stroke="midnightblue" d="M713.82,-71.5184C736.182,-76.7862 761.471,-82.7438 784.557,-88.1822"/>
<polygon fill="midnightblue" stroke="midnightblue" points="783.764,-91.5912 794.3,-90.4776 785.369,-84.7777 783.764,-91.5912"/>
</g>
</g>
</svg>
