<?xml version="1.0" encoding="UTF-8" standalone="no"?>
<!DOCTYPE svg PUBLIC "-//W3C//DTD SVG 1.1//EN"
 "http://www.w3.org/Graphics/SVG/1.1/DTD/svg11.dtd">
<!-- Generated by graphviz version 2.38.0 (20140413.2041)
 -->
<!-- Title: /home/mel/projects/Misc/Minecraft Server Service/src/ServerProcessBuf.h Pages: 1 -->
<svg width="1607pt" height="362pt"
 viewBox="0.00 0.00 1607.00 362.00" xmlns="http://www.w3.org/2000/svg" xmlns:xlink="http://www.w3.org/1999/xlink">
<g id="graph0" class="graph" transform="scale(1 1) rotate(0) translate(4 358)">
<title>/home/mel/projects/Misc/Minecraft Server Service/src/ServerProcessBuf.h</title>
<!-- Node6 -->
<g id="node1" class="node"><title>Node6</title>
<polygon fill="#bfbfbf" stroke="black" points="1056,-312.5 1056,-353.5 1216,-353.5 1216,-312.5 1056,-312.5"/>
<text text-anchor="start" x="1064" y="-341.5" font-family="Helvetica,sans-Serif" font-size="10.00">/home/mel/projects</text>
<text text-anchor="start" x="1064" y="-330.5" font-family="Helvetica,sans-Serif" font-size="10.00">/Misc/Minecraft Server</text>
<text text-anchor="middle" x="1136" y="-319.5" font-family="Helvetica,sans-Serif" font-size="10.00"> Service/src/ServerProcessBuf.h</text>
</g>
<!-- Node7 -->
<g id="node2" class="node"><title>Node7</title>
<g id="a_node2"><a xlink:href="_server_stream_8h.html" target="_top" xlink:title="/home/mel/projects\l/Misc/Minecraft Server\l Service/src/ServerStream.h">
<polygon fill="none" stroke="black" points="980,-234.5 980,-275.5 1120,-275.5 1120,-234.5 980,-234.5"/>
<text text-anchor="start" x="988" y="-263.5" font-family="Helvetica,sans-Serif" font-size="10.00">/home/mel/projects</text>
<text text-anchor="start" x="988" y="-252.5" font-family="Helvetica,sans-Serif" font-size="10.00">/Misc/Minecraft Server</text>
<text text-anchor="middle" x="1050" y="-241.5" font-family="Helvetica,sans-Serif" font-size="10.00"> Service/src/ServerStream.h</text>
</a>
</g>
</g>
<!-- Node6&#45;&gt;Node7 -->
<g id="edge1" class="edge"><title>Node6&#45;&gt;Node7</title>
<path fill="none" stroke="midnightblue" d="M1106.33,-305.779C1095.09,-295.843 1082.49,-284.716 1072.07,-275.506"/>
<polygon fill="midnightblue" stroke="midnightblue" points="1104.04,-308.429 1113.85,-312.428 1108.68,-303.183 1104.04,-308.429"/>
</g>
<!-- Node25 -->
<g id="node20" class="node"><title>Node25</title>
<g id="a_node20"><a xlink:href="_server_process_buf_8cpp.html" target="_top" xlink:title="/home/mel/projects\l/Misc/Minecraft Server\l Service/src/ServerProcessBuf.cpp">
<polygon fill="none" stroke="black" points="1138,-234.5 1138,-275.5 1308,-275.5 1308,-234.5 1138,-234.5"/>
<text text-anchor="start" x="1146" y="-263.5" font-family="Helvetica,sans-Serif" font-size="10.00">/home/mel/projects</text>
<text text-anchor="start" x="1146" y="-252.5" font-family="Helvetica,sans-Serif" font-size="10.00">/Misc/Minecraft Server</text>
<text text-anchor="middle" x="1223" y="-241.5" font-family="Helvetica,sans-Serif" font-size="10.00"> Service/src/ServerProcessBuf.cpp</text>
</a>
</g>
</g>
<!-- Node6&#45;&gt;Node25 -->
<g id="edge39" class="edge"><title>Node6&#45;&gt;Node25</title>
<path fill="none" stroke="midnightblue" d="M1166.02,-305.779C1177.39,-295.843 1190.13,-284.716 1200.67,-275.506"/>
<polygon fill="midnightblue" stroke="midnightblue" points="1163.63,-303.213 1158.4,-312.428 1168.24,-308.485 1163.63,-303.213"/>
</g>
<!-- Node8 -->
<g id="node3" class="node"><title>Node8</title>
<g id="a_node3"><a xlink:href="server_8h.html" target="_top" xlink:title="/home/mel/projects\l/Misc/Minecraft Server\l Service/src/server.h">
<polygon fill="none" stroke="black" points="649,-156.5 649,-197.5 765,-197.5 765,-156.5 649,-156.5"/>
<text text-anchor="start" x="657" y="-185.5" font-family="Helvetica,sans-Serif" font-size="10.00">/home/mel/projects</text>
<text text-anchor="start" x="657" y="-174.5" font-family="Helvetica,sans-Serif" font-size="10.00">/Misc/Minecraft Server</text>
<text text-anchor="middle" x="707" y="-163.5" font-family="Helvetica,sans-Serif" font-size="10.00"> Service/src/server.h</text>
</a>
</g>
</g>
<!-- Node7&#45;&gt;Node8 -->
<g id="edge2" class="edge"><title>Node7&#45;&gt;Node8</title>
<path fill="none" stroke="midnightblue" d="M969.903,-236.253C907.197,-222.359 821.458,-203.361 765.184,-190.892"/>
<polygon fill="midnightblue" stroke="midnightblue" points="969.241,-239.691 979.761,-238.437 970.755,-232.856 969.241,-239.691"/>
</g>
<!-- Node9 -->
<g id="node4" class="node"><title>Node9</title>
<g id="a_node4"><a xlink:href="bukkit_server_8h.html" target="_top" xlink:title="/home/mel/projects\l/Misc/Minecraft Server\l Service/src/bukkitServer.h">
<polygon fill="none" stroke="black" points="79.5,-78.5 79.5,-119.5 214.5,-119.5 214.5,-78.5 79.5,-78.5"/>
<text text-anchor="start" x="87.5" y="-107.5" font-family="Helvetica,sans-Serif" font-size="10.00">/home/mel/projects</text>
<text text-anchor="start" x="87.5" y="-96.5" font-family="Helvetica,sans-Serif" font-size="10.00">/Misc/Minecraft Server</text>
<text text-anchor="middle" x="147" y="-85.5" font-family="Helvetica,sans-Serif" font-size="10.00"> Service/src/bukkitServer.h</text>
</a>
</g>
</g>
<!-- Node7&#45;&gt;Node9 -->
<g id="edge27" class="edge"><title>Node7&#45;&gt;Node9</title>
<path fill="none" stroke="midnightblue" d="M969.58,-246.139C879.49,-236.83 729.262,-219.798 601,-198 462.877,-174.526 303.111,-137.773 214.707,-116.579"/>
<polygon fill="midnightblue" stroke="midnightblue" points="969.418,-249.641 979.723,-247.181 970.133,-242.677 969.418,-249.641"/>
</g>
<!-- Node10 -->
<g id="node5" class="node"><title>Node10</title>
<g id="a_node5"><a xlink:href="bukkit_server_8cpp.html" target="_top" xlink:title="/home/mel/projects\l/Misc/Minecraft Server\l Service/src/bukkitServer.cpp">
<polygon fill="none" stroke="black" points="0,-0.5 0,-41.5 146,-41.5 146,-0.5 0,-0.5"/>
<text text-anchor="start" x="8" y="-29.5" font-family="Helvetica,sans-Serif" font-size="10.00">/home/mel/projects</text>
<text text-anchor="start" x="8" y="-18.5" font-family="Helvetica,sans-Serif" font-size="10.00">/Misc/Minecraft Server</text>
<text text-anchor="middle" x="73" y="-7.5" font-family="Helvetica,sans-Serif" font-size="10.00"> Service/src/bukkitServer.cpp</text>
</a>
</g>
</g>
<!-- Node7&#45;&gt;Node10 -->
<g id="edge28" class="edge"><title>Node7&#45;&gt;Node10</title>
<path fill="none" stroke="midnightblue" d="M969.361,-251.337C843.742,-246.262 594.04,-232.459 385,-198 242.692,-174.541 158.887,-233.582 70,-120 52.5858,-97.7478 59.017,-63.1477 65.6914,-41.5699"/>
<polygon fill="midnightblue" stroke="midnightblue" points="969.527,-254.846 979.657,-251.745 969.803,-247.852 969.527,-254.846"/>
</g>
<!-- Node12 -->
<g id="node7" class="node"><title>Node12</title>
<g id="a_node7"><a xlink:href="bungeecord_server_8h.html" target="_top" xlink:title="/home/mel/projects\l/Misc/Minecraft Server\l Service/src/bungeecordServer.h">
<polygon fill="none" stroke="black" points="502.5,-78.5 502.5,-119.5 661.5,-119.5 661.5,-78.5 502.5,-78.5"/>
<text text-anchor="start" x="510.5" y="-107.5" font-family="Helvetica,sans-Serif" font-size="10.00">/home/mel/projects</text>
<text text-anchor="start" x="510.5" y="-96.5" font-family="Helvetica,sans-Serif" font-size="10.00">/Misc/Minecraft Server</text>
<text text-anchor="middle" x="582" y="-85.5" font-family="Helvetica,sans-Serif" font-size="10.00"> Service/src/bungeecordServer.h</text>
</a>
</g>
</g>
<!-- Node7&#45;&gt;Node12 -->
<g id="edge29" class="edge"><title>Node7&#45;&gt;Node12</title>
<path fill="none" stroke="midnightblue" d="M969.72,-251.226C866.018,-246.27 692.566,-232.897 640,-198 612.164,-179.52 595.803,-142.73 587.898,-119.859"/>
<polygon fill="midnightblue" stroke="midnightblue" points="969.69,-254.729 979.841,-251.694 970.013,-247.736 969.69,-254.729"/>
</g>
<!-- Node13 -->
<g id="node8" class="node"><title>Node13</title>
<g id="a_node8"><a xlink:href="bungeecord_server_8cpp.html" target="_top" xlink:title="/home/mel/projects\l/Misc/Minecraft Server\l Service/src/bungeecordServer.cpp">
<polygon fill="none" stroke="black" points="752,-0.5 752,-41.5 922,-41.5 922,-0.5 752,-0.5"/>
<text text-anchor="start" x="760" y="-29.5" font-family="Helvetica,sans-Serif" font-size="10.00">/home/mel/projects</text>
<text text-anchor="start" x="760" y="-18.5" font-family="Helvetica,sans-Serif" font-size="10.00">/Misc/Minecraft Server</text>
<text text-anchor="middle" x="837" y="-7.5" font-family="Helvetica,sans-Serif" font-size="10.00"> Service/src/bungeecordServer.cpp</text>
</a>
</g>
</g>
<!-- Node7&#45;&gt;Node13 -->
<g id="edge30" class="edge"><title>Node7&#45;&gt;Node13</title>
<path fill="none" stroke="midnightblue" d="M1129.84,-232.107C1238.98,-201.385 1423.42,-146.301 1442,-120 1452.77,-104.754 1454.67,-91.7067 1442,-78 1407.35,-40.5176 1034.75,-47.443 984,-42 963.897,-39.8441 942.3,-37.1298 922.017,-34.4023"/>
<polygon fill="midnightblue" stroke="midnightblue" points="1128.86,-228.749 1120.18,-234.821 1130.75,-235.489 1128.86,-228.749"/>
</g>
<!-- Node14 -->
<g id="node9" class="node"><title>Node14</title>
<g id="a_node9"><a xlink:href="generic_server_8h.html" target="_top" xlink:title="/home/mel/projects\l/Misc/Minecraft Server\l Service/src/genericServer.h">
<polygon fill="none" stroke="black" points="680,-78.5 680,-119.5 820,-119.5 820,-78.5 680,-78.5"/>
<text text-anchor="start" x="688" y="-107.5" font-family="Helvetica,sans-Serif" font-size="10.00">/home/mel/projects</text>
<text text-anchor="start" x="688" y="-96.5" font-family="Helvetica,sans-Serif" font-size="10.00">/Misc/Minecraft Server</text>
<text text-anchor="middle" x="750" y="-85.5" font-family="Helvetica,sans-Serif" font-size="10.00"> Service/src/genericServer.h</text>
</a>
</g>
</g>
<!-- Node7&#45;&gt;Node14 -->
<g id="edge31" class="edge"><title>Node7&#45;&gt;Node14</title>
<path fill="none" stroke="midnightblue" d="M1002.86,-229.799C943.553,-199.357 842.878,-147.677 788.159,-119.588"/>
<polygon fill="midnightblue" stroke="midnightblue" points="1001.51,-233.043 1012,-234.496 1004.71,-226.815 1001.51,-233.043"/>
</g>
<!-- Node15 -->
<g id="node10" class="node"><title>Node15</title>
<g id="a_node10"><a xlink:href="generic_server_8cpp.html" target="_top" xlink:title="/home/mel/projects\l/Misc/Minecraft Server\l Service/src/genericServer.cpp">
<polygon fill="none" stroke="black" points="993.5,-0.5 993.5,-41.5 1144.5,-41.5 1144.5,-0.5 993.5,-0.5"/>
<text text-anchor="start" x="1001.5" y="-29.5" font-family="Helvetica,sans-Serif" font-size="10.00">/home/mel/projects</text>
<text text-anchor="start" x="1001.5" y="-18.5" font-family="Helvetica,sans-Serif" font-size="10.00">/Misc/Minecraft Server</text>
<text text-anchor="middle" x="1069" y="-7.5" font-family="Helvetica,sans-Serif" font-size="10.00"> Service/src/genericServer.cpp</text>
</a>
</g>
</g>
<!-- Node7&#45;&gt;Node15 -->
<g id="edge32" class="edge"><title>Node7&#45;&gt;Node15</title>
<path fill="none" stroke="midnightblue" d="M1130.12,-234.198C1221.34,-222.931 1426.01,-253.441 1476,-198 1511.71,-158.39 1511.37,-117.917 1476,-78 1431.91,-28.2413 1244.73,-51.9508 1179,-42 1167.87,-40.315 1156.14,-38.3669 1144.64,-36.3614"/>
<polygon fill="midnightblue" stroke="midnightblue" points="1129.47,-230.756 1120.1,-235.694 1130.5,-237.68 1129.47,-230.756"/>
</g>
<!-- Node19 -->
<g id="node14" class="node"><title>Node19</title>
<g id="a_node14"><a xlink:href="server_8cpp.html" target="_top" xlink:title="/home/mel/projects\l/Misc/Minecraft Server\l Service/src/server.cpp">
<polygon fill="none" stroke="black" points="838,-78.5 838,-119.5 956,-119.5 956,-78.5 838,-78.5"/>
<text text-anchor="start" x="846" y="-107.5" font-family="Helvetica,sans-Serif" font-size="10.00">/home/mel/projects</text>
<text text-anchor="start" x="846" y="-96.5" font-family="Helvetica,sans-Serif" font-size="10.00">/Misc/Minecraft Server</text>
<text text-anchor="middle" x="897" y="-85.5" font-family="Helvetica,sans-Serif" font-size="10.00"> Service/src/server.cpp</text>
</a>
</g>
</g>
<!-- Node7&#45;&gt;Node19 -->
<g id="edge33" class="edge"><title>Node7&#45;&gt;Node19</title>
<path fill="none" stroke="midnightblue" d="M1023.31,-227.138C992.887,-196.513 943.862,-147.169 916.703,-119.832"/>
<polygon fill="midnightblue" stroke="midnightblue" points="1021.09,-229.869 1030.62,-234.496 1026.06,-224.935 1021.09,-229.869"/>
</g>
<!-- Node20 -->
<g id="node15" class="node"><title>Node20</title>
<g id="a_node15"><a xlink:href="_server_stream_8cpp.html" target="_top" xlink:title="/home/mel/projects\l/Misc/Minecraft Server\l Service/src/ServerStream.cpp">
<polygon fill="none" stroke="black" points="974.5,-78.5 974.5,-119.5 1125.5,-119.5 1125.5,-78.5 974.5,-78.5"/>
<text text-anchor="start" x="982.5" y="-107.5" font-family="Helvetica,sans-Serif" font-size="10.00">/home/mel/projects</text>
<text text-anchor="start" x="982.5" y="-96.5" font-family="Helvetica,sans-Serif" font-size="10.00">/Misc/Minecraft Server</text>
<text text-anchor="middle" x="1050" y="-85.5" font-family="Helvetica,sans-Serif" font-size="10.00"> Service/src/ServerStream.cpp</text>
</a>
</g>
</g>
<!-- Node7&#45;&gt;Node20 -->
<g id="edge34" class="edge"><title>Node7&#45;&gt;Node20</title>
<path fill="none" stroke="midnightblue" d="M1050,-224.365C1050,-193.606 1050,-146.358 1050,-119.832"/>
<polygon fill="midnightblue" stroke="midnightblue" points="1046.5,-224.496 1050,-234.496 1053.5,-224.496 1046.5,-224.496"/>
</g>
<!-- Node21 -->
<g id="node16" class="node"><title>Node21</title>
<g id="a_node16"><a xlink:href="vanilla_server_8h.html" target="_top" xlink:title="/home/mel/projects\l/Misc/Minecraft Server\l Service/src/vanillaServer.h">
<polygon fill="none" stroke="black" points="1143.5,-78.5 1143.5,-119.5 1280.5,-119.5 1280.5,-78.5 1143.5,-78.5"/>
<text text-anchor="start" x="1151.5" y="-107.5" font-family="Helvetica,sans-Serif" font-size="10.00">/home/mel/projects</text>
<text text-anchor="start" x="1151.5" y="-96.5" font-family="Helvetica,sans-Serif" font-size="10.00">/Misc/Minecraft Server</text>
<text text-anchor="middle" x="1212" y="-85.5" font-family="Helvetica,sans-Serif" font-size="10.00"> Service/src/vanillaServer.h</text>
</a>
</g>
</g>
<!-- Node7&#45;&gt;Node21 -->
<g id="edge35" class="edge"><title>Node7&#45;&gt;Node21</title>
<path fill="none" stroke="midnightblue" d="M1077.87,-227.506C1110.15,-196.819 1162.58,-146.984 1191.39,-119.588"/>
<polygon fill="midnightblue" stroke="midnightblue" points="1075.35,-225.069 1070.52,-234.496 1080.18,-230.143 1075.35,-225.069"/>
</g>
<!-- Node22 -->
<g id="node17" class="node"><title>Node22</title>
<g id="a_node17"><a xlink:href="vanilla_server_8cpp.html" target="_top" xlink:title="/home/mel/projects\l/Misc/Minecraft Server\l Service/src/vanillaServer.cpp">
<polygon fill="none" stroke="black" points="1188.5,-0.5 1188.5,-41.5 1335.5,-41.5 1335.5,-0.5 1188.5,-0.5"/>
<text text-anchor="start" x="1196.5" y="-29.5" font-family="Helvetica,sans-Serif" font-size="10.00">/home/mel/projects</text>
<text text-anchor="start" x="1196.5" y="-18.5" font-family="Helvetica,sans-Serif" font-size="10.00">/Misc/Minecraft Server</text>
<text text-anchor="middle" x="1262" y="-7.5" font-family="Helvetica,sans-Serif" font-size="10.00"> Service/src/vanillaServer.cpp</text>
</a>
</g>
</g>
<!-- Node7&#45;&gt;Node22 -->
<g id="edge38" class="edge"><title>Node7&#45;&gt;Node22</title>
<path fill="none" stroke="midnightblue" d="M1130.23,-234.185C1227.61,-222.406 1448.83,-257.631 1503,-198 1513.95,-185.943 1520.77,-101.342 1502,-78 1481.32,-52.283 1398.43,-37.226 1335.8,-29.3195"/>
<polygon fill="midnightblue" stroke="midnightblue" points="1129.48,-230.757 1120.09,-235.667 1130.49,-237.684 1129.48,-230.757"/>
</g>
<!-- Node23 -->
<g id="node18" class="node"><title>Node23</title>
<g id="a_node18"><a xlink:href="spigot_server_8h.html" target="_top" xlink:title="/home/mel/projects\l/Misc/Minecraft Server\l Service/src/spigotServer.h">
<polygon fill="none" stroke="black" points="1298.5,-78.5 1298.5,-119.5 1433.5,-119.5 1433.5,-78.5 1298.5,-78.5"/>
<text text-anchor="start" x="1306.5" y="-107.5" font-family="Helvetica,sans-Serif" font-size="10.00">/home/mel/projects</text>
<text text-anchor="start" x="1306.5" y="-96.5" font-family="Helvetica,sans-Serif" font-size="10.00">/Misc/Minecraft Server</text>
<text text-anchor="middle" x="1366" y="-85.5" font-family="Helvetica,sans-Serif" font-size="10.00"> Service/src/spigotServer.h</text>
</a>
</g>
</g>
<!-- Node7&#45;&gt;Node23 -->
<g id="edge36" class="edge"><title>Node7&#45;&gt;Node23</title>
<path fill="none" stroke="midnightblue" d="M1099.27,-229.987C1161.69,-199.57 1268.05,-147.735 1325.81,-119.588"/>
<polygon fill="midnightblue" stroke="midnightblue" points="1097.48,-226.969 1090.02,-234.496 1100.54,-233.261 1097.48,-226.969"/>
</g>
<!-- Node24 -->
<g id="node19" class="node"><title>Node24</title>
<g id="a_node19"><a xlink:href="spigot_server_8cpp.html" target="_top" xlink:title="/home/mel/projects\l/Misc/Minecraft Server\l Service/src/spigotServer.cpp">
<polygon fill="none" stroke="black" points="1453,-0.5 1453,-41.5 1599,-41.5 1599,-0.5 1453,-0.5"/>
<text text-anchor="start" x="1461" y="-29.5" font-family="Helvetica,sans-Serif" font-size="10.00">/home/mel/projects</text>
<text text-anchor="start" x="1461" y="-18.5" font-family="Helvetica,sans-Serif" font-size="10.00">/Misc/Minecraft Server</text>
<text text-anchor="middle" x="1526" y="-7.5" font-family="Helvetica,sans-Serif" font-size="10.00"> Service/src/spigotServer.cpp</text>
</a>
</g>
</g>
<!-- Node7&#45;&gt;Node24 -->
<g id="edge37" class="edge"><title>Node7&#45;&gt;Node24</title>
<path fill="none" stroke="midnightblue" d="M1130.03,-234.361C1203.96,-226.856 1493.6,-228.424 1522,-198 1561.94,-155.218 1544.37,-77.957 1532.97,-41.7403"/>
<polygon fill="midnightblue" stroke="midnightblue" points="1129.56,-230.893 1120.09,-235.65 1130.46,-237.835 1129.56,-230.893"/>
</g>
<!-- Node8&#45;&gt;Node9 -->
<g id="edge3" class="edge"><title>Node8&#45;&gt;Node9</title>
<path fill="none" stroke="midnightblue" d="M638.771,-170.657C545.674,-162.764 373.854,-146.049 229,-120 224.385,-119.17 219.642,-118.235 214.876,-117.234"/>
<polygon fill="midnightblue" stroke="midnightblue" points="638.645,-174.158 648.903,-171.507 639.231,-167.183 638.645,-174.158"/>
</g>
<!-- Node11 -->
<g id="node6" class="node"><title>Node11</title>
<g id="a_node6"><a xlink:href="setup_servers_8cpp.html" target="_top" xlink:title="/home/mel/projects\l/Misc/Minecraft Server\l Service/src/setupServers.cpp">
<polygon fill="none" stroke="black" points="507.5,-0.5 507.5,-41.5 656.5,-41.5 656.5,-0.5 507.5,-0.5"/>
<text text-anchor="start" x="515.5" y="-29.5" font-family="Helvetica,sans-Serif" font-size="10.00">/home/mel/projects</text>
<text text-anchor="start" x="515.5" y="-18.5" font-family="Helvetica,sans-Serif" font-size="10.00">/Misc/Minecraft Server</text>
<text text-anchor="middle" x="582" y="-7.5" font-family="Helvetica,sans-Serif" font-size="10.00"> Service/src/setupServers.cpp</text>
</a>
</g>
</g>
<!-- Node8&#45;&gt;Node11 -->
<g id="edge20" class="edge"><title>Node8&#45;&gt;Node11</title>
<path fill="none" stroke="midnightblue" d="M638.613,-167.228C582.97,-158.521 510.84,-143.109 493,-120 481.593,-105.224 483.976,-94.3403 493,-78 501.737,-62.1793 517.027,-50.2201 532.494,-41.5017"/>
<polygon fill="midnightblue" stroke="midnightblue" points="638.381,-170.733 648.794,-168.776 639.433,-163.812 638.381,-170.733"/>
</g>
<!-- Node8&#45;&gt;Node12 -->
<g id="edge6" class="edge"><title>Node8&#45;&gt;Node12</title>
<path fill="none" stroke="midnightblue" d="M666.215,-151.203C649.299,-140.918 629.958,-129.159 614.082,-119.506"/>
<polygon fill="midnightblue" stroke="midnightblue" points="664.446,-154.224 674.809,-156.428 668.083,-148.242 664.446,-154.224"/>
</g>
<!-- Node8&#45;&gt;Node14 -->
<g id="edge9" class="edge"><title>Node8&#45;&gt;Node14</title>
<path fill="none" stroke="midnightblue" d="M723.144,-147.466C728.419,-138.143 734.154,-128.007 738.964,-119.506"/>
<polygon fill="midnightblue" stroke="midnightblue" points="719.952,-146.001 718.074,-156.428 726.044,-149.448 719.952,-146.001"/>
</g>
<!-- Node16 -->
<g id="node11" class="node"><title>Node16</title>
<g id="a_node11"><a xlink:href="main_8cpp.html" target="_top" xlink:title="/home/mel/projects\l/Misc/Minecraft Server\l Service/src/main.cpp">
<polygon fill="none" stroke="black" points="181,-0.5 181,-41.5 297,-41.5 297,-0.5 181,-0.5"/>
<text text-anchor="start" x="189" y="-29.5" font-family="Helvetica,sans-Serif" font-size="10.00">/home/mel/projects</text>
<text text-anchor="start" x="189" y="-18.5" font-family="Helvetica,sans-Serif" font-size="10.00">/Misc/Minecraft Server</text>
<text text-anchor="middle" x="239" y="-7.5" font-family="Helvetica,sans-Serif" font-size="10.00"> Service/src/main.cpp</text>
</a>
</g>
</g>
<!-- Node8&#45;&gt;Node16 -->
<g id="edge12" class="edge"><title>Node8&#45;&gt;Node16</title>
<path fill="none" stroke="midnightblue" d="M638.834,-174.418C535.102,-170.777 343.866,-158.847 289,-120 262.655,-101.347 249.304,-64.6128 243.271,-41.7993"/>
<polygon fill="midnightblue" stroke="midnightblue" points="638.786,-177.918 648.897,-174.755 639.02,-170.922 638.786,-177.918"/>
</g>
<!-- Node17 -->
<g id="node12" class="node"><title>Node17</title>
<g id="a_node12"><a xlink:href="setup_servers_8h.html" target="_top" xlink:title="/home/mel/projects\l/Misc/Minecraft Server\l Service/src/setupServers.h">
<polygon fill="none" stroke="black" points="309,-78.5 309,-119.5 447,-119.5 447,-78.5 309,-78.5"/>
<text text-anchor="start" x="317" y="-107.5" font-family="Helvetica,sans-Serif" font-size="10.00">/home/mel/projects</text>
<text text-anchor="start" x="317" y="-96.5" font-family="Helvetica,sans-Serif" font-size="10.00">/Misc/Minecraft Server</text>
<text text-anchor="middle" x="378" y="-85.5" font-family="Helvetica,sans-Serif" font-size="10.00"> Service/src/setupServers.h</text>
</a>
</g>
</g>
<!-- Node8&#45;&gt;Node17 -->
<g id="edge13" class="edge"><title>Node8&#45;&gt;Node17</title>
<path fill="none" stroke="midnightblue" d="M638.866,-160.732C589.456,-149.601 521.046,-134.068 461,-120 456.526,-118.952 451.919,-117.864 447.276,-116.762"/>
<polygon fill="midnightblue" stroke="midnightblue" points="638.274,-164.187 648.799,-162.968 639.812,-157.358 638.274,-164.187"/>
</g>
<!-- Node18 -->
<g id="node13" class="node"><title>Node18</title>
<g id="a_node13"><a xlink:href="main_loop_8cpp.html" target="_top" xlink:title="/home/mel/projects\l/Misc/Minecraft Server\l Service/src/mainLoop.cpp">
<polygon fill="none" stroke="black" points="315.5,-0.5 315.5,-41.5 448.5,-41.5 448.5,-0.5 315.5,-0.5"/>
<text text-anchor="start" x="323.5" y="-29.5" font-family="Helvetica,sans-Serif" font-size="10.00">/home/mel/projects</text>
<text text-anchor="start" x="323.5" y="-18.5" font-family="Helvetica,sans-Serif" font-size="10.00">/Misc/Minecraft Server</text>
<text text-anchor="middle" x="382" y="-7.5" font-family="Helvetica,sans-Serif" font-size="10.00"> Service/src/mainLoop.cpp</text>
</a>
</g>
</g>
<!-- Node8&#45;&gt;Node18 -->
<g id="edge17" class="edge"><title>Node8&#45;&gt;Node18</title>
<path fill="none" stroke="midnightblue" d="M638.55,-176.94C534.257,-176.742 343.093,-169.428 300,-120 287.733,-105.93 291.284,-94.5069 300,-78 308.21,-62.4506 322.896,-50.402 337.593,-41.533"/>
<polygon fill="midnightblue" stroke="midnightblue" points="638.672,-180.44 648.671,-176.937 638.67,-173.44 638.672,-180.44"/>
</g>
<!-- Node8&#45;&gt;Node19 -->
<g id="edge18" class="edge"><title>Node8&#45;&gt;Node19</title>
<path fill="none" stroke="midnightblue" d="M765.478,-152.609C791.998,-142.001 822.996,-129.602 848.236,-119.506"/>
<polygon fill="midnightblue" stroke="midnightblue" points="763.915,-149.464 755.93,-156.428 766.514,-155.964 763.915,-149.464"/>
</g>
<!-- Node8&#45;&gt;Node20 -->
<g id="edge19" class="edge"><title>Node8&#45;&gt;Node20</title>
<path fill="none" stroke="midnightblue" d="M775.004,-161.576C827.068,-150.452 900.637,-134.556 965,-120 968.105,-119.298 971.273,-118.576 974.472,-117.843"/>
<polygon fill="midnightblue" stroke="midnightblue" points="774.263,-158.155 765.214,-163.666 775.724,-165.001 774.263,-158.155"/>
</g>
<!-- Node8&#45;&gt;Node21 -->
<g id="edge21" class="edge"><title>Node8&#45;&gt;Node21</title>
<path fill="none" stroke="midnightblue" d="M775.019,-169.636C859.62,-161.136 1008.26,-144.275 1134,-120 1137.02,-119.417 1140.1,-118.787 1143.2,-118.121"/>
<polygon fill="midnightblue" stroke="midnightblue" points="774.629,-166.158 765.025,-170.632 775.323,-173.123 774.629,-166.158"/>
</g>
<!-- Node8&#45;&gt;Node23 -->
<g id="edge24" class="edge"><title>Node8&#45;&gt;Node23</title>
<path fill="none" stroke="midnightblue" d="M775.459,-172.926C884.732,-167.234 1105.02,-152.535 1289,-120 1291.99,-119.471 1295.04,-118.885 1298.11,-118.256"/>
<polygon fill="midnightblue" stroke="midnightblue" points="775.043,-169.443 765.235,-173.449 775.401,-176.434 775.043,-169.443"/>
</g>
<!-- Node9&#45;&gt;Node10 -->
<g id="edge4" class="edge"><title>Node9&#45;&gt;Node10</title>
<path fill="none" stroke="midnightblue" d="M120.909,-71.204C111.379,-61.416 100.788,-50.5388 91.9923,-41.5056"/>
<polygon fill="midnightblue" stroke="midnightblue" points="118.459,-73.705 127.943,-78.4281 123.475,-68.8217 118.459,-73.705"/>
</g>
<!-- Node9&#45;&gt;Node11 -->
<g id="edge5" class="edge"><title>Node9&#45;&gt;Node11</title>
<path fill="none" stroke="midnightblue" d="M224.983,-84.3754C304.947,-70.4047 428.445,-48.8281 507.221,-35.0649"/>
<polygon fill="midnightblue" stroke="midnightblue" points="224.217,-80.9561 214.969,-86.125 225.422,-87.8516 224.217,-80.9561"/>
</g>
<!-- Node12&#45;&gt;Node11 -->
<g id="edge8" class="edge"><title>Node12&#45;&gt;Node11</title>
<path fill="none" stroke="midnightblue" d="M582,-68.2965C582,-59.3009 582,-49.6532 582,-41.5056"/>
<polygon fill="midnightblue" stroke="midnightblue" points="578.5,-68.4281 582,-78.4281 585.5,-68.4281 578.5,-68.4281"/>
</g>
<!-- Node12&#45;&gt;Node13 -->
<g id="edge7" class="edge"><title>Node12&#45;&gt;Node13</title>
<path fill="none" stroke="midnightblue" d="M657.687,-75.4423C693.881,-64.655 736.788,-51.8672 771.554,-41.5056"/>
<polygon fill="midnightblue" stroke="midnightblue" points="656.253,-72.2176 647.669,-78.4281 658.252,-78.926 656.253,-72.2176"/>
</g>
<!-- Node14&#45;&gt;Node11 -->
<g id="edge11" class="edge"><title>Node14&#45;&gt;Node11</title>
<path fill="none" stroke="midnightblue" d="M697.365,-74.189C674.124,-63.6749 647.141,-51.4687 625.118,-41.5056"/>
<polygon fill="midnightblue" stroke="midnightblue" points="696.182,-77.4953 706.736,-78.4281 699.067,-71.1175 696.182,-77.4953"/>
</g>
<!-- Node14&#45;&gt;Node15 -->
<g id="edge10" class="edge"><title>Node14&#45;&gt;Node15</title>
<path fill="none" stroke="midnightblue" d="M830.254,-77.7129C890.385,-63.136 948.464,-49.6066 993.249,-39.2931"/>
<polygon fill="midnightblue" stroke="midnightblue" points="829.085,-74.3949 820.194,-80.1568 830.738,-81.1971 829.085,-74.3949"/>
</g>
<!-- Node17&#45;&gt;Node11 -->
<g id="edge16" class="edge"><title>Node17&#45;&gt;Node11</title>
<path fill="none" stroke="midnightblue" d="M440.039,-74.8874C468.677,-64.2185 502.306,-51.6901 529.643,-41.5056"/>
<polygon fill="midnightblue" stroke="midnightblue" points="438.684,-71.6572 430.535,-78.4281 441.128,-78.2167 438.684,-71.6572"/>
</g>
<!-- Node17&#45;&gt;Node16 -->
<g id="edge14" class="edge"><title>Node17&#45;&gt;Node16</title>
<path fill="none" stroke="midnightblue" d="M333.422,-73.6266C314.429,-63.2416 292.573,-51.2915 274.675,-41.5056"/>
<polygon fill="midnightblue" stroke="midnightblue" points="331.751,-76.7016 342.204,-78.4281 335.109,-70.5597 331.751,-76.7016"/>
</g>
<!-- Node17&#45;&gt;Node18 -->
<g id="edge15" class="edge"><title>Node17&#45;&gt;Node18</title>
<path fill="none" stroke="midnightblue" d="M379.563,-68.2965C380.037,-59.3009 380.545,-49.6532 380.973,-41.5056"/>
<polygon fill="midnightblue" stroke="midnightblue" points="376.061,-68.2579 379.03,-78.4281 383.051,-68.6259 376.061,-68.2579"/>
</g>
<!-- Node21&#45;&gt;Node11 -->
<g id="edge22" class="edge"><title>Node21&#45;&gt;Node11</title>
<path fill="none" stroke="midnightblue" d="M1133.28,-78.0243C960.31,-48.6875 913.282,-60.4109 743,-42 714.857,-38.9572 683.998,-35.2211 656.892,-31.805"/>
<polygon fill="midnightblue" stroke="midnightblue" points="1132.78,-81.4893 1143.23,-79.7326 1133.96,-74.5903 1132.78,-81.4893"/>
</g>
<!-- Node21&#45;&gt;Node22 -->
<g id="edge23" class="edge"><title>Node21&#45;&gt;Node22</title>
<path fill="none" stroke="midnightblue" d="M1230.39,-70.0476C1236.63,-60.5657 1243.46,-50.1845 1249.17,-41.5056"/>
<polygon fill="midnightblue" stroke="midnightblue" points="1227.45,-68.1503 1224.88,-78.4281 1233.3,-71.9976 1227.45,-68.1503"/>
</g>
<!-- Node23&#45;&gt;Node11 -->
<g id="edge25" class="edge"><title>Node23&#45;&gt;Node11</title>
<path fill="none" stroke="midnightblue" d="M1288.01,-78.0119C1047.13,-39.9539 981.794,-64.6851 743,-42 714.82,-39.3229 683.953,-35.6654 656.851,-32.2098"/>
<polygon fill="midnightblue" stroke="midnightblue" points="1287.7,-81.5069 1298.13,-79.631 1288.81,-74.5949 1287.7,-81.5069"/>
</g>
<!-- Node23&#45;&gt;Node24 -->
<g id="edge26" class="edge"><title>Node23&#45;&gt;Node24</title>
<path fill="none" stroke="midnightblue" d="M1416.42,-74.0487C1438.49,-63.5665 1464.05,-51.4244 1484.94,-41.5056"/>
<polygon fill="midnightblue" stroke="midnightblue" points="1414.74,-70.976 1407.2,-78.4281 1417.74,-77.299 1414.74,-70.976"/>
</g>
</g>
</svg>
