<?xml version="1.0" encoding="UTF-8" standalone="no"?>
<!DOCTYPE svg PUBLIC "-//W3C//DTD SVG 1.1//EN"
 "http://www.w3.org/Graphics/SVG/1.1/DTD/svg11.dtd">
<!-- Generated by graphviz version 2.38.0 (20140413.2041)
 -->
<!-- Title: Json::OurReader::addErrorAndRecover Pages: 1 -->
<svg width="821pt" height="77pt"
 viewBox="0.00 0.00 821.00 77.00" xmlns="http://www.w3.org/2000/svg" xmlns:xlink="http://www.w3.org/1999/xlink">
<g id="graph0" class="graph" transform="scale(1 1) rotate(0) translate(4 73)">
<title>Json::OurReader::addErrorAndRecover</title>
<!-- Node48 -->
<g id="node1" class="node"><title>Node48</title>
<polygon fill="#bfbfbf" stroke="black" points="0,-0.5 0,-30.5 134,-30.5 134,-0.5 0,-0.5"/>
<text text-anchor="start" x="8" y="-18.5" font-family="Helvetica,sans-Serif" font-size="10.00">Json::OurReader::addError</text>
<text text-anchor="middle" x="67" y="-7.5" font-family="Helvetica,sans-Serif" font-size="10.00">AndRecover</text>
</g>
<!-- Node49 -->
<g id="node2" class="node"><title>Node49</title>
<g id="a_node2"><a xlink:href="class_json_1_1_our_reader.html#aea198f8101dba55099f4d8121a993530" target="_top" xlink:title="Json::OurReader::readObject">
<polygon fill="none" stroke="black" points="170,-25 170,-44 314,-44 314,-25 170,-25"/>
<text text-anchor="middle" x="242" y="-32" font-family="Helvetica,sans-Serif" font-size="10.00">Json::OurReader::readObject</text>
</a>
</g>
</g>
<!-- Node48&#45;&gt;Node49 -->
<g id="edge1" class="edge"><title>Node48&#45;&gt;Node49</title>
<path fill="none" stroke="midnightblue" d="M144.579,-23.9104C153.001,-24.8354 161.55,-25.7743 169.901,-26.6914"/>
<polygon fill="midnightblue" stroke="midnightblue" points="144.714,-20.4043 134.392,-22.7916 143.95,-27.3624 144.714,-20.4043"/>
</g>
<!-- Node53 -->
<g id="node6" class="node"><title>Node53</title>
<g id="a_node6"><a xlink:href="class_json_1_1_our_reader.html#a0b9f58faf4212c6ecb5d8e2a1ac10257" target="_top" xlink:title="Json::OurReader::readArray">
<polygon fill="none" stroke="black" points="526,-6 526,-25 665,-25 665,-6 526,-6"/>
<text text-anchor="middle" x="595.5" y="-13" font-family="Helvetica,sans-Serif" font-size="10.00">Json::OurReader::readArray</text>
</a>
</g>
</g>
<!-- Node48&#45;&gt;Node53 -->
<g id="edge8" class="edge"><title>Node48&#45;&gt;Node53</title>
<path fill="none" stroke="midnightblue" d="M144.424,-15.5C246.891,-15.5 427.28,-15.5 525.702,-15.5"/>
<polygon fill="midnightblue" stroke="midnightblue" points="144.149,-12.0001 134.148,-15.5 144.148,-19.0001 144.149,-12.0001"/>
</g>
<!-- Node50 -->
<g id="node3" class="node"><title>Node50</title>
<g id="a_node3"><a xlink:href="class_json_1_1_our_reader.html#a1765d9670d191c89a57a22ea5591d35f" target="_top" xlink:title="Json::OurReader::readValue">
<polygon fill="none" stroke="black" points="350,-25 350,-44 490,-44 490,-25 350,-25"/>
<text text-anchor="middle" x="420" y="-32" font-family="Helvetica,sans-Serif" font-size="10.00">Json::OurReader::readValue</text>
</a>
</g>
</g>
<!-- Node49&#45;&gt;Node50 -->
<g id="edge2" class="edge"><title>Node49&#45;&gt;Node50</title>
<path fill="none" stroke="midnightblue" d="M324.141,-27.7683C332.764,-27.7223 341.475,-27.7632 349.941,-27.8909"/>
<polygon fill="midnightblue" stroke="midnightblue" points="324.045,-24.2689 314.079,-27.8622 324.111,-31.2686 324.045,-24.2689"/>
</g>
<!-- Node50&#45;&gt;Node49 -->
<g id="edge5" class="edge"><title>Node50&#45;&gt;Node49</title>
<path fill="none" stroke="midnightblue" d="M339.91,-41.2191C331.303,-41.2789 322.581,-41.2518 314.079,-41.1378"/>
<polygon fill="midnightblue" stroke="midnightblue" points="339.98,-44.7187 349.941,-41.1091 339.903,-37.7191 339.98,-44.7187"/>
</g>
<!-- Node51 -->
<g id="node4" class="node"><title>Node51</title>
<g id="a_node4"><a xlink:href="class_json_1_1_our_reader.html#aba4f8749aab7f02ec17f107e392caf80" target="_top" xlink:title="Json::OurReader::parse">
<polygon fill="none" stroke="black" points="535,-44 535,-63 656,-63 656,-44 535,-44"/>
<text text-anchor="middle" x="595.5" y="-51" font-family="Helvetica,sans-Serif" font-size="10.00">Json::OurReader::parse</text>
</a>
</g>
</g>
<!-- Node50&#45;&gt;Node51 -->
<g id="edge3" class="edge"><title>Node50&#45;&gt;Node51</title>
<path fill="none" stroke="midnightblue" d="M500.244,-43.178C511.899,-44.4543 523.735,-45.7505 534.904,-46.9736"/>
<polygon fill="midnightblue" stroke="midnightblue" points="500.392,-39.6734 490.07,-42.0639 499.63,-46.6318 500.392,-39.6734"/>
</g>
<!-- Node50&#45;&gt;Node53 -->
<g id="edge6" class="edge"><title>Node50&#45;&gt;Node53</title>
<path fill="none" stroke="midnightblue" d="M466.93,-23.4338C485.015,-20.7712 506.165,-18.262 525.985,-16.3874"/>
<polygon fill="midnightblue" stroke="midnightblue" points="466.3,-19.9895 456.949,-24.9705 467.365,-26.908 466.3,-19.9895"/>
</g>
<!-- Node52 -->
<g id="node5" class="node"><title>Node52</title>
<g id="a_node5"><a xlink:href="class_json_1_1_our_char_reader.html#a52a1fb5fee88d9b63dd462f63b1c9570" target="_top" xlink:title="Json::OurCharReader\l::parse">
<polygon fill="none" stroke="black" points="701,-38.5 701,-68.5 813,-68.5 813,-38.5 701,-38.5"/>
<text text-anchor="start" x="709" y="-56.5" font-family="Helvetica,sans-Serif" font-size="10.00">Json::OurCharReader</text>
<text text-anchor="middle" x="757" y="-45.5" font-family="Helvetica,sans-Serif" font-size="10.00">::parse</text>
</a>
</g>
</g>
<!-- Node51&#45;&gt;Node52 -->
<g id="edge4" class="edge"><title>Node51&#45;&gt;Node52</title>
<path fill="none" stroke="midnightblue" d="M666.381,-53.5C677.91,-53.5 689.718,-53.5 700.822,-53.5"/>
<polygon fill="midnightblue" stroke="midnightblue" points="666.346,-50.0001 656.346,-53.5 666.346,-57.0001 666.346,-50.0001"/>
</g>
<!-- Node53&#45;&gt;Node50 -->
<g id="edge7" class="edge"><title>Node53&#45;&gt;Node50</title>
<path fill="none" stroke="midnightblue" d="M548.633,-26.5569C530.703,-29.1981 509.753,-31.689 490.07,-33.5599"/>
<polygon fill="midnightblue" stroke="midnightblue" points="549.18,-30.0139 558.531,-25.0327 548.115,-23.0955 549.18,-30.0139"/>
</g>
</g>
</svg>
