<?xml version="1.0" encoding="UTF-8" standalone="no"?>
<!DOCTYPE svg PUBLIC "-//W3C//DTD SVG 1.1//EN"
 "http://www.w3.org/Graphics/SVG/1.1/DTD/svg11.dtd">
<!-- Generated by graphviz version 2.38.0 (20140413.2041)
 -->
<!-- Title: Json::OurReader::getNextChar Pages: 1 -->
<!--zoomable 204 -->
<svg id="main" version="1.1" xmlns="http://www.w3.org/2000/svg" xmlns:xlink="http://www.w3.org/1999/xlink" xml:space="preserve" onload="init(evt)">
<style type="text/css"><![CDATA[
.edge:hover path { stroke: red; }
.edge:hover polygon { stroke: red; fill: red; }
]]></style>
<script type="text/javascript"><![CDATA[
var edges = document.getElementsByTagName('g');
if (edges && edges.length) {
  for (var i=0;i<edges.length;i++) {
    if (edges[i].id.substr(0,4)=='edge') {
      edges[i].setAttribute('class','edge');
    }
  }
}
]]></script>
        <defs>
                <circle id="rim" cx="0" cy="0" r="7"/>
                <circle id="rim2" cx="0" cy="0" r="3.5"/>
                <g id="zoomPlus">
                        <use xlink:href="#rim" fill="#404040">
                                <set attributeName="fill" to="#808080" begin="zoomplus.mouseover" end="zoomplus.mouseout"/>
                        </use>
                        <path d="M-4,0h8M0,-4v8" fill="none" stroke="white" stroke-width="1.5" pointer-events="none"/>
                </g>
                <g id="zoomMin">
                        <use xlink:href="#rim" fill="#404040">
                                <set attributeName="fill" to="#808080" begin="zoomminus.mouseover" end="zoomminus.mouseout"/>
                        </use>
                        <path d="M-4,0h8" fill="none" stroke="white" stroke-width="1.5" pointer-events="none"/>
                </g>
                <g id="dirArrow">
                        <path fill="none" stroke="white" stroke-width="1.5" d="M0,-3.0v7 M-2.5,-0.5L0,-3.0L2.5,-0.5"/>
                </g>
               <g id="resetDef">
                       <use xlink:href="#rim2" fill="#404040">
                               <set attributeName="fill" to="#808080" begin="reset.mouseover" end="reset.mouseout"/>
                       </use>
               </g>
        </defs>

<script type="text/javascript">
var viewWidth = 1413;
var viewHeight = 204;
var sectionId = 'dynsection-24';
</script>
<script xlink:href="svgpan.js"/>
<svg id="graph" class="graph">
<g id="viewport">
<title>Json::OurReader::getNextChar</title>
<!-- Node121 -->
<g id="node1" class="node"><title>Node121</title>
<polygon fill="#bfbfbf" stroke="black" points="0,-105 0,-124 152,-124 152,-105 0,-105"/>
<text text-anchor="middle" x="76" y="-112" font-family="Helvetica,sans-Serif" font-size="10.00">Json::OurReader::getNextChar</text>
</g>
<!-- Node122 -->
<g id="node2" class="node"><title>Node122</title>
<g id="a_node2"><a xlink:href="class_json_1_1_our_reader.html#a0d1e66da47fe2e85f5033c59326dfdc3" target="_top" xlink:title="Json::OurReader::readToken">
<polygon fill="none" stroke="black" points="564,-81 564,-100 707,-100 707,-81 564,-81"/>
<text text-anchor="middle" x="635.5" y="-88" font-family="Helvetica,sans-Serif" font-size="10.00">Json::OurReader::readToken</text>
</a>
</g>
</g>
<!-- Node121&#45;&gt;Node122 -->
<g id="edge1" class="edge"><title>Node121&#45;&gt;Node122</title>
<path fill="none" stroke="midnightblue" d="M95.37,-130.489C116.192,-147.456 151.948,-173.208 188,-183.5 352.461,-230.45 557.264,-131.964 617.249,-100.041"/>
<polygon fill="midnightblue" stroke="midnightblue" points="97.57,-127.767 87.6521,-124.04 93.0814,-133.138 97.57,-127.767"/>
</g>
<!-- Node131 -->
<g id="node11" class="node"><title>Node131</title>
<g id="a_node11"><a xlink:href="class_json_1_1_our_reader.html#a90f6bb9e55b2bc3d6c1880809495c222" target="_top" xlink:title="Json::OurReader::readComment">
<polygon fill="none" stroke="black" points="370,-106 370,-125 528,-125 528,-106 370,-106"/>
<text text-anchor="middle" x="449" y="-113" font-family="Helvetica,sans-Serif" font-size="10.00">Json::OurReader::readComment</text>
</a>
</g>
</g>
<!-- Node121&#45;&gt;Node131 -->
<g id="edge19" class="edge"><title>Node121&#45;&gt;Node131</title>
<path fill="none" stroke="midnightblue" d="M101.332,-129.104C123.155,-141.295 156.499,-157.733 188,-164.5 251.441,-178.129 270.443,-177.581 334,-164.5 370.714,-156.944 410.185,-137.023 431.704,-125.036"/>
<polygon fill="midnightblue" stroke="midnightblue" points="102.862,-125.947 92.4445,-124.016 99.384,-132.022 102.862,-125.947"/>
</g>
<!-- Node132 -->
<g id="node12" class="node"><title>Node132</title>
<g id="a_node12"><a xlink:href="class_json_1_1_our_reader.html#aba784b125baa1b62387e767b791f2f89" target="_top" xlink:title="Json::OurReader::readCStyle\lComment">
<polygon fill="none" stroke="black" points="188,-124.5 188,-154.5 334,-154.5 334,-124.5 188,-124.5"/>
<text text-anchor="start" x="196" y="-142.5" font-family="Helvetica,sans-Serif" font-size="10.00">Json::OurReader::readCStyle</text>
<text text-anchor="middle" x="261" y="-131.5" font-family="Helvetica,sans-Serif" font-size="10.00">Comment</text>
</a>
</g>
</g>
<!-- Node121&#45;&gt;Node132 -->
<g id="edge21" class="edge"><title>Node121&#45;&gt;Node132</title>
<path fill="none" stroke="midnightblue" d="M156.887,-125.414C167.154,-126.816 177.618,-128.246 187.753,-129.63"/>
<polygon fill="midnightblue" stroke="midnightblue" points="157.088,-121.909 146.706,-124.023 156.141,-128.844 157.088,-121.909"/>
</g>
<!-- Node133 -->
<g id="node13" class="node"><title>Node133</title>
<g id="a_node13"><a xlink:href="class_json_1_1_our_reader.html#ae3de80671f0f997053e1c1c8a47a45c5" target="_top" xlink:title="Json::OurReader::readCpp\lStyleComment">
<polygon fill="none" stroke="black" points="194,-75.5 194,-105.5 328,-105.5 328,-75.5 194,-75.5"/>
<text text-anchor="start" x="202" y="-93.5" font-family="Helvetica,sans-Serif" font-size="10.00">Json::OurReader::readCpp</text>
<text text-anchor="middle" x="261" y="-82.5" font-family="Helvetica,sans-Serif" font-size="10.00">StyleComment</text>
</a>
</g>
</g>
<!-- Node121&#45;&gt;Node133 -->
<g id="edge23" class="edge"><title>Node121&#45;&gt;Node133</title>
<path fill="none" stroke="midnightblue" d="M159.577,-103.67C171.017,-102.17 182.646,-100.645 193.738,-99.1901"/>
<polygon fill="midnightblue" stroke="midnightblue" points="159.049,-100.209 149.589,-104.98 159.96,-107.15 159.049,-100.209"/>
</g>
<!-- Node134 -->
<g id="node14" class="node"><title>Node134</title>
<g id="a_node14"><a xlink:href="class_json_1_1_our_reader.html#a5d39b12671499ec5975f3bbc84b7d438" target="_top" xlink:title="Json::OurReader::readString">
<polygon fill="none" stroke="black" points="378.5,-56 378.5,-75 519.5,-75 519.5,-56 378.5,-56"/>
<text text-anchor="middle" x="449" y="-63" font-family="Helvetica,sans-Serif" font-size="10.00">Json::OurReader::readString</text>
</a>
</g>
</g>
<!-- Node121&#45;&gt;Node134 -->
<g id="edge25" class="edge"><title>Node121&#45;&gt;Node134</title>
<path fill="none" stroke="midnightblue" d="M101.747,-99.98C123.601,-88.0524 156.759,-72.0888 188,-65.5 251.49,-52.1097 325.658,-53.7573 378.493,-57.7767"/>
<polygon fill="midnightblue" stroke="midnightblue" points="99.8504,-97.0307 92.831,-104.967 103.267,-103.14 99.8504,-97.0307"/>
</g>
<!-- Node135 -->
<g id="node15" class="node"><title>Node135</title>
<g id="a_node15"><a xlink:href="class_json_1_1_our_reader.html#ac78592defdc333faf56c6d0908758da3" target="_top" xlink:title="Json::OurReader::readString\lSingleQuote">
<polygon fill="none" stroke="black" points="378.5,-0.5 378.5,-30.5 519.5,-30.5 519.5,-0.5 378.5,-0.5"/>
<text text-anchor="start" x="386.5" y="-18.5" font-family="Helvetica,sans-Serif" font-size="10.00">Json::OurReader::readString</text>
<text text-anchor="middle" x="449" y="-7.5" font-family="Helvetica,sans-Serif" font-size="10.00">SingleQuote</text>
</a>
</g>
</g>
<!-- Node121&#45;&gt;Node135 -->
<g id="edge27" class="edge"><title>Node121&#45;&gt;Node135</title>
<path fill="none" stroke="midnightblue" d="M98.2596,-99.1618C119.787,-84.4441 154.582,-62.8313 188,-51.5 250.361,-30.3551 325.16,-21.6109 378.487,-18.0052"/>
<polygon fill="midnightblue" stroke="midnightblue" points="96.0906,-96.4073 89.8888,-104.997 100.094,-102.15 96.0906,-96.4073"/>
</g>
<!-- Node123 -->
<g id="node3" class="node"><title>Node123</title>
<g id="a_node3"><a xlink:href="class_json_1_1_our_reader.html#a856dea44d92578c276856d7a65a4ebdc" target="_top" xlink:title="Json::OurReader::skipComment\lTokens">
<polygon fill="none" stroke="black" points="743,-100.5 743,-130.5 901,-130.5 901,-100.5 743,-100.5"/>
<text text-anchor="start" x="751" y="-118.5" font-family="Helvetica,sans-Serif" font-size="10.00">Json::OurReader::skipComment</text>
<text text-anchor="middle" x="822" y="-107.5" font-family="Helvetica,sans-Serif" font-size="10.00">Tokens</text>
</a>
</g>
</g>
<!-- Node122&#45;&gt;Node123 -->
<g id="edge2" class="edge"><title>Node122&#45;&gt;Node123</title>
<path fill="none" stroke="midnightblue" d="M716.847,-101.387C725.497,-102.559 734.288,-103.75 742.91,-104.919"/>
<polygon fill="midnightblue" stroke="midnightblue" points="717.157,-97.8973 706.778,-100.023 716.217,-104.834 717.157,-97.8973"/>
</g>
<!-- Node127 -->
<g id="node7" class="node"><title>Node127</title>
<g id="a_node7"><a xlink:href="class_json_1_1_our_reader.html#aea198f8101dba55099f4d8121a993530" target="_top" xlink:title="Json::OurReader::readObject">
<polygon fill="none" stroke="black" points="1113,-101 1113,-120 1257,-120 1257,-101 1113,-101"/>
<text text-anchor="middle" x="1185" y="-108" font-family="Helvetica,sans-Serif" font-size="10.00">Json::OurReader::readObject</text>
</a>
</g>
</g>
<!-- Node122&#45;&gt;Node127 -->
<g id="edge11" class="edge"><title>Node122&#45;&gt;Node127</title>
<path fill="none" stroke="midnightblue" d="M661.284,-105.11C682.272,-116.683 713.56,-132.093 743,-139.5 887.05,-175.745 930.939,-178.526 1077,-151.5 1109.28,-145.528 1144.4,-130.222 1165.29,-120.095"/>
<polygon fill="midnightblue" stroke="midnightblue" points="662.839,-101.969 652.409,-100.106 659.401,-108.066 662.839,-101.969"/>
</g>
<!-- Node128 -->
<g id="node8" class="node"><title>Node128</title>
<g id="a_node8"><a xlink:href="class_json_1_1_our_reader.html#a0b9f58faf4212c6ecb5d8e2a1ac10257" target="_top" xlink:title="Json::OurReader::readArray">
<polygon fill="none" stroke="black" points="1115.5,-57 1115.5,-76 1254.5,-76 1254.5,-57 1115.5,-57"/>
<text text-anchor="middle" x="1185" y="-64" font-family="Helvetica,sans-Serif" font-size="10.00">Json::OurReader::readArray</text>
</a>
</g>
</g>
<!-- Node122&#45;&gt;Node128 -->
<g id="edge12" class="edge"><title>Node122&#45;&gt;Node128</title>
<path fill="none" stroke="midnightblue" d="M661.255,-75.771C682.226,-64.1276 713.504,-48.6803 743,-41.5 887.285,-6.3765 930.255,-9.74598 1077,-32.5 1106.86,-37.1293 1139.78,-48.617 1161.12,-56.9609"/>
<polygon fill="midnightblue" stroke="midnightblue" points="659.353,-72.8259 652.388,-80.8096 662.812,-78.9118 659.353,-72.8259"/>
</g>
<!-- Node129 -->
<g id="node9" class="node"><title>Node129</title>
<g id="a_node9"><a xlink:href="class_json_1_1_our_reader.html#a035651f0700a76a815e5f904c63ebb1c" target="_top" xlink:title="Json::OurReader::recover\lFromError">
<polygon fill="none" stroke="black" points="757.5,-51.5 757.5,-81.5 886.5,-81.5 886.5,-51.5 757.5,-51.5"/>
<text text-anchor="start" x="765.5" y="-69.5" font-family="Helvetica,sans-Serif" font-size="10.00">Json::OurReader::recover</text>
<text text-anchor="middle" x="822" y="-58.5" font-family="Helvetica,sans-Serif" font-size="10.00">FromError</text>
</a>
</g>
</g>
<!-- Node122&#45;&gt;Node129 -->
<g id="edge13" class="edge"><title>Node122&#45;&gt;Node129</title>
<path fill="none" stroke="midnightblue" d="M717.249,-79.996C730.708,-78.2453 744.498,-76.4514 757.451,-74.7666"/>
<polygon fill="midnightblue" stroke="midnightblue" points="716.506,-76.5631 707.041,-81.3239 717.409,-83.5046 716.506,-76.5631"/>
</g>
<!-- Node124 -->
<g id="node4" class="node"><title>Node124</title>
<g id="a_node4"><a xlink:href="class_json_1_1_our_reader.html#aba4f8749aab7f02ec17f107e392caf80" target="_top" xlink:title="Json::OurReader::parse">
<polygon fill="none" stroke="black" points="1124.5,-158 1124.5,-177 1245.5,-177 1245.5,-158 1124.5,-158"/>
<text text-anchor="middle" x="1185" y="-165" font-family="Helvetica,sans-Serif" font-size="10.00">Json::OurReader::parse</text>
</a>
</g>
</g>
<!-- Node123&#45;&gt;Node124 -->
<g id="edge3" class="edge"><title>Node123&#45;&gt;Node124</title>
<path fill="none" stroke="midnightblue" d="M871.963,-133.814C891.868,-140.505 915.261,-147.425 937,-151.5 1000.25,-163.355 1074.02,-166.815 1124.36,-167.646"/>
<polygon fill="midnightblue" stroke="midnightblue" points="873.09,-130.501 862.495,-130.562 870.815,-137.121 873.09,-130.501"/>
</g>
<!-- Node126 -->
<g id="node6" class="node"><title>Node126</title>
<g id="a_node6"><a xlink:href="class_json_1_1_our_reader.html#a1765d9670d191c89a57a22ea5591d35f" target="_top" xlink:title="Json::OurReader::readValue">
<polygon fill="none" stroke="black" points="937,-101 937,-120 1077,-120 1077,-101 937,-101"/>
<text text-anchor="middle" x="1007" y="-108" font-family="Helvetica,sans-Serif" font-size="10.00">Json::OurReader::readValue</text>
</a>
</g>
</g>
<!-- Node123&#45;&gt;Node126 -->
<g id="edge5" class="edge"><title>Node123&#45;&gt;Node126</title>
<path fill="none" stroke="midnightblue" d="M911.194,-113.09C919.789,-112.855 928.424,-112.62 936.793,-112.391"/>
<polygon fill="midnightblue" stroke="midnightblue" points="911.04,-109.593 901.139,-113.365 911.231,-116.591 911.04,-109.593"/>
</g>
<!-- Node125 -->
<g id="node5" class="node"><title>Node125</title>
<g id="a_node5"><a xlink:href="class_json_1_1_our_char_reader.html#a52a1fb5fee88d9b63dd462f63b1c9570" target="_top" xlink:title="Json::OurCharReader\l::parse">
<polygon fill="none" stroke="black" points="1293,-152.5 1293,-182.5 1405,-182.5 1405,-152.5 1293,-152.5"/>
<text text-anchor="start" x="1301" y="-170.5" font-family="Helvetica,sans-Serif" font-size="10.00">Json::OurCharReader</text>
<text text-anchor="middle" x="1349" y="-159.5" font-family="Helvetica,sans-Serif" font-size="10.00">::parse</text>
</a>
</g>
</g>
<!-- Node124&#45;&gt;Node125 -->
<g id="edge4" class="edge"><title>Node124&#45;&gt;Node125</title>
<path fill="none" stroke="midnightblue" d="M1256.11,-167.5C1268.43,-167.5 1281.1,-167.5 1292.94,-167.5"/>
<polygon fill="midnightblue" stroke="midnightblue" points="1255.86,-164 1245.86,-167.5 1255.86,-171 1255.86,-164"/>
</g>
<!-- Node126&#45;&gt;Node124 -->
<g id="edge6" class="edge"><title>Node126&#45;&gt;Node124</title>
<path fill="none" stroke="midnightblue" d="M1047.08,-123.156C1079.52,-133.663 1124.97,-148.382 1154.45,-157.928"/>
<polygon fill="midnightblue" stroke="midnightblue" points="1048.05,-119.792 1037.46,-120.041 1045.89,-126.451 1048.05,-119.792"/>
</g>
<!-- Node126&#45;&gt;Node127 -->
<g id="edge7" class="edge"><title>Node126&#45;&gt;Node127</title>
<path fill="none" stroke="midnightblue" d="M1087.06,-103.781C1095.65,-103.721 1104.35,-103.748 1112.83,-103.861"/>
<polygon fill="midnightblue" stroke="midnightblue" points="1087.02,-100.281 1077.05,-103.891 1087.09,-107.281 1087.02,-100.281"/>
</g>
<!-- Node126&#45;&gt;Node128 -->
<g id="edge9" class="edge"><title>Node126&#45;&gt;Node128</title>
<path fill="none" stroke="midnightblue" d="M1037.77,-97.8464C1060.11,-90.8495 1091.53,-82.5548 1119.52,-76.0895"/>
<polygon fill="midnightblue" stroke="midnightblue" points="1036.62,-94.5399 1028.19,-100.959 1038.78,-101.197 1036.62,-94.5399"/>
</g>
<!-- Node127&#45;&gt;Node126 -->
<g id="edge8" class="edge"><title>Node127&#45;&gt;Node126</title>
<path fill="none" stroke="midnightblue" d="M1102.79,-117.232C1094.19,-117.278 1085.5,-117.236 1077.05,-117.109"/>
<polygon fill="midnightblue" stroke="midnightblue" points="1102.86,-120.732 1112.83,-117.139 1102.8,-113.732 1102.86,-120.732"/>
</g>
<!-- Node128&#45;&gt;Node126 -->
<g id="edge10" class="edge"><title>Node128&#45;&gt;Node126</title>
<path fill="none" stroke="midnightblue" d="M1154.05,-79.2092C1131.74,-86.1899 1100.44,-94.4516 1072.54,-100.898"/>
<polygon fill="midnightblue" stroke="midnightblue" points="1155.2,-82.5183 1163.63,-76.1032 1153.04,-75.86 1155.2,-82.5183"/>
</g>
<!-- Node129&#45;&gt;Node127 -->
<g id="edge14" class="edge"><title>Node129&#45;&gt;Node127</title>
<path fill="none" stroke="midnightblue" d="M892.838,-85.876C895.653,-87.3152 898.387,-88.8545 901,-90.5 920.962,-103.069 915.391,-120.039 937,-129.5 1012.05,-162.361 1112.18,-135.794 1158.51,-120.049"/>
<polygon fill="midnightblue" stroke="midnightblue" points="894.167,-82.6344 883.621,-81.6126 891.228,-88.9876 894.167,-82.6344"/>
</g>
<!-- Node129&#45;&gt;Node128 -->
<g id="edge15" class="edge"><title>Node129&#45;&gt;Node128</title>
<path fill="none" stroke="midnightblue" d="M889.943,-49.2992C905.3,-46.0582 921.632,-43.1653 937,-41.5 998.86,-34.7967 1015.19,-34.3748 1077,-41.5 1102.39,-44.4272 1130.52,-51.1397 1151.56,-56.8727"/>
<polygon fill="midnightblue" stroke="midnightblue" points="889.033,-45.9152 880.011,-51.4698 890.528,-52.7538 889.033,-45.9152"/>
</g>
<!-- Node130 -->
<g id="node10" class="node"><title>Node130</title>
<g id="a_node10"><a xlink:href="class_json_1_1_our_reader.html#ae68a7047acd692be8077e259d524c6d9" target="_top" xlink:title="Json::OurReader::addError\lAndRecover">
<polygon fill="none" stroke="black" points="940,-51.5 940,-81.5 1074,-81.5 1074,-51.5 940,-51.5"/>
<text text-anchor="start" x="948" y="-69.5" font-family="Helvetica,sans-Serif" font-size="10.00">Json::OurReader::addError</text>
<text text-anchor="middle" x="1007" y="-58.5" font-family="Helvetica,sans-Serif" font-size="10.00">AndRecover</text>
</a>
</g>
</g>
<!-- Node129&#45;&gt;Node130 -->
<g id="edge16" class="edge"><title>Node129&#45;&gt;Node130</title>
<path fill="none" stroke="midnightblue" d="M896.986,-66.5C911.219,-66.5 926.038,-66.5 939.997,-66.5"/>
<polygon fill="midnightblue" stroke="midnightblue" points="896.748,-63.0001 886.748,-66.5 896.748,-70.0001 896.748,-63.0001"/>
</g>
<!-- Node130&#45;&gt;Node127 -->
<g id="edge17" class="edge"><title>Node130&#45;&gt;Node127</title>
<path fill="none" stroke="midnightblue" d="M1077.9,-83.9741C1101.11,-89.7763 1126.07,-96.0176 1145.95,-100.988"/>
<polygon fill="midnightblue" stroke="midnightblue" points="1078.63,-80.5492 1068.08,-81.5192 1076.93,-87.3402 1078.63,-80.5492"/>
</g>
<!-- Node130&#45;&gt;Node128 -->
<g id="edge18" class="edge"><title>Node130&#45;&gt;Node128</title>
<path fill="none" stroke="midnightblue" d="M1084.25,-66.5C1094.55,-66.5 1105.08,-66.5 1115.24,-66.5"/>
<polygon fill="midnightblue" stroke="midnightblue" points="1084.04,-63.0001 1074.04,-66.5 1084.04,-70.0001 1084.04,-63.0001"/>
</g>
<!-- Node131&#45;&gt;Node122 -->
<g id="edge20" class="edge"><title>Node131&#45;&gt;Node122</title>
<path fill="none" stroke="midnightblue" d="M530.479,-104.595C541.68,-103.077 553.116,-101.528 564.112,-100.038"/>
<polygon fill="midnightblue" stroke="midnightblue" points="529.717,-101.166 520.278,-105.977 530.657,-108.103 529.717,-101.166"/>
</g>
<!-- Node132&#45;&gt;Node131 -->
<g id="edge22" class="edge"><title>Node132&#45;&gt;Node131</title>
<path fill="none" stroke="midnightblue" d="M344.151,-128.9C354.198,-127.604 364.416,-126.285 374.328,-125.006"/>
<polygon fill="midnightblue" stroke="midnightblue" points="343.649,-125.436 334.179,-130.187 344.544,-132.378 343.649,-125.436"/>
</g>
<!-- Node133&#45;&gt;Node131 -->
<g id="edge24" class="edge"><title>Node133&#45;&gt;Node131</title>
<path fill="none" stroke="midnightblue" d="M338.277,-100.752C351.108,-102.477 364.379,-104.261 377.068,-105.966"/>
<polygon fill="midnightblue" stroke="midnightblue" points="338.478,-97.2478 328.1,-99.3845 337.545,-104.185 338.478,-97.2478"/>
</g>
<!-- Node134&#45;&gt;Node122 -->
<g id="edge26" class="edge"><title>Node134&#45;&gt;Node122</title>
<path fill="none" stroke="midnightblue" d="M529.775,-76.3096C541.278,-77.8683 553.046,-79.4628 564.344,-80.9937"/>
<polygon fill="midnightblue" stroke="midnightblue" points="530.131,-72.826 519.752,-74.9514 529.191,-79.7626 530.131,-72.826"/>
</g>
<!-- Node135&#45;&gt;Node122 -->
<g id="edge28" class="edge"><title>Node135&#45;&gt;Node122</title>
<path fill="none" stroke="midnightblue" d="M497.58,-34.2917C507.635,-38.2961 518.175,-42.5183 528,-46.5 556.923,-58.2218 590.144,-71.9965 611.684,-80.9694"/>
<polygon fill="midnightblue" stroke="midnightblue" points="498.713,-30.9756 488.127,-30.5341 496.127,-37.4806 498.713,-30.9756"/>
</g>
</g>
</svg>
        <g id="navigator" transform="translate(0 0)" fill="#404254">
                <rect fill="#f2f5e9" fill-opacity="0.5" stroke="#606060" stroke-width=".5" x="0" y="0" width="60" height="60"/>
                <use id="zoomplus" xlink:href="#zoomPlus" x="17" y="9" onmousedown="handleZoom(evt,'in')"/>
                <use id="zoomminus" xlink:href="#zoomMin" x="42" y="9" onmousedown="handleZoom(evt,'out')"/>
                <use id="reset" xlink:href="#resetDef" x="30" y="36" onmousedown="handleReset()"/>
                <g id="arrowUp" xlink:href="#dirArrow" transform="translate(30 24)" onmousedown="handlePan(0,-1)">
                  <use xlink:href="#rim" fill="#404040">
                        <set attributeName="fill" to="#808080" begin="arrowUp.mouseover" end="arrowUp.mouseout"/>
                  </use>
                  <path fill="none" stroke="white" stroke-width="1.5" d="M0,-3.0v7 M-2.5,-0.5L0,-3.0L2.5,-0.5"/>
                </g>
                <g id="arrowRight" xlink:href="#dirArrow" transform="rotate(90) translate(36 -43)" onmousedown="handlePan(1,0)">
                  <use xlink:href="#rim" fill="#404040">
                        <set attributeName="fill" to="#808080" begin="arrowRight.mouseover" end="arrowRight.mouseout"/>
                  </use>
                  <path fill="none" stroke="white" stroke-width="1.5" d="M0,-3.0v7 M-2.5,-0.5L0,-3.0L2.5,-0.5"/>
                </g>
                <g id="arrowDown" xlink:href="#dirArrow" transform="rotate(180) translate(-30 -48)" onmousedown="handlePan(0,1)">
                  <use xlink:href="#rim" fill="#404040">
                        <set attributeName="fill" to="#808080" begin="arrowDown.mouseover" end="arrowDown.mouseout"/>
                  </use>
                  <path fill="none" stroke="white" stroke-width="1.5" d="M0,-3.0v7 M-2.5,-0.5L0,-3.0L2.5,-0.5"/>
                </g>
                <g id="arrowLeft" xlink:href="#dirArrow" transform="rotate(270) translate(-36 17)" onmousedown="handlePan(-1,0)">
                  <use xlink:href="#rim" fill="#404040">
                        <set attributeName="fill" to="#808080" begin="arrowLeft.mouseover" end="arrowLeft.mouseout"/>
                  </use>
                  <path fill="none" stroke="white" stroke-width="1.5" d="M0,-3.0v7 M-2.5,-0.5L0,-3.0L2.5,-0.5"/>
                </g>
        </g>
        <svg viewBox="0 0 15 15" width="100%" height="30px" preserveAspectRatio="xMaxYMin meet">
         <g id="arrow_out" transform="scale(0.3 0.3)">
          <a xlink:href="class_json_1_1_our_reader_a298285d035fdbc554caae09d9f0a5859_icgraph_org.svg" target="_base">
           <rect id="button" ry="5" rx="5" y="6" x="6" height="38" width="38"
                fill="#f2f5e9" fill-opacity="0.5" stroke="#606060" stroke-width="1.0"/>
           <path id="arrow"
             d="M 11.500037,31.436501 C 11.940474,20.09759 22.043105,11.32322 32.158766,21.979434 L 37.068811,17.246167 C 37.068811,17.246167 37.088388,32 37.088388,32 L 22.160133,31.978069 C 22.160133,31.978069 26.997745,27.140456 26.997745,27.140456 C 18.528582,18.264221 13.291696,25.230495 11.500037,31.436501 z"
             style="fill:#404040;"/>
          </a>
         </g>
        </svg>
</svg>
