<?xml version="1.0" encoding="UTF-8" standalone="no"?>
<!DOCTYPE svg PUBLIC "-//W3C//DTD SVG 1.1//EN"
 "http://www.w3.org/Graphics/SVG/1.1/DTD/svg11.dtd">
<!-- Generated by graphviz version 2.38.0 (20140413.2041)
 -->
<!-- Title: MinecraftServerService::GenericServer::restartServer Pages: 1 -->
<svg width="918pt" height="147pt"
 viewBox="0.00 0.00 918.00 146.71" xmlns="http://www.w3.org/2000/svg" xmlns:xlink="http://www.w3.org/1999/xlink">
<g id="graph0" class="graph" transform="scale(1 1) rotate(0) translate(4 142.712)">
<title>MinecraftServerService::GenericServer::restartServer</title>
<!-- Node18 -->
<g id="node1" class="node"><title>Node18</title>
<polygon fill="#bfbfbf" stroke="black" points="0,-93.5 0,-123.5 147,-123.5 147,-93.5 0,-93.5"/>
<text text-anchor="start" x="8" y="-111.5" font-family="Helvetica,sans-Serif" font-size="10.00">MinecraftServerService</text>
<text text-anchor="middle" x="73.5" y="-100.5" font-family="Helvetica,sans-Serif" font-size="10.00">::GenericServer::restartServer</text>
</g>
<!-- Node19 -->
<g id="node2" class="node"><title>Node19</title>
<g id="a_node2"><a xlink:href="class_minecraft_server_service_1_1_server.html#a1954e7c7756cd956e7282887ffca73e4" target="_top" xlink:title="MinecraftServerService\l::Server::isRunning">
<polygon fill="none" stroke="black" points="373.5,-93.5 373.5,-123.5 492.5,-123.5 492.5,-93.5 373.5,-93.5"/>
<text text-anchor="start" x="381.5" y="-111.5" font-family="Helvetica,sans-Serif" font-size="10.00">MinecraftServerService</text>
<text text-anchor="middle" x="433" y="-100.5" font-family="Helvetica,sans-Serif" font-size="10.00">::Server::isRunning</text>
</a>
</g>
</g>
<!-- Node18&#45;&gt;Node19 -->
<g id="edge1" class="edge"><title>Node18&#45;&gt;Node19</title>
<path fill="none" stroke="midnightblue" d="M128.722,-123.529C145.935,-127.614 165.138,-131.469 183,-133.5 244.382,-140.48 260.607,-140.389 322,-133.5 336.706,-131.85 352.314,-128.996 367.011,-125.792"/>
<polygon fill="midnightblue" stroke="midnightblue" points="368.036,-129.149 377.017,-123.529 366.491,-122.321 368.036,-129.149"/>
</g>
<!-- Node20 -->
<g id="node3" class="node"><title>Node20</title>
<g id="a_node3"><a xlink:href="class_minecraft_server_service_1_1_generic_server.html#a81adc767332fdbffdb1ca2ca5c4033ec" target="_top" xlink:title="MinecraftServerService\l::GenericServer::stopServer">
<polygon fill="none" stroke="black" points="183.5,-93.5 183.5,-123.5 321.5,-123.5 321.5,-93.5 183.5,-93.5"/>
<text text-anchor="start" x="191.5" y="-111.5" font-family="Helvetica,sans-Serif" font-size="10.00">MinecraftServerService</text>
<text text-anchor="middle" x="252.5" y="-100.5" font-family="Helvetica,sans-Serif" font-size="10.00">::GenericServer::stopServer</text>
</a>
</g>
</g>
<!-- Node18&#45;&gt;Node20 -->
<g id="edge2" class="edge"><title>Node18&#45;&gt;Node20</title>
<path fill="none" stroke="midnightblue" d="M147.003,-108.5C155.649,-108.5 164.506,-108.5 173.229,-108.5"/>
<polygon fill="midnightblue" stroke="midnightblue" points="173.386,-112 183.386,-108.5 173.386,-105 173.386,-112"/>
</g>
<!-- Node21 -->
<g id="node4" class="node"><title>Node21</title>
<g id="a_node4"><a xlink:href="class_minecraft_server_service_1_1_generic_server.html#aa3e2da3f6458e579697154360f6e05e5" target="_top" xlink:title="MinecraftServerService\l::GenericServer::startServer">
<polygon fill="none" stroke="black" points="183,-44.5 183,-74.5 322,-74.5 322,-44.5 183,-44.5"/>
<text text-anchor="start" x="191" y="-62.5" font-family="Helvetica,sans-Serif" font-size="10.00">MinecraftServerService</text>
<text text-anchor="middle" x="252.5" y="-51.5" font-family="Helvetica,sans-Serif" font-size="10.00">::GenericServer::startServer</text>
</a>
</g>
</g>
<!-- Node18&#45;&gt;Node21 -->
<g id="edge4" class="edge"><title>Node18&#45;&gt;Node21</title>
<path fill="none" stroke="midnightblue" d="M129.05,-93.3986C147.474,-88.2981 168.212,-82.5571 187.312,-77.2695"/>
<polygon fill="midnightblue" stroke="midnightblue" points="188.426,-80.5928 197.13,-74.5516 186.559,-73.8465 188.426,-80.5928"/>
</g>
<!-- Node20&#45;&gt;Node19 -->
<g id="edge3" class="edge"><title>Node20&#45;&gt;Node19</title>
<path fill="none" stroke="midnightblue" d="M321.747,-108.5C335.315,-108.5 349.57,-108.5 363.158,-108.5"/>
<polygon fill="midnightblue" stroke="midnightblue" points="363.397,-112 373.396,-108.5 363.396,-105 363.397,-112"/>
</g>
<!-- Node21&#45;&gt;Node19 -->
<g id="edge5" class="edge"><title>Node21&#45;&gt;Node19</title>
<path fill="none" stroke="midnightblue" d="M308.512,-74.6014C327.093,-79.7019 348.006,-85.4429 367.268,-90.7305"/>
<polygon fill="midnightblue" stroke="midnightblue" points="366.599,-94.1763 377.169,-93.4484 368.453,-87.426 366.599,-94.1763"/>
</g>
<!-- Node22 -->
<g id="node5" class="node"><title>Node22</title>
<g id="a_node5"><a xlink:href="class_minecraft_server_service_1_1_server.html#a16a19b4cfd94f23c20442cea9b46f678" target="_top" xlink:title="MinecraftServerService\l::Server::launchServerProcess">
<polygon fill="none" stroke="black" points="358,-44.5 358,-74.5 508,-74.5 508,-44.5 358,-44.5"/>
<text text-anchor="start" x="366" y="-62.5" font-family="Helvetica,sans-Serif" font-size="10.00">MinecraftServerService</text>
<text text-anchor="middle" x="433" y="-51.5" font-family="Helvetica,sans-Serif" font-size="10.00">::Server::launchServerProcess</text>
</a>
</g>
</g>
<!-- Node21&#45;&gt;Node22 -->
<g id="edge6" class="edge"><title>Node21&#45;&gt;Node22</title>
<path fill="none" stroke="midnightblue" d="M322.002,-59.5C330.411,-59.5 339.081,-59.5 347.688,-59.5"/>
<polygon fill="midnightblue" stroke="midnightblue" points="347.746,-63.0001 357.746,-59.5 347.746,-56.0001 347.746,-63.0001"/>
</g>
<!-- Node24 -->
<g id="node7" class="node"><title>Node24</title>
<g id="a_node7"><a xlink:href="class_minecraft_server_service_1_1_server.html#a3040817c744456263f8ba36bdb72bf20" target="_top" xlink:title="MinecraftServerService\l::Server::outputListenerThread">
<polygon fill="none" stroke="black" points="565,-0.5 565,-30.5 714,-30.5 714,-0.5 565,-0.5"/>
<text text-anchor="start" x="573" y="-18.5" font-family="Helvetica,sans-Serif" font-size="10.00">MinecraftServerService</text>
<text text-anchor="middle" x="639.5" y="-7.5" font-family="Helvetica,sans-Serif" font-size="10.00">::Server::outputListenerThread</text>
</a>
</g>
</g>
<!-- Node21&#45;&gt;Node24 -->
<g id="edge11" class="edge"><title>Node21&#45;&gt;Node24</title>
<path fill="none" stroke="midnightblue" d="M308.749,-44.4613C324.55,-40.6577 341.864,-36.959 358,-34.5 423.639,-24.4972 498.723,-19.76 554.68,-17.5169"/>
<polygon fill="midnightblue" stroke="midnightblue" points="555.04,-21.0057 564.899,-17.1263 554.773,-14.0108 555.04,-21.0057"/>
</g>
<!-- Node23 -->
<g id="node6" class="node"><title>Node23</title>
<g id="a_node6"><a xlink:href="class_minecraft_server_service_1_1_server.html#a085f201bd563ce47e2b41778ef72d20d" target="_top" xlink:title="MinecraftServerService\l::Server::getUIDAndGIDFromUsername">
<polygon fill="none" stroke="black" points="544,-88.5 544,-118.5 735,-118.5 735,-88.5 544,-88.5"/>
<text text-anchor="start" x="552" y="-106.5" font-family="Helvetica,sans-Serif" font-size="10.00">MinecraftServerService</text>
<text text-anchor="middle" x="639.5" y="-95.5" font-family="Helvetica,sans-Serif" font-size="10.00">::Server::getUIDAndGIDFromUsername</text>
</a>
</g>
</g>
<!-- Node22&#45;&gt;Node23 -->
<g id="edge7" class="edge"><title>Node22&#45;&gt;Node23</title>
<path fill="none" stroke="midnightblue" d="M503.805,-74.5192C521.476,-78.3212 540.589,-82.4336 558.712,-86.3328"/>
<polygon fill="midnightblue" stroke="midnightblue" points="558.15,-89.792 568.662,-88.4738 559.622,-82.9486 558.15,-89.792"/>
</g>
<!-- Node22&#45;&gt;Node24 -->
<g id="edge8" class="edge"><title>Node22&#45;&gt;Node24</title>
<path fill="none" stroke="midnightblue" d="M503.805,-44.4808C521.476,-40.6788 540.589,-36.5664 558.712,-32.6672"/>
<polygon fill="midnightblue" stroke="midnightblue" points="559.622,-36.0514 568.662,-30.5262 558.15,-29.208 559.622,-36.0514"/>
</g>
<!-- Node25 -->
<g id="node8" class="node"><title>Node25</title>
<g id="a_node8"><a xlink:href="class_minecraft_server_service_1_1_server.html#a4ecf103c62bd8f1e54b2ff436fa1645a" target="_top" xlink:title="MinecraftServerService\l::Server::serverOutputEvent">
<polygon fill="none" stroke="black" points="771,-22.5 771,-52.5 910,-52.5 910,-22.5 771,-22.5"/>
<text text-anchor="start" x="779" y="-40.5" font-family="Helvetica,sans-Serif" font-size="10.00">MinecraftServerService</text>
<text text-anchor="middle" x="840.5" y="-29.5" font-family="Helvetica,sans-Serif" font-size="10.00">::Server::serverOutputEvent</text>
</a>
</g>
</g>
<!-- Node22&#45;&gt;Node25 -->
<g id="edge10" class="edge"><title>Node22&#45;&gt;Node25</title>
<path fill="none" stroke="midnightblue" d="M508.375,-55.4649C580,-51.5789 687.937,-45.7229 760.938,-41.7623"/>
<polygon fill="midnightblue" stroke="midnightblue" points="761.203,-45.2531 770.999,-41.2164 760.824,-38.2634 761.203,-45.2531"/>
</g>
<!-- Node24&#45;&gt;Node25 -->
<g id="edge9" class="edge"><title>Node24&#45;&gt;Node25</title>
<path fill="none" stroke="midnightblue" d="M714.035,-23.6295C729.293,-25.3163 745.427,-27.1 760.861,-28.8062"/>
<polygon fill="midnightblue" stroke="midnightblue" points="760.561,-32.2943 770.885,-29.9144 761.33,-25.3367 760.561,-32.2943"/>
</g>
</g>
</svg>
