<?xml version="1.0" encoding="UTF-8" standalone="no"?>
<!DOCTYPE svg PUBLIC "-//W3C//DTD SVG 1.1//EN"
 "http://www.w3.org/Graphics/SVG/1.1/DTD/svg11.dtd">
<!-- Generated by graphviz version 2.38.0 (20140413.2041)
 -->
<!-- Title: MinecraftServerService::ServerProcessBuf::getUIDAndGIDFromUsername Pages: 1 -->
<svg width="782pt" height="50pt"
 viewBox="0.00 0.00 782.00 50.00" xmlns="http://www.w3.org/2000/svg" xmlns:xlink="http://www.w3.org/1999/xlink">
<g id="graph0" class="graph" transform="scale(1 1) rotate(0) translate(4 46)">
<title>MinecraftServerService::ServerProcessBuf::getUIDAndGIDFromUsername</title>
<!-- Node19 -->
<g id="node1" class="node"><title>Node19</title>
<polygon fill="#bfbfbf" stroke="black" points="0,-0.5 0,-41.5 157,-41.5 157,-0.5 0,-0.5"/>
<text text-anchor="start" x="8" y="-29.5" font-family="Helvetica,sans-Serif" font-size="10.00">MinecraftServerService</text>
<text text-anchor="start" x="8" y="-18.5" font-family="Helvetica,sans-Serif" font-size="10.00">::ServerProcessBuf::getUIDAnd</text>
<text text-anchor="middle" x="78.5" y="-7.5" font-family="Helvetica,sans-Serif" font-size="10.00">GIDFromUsername</text>
</g>
<!-- Node20 -->
<g id="node2" class="node"><title>Node20</title>
<g id="a_node2"><a xlink:href="class_minecraft_server_service_1_1_server_process_buf.html#ac4ad22e1d1978d98b06a999a1100fd27" target="_top" xlink:title="MinecraftServerService\l::ServerProcessBuf::launchServer\lProcess">
<polygon fill="none" stroke="black" points="193,-0.5 193,-41.5 358,-41.5 358,-0.5 193,-0.5"/>
<text text-anchor="start" x="201" y="-29.5" font-family="Helvetica,sans-Serif" font-size="10.00">MinecraftServerService</text>
<text text-anchor="start" x="201" y="-18.5" font-family="Helvetica,sans-Serif" font-size="10.00">::ServerProcessBuf::launchServer</text>
<text text-anchor="middle" x="275.5" y="-7.5" font-family="Helvetica,sans-Serif" font-size="10.00">Process</text>
</a>
</g>
</g>
<!-- Node19&#45;&gt;Node20 -->
<g id="edge1" class="edge"><title>Node19&#45;&gt;Node20</title>
<path fill="none" stroke="midnightblue" d="M167.156,-21C175.752,-21 184.451,-21 192.982,-21"/>
<polygon fill="midnightblue" stroke="midnightblue" points="167.13,-17.5001 157.129,-21 167.129,-24.5001 167.13,-17.5001"/>
</g>
<!-- Node21 -->
<g id="node3" class="node"><title>Node21</title>
<g id="a_node3"><a xlink:href="class_minecraft_server_service_1_1_server_process_buf.html#a53c4f3c1837c2d1f5ce2a3388f8eaecf" target="_top" xlink:title="MinecraftServerService\l::ServerProcessBuf::startServer">
<polygon fill="none" stroke="black" points="394,-6 394,-36 550,-36 550,-6 394,-6"/>
<text text-anchor="start" x="402" y="-24" font-family="Helvetica,sans-Serif" font-size="10.00">MinecraftServerService</text>
<text text-anchor="middle" x="472" y="-13" font-family="Helvetica,sans-Serif" font-size="10.00">::ServerProcessBuf::startServer</text>
</a>
</g>
</g>
<!-- Node20&#45;&gt;Node21 -->
<g id="edge2" class="edge"><title>Node20&#45;&gt;Node21</title>
<path fill="none" stroke="midnightblue" d="M368.199,-21C376.804,-21 385.467,-21 393.918,-21"/>
<polygon fill="midnightblue" stroke="midnightblue" points="368.14,-17.5001 358.14,-21 368.14,-24.5001 368.14,-17.5001"/>
</g>
<!-- Node22 -->
<g id="node4" class="node"><title>Node22</title>
<g id="a_node4"><a xlink:href="class_minecraft_server_service_1_1_server_process_buf.html#a85dc6fa4e2d6a14cfed883b1fc7fec00" target="_top" xlink:title="MinecraftServerService\l::ServerProcessBuf::ServerProcessBuf">
<polygon fill="none" stroke="black" points="586,-6 586,-36 774,-36 774,-6 586,-6"/>
<text text-anchor="start" x="594" y="-24" font-family="Helvetica,sans-Serif" font-size="10.00">MinecraftServerService</text>
<text text-anchor="middle" x="680" y="-13" font-family="Helvetica,sans-Serif" font-size="10.00">::ServerProcessBuf::ServerProcessBuf</text>
</a>
</g>
</g>
<!-- Node21&#45;&gt;Node22 -->
<g id="edge3" class="edge"><title>Node21&#45;&gt;Node22</title>
<path fill="none" stroke="midnightblue" d="M560.493,-21C568.926,-21 577.501,-21 585.984,-21"/>
<polygon fill="midnightblue" stroke="midnightblue" points="560.293,-17.5001 550.293,-21 560.293,-24.5001 560.293,-17.5001"/>
</g>
</g>
</svg>
