<?xml version="1.0" encoding="UTF-8" standalone="no"?>
<!DOCTYPE svg PUBLIC "-//W3C//DTD SVG 1.1//EN"
 "http://www.w3.org/Graphics/SVG/1.1/DTD/svg11.dtd">
<!-- Generated by graphviz version 2.38.0 (20140413.2041)
 -->
<!-- Title: Json::OurReader::readObject Pages: 1 -->
<svg width="651pt" height="72pt"
 viewBox="0.00 0.00 651.00 71.50" xmlns="http://www.w3.org/2000/svg" xmlns:xlink="http://www.w3.org/1999/xlink">
<g id="graph0" class="graph" transform="scale(1 1) rotate(0) translate(4 67.5)">
<title>Json::OurReader::readObject</title>
<!-- Node296 -->
<g id="node1" class="node"><title>Node296</title>
<polygon fill="#bfbfbf" stroke="black" points="0,-0.5 0,-19.5 144,-19.5 144,-0.5 0,-0.5"/>
<text text-anchor="middle" x="72" y="-7.5" font-family="Helvetica,sans-Serif" font-size="10.00">Json::OurReader::readObject</text>
</g>
<!-- Node297 -->
<g id="node2" class="node"><title>Node297</title>
<g id="a_node2"><a xlink:href="class_json_1_1_our_reader.html#a1765d9670d191c89a57a22ea5591d35f" target="_top" xlink:title="Json::OurReader::readValue">
<polygon fill="none" stroke="black" points="180,-0.5 180,-19.5 320,-19.5 320,-0.5 180,-0.5"/>
<text text-anchor="middle" x="250" y="-7.5" font-family="Helvetica,sans-Serif" font-size="10.00">Json::OurReader::readValue</text>
</a>
</g>
</g>
<!-- Node296&#45;&gt;Node297 -->
<g id="edge1" class="edge"><title>Node296&#45;&gt;Node297</title>
<path fill="none" stroke="midnightblue" d="M154.141,-3.26826C162.764,-3.22227 171.475,-3.26316 179.941,-3.39094"/>
<polygon fill="midnightblue" stroke="midnightblue" points="154.045,0.231102 144.079,-3.36216 154.111,-6.76859 154.045,0.231102"/>
</g>
<!-- Node297&#45;&gt;Node296 -->
<g id="edge4" class="edge"><title>Node297&#45;&gt;Node296</title>
<path fill="none" stroke="midnightblue" d="M169.91,-16.7191C161.303,-16.7789 152.581,-16.7518 144.079,-16.6378"/>
<polygon fill="midnightblue" stroke="midnightblue" points="169.98,-20.2187 179.941,-16.6091 169.903,-13.2191 169.98,-20.2187"/>
</g>
<!-- Node298 -->
<g id="node3" class="node"><title>Node298</title>
<g id="a_node3"><a xlink:href="class_json_1_1_our_reader.html#aba4f8749aab7f02ec17f107e392caf80" target="_top" xlink:title="Json::OurReader::parse">
<polygon fill="none" stroke="black" points="365,-38.5 365,-57.5 486,-57.5 486,-38.5 365,-38.5"/>
<text text-anchor="middle" x="425.5" y="-45.5" font-family="Helvetica,sans-Serif" font-size="10.00">Json::OurReader::parse</text>
</a>
</g>
</g>
<!-- Node297&#45;&gt;Node298 -->
<g id="edge2" class="edge"><title>Node297&#45;&gt;Node298</title>
<path fill="none" stroke="midnightblue" d="M304.66,-21.7526C329.193,-27.1258 357.879,-33.4086 381.033,-38.4799"/>
<polygon fill="midnightblue" stroke="midnightblue" points="305.299,-18.3096 294.781,-19.589 303.801,-25.1475 305.299,-18.3096"/>
</g>
<!-- Node300 -->
<g id="node5" class="node"><title>Node300</title>
<g id="a_node5"><a xlink:href="class_json_1_1_our_reader.html#a0b9f58faf4212c6ecb5d8e2a1ac10257" target="_top" xlink:title="Json::OurReader::readArray">
<polygon fill="none" stroke="black" points="356,-0.5 356,-19.5 495,-19.5 495,-0.5 356,-0.5"/>
<text text-anchor="middle" x="425.5" y="-7.5" font-family="Helvetica,sans-Serif" font-size="10.00">Json::OurReader::readArray</text>
</a>
</g>
</g>
<!-- Node297&#45;&gt;Node300 -->
<g id="edge5" class="edge"><title>Node297&#45;&gt;Node300</title>
<path fill="none" stroke="midnightblue" d="M330.125,-3.27323C338.747,-3.22057 347.47,-3.25743 355.951,-3.38382"/>
<polygon fill="midnightblue" stroke="midnightblue" points="330.034,0.22612 320.07,-3.37617 330.106,-6.77351 330.034,0.22612"/>
</g>
<!-- Node299 -->
<g id="node4" class="node"><title>Node299</title>
<g id="a_node4"><a xlink:href="class_json_1_1_our_char_reader.html#a52a1fb5fee88d9b63dd462f63b1c9570" target="_top" xlink:title="Json::OurCharReader\l::parse">
<polygon fill="none" stroke="black" points="531,-33 531,-63 643,-63 643,-33 531,-33"/>
<text text-anchor="start" x="539" y="-51" font-family="Helvetica,sans-Serif" font-size="10.00">Json::OurCharReader</text>
<text text-anchor="middle" x="587" y="-40" font-family="Helvetica,sans-Serif" font-size="10.00">::parse</text>
</a>
</g>
</g>
<!-- Node298&#45;&gt;Node299 -->
<g id="edge3" class="edge"><title>Node298&#45;&gt;Node299</title>
<path fill="none" stroke="midnightblue" d="M496.381,-48C507.91,-48 519.718,-48 530.822,-48"/>
<polygon fill="midnightblue" stroke="midnightblue" points="496.346,-44.5001 486.346,-48 496.346,-51.5001 496.346,-44.5001"/>
</g>
<!-- Node300&#45;&gt;Node297 -->
<g id="edge6" class="edge"><title>Node300&#45;&gt;Node297</title>
<path fill="none" stroke="midnightblue" d="M345.904,-16.7234C337.287,-16.7797 328.56,-16.7465 320.07,-16.6238"/>
<polygon fill="midnightblue" stroke="midnightblue" points="345.989,-20.2228 355.951,-16.6162 345.914,-13.2232 345.989,-20.2228"/>
</g>
</g>
</svg>
