<?xml version="1.0" encoding="UTF-8" standalone="no"?>
<!DOCTYPE svg PUBLIC "-//W3C//DTD SVG 1.1//EN"
 "http://www.w3.org/Graphics/SVG/1.1/DTD/svg11.dtd">
<!-- Generated by graphviz version 2.38.0 (20140413.2041)
 -->
<!-- Title: Json::OurReader::readStringSingleQuote Pages: 1 -->
<!--zoomable 176 -->
<svg id="main" version="1.1" xmlns="http://www.w3.org/2000/svg" xmlns:xlink="http://www.w3.org/1999/xlink" xml:space="preserve" onload="init(evt)">
<style type="text/css"><![CDATA[
.edge:hover path { stroke: red; }
.edge:hover polygon { stroke: red; fill: red; }
]]></style>
<script type="text/javascript"><![CDATA[
var edges = document.getElementsByTagName('g');
if (edges && edges.length) {
  for (var i=0;i<edges.length;i++) {
    if (edges[i].id.substr(0,4)=='edge') {
      edges[i].setAttribute('class','edge');
    }
  }
}
]]></script>
        <defs>
                <circle id="rim" cx="0" cy="0" r="7"/>
                <circle id="rim2" cx="0" cy="0" r="3.5"/>
                <g id="zoomPlus">
                        <use xlink:href="#rim" fill="#404040">
                                <set attributeName="fill" to="#808080" begin="zoomplus.mouseover" end="zoomplus.mouseout"/>
                        </use>
                        <path d="M-4,0h8M0,-4v8" fill="none" stroke="white" stroke-width="1.5" pointer-events="none"/>
                </g>
                <g id="zoomMin">
                        <use xlink:href="#rim" fill="#404040">
                                <set attributeName="fill" to="#808080" begin="zoomminus.mouseover" end="zoomminus.mouseout"/>
                        </use>
                        <path d="M-4,0h8" fill="none" stroke="white" stroke-width="1.5" pointer-events="none"/>
                </g>
                <g id="dirArrow">
                        <path fill="none" stroke="white" stroke-width="1.5" d="M0,-3.0v7 M-2.5,-0.5L0,-3.0L2.5,-0.5"/>
                </g>
               <g id="resetDef">
                       <use xlink:href="#rim2" fill="#404040">
                               <set attributeName="fill" to="#808080" begin="reset.mouseover" end="reset.mouseout"/>
                       </use>
               </g>
        </defs>

<script type="text/javascript">
var viewWidth = 1026;
var viewHeight = 176;
var sectionId = 'dynsection-42';
</script>
<script xlink:href="svgpan.js"/>
<svg id="graph" class="graph">
<g id="viewport">
<title>Json::OurReader::readStringSingleQuote</title>
<!-- Node315 -->
<g id="node1" class="node"><title>Node315</title>
<polygon fill="#bfbfbf" stroke="black" points="0,-60.556 0,-90.556 141,-90.556 141,-60.556 0,-60.556"/>
<text text-anchor="start" x="8" y="-78.556" font-family="Helvetica,sans-Serif" font-size="10.00">Json::OurReader::readString</text>
<text text-anchor="middle" x="70.5" y="-67.556" font-family="Helvetica,sans-Serif" font-size="10.00">SingleQuote</text>
</g>
<!-- Node316 -->
<g id="node2" class="node"><title>Node316</title>
<g id="a_node2"><a xlink:href="class_json_1_1_our_reader.html#a0d1e66da47fe2e85f5033c59326dfdc3" target="_top" xlink:title="Json::OurReader::readToken">
<polygon fill="none" stroke="black" points="177,-66.056 177,-85.056 320,-85.056 320,-66.056 177,-66.056"/>
<text text-anchor="middle" x="248.5" y="-73.056" font-family="Helvetica,sans-Serif" font-size="10.00">Json::OurReader::readToken</text>
</a>
</g>
</g>
<!-- Node315&#45;&gt;Node316 -->
<g id="edge1" class="edge"><title>Node315&#45;&gt;Node316</title>
<path fill="none" stroke="midnightblue" d="M151.318,-75.556C159.788,-75.556 168.359,-75.556 176.714,-75.556"/>
<polygon fill="midnightblue" stroke="midnightblue" points="151.06,-72.0561 141.06,-75.556 151.06,-79.0561 151.06,-72.0561"/>
</g>
<!-- Node317 -->
<g id="node3" class="node"><title>Node317</title>
<g id="a_node3"><a xlink:href="class_json_1_1_our_reader.html#a856dea44d92578c276856d7a65a4ebdc" target="_top" xlink:title="Json::OurReader::skipComment\lTokens">
<polygon fill="none" stroke="black" points="356,-85.556 356,-115.556 514,-115.556 514,-85.556 356,-85.556"/>
<text text-anchor="start" x="364" y="-103.556" font-family="Helvetica,sans-Serif" font-size="10.00">Json::OurReader::skipComment</text>
<text text-anchor="middle" x="435" y="-92.556" font-family="Helvetica,sans-Serif" font-size="10.00">Tokens</text>
</a>
</g>
</g>
<!-- Node316&#45;&gt;Node317 -->
<g id="edge2" class="edge"><title>Node316&#45;&gt;Node317</title>
<path fill="none" stroke="midnightblue" d="M329.847,-86.4432C338.497,-87.6152 347.288,-88.8064 355.91,-89.9747"/>
<polygon fill="midnightblue" stroke="midnightblue" points="330.157,-82.9532 319.778,-85.0787 329.217,-89.8899 330.157,-82.9532"/>
</g>
<!-- Node321 -->
<g id="node7" class="node"><title>Node321</title>
<g id="a_node7"><a xlink:href="class_json_1_1_our_reader.html#aea198f8101dba55099f4d8121a993530" target="_top" xlink:title="Json::OurReader::readObject">
<polygon fill="none" stroke="black" points="726,-86.056 726,-105.056 870,-105.056 870,-86.056 726,-86.056"/>
<text text-anchor="middle" x="798" y="-93.056" font-family="Helvetica,sans-Serif" font-size="10.00">Json::OurReader::readObject</text>
</a>
</g>
</g>
<!-- Node316&#45;&gt;Node321 -->
<g id="edge11" class="edge"><title>Node316&#45;&gt;Node321</title>
<path fill="none" stroke="midnightblue" d="M274.284,-90.1663C295.272,-101.739 326.56,-117.149 356,-124.556 500.05,-160.801 543.939,-163.582 690,-136.556 722.276,-130.584 757.396,-115.278 778.286,-105.151"/>
<polygon fill="midnightblue" stroke="midnightblue" points="275.839,-87.0249 265.409,-85.1617 272.401,-93.1223 275.839,-87.0249"/>
</g>
<!-- Node322 -->
<g id="node8" class="node"><title>Node322</title>
<g id="a_node8"><a xlink:href="class_json_1_1_our_reader.html#a0b9f58faf4212c6ecb5d8e2a1ac10257" target="_top" xlink:title="Json::OurReader::readArray">
<polygon fill="none" stroke="black" points="728.5,-42.056 728.5,-61.056 867.5,-61.056 867.5,-42.056 728.5,-42.056"/>
<text text-anchor="middle" x="798" y="-49.056" font-family="Helvetica,sans-Serif" font-size="10.00">Json::OurReader::readArray</text>
</a>
</g>
</g>
<!-- Node316&#45;&gt;Node322 -->
<g id="edge12" class="edge"><title>Node316&#45;&gt;Node322</title>
<path fill="none" stroke="midnightblue" d="M274.255,-60.827C295.226,-49.1836 326.504,-33.7362 356,-26.556 500.285,8.56752 543.255,5.19804 690,-17.556 719.855,-22.1853 752.783,-33.6729 774.118,-42.0168"/>
<polygon fill="midnightblue" stroke="midnightblue" points="272.353,-57.8819 265.388,-65.8656 275.812,-63.9678 272.353,-57.8819"/>
</g>
<!-- Node323 -->
<g id="node9" class="node"><title>Node323</title>
<g id="a_node9"><a xlink:href="class_json_1_1_our_reader.html#a035651f0700a76a815e5f904c63ebb1c" target="_top" xlink:title="Json::OurReader::recover\lFromError">
<polygon fill="none" stroke="black" points="370.5,-36.556 370.5,-66.556 499.5,-66.556 499.5,-36.556 370.5,-36.556"/>
<text text-anchor="start" x="378.5" y="-54.556" font-family="Helvetica,sans-Serif" font-size="10.00">Json::OurReader::recover</text>
<text text-anchor="middle" x="435" y="-43.556" font-family="Helvetica,sans-Serif" font-size="10.00">FromError</text>
</a>
</g>
</g>
<!-- Node316&#45;&gt;Node323 -->
<g id="edge13" class="edge"><title>Node316&#45;&gt;Node323</title>
<path fill="none" stroke="midnightblue" d="M330.249,-65.052C343.708,-63.3013 357.498,-61.5074 370.451,-59.8226"/>
<polygon fill="midnightblue" stroke="midnightblue" points="329.506,-61.6191 320.041,-66.3799 330.409,-68.5606 329.506,-61.6191"/>
</g>
<!-- Node318 -->
<g id="node4" class="node"><title>Node318</title>
<g id="a_node4"><a xlink:href="class_json_1_1_our_reader.html#aba4f8749aab7f02ec17f107e392caf80" target="_top" xlink:title="Json::OurReader::parse">
<polygon fill="none" stroke="black" points="737.5,-143.056 737.5,-162.056 858.5,-162.056 858.5,-143.056 737.5,-143.056"/>
<text text-anchor="middle" x="798" y="-150.056" font-family="Helvetica,sans-Serif" font-size="10.00">Json::OurReader::parse</text>
</a>
</g>
</g>
<!-- Node317&#45;&gt;Node318 -->
<g id="edge3" class="edge"><title>Node317&#45;&gt;Node318</title>
<path fill="none" stroke="midnightblue" d="M484.963,-118.87C504.868,-125.561 528.261,-132.481 550,-136.556 613.249,-148.411 687.02,-151.871 737.36,-152.702"/>
<polygon fill="midnightblue" stroke="midnightblue" points="486.09,-115.557 475.495,-115.618 483.815,-122.177 486.09,-115.557"/>
</g>
<!-- Node320 -->
<g id="node6" class="node"><title>Node320</title>
<g id="a_node6"><a xlink:href="class_json_1_1_our_reader.html#a1765d9670d191c89a57a22ea5591d35f" target="_top" xlink:title="Json::OurReader::readValue">
<polygon fill="none" stroke="black" points="550,-86.056 550,-105.056 690,-105.056 690,-86.056 550,-86.056"/>
<text text-anchor="middle" x="620" y="-93.056" font-family="Helvetica,sans-Serif" font-size="10.00">Json::OurReader::readValue</text>
</a>
</g>
</g>
<!-- Node317&#45;&gt;Node320 -->
<g id="edge5" class="edge"><title>Node317&#45;&gt;Node320</title>
<path fill="none" stroke="midnightblue" d="M524.194,-98.1463C532.789,-97.9115 541.424,-97.6756 549.793,-97.4469"/>
<polygon fill="midnightblue" stroke="midnightblue" points="524.04,-94.6491 514.139,-98.421 524.231,-101.647 524.04,-94.6491"/>
</g>
<!-- Node319 -->
<g id="node5" class="node"><title>Node319</title>
<g id="a_node5"><a xlink:href="class_json_1_1_our_char_reader.html#a52a1fb5fee88d9b63dd462f63b1c9570" target="_top" xlink:title="Json::OurCharReader\l::parse">
<polygon fill="none" stroke="black" points="906,-137.556 906,-167.556 1018,-167.556 1018,-137.556 906,-137.556"/>
<text text-anchor="start" x="914" y="-155.556" font-family="Helvetica,sans-Serif" font-size="10.00">Json::OurCharReader</text>
<text text-anchor="middle" x="962" y="-144.556" font-family="Helvetica,sans-Serif" font-size="10.00">::parse</text>
</a>
</g>
</g>
<!-- Node318&#45;&gt;Node319 -->
<g id="edge4" class="edge"><title>Node318&#45;&gt;Node319</title>
<path fill="none" stroke="midnightblue" d="M869.109,-152.556C881.434,-152.556 894.101,-152.556 905.941,-152.556"/>
<polygon fill="midnightblue" stroke="midnightblue" points="868.863,-149.056 858.863,-152.556 868.863,-156.056 868.863,-149.056"/>
</g>
<!-- Node320&#45;&gt;Node318 -->
<g id="edge6" class="edge"><title>Node320&#45;&gt;Node318</title>
<path fill="none" stroke="midnightblue" d="M660.077,-108.212C692.521,-118.719 737.968,-133.438 767.445,-142.984"/>
<polygon fill="midnightblue" stroke="midnightblue" points="661.05,-104.848 650.458,-105.096 658.894,-111.507 661.05,-104.848"/>
</g>
<!-- Node320&#45;&gt;Node321 -->
<g id="edge7" class="edge"><title>Node320&#45;&gt;Node321</title>
<path fill="none" stroke="midnightblue" d="M700.06,-88.837C708.645,-88.7772 717.345,-88.8038 725.828,-88.9169"/>
<polygon fill="midnightblue" stroke="midnightblue" points="700.016,-85.3372 690.055,-88.947 700.093,-92.3368 700.016,-85.3372"/>
</g>
<!-- Node320&#45;&gt;Node322 -->
<g id="edge9" class="edge"><title>Node320&#45;&gt;Node322</title>
<path fill="none" stroke="midnightblue" d="M650.768,-82.9024C673.106,-75.9055 704.525,-67.6108 732.518,-61.1454"/>
<polygon fill="midnightblue" stroke="midnightblue" points="649.619,-79.5958 641.189,-86.0147 651.782,-86.2533 649.619,-79.5958"/>
</g>
<!-- Node321&#45;&gt;Node320 -->
<g id="edge8" class="edge"><title>Node321&#45;&gt;Node320</title>
<path fill="none" stroke="midnightblue" d="M715.79,-102.288C707.188,-102.334 698.499,-102.292 690.055,-102.165"/>
<polygon fill="midnightblue" stroke="midnightblue" points="715.861,-105.788 725.828,-102.195 715.796,-98.788 715.861,-105.788"/>
</g>
<!-- Node322&#45;&gt;Node320 -->
<g id="edge10" class="edge"><title>Node322&#45;&gt;Node320</title>
<path fill="none" stroke="midnightblue" d="M767.054,-64.2652C744.742,-71.2459 713.442,-79.5076 685.537,-85.9539"/>
<polygon fill="midnightblue" stroke="midnightblue" points="768.196,-67.5743 776.628,-61.1591 766.036,-60.9159 768.196,-67.5743"/>
</g>
<!-- Node323&#45;&gt;Node321 -->
<g id="edge14" class="edge"><title>Node323&#45;&gt;Node321</title>
<path fill="none" stroke="midnightblue" d="M505.838,-70.932C508.653,-72.3712 511.387,-73.9105 514,-75.556 533.962,-88.1249 528.391,-105.095 550,-114.556 625.053,-147.417 725.181,-120.85 771.505,-105.104"/>
<polygon fill="midnightblue" stroke="midnightblue" points="507.167,-67.6903 496.621,-66.6686 504.228,-74.0436 507.167,-67.6903"/>
</g>
<!-- Node323&#45;&gt;Node322 -->
<g id="edge15" class="edge"><title>Node323&#45;&gt;Node322</title>
<path fill="none" stroke="midnightblue" d="M502.943,-34.3552C518.3,-31.1142 534.632,-28.2213 550,-26.556 611.86,-19.8527 628.187,-19.4308 690,-26.556 715.395,-29.4832 743.521,-36.1957 764.561,-41.9287"/>
<polygon fill="midnightblue" stroke="midnightblue" points="502.033,-30.9712 493.011,-36.5258 503.528,-37.8097 502.033,-30.9712"/>
</g>
<!-- Node324 -->
<g id="node10" class="node"><title>Node324</title>
<g id="a_node10"><a xlink:href="class_json_1_1_our_reader.html#ae68a7047acd692be8077e259d524c6d9" target="_top" xlink:title="Json::OurReader::addError\lAndRecover">
<polygon fill="none" stroke="black" points="553,-36.556 553,-66.556 687,-66.556 687,-36.556 553,-36.556"/>
<text text-anchor="start" x="561" y="-54.556" font-family="Helvetica,sans-Serif" font-size="10.00">Json::OurReader::addError</text>
<text text-anchor="middle" x="620" y="-43.556" font-family="Helvetica,sans-Serif" font-size="10.00">AndRecover</text>
</a>
</g>
</g>
<!-- Node323&#45;&gt;Node324 -->
<g id="edge16" class="edge"><title>Node323&#45;&gt;Node324</title>
<path fill="none" stroke="midnightblue" d="M509.986,-51.556C524.219,-51.556 539.038,-51.556 552.997,-51.556"/>
<polygon fill="midnightblue" stroke="midnightblue" points="509.748,-48.0561 499.748,-51.556 509.748,-55.0561 509.748,-48.0561"/>
</g>
<!-- Node324&#45;&gt;Node321 -->
<g id="edge17" class="edge"><title>Node324&#45;&gt;Node321</title>
<path fill="none" stroke="midnightblue" d="M690.896,-69.03C714.105,-74.8323 739.07,-81.0736 758.95,-86.0436"/>
<polygon fill="midnightblue" stroke="midnightblue" points="691.627,-65.6052 681.077,-66.5752 689.929,-72.3962 691.627,-65.6052"/>
</g>
<!-- Node324&#45;&gt;Node322 -->
<g id="edge18" class="edge"><title>Node324&#45;&gt;Node322</title>
<path fill="none" stroke="midnightblue" d="M697.248,-51.556C707.554,-51.556 718.078,-51.556 728.243,-51.556"/>
<polygon fill="midnightblue" stroke="midnightblue" points="697.037,-48.0561 687.037,-51.556 697.037,-55.0561 697.037,-48.0561"/>
</g>
</g>
</svg>
        <g id="navigator" transform="translate(0 0)" fill="#404254">
                <rect fill="#f2f5e9" fill-opacity="0.5" stroke="#606060" stroke-width=".5" x="0" y="0" width="60" height="60"/>
                <use id="zoomplus" xlink:href="#zoomPlus" x="17" y="9" onmousedown="handleZoom(evt,'in')"/>
                <use id="zoomminus" xlink:href="#zoomMin" x="42" y="9" onmousedown="handleZoom(evt,'out')"/>
                <use id="reset" xlink:href="#resetDef" x="30" y="36" onmousedown="handleReset()"/>
                <g id="arrowUp" xlink:href="#dirArrow" transform="translate(30 24)" onmousedown="handlePan(0,-1)">
                  <use xlink:href="#rim" fill="#404040">
                        <set attributeName="fill" to="#808080" begin="arrowUp.mouseover" end="arrowUp.mouseout"/>
                  </use>
                  <path fill="none" stroke="white" stroke-width="1.5" d="M0,-3.0v7 M-2.5,-0.5L0,-3.0L2.5,-0.5"/>
                </g>
                <g id="arrowRight" xlink:href="#dirArrow" transform="rotate(90) translate(36 -43)" onmousedown="handlePan(1,0)">
                  <use xlink:href="#rim" fill="#404040">
                        <set attributeName="fill" to="#808080" begin="arrowRight.mouseover" end="arrowRight.mouseout"/>
                  </use>
                  <path fill="none" stroke="white" stroke-width="1.5" d="M0,-3.0v7 M-2.5,-0.5L0,-3.0L2.5,-0.5"/>
                </g>
                <g id="arrowDown" xlink:href="#dirArrow" transform="rotate(180) translate(-30 -48)" onmousedown="handlePan(0,1)">
                  <use xlink:href="#rim" fill="#404040">
                        <set attributeName="fill" to="#808080" begin="arrowDown.mouseover" end="arrowDown.mouseout"/>
                  </use>
                  <path fill="none" stroke="white" stroke-width="1.5" d="M0,-3.0v7 M-2.5,-0.5L0,-3.0L2.5,-0.5"/>
                </g>
                <g id="arrowLeft" xlink:href="#dirArrow" transform="rotate(270) translate(-36 17)" onmousedown="handlePan(-1,0)">
                  <use xlink:href="#rim" fill="#404040">
                        <set attributeName="fill" to="#808080" begin="arrowLeft.mouseover" end="arrowLeft.mouseout"/>
                  </use>
                  <path fill="none" stroke="white" stroke-width="1.5" d="M0,-3.0v7 M-2.5,-0.5L0,-3.0L2.5,-0.5"/>
                </g>
        </g>
        <svg viewBox="0 0 15 15" width="100%" height="30px" preserveAspectRatio="xMaxYMin meet">
         <g id="arrow_out" transform="scale(0.3 0.3)">
          <a xlink:href="class_json_1_1_our_reader_ac78592defdc333faf56c6d0908758da3_icgraph_org.svg" target="_base">
           <rect id="button" ry="5" rx="5" y="6" x="6" height="38" width="38"
                fill="#f2f5e9" fill-opacity="0.5" stroke="#606060" stroke-width="1.0"/>
           <path id="arrow"
             d="M 11.500037,31.436501 C 11.940474,20.09759 22.043105,11.32322 32.158766,21.979434 L 37.068811,17.246167 C 37.068811,17.246167 37.088388,32 37.088388,32 L 22.160133,31.978069 C 22.160133,31.978069 26.997745,27.140456 26.997745,27.140456 C 18.528582,18.264221 13.291696,25.230495 11.500037,31.436501 z"
             style="fill:#404040;"/>
          </a>
         </g>
        </svg>
</svg>
