<?xml version="1.0" encoding="UTF-8" standalone="no"?>
<!DOCTYPE svg PUBLIC "-//W3C//DTD SVG 1.1//EN"
 "http://www.w3.org/Graphics/SVG/1.1/DTD/svg11.dtd">
<!-- Generated by graphviz version 2.38.0 (20140413.2041)
 -->
<!-- Title: MinecraftServerService::BukkitServer::startServer Pages: 1 -->
<svg width="729pt" height="132pt"
 viewBox="0.00 0.00 729.00 132.00" xmlns="http://www.w3.org/2000/svg" xmlns:xlink="http://www.w3.org/1999/xlink">
<g id="graph0" class="graph" transform="scale(1 1) rotate(0) translate(4 128)">
<title>MinecraftServerService::BukkitServer::startServer</title>
<!-- Node32 -->
<g id="node1" class="node"><title>Node32</title>
<polygon fill="#bfbfbf" stroke="black" points="0,-44.5 0,-74.5 133,-74.5 133,-44.5 0,-44.5"/>
<text text-anchor="start" x="8" y="-62.5" font-family="Helvetica,sans-Serif" font-size="10.00">MinecraftServerService</text>
<text text-anchor="middle" x="66.5" y="-51.5" font-family="Helvetica,sans-Serif" font-size="10.00">::BukkitServer::startServer</text>
</g>
<!-- Node33 -->
<g id="node2" class="node"><title>Node33</title>
<g id="a_node2"><a xlink:href="class_minecraft_server_service_1_1_server.html#a1954e7c7756cd956e7282887ffca73e4" target="_top" xlink:title="MinecraftServerService\l::Server::isRunning">
<polygon fill="none" stroke="black" points="184.5,-93.5 184.5,-123.5 303.5,-123.5 303.5,-93.5 184.5,-93.5"/>
<text text-anchor="start" x="192.5" y="-111.5" font-family="Helvetica,sans-Serif" font-size="10.00">MinecraftServerService</text>
<text text-anchor="middle" x="244" y="-100.5" font-family="Helvetica,sans-Serif" font-size="10.00">::Server::isRunning</text>
</a>
</g>
</g>
<!-- Node32&#45;&gt;Node33 -->
<g id="edge1" class="edge"><title>Node32&#45;&gt;Node33</title>
<path fill="none" stroke="midnightblue" d="M121.588,-74.6014C139.856,-79.7019 160.418,-85.4429 179.356,-90.7305"/>
<polygon fill="midnightblue" stroke="midnightblue" points="178.518,-94.1303 189.091,-93.4484 180.4,-87.3881 178.518,-94.1303"/>
</g>
<!-- Node34 -->
<g id="node3" class="node"><title>Node34</title>
<g id="a_node3"><a xlink:href="class_minecraft_server_service_1_1_server.html#a16a19b4cfd94f23c20442cea9b46f678" target="_top" xlink:title="MinecraftServerService\l::Server::launchServerProcess">
<polygon fill="none" stroke="black" points="169,-44.5 169,-74.5 319,-74.5 319,-44.5 169,-44.5"/>
<text text-anchor="start" x="177" y="-62.5" font-family="Helvetica,sans-Serif" font-size="10.00">MinecraftServerService</text>
<text text-anchor="middle" x="244" y="-51.5" font-family="Helvetica,sans-Serif" font-size="10.00">::Server::launchServerProcess</text>
</a>
</g>
</g>
<!-- Node32&#45;&gt;Node34 -->
<g id="edge2" class="edge"><title>Node32&#45;&gt;Node34</title>
<path fill="none" stroke="midnightblue" d="M133.349,-59.5C141.668,-59.5 150.268,-59.5 158.822,-59.5"/>
<polygon fill="midnightblue" stroke="midnightblue" points="158.824,-63.0001 168.824,-59.5 158.824,-56.0001 158.824,-63.0001"/>
</g>
<!-- Node36 -->
<g id="node5" class="node"><title>Node36</title>
<g id="a_node5"><a xlink:href="class_minecraft_server_service_1_1_server.html#a3040817c744456263f8ba36bdb72bf20" target="_top" xlink:title="MinecraftServerService\l::Server::outputListenerThread">
<polygon fill="none" stroke="black" points="376,-0.5 376,-30.5 525,-30.5 525,-0.5 376,-0.5"/>
<text text-anchor="start" x="384" y="-18.5" font-family="Helvetica,sans-Serif" font-size="10.00">MinecraftServerService</text>
<text text-anchor="middle" x="450.5" y="-7.5" font-family="Helvetica,sans-Serif" font-size="10.00">::Server::outputListenerThread</text>
</a>
</g>
</g>
<!-- Node32&#45;&gt;Node36 -->
<g id="edge7" class="edge"><title>Node32&#45;&gt;Node36</title>
<path fill="none" stroke="midnightblue" d="M121.14,-44.4427C136.487,-40.6388 153.31,-36.9447 169,-34.5 234.606,-24.2781 309.691,-19.5547 365.658,-17.3725"/>
<polygon fill="midnightblue" stroke="midnightblue" points="366.015,-20.8618 375.879,-16.9939 365.756,-13.8666 366.015,-20.8618"/>
</g>
<!-- Node35 -->
<g id="node4" class="node"><title>Node35</title>
<g id="a_node4"><a xlink:href="class_minecraft_server_service_1_1_server.html#a085f201bd563ce47e2b41778ef72d20d" target="_top" xlink:title="MinecraftServerService\l::Server::getUIDAndGIDFromUsername">
<polygon fill="none" stroke="black" points="355,-88.5 355,-118.5 546,-118.5 546,-88.5 355,-88.5"/>
<text text-anchor="start" x="363" y="-106.5" font-family="Helvetica,sans-Serif" font-size="10.00">MinecraftServerService</text>
<text text-anchor="middle" x="450.5" y="-95.5" font-family="Helvetica,sans-Serif" font-size="10.00">::Server::getUIDAndGIDFromUsername</text>
</a>
</g>
</g>
<!-- Node34&#45;&gt;Node35 -->
<g id="edge3" class="edge"><title>Node34&#45;&gt;Node35</title>
<path fill="none" stroke="midnightblue" d="M314.805,-74.5192C332.476,-78.3212 351.589,-82.4336 369.712,-86.3328"/>
<polygon fill="midnightblue" stroke="midnightblue" points="369.15,-89.792 379.662,-88.4738 370.622,-82.9486 369.15,-89.792"/>
</g>
<!-- Node34&#45;&gt;Node36 -->
<g id="edge4" class="edge"><title>Node34&#45;&gt;Node36</title>
<path fill="none" stroke="midnightblue" d="M314.805,-44.4808C332.476,-40.6788 351.589,-36.5664 369.712,-32.6672"/>
<polygon fill="midnightblue" stroke="midnightblue" points="370.622,-36.0514 379.662,-30.5262 369.15,-29.208 370.622,-36.0514"/>
</g>
<!-- Node37 -->
<g id="node6" class="node"><title>Node37</title>
<g id="a_node6"><a xlink:href="class_minecraft_server_service_1_1_server.html#a4ecf103c62bd8f1e54b2ff436fa1645a" target="_top" xlink:title="MinecraftServerService\l::Server::serverOutputEvent">
<polygon fill="none" stroke="black" points="582,-22.5 582,-52.5 721,-52.5 721,-22.5 582,-22.5"/>
<text text-anchor="start" x="590" y="-40.5" font-family="Helvetica,sans-Serif" font-size="10.00">MinecraftServerService</text>
<text text-anchor="middle" x="651.5" y="-29.5" font-family="Helvetica,sans-Serif" font-size="10.00">::Server::serverOutputEvent</text>
</a>
</g>
</g>
<!-- Node34&#45;&gt;Node37 -->
<g id="edge6" class="edge"><title>Node34&#45;&gt;Node37</title>
<path fill="none" stroke="midnightblue" d="M319.375,-55.4649C391,-51.5789 498.937,-45.7229 571.938,-41.7623"/>
<polygon fill="midnightblue" stroke="midnightblue" points="572.203,-45.2531 581.999,-41.2164 571.824,-38.2634 572.203,-45.2531"/>
</g>
<!-- Node36&#45;&gt;Node37 -->
<g id="edge5" class="edge"><title>Node36&#45;&gt;Node37</title>
<path fill="none" stroke="midnightblue" d="M525.035,-23.6295C540.293,-25.3163 556.427,-27.1 571.861,-28.8062"/>
<polygon fill="midnightblue" stroke="midnightblue" points="571.561,-32.2943 581.885,-29.9144 572.33,-25.3367 571.561,-32.2943"/>
</g>
</g>
</svg>
