<?xml version="1.0" encoding="UTF-8" standalone="no"?>
<!DOCTYPE svg PUBLIC "-//W3C//DTD SVG 1.1//EN"
 "http://www.w3.org/Graphics/SVG/1.1/DTD/svg11.dtd">
<!-- Generated by graphviz version 2.38.0 (20140413.2041)
 -->
<!-- Title: MinecraftServerService::Server::isRunning Pages: 1 -->
<!--zoomable 920 -->
<svg id="main" version="1.1" xmlns="http://www.w3.org/2000/svg" xmlns:xlink="http://www.w3.org/1999/xlink" xml:space="preserve" onload="init(evt)">
<style type="text/css"><![CDATA[
.edge:hover path { stroke: red; }
.edge:hover polygon { stroke: red; fill: red; }
]]></style>
<script type="text/javascript"><![CDATA[
var edges = document.getElementsByTagName('g');
if (edges && edges.length) {
  for (var i=0;i<edges.length;i++) {
    if (edges[i].id.substr(0,4)=='edge') {
      edges[i].setAttribute('class','edge');
    }
  }
}
]]></script>
        <defs>
                <circle id="rim" cx="0" cy="0" r="7"/>
                <circle id="rim2" cx="0" cy="0" r="3.5"/>
                <g id="zoomPlus">
                        <use xlink:href="#rim" fill="#404040">
                                <set attributeName="fill" to="#808080" begin="zoomplus.mouseover" end="zoomplus.mouseout"/>
                        </use>
                        <path d="M-4,0h8M0,-4v8" fill="none" stroke="white" stroke-width="1.5" pointer-events="none"/>
                </g>
                <g id="zoomMin">
                        <use xlink:href="#rim" fill="#404040">
                                <set attributeName="fill" to="#808080" begin="zoomminus.mouseover" end="zoomminus.mouseout"/>
                        </use>
                        <path d="M-4,0h8" fill="none" stroke="white" stroke-width="1.5" pointer-events="none"/>
                </g>
                <g id="dirArrow">
                        <path fill="none" stroke="white" stroke-width="1.5" d="M0,-3.0v7 M-2.5,-0.5L0,-3.0L2.5,-0.5"/>
                </g>
               <g id="resetDef">
                       <use xlink:href="#rim2" fill="#404040">
                               <set attributeName="fill" to="#808080" begin="reset.mouseover" end="reset.mouseout"/>
                       </use>
               </g>
        </defs>

<script type="text/javascript">
var viewWidth = 543;
var viewHeight = 920;
var sectionId = 'dynsection-2';
</script>
<script xlink:href="svgpan.js"/>
<svg id="graph" class="graph">
<g id="viewport">
<title>MinecraftServerService::Server::isRunning</title>
<!-- Node18 -->
<g id="node1" class="node"><title>Node18</title>
<polygon fill="#bfbfbf" stroke="black" points="5.68434e-14,-443.5 5.68434e-14,-473.5 119,-473.5 119,-443.5 5.68434e-14,-443.5"/>
<text text-anchor="start" x="8" y="-461.5" font-family="Helvetica,sans-Serif" font-size="10.00">MinecraftServerService</text>
<text text-anchor="middle" x="59.5" y="-450.5" font-family="Helvetica,sans-Serif" font-size="10.00">::Server::isRunning</text>
</g>
<!-- Node19 -->
<g id="node2" class="node"><title>Node19</title>
<g id="a_node2"><a xlink:href="class_minecraft_server_service_1_1_bukkit_server.html#a40a879282d13c0996d05f1165fa5c4c2" target="_top" xlink:title="MinecraftServerService\l::BukkitServer::startServer">
<polygon fill="none" stroke="black" points="177,-881.5 177,-911.5 310,-911.5 310,-881.5 177,-881.5"/>
<text text-anchor="start" x="185" y="-899.5" font-family="Helvetica,sans-Serif" font-size="10.00">MinecraftServerService</text>
<text text-anchor="middle" x="243.5" y="-888.5" font-family="Helvetica,sans-Serif" font-size="10.00">::BukkitServer::startServer</text>
</a>
</g>
</g>
<!-- Node18&#45;&gt;Node19 -->
<g id="edge1" class="edge"><title>Node18&#45;&gt;Node19</title>
<path fill="none" stroke="midnightblue" d="M63.1548,-483.781C72.0205,-563.682 103.016,-808.883 155,-866.5 161.024,-873.177 168.6,-878.368 176.76,-882.405"/>
<polygon fill="midnightblue" stroke="midnightblue" points="66.6126,-483.203 62.0508,-473.641 59.6537,-483.961 66.6126,-483.203"/>
</g>
<!-- Node20 -->
<g id="node3" class="node"><title>Node20</title>
<g id="a_node3"><a xlink:href="class_minecraft_server_service_1_1_bukkit_server.html#afdd768465fedfbea100da7f62cbd11d0" target="_top" xlink:title="MinecraftServerService\l::BukkitServer::restartServer">
<polygon fill="none" stroke="black" points="381,-837.5 381,-867.5 522,-867.5 522,-837.5 381,-837.5"/>
<text text-anchor="start" x="389" y="-855.5" font-family="Helvetica,sans-Serif" font-size="10.00">MinecraftServerService</text>
<text text-anchor="middle" x="451.5" y="-844.5" font-family="Helvetica,sans-Serif" font-size="10.00">::BukkitServer::restartServer</text>
</a>
</g>
</g>
<!-- Node18&#45;&gt;Node20 -->
<g id="edge5" class="edge"><title>Node18&#45;&gt;Node20</title>
<path fill="none" stroke="midnightblue" d="M63.059,-483.815C71.3694,-560.529 100.279,-787.961 155,-833.5 188.094,-861.041 304.386,-860.676 380.836,-857.132"/>
<polygon fill="midnightblue" stroke="midnightblue" points="66.5142,-483.206 61.9818,-473.63 59.5531,-483.942 66.5142,-483.206"/>
</g>
<!-- Node21 -->
<g id="node4" class="node"><title>Node21</title>
<g id="a_node4"><a xlink:href="class_minecraft_server_service_1_1_bukkit_server.html#ace18180c1ffb7c6c24942b5569793539" target="_top" xlink:title="MinecraftServerService\l::BukkitServer::stopServer">
<polygon fill="none" stroke="black" points="177.5,-793.5 177.5,-823.5 309.5,-823.5 309.5,-793.5 177.5,-793.5"/>
<text text-anchor="start" x="185.5" y="-811.5" font-family="Helvetica,sans-Serif" font-size="10.00">MinecraftServerService</text>
<text text-anchor="middle" x="243.5" y="-800.5" font-family="Helvetica,sans-Serif" font-size="10.00">::BukkitServer::stopServer</text>
</a>
</g>
</g>
<!-- Node18&#45;&gt;Node21 -->
<g id="edge3" class="edge"><title>Node18&#45;&gt;Node21</title>
<path fill="none" stroke="midnightblue" d="M60.02,-483.95C60.3146,-544.936 69.8591,-700.58 155,-784.5 161.282,-790.692 169.003,-795.324 177.233,-798.781"/>
<polygon fill="midnightblue" stroke="midnightblue" points="63.5208,-483.715 60.0565,-473.703 56.5208,-483.69 63.5208,-483.715"/>
</g>
<!-- Node22 -->
<g id="node5" class="node"><title>Node22</title>
<g id="a_node5"><a xlink:href="class_minecraft_server_service_1_1_bukkit_server.html#a177fd65626604d0cdf2b105454bd1d18" target="_top" xlink:title="MinecraftServerService\l::BukkitServer::sendCommand">
<polygon fill="none" stroke="black" points="168,-744.5 168,-774.5 319,-774.5 319,-744.5 168,-744.5"/>
<text text-anchor="start" x="176" y="-762.5" font-family="Helvetica,sans-Serif" font-size="10.00">MinecraftServerService</text>
<text text-anchor="middle" x="243.5" y="-751.5" font-family="Helvetica,sans-Serif" font-size="10.00">::BukkitServer::sendCommand</text>
</a>
</g>
</g>
<!-- Node18&#45;&gt;Node22 -->
<g id="edge6" class="edge"><title>Node18&#45;&gt;Node22</title>
<path fill="none" stroke="midnightblue" d="M61.5512,-483.821C65.2094,-538.126 81.5967,-666.448 155,-735.5 158.786,-739.062 163.05,-742.104 167.606,-744.702"/>
<polygon fill="midnightblue" stroke="midnightblue" points="65.037,-483.474 60.9619,-473.695 58.0488,-483.881 65.037,-483.474"/>
</g>
<!-- Node23 -->
<g id="node6" class="node"><title>Node23</title>
<g id="a_node6"><a xlink:href="class_minecraft_server_service_1_1_bungee_cord_server.html#a5f03992324f892fa1cedcef5153a7d3f" target="_top" xlink:title="MinecraftServerService\l::BungeeCordServer::startServer">
<polygon fill="none" stroke="black" points="164,-695.5 164,-725.5 323,-725.5 323,-695.5 164,-695.5"/>
<text text-anchor="start" x="172" y="-713.5" font-family="Helvetica,sans-Serif" font-size="10.00">MinecraftServerService</text>
<text text-anchor="middle" x="243.5" y="-702.5" font-family="Helvetica,sans-Serif" font-size="10.00">::BungeeCordServer::startServer</text>
</a>
</g>
</g>
<!-- Node18&#45;&gt;Node23 -->
<g id="edge7" class="edge"><title>Node18&#45;&gt;Node23</title>
<path fill="none" stroke="midnightblue" d="M64.3314,-483.504C72.6068,-529.072 96.37,-625.954 155,-680.5 161.584,-686.626 169.475,-691.507 177.785,-695.395"/>
<polygon fill="midnightblue" stroke="midnightblue" points="67.7698,-482.846 62.6298,-473.582 60.8706,-484.03 67.7698,-482.846"/>
</g>
<!-- Node24 -->
<g id="node7" class="node"><title>Node24</title>
<g id="a_node7"><a xlink:href="class_minecraft_server_service_1_1_bungee_cord_server.html#a471a30d5fd0c2dca57970aef99eaa2b7" target="_top" xlink:title="MinecraftServerService\l::BungeeCordServer::restartServer">
<polygon fill="none" stroke="black" points="368,-651.5 368,-681.5 535,-681.5 535,-651.5 368,-651.5"/>
<text text-anchor="start" x="376" y="-669.5" font-family="Helvetica,sans-Serif" font-size="10.00">MinecraftServerService</text>
<text text-anchor="middle" x="451.5" y="-658.5" font-family="Helvetica,sans-Serif" font-size="10.00">::BungeeCordServer::restartServer</text>
</a>
</g>
</g>
<!-- Node18&#45;&gt;Node24 -->
<g id="edge11" class="edge"><title>Node18&#45;&gt;Node24</title>
<path fill="none" stroke="midnightblue" d="M64.8419,-483.577C73.5883,-525.618 97.6285,-609.445 155,-647.5 218.832,-689.841 308.463,-689.331 372.238,-681.507"/>
<polygon fill="midnightblue" stroke="midnightblue" points="68.2464,-482.749 62.8936,-473.606 61.3763,-484.091 68.2464,-482.749"/>
</g>
<!-- Node25 -->
<g id="node8" class="node"><title>Node25</title>
<g id="a_node8"><a xlink:href="class_minecraft_server_service_1_1_bungee_cord_server.html#a20602e6aa9b12c5f7c1c61e0a3341ab7" target="_top" xlink:title="MinecraftServerService\l::BungeeCordServer::stopServer">
<polygon fill="none" stroke="black" points="164.5,-607.5 164.5,-637.5 322.5,-637.5 322.5,-607.5 164.5,-607.5"/>
<text text-anchor="start" x="172.5" y="-625.5" font-family="Helvetica,sans-Serif" font-size="10.00">MinecraftServerService</text>
<text text-anchor="middle" x="243.5" y="-614.5" font-family="Helvetica,sans-Serif" font-size="10.00">::BungeeCordServer::stopServer</text>
</a>
</g>
</g>
<!-- Node18&#45;&gt;Node25 -->
<g id="edge9" class="edge"><title>Node18&#45;&gt;Node25</title>
<path fill="none" stroke="midnightblue" d="M70.5781,-483.152C84.7344,-514.673 113.506,-568.728 155,-598.5 159.735,-601.898 164.93,-604.815 170.352,-607.319"/>
<polygon fill="midnightblue" stroke="midnightblue" points="73.6953,-481.543 66.4978,-473.768 67.276,-484.335 73.6953,-481.543"/>
</g>
<!-- Node26 -->
<g id="node9" class="node"><title>Node26</title>
<g id="a_node9"><a xlink:href="class_minecraft_server_service_1_1_bungee_cord_server.html#a4c398b65df83fe47cdaf8c4e5de66dff" target="_top" xlink:title="MinecraftServerService\l::BungeeCordServer::sendCommand">
<polygon fill="none" stroke="black" points="155,-558.5 155,-588.5 332,-588.5 332,-558.5 155,-558.5"/>
<text text-anchor="start" x="163" y="-576.5" font-family="Helvetica,sans-Serif" font-size="10.00">MinecraftServerService</text>
<text text-anchor="middle" x="243.5" y="-565.5" font-family="Helvetica,sans-Serif" font-size="10.00">::BungeeCordServer::sendCommand</text>
</a>
</g>
</g>
<!-- Node18&#45;&gt;Node26 -->
<g id="edge12" class="edge"><title>Node18&#45;&gt;Node26</title>
<path fill="none" stroke="midnightblue" d="M78.7973,-481.792C96.2564,-502.488 124.375,-532.082 155,-549.5 161.025,-552.926 167.563,-555.884 174.261,-558.433"/>
<polygon fill="midnightblue" stroke="midnightblue" points="81.2706,-479.29 72.2092,-473.8 75.8691,-483.743 81.2706,-479.29"/>
</g>
<!-- Node27 -->
<g id="node10" class="node"><title>Node27</title>
<g id="a_node10"><a xlink:href="class_minecraft_server_service_1_1_generic_server.html#aa3e2da3f6458e579697154360f6e05e5" target="_top" xlink:title="MinecraftServerService\l::GenericServer::startServer">
<polygon fill="none" stroke="black" points="174,-509.5 174,-539.5 313,-539.5 313,-509.5 174,-509.5"/>
<text text-anchor="start" x="182" y="-527.5" font-family="Helvetica,sans-Serif" font-size="10.00">MinecraftServerService</text>
<text text-anchor="middle" x="243.5" y="-516.5" font-family="Helvetica,sans-Serif" font-size="10.00">::GenericServer::startServer</text>
</a>
</g>
</g>
<!-- Node18&#45;&gt;Node27 -->
<g id="edge13" class="edge"><title>Node18&#45;&gt;Node27</title>
<path fill="none" stroke="midnightblue" d="M108.519,-477.151C123.38,-482.827 139.832,-489.012 155,-494.5 168.742,-499.472 183.771,-504.7 197.435,-509.373"/>
<polygon fill="midnightblue" stroke="midnightblue" points="109.602,-473.818 99.0119,-473.508 107.097,-480.355 109.602,-473.818"/>
</g>
<!-- Node28 -->
<g id="node11" class="node"><title>Node28</title>
<g id="a_node11"><a xlink:href="class_minecraft_server_service_1_1_generic_server.html#a91d7fee4ca078709180084768e85149f" target="_top" xlink:title="MinecraftServerService\l::GenericServer::restartServer">
<polygon fill="none" stroke="black" points="378,-465.5 378,-495.5 525,-495.5 525,-465.5 378,-465.5"/>
<text text-anchor="start" x="386" y="-483.5" font-family="Helvetica,sans-Serif" font-size="10.00">MinecraftServerService</text>
<text text-anchor="middle" x="451.5" y="-472.5" font-family="Helvetica,sans-Serif" font-size="10.00">::GenericServer::restartServer</text>
</a>
</g>
</g>
<!-- Node18&#45;&gt;Node28 -->
<g id="edge17" class="edge"><title>Node18&#45;&gt;Node28</title>
<path fill="none" stroke="midnightblue" d="M129.327,-462.383C199.142,-466.321 306.771,-472.392 377.909,-476.405"/>
<polygon fill="midnightblue" stroke="midnightblue" points="129.49,-458.886 119.309,-461.817 129.096,-465.875 129.49,-458.886"/>
</g>
<!-- Node29 -->
<g id="node12" class="node"><title>Node29</title>
<g id="a_node12"><a xlink:href="class_minecraft_server_service_1_1_generic_server.html#a81adc767332fdbffdb1ca2ca5c4033ec" target="_top" xlink:title="MinecraftServerService\l::GenericServer::stopServer">
<polygon fill="none" stroke="black" points="174.5,-421.5 174.5,-451.5 312.5,-451.5 312.5,-421.5 174.5,-421.5"/>
<text text-anchor="start" x="182.5" y="-439.5" font-family="Helvetica,sans-Serif" font-size="10.00">MinecraftServerService</text>
<text text-anchor="middle" x="243.5" y="-428.5" font-family="Helvetica,sans-Serif" font-size="10.00">::GenericServer::stopServer</text>
</a>
</g>
</g>
<!-- Node18&#45;&gt;Node29 -->
<g id="edge15" class="edge"><title>Node18&#45;&gt;Node29</title>
<path fill="none" stroke="midnightblue" d="M129.141,-450.203C143.885,-448.421 159.463,-446.537 174.194,-444.757"/>
<polygon fill="midnightblue" stroke="midnightblue" points="128.595,-446.743 119.088,-451.418 129.436,-453.693 128.595,-446.743"/>
</g>
<!-- Node30 -->
<g id="node13" class="node"><title>Node30</title>
<g id="a_node13"><a xlink:href="class_minecraft_server_service_1_1_generic_server.html#a42c34bc2e24173077e67c6b83a346b5d" target="_top" xlink:title="MinecraftServerService\l::GenericServer::sendCommand">
<polygon fill="none" stroke="black" points="165,-372.5 165,-402.5 322,-402.5 322,-372.5 165,-372.5"/>
<text text-anchor="start" x="173" y="-390.5" font-family="Helvetica,sans-Serif" font-size="10.00">MinecraftServerService</text>
<text text-anchor="middle" x="243.5" y="-379.5" font-family="Helvetica,sans-Serif" font-size="10.00">::GenericServer::sendCommand</text>
</a>
</g>
</g>
<!-- Node18&#45;&gt;Node30 -->
<g id="edge18" class="edge"><title>Node18&#45;&gt;Node30</title>
<path fill="none" stroke="midnightblue" d="M97.5825,-438.585C114.744,-429.857 135.59,-419.932 155,-412.5 164.295,-408.941 174.315,-405.62 184.139,-402.635"/>
<polygon fill="midnightblue" stroke="midnightblue" points="95.7447,-435.595 88.4599,-443.288 98.9522,-441.817 95.7447,-435.595"/>
</g>
<!-- Node32 -->
<g id="node15" class="node"><title>Node32</title>
<g id="a_node15"><a xlink:href="class_minecraft_server_service_1_1_spigot_server.html#a08bc3d74d604968034303efc7334dd08" target="_top" xlink:title="MinecraftServerService\l::SpigotServer::startServer">
<polygon fill="none" stroke="black" points="177,-323.5 177,-353.5 310,-353.5 310,-323.5 177,-323.5"/>
<text text-anchor="start" x="185" y="-341.5" font-family="Helvetica,sans-Serif" font-size="10.00">MinecraftServerService</text>
<text text-anchor="middle" x="243.5" y="-330.5" font-family="Helvetica,sans-Serif" font-size="10.00">::SpigotServer::startServer</text>
</a>
</g>
</g>
<!-- Node18&#45;&gt;Node32 -->
<g id="edge20" class="edge"><title>Node18&#45;&gt;Node32</title>
<path fill="none" stroke="midnightblue" d="M77.8087,-435.253C95.0785,-413.645 123.518,-382.08 155,-363.5 161.803,-359.485 169.286,-356.085 176.925,-353.212"/>
<polygon fill="midnightblue" stroke="midnightblue" points="74.938,-433.243 71.5408,-443.278 80.4547,-437.551 74.938,-433.243"/>
</g>
<!-- Node33 -->
<g id="node16" class="node"><title>Node33</title>
<g id="a_node16"><a xlink:href="class_minecraft_server_service_1_1_spigot_server.html#a8868ea31ed029270de60becebf36fc69" target="_top" xlink:title="MinecraftServerService\l::SpigotServer::restartServer">
<polygon fill="none" stroke="black" points="381,-279.5 381,-309.5 522,-309.5 522,-279.5 381,-279.5"/>
<text text-anchor="start" x="389" y="-297.5" font-family="Helvetica,sans-Serif" font-size="10.00">MinecraftServerService</text>
<text text-anchor="middle" x="451.5" y="-286.5" font-family="Helvetica,sans-Serif" font-size="10.00">::SpigotServer::restartServer</text>
</a>
</g>
</g>
<!-- Node18&#45;&gt;Node33 -->
<g id="edge24" class="edge"><title>Node18&#45;&gt;Node33</title>
<path fill="none" stroke="midnightblue" d="M68.7537,-433.808C81.4254,-400.233 109.141,-341.297 155,-314.5 223.814,-274.291 317.626,-275.441 380.939,-282.607"/>
<polygon fill="midnightblue" stroke="midnightblue" points="65.4124,-432.756 65.3006,-443.35 71.9946,-435.138 65.4124,-432.756"/>
</g>
<!-- Node34 -->
<g id="node17" class="node"><title>Node34</title>
<g id="a_node17"><a xlink:href="class_minecraft_server_service_1_1_spigot_server.html#a2b0c13a87da4d1766ee0cc645732865a" target="_top" xlink:title="MinecraftServerService\l::SpigotServer::stopServer">
<polygon fill="none" stroke="black" points="177.5,-235.5 177.5,-265.5 309.5,-265.5 309.5,-235.5 177.5,-235.5"/>
<text text-anchor="start" x="185.5" y="-253.5" font-family="Helvetica,sans-Serif" font-size="10.00">MinecraftServerService</text>
<text text-anchor="middle" x="243.5" y="-242.5" font-family="Helvetica,sans-Serif" font-size="10.00">::SpigotServer::stopServer</text>
</a>
</g>
</g>
<!-- Node18&#45;&gt;Node34 -->
<g id="edge22" class="edge"><title>Node18&#45;&gt;Node34</title>
<path fill="none" stroke="midnightblue" d="M67.2385,-433.642C78.8549,-395.379 106.227,-322.127 155,-280.5 162.207,-274.349 170.739,-269.44 179.604,-265.527"/>
<polygon fill="midnightblue" stroke="midnightblue" points="63.8177,-432.87 64.3752,-443.45 70.5372,-434.832 63.8177,-432.87"/>
</g>
<!-- Node35 -->
<g id="node18" class="node"><title>Node35</title>
<g id="a_node18"><a xlink:href="class_minecraft_server_service_1_1_spigot_server.html#a3982946d2881f27cc95791214ab8da27" target="_top" xlink:title="MinecraftServerService\l::SpigotServer::sendCommand">
<polygon fill="none" stroke="black" points="168,-186.5 168,-216.5 319,-216.5 319,-186.5 168,-186.5"/>
<text text-anchor="start" x="176" y="-204.5" font-family="Helvetica,sans-Serif" font-size="10.00">MinecraftServerService</text>
<text text-anchor="middle" x="243.5" y="-193.5" font-family="Helvetica,sans-Serif" font-size="10.00">::SpigotServer::sendCommand</text>
</a>
</g>
</g>
<!-- Node18&#45;&gt;Node35 -->
<g id="edge25" class="edge"><title>Node18&#45;&gt;Node35</title>
<path fill="none" stroke="midnightblue" d="M63.415,-433.258C70.3024,-385.445 92.0399,-281.459 155,-225.5 158.885,-222.047 163.223,-219.085 167.832,-216.545"/>
<polygon fill="midnightblue" stroke="midnightblue" points="59.9206,-432.983 62.0634,-443.359 66.8588,-433.912 59.9206,-432.983"/>
</g>
<!-- Node36 -->
<g id="node19" class="node"><title>Node36</title>
<g id="a_node19"><a xlink:href="class_minecraft_server_service_1_1_vanilla_server.html#a9f1ea90c5bcd4f183303d169d0427b46" target="_top" xlink:title="MinecraftServerService\l::VanillaServer::startServer">
<polygon fill="none" stroke="black" points="176.5,-137.5 176.5,-167.5 310.5,-167.5 310.5,-137.5 176.5,-137.5"/>
<text text-anchor="start" x="184.5" y="-155.5" font-family="Helvetica,sans-Serif" font-size="10.00">MinecraftServerService</text>
<text text-anchor="middle" x="243.5" y="-144.5" font-family="Helvetica,sans-Serif" font-size="10.00">::VanillaServer::startServer</text>
</a>
</g>
</g>
<!-- Node18&#45;&gt;Node36 -->
<g id="edge26" class="edge"><title>Node18&#45;&gt;Node36</title>
<path fill="none" stroke="midnightblue" d="M61.3758,-433.123C64.6857,-378.086 80.424,-247.038 155,-176.5 161.065,-170.763 168.37,-166.373 176.14,-163.018"/>
<polygon fill="midnightblue" stroke="midnightblue" points="57.8671,-433.206 60.8535,-443.371 64.8581,-433.562 57.8671,-433.206"/>
</g>
<!-- Node37 -->
<g id="node20" class="node"><title>Node37</title>
<g id="a_node20"><a xlink:href="class_minecraft_server_service_1_1_vanilla_server.html#a99ac73bdf44e6d77933e95c769f4d95a" target="_top" xlink:title="MinecraftServerService\l::VanillaServer::restartServer">
<polygon fill="none" stroke="black" points="380,-93.5 380,-123.5 523,-123.5 523,-93.5 380,-93.5"/>
<text text-anchor="start" x="388" y="-111.5" font-family="Helvetica,sans-Serif" font-size="10.00">MinecraftServerService</text>
<text text-anchor="middle" x="451.5" y="-100.5" font-family="Helvetica,sans-Serif" font-size="10.00">::VanillaServer::restartServer</text>
</a>
</g>
</g>
<!-- Node18&#45;&gt;Node37 -->
<g id="edge30" class="edge"><title>Node18&#45;&gt;Node37</title>
<path fill="none" stroke="midnightblue" d="M63.9949,-432.915C74.2141,-362.187 106.419,-166.661 155,-127.5 188.37,-100.601 303.642,-100.683 379.962,-104.009"/>
<polygon fill="midnightblue" stroke="midnightblue" points="60.4821,-432.759 62.5444,-443.152 67.4128,-433.742 60.4821,-432.759"/>
</g>
<!-- Node38 -->
<g id="node21" class="node"><title>Node38</title>
<g id="a_node21"><a xlink:href="class_minecraft_server_service_1_1_vanilla_server.html#ab59cc32c01c07debeadd0d6c349f2772" target="_top" xlink:title="MinecraftServerService\l::VanillaServer::stopServer">
<polygon fill="none" stroke="black" points="176.5,-49.5 176.5,-79.5 310.5,-79.5 310.5,-49.5 176.5,-49.5"/>
<text text-anchor="start" x="184.5" y="-67.5" font-family="Helvetica,sans-Serif" font-size="10.00">MinecraftServerService</text>
<text text-anchor="middle" x="243.5" y="-56.5" font-family="Helvetica,sans-Serif" font-size="10.00">::VanillaServer::stopServer</text>
</a>
</g>
</g>
<!-- Node18&#45;&gt;Node38 -->
<g id="edge28" class="edge"><title>Node18&#45;&gt;Node38</title>
<path fill="none" stroke="midnightblue" d="M63.9409,-433.064C74.4463,-358.901 108.257,-144.952 155,-94.5 161.003,-88.0209 168.465,-82.941 176.483,-78.9582"/>
<polygon fill="midnightblue" stroke="midnightblue" points="60.4228,-432.952 62.5087,-443.339 67.3558,-433.918 60.4228,-432.952"/>
</g>
<!-- Node39 -->
<g id="node22" class="node"><title>Node39</title>
<g id="a_node22"><a xlink:href="class_minecraft_server_service_1_1_vanilla_server.html#ad488208dfbf40e94a3c692a8fce9531a" target="_top" xlink:title="MinecraftServerService\l::VanillaServer::sendCommand">
<polygon fill="none" stroke="black" points="167.5,-0.5 167.5,-30.5 319.5,-30.5 319.5,-0.5 167.5,-0.5"/>
<text text-anchor="start" x="175.5" y="-18.5" font-family="Helvetica,sans-Serif" font-size="10.00">MinecraftServerService</text>
<text text-anchor="middle" x="243.5" y="-7.5" font-family="Helvetica,sans-Serif" font-size="10.00">::VanillaServer::sendCommand</text>
</a>
</g>
</g>
<!-- Node18&#45;&gt;Node39 -->
<g id="edge31" class="edge"><title>Node18&#45;&gt;Node39</title>
<path fill="none" stroke="midnightblue" d="M62.8284,-433.205C70.8385,-351.597 99.8485,-97.2415 155,-39.5 158.59,-35.741 162.709,-32.5523 167.16,-29.8494"/>
<polygon fill="midnightblue" stroke="midnightblue" points="59.3284,-433.038 61.8565,-443.327 66.2963,-433.707 59.3284,-433.038"/>
</g>
<!-- Node19&#45;&gt;Node20 -->
<g id="edge2" class="edge"><title>Node19&#45;&gt;Node20</title>
<path fill="none" stroke="midnightblue" d="M320.154,-880.341C339.978,-876.107 361.259,-871.561 380.759,-867.396"/>
<polygon fill="midnightblue" stroke="midnightblue" points="319.294,-876.945 310.246,-882.457 320.757,-883.791 319.294,-876.945"/>
</g>
<!-- Node21&#45;&gt;Node20 -->
<g id="edge4" class="edge"><title>Node21&#45;&gt;Node20</title>
<path fill="none" stroke="midnightblue" d="M319.654,-824.552C339.62,-828.817 361.094,-833.404 380.758,-837.604"/>
<polygon fill="midnightblue" stroke="midnightblue" points="320.19,-821.088 309.68,-822.422 318.728,-827.934 320.19,-821.088"/>
</g>
<!-- Node23&#45;&gt;Node24 -->
<g id="edge8" class="edge"><title>Node23&#45;&gt;Node24</title>
<path fill="none" stroke="midnightblue" d="M324.84,-693.34C343.095,-689.441 362.348,-685.329 380.15,-681.526"/>
<polygon fill="midnightblue" stroke="midnightblue" points="323.866,-689.969 314.817,-695.481 325.328,-696.815 323.866,-689.969"/>
</g>
<!-- Node25&#45;&gt;Node24 -->
<g id="edge10" class="edge"><title>Node25&#45;&gt;Node24</title>
<path fill="none" stroke="midnightblue" d="M324.84,-639.66C343.095,-643.559 362.348,-647.671 380.15,-651.474"/>
<polygon fill="midnightblue" stroke="midnightblue" points="325.328,-636.185 314.817,-637.519 323.866,-643.031 325.328,-636.185"/>
</g>
<!-- Node27&#45;&gt;Node28 -->
<g id="edge14" class="edge"><title>Node27&#45;&gt;Node28</title>
<path fill="none" stroke="midnightblue" d="M323.08,-507.716C341.833,-503.71 361.733,-499.46 380.093,-495.538"/>
<polygon fill="midnightblue" stroke="midnightblue" points="322.143,-504.337 313.095,-509.849 323.606,-511.183 322.143,-504.337"/>
</g>
<!-- Node29&#45;&gt;Node28 -->
<g id="edge16" class="edge"><title>Node29&#45;&gt;Node28</title>
<path fill="none" stroke="midnightblue" d="M322.318,-453.121C341.289,-457.173 361.474,-461.485 380.078,-465.458"/>
<polygon fill="midnightblue" stroke="midnightblue" points="323.034,-449.695 312.523,-451.029 321.571,-456.541 323.034,-449.695"/>
</g>
<!-- Node31 -->
<g id="node14" class="node"><title>Node31</title>
<g id="a_node14"><a xlink:href="class_minecraft_server_service_1_1_generic_server.html#ac1dbf140a9e263090602995dd5cb1fa6" target="_top" xlink:title="MinecraftServerService\l::GenericServer::listOnlinePlayers">
<polygon fill="none" stroke="black" points="369.5,-372.5 369.5,-402.5 533.5,-402.5 533.5,-372.5 369.5,-372.5"/>
<text text-anchor="start" x="377.5" y="-390.5" font-family="Helvetica,sans-Serif" font-size="10.00">MinecraftServerService</text>
<text text-anchor="middle" x="451.5" y="-379.5" font-family="Helvetica,sans-Serif" font-size="10.00">::GenericServer::listOnlinePlayers</text>
</a>
</g>
</g>
<!-- Node30&#45;&gt;Node31 -->
<g id="edge19" class="edge"><title>Node30&#45;&gt;Node31</title>
<path fill="none" stroke="midnightblue" d="M332.291,-387.5C344.54,-387.5 357.083,-387.5 369.205,-387.5"/>
<polygon fill="midnightblue" stroke="midnightblue" points="332.086,-384 322.086,-387.5 332.086,-391 332.086,-384"/>
</g>
<!-- Node32&#45;&gt;Node33 -->
<g id="edge21" class="edge"><title>Node32&#45;&gt;Node33</title>
<path fill="none" stroke="midnightblue" d="M320.154,-322.341C339.978,-318.107 361.259,-313.561 380.759,-309.396"/>
<polygon fill="midnightblue" stroke="midnightblue" points="319.294,-318.945 310.246,-324.457 320.757,-325.791 319.294,-318.945"/>
</g>
<!-- Node34&#45;&gt;Node33 -->
<g id="edge23" class="edge"><title>Node34&#45;&gt;Node33</title>
<path fill="none" stroke="midnightblue" d="M319.654,-266.552C339.62,-270.817 361.094,-275.404 380.758,-279.604"/>
<polygon fill="midnightblue" stroke="midnightblue" points="320.19,-263.088 309.68,-264.422 318.728,-269.934 320.19,-263.088"/>
</g>
<!-- Node36&#45;&gt;Node37 -->
<g id="edge27" class="edge"><title>Node36&#45;&gt;Node37</title>
<path fill="none" stroke="midnightblue" d="M320.325,-136.304C339.919,-132.119 360.926,-127.632 380.224,-123.51"/>
<polygon fill="midnightblue" stroke="midnightblue" points="319.578,-132.885 310.53,-138.397 321.04,-139.73 319.578,-132.885"/>
</g>
<!-- Node38&#45;&gt;Node37 -->
<g id="edge29" class="edge"><title>Node38&#45;&gt;Node37</title>
<path fill="none" stroke="midnightblue" d="M320.325,-80.6956C339.919,-84.8808 360.926,-89.3678 380.224,-93.4895"/>
<polygon fill="midnightblue" stroke="midnightblue" points="321.04,-77.2695 310.53,-78.6034 319.578,-84.1151 321.04,-77.2695"/>
</g>
<!-- Node40 -->
<g id="node23" class="node"><title>Node40</title>
<g id="a_node23"><a xlink:href="class_minecraft_server_service_1_1_vanilla_server.html#a64fb96ddf16973c340ba04416787340e" target="_top" xlink:title="MinecraftServerService\l::VanillaServer::reloadServer">
<polygon fill="none" stroke="black" points="381,-0.5 381,-30.5 522,-30.5 522,-0.5 381,-0.5"/>
<text text-anchor="start" x="389" y="-18.5" font-family="Helvetica,sans-Serif" font-size="10.00">MinecraftServerService</text>
<text text-anchor="middle" x="451.5" y="-7.5" font-family="Helvetica,sans-Serif" font-size="10.00">::VanillaServer::reloadServer</text>
</a>
</g>
</g>
<!-- Node39&#45;&gt;Node40 -->
<g id="edge32" class="edge"><title>Node39&#45;&gt;Node40</title>
<path fill="none" stroke="midnightblue" d="M330.174,-15.5C347.083,-15.5 364.634,-15.5 380.932,-15.5"/>
<polygon fill="midnightblue" stroke="midnightblue" points="329.745,-12.0001 319.745,-15.5 329.745,-19.0001 329.745,-12.0001"/>
</g>
</g>
</svg>
        <g id="navigator" transform="translate(0 0)" fill="#404254">
                <rect fill="#f2f5e9" fill-opacity="0.5" stroke="#606060" stroke-width=".5" x="0" y="0" width="60" height="60"/>
                <use id="zoomplus" xlink:href="#zoomPlus" x="17" y="9" onmousedown="handleZoom(evt,'in')"/>
                <use id="zoomminus" xlink:href="#zoomMin" x="42" y="9" onmousedown="handleZoom(evt,'out')"/>
                <use id="reset" xlink:href="#resetDef" x="30" y="36" onmousedown="handleReset()"/>
                <g id="arrowUp" xlink:href="#dirArrow" transform="translate(30 24)" onmousedown="handlePan(0,-1)">
                  <use xlink:href="#rim" fill="#404040">
                        <set attributeName="fill" to="#808080" begin="arrowUp.mouseover" end="arrowUp.mouseout"/>
                  </use>
                  <path fill="none" stroke="white" stroke-width="1.5" d="M0,-3.0v7 M-2.5,-0.5L0,-3.0L2.5,-0.5"/>
                </g>
                <g id="arrowRight" xlink:href="#dirArrow" transform="rotate(90) translate(36 -43)" onmousedown="handlePan(1,0)">
                  <use xlink:href="#rim" fill="#404040">
                        <set attributeName="fill" to="#808080" begin="arrowRight.mouseover" end="arrowRight.mouseout"/>
                  </use>
                  <path fill="none" stroke="white" stroke-width="1.5" d="M0,-3.0v7 M-2.5,-0.5L0,-3.0L2.5,-0.5"/>
                </g>
                <g id="arrowDown" xlink:href="#dirArrow" transform="rotate(180) translate(-30 -48)" onmousedown="handlePan(0,1)">
                  <use xlink:href="#rim" fill="#404040">
                        <set attributeName="fill" to="#808080" begin="arrowDown.mouseover" end="arrowDown.mouseout"/>
                  </use>
                  <path fill="none" stroke="white" stroke-width="1.5" d="M0,-3.0v7 M-2.5,-0.5L0,-3.0L2.5,-0.5"/>
                </g>
                <g id="arrowLeft" xlink:href="#dirArrow" transform="rotate(270) translate(-36 17)" onmousedown="handlePan(-1,0)">
                  <use xlink:href="#rim" fill="#404040">
                        <set attributeName="fill" to="#808080" begin="arrowLeft.mouseover" end="arrowLeft.mouseout"/>
                  </use>
                  <path fill="none" stroke="white" stroke-width="1.5" d="M0,-3.0v7 M-2.5,-0.5L0,-3.0L2.5,-0.5"/>
                </g>
        </g>
        <svg viewBox="0 0 15 15" width="100%" height="30px" preserveAspectRatio="xMaxYMin meet">
         <g id="arrow_out" transform="scale(0.3 0.3)">
          <a xlink:href="class_minecraft_server_service_1_1_server_a1954e7c7756cd956e7282887ffca73e4_icgraph_org.svg" target="_base">
           <rect id="button" ry="5" rx="5" y="6" x="6" height="38" width="38"
                fill="#f2f5e9" fill-opacity="0.5" stroke="#606060" stroke-width="1.0"/>
           <path id="arrow"
             d="M 11.500037,31.436501 C 11.940474,20.09759 22.043105,11.32322 32.158766,21.979434 L 37.068811,17.246167 C 37.068811,17.246167 37.088388,32 37.088388,32 L 22.160133,31.978069 C 22.160133,31.978069 26.997745,27.140456 26.997745,27.140456 C 18.528582,18.264221 13.291696,25.230495 11.500037,31.436501 z"
             style="fill:#404040;"/>
          </a>
         </g>
        </svg>
</svg>
