<?xml version="1.0" encoding="UTF-8" standalone="no"?>
<!DOCTYPE svg PUBLIC "-//W3C//DTD SVG 1.1//EN"
 "http://www.w3.org/Graphics/SVG/1.1/DTD/svg11.dtd">
<!-- Generated by graphviz version 2.38.0 (20140413.2041)
 -->
<!-- Title: Json::OurReader::addError Pages: 1 -->
<svg width="732pt" height="293pt"
 viewBox="0.00 0.00 732.00 293.05" xmlns="http://www.w3.org/2000/svg" xmlns:xlink="http://www.w3.org/1999/xlink">
<g id="graph0" class="graph" transform="scale(1 1) rotate(0) translate(4 289.049)">
<title>Json::OurReader::addError</title>
<!-- Node19 -->
<g id="node1" class="node"><title>Node19</title>
<polygon fill="#bfbfbf" stroke="black" points="0,-134.049 0,-153.049 134,-153.049 134,-134.049 0,-134.049"/>
<text text-anchor="middle" x="67" y="-141.049" font-family="Helvetica,sans-Serif" font-size="10.00">Json::OurReader::addError</text>
</g>
<!-- Node20 -->
<g id="node2" class="node"><title>Node20</title>
<g id="a_node2"><a xlink:href="class_json_1_1_our_reader.html#aba4f8749aab7f02ec17f107e392caf80" target="_top" xlink:title="Json::OurReader::parse">
<polygon fill="none" stroke="black" points="391.5,-260.049 391.5,-279.049 512.5,-279.049 512.5,-260.049 391.5,-260.049"/>
<text text-anchor="middle" x="452" y="-267.049" font-family="Helvetica,sans-Serif" font-size="10.00">Json::OurReader::parse</text>
</a>
</g>
</g>
<!-- Node19&#45;&gt;Node20 -->
<g id="edge1" class="edge"><title>Node19&#45;&gt;Node20</title>
<path fill="none" stroke="midnightblue" d="M79.0541,-161.798C95.3961,-186.887 128.584,-231.132 170,-250.549 240.614,-283.656 332.317,-282.884 391.418,-277.598"/>
<polygon fill="midnightblue" stroke="midnightblue" points="81.9314,-159.799 73.6336,-153.211 76.0122,-163.536 81.9314,-159.799"/>
</g>
<!-- Node22 -->
<g id="node4" class="node"><title>Node22</title>
<g id="a_node4"><a xlink:href="class_json_1_1_our_reader.html#a1765d9670d191c89a57a22ea5591d35f" target="_top" xlink:title="Json::OurReader::readValue">
<polygon fill="none" stroke="black" points="182,-222.049 182,-241.049 322,-241.049 322,-222.049 182,-222.049"/>
<text text-anchor="middle" x="252" y="-229.049" font-family="Helvetica,sans-Serif" font-size="10.00">Json::OurReader::readValue</text>
</a>
</g>
</g>
<!-- Node19&#45;&gt;Node22 -->
<g id="edge3" class="edge"><title>Node19&#45;&gt;Node22</title>
<path fill="none" stroke="midnightblue" d="M86.9499,-159.512C106.541,-175.226 138.608,-198.809 170,-212.549 178.733,-216.372 188.347,-219.486 197.807,-222.004"/>
<polygon fill="midnightblue" stroke="midnightblue" points="89.0731,-156.727 79.1148,-153.11 84.644,-162.148 89.0731,-156.727"/>
</g>
<!-- Node25 -->
<g id="node7" class="node"><title>Node25</title>
<g id="a_node7"><a xlink:href="class_json_1_1_our_reader.html#aa5c15a8cd32754f07430dedba3d1308e" target="_top" xlink:title="Json::OurReader::decodeDouble">
<polygon fill="none" stroke="black" points="172.5,-134.049 172.5,-153.049 331.5,-153.049 331.5,-134.049 172.5,-134.049"/>
<text text-anchor="middle" x="252" y="-141.049" font-family="Helvetica,sans-Serif" font-size="10.00">Json::OurReader::decodeDouble</text>
</a>
</g>
</g>
<!-- Node19&#45;&gt;Node25 -->
<g id="edge9" class="edge"><title>Node19&#45;&gt;Node25</title>
<path fill="none" stroke="midnightblue" d="M144.36,-143.549C153.574,-143.549 162.999,-143.549 172.246,-143.549"/>
<polygon fill="midnightblue" stroke="midnightblue" points="144.067,-140.049 134.067,-143.549 144.067,-147.049 144.067,-140.049"/>
</g>
<!-- Node26 -->
<g id="node8" class="node"><title>Node26</title>
<g id="a_node8"><a xlink:href="class_json_1_1_our_reader.html#a44b589a85f02f0e2de1b4ad6916be0c5" target="_top" xlink:title="Json::OurReader::decodeString">
<polygon fill="none" stroke="black" points="570,-30.0493 570,-49.0493 724,-49.0493 724,-30.0493 570,-30.0493"/>
<text text-anchor="middle" x="647" y="-37.0493" font-family="Helvetica,sans-Serif" font-size="10.00">Json::OurReader::decodeString</text>
</a>
</g>
</g>
<!-- Node19&#45;&gt;Node26 -->
<g id="edge10" class="edge"><title>Node19&#45;&gt;Node26</title>
<path fill="none" stroke="midnightblue" d="M78.6396,-125.291C94.6847,-99.8016 127.743,-54.6477 170,-36.5493 322.312,28.6854 528.023,-10.1042 610.06,-29.9891"/>
<polygon fill="midnightblue" stroke="midnightblue" points="75.5486,-123.638 73.3395,-133.999 81.5282,-127.277 75.5486,-123.638"/>
</g>
<!-- Node27 -->
<g id="node9" class="node"><title>Node27</title>
<g id="a_node9"><a xlink:href="class_json_1_1_our_reader.html#ac1bf03c161ece082e48da450c50f528d" target="_top" xlink:title="Json::OurReader::decodeUnicode\lCodePoint">
<polygon fill="none" stroke="black" points="370,-46.5493 370,-76.5493 534,-76.5493 534,-46.5493 370,-46.5493"/>
<text text-anchor="start" x="378" y="-64.5493" font-family="Helvetica,sans-Serif" font-size="10.00">Json::OurReader::decodeUnicode</text>
<text text-anchor="middle" x="452" y="-53.5493" font-family="Helvetica,sans-Serif" font-size="10.00">CodePoint</text>
</a>
</g>
</g>
<!-- Node19&#45;&gt;Node27 -->
<g id="edge11" class="edge"><title>Node19&#45;&gt;Node27</title>
<path fill="none" stroke="midnightblue" d="M122.742,-131.829C190.581,-117.305 306.299,-92.5297 380.658,-76.6095"/>
<polygon fill="midnightblue" stroke="midnightblue" points="121.73,-128.466 112.685,-133.982 123.196,-135.311 121.73,-128.466"/>
</g>
<!-- Node28 -->
<g id="node10" class="node"><title>Node28</title>
<g id="a_node10"><a xlink:href="class_json_1_1_our_reader.html#adb39be814cc6076b91a0919bdd5b24b0" target="_top" xlink:title="Json::OurReader::decodeUnicode\lEscapeSequence">
<polygon fill="none" stroke="black" points="170,-46.5493 170,-76.5493 334,-76.5493 334,-46.5493 170,-46.5493"/>
<text text-anchor="start" x="178" y="-64.5493" font-family="Helvetica,sans-Serif" font-size="10.00">Json::OurReader::decodeUnicode</text>
<text text-anchor="middle" x="252" y="-53.5493" font-family="Helvetica,sans-Serif" font-size="10.00">EscapeSequence</text>
</a>
</g>
</g>
<!-- Node19&#45;&gt;Node28 -->
<g id="edge13" class="edge"><title>Node19&#45;&gt;Node28</title>
<path fill="none" stroke="midnightblue" d="M94.3629,-129.035C114.721,-118.091 143.754,-103.053 170,-91.5493 181.949,-86.3119 195.132,-81.1695 207.329,-76.6624"/>
<polygon fill="midnightblue" stroke="midnightblue" points="92.5148,-126.056 85.389,-133.896 95.8489,-132.21 92.5148,-126.056"/>
</g>
<!-- Node29 -->
<g id="node11" class="node"><title>Node29</title>
<g id="a_node11"><a xlink:href="class_json_1_1_our_reader.html#ae68a7047acd692be8077e259d524c6d9" target="_top" xlink:title="Json::OurReader::addError\lAndRecover">
<polygon fill="none" stroke="black" points="185,-172.549 185,-202.549 319,-202.549 319,-172.549 185,-172.549"/>
<text text-anchor="start" x="193" y="-190.549" font-family="Helvetica,sans-Serif" font-size="10.00">Json::OurReader::addError</text>
<text text-anchor="middle" x="252" y="-179.549" font-family="Helvetica,sans-Serif" font-size="10.00">AndRecover</text>
</a>
</g>
</g>
<!-- Node19&#45;&gt;Node29 -->
<g id="edge15" class="edge"><title>Node19&#45;&gt;Node29</title>
<path fill="none" stroke="midnightblue" d="M117.722,-155.504C139.491,-160.738 165.278,-166.939 188.342,-172.484"/>
<polygon fill="midnightblue" stroke="midnightblue" points="118.249,-152.031 107.708,-153.097 116.613,-158.837 118.249,-152.031"/>
</g>
<!-- Node21 -->
<g id="node3" class="node"><title>Node21</title>
<g id="a_node3"><a xlink:href="class_json_1_1_our_char_reader.html#a52a1fb5fee88d9b63dd462f63b1c9570" target="_top" xlink:title="Json::OurCharReader\l::parse">
<polygon fill="none" stroke="black" points="591,-254.549 591,-284.549 703,-284.549 703,-254.549 591,-254.549"/>
<text text-anchor="start" x="599" y="-272.549" font-family="Helvetica,sans-Serif" font-size="10.00">Json::OurCharReader</text>
<text text-anchor="middle" x="647" y="-261.549" font-family="Helvetica,sans-Serif" font-size="10.00">::parse</text>
</a>
</g>
</g>
<!-- Node20&#45;&gt;Node21 -->
<g id="edge2" class="edge"><title>Node20&#45;&gt;Node21</title>
<path fill="none" stroke="midnightblue" d="M522.854,-269.549C545.214,-269.549 569.646,-269.549 590.81,-269.549"/>
<polygon fill="midnightblue" stroke="midnightblue" points="522.745,-266.049 512.745,-269.549 522.745,-273.049 522.745,-266.049"/>
</g>
<!-- Node22&#45;&gt;Node20 -->
<g id="edge4" class="edge"><title>Node22&#45;&gt;Node20</title>
<path fill="none" stroke="midnightblue" d="M312.866,-243.039C341.117,-248.461 374.436,-254.855 401.271,-260.005"/>
<polygon fill="midnightblue" stroke="midnightblue" points="313.189,-239.537 302.708,-241.089 311.869,-246.411 313.189,-239.537"/>
</g>
<!-- Node23 -->
<g id="node5" class="node"><title>Node23</title>
<g id="a_node5"><a xlink:href="class_json_1_1_our_reader.html#aea198f8101dba55099f4d8121a993530" target="_top" xlink:title="Json::OurReader::readObject">
<polygon fill="none" stroke="black" points="380,-184.049 380,-203.049 524,-203.049 524,-184.049 380,-184.049"/>
<text text-anchor="middle" x="452" y="-191.049" font-family="Helvetica,sans-Serif" font-size="10.00">Json::OurReader::readObject</text>
</a>
</g>
</g>
<!-- Node22&#45;&gt;Node23 -->
<g id="edge5" class="edge"><title>Node22&#45;&gt;Node23</title>
<path fill="none" stroke="midnightblue" d="M288.357,-219.45C313.669,-213.244 348.614,-206.138 379.627,-200.736"/>
<polygon fill="midnightblue" stroke="midnightblue" points="287.311,-216.104 278.48,-221.957 289.033,-222.889 287.311,-216.104"/>
</g>
<!-- Node24 -->
<g id="node6" class="node"><title>Node24</title>
<g id="a_node6"><a xlink:href="class_json_1_1_our_reader.html#a0b9f58faf4212c6ecb5d8e2a1ac10257" target="_top" xlink:title="Json::OurReader::readArray">
<polygon fill="none" stroke="black" points="382.5,-222.049 382.5,-241.049 521.5,-241.049 521.5,-222.049 382.5,-222.049"/>
<text text-anchor="middle" x="452" y="-229.049" font-family="Helvetica,sans-Serif" font-size="10.00">Json::OurReader::readArray</text>
</a>
</g>
</g>
<!-- Node22&#45;&gt;Node24 -->
<g id="edge7" class="edge"><title>Node22&#45;&gt;Node24</title>
<path fill="none" stroke="midnightblue" d="M332.447,-224.918C349.008,-224.715 366.33,-224.773 382.457,-225.092"/>
<polygon fill="midnightblue" stroke="midnightblue" points="332.195,-221.421 322.251,-225.078 332.305,-228.42 332.195,-221.421"/>
</g>
<!-- Node23&#45;&gt;Node22 -->
<g id="edge6" class="edge"><title>Node23&#45;&gt;Node22</title>
<path fill="none" stroke="midnightblue" d="M416.059,-205.546C390.139,-211.918 353.952,-219.257 322.251,-224.73"/>
<polygon fill="midnightblue" stroke="midnightblue" points="416.976,-208.925 425.804,-203.067 415.25,-202.141 416.976,-208.925"/>
</g>
<!-- Node24&#45;&gt;Node22 -->
<g id="edge8" class="edge"><title>Node24&#45;&gt;Node22</title>
<path fill="none" stroke="midnightblue" d="M372.278,-238.172C355.74,-238.382 338.412,-238.332 322.251,-238.021"/>
<polygon fill="midnightblue" stroke="midnightblue" points="372.515,-241.669 382.457,-238.007 372.401,-234.669 372.515,-241.669"/>
</g>
<!-- Node27&#45;&gt;Node26 -->
<g id="edge12" class="edge"><title>Node27&#45;&gt;Node26</title>
<path fill="none" stroke="midnightblue" d="M544.08,-51.1671C552.694,-50.1852 561.365,-49.1967 569.819,-48.2331"/>
<polygon fill="midnightblue" stroke="midnightblue" points="543.55,-47.7048 534.01,-52.3149 544.343,-54.6597 543.55,-47.7048"/>
</g>
<!-- Node28&#45;&gt;Node27 -->
<g id="edge14" class="edge"><title>Node28&#45;&gt;Node27</title>
<path fill="none" stroke="midnightblue" d="M344.363,-61.5493C352.817,-61.5493 361.346,-61.5493 369.7,-61.5493"/>
<polygon fill="midnightblue" stroke="midnightblue" points="344.106,-58.0494 334.105,-61.5493 344.105,-65.0494 344.106,-58.0494"/>
</g>
<!-- Node29&#45;&gt;Node23 -->
<g id="edge16" class="edge"><title>Node29&#45;&gt;Node23</title>
<path fill="none" stroke="midnightblue" d="M329.386,-189.864C345.948,-190.366 363.402,-190.895 379.757,-191.39"/>
<polygon fill="midnightblue" stroke="midnightblue" points="329.308,-186.36 319.206,-189.556 329.096,-193.357 329.308,-186.36"/>
</g>
<!-- Node29&#45;&gt;Node24 -->
<g id="edge17" class="edge"><title>Node29&#45;&gt;Node24</title>
<path fill="none" stroke="midnightblue" d="M328.974,-204.432C355.823,-210.399 385.063,-216.897 408.189,-222.036"/>
<polygon fill="midnightblue" stroke="midnightblue" points="329.728,-201.015 319.206,-202.262 328.209,-207.848 329.728,-201.015"/>
</g>
</g>
</svg>
