<?xml version="1.0" encoding="UTF-8" standalone="no"?>
<!DOCTYPE svg PUBLIC "-//W3C//DTD SVG 1.1//EN"
 "http://www.w3.org/Graphics/SVG/1.1/DTD/svg11.dtd">
<!-- Generated by graphviz version 2.38.0 (20140413.2041)
 -->
<!-- Title: MinecraftServerService::ServerStream::stopServer Pages: 1 -->
<svg width="505pt" height="61pt"
 viewBox="0.00 0.00 505.00 61.00" xmlns="http://www.w3.org/2000/svg" xmlns:xlink="http://www.w3.org/1999/xlink">
<g id="graph0" class="graph" transform="scale(1 1) rotate(0) translate(4 57)">
<title>MinecraftServerService::ServerStream::stopServer</title>
<!-- Node14 -->
<g id="node1" class="node"><title>Node14</title>
<polygon fill="#bfbfbf" stroke="black" points="0,-22.5 0,-52.5 136,-52.5 136,-22.5 0,-22.5"/>
<text text-anchor="start" x="8" y="-40.5" font-family="Helvetica,sans-Serif" font-size="10.00">MinecraftServerService</text>
<text text-anchor="middle" x="68" y="-29.5" font-family="Helvetica,sans-Serif" font-size="10.00">::ServerStream::stopServer</text>
</g>
<!-- Node15 -->
<g id="node2" class="node"><title>Node15</title>
<g id="a_node2"><a xlink:href="class_minecraft_server_service_1_1_server_process_buf.html#aea2e874a9ba6aa6558201008d9b909f0" target="_top" xlink:title="MinecraftServerService\l::ServerProcessBuf::exited">
<polygon fill="none" stroke="black" points="363,-22.5 363,-52.5 497,-52.5 497,-22.5 363,-22.5"/>
<text text-anchor="start" x="371" y="-40.5" font-family="Helvetica,sans-Serif" font-size="10.00">MinecraftServerService</text>
<text text-anchor="middle" x="430" y="-29.5" font-family="Helvetica,sans-Serif" font-size="10.00">::ServerProcessBuf::exited</text>
</a>
</g>
</g>
<!-- Node14&#45;&gt;Node15 -->
<g id="edge1" class="edge"><title>Node14&#45;&gt;Node15</title>
<path fill="none" stroke="midnightblue" d="M136.035,-39.7353C148.01,-40.054 160.373,-40.3307 172,-40.5 240.882,-41.5029 258.119,-41.5127 327,-40.5 335.339,-40.3774 344.061,-40.1984 352.743,-39.988"/>
<polygon fill="midnightblue" stroke="midnightblue" points="352.983,-43.483 362.89,-39.7279 352.804,-36.4853 352.983,-43.483"/>
</g>
<!-- Node16 -->
<g id="node3" class="node"><title>Node16</title>
<g id="a_node3"><a xlink:href="class_minecraft_server_service_1_1_server_stream.html#a194212956c6eb928a2db1b25e70dc565" target="_top" xlink:title="MinecraftServerService\l::ServerStream::sendCommand">
<polygon fill="none" stroke="black" points="172,-0.5 172,-30.5 327,-30.5 327,-0.5 172,-0.5"/>
<text text-anchor="start" x="180" y="-18.5" font-family="Helvetica,sans-Serif" font-size="10.00">MinecraftServerService</text>
<text text-anchor="middle" x="249.5" y="-7.5" font-family="Helvetica,sans-Serif" font-size="10.00">::ServerStream::sendCommand</text>
</a>
</g>
</g>
<!-- Node14&#45;&gt;Node16 -->
<g id="edge2" class="edge"><title>Node14&#45;&gt;Node16</title>
<path fill="none" stroke="midnightblue" d="M136.094,-29.2767C144.468,-28.2504 153.124,-27.1895 161.743,-26.1332"/>
<polygon fill="midnightblue" stroke="midnightblue" points="162.324,-29.5882 171.824,-24.8976 161.473,-22.6402 162.324,-29.5882"/>
</g>
<!-- Node16&#45;&gt;Node15 -->
<g id="edge3" class="edge"><title>Node16&#45;&gt;Node15</title>
<path fill="none" stroke="midnightblue" d="M327.236,-24.9577C335.793,-26.0123 344.507,-27.0863 353.055,-28.1398"/>
<polygon fill="midnightblue" stroke="midnightblue" points="352.64,-31.6151 362.993,-29.3647 353.496,-24.6676 352.64,-31.6151"/>
</g>
</g>
</svg>
