<?xml version="1.0" encoding="UTF-8" standalone="no"?>
<!DOCTYPE svg PUBLIC "-//W3C//DTD SVG 1.1//EN"
 "http://www.w3.org/Graphics/SVG/1.1/DTD/svg11.dtd">
<!-- Generated by graphviz version 2.38.0 (20140413.2041)
 -->
<!-- Title: Json::OurReader::readObject Pages: 1 -->
<!--zoomable 542 -->
<svg id="main" version="1.1" xmlns="http://www.w3.org/2000/svg" xmlns:xlink="http://www.w3.org/1999/xlink" xml:space="preserve" onload="init(evt)">
<style type="text/css"><![CDATA[
.edge:hover path { stroke: red; }
.edge:hover polygon { stroke: red; fill: red; }
]]></style>
<script type="text/javascript"><![CDATA[
var edges = document.getElementsByTagName('g');
if (edges && edges.length) {
  for (var i=0;i<edges.length;i++) {
    if (edges[i].id.substr(0,4)=='edge') {
      edges[i].setAttribute('class','edge');
    }
  }
}
]]></script>
        <defs>
                <circle id="rim" cx="0" cy="0" r="7"/>
                <circle id="rim2" cx="0" cy="0" r="3.5"/>
                <g id="zoomPlus">
                        <use xlink:href="#rim" fill="#404040">
                                <set attributeName="fill" to="#808080" begin="zoomplus.mouseover" end="zoomplus.mouseout"/>
                        </use>
                        <path d="M-4,0h8M0,-4v8" fill="none" stroke="white" stroke-width="1.5" pointer-events="none"/>
                </g>
                <g id="zoomMin">
                        <use xlink:href="#rim" fill="#404040">
                                <set attributeName="fill" to="#808080" begin="zoomminus.mouseover" end="zoomminus.mouseout"/>
                        </use>
                        <path d="M-4,0h8" fill="none" stroke="white" stroke-width="1.5" pointer-events="none"/>
                </g>
                <g id="dirArrow">
                        <path fill="none" stroke="white" stroke-width="1.5" d="M0,-3.0v7 M-2.5,-0.5L0,-3.0L2.5,-0.5"/>
                </g>
               <g id="resetDef">
                       <use xlink:href="#rim2" fill="#404040">
                               <set attributeName="fill" to="#808080" begin="reset.mouseover" end="reset.mouseout"/>
                       </use>
               </g>
        </defs>

<script type="text/javascript">
var viewWidth = 1802;
var viewHeight = 542;
var sectionId = 'dynsection-37';
</script>
<script xlink:href="svgpan.js"/>
<svg id="graph" class="graph">
<g id="viewport">
<title>Json::OurReader::readObject</title>
<!-- Node271 -->
<g id="node1" class="node"><title>Node271</title>
<polygon fill="#bfbfbf" stroke="black" points="0,-334.5 0,-353.5 144,-353.5 144,-334.5 0,-334.5"/>
<text text-anchor="middle" x="72" y="-341.5" font-family="Helvetica,sans-Serif" font-size="10.00">Json::OurReader::readObject</text>
</g>
<!-- Node272 -->
<g id="node2" class="node"><title>Node272</title>
<g id="a_node2"><a xlink:href="class_json_1_1_our_reader.html#a2acd5b1d53e7d7e17c21ff8e96edc09d" target="_top" xlink:title="Json::OurReader::current\lValue">
<polygon fill="none" stroke="black" points="570.5,-443 570.5,-473 697.5,-473 697.5,-443 570.5,-443"/>
<text text-anchor="start" x="578.5" y="-461" font-family="Helvetica,sans-Serif" font-size="10.00">Json::OurReader::current</text>
<text text-anchor="middle" x="634" y="-450" font-family="Helvetica,sans-Serif" font-size="10.00">Value</text>
</a>
</g>
</g>
<!-- Node271&#45;&gt;Node272 -->
<g id="edge1" class="edge"><title>Node271&#45;&gt;Node272</title>
<path fill="none" stroke="midnightblue" d="M82.7206,-353.686C100.507,-370.884 140.14,-406.839 180,-427 315.902,-495.738 367.222,-489.562 519,-477 532.305,-475.899 546.396,-474.086 559.964,-472.007"/>
<polygon fill="midnightblue" stroke="midnightblue" points="560.892,-475.403 570.216,-470.372 559.79,-468.491 560.892,-475.403"/>
</g>
<!-- Node273 -->
<g id="node3" class="node"><title>Node273</title>
<g id="a_node3"><a xlink:href="class_json_1_1_our_reader.html#a0d1e66da47fe2e85f5033c59326dfdc3" target="_top" xlink:title="Json::OurReader::readToken">
<polygon fill="none" stroke="black" points="919,-159.5 919,-178.5 1062,-178.5 1062,-159.5 919,-159.5"/>
<text text-anchor="middle" x="990.5" y="-166.5" font-family="Helvetica,sans-Serif" font-size="10.00">Json::OurReader::readToken</text>
</a>
</g>
</g>
<!-- Node271&#45;&gt;Node273 -->
<g id="edge2" class="edge"><title>Node271&#45;&gt;Node273</title>
<path fill="none" stroke="midnightblue" d="M77.3634,-334.459C89.7681,-308.307 127.746,-234.663 180,-193 276.447,-116.102 313.149,-87 436.5,-87 436.5,-87 436.5,-87 635,-87 755.575,-87 893.423,-132.586 955.755,-155.779"/>
<polygon fill="midnightblue" stroke="midnightblue" points="954.856,-159.181 965.448,-159.433 957.325,-152.631 954.856,-159.181"/>
</g>
<!-- Node282 -->
<g id="node12" class="node"><title>Node282</title>
<g id="a_node12"><a xlink:href="namespace_json.html#a97f039a107b3f6cf1c3edee50e978f76" target="_top" xlink:title="Json::throwRuntimeError">
<polygon fill="none" stroke="black" points="1496.5,-404.5 1496.5,-423.5 1621.5,-423.5 1621.5,-404.5 1496.5,-404.5"/>
<text text-anchor="middle" x="1559" y="-411.5" font-family="Helvetica,sans-Serif" font-size="10.00">Json::throwRuntimeError</text>
</a>
</g>
</g>
<!-- Node271&#45;&gt;Node282 -->
<g id="edge31" class="edge"><title>Node271&#45;&gt;Node282</title>
<path fill="none" stroke="midnightblue" d="M78.5813,-353.739C92.5012,-377.118 131.174,-436.715 180,-467 280.129,-529.105 318.675,-534 436.5,-534 436.5,-534 436.5,-534 1178,-534 1316.89,-534 1471.64,-460.2 1531.96,-428.351"/>
<polygon fill="midnightblue" stroke="midnightblue" points="1533.64,-431.419 1540.81,-423.617 1530.34,-425.246 1533.64,-431.419"/>
</g>
<!-- Node288 -->
<g id="node18" class="node"><title>Node288</title>
<g id="a_node18"><a xlink:href="class_json_1_1_our_reader.html#a34e31d8b8399b7ad493359702b6de6c9" target="_top" xlink:title="Json::OurReader::decodeString">
<polygon fill="none" stroke="black" points="360.5,-448.5 360.5,-467.5 514.5,-467.5 514.5,-448.5 360.5,-448.5"/>
<text text-anchor="middle" x="437.5" y="-455.5" font-family="Helvetica,sans-Serif" font-size="10.00">Json::OurReader::decodeString</text>
</a>
</g>
</g>
<!-- Node271&#45;&gt;Node288 -->
<g id="edge22" class="edge"><title>Node271&#45;&gt;Node288</title>
<path fill="none" stroke="midnightblue" d="M90.3337,-353.593C111.123,-364.782 147.27,-383.242 180,-395 255.882,-422.26 277.65,-419.961 356,-439 365.528,-441.315 375.7,-443.747 385.495,-446.069"/>
<polygon fill="midnightblue" stroke="midnightblue" points="384.986,-449.545 395.523,-448.439 386.596,-442.732 384.986,-449.545"/>
</g>
<!-- Node289 -->
<g id="node19" class="node"><title>Node289</title>
<g id="a_node19"><a xlink:href="class_json_1_1_our_reader.html#a035651f0700a76a815e5f904c63ebb1c" target="_top" xlink:title="Json::OurReader::recover\lFromError">
<polygon fill="none" stroke="black" points="751.5,-200 751.5,-230 880.5,-230 880.5,-200 751.5,-200"/>
<text text-anchor="start" x="759.5" y="-218" font-family="Helvetica,sans-Serif" font-size="10.00">Json::OurReader::recover</text>
<text text-anchor="middle" x="816" y="-207" font-family="Helvetica,sans-Serif" font-size="10.00">FromError</text>
</a>
</g>
</g>
<!-- Node271&#45;&gt;Node289 -->
<g id="edge24" class="edge"><title>Node271&#45;&gt;Node289</title>
<path fill="none" stroke="midnightblue" d="M82.7728,-334.416C100.642,-317.378 140.401,-281.67 180,-261 334.773,-180.209 382.402,-170.3 555,-144 624.421,-133.422 645.999,-122.977 713,-144 743.442,-153.552 772.749,-175.759 792.075,-192.814"/>
<polygon fill="midnightblue" stroke="midnightblue" points="789.964,-195.625 799.72,-199.756 794.669,-190.442 789.964,-195.625"/>
</g>
<!-- Node290 -->
<g id="node20" class="node"><title>Node290</title>
<g id="a_node20"><a xlink:href="class_json_1_1_our_reader.html#a272d271290933a89abfd5096dd69c9e9" target="_top" xlink:title="Json::OurReader::decodeNumber">
<polygon fill="none" stroke="black" points="356,-410.5 356,-429.5 519,-429.5 519,-410.5 356,-410.5"/>
<text text-anchor="middle" x="437.5" y="-417.5" font-family="Helvetica,sans-Serif" font-size="10.00">Json::OurReader::decodeNumber</text>
</a>
</g>
</g>
<!-- Node271&#45;&gt;Node290 -->
<g id="edge26" class="edge"><title>Node271&#45;&gt;Node290</title>
<path fill="none" stroke="midnightblue" d="M118.669,-353.548C185.278,-367.475 308.943,-393.331 380.804,-408.355"/>
<polygon fill="midnightblue" stroke="midnightblue" points="380.513,-411.87 391.017,-410.491 381.945,-405.018 380.513,-411.87"/>
</g>
<!-- Node291 -->
<g id="node21" class="node"><title>Node291</title>
<g id="a_node21"><a xlink:href="class_json_1_1_our_reader.html#ae68a7047acd692be8077e259d524c6d9" target="_top" xlink:title="Json::OurReader::addError\lAndRecover">
<polygon fill="none" stroke="black" points="567,-203 567,-233 701,-233 701,-203 567,-203"/>
<text text-anchor="start" x="575" y="-221" font-family="Helvetica,sans-Serif" font-size="10.00">Json::OurReader::addError</text>
<text text-anchor="middle" x="634" y="-210" font-family="Helvetica,sans-Serif" font-size="10.00">AndRecover</text>
</a>
</g>
</g>
<!-- Node271&#45;&gt;Node291 -->
<g id="edge28" class="edge"><title>Node271&#45;&gt;Node291</title>
<path fill="none" stroke="midnightblue" d="M98.3517,-334.402C147.391,-316.202 258.965,-276.571 356,-255 423.102,-240.083 500.775,-230.345 556.764,-224.621"/>
<polygon fill="midnightblue" stroke="midnightblue" points="557.358,-228.08 566.959,-223.599 556.66,-221.114 557.358,-228.08"/>
</g>
<!-- Node293 -->
<g id="node23" class="node"><title>Node293</title>
<g id="a_node23"><a xlink:href="class_json_1_1_our_reader.html#a1765d9670d191c89a57a22ea5591d35f" target="_top" xlink:title="Json::OurReader::readValue">
<polygon fill="none" stroke="black" points="180,-334.5 180,-353.5 320,-353.5 320,-334.5 180,-334.5"/>
<text text-anchor="middle" x="250" y="-341.5" font-family="Helvetica,sans-Serif" font-size="10.00">Json::OurReader::readValue</text>
</a>
</g>
</g>
<!-- Node271&#45;&gt;Node293 -->
<g id="edge32" class="edge"><title>Node271&#45;&gt;Node293</title>
<path fill="none" stroke="midnightblue" d="M144.079,-337.362C152.581,-337.248 161.303,-337.221 169.91,-337.281"/>
<polygon fill="midnightblue" stroke="midnightblue" points="169.903,-340.781 179.941,-337.391 169.98,-333.781 169.903,-340.781"/>
</g>
<!-- Node274 -->
<g id="node4" class="node"><title>Node274</title>
<g id="a_node4"><a xlink:href="class_json_1_1_our_reader.html#a6fbc6d58a4505e5ccadf330b57b17ca5" target="_top" xlink:title="Json::OurReader::skipSpaces">
<polygon fill="none" stroke="black" points="1103,-322.5 1103,-341.5 1251,-341.5 1251,-322.5 1103,-322.5"/>
<text text-anchor="middle" x="1177" y="-329.5" font-family="Helvetica,sans-Serif" font-size="10.00">Json::OurReader::skipSpaces</text>
</a>
</g>
</g>
<!-- Node273&#45;&gt;Node274 -->
<g id="edge3" class="edge"><title>Node273&#45;&gt;Node274</title>
<path fill="none" stroke="midnightblue" d="M997.994,-178.624C1013.29,-200.739 1053.65,-255.972 1098,-291 1111.69,-301.812 1128.66,-311.127 1143.27,-318.133"/>
<polygon fill="midnightblue" stroke="midnightblue" points="1141.93,-321.368 1152.47,-322.396 1144.87,-315.017 1141.93,-321.368"/>
</g>
<!-- Node275 -->
<g id="node5" class="node"><title>Node275</title>
<g id="a_node5"><a xlink:href="class_json_1_1_our_reader.html#a298285d035fdbc554caae09d9f0a5859" target="_top" xlink:title="Json::OurReader::getNextChar">
<polygon fill="none" stroke="black" points="1483,-174.5 1483,-193.5 1635,-193.5 1635,-174.5 1483,-174.5"/>
<text text-anchor="middle" x="1559" y="-181.5" font-family="Helvetica,sans-Serif" font-size="10.00">Json::OurReader::getNextChar</text>
</a>
</g>
</g>
<!-- Node273&#45;&gt;Node275 -->
<g id="edge4" class="edge"><title>Node273&#45;&gt;Node275</title>
<path fill="none" stroke="midnightblue" d="M1002.66,-159.423C1021.05,-144.339 1059.54,-115.666 1098,-105 1247.69,-63.4827 1298.48,-78.4869 1447,-124 1479.99,-134.109 1514.4,-154.49 1536,-168.677"/>
<polygon fill="midnightblue" stroke="midnightblue" points="1534.17,-171.668 1544.43,-174.33 1538.07,-165.854 1534.17,-171.668"/>
</g>
<!-- Node276 -->
<g id="node6" class="node"><title>Node276</title>
<g id="a_node6"><a xlink:href="class_json_1_1_our_reader.html#a5d39b12671499ec5975f3bbc84b7d438" target="_top" xlink:title="Json::OurReader::readString">
<polygon fill="none" stroke="black" points="1299,-152.5 1299,-171.5 1440,-171.5 1440,-152.5 1299,-152.5"/>
<text text-anchor="middle" x="1369.5" y="-159.5" font-family="Helvetica,sans-Serif" font-size="10.00">Json::OurReader::readString</text>
</a>
</g>
</g>
<!-- Node273&#45;&gt;Node276 -->
<g id="edge5" class="edge"><title>Node273&#45;&gt;Node276</title>
<path fill="none" stroke="midnightblue" d="M1062.41,-167.683C1126.83,-166.487 1221.74,-164.725 1288.77,-163.48"/>
<polygon fill="midnightblue" stroke="midnightblue" points="1288.93,-166.978 1298.86,-163.293 1288.8,-159.979 1288.93,-166.978"/>
</g>
<!-- Node277 -->
<g id="node7" class="node"><title>Node277</title>
<g id="a_node7"><a xlink:href="class_json_1_1_our_reader.html#ac78592defdc333faf56c6d0908758da3" target="_top" xlink:title="Json::OurReader::readString\lSingleQuote">
<polygon fill="none" stroke="black" points="1106.5,-115 1106.5,-145 1247.5,-145 1247.5,-115 1106.5,-115"/>
<text text-anchor="start" x="1114.5" y="-133" font-family="Helvetica,sans-Serif" font-size="10.00">Json::OurReader::readString</text>
<text text-anchor="middle" x="1177" y="-122" font-family="Helvetica,sans-Serif" font-size="10.00">SingleQuote</text>
</a>
</g>
</g>
<!-- Node273&#45;&gt;Node277 -->
<g id="edge7" class="edge"><title>Node273&#45;&gt;Node277</title>
<path fill="none" stroke="midnightblue" d="M1036.63,-159.46C1054.6,-155.661 1075.83,-151.174 1096.23,-146.861"/>
<polygon fill="midnightblue" stroke="midnightblue" points="1097.1,-150.255 1106.16,-144.762 1095.65,-143.406 1097.1,-150.255"/>
</g>
<!-- Node278 -->
<g id="node8" class="node"><title>Node278</title>
<g id="a_node8"><a xlink:href="class_json_1_1_our_reader.html#a90f6bb9e55b2bc3d6c1880809495c222" target="_top" xlink:title="Json::OurReader::readComment">
<polygon fill="none" stroke="black" points="1098,-262.5 1098,-281.5 1256,-281.5 1256,-262.5 1098,-262.5"/>
<text text-anchor="middle" x="1177" y="-269.5" font-family="Helvetica,sans-Serif" font-size="10.00">Json::OurReader::readComment</text>
</a>
</g>
</g>
<!-- Node273&#45;&gt;Node278 -->
<g id="edge9" class="edge"><title>Node273&#45;&gt;Node278</title>
<path fill="none" stroke="midnightblue" d="M1008.53,-178.505C1040.85,-196.548 1111.28,-235.871 1149.71,-257.323"/>
<polygon fill="midnightblue" stroke="midnightblue" points="1148.31,-260.549 1158.75,-262.368 1151.72,-254.437 1148.31,-260.549"/>
</g>
<!-- Node286 -->
<g id="node16" class="node"><title>Node286</title>
<g id="a_node16"><a xlink:href="class_json_1_1_our_reader.html#aefcb9a78cc45870ccac2db2a66c8ec50" target="_top" xlink:title="Json::OurReader::readNumber">
<polygon fill="none" stroke="black" points="1102,-38.5 1102,-57.5 1252,-57.5 1252,-38.5 1102,-38.5"/>
<text text-anchor="middle" x="1177" y="-45.5" font-family="Helvetica,sans-Serif" font-size="10.00">Json::OurReader::readNumber</text>
</a>
</g>
</g>
<!-- Node273&#45;&gt;Node286 -->
<g id="edge20" class="edge"><title>Node273&#45;&gt;Node286</title>
<path fill="none" stroke="midnightblue" d="M999.544,-159.22C1016.02,-139.801 1055.64,-96.1736 1098,-72 1105.78,-67.5607 1114.47,-63.8505 1123.15,-60.7799"/>
<polygon fill="midnightblue" stroke="midnightblue" points="1124.49,-64.0246 1132.9,-57.5801 1122.31,-57.3738 1124.49,-64.0246"/>
</g>
<!-- Node287 -->
<g id="node17" class="node"><title>Node287</title>
<g id="a_node17"><a xlink:href="class_json_1_1_our_reader.html#a4a03f1b266def9b47c4fef35386557fb" target="_top" xlink:title="Json::OurReader::match">
<polygon fill="none" stroke="black" points="1115,-0.5 1115,-19.5 1239,-19.5 1239,-0.5 1115,-0.5"/>
<text text-anchor="middle" x="1177" y="-7.5" font-family="Helvetica,sans-Serif" font-size="10.00">Json::OurReader::match</text>
</a>
</g>
</g>
<!-- Node273&#45;&gt;Node287 -->
<g id="edge21" class="edge"><title>Node273&#45;&gt;Node287</title>
<path fill="none" stroke="midnightblue" d="M995.899,-159.382C1008.12,-133.791 1045.11,-63.628 1098,-29 1101.16,-26.9315 1104.52,-25.088 1108.01,-23.445"/>
<polygon fill="midnightblue" stroke="midnightblue" points="1109.58,-26.5872 1117.49,-19.5477 1106.91,-20.113 1109.58,-26.5872"/>
</g>
<!-- Node276&#45;&gt;Node275 -->
<g id="edge6" class="edge"><title>Node276&#45;&gt;Node275</title>
<path fill="none" stroke="midnightblue" d="M1440.05,-170.161C1450.74,-171.415 1461.89,-172.723 1472.87,-174.012"/>
<polygon fill="midnightblue" stroke="midnightblue" points="1472.56,-177.499 1482.9,-175.188 1473.37,-170.546 1472.56,-177.499"/>
</g>
<!-- Node277&#45;&gt;Node275 -->
<g id="edge8" class="edge"><title>Node277&#45;&gt;Node275</title>
<path fill="none" stroke="midnightblue" d="M1247.55,-127.584C1302.29,-127.064 1380.23,-129.391 1447,-143 1475.45,-148.799 1506.33,-160.694 1528.27,-170.185"/>
<polygon fill="midnightblue" stroke="midnightblue" points="1527.13,-173.505 1537.69,-174.346 1529.96,-167.102 1527.13,-173.505"/>
</g>
<!-- Node278&#45;&gt;Node275 -->
<g id="edge10" class="edge"><title>Node278&#45;&gt;Node275</title>
<path fill="none" stroke="midnightblue" d="M1256.16,-264.768C1310.41,-258.547 1383.97,-247.706 1447,-230 1476.04,-221.842 1507.69,-208.223 1529.73,-197.916"/>
<polygon fill="midnightblue" stroke="midnightblue" points="1531.32,-201.038 1538.85,-193.586 1528.32,-194.715 1531.32,-201.038"/>
</g>
<!-- Node279 -->
<g id="node9" class="node"><title>Node279</title>
<g id="a_node9"><a xlink:href="class_json_1_1_our_reader.html#aba784b125baa1b62387e767b791f2f89" target="_top" xlink:title="Json::OurReader::readCStyle\lComment">
<polygon fill="none" stroke="black" points="1296.5,-191 1296.5,-221 1442.5,-221 1442.5,-191 1296.5,-191"/>
<text text-anchor="start" x="1304.5" y="-209" font-family="Helvetica,sans-Serif" font-size="10.00">Json::OurReader::readCStyle</text>
<text text-anchor="middle" x="1369.5" y="-198" font-family="Helvetica,sans-Serif" font-size="10.00">Comment</text>
</a>
</g>
</g>
<!-- Node278&#45;&gt;Node279 -->
<g id="edge11" class="edge"><title>Node278&#45;&gt;Node279</title>
<path fill="none" stroke="midnightblue" d="M1205.7,-262.403C1234.28,-252.501 1279.58,-236.808 1315.14,-224.486"/>
<polygon fill="midnightblue" stroke="midnightblue" points="1316.59,-227.688 1324.9,-221.107 1314.3,-221.074 1316.59,-227.688"/>
</g>
<!-- Node280 -->
<g id="node10" class="node"><title>Node280</title>
<g id="a_node10"><a xlink:href="class_json_1_1_our_reader.html#ae3de80671f0f997053e1c1c8a47a45c5" target="_top" xlink:title="Json::OurReader::readCpp\lStyleComment">
<polygon fill="none" stroke="black" points="1302.5,-279 1302.5,-309 1436.5,-309 1436.5,-279 1302.5,-279"/>
<text text-anchor="start" x="1310.5" y="-297" font-family="Helvetica,sans-Serif" font-size="10.00">Json::OurReader::readCpp</text>
<text text-anchor="middle" x="1369.5" y="-286" font-family="Helvetica,sans-Serif" font-size="10.00">StyleComment</text>
</a>
</g>
</g>
<!-- Node278&#45;&gt;Node280 -->
<g id="edge13" class="edge"><title>Node278&#45;&gt;Node280</title>
<path fill="none" stroke="midnightblue" d="M1256.03,-281.012C1268.07,-282.402 1280.5,-283.837 1292.49,-285.222"/>
<polygon fill="midnightblue" stroke="midnightblue" points="1292.12,-288.702 1302.45,-286.372 1292.92,-281.748 1292.12,-288.702"/>
</g>
<!-- Node281 -->
<g id="node11" class="node"><title>Node281</title>
<g id="a_node11"><a xlink:href="namespace_json.html#a4d6ab0f651348832e5cc49b577a854d2" target="_top" xlink:title="Json::containsNewLine">
<polygon fill="none" stroke="black" points="1310,-366.5 1310,-385.5 1429,-385.5 1429,-366.5 1310,-366.5"/>
<text text-anchor="middle" x="1369.5" y="-373.5" font-family="Helvetica,sans-Serif" font-size="10.00">Json::containsNewLine</text>
</a>
</g>
</g>
<!-- Node278&#45;&gt;Node281 -->
<g id="edge15" class="edge"><title>Node278&#45;&gt;Node281</title>
<path fill="none" stroke="midnightblue" d="M1202.01,-281.594C1218.26,-288.78 1239.64,-299.651 1256,-313 1275.58,-328.976 1270.65,-343.488 1292,-357 1295.35,-359.121 1298.92,-361.006 1302.63,-362.68"/>
<polygon fill="midnightblue" stroke="midnightblue" points="1301.45,-365.98 1312.04,-366.423 1304.04,-359.475 1301.45,-365.98"/>
</g>
<!-- Node283 -->
<g id="node13" class="node"><title>Node283</title>
<g id="a_node13"><a xlink:href="class_json_1_1_our_reader.html#ad7318c37469a9106069a236fb4b10e1f" target="_top" xlink:title="Json::OurReader::addComment">
<polygon fill="none" stroke="black" points="1292,-328.5 1292,-347.5 1447,-347.5 1447,-328.5 1292,-328.5"/>
<text text-anchor="middle" x="1369.5" y="-335.5" font-family="Helvetica,sans-Serif" font-size="10.00">Json::OurReader::addComment</text>
</a>
</g>
</g>
<!-- Node278&#45;&gt;Node283 -->
<g id="edge17" class="edge"><title>Node278&#45;&gt;Node283</title>
<path fill="none" stroke="midnightblue" d="M1199.55,-281.657C1222.24,-291.601 1259.18,-307.137 1292,-318 1300.43,-320.789 1309.48,-323.445 1318.3,-325.858"/>
<polygon fill="midnightblue" stroke="midnightblue" points="1317.55,-329.281 1328.12,-328.472 1319.35,-322.517 1317.55,-329.281"/>
</g>
<!-- Node279&#45;&gt;Node275 -->
<g id="edge12" class="edge"><title>Node279&#45;&gt;Node275</title>
<path fill="none" stroke="midnightblue" d="M1442.72,-197.526C1452.55,-196.373 1462.71,-195.181 1472.74,-194.004"/>
<polygon fill="midnightblue" stroke="midnightblue" points="1473.18,-197.476 1482.71,-192.834 1472.37,-190.524 1473.18,-197.476"/>
</g>
<!-- Node280&#45;&gt;Node275 -->
<g id="edge14" class="edge"><title>Node280&#45;&gt;Node275</title>
<path fill="none" stroke="midnightblue" d="M1414.65,-278.863C1425.47,-274.565 1436.85,-269.531 1447,-264 1481.28,-245.313 1517.29,-217.646 1538.69,-200.232"/>
<polygon fill="midnightblue" stroke="midnightblue" points="1541.16,-202.728 1546.66,-193.669 1536.71,-197.326 1541.16,-202.728"/>
</g>
<!-- Node281&#45;&gt;Node282 -->
<g id="edge16" class="edge"><title>Node281&#45;&gt;Node282</title>
<path fill="none" stroke="midnightblue" d="M1417.81,-385.589C1443.11,-390.716 1474.45,-397.067 1501.07,-402.463"/>
<polygon fill="midnightblue" stroke="midnightblue" points="1500.53,-405.924 1511.03,-404.48 1501.92,-399.063 1500.53,-405.924"/>
</g>
<!-- Node284 -->
<g id="node14" class="node"><title>Node284</title>
<g id="a_node14"><a xlink:href="namespace_json.html#a2e6b8616041876128cbef54b8c75da62" target="_top" xlink:title="Json::normalizeEOL">
<polygon fill="none" stroke="black" points="1506.5,-328.5 1506.5,-347.5 1611.5,-347.5 1611.5,-328.5 1506.5,-328.5"/>
<text text-anchor="middle" x="1559" y="-335.5" font-family="Helvetica,sans-Serif" font-size="10.00">Json::normalizeEOL</text>
</a>
</g>
</g>
<!-- Node283&#45;&gt;Node284 -->
<g id="edge18" class="edge"><title>Node283&#45;&gt;Node284</title>
<path fill="none" stroke="midnightblue" d="M1447.03,-338C1463.4,-338 1480.49,-338 1496.21,-338"/>
<polygon fill="midnightblue" stroke="midnightblue" points="1496.33,-341.5 1506.33,-338 1496.33,-334.5 1496.33,-341.5"/>
</g>
<!-- Node285 -->
<g id="node15" class="node"><title>Node285</title>
<g id="a_node15"><a xlink:href="namespace_json.html#adf0456e397a18cd7218a7b51dfc13c73" target="_top" xlink:title="Converts a unicode code&#45;point to UTF&#45;8. ">
<polygon fill="none" stroke="black" points="1671,-328.5 1671,-347.5 1794,-347.5 1794,-328.5 1671,-328.5"/>
<text text-anchor="middle" x="1732.5" y="-335.5" font-family="Helvetica,sans-Serif" font-size="10.00">Json::codePointToUTF8</text>
</a>
</g>
</g>
<!-- Node284&#45;&gt;Node285 -->
<g id="edge19" class="edge"><title>Node284&#45;&gt;Node285</title>
<path fill="none" stroke="midnightblue" d="M1611.92,-338C1627.27,-338 1644.34,-338 1660.67,-338"/>
<polygon fill="midnightblue" stroke="midnightblue" points="1660.71,-341.5 1670.71,-338 1660.71,-334.5 1660.71,-341.5"/>
</g>
<!-- Node288&#45;&gt;Node272 -->
<g id="edge23" class="edge"><title>Node288&#45;&gt;Node272</title>
<path fill="none" stroke="midnightblue" d="M514.534,-458C529.511,-458 545.193,-458 560.064,-458"/>
<polygon fill="midnightblue" stroke="midnightblue" points="560.212,-461.5 570.212,-458 560.212,-454.5 560.212,-461.5"/>
</g>
<!-- Node289&#45;&gt;Node273 -->
<g id="edge25" class="edge"><title>Node289&#45;&gt;Node273</title>
<path fill="none" stroke="midnightblue" d="M873.483,-199.938C896.301,-193.853 922.287,-186.924 943.873,-181.167"/>
<polygon fill="midnightblue" stroke="midnightblue" points="945.007,-184.487 953.768,-178.529 943.204,-177.723 945.007,-184.487"/>
</g>
<!-- Node290&#45;&gt;Node272 -->
<g id="edge27" class="edge"><title>Node290&#45;&gt;Node272</title>
<path fill="none" stroke="midnightblue" d="M487.33,-429.54C509.385,-433.849 535.901,-439.029 560.23,-443.783"/>
<polygon fill="midnightblue" stroke="midnightblue" points="559.659,-447.237 570.145,-445.72 561.001,-440.367 559.659,-447.237"/>
</g>
<!-- Node291&#45;&gt;Node289 -->
<g id="edge30" class="edge"><title>Node291&#45;&gt;Node289</title>
<path fill="none" stroke="midnightblue" d="M701.003,-216.9C714.116,-216.681 727.962,-216.451 741.312,-216.228"/>
<polygon fill="midnightblue" stroke="midnightblue" points="741.464,-219.726 751.404,-216.06 741.347,-212.727 741.464,-219.726"/>
</g>
<!-- Node292 -->
<g id="node22" class="node"><title>Node292</title>
<g id="a_node22"><a xlink:href="class_json_1_1_our_reader.html#a5a48b71c1c16fa671814c8338e452bc0" target="_top" xlink:title="Json::OurReader::addError">
<polygon fill="none" stroke="black" points="749,-250.5 749,-269.5 883,-269.5 883,-250.5 749,-250.5"/>
<text text-anchor="middle" x="816" y="-257.5" font-family="Helvetica,sans-Serif" font-size="10.00">Json::OurReader::addError</text>
</a>
</g>
</g>
<!-- Node291&#45;&gt;Node292 -->
<g id="edge29" class="edge"><title>Node291&#45;&gt;Node292</title>
<path fill="none" stroke="midnightblue" d="M699.476,-233.044C720.791,-238.018 744.189,-243.477 764.32,-248.175"/>
<polygon fill="midnightblue" stroke="midnightblue" points="763.684,-251.62 774.218,-250.484 765.275,-244.803 763.684,-251.62"/>
</g>
<!-- Node293&#45;&gt;Node271 -->
<g id="edge37" class="edge"><title>Node293&#45;&gt;Node271</title>
<path fill="none" stroke="midnightblue" d="M179.941,-350.609C171.475,-350.737 162.764,-350.778 154.141,-350.732"/>
<polygon fill="midnightblue" stroke="midnightblue" points="154.111,-347.231 144.079,-350.638 154.045,-354.231 154.111,-347.231"/>
</g>
<!-- Node293&#45;&gt;Node272 -->
<g id="edge36" class="edge"><title>Node293&#45;&gt;Node272</title>
<path fill="none" stroke="midnightblue" d="M310.14,-353.513C377.331,-364.856 482.406,-384.371 519,-401 537.208,-409.274 537.5,-418.318 555,-428 562.3,-432.039 570.255,-435.777 578.204,-439.145"/>
<polygon fill="midnightblue" stroke="midnightblue" points="576.91,-442.397 587.492,-442.926 579.549,-435.914 576.91,-442.397"/>
</g>
<!-- Node293&#45;&gt;Node282 -->
<g id="edge33" class="edge"><title>Node293&#45;&gt;Node282</title>
<path fill="none" stroke="midnightblue" d="M320.071,-345.053C374.323,-346.496 451.694,-349.913 519,-358 651.933,-373.973 681.111,-414 815,-414 815,-414 815,-414 1178,-414 1285.27,-414 1409.58,-414 1486,-414"/>
<polygon fill="midnightblue" stroke="midnightblue" points="1486.46,-417.5 1496.46,-414 1486.46,-410.5 1486.46,-417.5"/>
</g>
<!-- Node293&#45;&gt;Node288 -->
<g id="edge46" class="edge"><title>Node293&#45;&gt;Node288</title>
<path fill="none" stroke="midnightblue" d="M258.57,-353.517C274.455,-372.811 313.343,-416.596 356,-439 360.493,-441.36 365.28,-443.43 370.194,-445.246"/>
<polygon fill="midnightblue" stroke="midnightblue" points="369.163,-448.592 379.757,-448.434 371.377,-441.951 369.163,-448.592"/>
</g>
<!-- Node293&#45;&gt;Node290 -->
<g id="edge45" class="edge"><title>Node293&#45;&gt;Node290</title>
<path fill="none" stroke="midnightblue" d="M268.053,-353.575C288.496,-364.784 324.008,-383.415 356,-396 366.811,-400.253 378.69,-404.183 389.923,-407.58"/>
<polygon fill="midnightblue" stroke="midnightblue" points="389.006,-410.958 399.587,-410.422 390.981,-404.242 389.006,-410.958"/>
</g>
<!-- Node293&#45;&gt;Node292 -->
<g id="edge47" class="edge"><title>Node293&#45;&gt;Node292</title>
<path fill="none" stroke="midnightblue" d="M264.094,-334.398C283.188,-320.998 320.298,-297.191 356,-287 486.585,-249.725 646.313,-250.068 738.782,-254.493"/>
<polygon fill="midnightblue" stroke="midnightblue" points="738.728,-257.994 748.893,-255.006 739.083,-251.003 738.728,-257.994"/>
</g>
<!-- Node294 -->
<g id="node24" class="node"><title>Node294</title>
<g id="a_node24"><a xlink:href="class_json_1_1_our_reader.html#a856dea44d92578c276856d7a65a4ebdc" target="_top" xlink:title="Json::OurReader::skipComment\lTokens">
<polygon fill="none" stroke="black" points="555,-154 555,-184 713,-184 713,-154 555,-154"/>
<text text-anchor="start" x="563" y="-172" font-family="Helvetica,sans-Serif" font-size="10.00">Json::OurReader::skipComment</text>
<text text-anchor="middle" x="634" y="-161" font-family="Helvetica,sans-Serif" font-size="10.00">Tokens</text>
</a>
</g>
</g>
<!-- Node293&#45;&gt;Node294 -->
<g id="edge34" class="edge"><title>Node293&#45;&gt;Node294</title>
<path fill="none" stroke="midnightblue" d="M258.881,-334.245C275.036,-314.891 313.947,-271.481 356,-248 414.798,-215.17 488.386,-195.019 544.933,-183.292"/>
<polygon fill="midnightblue" stroke="midnightblue" points="545.82,-186.684 554.927,-181.27 544.432,-179.823 545.82,-186.684"/>
</g>
<!-- Node295 -->
<g id="node25" class="node"><title>Node295</title>
<g id="a_node25"><a xlink:href="class_json_1_1_our_reader.html#a0b9f58faf4212c6ecb5d8e2a1ac10257" target="_top" xlink:title="Json::OurReader::readArray">
<polygon fill="none" stroke="black" points="368,-296.5 368,-315.5 507,-315.5 507,-296.5 368,-296.5"/>
<text text-anchor="middle" x="437.5" y="-303.5" font-family="Helvetica,sans-Serif" font-size="10.00">Json::OurReader::readArray</text>
</a>
</g>
</g>
<!-- Node293&#45;&gt;Node295 -->
<g id="edge38" class="edge"><title>Node293&#45;&gt;Node295</title>
<path fill="none" stroke="midnightblue" d="M274.871,-334.408C295.883,-328.491 327.699,-321.314 357.561,-315.488"/>
<polygon fill="midnightblue" stroke="midnightblue" points="358.431,-318.885 367.595,-313.568 357.115,-312.01 358.431,-318.885"/>
</g>
<!-- Node294&#45;&gt;Node273 -->
<g id="edge35" class="edge"><title>Node294&#45;&gt;Node273</title>
<path fill="none" stroke="midnightblue" d="M713.235,-169C771.229,-169 850.044,-169 908.651,-169"/>
<polygon fill="midnightblue" stroke="midnightblue" points="908.98,-172.5 918.98,-169 908.98,-165.5 908.98,-172.5"/>
</g>
<!-- Node295&#45;&gt;Node272 -->
<g id="edge39" class="edge"><title>Node295&#45;&gt;Node272</title>
<path fill="none" stroke="midnightblue" d="M451.085,-315.619C466.959,-327.768 495.073,-349.342 519,-368 548.93,-391.339 583.074,-418.345 606.13,-436.639"/>
<polygon fill="midnightblue" stroke="midnightblue" points="604.086,-439.485 614.094,-442.961 608.438,-434.002 604.086,-439.485"/>
</g>
<!-- Node295&#45;&gt;Node273 -->
<g id="edge41" class="edge"><title>Node295&#45;&gt;Node273</title>
<path fill="none" stroke="midnightblue" d="M498.232,-315.51C586.775,-326.79 756.044,-337.396 883,-279 926.446,-259.016 961.425,-212.794 978.381,-187.082"/>
<polygon fill="midnightblue" stroke="midnightblue" points="981.352,-188.933 983.795,-178.623 975.456,-185.159 981.352,-188.933"/>
</g>
<!-- Node295&#45;&gt;Node274 -->
<g id="edge40" class="edge"><title>Node295&#45;&gt;Node274</title>
<path fill="none" stroke="midnightblue" d="M470.532,-315.526C499.093,-323.835 538.813,-334.883 555,-337 746.136,-361.995 973.191,-349.639 1092.77,-339.911"/>
<polygon fill="midnightblue" stroke="midnightblue" points="1093.27,-343.382 1102.94,-339.068 1092.69,-336.406 1093.27,-343.382"/>
</g>
<!-- Node295&#45;&gt;Node289 -->
<g id="edge43" class="edge"><title>Node295&#45;&gt;Node289</title>
<path fill="none" stroke="midnightblue" d="M481.387,-296.416C535.487,-284.23 631.324,-262.327 713,-242 724.922,-239.033 737.599,-235.767 749.816,-232.563"/>
<polygon fill="midnightblue" stroke="midnightblue" points="750.714,-235.946 759.492,-230.013 748.931,-229.177 750.714,-235.946"/>
</g>
<!-- Node295&#45;&gt;Node291 -->
<g id="edge44" class="edge"><title>Node295&#45;&gt;Node291</title>
<path fill="none" stroke="midnightblue" d="M459.685,-296.415C490.858,-282.311 549.754,-255.664 590.165,-237.38"/>
<polygon fill="midnightblue" stroke="midnightblue" points="591.836,-240.466 599.504,-233.155 588.95,-234.089 591.836,-240.466"/>
</g>
<!-- Node295&#45;&gt;Node293 -->
<g id="edge42" class="edge"><title>Node295&#45;&gt;Node293</title>
<path fill="none" stroke="midnightblue" d="M412.688,-315.576C391.715,-321.484 359.945,-328.655 330.102,-334.48"/>
<polygon fill="midnightblue" stroke="midnightblue" points="329.237,-331.082 320.073,-336.401 330.553,-337.958 329.237,-331.082"/>
</g>
</g>
</svg>
        <g id="navigator" transform="translate(0 0)" fill="#404254">
                <rect fill="#f2f5e9" fill-opacity="0.5" stroke="#606060" stroke-width=".5" x="0" y="0" width="60" height="60"/>
                <use id="zoomplus" xlink:href="#zoomPlus" x="17" y="9" onmousedown="handleZoom(evt,'in')"/>
                <use id="zoomminus" xlink:href="#zoomMin" x="42" y="9" onmousedown="handleZoom(evt,'out')"/>
                <use id="reset" xlink:href="#resetDef" x="30" y="36" onmousedown="handleReset()"/>
                <g id="arrowUp" xlink:href="#dirArrow" transform="translate(30 24)" onmousedown="handlePan(0,-1)">
                  <use xlink:href="#rim" fill="#404040">
                        <set attributeName="fill" to="#808080" begin="arrowUp.mouseover" end="arrowUp.mouseout"/>
                  </use>
                  <path fill="none" stroke="white" stroke-width="1.5" d="M0,-3.0v7 M-2.5,-0.5L0,-3.0L2.5,-0.5"/>
                </g>
                <g id="arrowRight" xlink:href="#dirArrow" transform="rotate(90) translate(36 -43)" onmousedown="handlePan(1,0)">
                  <use xlink:href="#rim" fill="#404040">
                        <set attributeName="fill" to="#808080" begin="arrowRight.mouseover" end="arrowRight.mouseout"/>
                  </use>
                  <path fill="none" stroke="white" stroke-width="1.5" d="M0,-3.0v7 M-2.5,-0.5L0,-3.0L2.5,-0.5"/>
                </g>
                <g id="arrowDown" xlink:href="#dirArrow" transform="rotate(180) translate(-30 -48)" onmousedown="handlePan(0,1)">
                  <use xlink:href="#rim" fill="#404040">
                        <set attributeName="fill" to="#808080" begin="arrowDown.mouseover" end="arrowDown.mouseout"/>
                  </use>
                  <path fill="none" stroke="white" stroke-width="1.5" d="M0,-3.0v7 M-2.5,-0.5L0,-3.0L2.5,-0.5"/>
                </g>
                <g id="arrowLeft" xlink:href="#dirArrow" transform="rotate(270) translate(-36 17)" onmousedown="handlePan(-1,0)">
                  <use xlink:href="#rim" fill="#404040">
                        <set attributeName="fill" to="#808080" begin="arrowLeft.mouseover" end="arrowLeft.mouseout"/>
                  </use>
                  <path fill="none" stroke="white" stroke-width="1.5" d="M0,-3.0v7 M-2.5,-0.5L0,-3.0L2.5,-0.5"/>
                </g>
        </g>
        <svg viewBox="0 0 15 15" width="100%" height="30px" preserveAspectRatio="xMaxYMin meet">
         <g id="arrow_out" transform="scale(0.3 0.3)">
          <a xlink:href="class_json_1_1_our_reader_aea198f8101dba55099f4d8121a993530_cgraph_org.svg" target="_base">
           <rect id="button" ry="5" rx="5" y="6" x="6" height="38" width="38"
                fill="#f2f5e9" fill-opacity="0.5" stroke="#606060" stroke-width="1.0"/>
           <path id="arrow"
             d="M 11.500037,31.436501 C 11.940474,20.09759 22.043105,11.32322 32.158766,21.979434 L 37.068811,17.246167 C 37.068811,17.246167 37.088388,32 37.088388,32 L 22.160133,31.978069 C 22.160133,31.978069 26.997745,27.140456 26.997745,27.140456 C 18.528582,18.264221 13.291696,25.230495 11.500037,31.436501 z"
             style="fill:#404040;"/>
          </a>
         </g>
        </svg>
</svg>
