<?xml version="1.0" encoding="UTF-8" standalone="no"?>
<!DOCTYPE svg PUBLIC "-//W3C//DTD SVG 1.1//EN"
 "http://www.w3.org/Graphics/SVG/1.1/DTD/svg11.dtd">
<!-- Generated by graphviz version 2.38.0 (20140413.2041)
 -->
<!-- Title: MinecraftServerService::VanillaServer::startServer Pages: 1 -->
<svg width="730pt" height="132pt"
 viewBox="0.00 0.00 730.00 132.00" xmlns="http://www.w3.org/2000/svg" xmlns:xlink="http://www.w3.org/1999/xlink">
<g id="graph0" class="graph" transform="scale(1 1) rotate(0) translate(4 128)">
<title>MinecraftServerService::VanillaServer::startServer</title>
<!-- Node35 -->
<g id="node1" class="node"><title>Node35</title>
<polygon fill="#bfbfbf" stroke="black" points="0,-44.5 0,-74.5 134,-74.5 134,-44.5 0,-44.5"/>
<text text-anchor="start" x="8" y="-62.5" font-family="Helvetica,sans-Serif" font-size="10.00">MinecraftServerService</text>
<text text-anchor="middle" x="67" y="-51.5" font-family="Helvetica,sans-Serif" font-size="10.00">::VanillaServer::startServer</text>
</g>
<!-- Node36 -->
<g id="node2" class="node"><title>Node36</title>
<g id="a_node2"><a xlink:href="class_minecraft_server_service_1_1_server.html#a1954e7c7756cd956e7282887ffca73e4" target="_top" xlink:title="MinecraftServerService\l::Server::isRunning">
<polygon fill="none" stroke="black" points="185.5,-93.5 185.5,-123.5 304.5,-123.5 304.5,-93.5 185.5,-93.5"/>
<text text-anchor="start" x="193.5" y="-111.5" font-family="Helvetica,sans-Serif" font-size="10.00">MinecraftServerService</text>
<text text-anchor="middle" x="245" y="-100.5" font-family="Helvetica,sans-Serif" font-size="10.00">::Server::isRunning</text>
</a>
</g>
</g>
<!-- Node35&#45;&gt;Node36 -->
<g id="edge1" class="edge"><title>Node35&#45;&gt;Node36</title>
<path fill="none" stroke="midnightblue" d="M122.242,-74.6014C140.562,-79.7019 161.183,-85.4429 180.175,-90.7305"/>
<polygon fill="midnightblue" stroke="midnightblue" points="179.365,-94.138 189.937,-93.4484 181.242,-87.3945 179.365,-94.138"/>
</g>
<!-- Node37 -->
<g id="node3" class="node"><title>Node37</title>
<g id="a_node3"><a xlink:href="class_minecraft_server_service_1_1_server.html#a16a19b4cfd94f23c20442cea9b46f678" target="_top" xlink:title="MinecraftServerService\l::Server::launchServerProcess">
<polygon fill="none" stroke="black" points="170,-44.5 170,-74.5 320,-74.5 320,-44.5 170,-44.5"/>
<text text-anchor="start" x="178" y="-62.5" font-family="Helvetica,sans-Serif" font-size="10.00">MinecraftServerService</text>
<text text-anchor="middle" x="245" y="-51.5" font-family="Helvetica,sans-Serif" font-size="10.00">::Server::launchServerProcess</text>
</a>
</g>
</g>
<!-- Node35&#45;&gt;Node37 -->
<g id="edge2" class="edge"><title>Node35&#45;&gt;Node37</title>
<path fill="none" stroke="midnightblue" d="M134.037,-59.5C142.45,-59.5 151.148,-59.5 159.798,-59.5"/>
<polygon fill="midnightblue" stroke="midnightblue" points="159.91,-63.0001 169.91,-59.5 159.91,-56.0001 159.91,-63.0001"/>
</g>
<!-- Node39 -->
<g id="node5" class="node"><title>Node39</title>
<g id="a_node5"><a xlink:href="class_minecraft_server_service_1_1_server.html#a3040817c744456263f8ba36bdb72bf20" target="_top" xlink:title="MinecraftServerService\l::Server::outputListenerThread">
<polygon fill="none" stroke="black" points="377,-0.5 377,-30.5 526,-30.5 526,-0.5 377,-0.5"/>
<text text-anchor="start" x="385" y="-18.5" font-family="Helvetica,sans-Serif" font-size="10.00">MinecraftServerService</text>
<text text-anchor="middle" x="451.5" y="-7.5" font-family="Helvetica,sans-Serif" font-size="10.00">::Server::outputListenerThread</text>
</a>
</g>
</g>
<!-- Node35&#45;&gt;Node39 -->
<g id="edge7" class="edge"><title>Node35&#45;&gt;Node39</title>
<path fill="none" stroke="midnightblue" d="M121.908,-44.4458C137.331,-40.642 154.235,-36.9471 170,-34.5 235.611,-24.3155 310.697,-19.5897 366.661,-17.3971"/>
<polygon fill="midnightblue" stroke="midnightblue" points="367.019,-20.8863 376.882,-17.0165 366.759,-13.8912 367.019,-20.8863"/>
</g>
<!-- Node38 -->
<g id="node4" class="node"><title>Node38</title>
<g id="a_node4"><a xlink:href="class_minecraft_server_service_1_1_server.html#a085f201bd563ce47e2b41778ef72d20d" target="_top" xlink:title="MinecraftServerService\l::Server::getUIDAndGIDFromUsername">
<polygon fill="none" stroke="black" points="356,-88.5 356,-118.5 547,-118.5 547,-88.5 356,-88.5"/>
<text text-anchor="start" x="364" y="-106.5" font-family="Helvetica,sans-Serif" font-size="10.00">MinecraftServerService</text>
<text text-anchor="middle" x="451.5" y="-95.5" font-family="Helvetica,sans-Serif" font-size="10.00">::Server::getUIDAndGIDFromUsername</text>
</a>
</g>
</g>
<!-- Node37&#45;&gt;Node38 -->
<g id="edge3" class="edge"><title>Node37&#45;&gt;Node38</title>
<path fill="none" stroke="midnightblue" d="M315.805,-74.5192C333.476,-78.3212 352.589,-82.4336 370.712,-86.3328"/>
<polygon fill="midnightblue" stroke="midnightblue" points="370.15,-89.792 380.662,-88.4738 371.622,-82.9486 370.15,-89.792"/>
</g>
<!-- Node37&#45;&gt;Node39 -->
<g id="edge4" class="edge"><title>Node37&#45;&gt;Node39</title>
<path fill="none" stroke="midnightblue" d="M315.805,-44.4808C333.476,-40.6788 352.589,-36.5664 370.712,-32.6672"/>
<polygon fill="midnightblue" stroke="midnightblue" points="371.622,-36.0514 380.662,-30.5262 370.15,-29.208 371.622,-36.0514"/>
</g>
<!-- Node40 -->
<g id="node6" class="node"><title>Node40</title>
<g id="a_node6"><a xlink:href="class_minecraft_server_service_1_1_server.html#a4ecf103c62bd8f1e54b2ff436fa1645a" target="_top" xlink:title="MinecraftServerService\l::Server::serverOutputEvent">
<polygon fill="none" stroke="black" points="583,-22.5 583,-52.5 722,-52.5 722,-22.5 583,-22.5"/>
<text text-anchor="start" x="591" y="-40.5" font-family="Helvetica,sans-Serif" font-size="10.00">MinecraftServerService</text>
<text text-anchor="middle" x="652.5" y="-29.5" font-family="Helvetica,sans-Serif" font-size="10.00">::Server::serverOutputEvent</text>
</a>
</g>
</g>
<!-- Node37&#45;&gt;Node40 -->
<g id="edge6" class="edge"><title>Node37&#45;&gt;Node40</title>
<path fill="none" stroke="midnightblue" d="M320.375,-55.4649C392,-51.5789 499.937,-45.7229 572.938,-41.7623"/>
<polygon fill="midnightblue" stroke="midnightblue" points="573.203,-45.2531 582.999,-41.2164 572.824,-38.2634 573.203,-45.2531"/>
</g>
<!-- Node39&#45;&gt;Node40 -->
<g id="edge5" class="edge"><title>Node39&#45;&gt;Node40</title>
<path fill="none" stroke="midnightblue" d="M526.035,-23.6295C541.293,-25.3163 557.427,-27.1 572.861,-28.8062"/>
<polygon fill="midnightblue" stroke="midnightblue" points="572.561,-32.2943 582.885,-29.9144 573.33,-25.3367 572.561,-32.2943"/>
</g>
</g>
</svg>
