<?xml version="1.0" encoding="UTF-8" standalone="no"?>
<!DOCTYPE svg PUBLIC "-//W3C//DTD SVG 1.1//EN"
 "http://www.w3.org/Graphics/SVG/1.1/DTD/svg11.dtd">
<!-- Generated by graphviz version 2.38.0 (20140413.2041)
 -->
<!-- Title: MinecraftServerService::Server::serverOutputEvent Pages: 1 -->
<!--zoomable 237 -->
<svg id="main" version="1.1" xmlns="http://www.w3.org/2000/svg" xmlns:xlink="http://www.w3.org/1999/xlink" xml:space="preserve" onload="init(evt)">
<style type="text/css"><![CDATA[
.edge:hover path { stroke: red; }
.edge:hover polygon { stroke: red; fill: red; }
]]></style>
<script type="text/javascript"><![CDATA[
var edges = document.getElementsByTagName('g');
if (edges && edges.length) {
  for (var i=0;i<edges.length;i++) {
    if (edges[i].id.substr(0,4)=='edge') {
      edges[i].setAttribute('class','edge');
    }
  }
}
]]></script>
        <defs>
                <circle id="rim" cx="0" cy="0" r="7"/>
                <circle id="rim2" cx="0" cy="0" r="3.5"/>
                <g id="zoomPlus">
                        <use xlink:href="#rim" fill="#404040">
                                <set attributeName="fill" to="#808080" begin="zoomplus.mouseover" end="zoomplus.mouseout"/>
                        </use>
                        <path d="M-4,0h8M0,-4v8" fill="none" stroke="white" stroke-width="1.5" pointer-events="none"/>
                </g>
                <g id="zoomMin">
                        <use xlink:href="#rim" fill="#404040">
                                <set attributeName="fill" to="#808080" begin="zoomminus.mouseover" end="zoomminus.mouseout"/>
                        </use>
                        <path d="M-4,0h8" fill="none" stroke="white" stroke-width="1.5" pointer-events="none"/>
                </g>
                <g id="dirArrow">
                        <path fill="none" stroke="white" stroke-width="1.5" d="M0,-3.0v7 M-2.5,-0.5L0,-3.0L2.5,-0.5"/>
                </g>
               <g id="resetDef">
                       <use xlink:href="#rim2" fill="#404040">
                               <set attributeName="fill" to="#808080" begin="reset.mouseover" end="reset.mouseout"/>
                       </use>
               </g>
        </defs>

<script type="text/javascript">
var viewWidth = 916;
var viewHeight = 237;
var sectionId = 'dynsection-7';
</script>
<script xlink:href="svgpan.js"/>
<svg id="graph" class="graph">
<g id="viewport">
<title>MinecraftServerService::Server::serverOutputEvent</title>
<!-- Node89 -->
<g id="node1" class="node"><title>Node89</title>
<polygon fill="#bfbfbf" stroke="black" points="0,-95.5 0,-125.5 139,-125.5 139,-95.5 0,-95.5"/>
<text text-anchor="start" x="8" y="-113.5" font-family="Helvetica,sans-Serif" font-size="10.00">MinecraftServerService</text>
<text text-anchor="middle" x="69.5" y="-102.5" font-family="Helvetica,sans-Serif" font-size="10.00">::Server::serverOutputEvent</text>
</g>
<!-- Node90 -->
<g id="node2" class="node"><title>Node90</title>
<g id="a_node2"><a xlink:href="class_minecraft_server_service_1_1_server.html#a3040817c744456263f8ba36bdb72bf20" target="_top" xlink:title="MinecraftServerService\l::Server::outputListenerThread">
<polygon fill="none" stroke="black" points="175,-73.5 175,-103.5 324,-103.5 324,-73.5 175,-73.5"/>
<text text-anchor="start" x="183" y="-91.5" font-family="Helvetica,sans-Serif" font-size="10.00">MinecraftServerService</text>
<text text-anchor="middle" x="249.5" y="-80.5" font-family="Helvetica,sans-Serif" font-size="10.00">::Server::outputListenerThread</text>
</a>
</g>
</g>
<!-- Node89&#45;&gt;Node90 -->
<g id="edge1" class="edge"><title>Node89&#45;&gt;Node90</title>
<path fill="none" stroke="midnightblue" d="M149.081,-100.788C157.681,-99.7249 166.412,-98.6457 174.948,-97.5907"/>
<polygon fill="midnightblue" stroke="midnightblue" points="148.56,-97.3254 139.065,-102.026 149.419,-104.273 148.56,-97.3254"/>
</g>
<!-- Node97 -->
<g id="node9" class="node"><title>Node97</title>
<g id="a_node9"><a xlink:href="class_minecraft_server_service_1_1_server.html#a16a19b4cfd94f23c20442cea9b46f678" target="_top" xlink:title="MinecraftServerService\l::Server::launchServerProcess">
<polygon fill="none" stroke="black" points="360,-117.5 360,-147.5 510,-147.5 510,-117.5 360,-117.5"/>
<text text-anchor="start" x="368" y="-135.5" font-family="Helvetica,sans-Serif" font-size="10.00">MinecraftServerService</text>
<text text-anchor="middle" x="435" y="-124.5" font-family="Helvetica,sans-Serif" font-size="10.00">::Server::launchServerProcess</text>
</a>
</g>
</g>
<!-- Node89&#45;&gt;Node97 -->
<g id="edge18" class="edge"><title>Node89&#45;&gt;Node97</title>
<path fill="none" stroke="midnightblue" d="M149.505,-115.282C212.007,-119.064 298.653,-124.308 359.857,-128.013"/>
<polygon fill="midnightblue" stroke="midnightblue" points="149.492,-111.775 139.299,-114.664 149.069,-118.762 149.492,-111.775"/>
</g>
<!-- Node91 -->
<g id="node3" class="node"><title>Node91</title>
<g id="a_node3"><a xlink:href="class_minecraft_server_service_1_1_bukkit_server.html#a40a879282d13c0996d05f1165fa5c4c2" target="_top" xlink:title="MinecraftServerService\l::BukkitServer::startServer">
<polygon fill="none" stroke="black" points="559,-198.5 559,-228.5 692,-228.5 692,-198.5 559,-198.5"/>
<text text-anchor="start" x="567" y="-216.5" font-family="Helvetica,sans-Serif" font-size="10.00">MinecraftServerService</text>
<text text-anchor="middle" x="625.5" y="-205.5" font-family="Helvetica,sans-Serif" font-size="10.00">::BukkitServer::startServer</text>
</a>
</g>
</g>
<!-- Node90&#45;&gt;Node91 -->
<g id="edge2" class="edge"><title>Node90&#45;&gt;Node91</title>
<path fill="none" stroke="midnightblue" d="M270.408,-111.227C290.649,-132.692 324.071,-163.858 360,-179.5 423.674,-207.221 503.539,-214.13 558.76,-215.098"/>
<polygon fill="midnightblue" stroke="midnightblue" points="272.917,-108.785 263.566,-103.804 267.77,-113.53 272.917,-108.785"/>
</g>
<!-- Node93 -->
<g id="node5" class="node"><title>Node93</title>
<g id="a_node5"><a xlink:href="class_minecraft_server_service_1_1_bungee_cord_server.html#a5f03992324f892fa1cedcef5153a7d3f" target="_top" xlink:title="MinecraftServerService\l::BungeeCordServer::startServer">
<polygon fill="none" stroke="black" points="546,-149.5 546,-179.5 705,-179.5 705,-149.5 546,-149.5"/>
<text text-anchor="start" x="554" y="-167.5" font-family="Helvetica,sans-Serif" font-size="10.00">MinecraftServerService</text>
<text text-anchor="middle" x="625.5" y="-156.5" font-family="Helvetica,sans-Serif" font-size="10.00">::BungeeCordServer::startServer</text>
</a>
</g>
</g>
<!-- Node90&#45;&gt;Node93 -->
<g id="edge4" class="edge"><title>Node90&#45;&gt;Node93</title>
<path fill="none" stroke="midnightblue" d="M276.116,-109.892C297.171,-126.052 328.554,-147.014 360,-156.5 420.477,-174.744 492.293,-175.697 545.821,-172.672"/>
<polygon fill="midnightblue" stroke="midnightblue" points="278.052,-106.961 268.029,-103.528 273.723,-112.463 278.052,-106.961"/>
</g>
<!-- Node95 -->
<g id="node7" class="node"><title>Node95</title>
<g id="a_node7"><a xlink:href="class_minecraft_server_service_1_1_generic_server.html#aa3e2da3f6458e579697154360f6e05e5" target="_top" xlink:title="MinecraftServerService\l::GenericServer::startServer">
<polygon fill="none" stroke="black" points="556,-100.5 556,-130.5 695,-130.5 695,-100.5 556,-100.5"/>
<text text-anchor="start" x="564" y="-118.5" font-family="Helvetica,sans-Serif" font-size="10.00">MinecraftServerService</text>
<text text-anchor="middle" x="625.5" y="-107.5" font-family="Helvetica,sans-Serif" font-size="10.00">::GenericServer::startServer</text>
</a>
</g>
</g>
<!-- Node90&#45;&gt;Node95 -->
<g id="edge6" class="edge"><title>Node90&#45;&gt;Node95</title>
<path fill="none" stroke="midnightblue" d="M334.461,-94.5613C401.206,-99.3799 493.415,-106.037 555.807,-110.541"/>
<polygon fill="midnightblue" stroke="midnightblue" points="334.616,-91.0636 324.39,-93.8343 334.112,-98.0454 334.616,-91.0636"/>
</g>
<!-- Node90&#45;&gt;Node97 -->
<g id="edge8" class="edge"><title>Node90&#45;&gt;Node97</title>
<path fill="none" stroke="midnightblue" d="M322.97,-105.877C338.961,-109.711 355.77,-113.742 371.334,-117.474"/>
<polygon fill="midnightblue" stroke="midnightblue" points="323.678,-102.448 313.137,-103.519 322.045,-109.255 323.678,-102.448"/>
</g>
<!-- Node98 -->
<g id="node10" class="node"><title>Node98</title>
<g id="a_node10"><a xlink:href="class_minecraft_server_service_1_1_spigot_server.html#a08bc3d74d604968034303efc7334dd08" target="_top" xlink:title="MinecraftServerService\l::SpigotServer::startServer">
<polygon fill="none" stroke="black" points="559,-50.5 559,-80.5 692,-80.5 692,-50.5 559,-50.5"/>
<text text-anchor="start" x="567" y="-68.5" font-family="Helvetica,sans-Serif" font-size="10.00">MinecraftServerService</text>
<text text-anchor="middle" x="625.5" y="-57.5" font-family="Helvetica,sans-Serif" font-size="10.00">::SpigotServer::startServer</text>
</a>
</g>
</g>
<!-- Node90&#45;&gt;Node98 -->
<g id="edge16" class="edge"><title>Node90&#45;&gt;Node98</title>
<path fill="none" stroke="midnightblue" d="M334.208,-76.985C342.906,-76.0318 351.625,-75.1764 360,-74.5 427.666,-69.0351 505.33,-66.8804 558.912,-66.0353"/>
<polygon fill="midnightblue" stroke="midnightblue" points="333.568,-73.5352 324.028,-78.144 334.36,-80.4902 333.568,-73.5352"/>
</g>
<!-- Node100 -->
<g id="node12" class="node"><title>Node100</title>
<g id="a_node12"><a xlink:href="class_minecraft_server_service_1_1_vanilla_server.html#a9f1ea90c5bcd4f183303d169d0427b46" target="_top" xlink:title="MinecraftServerService\l::VanillaServer::startServer">
<polygon fill="none" stroke="black" points="558.5,-0.5 558.5,-30.5 692.5,-30.5 692.5,-0.5 558.5,-0.5"/>
<text text-anchor="start" x="566.5" y="-18.5" font-family="Helvetica,sans-Serif" font-size="10.00">MinecraftServerService</text>
<text text-anchor="middle" x="625.5" y="-7.5" font-family="Helvetica,sans-Serif" font-size="10.00">::VanillaServer::startServer</text>
</a>
</g>
</g>
<!-- Node90&#45;&gt;Node100 -->
<g id="edge17" class="edge"><title>Node90&#45;&gt;Node100</title>
<path fill="none" stroke="midnightblue" d="M324.065,-71.2274C336.056,-68.5494 348.359,-65.8839 360,-63.5 427.325,-49.7129 504.709,-35.9056 558.307,-26.6628"/>
<polygon fill="midnightblue" stroke="midnightblue" points="323.074,-67.8628 314.087,-73.474 324.612,-74.6918 323.074,-67.8628"/>
</g>
<!-- Node92 -->
<g id="node4" class="node"><title>Node92</title>
<g id="a_node4"><a xlink:href="class_minecraft_server_service_1_1_bukkit_server.html#afdd768465fedfbea100da7f62cbd11d0" target="_top" xlink:title="MinecraftServerService\l::BukkitServer::restartServer">
<polygon fill="none" stroke="black" points="754,-198.5 754,-228.5 895,-228.5 895,-198.5 754,-198.5"/>
<text text-anchor="start" x="762" y="-216.5" font-family="Helvetica,sans-Serif" font-size="10.00">MinecraftServerService</text>
<text text-anchor="middle" x="824.5" y="-205.5" font-family="Helvetica,sans-Serif" font-size="10.00">::BukkitServer::restartServer</text>
</a>
</g>
</g>
<!-- Node91&#45;&gt;Node92 -->
<g id="edge3" class="edge"><title>Node91&#45;&gt;Node92</title>
<path fill="none" stroke="midnightblue" d="M702.472,-213.5C719.358,-213.5 737.176,-213.5 753.796,-213.5"/>
<polygon fill="midnightblue" stroke="midnightblue" points="702.098,-210 692.098,-213.5 702.098,-217 702.098,-210"/>
</g>
<!-- Node94 -->
<g id="node6" class="node"><title>Node94</title>
<g id="a_node6"><a xlink:href="class_minecraft_server_service_1_1_bungee_cord_server.html#a471a30d5fd0c2dca57970aef99eaa2b7" target="_top" xlink:title="MinecraftServerService\l::BungeeCordServer::restartServer">
<polygon fill="none" stroke="black" points="741,-149.5 741,-179.5 908,-179.5 908,-149.5 741,-149.5"/>
<text text-anchor="start" x="749" y="-167.5" font-family="Helvetica,sans-Serif" font-size="10.00">MinecraftServerService</text>
<text text-anchor="middle" x="824.5" y="-156.5" font-family="Helvetica,sans-Serif" font-size="10.00">::BungeeCordServer::restartServer</text>
</a>
</g>
</g>
<!-- Node93&#45;&gt;Node94 -->
<g id="edge5" class="edge"><title>Node93&#45;&gt;Node94</title>
<path fill="none" stroke="midnightblue" d="M715.42,-164.5C723.843,-164.5 732.36,-164.5 740.722,-164.5"/>
<polygon fill="midnightblue" stroke="midnightblue" points="715.209,-161 705.209,-164.5 715.209,-168 715.209,-161"/>
</g>
<!-- Node96 -->
<g id="node8" class="node"><title>Node96</title>
<g id="a_node8"><a xlink:href="class_minecraft_server_service_1_1_generic_server.html#a91d7fee4ca078709180084768e85149f" target="_top" xlink:title="MinecraftServerService\l::GenericServer::restartServer">
<polygon fill="none" stroke="black" points="751,-100.5 751,-130.5 898,-130.5 898,-100.5 751,-100.5"/>
<text text-anchor="start" x="759" y="-118.5" font-family="Helvetica,sans-Serif" font-size="10.00">MinecraftServerService</text>
<text text-anchor="middle" x="824.5" y="-107.5" font-family="Helvetica,sans-Serif" font-size="10.00">::GenericServer::restartServer</text>
</a>
</g>
</g>
<!-- Node95&#45;&gt;Node96 -->
<g id="edge7" class="edge"><title>Node95&#45;&gt;Node96</title>
<path fill="none" stroke="midnightblue" d="M705.38,-115.5C720.366,-115.5 735.982,-115.5 750.766,-115.5"/>
<polygon fill="midnightblue" stroke="midnightblue" points="705.125,-112 695.124,-115.5 705.124,-119 705.125,-112"/>
</g>
<!-- Node97&#45;&gt;Node91 -->
<g id="edge9" class="edge"><title>Node97&#45;&gt;Node91</title>
<path fill="none" stroke="midnightblue" d="M471.513,-152.44C492.73,-163.88 520.443,-178.006 546,-188.5 554.6,-192.031 563.894,-195.381 572.974,-198.414"/>
<polygon fill="midnightblue" stroke="midnightblue" points="473.005,-149.268 462.549,-147.559 469.658,-155.415 473.005,-149.268"/>
</g>
<!-- Node97&#45;&gt;Node93 -->
<g id="edge10" class="edge"><title>Node97&#45;&gt;Node93</title>
<path fill="none" stroke="midnightblue" d="M520.225,-146.798C528.799,-148.254 537.484,-149.728 545.993,-151.173"/>
<polygon fill="midnightblue" stroke="midnightblue" points="520.674,-143.324 510.23,-145.101 519.503,-150.226 520.674,-143.324"/>
</g>
<!-- Node97&#45;&gt;Node95 -->
<g id="edge11" class="edge"><title>Node97&#45;&gt;Node95</title>
<path fill="none" stroke="midnightblue" d="M520.544,-124.875C532.363,-123.809 544.388,-122.725 555.865,-121.69"/>
<polygon fill="midnightblue" stroke="midnightblue" points="519.875,-121.421 510.23,-125.806 520.504,-128.393 519.875,-121.421"/>
</g>
<!-- Node97&#45;&gt;Node98 -->
<g id="edge12" class="edge"><title>Node97&#45;&gt;Node98</title>
<path fill="none" stroke="midnightblue" d="M483.236,-113.794C502.597,-106.302 525.284,-97.747 546,-90.5 555.585,-87.1467 565.892,-83.7304 575.783,-80.5441"/>
<polygon fill="midnightblue" stroke="midnightblue" points="481.785,-110.603 473.733,-117.489 484.322,-117.127 481.785,-110.603"/>
</g>
<!-- Node97&#45;&gt;Node100 -->
<g id="edge14" class="edge"><title>Node97&#45;&gt;Node100</title>
<path fill="none" stroke="midnightblue" d="M457.359,-110.211C478.239,-89.5637 511.798,-59.2922 546,-40.5 552.894,-36.7119 560.45,-33.3975 568.064,-30.5282"/>
<polygon fill="midnightblue" stroke="midnightblue" points="454.834,-107.786 450.262,-117.344 459.796,-112.724 454.834,-107.786"/>
</g>
<!-- Node99 -->
<g id="node11" class="node"><title>Node99</title>
<g id="a_node11"><a xlink:href="class_minecraft_server_service_1_1_spigot_server.html#a8868ea31ed029270de60becebf36fc69" target="_top" xlink:title="MinecraftServerService\l::SpigotServer::restartServer">
<polygon fill="none" stroke="black" points="754,-50.5 754,-80.5 895,-80.5 895,-50.5 754,-50.5"/>
<text text-anchor="start" x="762" y="-68.5" font-family="Helvetica,sans-Serif" font-size="10.00">MinecraftServerService</text>
<text text-anchor="middle" x="824.5" y="-57.5" font-family="Helvetica,sans-Serif" font-size="10.00">::SpigotServer::restartServer</text>
</a>
</g>
</g>
<!-- Node98&#45;&gt;Node99 -->
<g id="edge13" class="edge"><title>Node98&#45;&gt;Node99</title>
<path fill="none" stroke="midnightblue" d="M702.472,-65.5C719.358,-65.5 737.176,-65.5 753.796,-65.5"/>
<polygon fill="midnightblue" stroke="midnightblue" points="702.098,-62.0001 692.098,-65.5 702.098,-69.0001 702.098,-62.0001"/>
</g>
<!-- Node101 -->
<g id="node13" class="node"><title>Node101</title>
<g id="a_node13"><a xlink:href="class_minecraft_server_service_1_1_vanilla_server.html#a99ac73bdf44e6d77933e95c769f4d95a" target="_top" xlink:title="MinecraftServerService\l::VanillaServer::restartServer">
<polygon fill="none" stroke="black" points="753,-0.5 753,-30.5 896,-30.5 896,-0.5 753,-0.5"/>
<text text-anchor="start" x="761" y="-18.5" font-family="Helvetica,sans-Serif" font-size="10.00">MinecraftServerService</text>
<text text-anchor="middle" x="824.5" y="-7.5" font-family="Helvetica,sans-Serif" font-size="10.00">::VanillaServer::restartServer</text>
</a>
</g>
</g>
<!-- Node100&#45;&gt;Node101 -->
<g id="edge15" class="edge"><title>Node100&#45;&gt;Node101</title>
<path fill="none" stroke="midnightblue" d="M702.765,-15.5C719.227,-15.5 736.563,-15.5 752.801,-15.5"/>
<polygon fill="midnightblue" stroke="midnightblue" points="702.646,-12.0001 692.646,-15.5 702.646,-19.0001 702.646,-12.0001"/>
</g>
</g>
</svg>
        <g id="navigator" transform="translate(0 0)" fill="#404254">
                <rect fill="#f2f5e9" fill-opacity="0.5" stroke="#606060" stroke-width=".5" x="0" y="0" width="60" height="60"/>
                <use id="zoomplus" xlink:href="#zoomPlus" x="17" y="9" onmousedown="handleZoom(evt,'in')"/>
                <use id="zoomminus" xlink:href="#zoomMin" x="42" y="9" onmousedown="handleZoom(evt,'out')"/>
                <use id="reset" xlink:href="#resetDef" x="30" y="36" onmousedown="handleReset()"/>
                <g id="arrowUp" xlink:href="#dirArrow" transform="translate(30 24)" onmousedown="handlePan(0,-1)">
                  <use xlink:href="#rim" fill="#404040">
                        <set attributeName="fill" to="#808080" begin="arrowUp.mouseover" end="arrowUp.mouseout"/>
                  </use>
                  <path fill="none" stroke="white" stroke-width="1.5" d="M0,-3.0v7 M-2.5,-0.5L0,-3.0L2.5,-0.5"/>
                </g>
                <g id="arrowRight" xlink:href="#dirArrow" transform="rotate(90) translate(36 -43)" onmousedown="handlePan(1,0)">
                  <use xlink:href="#rim" fill="#404040">
                        <set attributeName="fill" to="#808080" begin="arrowRight.mouseover" end="arrowRight.mouseout"/>
                  </use>
                  <path fill="none" stroke="white" stroke-width="1.5" d="M0,-3.0v7 M-2.5,-0.5L0,-3.0L2.5,-0.5"/>
                </g>
                <g id="arrowDown" xlink:href="#dirArrow" transform="rotate(180) translate(-30 -48)" onmousedown="handlePan(0,1)">
                  <use xlink:href="#rim" fill="#404040">
                        <set attributeName="fill" to="#808080" begin="arrowDown.mouseover" end="arrowDown.mouseout"/>
                  </use>
                  <path fill="none" stroke="white" stroke-width="1.5" d="M0,-3.0v7 M-2.5,-0.5L0,-3.0L2.5,-0.5"/>
                </g>
                <g id="arrowLeft" xlink:href="#dirArrow" transform="rotate(270) translate(-36 17)" onmousedown="handlePan(-1,0)">
                  <use xlink:href="#rim" fill="#404040">
                        <set attributeName="fill" to="#808080" begin="arrowLeft.mouseover" end="arrowLeft.mouseout"/>
                  </use>
                  <path fill="none" stroke="white" stroke-width="1.5" d="M0,-3.0v7 M-2.5,-0.5L0,-3.0L2.5,-0.5"/>
                </g>
        </g>
        <svg viewBox="0 0 15 15" width="100%" height="30px" preserveAspectRatio="xMaxYMin meet">
         <g id="arrow_out" transform="scale(0.3 0.3)">
          <a xlink:href="class_minecraft_server_service_1_1_server_a4ecf103c62bd8f1e54b2ff436fa1645a_icgraph_org.svg" target="_base">
           <rect id="button" ry="5" rx="5" y="6" x="6" height="38" width="38"
                fill="#f2f5e9" fill-opacity="0.5" stroke="#606060" stroke-width="1.0"/>
           <path id="arrow"
             d="M 11.500037,31.436501 C 11.940474,20.09759 22.043105,11.32322 32.158766,21.979434 L 37.068811,17.246167 C 37.068811,17.246167 37.088388,32 37.088388,32 L 22.160133,31.978069 C 22.160133,31.978069 26.997745,27.140456 26.997745,27.140456 C 18.528582,18.264221 13.291696,25.230495 11.500037,31.436501 z"
             style="fill:#404040;"/>
          </a>
         </g>
        </svg>
</svg>
