<?xml version="1.0" encoding="UTF-8" standalone="no"?>
<!DOCTYPE svg PUBLIC "-//W3C//DTD SVG 1.1//EN"
 "http://www.w3.org/Graphics/SVG/1.1/DTD/svg11.dtd">
<!-- Generated by graphviz version 2.38.0 (20140413.2041)
 -->
<!-- Title: MinecraftServerService::BukkitServer::logger Pages: 1 -->
<svg width="480pt" height="88pt"
 viewBox="0.00 0.00 480.00 88.00" xmlns="http://www.w3.org/2000/svg" xmlns:xlink="http://www.w3.org/1999/xlink">
<g id="graph0" class="graph" transform="scale(1 1) rotate(0) translate(4 84)">
<title>MinecraftServerService::BukkitServer::logger</title>
<!-- Node14 -->
<g id="node1" class="node"><title>Node14</title>
<polygon fill="#bfbfbf" stroke="black" points="0,-24.5 0,-54.5 119,-54.5 119,-24.5 0,-24.5"/>
<text text-anchor="start" x="8" y="-42.5" font-family="Helvetica,sans-Serif" font-size="10.00">MinecraftServerService</text>
<text text-anchor="middle" x="59.5" y="-31.5" font-family="Helvetica,sans-Serif" font-size="10.00">::BukkitServer::logger</text>
</g>
<!-- Node15 -->
<g id="node2" class="node"><title>Node15</title>
<g id="a_node2"><a xlink:href="class_minecraft_server_service_1_1_bukkit_server.html#a40a879282d13c0996d05f1165fa5c4c2" target="_top" xlink:title="MinecraftServerService\l::BukkitServer::startServer">
<polygon fill="none" stroke="black" points="158.5,-49.5 158.5,-79.5 291.5,-79.5 291.5,-49.5 158.5,-49.5"/>
<text text-anchor="start" x="166.5" y="-67.5" font-family="Helvetica,sans-Serif" font-size="10.00">MinecraftServerService</text>
<text text-anchor="middle" x="225" y="-56.5" font-family="Helvetica,sans-Serif" font-size="10.00">::BukkitServer::startServer</text>
</a>
</g>
</g>
<!-- Node14&#45;&gt;Node15 -->
<g id="edge1" class="edge"><title>Node14&#45;&gt;Node15</title>
<path fill="none" stroke="midnightblue" d="M129.056,-49.9826C138.754,-51.4654 148.706,-52.9872 158.348,-54.4614"/>
<polygon fill="midnightblue" stroke="midnightblue" points="129.48,-46.5067 119.065,-48.455 128.422,-53.4263 129.48,-46.5067"/>
</g>
<!-- Node17 -->
<g id="node4" class="node"><title>Node17</title>
<g id="a_node4"><a xlink:href="class_minecraft_server_service_1_1_bukkit_server.html#ad0f007c1f66d065037f04b36dfe29595" target="_top" xlink:title="MinecraftServerService\l::BukkitServer::reloadServer">
<polygon fill="none" stroke="black" points="155,-0.5 155,-30.5 295,-30.5 295,-0.5 155,-0.5"/>
<text text-anchor="start" x="163" y="-18.5" font-family="Helvetica,sans-Serif" font-size="10.00">MinecraftServerService</text>
<text text-anchor="middle" x="225" y="-7.5" font-family="Helvetica,sans-Serif" font-size="10.00">::BukkitServer::reloadServer</text>
</a>
</g>
</g>
<!-- Node14&#45;&gt;Node17 -->
<g id="edge3" class="edge"><title>Node14&#45;&gt;Node17</title>
<path fill="none" stroke="midnightblue" d="M129.023,-29.4416C137.603,-28.1821 146.383,-26.8933 154.971,-25.6326"/>
<polygon fill="midnightblue" stroke="midnightblue" points="128.451,-25.9879 119.065,-30.9032 129.468,-32.9137 128.451,-25.9879"/>
</g>
<!-- Node16 -->
<g id="node3" class="node"><title>Node16</title>
<g id="a_node3"><a xlink:href="class_minecraft_server_service_1_1_bukkit_server.html#afdd768465fedfbea100da7f62cbd11d0" target="_top" xlink:title="MinecraftServerService\l::BukkitServer::restartServer">
<polygon fill="none" stroke="black" points="331,-49.5 331,-79.5 472,-79.5 472,-49.5 331,-49.5"/>
<text text-anchor="start" x="339" y="-67.5" font-family="Helvetica,sans-Serif" font-size="10.00">MinecraftServerService</text>
<text text-anchor="middle" x="401.5" y="-56.5" font-family="Helvetica,sans-Serif" font-size="10.00">::BukkitServer::restartServer</text>
</a>
</g>
</g>
<!-- Node15&#45;&gt;Node16 -->
<g id="edge2" class="edge"><title>Node15&#45;&gt;Node16</title>
<path fill="none" stroke="midnightblue" d="M302.237,-64.5C311.784,-64.5 321.509,-64.5 330.945,-64.5"/>
<polygon fill="midnightblue" stroke="midnightblue" points="301.971,-61.0001 291.971,-64.5 301.971,-68.0001 301.971,-61.0001"/>
</g>
</g>
</svg>
