<?xml version="1.0" encoding="UTF-8" standalone="no"?>
<!DOCTYPE svg PUBLIC "-//W3C//DTD SVG 1.1//EN"
 "http://www.w3.org/Graphics/SVG/1.1/DTD/svg11.dtd">
<!-- Generated by graphviz version 2.38.0 (20140413.2041)
 -->
<!-- Title: Json::OurCharReader::parse Pages: 1 -->
<!--zoomable 610 -->
<svg id="main" version="1.1" xmlns="http://www.w3.org/2000/svg" xmlns:xlink="http://www.w3.org/1999/xlink" xml:space="preserve" onload="init(evt)">
<style type="text/css"><![CDATA[
.edge:hover path { stroke: red; }
.edge:hover polygon { stroke: red; fill: red; }
]]></style>
<script type="text/javascript"><![CDATA[
var edges = document.getElementsByTagName('g');
if (edges && edges.length) {
  for (var i=0;i<edges.length;i++) {
    if (edges[i].id.substr(0,4)=='edge') {
      edges[i].setAttribute('class','edge');
    }
  }
}
]]></script>
        <defs>
                <circle id="rim" cx="0" cy="0" r="7"/>
                <circle id="rim2" cx="0" cy="0" r="3.5"/>
                <g id="zoomPlus">
                        <use xlink:href="#rim" fill="#404040">
                                <set attributeName="fill" to="#808080" begin="zoomplus.mouseover" end="zoomplus.mouseout"/>
                        </use>
                        <path d="M-4,0h8M0,-4v8" fill="none" stroke="white" stroke-width="1.5" pointer-events="none"/>
                </g>
                <g id="zoomMin">
                        <use xlink:href="#rim" fill="#404040">
                                <set attributeName="fill" to="#808080" begin="zoomminus.mouseover" end="zoomminus.mouseout"/>
                        </use>
                        <path d="M-4,0h8" fill="none" stroke="white" stroke-width="1.5" pointer-events="none"/>
                </g>
                <g id="dirArrow">
                        <path fill="none" stroke="white" stroke-width="1.5" d="M0,-3.0v7 M-2.5,-0.5L0,-3.0L2.5,-0.5"/>
                </g>
               <g id="resetDef">
                       <use xlink:href="#rim2" fill="#404040">
                               <set attributeName="fill" to="#808080" begin="reset.mouseover" end="reset.mouseout"/>
                       </use>
               </g>
        </defs>

<script type="text/javascript">
var viewWidth = 1968;
var viewHeight = 610;
var sectionId = 'dynsection-2';
</script>
<script xlink:href="svgpan.js"/>
<svg id="graph" class="graph">
<g id="viewport">
<title>Json::OurCharReader::parse</title>
<!-- Node2 -->
<g id="node1" class="node"><title>Node2</title>
<polygon fill="#bfbfbf" stroke="black" points="0,-131.5 0,-161.5 112,-161.5 112,-131.5 0,-131.5"/>
<text text-anchor="start" x="8" y="-149.5" font-family="Helvetica,sans-Serif" font-size="10.00">Json::OurCharReader</text>
<text text-anchor="middle" x="56" y="-138.5" font-family="Helvetica,sans-Serif" font-size="10.00">::parse</text>
</g>
<!-- Node3 -->
<g id="node2" class="node"><title>Node3</title>
<g id="a_node2"><a xlink:href="class_json_1_1_our_reader.html#aba4f8749aab7f02ec17f107e392caf80" target="_top" xlink:title="Json::OurReader::parse">
<polygon fill="none" stroke="black" points="165,-190 165,-209 286,-209 286,-190 165,-190"/>
<text text-anchor="middle" x="225.5" y="-197" font-family="Helvetica,sans-Serif" font-size="10.00">Json::OurReader::parse</text>
</a>
</g>
</g>
<!-- Node2&#45;&gt;Node3 -->
<g id="edge1" class="edge"><title>Node2&#45;&gt;Node3</title>
<path fill="none" stroke="midnightblue" d="M104.551,-161.546C129.77,-169.526 160.413,-179.222 184.414,-186.816"/>
<polygon fill="midnightblue" stroke="midnightblue" points="183.668,-190.251 194.258,-189.931 185.78,-183.577 183.668,-190.251"/>
</g>
<!-- Node29 -->
<g id="node28" class="node"><title>Node29</title>
<g id="a_node28"><a xlink:href="class_json_1_1_our_reader.html#ae9cbb7dbd9c6c96be37432e8dfa1afcb" target="_top" xlink:title="Json::OurReader::getFormatted\lErrorMessages">
<polygon fill="none" stroke="black" points="148,-131.5 148,-161.5 303,-161.5 303,-131.5 148,-131.5"/>
<text text-anchor="start" x="156" y="-149.5" font-family="Helvetica,sans-Serif" font-size="10.00">Json::OurReader::getFormatted</text>
<text text-anchor="middle" x="225.5" y="-138.5" font-family="Helvetica,sans-Serif" font-size="10.00">ErrorMessages</text>
</a>
</g>
</g>
<!-- Node2&#45;&gt;Node29 -->
<g id="edge52" class="edge"><title>Node2&#45;&gt;Node29</title>
<path fill="none" stroke="midnightblue" d="M112.31,-146.5C120.46,-146.5 129.018,-146.5 137.621,-146.5"/>
<polygon fill="midnightblue" stroke="midnightblue" points="137.717,-150 147.717,-146.5 137.717,-143 137.717,-150"/>
</g>
<!-- Node31 -->
<g id="node30" class="node"><title>Node31</title>
<g id="a_node30"><a xlink:href="class_json_1_1_our_features.html#a0686e1406b6677f496529f9f3fe98d1e" target="_top" xlink:title="Json::OurFeatures::all">
<polygon fill="none" stroke="black" points="169,-93 169,-112 282,-112 282,-93 169,-93"/>
<text text-anchor="middle" x="225.5" y="-100" font-family="Helvetica,sans-Serif" font-size="10.00">Json::OurFeatures::all</text>
</a>
</g>
</g>
<!-- Node2&#45;&gt;Node31 -->
<g id="edge54" class="edge"><title>Node2&#45;&gt;Node31</title>
<path fill="none" stroke="midnightblue" d="M110.834,-131.474C123.039,-128.133 135.953,-124.65 148,-121.5 156.848,-119.186 166.289,-116.786 175.412,-114.501"/>
<polygon fill="midnightblue" stroke="midnightblue" points="176.284,-117.891 185.142,-112.078 174.592,-111.099 176.284,-117.891"/>
</g>
<!-- Node4 -->
<g id="node3" class="node"><title>Node4</title>
<g id="a_node3"><a xlink:href="class_json_1_1_our_reader.html#a1765d9670d191c89a57a22ea5591d35f" target="_top" xlink:title="Json::OurReader::readValue">
<polygon fill="none" stroke="black" points="342.5,-200 342.5,-219 482.5,-219 482.5,-200 342.5,-200"/>
<text text-anchor="middle" x="412.5" y="-207" font-family="Helvetica,sans-Serif" font-size="10.00">Json::OurReader::readValue</text>
</a>
</g>
</g>
<!-- Node3&#45;&gt;Node4 -->
<g id="edge2" class="edge"><title>Node3&#45;&gt;Node4</title>
<path fill="none" stroke="midnightblue" d="M286.053,-202.719C300.784,-203.515 316.796,-204.381 332.299,-205.219"/>
<polygon fill="midnightblue" stroke="midnightblue" points="332.221,-208.72 342.395,-205.765 332.599,-201.73 332.221,-208.72"/>
</g>
<!-- Node6 -->
<g id="node5" class="node"><title>Node6</title>
<g id="a_node5"><a xlink:href="class_json_1_1_our_reader.html#a856dea44d92578c276856d7a65a4ebdc" target="_top" xlink:title="Json::OurReader::skipComment\lTokens">
<polygon fill="none" stroke="black" points="522,-0.5 522,-30.5 680,-30.5 680,-0.5 522,-0.5"/>
<text text-anchor="start" x="530" y="-18.5" font-family="Helvetica,sans-Serif" font-size="10.00">Json::OurReader::skipComment</text>
<text text-anchor="middle" x="601" y="-7.5" font-family="Helvetica,sans-Serif" font-size="10.00">Tokens</text>
</a>
</g>
</g>
<!-- Node3&#45;&gt;Node6 -->
<g id="edge50" class="edge"><title>Node3&#45;&gt;Node6</title>
<path fill="none" stroke="midnightblue" d="M286.194,-195.387C353.314,-189.596 456.763,-176.79 486,-151.5 523.629,-118.95 487.525,-81.374 522,-45.5 525.553,-41.8026 529.612,-38.5543 533.969,-35.7016"/>
<polygon fill="midnightblue" stroke="midnightblue" points="535.747,-38.7168 542.661,-30.6892 532.25,-32.6528 535.747,-38.7168"/>
</g>
<!-- Node27 -->
<g id="node26" class="node"><title>Node27</title>
<g id="a_node26"><a xlink:href="class_json_1_1_our_reader.html#a5a48b71c1c16fa671814c8338e452bc0" target="_top" xlink:title="Json::OurReader::addError">
<polygon fill="none" stroke="black" points="915,-516 915,-535 1049,-535 1049,-516 915,-516"/>
<text text-anchor="middle" x="982" y="-523" font-family="Helvetica,sans-Serif" font-size="10.00">Json::OurReader::addError</text>
</a>
</g>
</g>
<!-- Node3&#45;&gt;Node27 -->
<g id="edge51" class="edge"><title>Node3&#45;&gt;Node27</title>
<path fill="none" stroke="midnightblue" d="M235.192,-209.241C279.746,-258.24 489.241,-477.457 716,-529.5 778.88,-543.931 852.376,-541.355 905.996,-536.071"/>
<polygon fill="midnightblue" stroke="midnightblue" points="906.524,-539.535 916.108,-535.02 905.8,-532.573 906.524,-539.535"/>
</g>
<!-- Node5 -->
<g id="node4" class="node"><title>Node5</title>
<g id="a_node4"><a xlink:href="namespace_json.html#a97f039a107b3f6cf1c3edee50e978f76" target="_top" xlink:title="Json::throwRuntimeError">
<polygon fill="none" stroke="black" points="1662.5,-402 1662.5,-421 1787.5,-421 1787.5,-402 1662.5,-402"/>
<text text-anchor="middle" x="1725" y="-409" font-family="Helvetica,sans-Serif" font-size="10.00">Json::throwRuntimeError</text>
</a>
</g>
</g>
<!-- Node4&#45;&gt;Node5 -->
<g id="edge3" class="edge"><title>Node4&#45;&gt;Node5</title>
<path fill="none" stroke="midnightblue" d="M415.759,-219.451C424.021,-253.796 455.644,-368.904 522,-435.5 675.117,-589.17 764.069,-601.5 981,-601.5 981,-601.5 981,-601.5 1344,-601.5 1498.41,-601.5 1654.4,-474.442 1706.12,-428.131"/>
<polygon fill="midnightblue" stroke="midnightblue" points="1708.72,-430.497 1713.77,-421.183 1704.02,-425.315 1708.72,-430.497"/>
</g>
<!-- Node4&#45;&gt;Node6 -->
<g id="edge4" class="edge"><title>Node4&#45;&gt;Node6</title>
<path fill="none" stroke="midnightblue" d="M464.527,-199.873C472.547,-196.444 480.117,-191.797 486,-185.5 529.859,-138.553 479.268,-93.4751 522,-45.5 525.266,-41.8333 529.032,-38.6118 533.108,-35.7818"/>
<polygon fill="midnightblue" stroke="midnightblue" points="535.097,-38.6693 541.85,-30.5056 531.48,-32.6762 535.097,-38.6693"/>
</g>
<!-- Node21 -->
<g id="node20" class="node"><title>Node21</title>
<g id="a_node20"><a xlink:href="class_json_1_1_our_reader.html#a2acd5b1d53e7d7e17c21ff8e96edc09d" target="_top" xlink:title="Json::OurReader::current\lValue">
<polygon fill="none" stroke="black" points="918.5,-118.5 918.5,-148.5 1045.5,-148.5 1045.5,-118.5 918.5,-118.5"/>
<text text-anchor="start" x="926.5" y="-136.5" font-family="Helvetica,sans-Serif" font-size="10.00">Json::OurReader::current</text>
<text text-anchor="middle" x="982" y="-125.5" font-family="Helvetica,sans-Serif" font-size="10.00">Value</text>
</a>
</g>
</g>
<!-- Node4&#45;&gt;Node21 -->
<g id="edge25" class="edge"><title>Node4&#45;&gt;Node21</title>
<path fill="none" stroke="midnightblue" d="M461.434,-199.916C470.341,-196.481 479.024,-191.82 486,-185.5 515.195,-159.049 490.589,-128.277 522,-104.5 591.459,-51.9207 629.108,-82.7382 716,-76.5 788.258,-71.3123 808.894,-58.2405 879,-76.5 905.897,-83.5056 933.221,-99.3402 952.811,-112.546"/>
<polygon fill="midnightblue" stroke="midnightblue" points="951.025,-115.567 961.237,-118.388 955.013,-109.814 951.025,-115.567"/>
</g>
<!-- Node22 -->
<g id="node21" class="node"><title>Node22</title>
<g id="a_node21"><a xlink:href="class_json_1_1_our_reader.html#aea198f8101dba55099f4d8121a993530" target="_top" xlink:title="Json::OurReader::readObject">
<polygon fill="none" stroke="black" points="529,-200 529,-219 673,-219 673,-200 529,-200"/>
<text text-anchor="middle" x="601" y="-207" font-family="Helvetica,sans-Serif" font-size="10.00">Json::OurReader::readObject</text>
</a>
</g>
</g>
<!-- Node4&#45;&gt;Node22 -->
<g id="edge26" class="edge"><title>Node4&#45;&gt;Node22</title>
<path fill="none" stroke="midnightblue" d="M482.681,-202.954C494.424,-202.751 506.714,-202.699 518.734,-202.8"/>
<polygon fill="midnightblue" stroke="midnightblue" points="518.707,-206.3 528.749,-202.92 518.791,-199.3 518.707,-206.3"/>
</g>
<!-- Node23 -->
<g id="node22" class="node"><title>Node23</title>
<g id="a_node22"><a xlink:href="class_json_1_1_our_reader.html#a34e31d8b8399b7ad493359702b6de6c9" target="_top" xlink:title="Json::OurReader::decodeString">
<polygon fill="none" stroke="black" points="720.5,-86 720.5,-105 874.5,-105 874.5,-86 720.5,-86"/>
<text text-anchor="middle" x="797.5" y="-93" font-family="Helvetica,sans-Serif" font-size="10.00">Json::OurReader::decodeString</text>
</a>
</g>
</g>
<!-- Node4&#45;&gt;Node23 -->
<g id="edge48" class="edge"><title>Node4&#45;&gt;Node23</title>
<path fill="none" stroke="midnightblue" d="M451.572,-199.972C463.037,-196.301 475.386,-191.511 486,-185.5 504.373,-175.095 503.093,-163.899 522,-154.5 580.967,-125.189 654.14,-110.383 710.105,-102.936"/>
<polygon fill="midnightblue" stroke="midnightblue" points="710.871,-106.367 720.347,-101.629 709.985,-99.4229 710.871,-106.367"/>
</g>
<!-- Node25 -->
<g id="node24" class="node"><title>Node25</title>
<g id="a_node24"><a xlink:href="class_json_1_1_our_reader.html#a272d271290933a89abfd5096dd69c9e9" target="_top" xlink:title="Json::OurReader::decodeNumber">
<polygon fill="none" stroke="black" points="716,-124 716,-143 879,-143 879,-124 716,-124"/>
<text text-anchor="middle" x="797.5" y="-131" font-family="Helvetica,sans-Serif" font-size="10.00">Json::OurReader::decodeNumber</text>
</a>
</g>
</g>
<!-- Node4&#45;&gt;Node25 -->
<g id="edge47" class="edge"><title>Node4&#45;&gt;Node25</title>
<path fill="none" stroke="midnightblue" d="M461.619,-199.952C532.089,-185.968 663.169,-159.957 738.744,-144.961"/>
<polygon fill="midnightblue" stroke="midnightblue" points="739.45,-148.389 748.577,-143.009 738.087,-141.523 739.45,-148.389"/>
</g>
<!-- Node4&#45;&gt;Node27 -->
<g id="edge49" class="edge"><title>Node4&#45;&gt;Node27</title>
<path fill="none" stroke="midnightblue" d="M419.378,-219.211C446.424,-262.812 564.102,-440.996 716,-501.5 776.275,-525.508 850.175,-530.397 904.609,-529.919"/>
<polygon fill="midnightblue" stroke="midnightblue" points="904.936,-533.415 914.882,-529.764 904.83,-526.416 904.936,-533.415"/>
</g>
<!-- Node28 -->
<g id="node27" class="node"><title>Node28</title>
<g id="a_node27"><a xlink:href="class_json_1_1_our_reader.html#a0b9f58faf4212c6ecb5d8e2a1ac10257" target="_top" xlink:title="Json::OurReader::readArray">
<polygon fill="none" stroke="black" points="531.5,-320 531.5,-339 670.5,-339 670.5,-320 531.5,-320"/>
<text text-anchor="middle" x="601" y="-327" font-family="Helvetica,sans-Serif" font-size="10.00">Json::OurReader::readArray</text>
</a>
</g>
</g>
<!-- Node4&#45;&gt;Node28 -->
<g id="edge40" class="edge"><title>Node4&#45;&gt;Node28</title>
<path fill="none" stroke="midnightblue" d="M435.626,-219.182C472.827,-240.084 547.209,-288.054 581.681,-313.492"/>
<polygon fill="midnightblue" stroke="midnightblue" points="579.829,-316.481 589.911,-319.737 584.06,-310.904 579.829,-316.481"/>
</g>
<!-- Node7 -->
<g id="node6" class="node"><title>Node7</title>
<g id="a_node6"><a xlink:href="class_json_1_1_our_reader.html#a0d1e66da47fe2e85f5033c59326dfdc3" target="_top" xlink:title="Json::OurReader::readToken">
<polygon fill="none" stroke="black" points="1085,-201 1085,-220 1228,-220 1228,-201 1085,-201"/>
<text text-anchor="middle" x="1156.5" y="-208" font-family="Helvetica,sans-Serif" font-size="10.00">Json::OurReader::readToken</text>
</a>
</g>
</g>
<!-- Node6&#45;&gt;Node7 -->
<g id="edge5" class="edge"><title>Node6&#45;&gt;Node7</title>
<path fill="none" stroke="midnightblue" d="M680.068,-17.6362C773.391,-23.2459 931.654,-42.6618 1049,-108.5 1088.2,-130.494 1123.72,-170.296 1142.18,-193.135"/>
<polygon fill="midnightblue" stroke="midnightblue" points="1139.44,-195.312 1148.38,-200.985 1144.93,-190.97 1139.44,-195.312"/>
</g>
<!-- Node8 -->
<g id="node7" class="node"><title>Node8</title>
<g id="a_node7"><a xlink:href="class_json_1_1_our_reader.html#a6fbc6d58a4505e5ccadf330b57b17ca5" target="_top" xlink:title="Json::OurReader::skipSpaces">
<polygon fill="none" stroke="black" points="1269,-343 1269,-362 1417,-362 1417,-343 1269,-343"/>
<text text-anchor="middle" x="1343" y="-350" font-family="Helvetica,sans-Serif" font-size="10.00">Json::OurReader::skipSpaces</text>
</a>
</g>
</g>
<!-- Node7&#45;&gt;Node8 -->
<g id="edge6" class="edge"><title>Node7&#45;&gt;Node8</title>
<path fill="none" stroke="midnightblue" d="M1165.88,-220.043C1182.95,-239.112 1223.6,-282.571 1264,-311.5 1278.49,-321.875 1295.94,-331.297 1310.66,-338.485"/>
<polygon fill="midnightblue" stroke="midnightblue" points="1309.35,-341.736 1319.88,-342.874 1312.36,-335.416 1309.35,-341.736"/>
</g>
<!-- Node9 -->
<g id="node8" class="node"><title>Node9</title>
<g id="a_node8"><a xlink:href="class_json_1_1_our_reader.html#a298285d035fdbc554caae09d9f0a5859" target="_top" xlink:title="Json::OurReader::getNextChar">
<polygon fill="none" stroke="black" points="1649,-173 1649,-192 1801,-192 1801,-173 1649,-173"/>
<text text-anchor="middle" x="1725" y="-180" font-family="Helvetica,sans-Serif" font-size="10.00">Json::OurReader::getNextChar</text>
</a>
</g>
</g>
<!-- Node7&#45;&gt;Node9 -->
<g id="edge7" class="edge"><title>Node7&#45;&gt;Node9</title>
<path fill="none" stroke="midnightblue" d="M1167.64,-200.967C1185.46,-184.95 1224.28,-153.242 1264,-141.5 1415.71,-96.6501 1606.82,-145.292 1686.48,-169.952"/>
<polygon fill="midnightblue" stroke="midnightblue" points="1685.48,-173.309 1696.07,-172.975 1687.59,-166.632 1685.48,-173.309"/>
</g>
<!-- Node10 -->
<g id="node9" class="node"><title>Node10</title>
<g id="a_node9"><a xlink:href="class_json_1_1_our_reader.html#a5d39b12671499ec5975f3bbc84b7d438" target="_top" xlink:title="Json::OurReader::readString">
<polygon fill="none" stroke="black" points="1465,-75 1465,-94 1606,-94 1606,-75 1465,-75"/>
<text text-anchor="middle" x="1535.5" y="-82" font-family="Helvetica,sans-Serif" font-size="10.00">Json::OurReader::readString</text>
</a>
</g>
</g>
<!-- Node7&#45;&gt;Node10 -->
<g id="edge8" class="edge"><title>Node7&#45;&gt;Node10</title>
<path fill="none" stroke="midnightblue" d="M1164.09,-200.714C1178.99,-179.513 1217.61,-129.56 1264,-108.5 1323.91,-81.3004 1398.9,-76.6246 1454.71,-77.998"/>
<polygon fill="midnightblue" stroke="midnightblue" points="1454.8,-81.5023 1464.9,-78.3207 1455.02,-74.5058 1454.8,-81.5023"/>
</g>
<!-- Node11 -->
<g id="node10" class="node"><title>Node11</title>
<g id="a_node10"><a xlink:href="class_json_1_1_our_reader.html#ac78592defdc333faf56c6d0908758da3" target="_top" xlink:title="Json::OurReader::readString\lSingleQuote">
<polygon fill="none" stroke="black" points="1272.5,-151.5 1272.5,-181.5 1413.5,-181.5 1413.5,-151.5 1272.5,-151.5"/>
<text text-anchor="start" x="1280.5" y="-169.5" font-family="Helvetica,sans-Serif" font-size="10.00">Json::OurReader::readString</text>
<text text-anchor="middle" x="1343" y="-158.5" font-family="Helvetica,sans-Serif" font-size="10.00">SingleQuote</text>
</a>
</g>
</g>
<!-- Node7&#45;&gt;Node11 -->
<g id="edge10" class="edge"><title>Node7&#45;&gt;Node11</title>
<path fill="none" stroke="midnightblue" d="M1197.53,-200.953C1218.4,-195.977 1244.58,-189.733 1268.9,-183.933"/>
<polygon fill="midnightblue" stroke="midnightblue" points="1269.91,-187.29 1278.83,-181.565 1268.29,-180.481 1269.91,-187.29"/>
</g>
<!-- Node12 -->
<g id="node11" class="node"><title>Node12</title>
<g id="a_node11"><a xlink:href="class_json_1_1_our_reader.html#a90f6bb9e55b2bc3d6c1880809495c222" target="_top" xlink:title="Json::OurReader::readComment">
<polygon fill="none" stroke="black" points="1264,-283 1264,-302 1422,-302 1422,-283 1264,-283"/>
<text text-anchor="middle" x="1343" y="-290" font-family="Helvetica,sans-Serif" font-size="10.00">Json::OurReader::readComment</text>
</a>
</g>
</g>
<!-- Node7&#45;&gt;Node12 -->
<g id="edge12" class="edge"><title>Node7&#45;&gt;Node12</title>
<path fill="none" stroke="midnightblue" d="M1173.29,-220.126C1193.7,-232.291 1230.59,-253.345 1264,-267.5 1274.84,-272.091 1286.82,-276.327 1298.07,-279.957"/>
<polygon fill="midnightblue" stroke="midnightblue" points="1297.14,-283.332 1307.73,-282.984 1299.23,-276.653 1297.14,-283.332"/>
</g>
<!-- Node19 -->
<g id="node18" class="node"><title>Node19</title>
<g id="a_node18"><a xlink:href="class_json_1_1_our_reader.html#aefcb9a78cc45870ccac2db2a66c8ec50" target="_top" xlink:title="Json::OurReader::readNumber">
<polygon fill="none" stroke="black" points="1268,-239 1268,-258 1418,-258 1418,-239 1268,-239"/>
<text text-anchor="middle" x="1343" y="-246" font-family="Helvetica,sans-Serif" font-size="10.00">Json::OurReader::readNumber</text>
</a>
</g>
</g>
<!-- Node7&#45;&gt;Node19 -->
<g id="edge23" class="edge"><title>Node7&#45;&gt;Node19</title>
<path fill="none" stroke="midnightblue" d="M1204.06,-220.089C1228.84,-225.194 1259.52,-231.511 1285.64,-236.892"/>
<polygon fill="midnightblue" stroke="midnightblue" points="1285.28,-240.391 1295.78,-238.98 1286.69,-233.535 1285.28,-240.391"/>
</g>
<!-- Node20 -->
<g id="node19" class="node"><title>Node20</title>
<g id="a_node19"><a xlink:href="class_json_1_1_our_reader.html#a4a03f1b266def9b47c4fef35386557fb" target="_top" xlink:title="Json::OurReader::match">
<polygon fill="none" stroke="black" points="1281,-201 1281,-220 1405,-220 1405,-201 1281,-201"/>
<text text-anchor="middle" x="1343" y="-208" font-family="Helvetica,sans-Serif" font-size="10.00">Json::OurReader::match</text>
</a>
</g>
</g>
<!-- Node7&#45;&gt;Node20 -->
<g id="edge24" class="edge"><title>Node7&#45;&gt;Node20</title>
<path fill="none" stroke="midnightblue" d="M1228.04,-210.5C1242.04,-210.5 1256.74,-210.5 1270.77,-210.5"/>
<polygon fill="midnightblue" stroke="midnightblue" points="1270.83,-214 1280.83,-210.5 1270.83,-207 1270.83,-214"/>
</g>
<!-- Node10&#45;&gt;Node9 -->
<g id="edge9" class="edge"><title>Node10&#45;&gt;Node9</title>
<path fill="none" stroke="midnightblue" d="M1574.28,-94.0339C1586.89,-97.8196 1600.82,-102.676 1613,-108.5 1646.97,-124.745 1682.57,-150.206 1704.02,-166.623"/>
<polygon fill="midnightblue" stroke="midnightblue" points="1702,-169.481 1712.04,-172.846 1706.29,-163.951 1702,-169.481"/>
</g>
<!-- Node11&#45;&gt;Node9 -->
<g id="edge11" class="edge"><title>Node11&#45;&gt;Node9</title>
<path fill="none" stroke="midnightblue" d="M1413.7,-169.435C1477.08,-172.103 1570.8,-176.05 1638.65,-178.906"/>
<polygon fill="midnightblue" stroke="midnightblue" points="1638.75,-182.414 1648.89,-179.337 1639.04,-175.42 1638.75,-182.414"/>
</g>
<!-- Node12&#45;&gt;Node9 -->
<g id="edge13" class="edge"><title>Node12&#45;&gt;Node9</title>
<path fill="none" stroke="midnightblue" d="M1422.21,-301.08C1477.48,-304.097 1552.23,-301.898 1613,-277.5 1654.33,-260.907 1691.18,-222.391 1710.25,-199.826"/>
<polygon fill="midnightblue" stroke="midnightblue" points="1713.01,-201.983 1716.67,-192.038 1707.61,-197.533 1713.01,-201.983"/>
</g>
<!-- Node13 -->
<g id="node12" class="node"><title>Node13</title>
<g id="a_node12"><a xlink:href="class_json_1_1_our_reader.html#aba784b125baa1b62387e767b791f2f89" target="_top" xlink:title="Json::OurReader::readCStyle\lComment">
<polygon fill="none" stroke="black" points="1462.5,-238.5 1462.5,-268.5 1608.5,-268.5 1608.5,-238.5 1462.5,-238.5"/>
<text text-anchor="start" x="1470.5" y="-256.5" font-family="Helvetica,sans-Serif" font-size="10.00">Json::OurReader::readCStyle</text>
<text text-anchor="middle" x="1535.5" y="-245.5" font-family="Helvetica,sans-Serif" font-size="10.00">Comment</text>
</a>
</g>
</g>
<!-- Node12&#45;&gt;Node13 -->
<g id="edge14" class="edge"><title>Node12&#45;&gt;Node13</title>
<path fill="none" stroke="midnightblue" d="M1390.6,-282.96C1409.24,-279.144 1431.27,-274.633 1452.43,-270.303"/>
<polygon fill="midnightblue" stroke="midnightblue" points="1453.3,-273.697 1462.39,-268.262 1451.89,-266.839 1453.3,-273.697"/>
</g>
<!-- Node14 -->
<g id="node13" class="node"><title>Node14</title>
<g id="a_node13"><a xlink:href="class_json_1_1_our_reader.html#ae3de80671f0f997053e1c1c8a47a45c5" target="_top" xlink:title="Json::OurReader::readCpp\lStyleComment">
<polygon fill="none" stroke="black" points="1468.5,-189.5 1468.5,-219.5 1602.5,-219.5 1602.5,-189.5 1468.5,-189.5"/>
<text text-anchor="start" x="1476.5" y="-207.5" font-family="Helvetica,sans-Serif" font-size="10.00">Json::OurReader::readCpp</text>
<text text-anchor="middle" x="1535.5" y="-196.5" font-family="Helvetica,sans-Serif" font-size="10.00">StyleComment</text>
</a>
</g>
</g>
<!-- Node12&#45;&gt;Node14 -->
<g id="edge16" class="edge"><title>Node12&#45;&gt;Node14</title>
<path fill="none" stroke="midnightblue" d="M1387.46,-282.898C1399.22,-279.171 1411.57,-274.153 1422,-267.5 1441.89,-254.815 1438.07,-241.124 1458,-228.5 1460.62,-226.84 1463.36,-225.288 1466.19,-223.836"/>
<polygon fill="midnightblue" stroke="midnightblue" points="1467.85,-226.925 1475.44,-219.536 1464.9,-220.577 1467.85,-226.925"/>
</g>
<!-- Node15 -->
<g id="node14" class="node"><title>Node15</title>
<g id="a_node14"><a xlink:href="namespace_json.html#a4d6ab0f651348832e5cc49b577a854d2" target="_top" xlink:title="Json::containsNewLine">
<polygon fill="none" stroke="black" points="1476,-364 1476,-383 1595,-383 1595,-364 1476,-364"/>
<text text-anchor="middle" x="1535.5" y="-371" font-family="Helvetica,sans-Serif" font-size="10.00">Json::containsNewLine</text>
</a>
</g>
</g>
<!-- Node12&#45;&gt;Node15 -->
<g id="edge18" class="edge"><title>Node12&#45;&gt;Node15</title>
<path fill="none" stroke="midnightblue" d="M1362.72,-302.046C1378.6,-310.213 1401.93,-322.377 1422,-333.5 1438.2,-342.478 1440.84,-347.53 1458,-354.5 1464.13,-356.991 1470.68,-359.219 1477.27,-361.194"/>
<polygon fill="midnightblue" stroke="midnightblue" points="1476.32,-364.565 1486.9,-363.909 1478.22,-357.827 1476.32,-364.565"/>
</g>
<!-- Node16 -->
<g id="node15" class="node"><title>Node16</title>
<g id="a_node15"><a xlink:href="class_json_1_1_our_reader.html#ad7318c37469a9106069a236fb4b10e1f" target="_top" xlink:title="Json::OurReader::addComment">
<polygon fill="none" stroke="black" points="1458,-326 1458,-345 1613,-345 1613,-326 1458,-326"/>
<text text-anchor="middle" x="1535.5" y="-333" font-family="Helvetica,sans-Serif" font-size="10.00">Json::OurReader::addComment</text>
</a>
</g>
</g>
<!-- Node12&#45;&gt;Node16 -->
<g id="edge20" class="edge"><title>Node12&#45;&gt;Node16</title>
<path fill="none" stroke="midnightblue" d="M1386.28,-302.043C1414.64,-308.445 1452.19,-316.921 1482.4,-323.74"/>
<polygon fill="midnightblue" stroke="midnightblue" points="1481.81,-327.196 1492.34,-325.984 1483.36,-320.368 1481.81,-327.196"/>
</g>
<!-- Node13&#45;&gt;Node9 -->
<g id="edge15" class="edge"><title>Node13&#45;&gt;Node9</title>
<path fill="none" stroke="midnightblue" d="M1584.44,-238.46C1593.95,-235.301 1603.83,-231.894 1613,-228.5 1640.27,-218.412 1670.75,-205.673 1692.86,-196.161"/>
<polygon fill="midnightblue" stroke="midnightblue" points="1694.3,-199.351 1702.08,-192.169 1691.52,-192.927 1694.3,-199.351"/>
</g>
<!-- Node14&#45;&gt;Node9 -->
<g id="edge17" class="edge"><title>Node14&#45;&gt;Node9</title>
<path fill="none" stroke="midnightblue" d="M1602.61,-196.744C1614.3,-195.371 1626.63,-193.925 1638.76,-192.501"/>
<polygon fill="midnightblue" stroke="midnightblue" points="1639.37,-195.954 1648.89,-191.312 1638.56,-189.002 1639.37,-195.954"/>
</g>
<!-- Node15&#45;&gt;Node5 -->
<g id="edge19" class="edge"><title>Node15&#45;&gt;Node5</title>
<path fill="none" stroke="midnightblue" d="M1583.81,-383.089C1609.11,-388.216 1640.45,-394.567 1667.07,-399.963"/>
<polygon fill="midnightblue" stroke="midnightblue" points="1666.53,-403.424 1677.03,-401.98 1667.92,-396.563 1666.53,-403.424"/>
</g>
<!-- Node17 -->
<g id="node16" class="node"><title>Node17</title>
<g id="a_node16"><a xlink:href="namespace_json.html#a2e6b8616041876128cbef54b8c75da62" target="_top" xlink:title="Json::normalizeEOL">
<polygon fill="none" stroke="black" points="1672.5,-326 1672.5,-345 1777.5,-345 1777.5,-326 1672.5,-326"/>
<text text-anchor="middle" x="1725" y="-333" font-family="Helvetica,sans-Serif" font-size="10.00">Json::normalizeEOL</text>
</a>
</g>
</g>
<!-- Node16&#45;&gt;Node17 -->
<g id="edge21" class="edge"><title>Node16&#45;&gt;Node17</title>
<path fill="none" stroke="midnightblue" d="M1613.03,-335.5C1629.4,-335.5 1646.49,-335.5 1662.21,-335.5"/>
<polygon fill="midnightblue" stroke="midnightblue" points="1662.33,-339 1672.33,-335.5 1662.33,-332 1662.33,-339"/>
</g>
<!-- Node18 -->
<g id="node17" class="node"><title>Node18</title>
<g id="a_node17"><a xlink:href="namespace_json.html#adf0456e397a18cd7218a7b51dfc13c73" target="_top" xlink:title="Converts a unicode code&#45;point to UTF&#45;8. ">
<polygon fill="none" stroke="black" points="1837,-326 1837,-345 1960,-345 1960,-326 1837,-326"/>
<text text-anchor="middle" x="1898.5" y="-333" font-family="Helvetica,sans-Serif" font-size="10.00">Json::codePointToUTF8</text>
</a>
</g>
</g>
<!-- Node17&#45;&gt;Node18 -->
<g id="edge22" class="edge"><title>Node17&#45;&gt;Node18</title>
<path fill="none" stroke="midnightblue" d="M1777.92,-335.5C1793.27,-335.5 1810.34,-335.5 1826.67,-335.5"/>
<polygon fill="midnightblue" stroke="midnightblue" points="1826.71,-339 1836.71,-335.5 1826.71,-332 1826.71,-339"/>
</g>
<!-- Node22&#45;&gt;Node4 -->
<g id="edge39" class="edge"><title>Node22&#45;&gt;Node4</title>
<path fill="none" stroke="midnightblue" d="M528.749,-216.08C517.062,-216.264 504.887,-216.298 493.015,-216.184"/>
<polygon fill="midnightblue" stroke="midnightblue" points="492.727,-212.68 482.681,-216.046 492.633,-219.68 492.727,-212.68"/>
</g>
<!-- Node22&#45;&gt;Node5 -->
<g id="edge38" class="edge"><title>Node22&#45;&gt;Node5</title>
<path fill="none" stroke="midnightblue" d="M609.276,-219.048C633.263,-250.477 708.732,-348.96 716,-353.5 818.258,-417.371 860.434,-411.5 981,-411.5 981,-411.5 981,-411.5 1344,-411.5 1451.27,-411.5 1575.58,-411.5 1652,-411.5"/>
<polygon fill="midnightblue" stroke="midnightblue" points="1652.46,-415 1662.46,-411.5 1652.46,-408 1652.46,-415"/>
</g>
<!-- Node22&#45;&gt;Node7 -->
<g id="edge28" class="edge"><title>Node22&#45;&gt;Node7</title>
<path fill="none" stroke="midnightblue" d="M673.227,-209.629C776.327,-209.815 966.606,-210.159 1074.78,-210.354"/>
<polygon fill="midnightblue" stroke="midnightblue" points="1074.98,-213.854 1084.98,-210.373 1074.99,-206.854 1074.98,-213.854"/>
</g>
<!-- Node22&#45;&gt;Node21 -->
<g id="edge27" class="edge"><title>Node22&#45;&gt;Node21</title>
<path fill="none" stroke="midnightblue" d="M649.617,-199.952C714.784,-186.884 832.331,-163.312 908.481,-148.042"/>
<polygon fill="midnightblue" stroke="midnightblue" points="909.363,-151.435 918.479,-146.037 907.986,-144.572 909.363,-151.435"/>
</g>
<!-- Node22&#45;&gt;Node23 -->
<g id="edge29" class="edge"><title>Node22&#45;&gt;Node23</title>
<path fill="none" stroke="midnightblue" d="M610.678,-199.713C628.437,-180.319 671.057,-136.95 716,-114.5 720.817,-112.094 725.951,-109.985 731.204,-108.137"/>
<polygon fill="midnightblue" stroke="midnightblue" points="732.288,-111.466 740.748,-105.088 730.157,-104.798 732.288,-111.466"/>
</g>
<!-- Node24 -->
<g id="node23" class="node"><title>Node24</title>
<g id="a_node23"><a xlink:href="class_json_1_1_our_reader.html#a035651f0700a76a815e5f904c63ebb1c" target="_top" xlink:title="Json::OurReader::recover\lFromError">
<polygon fill="none" stroke="black" points="917.5,-292.5 917.5,-322.5 1046.5,-322.5 1046.5,-292.5 917.5,-292.5"/>
<text text-anchor="start" x="925.5" y="-310.5" font-family="Helvetica,sans-Serif" font-size="10.00">Json::OurReader::recover</text>
<text text-anchor="middle" x="982" y="-299.5" font-family="Helvetica,sans-Serif" font-size="10.00">FromError</text>
</a>
</g>
</g>
<!-- Node22&#45;&gt;Node24 -->
<g id="edge31" class="edge"><title>Node22&#45;&gt;Node24</title>
<path fill="none" stroke="midnightblue" d="M639.03,-219.075C702.441,-235.472 832.717,-269.158 912.903,-289.892"/>
<polygon fill="midnightblue" stroke="midnightblue" points="912.35,-293.364 922.908,-292.479 914.102,-286.587 912.35,-293.364"/>
</g>
<!-- Node22&#45;&gt;Node25 -->
<g id="edge33" class="edge"><title>Node22&#45;&gt;Node25</title>
<path fill="none" stroke="midnightblue" d="M627.623,-199.868C643.005,-193.869 662.851,-185.746 680,-177.5 696.495,-169.568 699.13,-164.601 716,-157.5 726.291,-153.168 737.627,-149.281 748.462,-145.959"/>
<polygon fill="midnightblue" stroke="midnightblue" points="749.63,-149.264 758.227,-143.072 747.645,-142.551 749.63,-149.264"/>
</g>
<!-- Node26 -->
<g id="node25" class="node"><title>Node26</title>
<g id="a_node25"><a xlink:href="class_json_1_1_our_reader.html#ae68a7047acd692be8077e259d524c6d9" target="_top" xlink:title="Json::OurReader::addError\lAndRecover">
<polygon fill="none" stroke="black" points="730.5,-314.5 730.5,-344.5 864.5,-344.5 864.5,-314.5 730.5,-314.5"/>
<text text-anchor="start" x="738.5" y="-332.5" font-family="Helvetica,sans-Serif" font-size="10.00">Json::OurReader::addError</text>
<text text-anchor="middle" x="797.5" y="-321.5" font-family="Helvetica,sans-Serif" font-size="10.00">AndRecover</text>
</a>
</g>
</g>
<!-- Node22&#45;&gt;Node26 -->
<g id="edge35" class="edge"><title>Node22&#45;&gt;Node26</title>
<path fill="none" stroke="midnightblue" d="M611.901,-219.111C630.778,-237.005 673.806,-275.759 716,-299.5 723.287,-303.6 731.243,-307.343 739.226,-310.689"/>
<polygon fill="midnightblue" stroke="midnightblue" points="737.986,-313.963 748.571,-314.432 740.589,-307.465 737.986,-313.963"/>
</g>
<!-- Node23&#45;&gt;Node21 -->
<g id="edge30" class="edge"><title>Node23&#45;&gt;Node21</title>
<path fill="none" stroke="midnightblue" d="M844.552,-105.089C863.965,-109.131 887.029,-113.933 908.62,-118.429"/>
<polygon fill="midnightblue" stroke="midnightblue" points="907.914,-121.857 918.417,-120.469 909.341,-115.004 907.914,-121.857"/>
</g>
<!-- Node24&#45;&gt;Node7 -->
<g id="edge32" class="edge"><title>Node24&#45;&gt;Node7</title>
<path fill="none" stroke="midnightblue" d="M1009.95,-292.344C1042.55,-274.012 1097.06,-243.362 1129.31,-225.226"/>
<polygon fill="midnightblue" stroke="midnightblue" points="1131.17,-228.197 1138.17,-220.245 1127.74,-222.096 1131.17,-228.197"/>
</g>
<!-- Node25&#45;&gt;Node21 -->
<g id="edge34" class="edge"><title>Node25&#45;&gt;Node21</title>
<path fill="none" stroke="midnightblue" d="M879.078,-133.5C888.755,-133.5 898.595,-133.5 908.153,-133.5"/>
<polygon fill="midnightblue" stroke="midnightblue" points="908.393,-137 918.393,-133.5 908.393,-130 908.393,-137"/>
</g>
<!-- Node26&#45;&gt;Node24 -->
<g id="edge37" class="edge"><title>Node26&#45;&gt;Node24</title>
<path fill="none" stroke="midnightblue" d="M864.645,-321.526C878.435,-319.864 893.055,-318.102 907.105,-316.408"/>
<polygon fill="midnightblue" stroke="midnightblue" points="907.705,-319.861 917.214,-315.189 906.867,-312.911 907.705,-319.861"/>
</g>
<!-- Node26&#45;&gt;Node27 -->
<g id="edge36" class="edge"><title>Node26&#45;&gt;Node27</title>
<path fill="none" stroke="midnightblue" d="M812.517,-344.554C845.729,-380.223 929.079,-469.738 964.577,-507.862"/>
<polygon fill="midnightblue" stroke="midnightblue" points="962.392,-510.651 971.768,-515.585 967.515,-505.881 962.392,-510.651"/>
</g>
<!-- Node28&#45;&gt;Node4 -->
<g id="edge44" class="edge"><title>Node28&#45;&gt;Node4</title>
<path fill="none" stroke="midnightblue" d="M578.099,-319.944C540.841,-299.036 465.828,-250.653 431.451,-225.236"/>
<polygon fill="midnightblue" stroke="midnightblue" points="433.342,-222.277 423.264,-219.008 429.104,-227.848 433.342,-222.277"/>
</g>
<!-- Node28&#45;&gt;Node7 -->
<g id="edge43" class="edge"><title>Node28&#45;&gt;Node7</title>
<path fill="none" stroke="midnightblue" d="M621.582,-339.144C643.83,-349.518 681.531,-365.352 716,-371.5 862.748,-397.673 921.152,-408.148 1049,-331.5 1092.39,-305.484 1127.61,-255.863 1144.56,-228.955"/>
<polygon fill="midnightblue" stroke="midnightblue" points="1147.72,-230.509 1149.96,-220.155 1141.75,-226.849 1147.72,-230.509"/>
</g>
<!-- Node28&#45;&gt;Node8 -->
<g id="edge42" class="edge"><title>Node28&#45;&gt;Node8</title>
<path fill="none" stroke="midnightblue" d="M645.975,-339.062C657.613,-342.775 669.772,-347.796 680,-354.5 700.281,-367.794 693.909,-385.499 716,-395.5 923.751,-489.555 1210.33,-401.031 1307.9,-365.638"/>
<polygon fill="midnightblue" stroke="midnightblue" points="1309.36,-368.829 1317.54,-362.09 1306.94,-362.26 1309.36,-368.829"/>
</g>
<!-- Node28&#45;&gt;Node21 -->
<g id="edge41" class="edge"><title>Node28&#45;&gt;Node21</title>
<path fill="none" stroke="midnightblue" d="M620.537,-319.914C679.303,-289.523 862.303,-194.884 942.589,-153.364"/>
<polygon fill="midnightblue" stroke="midnightblue" points="944.581,-156.274 951.856,-148.572 941.366,-150.057 944.581,-156.274"/>
</g>
<!-- Node28&#45;&gt;Node24 -->
<g id="edge45" class="edge"><title>Node28&#45;&gt;Node24</title>
<path fill="none" stroke="midnightblue" d="M636.962,-339.095C689.911,-352.157 793.348,-371.921 879,-353.5 902.665,-348.411 927.459,-337.377 946.676,-327.392"/>
<polygon fill="midnightblue" stroke="midnightblue" points="948.463,-330.405 955.632,-322.605 945.163,-324.232 948.463,-330.405"/>
</g>
<!-- Node28&#45;&gt;Node26 -->
<g id="edge46" class="edge"><title>Node28&#45;&gt;Node26</title>
<path fill="none" stroke="midnightblue" d="M670.573,-329.5C686.605,-329.5 703.778,-329.5 720.125,-329.5"/>
<polygon fill="midnightblue" stroke="midnightblue" points="720.179,-333 730.179,-329.5 720.179,-326 720.179,-333"/>
</g>
<!-- Node30 -->
<g id="node29" class="node"><title>Node30</title>
<g id="a_node29"><a xlink:href="class_json_1_1_our_reader.html#a9f47ad324225df1e68bda7dc451845c9" target="_top" xlink:title="Json::OurReader::getLocation\lLineAndColumn">
<polygon fill="none" stroke="black" points="339,-112.5 339,-142.5 486,-142.5 486,-112.5 339,-112.5"/>
<text text-anchor="start" x="347" y="-130.5" font-family="Helvetica,sans-Serif" font-size="10.00">Json::OurReader::getLocation</text>
<text text-anchor="middle" x="412.5" y="-119.5" font-family="Helvetica,sans-Serif" font-size="10.00">LineAndColumn</text>
</a>
</g>
</g>
<!-- Node29&#45;&gt;Node30 -->
<g id="edge53" class="edge"><title>Node29&#45;&gt;Node30</title>
<path fill="none" stroke="midnightblue" d="M303.082,-138.635C311.584,-137.762 320.271,-136.869 328.844,-135.989"/>
<polygon fill="midnightblue" stroke="midnightblue" points="329.248,-139.466 338.838,-134.963 328.533,-132.503 329.248,-139.466"/>
</g>
</g>
</svg>
        <g id="navigator" transform="translate(0 0)" fill="#404254">
                <rect fill="#f2f5e9" fill-opacity="0.5" stroke="#606060" stroke-width=".5" x="0" y="0" width="60" height="60"/>
                <use id="zoomplus" xlink:href="#zoomPlus" x="17" y="9" onmousedown="handleZoom(evt,'in')"/>
                <use id="zoomminus" xlink:href="#zoomMin" x="42" y="9" onmousedown="handleZoom(evt,'out')"/>
                <use id="reset" xlink:href="#resetDef" x="30" y="36" onmousedown="handleReset()"/>
                <g id="arrowUp" xlink:href="#dirArrow" transform="translate(30 24)" onmousedown="handlePan(0,-1)">
                  <use xlink:href="#rim" fill="#404040">
                        <set attributeName="fill" to="#808080" begin="arrowUp.mouseover" end="arrowUp.mouseout"/>
                  </use>
                  <path fill="none" stroke="white" stroke-width="1.5" d="M0,-3.0v7 M-2.5,-0.5L0,-3.0L2.5,-0.5"/>
                </g>
                <g id="arrowRight" xlink:href="#dirArrow" transform="rotate(90) translate(36 -43)" onmousedown="handlePan(1,0)">
                  <use xlink:href="#rim" fill="#404040">
                        <set attributeName="fill" to="#808080" begin="arrowRight.mouseover" end="arrowRight.mouseout"/>
                  </use>
                  <path fill="none" stroke="white" stroke-width="1.5" d="M0,-3.0v7 M-2.5,-0.5L0,-3.0L2.5,-0.5"/>
                </g>
                <g id="arrowDown" xlink:href="#dirArrow" transform="rotate(180) translate(-30 -48)" onmousedown="handlePan(0,1)">
                  <use xlink:href="#rim" fill="#404040">
                        <set attributeName="fill" to="#808080" begin="arrowDown.mouseover" end="arrowDown.mouseout"/>
                  </use>
                  <path fill="none" stroke="white" stroke-width="1.5" d="M0,-3.0v7 M-2.5,-0.5L0,-3.0L2.5,-0.5"/>
                </g>
                <g id="arrowLeft" xlink:href="#dirArrow" transform="rotate(270) translate(-36 17)" onmousedown="handlePan(-1,0)">
                  <use xlink:href="#rim" fill="#404040">
                        <set attributeName="fill" to="#808080" begin="arrowLeft.mouseover" end="arrowLeft.mouseout"/>
                  </use>
                  <path fill="none" stroke="white" stroke-width="1.5" d="M0,-3.0v7 M-2.5,-0.5L0,-3.0L2.5,-0.5"/>
                </g>
        </g>
        <svg viewBox="0 0 15 15" width="100%" height="30px" preserveAspectRatio="xMaxYMin meet">
         <g id="arrow_out" transform="scale(0.3 0.3)">
          <a xlink:href="class_json_1_1_our_char_reader_a52a1fb5fee88d9b63dd462f63b1c9570_cgraph_org.svg" target="_base">
           <rect id="button" ry="5" rx="5" y="6" x="6" height="38" width="38"
                fill="#f2f5e9" fill-opacity="0.5" stroke="#606060" stroke-width="1.0"/>
           <path id="arrow"
             d="M 11.500037,31.436501 C 11.940474,20.09759 22.043105,11.32322 32.158766,21.979434 L 37.068811,17.246167 C 37.068811,17.246167 37.088388,32 37.088388,32 L 22.160133,31.978069 C 22.160133,31.978069 26.997745,27.140456 26.997745,27.140456 C 18.528582,18.264221 13.291696,25.230495 11.500037,31.436501 z"
             style="fill:#404040;"/>
          </a>
         </g>
        </svg>
</svg>
