<?xml version="1.0" encoding="UTF-8" standalone="no"?>
<!DOCTYPE svg PUBLIC "-//W3C//DTD SVG 1.1//EN"
 "http://www.w3.org/Graphics/SVG/1.1/DTD/svg11.dtd">
<!-- Generated by graphviz version 2.38.0 (20140413.2041)
 -->
<!-- Title: Json::OurReader::recoverFromError Pages: 1 -->
<!--zoomable 94 -->
<svg id="main" version="1.1" xmlns="http://www.w3.org/2000/svg" xmlns:xlink="http://www.w3.org/1999/xlink" xml:space="preserve" onload="init(evt)">
<style type="text/css"><![CDATA[
.edge:hover path { stroke: red; }
.edge:hover polygon { stroke: red; fill: red; }
]]></style>
<script type="text/javascript"><![CDATA[
var edges = document.getElementsByTagName('g');
if (edges && edges.length) {
  for (var i=0;i<edges.length;i++) {
    if (edges[i].id.substr(0,4)=='edge') {
      edges[i].setAttribute('class','edge');
    }
  }
}
]]></script>
        <defs>
                <circle id="rim" cx="0" cy="0" r="7"/>
                <circle id="rim2" cx="0" cy="0" r="3.5"/>
                <g id="zoomPlus">
                        <use xlink:href="#rim" fill="#404040">
                                <set attributeName="fill" to="#808080" begin="zoomplus.mouseover" end="zoomplus.mouseout"/>
                        </use>
                        <path d="M-4,0h8M0,-4v8" fill="none" stroke="white" stroke-width="1.5" pointer-events="none"/>
                </g>
                <g id="zoomMin">
                        <use xlink:href="#rim" fill="#404040">
                                <set attributeName="fill" to="#808080" begin="zoomminus.mouseover" end="zoomminus.mouseout"/>
                        </use>
                        <path d="M-4,0h8" fill="none" stroke="white" stroke-width="1.5" pointer-events="none"/>
                </g>
                <g id="dirArrow">
                        <path fill="none" stroke="white" stroke-width="1.5" d="M0,-3.0v7 M-2.5,-0.5L0,-3.0L2.5,-0.5"/>
                </g>
               <g id="resetDef">
                       <use xlink:href="#rim2" fill="#404040">
                               <set attributeName="fill" to="#808080" begin="reset.mouseover" end="reset.mouseout"/>
                       </use>
               </g>
        </defs>

<script type="text/javascript">
var viewWidth = 986;
var viewHeight = 94;
var sectionId = 'dynsection-48';
</script>
<script xlink:href="svgpan.js"/>
<svg id="graph" class="graph">
<g id="viewport">
<title>Json::OurReader::recoverFromError</title>
<!-- Node395 -->
<g id="node1" class="node"><title>Node395</title>
<polygon fill="#bfbfbf" stroke="black" points="0,-20.94 0,-50.94 129,-50.94 129,-20.94 0,-20.94"/>
<text text-anchor="start" x="8" y="-38.94" font-family="Helvetica,sans-Serif" font-size="10.00">Json::OurReader::recover</text>
<text text-anchor="middle" x="64.5" y="-27.94" font-family="Helvetica,sans-Serif" font-size="10.00">FromError</text>
</g>
<!-- Node396 -->
<g id="node2" class="node"><title>Node396</title>
<g id="a_node2"><a xlink:href="class_json_1_1_our_reader.html#aea198f8101dba55099f4d8121a993530" target="_top" xlink:title="Json::OurReader::readObject">
<polygon fill="none" stroke="black" points="335,-61.44 335,-80.44 479,-80.44 479,-61.44 335,-61.44"/>
<text text-anchor="middle" x="407" y="-68.44" font-family="Helvetica,sans-Serif" font-size="10.00">Json::OurReader::readObject</text>
</a>
</g>
</g>
<!-- Node395&#45;&gt;Node396 -->
<g id="edge1" class="edge"><title>Node395&#45;&gt;Node396</title>
<path fill="none" stroke="midnightblue" d="M129.373,-53.2485C141.145,-55.8946 153.386,-58.2897 165,-59.94 221.707,-67.9976 286.599,-70.5856 334.751,-71.2483"/>
<polygon fill="midnightblue" stroke="midnightblue" points="130.152,-49.8363 119.619,-50.9776 128.565,-56.654 130.152,-49.8363"/>
</g>
<!-- Node400 -->
<g id="node6" class="node"><title>Node400</title>
<g id="a_node6"><a xlink:href="class_json_1_1_our_reader.html#a0b9f58faf4212c6ecb5d8e2a1ac10257" target="_top" xlink:title="Json::OurReader::readArray">
<polygon fill="none" stroke="black" points="691,-23.44 691,-42.44 830,-42.44 830,-23.44 691,-23.44"/>
<text text-anchor="middle" x="760.5" y="-30.44" font-family="Helvetica,sans-Serif" font-size="10.00">Json::OurReader::readArray</text>
</a>
</g>
</g>
<!-- Node395&#45;&gt;Node400 -->
<g id="edge8" class="edge"><title>Node395&#45;&gt;Node400</title>
<path fill="none" stroke="midnightblue" d="M124.973,-18.4665C138.046,-15.3379 151.9,-12.5605 165,-10.94 354.627,12.518 580.651,-9.41726 691.437,-23.3888"/>
<polygon fill="midnightblue" stroke="midnightblue" points="124.01,-15.0995 115.153,-20.9142 125.703,-21.8916 124.01,-15.0995"/>
</g>
<!-- Node401 -->
<g id="node7" class="node"><title>Node401</title>
<g id="a_node7"><a xlink:href="class_json_1_1_our_reader.html#ae68a7047acd692be8077e259d524c6d9" target="_top" xlink:title="Json::OurReader::addError\lAndRecover">
<polygon fill="none" stroke="black" points="165,-20.94 165,-50.94 299,-50.94 299,-20.94 165,-20.94"/>
<text text-anchor="start" x="173" y="-38.94" font-family="Helvetica,sans-Serif" font-size="10.00">Json::OurReader::addError</text>
<text text-anchor="middle" x="232" y="-27.94" font-family="Helvetica,sans-Serif" font-size="10.00">AndRecover</text>
</a>
</g>
</g>
<!-- Node395&#45;&gt;Node401 -->
<g id="edge9" class="edge"><title>Node395&#45;&gt;Node401</title>
<path fill="none" stroke="midnightblue" d="M139.043,-35.94C147.658,-35.94 156.408,-35.94 164.914,-35.94"/>
<polygon fill="midnightblue" stroke="midnightblue" points="139.013,-32.4401 129.013,-35.94 139.013,-39.4401 139.013,-32.4401"/>
</g>
<!-- Node397 -->
<g id="node3" class="node"><title>Node397</title>
<g id="a_node3"><a xlink:href="class_json_1_1_our_reader.html#a1765d9670d191c89a57a22ea5591d35f" target="_top" xlink:title="Json::OurReader::readValue">
<polygon fill="none" stroke="black" points="515,-61.44 515,-80.44 655,-80.44 655,-61.44 515,-61.44"/>
<text text-anchor="middle" x="585" y="-68.44" font-family="Helvetica,sans-Serif" font-size="10.00">Json::OurReader::readValue</text>
</a>
</g>
</g>
<!-- Node396&#45;&gt;Node397 -->
<g id="edge2" class="edge"><title>Node396&#45;&gt;Node397</title>
<path fill="none" stroke="midnightblue" d="M489.141,-64.2082C497.764,-64.1622 506.475,-64.2031 514.941,-64.3309"/>
<polygon fill="midnightblue" stroke="midnightblue" points="489.045,-60.7089 479.079,-64.3021 489.111,-67.7086 489.045,-60.7089"/>
</g>
<!-- Node397&#45;&gt;Node396 -->
<g id="edge5" class="edge"><title>Node397&#45;&gt;Node396</title>
<path fill="none" stroke="midnightblue" d="M504.91,-77.6591C496.303,-77.7189 487.581,-77.6918 479.079,-77.5778"/>
<polygon fill="midnightblue" stroke="midnightblue" points="504.98,-81.1587 514.941,-77.549 504.903,-74.1591 504.98,-81.1587"/>
</g>
<!-- Node398 -->
<g id="node4" class="node"><title>Node398</title>
<g id="a_node4"><a xlink:href="class_json_1_1_our_reader.html#aba4f8749aab7f02ec17f107e392caf80" target="_top" xlink:title="Json::OurReader::parse">
<polygon fill="none" stroke="black" points="700,-61.44 700,-80.44 821,-80.44 821,-61.44 700,-61.44"/>
<text text-anchor="middle" x="760.5" y="-68.44" font-family="Helvetica,sans-Serif" font-size="10.00">Json::OurReader::parse</text>
</a>
</g>
</g>
<!-- Node397&#45;&gt;Node398 -->
<g id="edge3" class="edge"><title>Node397&#45;&gt;Node398</title>
<path fill="none" stroke="midnightblue" d="M665.244,-70.94C676.899,-70.94 688.735,-70.94 699.904,-70.94"/>
<polygon fill="midnightblue" stroke="midnightblue" points="665.07,-67.4401 655.07,-70.94 665.07,-74.4401 665.07,-67.4401"/>
</g>
<!-- Node397&#45;&gt;Node400 -->
<g id="edge6" class="edge"><title>Node397&#45;&gt;Node400</title>
<path fill="none" stroke="midnightblue" d="M618.046,-58.5441C638.459,-52.8743 665.699,-46.4945 690.823,-41.3635"/>
<polygon fill="midnightblue" stroke="midnightblue" points="616.965,-55.213 608.327,-61.3476 618.905,-61.9388 616.965,-55.213"/>
</g>
<!-- Node399 -->
<g id="node5" class="node"><title>Node399</title>
<g id="a_node5"><a xlink:href="class_json_1_1_our_char_reader.html#a52a1fb5fee88d9b63dd462f63b1c9570" target="_top" xlink:title="Json::OurCharReader\l::parse">
<polygon fill="none" stroke="black" points="866,-55.94 866,-85.94 978,-85.94 978,-55.94 866,-55.94"/>
<text text-anchor="start" x="874" y="-73.94" font-family="Helvetica,sans-Serif" font-size="10.00">Json::OurCharReader</text>
<text text-anchor="middle" x="922" y="-62.94" font-family="Helvetica,sans-Serif" font-size="10.00">::parse</text>
</a>
</g>
</g>
<!-- Node398&#45;&gt;Node399 -->
<g id="edge4" class="edge"><title>Node398&#45;&gt;Node399</title>
<path fill="none" stroke="midnightblue" d="M831.381,-70.94C842.91,-70.94 854.718,-70.94 865.822,-70.94"/>
<polygon fill="midnightblue" stroke="midnightblue" points="831.346,-67.4401 821.346,-70.94 831.346,-74.4401 831.346,-67.4401"/>
</g>
<!-- Node400&#45;&gt;Node397 -->
<g id="edge7" class="edge"><title>Node400&#45;&gt;Node397</title>
<path fill="none" stroke="midnightblue" d="M727.567,-45.3046C707.248,-50.9527 680.131,-57.3094 655.07,-62.436"/>
<polygon fill="midnightblue" stroke="midnightblue" points="728.604,-48.6482 737.241,-42.5119 726.662,-41.9228 728.604,-48.6482"/>
</g>
<!-- Node401&#45;&gt;Node396 -->
<g id="edge10" class="edge"><title>Node401&#45;&gt;Node396</title>
<path fill="none" stroke="midnightblue" d="M309.247,-51.3657C326.123,-54.78 343.527,-58.301 358.841,-61.3992"/>
<polygon fill="midnightblue" stroke="midnightblue" points="309.887,-47.9243 299.392,-49.3718 308.499,-54.7853 309.887,-47.9243"/>
</g>
<!-- Node401&#45;&gt;Node400 -->
<g id="edge11" class="edge"><title>Node401&#45;&gt;Node400</title>
<path fill="none" stroke="midnightblue" d="M309.424,-35.5045C411.891,-34.9207 592.28,-33.8928 690.702,-33.332"/>
<polygon fill="midnightblue" stroke="midnightblue" points="309.128,-32.006 299.148,-35.5631 309.168,-39.0059 309.128,-32.006"/>
</g>
</g>
</svg>
        <g id="navigator" transform="translate(0 0)" fill="#404254">
                <rect fill="#f2f5e9" fill-opacity="0.5" stroke="#606060" stroke-width=".5" x="0" y="0" width="60" height="60"/>
                <use id="zoomplus" xlink:href="#zoomPlus" x="17" y="9" onmousedown="handleZoom(evt,'in')"/>
                <use id="zoomminus" xlink:href="#zoomMin" x="42" y="9" onmousedown="handleZoom(evt,'out')"/>
                <use id="reset" xlink:href="#resetDef" x="30" y="36" onmousedown="handleReset()"/>
                <g id="arrowUp" xlink:href="#dirArrow" transform="translate(30 24)" onmousedown="handlePan(0,-1)">
                  <use xlink:href="#rim" fill="#404040">
                        <set attributeName="fill" to="#808080" begin="arrowUp.mouseover" end="arrowUp.mouseout"/>
                  </use>
                  <path fill="none" stroke="white" stroke-width="1.5" d="M0,-3.0v7 M-2.5,-0.5L0,-3.0L2.5,-0.5"/>
                </g>
                <g id="arrowRight" xlink:href="#dirArrow" transform="rotate(90) translate(36 -43)" onmousedown="handlePan(1,0)">
                  <use xlink:href="#rim" fill="#404040">
                        <set attributeName="fill" to="#808080" begin="arrowRight.mouseover" end="arrowRight.mouseout"/>
                  </use>
                  <path fill="none" stroke="white" stroke-width="1.5" d="M0,-3.0v7 M-2.5,-0.5L0,-3.0L2.5,-0.5"/>
                </g>
                <g id="arrowDown" xlink:href="#dirArrow" transform="rotate(180) translate(-30 -48)" onmousedown="handlePan(0,1)">
                  <use xlink:href="#rim" fill="#404040">
                        <set attributeName="fill" to="#808080" begin="arrowDown.mouseover" end="arrowDown.mouseout"/>
                  </use>
                  <path fill="none" stroke="white" stroke-width="1.5" d="M0,-3.0v7 M-2.5,-0.5L0,-3.0L2.5,-0.5"/>
                </g>
                <g id="arrowLeft" xlink:href="#dirArrow" transform="rotate(270) translate(-36 17)" onmousedown="handlePan(-1,0)">
                  <use xlink:href="#rim" fill="#404040">
                        <set attributeName="fill" to="#808080" begin="arrowLeft.mouseover" end="arrowLeft.mouseout"/>
                  </use>
                  <path fill="none" stroke="white" stroke-width="1.5" d="M0,-3.0v7 M-2.5,-0.5L0,-3.0L2.5,-0.5"/>
                </g>
        </g>
        <svg viewBox="0 0 15 15" width="100%" height="30px" preserveAspectRatio="xMaxYMin meet">
         <g id="arrow_out" transform="scale(0.3 0.3)">
          <a xlink:href="class_json_1_1_our_reader_a035651f0700a76a815e5f904c63ebb1c_icgraph_org.svg" target="_base">
           <rect id="button" ry="5" rx="5" y="6" x="6" height="38" width="38"
                fill="#f2f5e9" fill-opacity="0.5" stroke="#606060" stroke-width="1.0"/>
           <path id="arrow"
             d="M 11.500037,31.436501 C 11.940474,20.09759 22.043105,11.32322 32.158766,21.979434 L 37.068811,17.246167 C 37.068811,17.246167 37.088388,32 37.088388,32 L 22.160133,31.978069 C 22.160133,31.978069 26.997745,27.140456 26.997745,27.140456 C 18.528582,18.264221 13.291696,25.230495 11.500037,31.436501 z"
             style="fill:#404040;"/>
          </a>
         </g>
        </svg>
</svg>
