<?xml version="1.0" encoding="UTF-8" standalone="no"?>
<!DOCTYPE svg PUBLIC "-//W3C//DTD SVG 1.1//EN"
 "http://www.w3.org/Graphics/SVG/1.1/DTD/svg11.dtd">
<!-- Generated by graphviz version 2.38.0 (20140413.2041)
 -->
<!-- Title: Json::OurReader::readCppStyleComment Pages: 1 -->
<svg width="1213pt" height="176pt"
 viewBox="0.00 0.00 1213.00 176.06" xmlns="http://www.w3.org/2000/svg" xmlns:xlink="http://www.w3.org/1999/xlink">
<g id="graph0" class="graph" transform="scale(1 1) rotate(0) translate(4 172.056)">
<title>Json::OurReader::readCppStyleComment</title>
<!-- Node236 -->
<g id="node1" class="node"><title>Node236</title>
<polygon fill="#bfbfbf" stroke="black" points="0,-60.556 0,-90.556 134,-90.556 134,-60.556 0,-60.556"/>
<text text-anchor="start" x="8" y="-78.556" font-family="Helvetica,sans-Serif" font-size="10.00">Json::OurReader::readCpp</text>
<text text-anchor="middle" x="67" y="-67.556" font-family="Helvetica,sans-Serif" font-size="10.00">StyleComment</text>
</g>
<!-- Node237 -->
<g id="node2" class="node"><title>Node237</title>
<g id="a_node2"><a xlink:href="class_json_1_1_our_reader.html#a90f6bb9e55b2bc3d6c1880809495c222" target="_top" xlink:title="Json::OurReader::readComment">
<polygon fill="none" stroke="black" points="170,-66.056 170,-85.056 328,-85.056 328,-66.056 170,-66.056"/>
<text text-anchor="middle" x="249" y="-73.056" font-family="Helvetica,sans-Serif" font-size="10.00">Json::OurReader::readComment</text>
</a>
</g>
</g>
<!-- Node236&#45;&gt;Node237 -->
<g id="edge1" class="edge"><title>Node236&#45;&gt;Node237</title>
<path fill="none" stroke="midnightblue" d="M144.22,-75.556C152.681,-75.556 161.309,-75.556 169.794,-75.556"/>
<polygon fill="midnightblue" stroke="midnightblue" points="144.003,-72.0561 134.003,-75.556 144.003,-79.0561 144.003,-72.0561"/>
</g>
<!-- Node238 -->
<g id="node3" class="node"><title>Node238</title>
<g id="a_node3"><a xlink:href="class_json_1_1_our_reader.html#a0d1e66da47fe2e85f5033c59326dfdc3" target="_top" xlink:title="Json::OurReader::readToken">
<polygon fill="none" stroke="black" points="364,-66.056 364,-85.056 507,-85.056 507,-66.056 364,-66.056"/>
<text text-anchor="middle" x="435.5" y="-73.056" font-family="Helvetica,sans-Serif" font-size="10.00">Json::OurReader::readToken</text>
</a>
</g>
</g>
<!-- Node237&#45;&gt;Node238 -->
<g id="edge2" class="edge"><title>Node237&#45;&gt;Node238</title>
<path fill="none" stroke="midnightblue" d="M338.245,-75.556C346.797,-75.556 355.395,-75.556 363.745,-75.556"/>
<polygon fill="midnightblue" stroke="midnightblue" points="338.245,-72.0561 328.245,-75.556 338.245,-79.0561 338.245,-72.0561"/>
</g>
<!-- Node239 -->
<g id="node4" class="node"><title>Node239</title>
<g id="a_node4"><a xlink:href="class_json_1_1_our_reader.html#a856dea44d92578c276856d7a65a4ebdc" target="_top" xlink:title="Json::OurReader::skipComment\lTokens">
<polygon fill="none" stroke="black" points="543,-85.556 543,-115.556 701,-115.556 701,-85.556 543,-85.556"/>
<text text-anchor="start" x="551" y="-103.556" font-family="Helvetica,sans-Serif" font-size="10.00">Json::OurReader::skipComment</text>
<text text-anchor="middle" x="622" y="-92.556" font-family="Helvetica,sans-Serif" font-size="10.00">Tokens</text>
</a>
</g>
</g>
<!-- Node238&#45;&gt;Node239 -->
<g id="edge3" class="edge"><title>Node238&#45;&gt;Node239</title>
<path fill="none" stroke="midnightblue" d="M516.847,-86.4432C525.497,-87.6152 534.288,-88.8064 542.91,-89.9747"/>
<polygon fill="midnightblue" stroke="midnightblue" points="517.157,-82.9532 506.778,-85.0787 516.217,-89.8899 517.157,-82.9532"/>
</g>
<!-- Node243 -->
<g id="node8" class="node"><title>Node243</title>
<g id="a_node8"><a xlink:href="class_json_1_1_our_reader.html#aea198f8101dba55099f4d8121a993530" target="_top" xlink:title="Json::OurReader::readObject">
<polygon fill="none" stroke="black" points="913,-86.056 913,-105.056 1057,-105.056 1057,-86.056 913,-86.056"/>
<text text-anchor="middle" x="985" y="-93.056" font-family="Helvetica,sans-Serif" font-size="10.00">Json::OurReader::readObject</text>
</a>
</g>
</g>
<!-- Node238&#45;&gt;Node243 -->
<g id="edge12" class="edge"><title>Node238&#45;&gt;Node243</title>
<path fill="none" stroke="midnightblue" d="M461.284,-90.1663C482.272,-101.739 513.56,-117.149 543,-124.556 687.05,-160.801 730.939,-163.582 877,-136.556 909.276,-130.584 944.396,-115.278 965.286,-105.151"/>
<polygon fill="midnightblue" stroke="midnightblue" points="462.839,-87.0249 452.409,-85.1617 459.401,-93.1223 462.839,-87.0249"/>
</g>
<!-- Node244 -->
<g id="node9" class="node"><title>Node244</title>
<g id="a_node9"><a xlink:href="class_json_1_1_our_reader.html#a0b9f58faf4212c6ecb5d8e2a1ac10257" target="_top" xlink:title="Json::OurReader::readArray">
<polygon fill="none" stroke="black" points="915.5,-42.056 915.5,-61.056 1054.5,-61.056 1054.5,-42.056 915.5,-42.056"/>
<text text-anchor="middle" x="985" y="-49.056" font-family="Helvetica,sans-Serif" font-size="10.00">Json::OurReader::readArray</text>
</a>
</g>
</g>
<!-- Node238&#45;&gt;Node244 -->
<g id="edge13" class="edge"><title>Node238&#45;&gt;Node244</title>
<path fill="none" stroke="midnightblue" d="M461.255,-60.827C482.226,-49.1836 513.504,-33.7362 543,-26.556 687.285,8.56752 730.255,5.19804 877,-17.556 906.855,-22.1853 939.783,-33.6729 961.118,-42.0168"/>
<polygon fill="midnightblue" stroke="midnightblue" points="459.353,-57.8819 452.388,-65.8656 462.812,-63.9678 459.353,-57.8819"/>
</g>
<!-- Node245 -->
<g id="node10" class="node"><title>Node245</title>
<g id="a_node10"><a xlink:href="class_json_1_1_our_reader.html#a035651f0700a76a815e5f904c63ebb1c" target="_top" xlink:title="Json::OurReader::recover\lFromError">
<polygon fill="none" stroke="black" points="557.5,-36.556 557.5,-66.556 686.5,-66.556 686.5,-36.556 557.5,-36.556"/>
<text text-anchor="start" x="565.5" y="-54.556" font-family="Helvetica,sans-Serif" font-size="10.00">Json::OurReader::recover</text>
<text text-anchor="middle" x="622" y="-43.556" font-family="Helvetica,sans-Serif" font-size="10.00">FromError</text>
</a>
</g>
</g>
<!-- Node238&#45;&gt;Node245 -->
<g id="edge14" class="edge"><title>Node238&#45;&gt;Node245</title>
<path fill="none" stroke="midnightblue" d="M517.249,-65.052C530.708,-63.3013 544.498,-61.5074 557.451,-59.8226"/>
<polygon fill="midnightblue" stroke="midnightblue" points="516.506,-61.6191 507.041,-66.3799 517.409,-68.5606 516.506,-61.6191"/>
</g>
<!-- Node240 -->
<g id="node5" class="node"><title>Node240</title>
<g id="a_node5"><a xlink:href="class_json_1_1_our_reader.html#aba4f8749aab7f02ec17f107e392caf80" target="_top" xlink:title="Json::OurReader::parse">
<polygon fill="none" stroke="black" points="924.5,-143.056 924.5,-162.056 1045.5,-162.056 1045.5,-143.056 924.5,-143.056"/>
<text text-anchor="middle" x="985" y="-150.056" font-family="Helvetica,sans-Serif" font-size="10.00">Json::OurReader::parse</text>
</a>
</g>
</g>
<!-- Node239&#45;&gt;Node240 -->
<g id="edge4" class="edge"><title>Node239&#45;&gt;Node240</title>
<path fill="none" stroke="midnightblue" d="M671.963,-118.87C691.868,-125.561 715.261,-132.481 737,-136.556 800.249,-148.411 874.02,-151.871 924.36,-152.702"/>
<polygon fill="midnightblue" stroke="midnightblue" points="673.09,-115.557 662.495,-115.618 670.815,-122.177 673.09,-115.557"/>
</g>
<!-- Node242 -->
<g id="node7" class="node"><title>Node242</title>
<g id="a_node7"><a xlink:href="class_json_1_1_our_reader.html#a1765d9670d191c89a57a22ea5591d35f" target="_top" xlink:title="Json::OurReader::readValue">
<polygon fill="none" stroke="black" points="737,-86.056 737,-105.056 877,-105.056 877,-86.056 737,-86.056"/>
<text text-anchor="middle" x="807" y="-93.056" font-family="Helvetica,sans-Serif" font-size="10.00">Json::OurReader::readValue</text>
</a>
</g>
</g>
<!-- Node239&#45;&gt;Node242 -->
<g id="edge6" class="edge"><title>Node239&#45;&gt;Node242</title>
<path fill="none" stroke="midnightblue" d="M711.194,-98.1463C719.789,-97.9115 728.424,-97.6756 736.793,-97.4469"/>
<polygon fill="midnightblue" stroke="midnightblue" points="711.04,-94.6491 701.139,-98.421 711.231,-101.647 711.04,-94.6491"/>
</g>
<!-- Node241 -->
<g id="node6" class="node"><title>Node241</title>
<g id="a_node6"><a xlink:href="class_json_1_1_our_char_reader.html#a52a1fb5fee88d9b63dd462f63b1c9570" target="_top" xlink:title="Json::OurCharReader\l::parse">
<polygon fill="none" stroke="black" points="1093,-137.556 1093,-167.556 1205,-167.556 1205,-137.556 1093,-137.556"/>
<text text-anchor="start" x="1101" y="-155.556" font-family="Helvetica,sans-Serif" font-size="10.00">Json::OurCharReader</text>
<text text-anchor="middle" x="1149" y="-144.556" font-family="Helvetica,sans-Serif" font-size="10.00">::parse</text>
</a>
</g>
</g>
<!-- Node240&#45;&gt;Node241 -->
<g id="edge5" class="edge"><title>Node240&#45;&gt;Node241</title>
<path fill="none" stroke="midnightblue" d="M1056.11,-152.556C1068.43,-152.556 1081.1,-152.556 1092.94,-152.556"/>
<polygon fill="midnightblue" stroke="midnightblue" points="1055.86,-149.056 1045.86,-152.556 1055.86,-156.056 1055.86,-149.056"/>
</g>
<!-- Node242&#45;&gt;Node240 -->
<g id="edge7" class="edge"><title>Node242&#45;&gt;Node240</title>
<path fill="none" stroke="midnightblue" d="M847.077,-108.212C879.521,-118.719 924.968,-133.438 954.445,-142.984"/>
<polygon fill="midnightblue" stroke="midnightblue" points="848.05,-104.848 837.458,-105.096 845.894,-111.507 848.05,-104.848"/>
</g>
<!-- Node242&#45;&gt;Node243 -->
<g id="edge8" class="edge"><title>Node242&#45;&gt;Node243</title>
<path fill="none" stroke="midnightblue" d="M887.06,-88.837C895.645,-88.7772 904.345,-88.8038 912.828,-88.9169"/>
<polygon fill="midnightblue" stroke="midnightblue" points="887.016,-85.3372 877.055,-88.947 887.093,-92.3368 887.016,-85.3372"/>
</g>
<!-- Node242&#45;&gt;Node244 -->
<g id="edge10" class="edge"><title>Node242&#45;&gt;Node244</title>
<path fill="none" stroke="midnightblue" d="M837.768,-82.9024C860.106,-75.9055 891.525,-67.6108 919.518,-61.1454"/>
<polygon fill="midnightblue" stroke="midnightblue" points="836.619,-79.5958 828.189,-86.0147 838.782,-86.2533 836.619,-79.5958"/>
</g>
<!-- Node243&#45;&gt;Node242 -->
<g id="edge9" class="edge"><title>Node243&#45;&gt;Node242</title>
<path fill="none" stroke="midnightblue" d="M902.79,-102.288C894.188,-102.334 885.499,-102.292 877.055,-102.165"/>
<polygon fill="midnightblue" stroke="midnightblue" points="902.861,-105.788 912.828,-102.195 902.796,-98.788 902.861,-105.788"/>
</g>
<!-- Node244&#45;&gt;Node242 -->
<g id="edge11" class="edge"><title>Node244&#45;&gt;Node242</title>
<path fill="none" stroke="midnightblue" d="M954.054,-64.2652C931.742,-71.2459 900.442,-79.5076 872.537,-85.9539"/>
<polygon fill="midnightblue" stroke="midnightblue" points="955.196,-67.5743 963.628,-61.1591 953.036,-60.9159 955.196,-67.5743"/>
</g>
<!-- Node245&#45;&gt;Node243 -->
<g id="edge15" class="edge"><title>Node245&#45;&gt;Node243</title>
<path fill="none" stroke="midnightblue" d="M692.838,-70.932C695.653,-72.3712 698.387,-73.9105 701,-75.556 720.962,-88.1249 715.391,-105.095 737,-114.556 812.053,-147.417 912.181,-120.85 958.505,-105.104"/>
<polygon fill="midnightblue" stroke="midnightblue" points="694.167,-67.6903 683.621,-66.6686 691.228,-74.0436 694.167,-67.6903"/>
</g>
<!-- Node245&#45;&gt;Node244 -->
<g id="edge16" class="edge"><title>Node245&#45;&gt;Node244</title>
<path fill="none" stroke="midnightblue" d="M689.943,-34.3552C705.3,-31.1142 721.632,-28.2213 737,-26.556 798.86,-19.8527 815.187,-19.4308 877,-26.556 902.395,-29.4832 930.521,-36.1957 951.561,-41.9287"/>
<polygon fill="midnightblue" stroke="midnightblue" points="689.033,-30.9712 680.011,-36.5258 690.528,-37.8097 689.033,-30.9712"/>
</g>
<!-- Node246 -->
<g id="node11" class="node"><title>Node246</title>
<g id="a_node11"><a xlink:href="class_json_1_1_our_reader.html#ae68a7047acd692be8077e259d524c6d9" target="_top" xlink:title="Json::OurReader::addError\lAndRecover">
<polygon fill="none" stroke="black" points="740,-36.556 740,-66.556 874,-66.556 874,-36.556 740,-36.556"/>
<text text-anchor="start" x="748" y="-54.556" font-family="Helvetica,sans-Serif" font-size="10.00">Json::OurReader::addError</text>
<text text-anchor="middle" x="807" y="-43.556" font-family="Helvetica,sans-Serif" font-size="10.00">AndRecover</text>
</a>
</g>
</g>
<!-- Node245&#45;&gt;Node246 -->
<g id="edge17" class="edge"><title>Node245&#45;&gt;Node246</title>
<path fill="none" stroke="midnightblue" d="M696.986,-51.556C711.219,-51.556 726.038,-51.556 739.997,-51.556"/>
<polygon fill="midnightblue" stroke="midnightblue" points="696.748,-48.0561 686.748,-51.556 696.748,-55.0561 696.748,-48.0561"/>
</g>
<!-- Node246&#45;&gt;Node243 -->
<g id="edge18" class="edge"><title>Node246&#45;&gt;Node243</title>
<path fill="none" stroke="midnightblue" d="M877.896,-69.03C901.105,-74.8323 926.07,-81.0736 945.95,-86.0436"/>
<polygon fill="midnightblue" stroke="midnightblue" points="878.627,-65.6052 868.077,-66.5752 876.929,-72.3962 878.627,-65.6052"/>
</g>
<!-- Node246&#45;&gt;Node244 -->
<g id="edge19" class="edge"><title>Node246&#45;&gt;Node244</title>
<path fill="none" stroke="midnightblue" d="M884.248,-51.556C894.554,-51.556 905.078,-51.556 915.243,-51.556"/>
<polygon fill="midnightblue" stroke="midnightblue" points="884.037,-48.0561 874.037,-51.556 884.037,-55.0561 884.037,-48.0561"/>
</g>
</g>
</svg>
