<?xml version="1.0" encoding="UTF-8" standalone="no"?>
<!DOCTYPE svg PUBLIC "-//W3C//DTD SVG 1.1//EN"
 "http://www.w3.org/Graphics/SVG/1.1/DTD/svg11.dtd">
<!-- Generated by graphviz version 2.38.0 (20140413.2041)
 -->
<!-- Title: MinecraftServerService::Server::outputListenerThread Pages: 1 -->
<!--zoomable 237 -->
<svg id="main" version="1.1" xmlns="http://www.w3.org/2000/svg" xmlns:xlink="http://www.w3.org/1999/xlink" xml:space="preserve" onload="init(evt)">
<style type="text/css"><![CDATA[
.edge:hover path { stroke: red; }
.edge:hover polygon { stroke: red; fill: red; }
]]></style>
<script type="text/javascript"><![CDATA[
var edges = document.getElementsByTagName('g');
if (edges && edges.length) {
  for (var i=0;i<edges.length;i++) {
    if (edges[i].id.substr(0,4)=='edge') {
      edges[i].setAttribute('class','edge');
    }
  }
}
]]></script>
        <defs>
                <circle id="rim" cx="0" cy="0" r="7"/>
                <circle id="rim2" cx="0" cy="0" r="3.5"/>
                <g id="zoomPlus">
                        <use xlink:href="#rim" fill="#404040">
                                <set attributeName="fill" to="#808080" begin="zoomplus.mouseover" end="zoomplus.mouseout"/>
                        </use>
                        <path d="M-4,0h8M0,-4v8" fill="none" stroke="white" stroke-width="1.5" pointer-events="none"/>
                </g>
                <g id="zoomMin">
                        <use xlink:href="#rim" fill="#404040">
                                <set attributeName="fill" to="#808080" begin="zoomminus.mouseover" end="zoomminus.mouseout"/>
                        </use>
                        <path d="M-4,0h8" fill="none" stroke="white" stroke-width="1.5" pointer-events="none"/>
                </g>
                <g id="dirArrow">
                        <path fill="none" stroke="white" stroke-width="1.5" d="M0,-3.0v7 M-2.5,-0.5L0,-3.0L2.5,-0.5"/>
                </g>
               <g id="resetDef">
                       <use xlink:href="#rim2" fill="#404040">
                               <set attributeName="fill" to="#808080" begin="reset.mouseover" end="reset.mouseout"/>
                       </use>
               </g>
        </defs>

<script type="text/javascript">
var viewWidth = 741;
var viewHeight = 237;
var sectionId = 'dynsection-6';
</script>
<script xlink:href="svgpan.js"/>
<svg id="graph" class="graph">
<g id="viewport">
<title>MinecraftServerService::Server::outputListenerThread</title>
<!-- Node70 -->
<g id="node1" class="node"><title>Node70</title>
<polygon fill="#bfbfbf" stroke="black" points="0,-95.5 0,-125.5 149,-125.5 149,-95.5 0,-95.5"/>
<text text-anchor="start" x="8" y="-113.5" font-family="Helvetica,sans-Serif" font-size="10.00">MinecraftServerService</text>
<text text-anchor="middle" x="74.5" y="-102.5" font-family="Helvetica,sans-Serif" font-size="10.00">::Server::outputListenerThread</text>
</g>
<!-- Node71 -->
<g id="node2" class="node"><title>Node71</title>
<g id="a_node2"><a xlink:href="class_minecraft_server_service_1_1_bukkit_server.html#a40a879282d13c0996d05f1165fa5c4c2" target="_top" xlink:title="MinecraftServerService\l::BukkitServer::startServer">
<polygon fill="none" stroke="black" points="384,-198.5 384,-228.5 517,-228.5 517,-198.5 384,-198.5"/>
<text text-anchor="start" x="392" y="-216.5" font-family="Helvetica,sans-Serif" font-size="10.00">MinecraftServerService</text>
<text text-anchor="middle" x="450.5" y="-205.5" font-family="Helvetica,sans-Serif" font-size="10.00">::BukkitServer::startServer</text>
</a>
</g>
</g>
<!-- Node70&#45;&gt;Node71 -->
<g id="edge1" class="edge"><title>Node70&#45;&gt;Node71</title>
<path fill="none" stroke="midnightblue" d="M103.005,-131.804C124.217,-147.081 154.923,-166.786 185,-177.5 250.158,-200.709 329.243,-209.092 383.87,-212.048"/>
<polygon fill="midnightblue" stroke="midnightblue" points="104.935,-128.879 94.8048,-125.776 100.789,-134.519 104.935,-128.879"/>
</g>
<!-- Node73 -->
<g id="node4" class="node"><title>Node73</title>
<g id="a_node4"><a xlink:href="class_minecraft_server_service_1_1_bungee_cord_server.html#a5f03992324f892fa1cedcef5153a7d3f" target="_top" xlink:title="MinecraftServerService\l::BungeeCordServer::startServer">
<polygon fill="none" stroke="black" points="371,-149.5 371,-179.5 530,-179.5 530,-149.5 371,-149.5"/>
<text text-anchor="start" x="379" y="-167.5" font-family="Helvetica,sans-Serif" font-size="10.00">MinecraftServerService</text>
<text text-anchor="middle" x="450.5" y="-156.5" font-family="Helvetica,sans-Serif" font-size="10.00">::BungeeCordServer::startServer</text>
</a>
</g>
</g>
<!-- Node70&#45;&gt;Node73 -->
<g id="edge3" class="edge"><title>Node70&#45;&gt;Node73</title>
<path fill="none" stroke="midnightblue" d="M112.451,-130.039C133.169,-139.954 159.838,-151.032 185,-156.5 246.392,-169.84 317.67,-171.211 370.754,-169.594"/>
<polygon fill="midnightblue" stroke="midnightblue" points="113.896,-126.85 103.377,-125.59 110.815,-133.135 113.896,-126.85"/>
</g>
<!-- Node75 -->
<g id="node6" class="node"><title>Node75</title>
<g id="a_node6"><a xlink:href="class_minecraft_server_service_1_1_generic_server.html#aa3e2da3f6458e579697154360f6e05e5" target="_top" xlink:title="MinecraftServerService\l::GenericServer::startServer">
<polygon fill="none" stroke="black" points="381,-100.5 381,-130.5 520,-130.5 520,-100.5 381,-100.5"/>
<text text-anchor="start" x="389" y="-118.5" font-family="Helvetica,sans-Serif" font-size="10.00">MinecraftServerService</text>
<text text-anchor="middle" x="450.5" y="-107.5" font-family="Helvetica,sans-Serif" font-size="10.00">::GenericServer::startServer</text>
</a>
</g>
</g>
<!-- Node70&#45;&gt;Node75 -->
<g id="edge5" class="edge"><title>Node70&#45;&gt;Node75</title>
<path fill="none" stroke="midnightblue" d="M159.287,-107.969C167.969,-107.777 176.663,-107.614 185,-107.5 251.66,-106.587 268.374,-105.175 335,-107.5 349.837,-108.018 365.735,-108.912 380.82,-109.919"/>
<polygon fill="midnightblue" stroke="midnightblue" points="159.036,-104.474 149.12,-108.206 159.199,-111.472 159.036,-104.474"/>
</g>
<!-- Node77 -->
<g id="node8" class="node"><title>Node77</title>
<g id="a_node8"><a xlink:href="class_minecraft_server_service_1_1_server.html#a16a19b4cfd94f23c20442cea9b46f678" target="_top" xlink:title="MinecraftServerService\l::Server::launchServerProcess">
<polygon fill="none" stroke="black" points="185,-117.5 185,-147.5 335,-147.5 335,-117.5 185,-117.5"/>
<text text-anchor="start" x="193" y="-135.5" font-family="Helvetica,sans-Serif" font-size="10.00">MinecraftServerService</text>
<text text-anchor="middle" x="260" y="-124.5" font-family="Helvetica,sans-Serif" font-size="10.00">::Server::launchServerProcess</text>
</a>
</g>
</g>
<!-- Node70&#45;&gt;Node77 -->
<g id="edge7" class="edge"><title>Node70&#45;&gt;Node77</title>
<path fill="none" stroke="midnightblue" d="M159.087,-120.521C167.665,-121.55 176.339,-122.59 184.806,-123.605"/>
<polygon fill="midnightblue" stroke="midnightblue" points="159.425,-117.037 149.079,-119.321 158.591,-123.987 159.425,-117.037"/>
</g>
<!-- Node78 -->
<g id="node9" class="node"><title>Node78</title>
<g id="a_node9"><a xlink:href="class_minecraft_server_service_1_1_spigot_server.html#a08bc3d74d604968034303efc7334dd08" target="_top" xlink:title="MinecraftServerService\l::SpigotServer::startServer">
<polygon fill="none" stroke="black" points="384,-50.5 384,-80.5 517,-80.5 517,-50.5 384,-50.5"/>
<text text-anchor="start" x="392" y="-68.5" font-family="Helvetica,sans-Serif" font-size="10.00">MinecraftServerService</text>
<text text-anchor="middle" x="450.5" y="-57.5" font-family="Helvetica,sans-Serif" font-size="10.00">::SpigotServer::startServer</text>
</a>
</g>
</g>
<!-- Node70&#45;&gt;Node78 -->
<g id="edge15" class="edge"><title>Node70&#45;&gt;Node78</title>
<path fill="none" stroke="midnightblue" d="M159.623,-100.378C227.467,-92.2152 321.54,-80.8963 383.896,-73.3935"/>
<polygon fill="midnightblue" stroke="midnightblue" points="158.901,-96.9398 149.39,-101.609 159.737,-103.89 158.901,-96.9398"/>
</g>
<!-- Node80 -->
<g id="node11" class="node"><title>Node80</title>
<g id="a_node11"><a xlink:href="class_minecraft_server_service_1_1_vanilla_server.html#a9f1ea90c5bcd4f183303d169d0427b46" target="_top" xlink:title="MinecraftServerService\l::VanillaServer::startServer">
<polygon fill="none" stroke="black" points="383.5,-0.5 383.5,-30.5 517.5,-30.5 517.5,-0.5 383.5,-0.5"/>
<text text-anchor="start" x="391.5" y="-18.5" font-family="Helvetica,sans-Serif" font-size="10.00">MinecraftServerService</text>
<text text-anchor="middle" x="450.5" y="-7.5" font-family="Helvetica,sans-Serif" font-size="10.00">::VanillaServer::startServer</text>
</a>
</g>
</g>
<!-- Node70&#45;&gt;Node80 -->
<g id="edge16" class="edge"><title>Node70&#45;&gt;Node80</title>
<path fill="none" stroke="midnightblue" d="M131.233,-92.3161C148.399,-86.9528 167.41,-81.2522 185,-76.5 252.104,-58.371 329.689,-40.8824 383.399,-29.3146"/>
<polygon fill="midnightblue" stroke="midnightblue" points="129.85,-89.0822 121.364,-95.4253 131.953,-95.7588 129.85,-89.0822"/>
</g>
<!-- Node72 -->
<g id="node3" class="node"><title>Node72</title>
<g id="a_node3"><a xlink:href="class_minecraft_server_service_1_1_bukkit_server.html#afdd768465fedfbea100da7f62cbd11d0" target="_top" xlink:title="MinecraftServerService\l::BukkitServer::restartServer">
<polygon fill="none" stroke="black" points="579,-198.5 579,-228.5 720,-228.5 720,-198.5 579,-198.5"/>
<text text-anchor="start" x="587" y="-216.5" font-family="Helvetica,sans-Serif" font-size="10.00">MinecraftServerService</text>
<text text-anchor="middle" x="649.5" y="-205.5" font-family="Helvetica,sans-Serif" font-size="10.00">::BukkitServer::restartServer</text>
</a>
</g>
</g>
<!-- Node71&#45;&gt;Node72 -->
<g id="edge2" class="edge"><title>Node71&#45;&gt;Node72</title>
<path fill="none" stroke="midnightblue" d="M527.472,-213.5C544.358,-213.5 562.176,-213.5 578.796,-213.5"/>
<polygon fill="midnightblue" stroke="midnightblue" points="527.098,-210 517.098,-213.5 527.098,-217 527.098,-210"/>
</g>
<!-- Node74 -->
<g id="node5" class="node"><title>Node74</title>
<g id="a_node5"><a xlink:href="class_minecraft_server_service_1_1_bungee_cord_server.html#a471a30d5fd0c2dca57970aef99eaa2b7" target="_top" xlink:title="MinecraftServerService\l::BungeeCordServer::restartServer">
<polygon fill="none" stroke="black" points="566,-149.5 566,-179.5 733,-179.5 733,-149.5 566,-149.5"/>
<text text-anchor="start" x="574" y="-167.5" font-family="Helvetica,sans-Serif" font-size="10.00">MinecraftServerService</text>
<text text-anchor="middle" x="649.5" y="-156.5" font-family="Helvetica,sans-Serif" font-size="10.00">::BungeeCordServer::restartServer</text>
</a>
</g>
</g>
<!-- Node73&#45;&gt;Node74 -->
<g id="edge4" class="edge"><title>Node73&#45;&gt;Node74</title>
<path fill="none" stroke="midnightblue" d="M540.42,-164.5C548.843,-164.5 557.36,-164.5 565.722,-164.5"/>
<polygon fill="midnightblue" stroke="midnightblue" points="540.209,-161 530.209,-164.5 540.209,-168 540.209,-161"/>
</g>
<!-- Node76 -->
<g id="node7" class="node"><title>Node76</title>
<g id="a_node7"><a xlink:href="class_minecraft_server_service_1_1_generic_server.html#a91d7fee4ca078709180084768e85149f" target="_top" xlink:title="MinecraftServerService\l::GenericServer::restartServer">
<polygon fill="none" stroke="black" points="576,-100.5 576,-130.5 723,-130.5 723,-100.5 576,-100.5"/>
<text text-anchor="start" x="584" y="-118.5" font-family="Helvetica,sans-Serif" font-size="10.00">MinecraftServerService</text>
<text text-anchor="middle" x="649.5" y="-107.5" font-family="Helvetica,sans-Serif" font-size="10.00">::GenericServer::restartServer</text>
</a>
</g>
</g>
<!-- Node75&#45;&gt;Node76 -->
<g id="edge6" class="edge"><title>Node75&#45;&gt;Node76</title>
<path fill="none" stroke="midnightblue" d="M530.38,-115.5C545.366,-115.5 560.982,-115.5 575.766,-115.5"/>
<polygon fill="midnightblue" stroke="midnightblue" points="530.125,-112 520.124,-115.5 530.124,-119 530.125,-112"/>
</g>
<!-- Node77&#45;&gt;Node71 -->
<g id="edge8" class="edge"><title>Node77&#45;&gt;Node71</title>
<path fill="none" stroke="midnightblue" d="M296.513,-152.44C317.73,-163.88 345.443,-178.006 371,-188.5 379.6,-192.031 388.894,-195.381 397.974,-198.414"/>
<polygon fill="midnightblue" stroke="midnightblue" points="298.005,-149.268 287.549,-147.559 294.658,-155.415 298.005,-149.268"/>
</g>
<!-- Node77&#45;&gt;Node73 -->
<g id="edge9" class="edge"><title>Node77&#45;&gt;Node73</title>
<path fill="none" stroke="midnightblue" d="M345.225,-146.798C353.799,-148.254 362.484,-149.728 370.993,-151.173"/>
<polygon fill="midnightblue" stroke="midnightblue" points="345.674,-143.324 335.23,-145.101 344.503,-150.226 345.674,-143.324"/>
</g>
<!-- Node77&#45;&gt;Node75 -->
<g id="edge10" class="edge"><title>Node77&#45;&gt;Node75</title>
<path fill="none" stroke="midnightblue" d="M345.544,-124.875C357.363,-123.809 369.388,-122.725 380.865,-121.69"/>
<polygon fill="midnightblue" stroke="midnightblue" points="344.875,-121.421 335.23,-125.806 345.504,-128.393 344.875,-121.421"/>
</g>
<!-- Node77&#45;&gt;Node78 -->
<g id="edge11" class="edge"><title>Node77&#45;&gt;Node78</title>
<path fill="none" stroke="midnightblue" d="M308.236,-113.794C327.597,-106.302 350.284,-97.747 371,-90.5 380.585,-87.1467 390.892,-83.7304 400.783,-80.5441"/>
<polygon fill="midnightblue" stroke="midnightblue" points="306.785,-110.603 298.733,-117.489 309.322,-117.127 306.785,-110.603"/>
</g>
<!-- Node77&#45;&gt;Node80 -->
<g id="edge13" class="edge"><title>Node77&#45;&gt;Node80</title>
<path fill="none" stroke="midnightblue" d="M282.359,-110.211C303.239,-89.5637 336.798,-59.2922 371,-40.5 377.894,-36.7119 385.45,-33.3975 393.064,-30.5282"/>
<polygon fill="midnightblue" stroke="midnightblue" points="279.834,-107.786 275.262,-117.344 284.796,-112.724 279.834,-107.786"/>
</g>
<!-- Node79 -->
<g id="node10" class="node"><title>Node79</title>
<g id="a_node10"><a xlink:href="class_minecraft_server_service_1_1_spigot_server.html#a8868ea31ed029270de60becebf36fc69" target="_top" xlink:title="MinecraftServerService\l::SpigotServer::restartServer">
<polygon fill="none" stroke="black" points="579,-50.5 579,-80.5 720,-80.5 720,-50.5 579,-50.5"/>
<text text-anchor="start" x="587" y="-68.5" font-family="Helvetica,sans-Serif" font-size="10.00">MinecraftServerService</text>
<text text-anchor="middle" x="649.5" y="-57.5" font-family="Helvetica,sans-Serif" font-size="10.00">::SpigotServer::restartServer</text>
</a>
</g>
</g>
<!-- Node78&#45;&gt;Node79 -->
<g id="edge12" class="edge"><title>Node78&#45;&gt;Node79</title>
<path fill="none" stroke="midnightblue" d="M527.472,-65.5C544.358,-65.5 562.176,-65.5 578.796,-65.5"/>
<polygon fill="midnightblue" stroke="midnightblue" points="527.098,-62.0001 517.098,-65.5 527.098,-69.0001 527.098,-62.0001"/>
</g>
<!-- Node81 -->
<g id="node12" class="node"><title>Node81</title>
<g id="a_node12"><a xlink:href="class_minecraft_server_service_1_1_vanilla_server.html#a99ac73bdf44e6d77933e95c769f4d95a" target="_top" xlink:title="MinecraftServerService\l::VanillaServer::restartServer">
<polygon fill="none" stroke="black" points="578,-0.5 578,-30.5 721,-30.5 721,-0.5 578,-0.5"/>
<text text-anchor="start" x="586" y="-18.5" font-family="Helvetica,sans-Serif" font-size="10.00">MinecraftServerService</text>
<text text-anchor="middle" x="649.5" y="-7.5" font-family="Helvetica,sans-Serif" font-size="10.00">::VanillaServer::restartServer</text>
</a>
</g>
</g>
<!-- Node80&#45;&gt;Node81 -->
<g id="edge14" class="edge"><title>Node80&#45;&gt;Node81</title>
<path fill="none" stroke="midnightblue" d="M527.765,-15.5C544.227,-15.5 561.563,-15.5 577.801,-15.5"/>
<polygon fill="midnightblue" stroke="midnightblue" points="527.646,-12.0001 517.646,-15.5 527.646,-19.0001 527.646,-12.0001"/>
</g>
</g>
</svg>
        <g id="navigator" transform="translate(0 0)" fill="#404254">
                <rect fill="#f2f5e9" fill-opacity="0.5" stroke="#606060" stroke-width=".5" x="0" y="0" width="60" height="60"/>
                <use id="zoomplus" xlink:href="#zoomPlus" x="17" y="9" onmousedown="handleZoom(evt,'in')"/>
                <use id="zoomminus" xlink:href="#zoomMin" x="42" y="9" onmousedown="handleZoom(evt,'out')"/>
                <use id="reset" xlink:href="#resetDef" x="30" y="36" onmousedown="handleReset()"/>
                <g id="arrowUp" xlink:href="#dirArrow" transform="translate(30 24)" onmousedown="handlePan(0,-1)">
                  <use xlink:href="#rim" fill="#404040">
                        <set attributeName="fill" to="#808080" begin="arrowUp.mouseover" end="arrowUp.mouseout"/>
                  </use>
                  <path fill="none" stroke="white" stroke-width="1.5" d="M0,-3.0v7 M-2.5,-0.5L0,-3.0L2.5,-0.5"/>
                </g>
                <g id="arrowRight" xlink:href="#dirArrow" transform="rotate(90) translate(36 -43)" onmousedown="handlePan(1,0)">
                  <use xlink:href="#rim" fill="#404040">
                        <set attributeName="fill" to="#808080" begin="arrowRight.mouseover" end="arrowRight.mouseout"/>
                  </use>
                  <path fill="none" stroke="white" stroke-width="1.5" d="M0,-3.0v7 M-2.5,-0.5L0,-3.0L2.5,-0.5"/>
                </g>
                <g id="arrowDown" xlink:href="#dirArrow" transform="rotate(180) translate(-30 -48)" onmousedown="handlePan(0,1)">
                  <use xlink:href="#rim" fill="#404040">
                        <set attributeName="fill" to="#808080" begin="arrowDown.mouseover" end="arrowDown.mouseout"/>
                  </use>
                  <path fill="none" stroke="white" stroke-width="1.5" d="M0,-3.0v7 M-2.5,-0.5L0,-3.0L2.5,-0.5"/>
                </g>
                <g id="arrowLeft" xlink:href="#dirArrow" transform="rotate(270) translate(-36 17)" onmousedown="handlePan(-1,0)">
                  <use xlink:href="#rim" fill="#404040">
                        <set attributeName="fill" to="#808080" begin="arrowLeft.mouseover" end="arrowLeft.mouseout"/>
                  </use>
                  <path fill="none" stroke="white" stroke-width="1.5" d="M0,-3.0v7 M-2.5,-0.5L0,-3.0L2.5,-0.5"/>
                </g>
        </g>
        <svg viewBox="0 0 15 15" width="100%" height="30px" preserveAspectRatio="xMaxYMin meet">
         <g id="arrow_out" transform="scale(0.3 0.3)">
          <a xlink:href="class_minecraft_server_service_1_1_server_a3040817c744456263f8ba36bdb72bf20_icgraph_org.svg" target="_base">
           <rect id="button" ry="5" rx="5" y="6" x="6" height="38" width="38"
                fill="#f2f5e9" fill-opacity="0.5" stroke="#606060" stroke-width="1.0"/>
           <path id="arrow"
             d="M 11.500037,31.436501 C 11.940474,20.09759 22.043105,11.32322 32.158766,21.979434 L 37.068811,17.246167 C 37.068811,17.246167 37.088388,32 37.088388,32 L 22.160133,31.978069 C 22.160133,31.978069 26.997745,27.140456 26.997745,27.140456 C 18.528582,18.264221 13.291696,25.230495 11.500037,31.436501 z"
             style="fill:#404040;"/>
          </a>
         </g>
        </svg>
</svg>
