<?xml version="1.0" encoding="UTF-8" standalone="no"?>
<!DOCTYPE svg PUBLIC "-//W3C//DTD SVG 1.1//EN"
 "http://www.w3.org/Graphics/SVG/1.1/DTD/svg11.dtd">
<!-- Generated by graphviz version 2.38.0 (20140413.2041)
 -->
<!-- Title: MinecraftServerService::Server Pages: 1 -->
<svg width="282pt" height="235pt"
 viewBox="0.00 0.00 282.00 235.00" xmlns="http://www.w3.org/2000/svg" xmlns:xlink="http://www.w3.org/1999/xlink">
<g id="graph0" class="graph" transform="scale(1 1) rotate(0) translate(4 231)">
<title>MinecraftServerService::Server</title>
<!-- Node0 -->
<g id="node1" class="node"><title>Node0</title>
<polygon fill="#bfbfbf" stroke="black" points="0,-98.5 0,-128.5 119,-128.5 119,-98.5 0,-98.5"/>
<text text-anchor="start" x="8" y="-116.5" font-family="Helvetica,sans-Serif" font-size="10.00">MinecraftServerService</text>
<text text-anchor="middle" x="59.5" y="-105.5" font-family="Helvetica,sans-Serif" font-size="10.00">::Server</text>
</g>
<!-- Node1 -->
<g id="node2" class="node"><title>Node1</title>
<g id="a_node2"><a xlink:href="class_minecraft_server_service_1_1_bukkit_server.html" target="_top" xlink:title="MinecraftServerService\l::BukkitServer">
<polygon fill="none" stroke="black" points="155,-196.5 155,-226.5 274,-226.5 274,-196.5 155,-196.5"/>
<text text-anchor="start" x="163" y="-214.5" font-family="Helvetica,sans-Serif" font-size="10.00">MinecraftServerService</text>
<text text-anchor="middle" x="214.5" y="-203.5" font-family="Helvetica,sans-Serif" font-size="10.00">::BukkitServer</text>
</a>
</g>
</g>
<!-- Node0&#45;&gt;Node1 -->
<g id="edge1" class="edge"><title>Node0&#45;&gt;Node1</title>
<path fill="none" stroke="midnightblue" d="M84.7279,-135.53C103.063,-151.416 129.383,-172.6 155,-187.5 160.504,-190.701 166.516,-193.684 172.525,-196.383"/>
<polygon fill="midnightblue" stroke="midnightblue" points="86.7178,-132.619 76.8966,-128.645 82.0959,-137.876 86.7178,-132.619"/>
</g>
<!-- Node2 -->
<g id="node3" class="node"><title>Node2</title>
<g id="a_node3"><a xlink:href="class_minecraft_server_service_1_1_bungee_cord_server.html" target="_top" xlink:title="MinecraftServerService\l::BungeeCordServer">
<polygon fill="none" stroke="black" points="155,-147.5 155,-177.5 274,-177.5 274,-147.5 155,-147.5"/>
<text text-anchor="start" x="163" y="-165.5" font-family="Helvetica,sans-Serif" font-size="10.00">MinecraftServerService</text>
<text text-anchor="middle" x="214.5" y="-154.5" font-family="Helvetica,sans-Serif" font-size="10.00">::BungeeCordServer</text>
</a>
</g>
</g>
<!-- Node0&#45;&gt;Node2 -->
<g id="edge2" class="edge"><title>Node0&#45;&gt;Node2</title>
<path fill="none" stroke="midnightblue" d="M117.513,-131.759C133.65,-136.927 151.027,-142.492 166.502,-147.448"/>
<polygon fill="midnightblue" stroke="midnightblue" points="118.245,-128.318 107.653,-128.601 116.109,-134.985 118.245,-128.318"/>
</g>
<!-- Node3 -->
<g id="node4" class="node"><title>Node3</title>
<g id="a_node4"><a xlink:href="class_minecraft_server_service_1_1_generic_server.html" target="_top" xlink:title="MinecraftServerService\l::GenericServer">
<polygon fill="none" stroke="black" points="155,-98.5 155,-128.5 274,-128.5 274,-98.5 155,-98.5"/>
<text text-anchor="start" x="163" y="-116.5" font-family="Helvetica,sans-Serif" font-size="10.00">MinecraftServerService</text>
<text text-anchor="middle" x="214.5" y="-105.5" font-family="Helvetica,sans-Serif" font-size="10.00">::GenericServer</text>
</a>
</g>
</g>
<!-- Node0&#45;&gt;Node3 -->
<g id="edge3" class="edge"><title>Node0&#45;&gt;Node3</title>
<path fill="none" stroke="midnightblue" d="M129.493,-113.5C137.993,-113.5 146.617,-113.5 154.941,-113.5"/>
<polygon fill="midnightblue" stroke="midnightblue" points="129.216,-110 119.216,-113.5 129.216,-117 129.216,-110"/>
</g>
<!-- Node4 -->
<g id="node5" class="node"><title>Node4</title>
<g id="a_node5"><a xlink:href="class_minecraft_server_service_1_1_spigot_server.html" target="_top" xlink:title="MinecraftServerService\l::SpigotServer">
<polygon fill="none" stroke="black" points="155,-49.5 155,-79.5 274,-79.5 274,-49.5 155,-49.5"/>
<text text-anchor="start" x="163" y="-67.5" font-family="Helvetica,sans-Serif" font-size="10.00">MinecraftServerService</text>
<text text-anchor="middle" x="214.5" y="-56.5" font-family="Helvetica,sans-Serif" font-size="10.00">::SpigotServer</text>
</a>
</g>
</g>
<!-- Node0&#45;&gt;Node4 -->
<g id="edge4" class="edge"><title>Node0&#45;&gt;Node4</title>
<path fill="none" stroke="midnightblue" d="M117.513,-95.2409C133.65,-90.0727 151.027,-84.5076 166.502,-79.5516"/>
<polygon fill="midnightblue" stroke="midnightblue" points="116.109,-92.0152 107.653,-98.3986 118.245,-98.6817 116.109,-92.0152"/>
</g>
<!-- Node5 -->
<g id="node6" class="node"><title>Node5</title>
<g id="a_node6"><a xlink:href="class_minecraft_server_service_1_1_vanilla_server.html" target="_top" xlink:title="MinecraftServerService\l::VanillaServer">
<polygon fill="none" stroke="black" points="155,-0.5 155,-30.5 274,-30.5 274,-0.5 155,-0.5"/>
<text text-anchor="start" x="163" y="-18.5" font-family="Helvetica,sans-Serif" font-size="10.00">MinecraftServerService</text>
<text text-anchor="middle" x="214.5" y="-7.5" font-family="Helvetica,sans-Serif" font-size="10.00">::VanillaServer</text>
</a>
</g>
</g>
<!-- Node0&#45;&gt;Node5 -->
<g id="edge5" class="edge"><title>Node0&#45;&gt;Node5</title>
<path fill="none" stroke="midnightblue" d="M85.1779,-91.616C103.554,-76.0428 129.728,-55.3343 155,-40.5 161.096,-36.9217 167.8,-33.57 174.428,-30.5553"/>
<polygon fill="midnightblue" stroke="midnightblue" points="82.62,-89.1992 77.3151,-98.3703 87.1813,-94.5091 82.62,-89.1992"/>
</g>
</g>
</svg>
