<?xml version="1.0" encoding="UTF-8" standalone="no"?>
<!DOCTYPE svg PUBLIC "-//W3C//DTD SVG 1.1//EN"
 "http://www.w3.org/Graphics/SVG/1.1/DTD/svg11.dtd">
<!-- Generated by graphviz version 2.38.0 (20140413.2041)
 -->
<!-- Title: MinecraftServerService::VanillaServer::reloadServer Pages: 1 -->
<svg width="500pt" height="88pt"
 viewBox="0.00 0.00 500.00 88.00" xmlns="http://www.w3.org/2000/svg" xmlns:xlink="http://www.w3.org/1999/xlink">
<g id="graph0" class="graph" transform="scale(1 1) rotate(0) translate(4 84)">
<title>MinecraftServerService::VanillaServer::reloadServer</title>
<!-- Node15 -->
<g id="node1" class="node"><title>Node15</title>
<polygon fill="#bfbfbf" stroke="black" points="0,-24.5 0,-54.5 141,-54.5 141,-24.5 0,-24.5"/>
<text text-anchor="start" x="8" y="-42.5" font-family="Helvetica,sans-Serif" font-size="10.00">MinecraftServerService</text>
<text text-anchor="middle" x="70.5" y="-31.5" font-family="Helvetica,sans-Serif" font-size="10.00">::VanillaServer::reloadServer</text>
</g>
<!-- Node16 -->
<g id="node2" class="node"><title>Node16</title>
<g id="a_node2"><a xlink:href="class_minecraft_server_service_1_1_vanilla_server.html#a81e6f53665fb9a7a2956417174df44ca" target="_top" xlink:title="MinecraftServerService\l::VanillaServer::listOnlinePlayers">
<polygon fill="none" stroke="black" points="177,-49.5 177,-79.5 337,-79.5 337,-49.5 177,-49.5"/>
<text text-anchor="start" x="185" y="-67.5" font-family="Helvetica,sans-Serif" font-size="10.00">MinecraftServerService</text>
<text text-anchor="middle" x="257" y="-56.5" font-family="Helvetica,sans-Serif" font-size="10.00">::VanillaServer::listOnlinePlayers</text>
</a>
</g>
</g>
<!-- Node15&#45;&gt;Node16 -->
<g id="edge1" class="edge"><title>Node15&#45;&gt;Node16</title>
<path fill="none" stroke="midnightblue" d="M141.252,-48.9514C149.613,-50.0844 158.237,-51.253 166.825,-52.4167"/>
<polygon fill="midnightblue" stroke="midnightblue" points="166.494,-55.9037 176.873,-53.7782 167.434,-48.967 166.494,-55.9037"/>
</g>
<!-- Node17 -->
<g id="node3" class="node"><title>Node17</title>
<g id="a_node3"><a xlink:href="class_minecraft_server_service_1_1_vanilla_server.html#ad488208dfbf40e94a3c692a8fce9531a" target="_top" xlink:title="MinecraftServerService\l::VanillaServer::sendCommand">
<polygon fill="none" stroke="black" points="181,-0.5 181,-30.5 333,-30.5 333,-0.5 181,-0.5"/>
<text text-anchor="start" x="189" y="-18.5" font-family="Helvetica,sans-Serif" font-size="10.00">MinecraftServerService</text>
<text text-anchor="middle" x="257" y="-7.5" font-family="Helvetica,sans-Serif" font-size="10.00">::VanillaServer::sendCommand</text>
</a>
</g>
</g>
<!-- Node15&#45;&gt;Node17 -->
<g id="edge2" class="edge"><title>Node15&#45;&gt;Node17</title>
<path fill="none" stroke="midnightblue" d="M141.252,-30.4266C150.87,-29.1754 160.836,-27.879 170.696,-26.5965"/>
<polygon fill="midnightblue" stroke="midnightblue" points="171.448,-30.0282 180.913,-25.2674 170.545,-23.0867 171.448,-30.0282"/>
</g>
<!-- Node18 -->
<g id="node4" class="node"><title>Node18</title>
<g id="a_node4"><a xlink:href="class_minecraft_server_service_1_1_server.html#a1954e7c7756cd956e7282887ffca73e4" target="_top" xlink:title="MinecraftServerService\l::Server::isRunning">
<polygon fill="none" stroke="black" points="373,-0.5 373,-30.5 492,-30.5 492,-0.5 373,-0.5"/>
<text text-anchor="start" x="381" y="-18.5" font-family="Helvetica,sans-Serif" font-size="10.00">MinecraftServerService</text>
<text text-anchor="middle" x="432.5" y="-7.5" font-family="Helvetica,sans-Serif" font-size="10.00">::Server::isRunning</text>
</a>
</g>
</g>
<!-- Node17&#45;&gt;Node18 -->
<g id="edge3" class="edge"><title>Node17&#45;&gt;Node18</title>
<path fill="none" stroke="midnightblue" d="M333.091,-15.5C342.946,-15.5 353.007,-15.5 362.75,-15.5"/>
<polygon fill="midnightblue" stroke="midnightblue" points="362.767,-19.0001 372.767,-15.5 362.767,-12.0001 362.767,-19.0001"/>
</g>
</g>
</svg>
