<?xml version="1.0" encoding="UTF-8" standalone="no"?>
<!DOCTYPE svg PUBLIC "-//W3C//DTD SVG 1.1//EN"
 "http://www.w3.org/Graphics/SVG/1.1/DTD/svg11.dtd">
<!-- Generated by graphviz version 2.38.0 (20140413.2041)
 -->
<!-- Title: Json::OurReader::skipCommentTokens Pages: 1 -->
<!--zoomable 355 -->
<svg id="main" version="1.1" xmlns="http://www.w3.org/2000/svg" xmlns:xlink="http://www.w3.org/1999/xlink" xml:space="preserve" onload="init(evt)">
<style type="text/css"><![CDATA[
.edge:hover path { stroke: red; }
.edge:hover polygon { stroke: red; fill: red; }
]]></style>
<script type="text/javascript"><![CDATA[
var edges = document.getElementsByTagName('g');
if (edges && edges.length) {
  for (var i=0;i<edges.length;i++) {
    if (edges[i].id.substr(0,4)=='edge') {
      edges[i].setAttribute('class','edge');
    }
  }
}
]]></script>
        <defs>
                <circle id="rim" cx="0" cy="0" r="7"/>
                <circle id="rim2" cx="0" cy="0" r="3.5"/>
                <g id="zoomPlus">
                        <use xlink:href="#rim" fill="#404040">
                                <set attributeName="fill" to="#808080" begin="zoomplus.mouseover" end="zoomplus.mouseout"/>
                        </use>
                        <path d="M-4,0h8M0,-4v8" fill="none" stroke="white" stroke-width="1.5" pointer-events="none"/>
                </g>
                <g id="zoomMin">
                        <use xlink:href="#rim" fill="#404040">
                                <set attributeName="fill" to="#808080" begin="zoomminus.mouseover" end="zoomminus.mouseout"/>
                        </use>
                        <path d="M-4,0h8" fill="none" stroke="white" stroke-width="1.5" pointer-events="none"/>
                </g>
                <g id="dirArrow">
                        <path fill="none" stroke="white" stroke-width="1.5" d="M0,-3.0v7 M-2.5,-0.5L0,-3.0L2.5,-0.5"/>
                </g>
               <g id="resetDef">
                       <use xlink:href="#rim2" fill="#404040">
                               <set attributeName="fill" to="#808080" begin="reset.mouseover" end="reset.mouseout"/>
                       </use>
               </g>
        </defs>

<script type="text/javascript">
var viewWidth = 1077;
var viewHeight = 355;
var sectionId = 'dynsection-49';
</script>
<script xlink:href="svgpan.js"/>
<svg id="graph" class="graph">
<g id="viewport">
<title>Json::OurReader::skipCommentTokens</title>
<!-- Node402 -->
<g id="node1" class="node"><title>Node402</title>
<polygon fill="#bfbfbf" stroke="black" points="0,-202 0,-232 158,-232 158,-202 0,-202"/>
<text text-anchor="start" x="8" y="-220" font-family="Helvetica,sans-Serif" font-size="10.00">Json::OurReader::skipComment</text>
<text text-anchor="middle" x="79" y="-209" font-family="Helvetica,sans-Serif" font-size="10.00">Tokens</text>
</g>
<!-- Node403 -->
<g id="node2" class="node"><title>Node403</title>
<g id="a_node2"><a xlink:href="class_json_1_1_our_reader.html#a0d1e66da47fe2e85f5033c59326dfdc3" target="_top" xlink:title="Json::OurReader::readToken">
<polygon fill="none" stroke="black" points="194,-207.5 194,-226.5 337,-226.5 337,-207.5 194,-207.5"/>
<text text-anchor="middle" x="265.5" y="-214.5" font-family="Helvetica,sans-Serif" font-size="10.00">Json::OurReader::readToken</text>
</a>
</g>
</g>
<!-- Node402&#45;&gt;Node403 -->
<g id="edge1" class="edge"><title>Node402&#45;&gt;Node403</title>
<path fill="none" stroke="midnightblue" d="M158.245,-217C166.623,-217 175.16,-217 183.569,-217"/>
<polygon fill="midnightblue" stroke="midnightblue" points="183.745,-220.5 193.745,-217 183.745,-213.5 183.745,-220.5"/>
</g>
<!-- Node404 -->
<g id="node3" class="node"><title>Node404</title>
<g id="a_node3"><a xlink:href="class_json_1_1_our_reader.html#a6fbc6d58a4505e5ccadf330b57b17ca5" target="_top" xlink:title="Json::OurReader::skipSpaces">
<polygon fill="none" stroke="black" points="378,-327.5 378,-346.5 526,-346.5 526,-327.5 378,-327.5"/>
<text text-anchor="middle" x="452" y="-334.5" font-family="Helvetica,sans-Serif" font-size="10.00">Json::OurReader::skipSpaces</text>
</a>
</g>
</g>
<!-- Node403&#45;&gt;Node404 -->
<g id="edge2" class="edge"><title>Node403&#45;&gt;Node404</title>
<path fill="none" stroke="midnightblue" d="M274.567,-226.675C291.087,-245.885 330.78,-289.048 373,-313 380.79,-317.419 389.488,-321.119 398.171,-324.186"/>
<polygon fill="midnightblue" stroke="midnightblue" points="397.327,-327.592 407.92,-327.384 399.509,-320.941 397.327,-327.592"/>
</g>
<!-- Node405 -->
<g id="node4" class="node"><title>Node405</title>
<g id="a_node4"><a xlink:href="class_json_1_1_our_reader.html#a298285d035fdbc554caae09d9f0a5859" target="_top" xlink:title="Json::OurReader::getNextChar">
<polygon fill="none" stroke="black" points="758,-194.5 758,-213.5 910,-213.5 910,-194.5 758,-194.5"/>
<text text-anchor="middle" x="834" y="-201.5" font-family="Helvetica,sans-Serif" font-size="10.00">Json::OurReader::getNextChar</text>
</a>
</g>
</g>
<!-- Node403&#45;&gt;Node405 -->
<g id="edge3" class="edge"><title>Node403&#45;&gt;Node405</title>
<path fill="none" stroke="midnightblue" d="M283.973,-226.631C304.581,-237.489 340.195,-254.709 373,-263 523.56,-301.054 573.65,-325.92 722,-280 759.453,-268.407 795.517,-239.338 815.909,-220.697"/>
<polygon fill="midnightblue" stroke="midnightblue" points="818.511,-223.055 823.408,-213.66 813.721,-217.951 818.511,-223.055"/>
</g>
<!-- Node406 -->
<g id="node5" class="node"><title>Node406</title>
<g id="a_node5"><a xlink:href="class_json_1_1_our_reader.html#a5d39b12671499ec5975f3bbc84b7d438" target="_top" xlink:title="Json::OurReader::readString">
<polygon fill="none" stroke="black" points="574,-251.5 574,-270.5 715,-270.5 715,-251.5 574,-251.5"/>
<text text-anchor="middle" x="644.5" y="-258.5" font-family="Helvetica,sans-Serif" font-size="10.00">Json::OurReader::readString</text>
</a>
</g>
</g>
<!-- Node403&#45;&gt;Node406 -->
<g id="edge4" class="edge"><title>Node403&#45;&gt;Node406</title>
<path fill="none" stroke="midnightblue" d="M300.761,-226.52C321.507,-231.913 348.589,-238.302 373,-242 436.734,-251.655 509.674,-256.417 563.74,-258.759"/>
<polygon fill="midnightblue" stroke="midnightblue" points="563.814,-262.265 573.951,-259.182 564.104,-255.271 563.814,-262.265"/>
</g>
<!-- Node407 -->
<g id="node6" class="node"><title>Node407</title>
<g id="a_node6"><a xlink:href="class_json_1_1_our_reader.html#ac78592defdc333faf56c6d0908758da3" target="_top" xlink:title="Json::OurReader::readString\lSingleQuote">
<polygon fill="none" stroke="black" points="381.5,-202 381.5,-232 522.5,-232 522.5,-202 381.5,-202"/>
<text text-anchor="start" x="389.5" y="-220" font-family="Helvetica,sans-Serif" font-size="10.00">Json::OurReader::readString</text>
<text text-anchor="middle" x="452" y="-209" font-family="Helvetica,sans-Serif" font-size="10.00">SingleQuote</text>
</a>
</g>
</g>
<!-- Node403&#45;&gt;Node407 -->
<g id="edge6" class="edge"><title>Node403&#45;&gt;Node407</title>
<path fill="none" stroke="midnightblue" d="M337.041,-217C348.179,-217 359.764,-217 371.096,-217"/>
<polygon fill="midnightblue" stroke="midnightblue" points="371.412,-220.5 381.412,-217 371.412,-213.5 371.412,-220.5"/>
</g>
<!-- Node408 -->
<g id="node7" class="node"><title>Node408</title>
<g id="a_node7"><a xlink:href="class_json_1_1_our_reader.html#a90f6bb9e55b2bc3d6c1880809495c222" target="_top" xlink:title="Json::OurReader::readComment">
<polygon fill="none" stroke="black" points="373,-147.5 373,-166.5 531,-166.5 531,-147.5 373,-147.5"/>
<text text-anchor="middle" x="452" y="-154.5" font-family="Helvetica,sans-Serif" font-size="10.00">Json::OurReader::readComment</text>
</a>
</g>
</g>
<!-- Node403&#45;&gt;Node408 -->
<g id="edge8" class="edge"><title>Node403&#45;&gt;Node408</title>
<path fill="none" stroke="midnightblue" d="M295.735,-207.493C327.085,-197.297 377.036,-181.053 411.784,-169.753"/>
<polygon fill="midnightblue" stroke="midnightblue" points="413.17,-172.983 421.597,-166.562 411.005,-166.326 413.17,-172.983"/>
</g>
<!-- Node416 -->
<g id="node15" class="node"><title>Node416</title>
<g id="a_node15"><a xlink:href="class_json_1_1_our_reader.html#aefcb9a78cc45870ccac2db2a66c8ec50" target="_top" xlink:title="Json::OurReader::readNumber">
<polygon fill="none" stroke="black" points="377,-109.5 377,-128.5 527,-128.5 527,-109.5 377,-109.5"/>
<text text-anchor="middle" x="452" y="-116.5" font-family="Helvetica,sans-Serif" font-size="10.00">Json::OurReader::readNumber</text>
</a>
</g>
</g>
<!-- Node403&#45;&gt;Node416 -->
<g id="edge19" class="edge"><title>Node403&#45;&gt;Node416</title>
<path fill="none" stroke="midnightblue" d="M276.472,-207.396C294.332,-190.731 333.608,-156.477 373,-138 378.254,-135.535 383.863,-133.37 389.572,-131.471"/>
<polygon fill="midnightblue" stroke="midnightblue" points="390.687,-134.791 399.229,-128.523 388.643,-128.096 390.687,-134.791"/>
</g>
<!-- Node417 -->
<g id="node16" class="node"><title>Node417</title>
<g id="a_node16"><a xlink:href="class_json_1_1_our_reader.html#a4a03f1b266def9b47c4fef35386557fb" target="_top" xlink:title="Json::OurReader::match">
<polygon fill="none" stroke="black" points="390,-71.5 390,-90.5 514,-90.5 514,-71.5 390,-71.5"/>
<text text-anchor="middle" x="452" y="-78.5" font-family="Helvetica,sans-Serif" font-size="10.00">Json::OurReader::match</text>
</a>
</g>
</g>
<!-- Node403&#45;&gt;Node417 -->
<g id="edge20" class="edge"><title>Node403&#45;&gt;Node417</title>
<path fill="none" stroke="midnightblue" d="M272.348,-207.359C286.562,-184.793 325.287,-128.319 373,-100 376.708,-97.7992 380.659,-95.8529 384.74,-94.1316"/>
<polygon fill="midnightblue" stroke="midnightblue" points="386.3,-97.2853 394.445,-90.51 383.853,-90.727 386.3,-97.2853"/>
</g>
<!-- Node406&#45;&gt;Node405 -->
<g id="edge5" class="edge"><title>Node406&#45;&gt;Node405</title>
<path fill="none" stroke="midnightblue" d="M676.883,-251.459C708.385,-241.883 757.081,-227.079 791.703,-216.554"/>
<polygon fill="midnightblue" stroke="midnightblue" points="792.965,-219.829 801.514,-213.572 790.929,-213.132 792.965,-219.829"/>
</g>
<!-- Node407&#45;&gt;Node405 -->
<g id="edge7" class="edge"><title>Node407&#45;&gt;Node405</title>
<path fill="none" stroke="midnightblue" d="M522.698,-214.616C586.08,-212.447 679.804,-209.241 747.652,-206.92"/>
<polygon fill="midnightblue" stroke="midnightblue" points="748.014,-210.41 757.889,-206.57 747.775,-203.414 748.014,-210.41"/>
</g>
<!-- Node408&#45;&gt;Node405 -->
<g id="edge9" class="edge"><title>Node408&#45;&gt;Node405</title>
<path fill="none" stroke="midnightblue" d="M529.899,-166.511C592.994,-174.315 682.251,-185.355 747.566,-193.433"/>
<polygon fill="midnightblue" stroke="midnightblue" points="747.482,-196.949 757.836,-194.703 748.341,-190.002 747.482,-196.949"/>
</g>
<!-- Node409 -->
<g id="node8" class="node"><title>Node409</title>
<g id="a_node8"><a xlink:href="class_json_1_1_our_reader.html#aba784b125baa1b62387e767b791f2f89" target="_top" xlink:title="Json::OurReader::readCStyle\lComment">
<polygon fill="none" stroke="black" points="571.5,-126 571.5,-156 717.5,-156 717.5,-126 571.5,-126"/>
<text text-anchor="start" x="579.5" y="-144" font-family="Helvetica,sans-Serif" font-size="10.00">Json::OurReader::readCStyle</text>
<text text-anchor="middle" x="644.5" y="-133" font-family="Helvetica,sans-Serif" font-size="10.00">Comment</text>
</a>
</g>
</g>
<!-- Node408&#45;&gt;Node409 -->
<g id="edge10" class="edge"><title>Node408&#45;&gt;Node409</title>
<path fill="none" stroke="midnightblue" d="M531.033,-150.446C541.052,-149.605 551.333,-148.741 561.413,-147.894"/>
<polygon fill="midnightblue" stroke="midnightblue" points="561.738,-151.38 571.41,-147.055 561.152,-144.404 561.738,-151.38"/>
</g>
<!-- Node410 -->
<g id="node9" class="node"><title>Node410</title>
<g id="a_node9"><a xlink:href="class_json_1_1_our_reader.html#ae3de80671f0f997053e1c1c8a47a45c5" target="_top" xlink:title="Json::OurReader::readCpp\lStyleComment">
<polygon fill="none" stroke="black" points="577.5,-77 577.5,-107 711.5,-107 711.5,-77 577.5,-77"/>
<text text-anchor="start" x="585.5" y="-95" font-family="Helvetica,sans-Serif" font-size="10.00">Json::OurReader::readCpp</text>
<text text-anchor="middle" x="644.5" y="-84" font-family="Helvetica,sans-Serif" font-size="10.00">StyleComment</text>
</a>
</g>
</g>
<!-- Node408&#45;&gt;Node410 -->
<g id="edge12" class="edge"><title>Node408&#45;&gt;Node410</title>
<path fill="none" stroke="midnightblue" d="M501.538,-147.483C511.453,-144.901 521.694,-141.755 531,-138 548.178,-131.069 550.101,-124.586 567,-117 572.019,-114.747 577.304,-112.595 582.654,-110.567"/>
<polygon fill="midnightblue" stroke="midnightblue" points="584.11,-113.762 592.312,-107.056 581.718,-107.184 584.11,-113.762"/>
</g>
<!-- Node411 -->
<g id="node10" class="node"><title>Node411</title>
<g id="a_node10"><a xlink:href="namespace_json.html#a4d6ab0f651348832e5cc49b577a854d2" target="_top" xlink:title="Json::containsNewLine">
<polygon fill="none" stroke="black" points="585,-38.5 585,-57.5 704,-57.5 704,-38.5 585,-38.5"/>
<text text-anchor="middle" x="644.5" y="-45.5" font-family="Helvetica,sans-Serif" font-size="10.00">Json::containsNewLine</text>
</a>
</g>
</g>
<!-- Node408&#45;&gt;Node411 -->
<g id="edge14" class="edge"><title>Node408&#45;&gt;Node411</title>
<path fill="none" stroke="midnightblue" d="M514.6,-147.495C520.488,-145.009 526.085,-141.896 531,-138 558.727,-116.023 539.323,-89.0394 567,-67 569.623,-64.9115 572.444,-63.0486 575.402,-61.3875"/>
<polygon fill="midnightblue" stroke="midnightblue" points="577.108,-64.4518 584.624,-56.985 574.092,-58.1347 577.108,-64.4518"/>
</g>
<!-- Node413 -->
<g id="node12" class="node"><title>Node413</title>
<g id="a_node12"><a xlink:href="class_json_1_1_our_reader.html#ad7318c37469a9106069a236fb4b10e1f" target="_top" xlink:title="Json::OurReader::addComment">
<polygon fill="none" stroke="black" points="567,-0.5 567,-19.5 722,-19.5 722,-0.5 567,-0.5"/>
<text text-anchor="middle" x="644.5" y="-7.5" font-family="Helvetica,sans-Serif" font-size="10.00">Json::OurReader::addComment</text>
</a>
</g>
</g>
<!-- Node408&#45;&gt;Node413 -->
<g id="edge16" class="edge"><title>Node408&#45;&gt;Node413</title>
<path fill="none" stroke="midnightblue" d="M517.133,-147.322C522.182,-144.845 526.903,-141.781 531,-138 568.49,-103.397 529.588,-63.6871 567,-29 568.671,-27.4503 570.449,-26.0218 572.313,-24.7053"/>
<polygon fill="midnightblue" stroke="midnightblue" points="574.115,-27.7055 580.964,-19.622 570.569,-21.6701 574.115,-27.7055"/>
</g>
<!-- Node409&#45;&gt;Node405 -->
<g id="edge11" class="edge"><title>Node409&#45;&gt;Node405</title>
<path fill="none" stroke="midnightblue" d="M690.411,-156.09C722.24,-166.785 764.49,-180.981 794.721,-191.138"/>
<polygon fill="midnightblue" stroke="midnightblue" points="793.887,-194.55 804.481,-194.417 796.116,-187.915 793.887,-194.55"/>
</g>
<!-- Node410&#45;&gt;Node405 -->
<g id="edge13" class="edge"><title>Node410&#45;&gt;Node405</title>
<path fill="none" stroke="midnightblue" d="M699.575,-107.035C707.284,-109.93 714.974,-113.25 722,-117 758.421,-136.441 795.02,-168.016 815.761,-187.306"/>
<polygon fill="midnightblue" stroke="midnightblue" points="813.472,-189.958 823.145,-194.281 818.279,-184.87 813.472,-189.958"/>
</g>
<!-- Node412 -->
<g id="node11" class="node"><title>Node412</title>
<g id="a_node11"><a xlink:href="namespace_json.html#a97f039a107b3f6cf1c3edee50e978f76" target="_top" xlink:title="Json::throwRuntimeError">
<polygon fill="none" stroke="black" points="771.5,-38.5 771.5,-57.5 896.5,-57.5 896.5,-38.5 771.5,-38.5"/>
<text text-anchor="middle" x="834" y="-45.5" font-family="Helvetica,sans-Serif" font-size="10.00">Json::throwRuntimeError</text>
</a>
</g>
</g>
<!-- Node411&#45;&gt;Node412 -->
<g id="edge15" class="edge"><title>Node411&#45;&gt;Node412</title>
<path fill="none" stroke="midnightblue" d="M704.055,-48C722.18,-48 742.358,-48 761.27,-48"/>
<polygon fill="midnightblue" stroke="midnightblue" points="761.324,-51.5001 771.324,-48 761.324,-44.5001 761.324,-51.5001"/>
</g>
<!-- Node414 -->
<g id="node13" class="node"><title>Node414</title>
<g id="a_node13"><a xlink:href="namespace_json.html#a2e6b8616041876128cbef54b8c75da62" target="_top" xlink:title="Json::normalizeEOL">
<polygon fill="none" stroke="black" points="781.5,-0.5 781.5,-19.5 886.5,-19.5 886.5,-0.5 781.5,-0.5"/>
<text text-anchor="middle" x="834" y="-7.5" font-family="Helvetica,sans-Serif" font-size="10.00">Json::normalizeEOL</text>
</a>
</g>
</g>
<!-- Node413&#45;&gt;Node414 -->
<g id="edge17" class="edge"><title>Node413&#45;&gt;Node414</title>
<path fill="none" stroke="midnightblue" d="M722.034,-10C738.398,-10 755.487,-10 771.212,-10"/>
<polygon fill="midnightblue" stroke="midnightblue" points="771.328,-13.5001 781.328,-10 771.328,-6.5001 771.328,-13.5001"/>
</g>
<!-- Node415 -->
<g id="node14" class="node"><title>Node415</title>
<g id="a_node14"><a xlink:href="namespace_json.html#adf0456e397a18cd7218a7b51dfc13c73" target="_top" xlink:title="Converts a unicode code&#45;point to UTF&#45;8. ">
<polygon fill="none" stroke="black" points="946,-0.5 946,-19.5 1069,-19.5 1069,-0.5 946,-0.5"/>
<text text-anchor="middle" x="1007.5" y="-7.5" font-family="Helvetica,sans-Serif" font-size="10.00">Json::codePointToUTF8</text>
</a>
</g>
</g>
<!-- Node414&#45;&gt;Node415 -->
<g id="edge18" class="edge"><title>Node414&#45;&gt;Node415</title>
<path fill="none" stroke="midnightblue" d="M886.921,-10C902.27,-10 919.341,-10 935.668,-10"/>
<polygon fill="midnightblue" stroke="midnightblue" points="935.715,-13.5001 945.715,-10 935.715,-6.5001 935.715,-13.5001"/>
</g>
</g>
</svg>
        <g id="navigator" transform="translate(0 0)" fill="#404254">
                <rect fill="#f2f5e9" fill-opacity="0.5" stroke="#606060" stroke-width=".5" x="0" y="0" width="60" height="60"/>
                <use id="zoomplus" xlink:href="#zoomPlus" x="17" y="9" onmousedown="handleZoom(evt,'in')"/>
                <use id="zoomminus" xlink:href="#zoomMin" x="42" y="9" onmousedown="handleZoom(evt,'out')"/>
                <use id="reset" xlink:href="#resetDef" x="30" y="36" onmousedown="handleReset()"/>
                <g id="arrowUp" xlink:href="#dirArrow" transform="translate(30 24)" onmousedown="handlePan(0,-1)">
                  <use xlink:href="#rim" fill="#404040">
                        <set attributeName="fill" to="#808080" begin="arrowUp.mouseover" end="arrowUp.mouseout"/>
                  </use>
                  <path fill="none" stroke="white" stroke-width="1.5" d="M0,-3.0v7 M-2.5,-0.5L0,-3.0L2.5,-0.5"/>
                </g>
                <g id="arrowRight" xlink:href="#dirArrow" transform="rotate(90) translate(36 -43)" onmousedown="handlePan(1,0)">
                  <use xlink:href="#rim" fill="#404040">
                        <set attributeName="fill" to="#808080" begin="arrowRight.mouseover" end="arrowRight.mouseout"/>
                  </use>
                  <path fill="none" stroke="white" stroke-width="1.5" d="M0,-3.0v7 M-2.5,-0.5L0,-3.0L2.5,-0.5"/>
                </g>
                <g id="arrowDown" xlink:href="#dirArrow" transform="rotate(180) translate(-30 -48)" onmousedown="handlePan(0,1)">
                  <use xlink:href="#rim" fill="#404040">
                        <set attributeName="fill" to="#808080" begin="arrowDown.mouseover" end="arrowDown.mouseout"/>
                  </use>
                  <path fill="none" stroke="white" stroke-width="1.5" d="M0,-3.0v7 M-2.5,-0.5L0,-3.0L2.5,-0.5"/>
                </g>
                <g id="arrowLeft" xlink:href="#dirArrow" transform="rotate(270) translate(-36 17)" onmousedown="handlePan(-1,0)">
                  <use xlink:href="#rim" fill="#404040">
                        <set attributeName="fill" to="#808080" begin="arrowLeft.mouseover" end="arrowLeft.mouseout"/>
                  </use>
                  <path fill="none" stroke="white" stroke-width="1.5" d="M0,-3.0v7 M-2.5,-0.5L0,-3.0L2.5,-0.5"/>
                </g>
        </g>
        <svg viewBox="0 0 15 15" width="100%" height="30px" preserveAspectRatio="xMaxYMin meet">
         <g id="arrow_out" transform="scale(0.3 0.3)">
          <a xlink:href="class_json_1_1_our_reader_a856dea44d92578c276856d7a65a4ebdc_cgraph_org.svg" target="_base">
           <rect id="button" ry="5" rx="5" y="6" x="6" height="38" width="38"
                fill="#f2f5e9" fill-opacity="0.5" stroke="#606060" stroke-width="1.0"/>
           <path id="arrow"
             d="M 11.500037,31.436501 C 11.940474,20.09759 22.043105,11.32322 32.158766,21.979434 L 37.068811,17.246167 C 37.068811,17.246167 37.088388,32 37.088388,32 L 22.160133,31.978069 C 22.160133,31.978069 26.997745,27.140456 26.997745,27.140456 C 18.528582,18.264221 13.291696,25.230495 11.500037,31.436501 z"
             style="fill:#404040;"/>
          </a>
         </g>
        </svg>
</svg>
