<?xml version="1.0" encoding="UTF-8" standalone="no"?>
<!DOCTYPE svg PUBLIC "-//W3C//DTD SVG 1.1//EN"
 "http://www.w3.org/Graphics/SVG/1.1/DTD/svg11.dtd">
<!-- Generated by graphviz version 2.38.0 (20140413.2041)
 -->
<!-- Title: Server::restartServer Pages: 1 -->
<svg width="250pt" height="66pt"
 viewBox="0.00 0.00 250.00 66.00" xmlns="http://www.w3.org/2000/svg" xmlns:xlink="http://www.w3.org/1999/xlink">
<g id="graph0" class="graph" transform="scale(1 1) rotate(0) translate(4 62)">
<title>Server::restartServer</title>
<!-- Node17 -->
<g id="node1" class="node"><title>Node17</title>
<polygon fill="#bfbfbf" stroke="black" points="0,-19.5 0,-38.5 107,-38.5 107,-19.5 0,-19.5"/>
<text text-anchor="middle" x="53.5" y="-26.5" font-family="Helvetica,sans-Serif" font-size="10.00">Server::restartServer</text>
</g>
<!-- Node18 -->
<g id="node2" class="node"><title>Node18</title>
<g id="a_node2"><a xlink:href="class_server.html#a31d9bbeeaa6ced18c7096acd0b52c3ae" target="_top" xlink:title="Server::stopServer">
<polygon fill="none" stroke="black" points="143.5,-38.5 143.5,-57.5 241.5,-57.5 241.5,-38.5 143.5,-38.5"/>
<text text-anchor="middle" x="192.5" y="-45.5" font-family="Helvetica,sans-Serif" font-size="10.00">Server::stopServer</text>
</a>
</g>
</g>
<!-- Node17&#45;&gt;Node18 -->
<g id="edge1" class="edge"><title>Node17&#45;&gt;Node18</title>
<path fill="none" stroke="midnightblue" d="M107.076,-36.2916C115.645,-37.48 124.566,-38.7172 133.262,-39.9232"/>
<polygon fill="midnightblue" stroke="midnightblue" points="132.945,-43.4127 143.331,-41.3197 133.907,-36.4791 132.945,-43.4127"/>
</g>
<!-- Node19 -->
<g id="node3" class="node"><title>Node19</title>
<g id="a_node3"><a xlink:href="class_server.html#af59bb3a96b3311ed2b87e2d6899d9f79" target="_top" xlink:title="Server::startServer">
<polygon fill="none" stroke="black" points="143,-0.5 143,-19.5 242,-19.5 242,-0.5 143,-0.5"/>
<text text-anchor="middle" x="192.5" y="-7.5" font-family="Helvetica,sans-Serif" font-size="10.00">Server::startServer</text>
</a>
</g>
</g>
<!-- Node17&#45;&gt;Node19 -->
<g id="edge2" class="edge"><title>Node17&#45;&gt;Node19</title>
<path fill="none" stroke="midnightblue" d="M107.076,-21.7084C115.537,-20.535 124.341,-19.3141 132.932,-18.1226"/>
<polygon fill="midnightblue" stroke="midnightblue" points="133.461,-21.5828 142.886,-16.7421 132.5,-14.6491 133.461,-21.5828"/>
</g>
</g>
</svg>
