<?xml version="1.0" encoding="UTF-8" standalone="no"?>
<!DOCTYPE svg PUBLIC "-//W3C//DTD SVG 1.1//EN"
 "http://www.w3.org/Graphics/SVG/1.1/DTD/svg11.dtd">
<!-- Generated by graphviz version 2.38.0 (20140413.2041)
 -->
<!-- Title: MinecraftServerService::Server::sendCommand Pages: 1 -->
<svg width="298pt" height="88pt"
 viewBox="0.00 0.00 298.00 88.00" xmlns="http://www.w3.org/2000/svg" xmlns:xlink="http://www.w3.org/1999/xlink">
<g id="graph0" class="graph" transform="scale(1 1) rotate(0) translate(4 84)">
<title>MinecraftServerService::Server::sendCommand</title>
<!-- Node22 -->
<g id="node1" class="node"><title>Node22</title>
<polygon fill="#bfbfbf" stroke="black" points="0,-24.5 0,-54.5 123,-54.5 123,-24.5 0,-24.5"/>
<text text-anchor="start" x="8" y="-42.5" font-family="Helvetica,sans-Serif" font-size="10.00">MinecraftServerService</text>
<text text-anchor="middle" x="61.5" y="-31.5" font-family="Helvetica,sans-Serif" font-size="10.00">::Server::sendCommand</text>
</g>
<!-- Node23 -->
<g id="node2" class="node"><title>Node23</title>
<g id="a_node2"><a xlink:href="class_minecraft_server_service_1_1_server.html#a97bc08ac2ddf2708c23eca63ac59eae5" target="_top" xlink:title="MinecraftServerService\l::Server::backupServer">
<polygon fill="none" stroke="black" points="165,-49.5 165,-79.5 284,-79.5 284,-49.5 165,-49.5"/>
<text text-anchor="start" x="173" y="-67.5" font-family="Helvetica,sans-Serif" font-size="10.00">MinecraftServerService</text>
<text text-anchor="middle" x="224.5" y="-56.5" font-family="Helvetica,sans-Serif" font-size="10.00">::Server::backupServer</text>
</a>
</g>
</g>
<!-- Node22&#45;&gt;Node23 -->
<g id="edge1" class="edge"><title>Node22&#45;&gt;Node23</title>
<path fill="none" stroke="midnightblue" d="M133.383,-50.5066C143.925,-52.1437 154.691,-53.8154 164.943,-55.4073"/>
<polygon fill="midnightblue" stroke="midnightblue" points="133.786,-47.0274 123.367,-48.9514 132.712,-53.9445 133.786,-47.0274"/>
</g>
<!-- Node24 -->
<g id="node3" class="node"><title>Node24</title>
<g id="a_node3"><a xlink:href="class_minecraft_server_service_1_1_server.html#a3e5b045d77c9e5618f392de3ad6a6248" target="_top" xlink:title="MinecraftServerService\l::Server::listOnlinePlayers">
<polygon fill="none" stroke="black" points="159,-0.5 159,-30.5 290,-30.5 290,-0.5 159,-0.5"/>
<text text-anchor="start" x="167" y="-18.5" font-family="Helvetica,sans-Serif" font-size="10.00">MinecraftServerService</text>
<text text-anchor="middle" x="224.5" y="-7.5" font-family="Helvetica,sans-Serif" font-size="10.00">::Server::listOnlinePlayers</text>
</a>
</g>
</g>
<!-- Node22&#45;&gt;Node24 -->
<g id="edge2" class="edge"><title>Node22&#45;&gt;Node24</title>
<path fill="none" stroke="midnightblue" d="M133.525,-28.9124C141.931,-27.6594 150.476,-26.3856 158.787,-25.1466"/>
<polygon fill="midnightblue" stroke="midnightblue" points="132.742,-25.4904 123.367,-30.4266 133.774,-32.4139 132.742,-25.4904"/>
</g>
</g>
</svg>
