<?xml version="1.0" encoding="UTF-8" standalone="no"?>
<!DOCTYPE svg PUBLIC "-//W3C//DTD SVG 1.1//EN"
 "http://www.w3.org/Graphics/SVG/1.1/DTD/svg11.dtd">
<!-- Generated by graphviz version 2.38.0 (20140413.2041)
 -->
<!-- Title: Json::OurReader::addComment Pages: 1 -->
<svg width="1234pt" height="176pt"
 viewBox="0.00 0.00 1234.00 176.06" xmlns="http://www.w3.org/2000/svg" xmlns:xlink="http://www.w3.org/1999/xlink">
<g id="graph0" class="graph" transform="scale(1 1) rotate(0) translate(4 172.056)">
<title>Json::OurReader::addComment</title>
<!-- Node7 -->
<g id="node1" class="node"><title>Node7</title>
<polygon fill="#bfbfbf" stroke="black" points="0,-66.056 0,-85.056 155,-85.056 155,-66.056 0,-66.056"/>
<text text-anchor="middle" x="77.5" y="-73.056" font-family="Helvetica,sans-Serif" font-size="10.00">Json::OurReader::addComment</text>
</g>
<!-- Node8 -->
<g id="node2" class="node"><title>Node8</title>
<g id="a_node2"><a xlink:href="class_json_1_1_our_reader.html#a90f6bb9e55b2bc3d6c1880809495c222" target="_top" xlink:title="Json::OurReader::readComment">
<polygon fill="none" stroke="black" points="191,-66.056 191,-85.056 349,-85.056 349,-66.056 191,-66.056"/>
<text text-anchor="middle" x="270" y="-73.056" font-family="Helvetica,sans-Serif" font-size="10.00">Json::OurReader::readComment</text>
</a>
</g>
</g>
<!-- Node7&#45;&gt;Node8 -->
<g id="edge1" class="edge"><title>Node7&#45;&gt;Node8</title>
<path fill="none" stroke="midnightblue" d="M165.182,-75.556C173.77,-75.556 182.451,-75.556 190.944,-75.556"/>
<polygon fill="midnightblue" stroke="midnightblue" points="165.16,-72.0561 155.16,-75.556 165.16,-79.0561 165.16,-72.0561"/>
</g>
<!-- Node9 -->
<g id="node3" class="node"><title>Node9</title>
<g id="a_node3"><a xlink:href="class_json_1_1_our_reader.html#a0d1e66da47fe2e85f5033c59326dfdc3" target="_top" xlink:title="Json::OurReader::readToken">
<polygon fill="none" stroke="black" points="385,-66.056 385,-85.056 528,-85.056 528,-66.056 385,-66.056"/>
<text text-anchor="middle" x="456.5" y="-73.056" font-family="Helvetica,sans-Serif" font-size="10.00">Json::OurReader::readToken</text>
</a>
</g>
</g>
<!-- Node8&#45;&gt;Node9 -->
<g id="edge2" class="edge"><title>Node8&#45;&gt;Node9</title>
<path fill="none" stroke="midnightblue" d="M359.245,-75.556C367.797,-75.556 376.395,-75.556 384.745,-75.556"/>
<polygon fill="midnightblue" stroke="midnightblue" points="359.245,-72.0561 349.245,-75.556 359.245,-79.0561 359.245,-72.0561"/>
</g>
<!-- Node10 -->
<g id="node4" class="node"><title>Node10</title>
<g id="a_node4"><a xlink:href="class_json_1_1_our_reader.html#a856dea44d92578c276856d7a65a4ebdc" target="_top" xlink:title="Json::OurReader::skipComment\lTokens">
<polygon fill="none" stroke="black" points="564,-85.556 564,-115.556 722,-115.556 722,-85.556 564,-85.556"/>
<text text-anchor="start" x="572" y="-103.556" font-family="Helvetica,sans-Serif" font-size="10.00">Json::OurReader::skipComment</text>
<text text-anchor="middle" x="643" y="-92.556" font-family="Helvetica,sans-Serif" font-size="10.00">Tokens</text>
</a>
</g>
</g>
<!-- Node9&#45;&gt;Node10 -->
<g id="edge3" class="edge"><title>Node9&#45;&gt;Node10</title>
<path fill="none" stroke="midnightblue" d="M537.847,-86.4432C546.497,-87.6152 555.288,-88.8064 563.91,-89.9747"/>
<polygon fill="midnightblue" stroke="midnightblue" points="538.157,-82.9532 527.778,-85.0787 537.217,-89.8899 538.157,-82.9532"/>
</g>
<!-- Node14 -->
<g id="node8" class="node"><title>Node14</title>
<g id="a_node8"><a xlink:href="class_json_1_1_our_reader.html#aea198f8101dba55099f4d8121a993530" target="_top" xlink:title="Json::OurReader::readObject">
<polygon fill="none" stroke="black" points="934,-86.056 934,-105.056 1078,-105.056 1078,-86.056 934,-86.056"/>
<text text-anchor="middle" x="1006" y="-93.056" font-family="Helvetica,sans-Serif" font-size="10.00">Json::OurReader::readObject</text>
</a>
</g>
</g>
<!-- Node9&#45;&gt;Node14 -->
<g id="edge12" class="edge"><title>Node9&#45;&gt;Node14</title>
<path fill="none" stroke="midnightblue" d="M482.284,-90.1663C503.272,-101.739 534.56,-117.149 564,-124.556 708.05,-160.801 751.939,-163.582 898,-136.556 930.276,-130.584 965.396,-115.278 986.286,-105.151"/>
<polygon fill="midnightblue" stroke="midnightblue" points="483.839,-87.0249 473.409,-85.1617 480.401,-93.1223 483.839,-87.0249"/>
</g>
<!-- Node15 -->
<g id="node9" class="node"><title>Node15</title>
<g id="a_node9"><a xlink:href="class_json_1_1_our_reader.html#a0b9f58faf4212c6ecb5d8e2a1ac10257" target="_top" xlink:title="Json::OurReader::readArray">
<polygon fill="none" stroke="black" points="936.5,-42.056 936.5,-61.056 1075.5,-61.056 1075.5,-42.056 936.5,-42.056"/>
<text text-anchor="middle" x="1006" y="-49.056" font-family="Helvetica,sans-Serif" font-size="10.00">Json::OurReader::readArray</text>
</a>
</g>
</g>
<!-- Node9&#45;&gt;Node15 -->
<g id="edge13" class="edge"><title>Node9&#45;&gt;Node15</title>
<path fill="none" stroke="midnightblue" d="M482.255,-60.827C503.226,-49.1836 534.504,-33.7362 564,-26.556 708.285,8.56752 751.255,5.19804 898,-17.556 927.855,-22.1853 960.783,-33.6729 982.118,-42.0168"/>
<polygon fill="midnightblue" stroke="midnightblue" points="480.353,-57.8819 473.388,-65.8656 483.812,-63.9678 480.353,-57.8819"/>
</g>
<!-- Node16 -->
<g id="node10" class="node"><title>Node16</title>
<g id="a_node10"><a xlink:href="class_json_1_1_our_reader.html#a035651f0700a76a815e5f904c63ebb1c" target="_top" xlink:title="Json::OurReader::recover\lFromError">
<polygon fill="none" stroke="black" points="578.5,-36.556 578.5,-66.556 707.5,-66.556 707.5,-36.556 578.5,-36.556"/>
<text text-anchor="start" x="586.5" y="-54.556" font-family="Helvetica,sans-Serif" font-size="10.00">Json::OurReader::recover</text>
<text text-anchor="middle" x="643" y="-43.556" font-family="Helvetica,sans-Serif" font-size="10.00">FromError</text>
</a>
</g>
</g>
<!-- Node9&#45;&gt;Node16 -->
<g id="edge14" class="edge"><title>Node9&#45;&gt;Node16</title>
<path fill="none" stroke="midnightblue" d="M538.249,-65.052C551.708,-63.3013 565.498,-61.5074 578.451,-59.8226"/>
<polygon fill="midnightblue" stroke="midnightblue" points="537.506,-61.6191 528.041,-66.3799 538.409,-68.5606 537.506,-61.6191"/>
</g>
<!-- Node11 -->
<g id="node5" class="node"><title>Node11</title>
<g id="a_node5"><a xlink:href="class_json_1_1_our_reader.html#aba4f8749aab7f02ec17f107e392caf80" target="_top" xlink:title="Json::OurReader::parse">
<polygon fill="none" stroke="black" points="945.5,-143.056 945.5,-162.056 1066.5,-162.056 1066.5,-143.056 945.5,-143.056"/>
<text text-anchor="middle" x="1006" y="-150.056" font-family="Helvetica,sans-Serif" font-size="10.00">Json::OurReader::parse</text>
</a>
</g>
</g>
<!-- Node10&#45;&gt;Node11 -->
<g id="edge4" class="edge"><title>Node10&#45;&gt;Node11</title>
<path fill="none" stroke="midnightblue" d="M692.963,-118.87C712.868,-125.561 736.261,-132.481 758,-136.556 821.249,-148.411 895.02,-151.871 945.36,-152.702"/>
<polygon fill="midnightblue" stroke="midnightblue" points="694.09,-115.557 683.495,-115.618 691.815,-122.177 694.09,-115.557"/>
</g>
<!-- Node13 -->
<g id="node7" class="node"><title>Node13</title>
<g id="a_node7"><a xlink:href="class_json_1_1_our_reader.html#a1765d9670d191c89a57a22ea5591d35f" target="_top" xlink:title="Json::OurReader::readValue">
<polygon fill="none" stroke="black" points="758,-86.056 758,-105.056 898,-105.056 898,-86.056 758,-86.056"/>
<text text-anchor="middle" x="828" y="-93.056" font-family="Helvetica,sans-Serif" font-size="10.00">Json::OurReader::readValue</text>
</a>
</g>
</g>
<!-- Node10&#45;&gt;Node13 -->
<g id="edge6" class="edge"><title>Node10&#45;&gt;Node13</title>
<path fill="none" stroke="midnightblue" d="M732.194,-98.1463C740.789,-97.9115 749.424,-97.6756 757.793,-97.4469"/>
<polygon fill="midnightblue" stroke="midnightblue" points="732.04,-94.6491 722.139,-98.421 732.231,-101.647 732.04,-94.6491"/>
</g>
<!-- Node12 -->
<g id="node6" class="node"><title>Node12</title>
<g id="a_node6"><a xlink:href="class_json_1_1_our_char_reader.html#a52a1fb5fee88d9b63dd462f63b1c9570" target="_top" xlink:title="Json::OurCharReader\l::parse">
<polygon fill="none" stroke="black" points="1114,-137.556 1114,-167.556 1226,-167.556 1226,-137.556 1114,-137.556"/>
<text text-anchor="start" x="1122" y="-155.556" font-family="Helvetica,sans-Serif" font-size="10.00">Json::OurCharReader</text>
<text text-anchor="middle" x="1170" y="-144.556" font-family="Helvetica,sans-Serif" font-size="10.00">::parse</text>
</a>
</g>
</g>
<!-- Node11&#45;&gt;Node12 -->
<g id="edge5" class="edge"><title>Node11&#45;&gt;Node12</title>
<path fill="none" stroke="midnightblue" d="M1077.11,-152.556C1089.43,-152.556 1102.1,-152.556 1113.94,-152.556"/>
<polygon fill="midnightblue" stroke="midnightblue" points="1076.86,-149.056 1066.86,-152.556 1076.86,-156.056 1076.86,-149.056"/>
</g>
<!-- Node13&#45;&gt;Node11 -->
<g id="edge7" class="edge"><title>Node13&#45;&gt;Node11</title>
<path fill="none" stroke="midnightblue" d="M868.077,-108.212C900.521,-118.719 945.968,-133.438 975.445,-142.984"/>
<polygon fill="midnightblue" stroke="midnightblue" points="869.05,-104.848 858.458,-105.096 866.894,-111.507 869.05,-104.848"/>
</g>
<!-- Node13&#45;&gt;Node14 -->
<g id="edge8" class="edge"><title>Node13&#45;&gt;Node14</title>
<path fill="none" stroke="midnightblue" d="M908.06,-88.837C916.645,-88.7772 925.345,-88.8038 933.828,-88.9169"/>
<polygon fill="midnightblue" stroke="midnightblue" points="908.016,-85.3372 898.055,-88.947 908.093,-92.3368 908.016,-85.3372"/>
</g>
<!-- Node13&#45;&gt;Node15 -->
<g id="edge10" class="edge"><title>Node13&#45;&gt;Node15</title>
<path fill="none" stroke="midnightblue" d="M858.768,-82.9024C881.106,-75.9055 912.525,-67.6108 940.518,-61.1454"/>
<polygon fill="midnightblue" stroke="midnightblue" points="857.619,-79.5958 849.189,-86.0147 859.782,-86.2533 857.619,-79.5958"/>
</g>
<!-- Node14&#45;&gt;Node13 -->
<g id="edge9" class="edge"><title>Node14&#45;&gt;Node13</title>
<path fill="none" stroke="midnightblue" d="M923.79,-102.288C915.188,-102.334 906.499,-102.292 898.055,-102.165"/>
<polygon fill="midnightblue" stroke="midnightblue" points="923.861,-105.788 933.828,-102.195 923.796,-98.788 923.861,-105.788"/>
</g>
<!-- Node15&#45;&gt;Node13 -->
<g id="edge11" class="edge"><title>Node15&#45;&gt;Node13</title>
<path fill="none" stroke="midnightblue" d="M975.054,-64.2652C952.742,-71.2459 921.442,-79.5076 893.537,-85.9539"/>
<polygon fill="midnightblue" stroke="midnightblue" points="976.196,-67.5743 984.628,-61.1591 974.036,-60.9159 976.196,-67.5743"/>
</g>
<!-- Node16&#45;&gt;Node14 -->
<g id="edge15" class="edge"><title>Node16&#45;&gt;Node14</title>
<path fill="none" stroke="midnightblue" d="M713.838,-70.932C716.653,-72.3712 719.387,-73.9105 722,-75.556 741.962,-88.1249 736.391,-105.095 758,-114.556 833.053,-147.417 933.181,-120.85 979.505,-105.104"/>
<polygon fill="midnightblue" stroke="midnightblue" points="715.167,-67.6903 704.621,-66.6686 712.228,-74.0436 715.167,-67.6903"/>
</g>
<!-- Node16&#45;&gt;Node15 -->
<g id="edge16" class="edge"><title>Node16&#45;&gt;Node15</title>
<path fill="none" stroke="midnightblue" d="M710.943,-34.3552C726.3,-31.1142 742.632,-28.2213 758,-26.556 819.86,-19.8527 836.187,-19.4308 898,-26.556 923.395,-29.4832 951.521,-36.1957 972.561,-41.9287"/>
<polygon fill="midnightblue" stroke="midnightblue" points="710.033,-30.9712 701.011,-36.5258 711.528,-37.8097 710.033,-30.9712"/>
</g>
<!-- Node17 -->
<g id="node11" class="node"><title>Node17</title>
<g id="a_node11"><a xlink:href="class_json_1_1_our_reader.html#ae68a7047acd692be8077e259d524c6d9" target="_top" xlink:title="Json::OurReader::addError\lAndRecover">
<polygon fill="none" stroke="black" points="761,-36.556 761,-66.556 895,-66.556 895,-36.556 761,-36.556"/>
<text text-anchor="start" x="769" y="-54.556" font-family="Helvetica,sans-Serif" font-size="10.00">Json::OurReader::addError</text>
<text text-anchor="middle" x="828" y="-43.556" font-family="Helvetica,sans-Serif" font-size="10.00">AndRecover</text>
</a>
</g>
</g>
<!-- Node16&#45;&gt;Node17 -->
<g id="edge17" class="edge"><title>Node16&#45;&gt;Node17</title>
<path fill="none" stroke="midnightblue" d="M717.986,-51.556C732.219,-51.556 747.038,-51.556 760.997,-51.556"/>
<polygon fill="midnightblue" stroke="midnightblue" points="717.748,-48.0561 707.748,-51.556 717.748,-55.0561 717.748,-48.0561"/>
</g>
<!-- Node17&#45;&gt;Node14 -->
<g id="edge18" class="edge"><title>Node17&#45;&gt;Node14</title>
<path fill="none" stroke="midnightblue" d="M898.896,-69.03C922.105,-74.8323 947.07,-81.0736 966.95,-86.0436"/>
<polygon fill="midnightblue" stroke="midnightblue" points="899.627,-65.6052 889.077,-66.5752 897.929,-72.3962 899.627,-65.6052"/>
</g>
<!-- Node17&#45;&gt;Node15 -->
<g id="edge19" class="edge"><title>Node17&#45;&gt;Node15</title>
<path fill="none" stroke="midnightblue" d="M905.248,-51.556C915.554,-51.556 926.078,-51.556 936.243,-51.556"/>
<polygon fill="midnightblue" stroke="midnightblue" points="905.037,-48.0561 895.037,-51.556 905.037,-55.0561 905.037,-48.0561"/>
</g>
</g>
</svg>
