<?xml version="1.0" encoding="UTF-8" standalone="no"?>
<!DOCTYPE svg PUBLIC "-//W3C//DTD SVG 1.1//EN"
 "http://www.w3.org/Graphics/SVG/1.1/DTD/svg11.dtd">
<!-- Generated by graphviz version 2.38.0 (20140413.2041)
 -->
<!-- Title: Json::OurReader::readValue Pages: 1 -->
<svg width="1622pt" height="579pt"
 viewBox="0.00 0.00 1622.00 579.00" xmlns="http://www.w3.org/2000/svg" xmlns:xlink="http://www.w3.org/1999/xlink">
<g id="graph0" class="graph" transform="scale(1 1) rotate(0) translate(4 575)">
<title>Json::OurReader::readValue</title>
<!-- Node349 -->
<g id="node1" class="node"><title>Node349</title>
<polygon fill="#bfbfbf" stroke="black" points="0,-371.5 0,-390.5 140,-390.5 140,-371.5 0,-371.5"/>
<text text-anchor="middle" x="70" y="-378.5" font-family="Helvetica,sans-Serif" font-size="10.00">Json::OurReader::readValue</text>
</g>
<!-- Node350 -->
<g id="node2" class="node"><title>Node350</title>
<g id="a_node2"><a xlink:href="namespace_json.html#a97f039a107b3f6cf1c3edee50e978f76" target="_top" xlink:title="Json::throwRuntimeError">
<polygon fill="none" stroke="black" points="1316.5,-371.5 1316.5,-390.5 1441.5,-390.5 1441.5,-371.5 1316.5,-371.5"/>
<text text-anchor="middle" x="1379" y="-378.5" font-family="Helvetica,sans-Serif" font-size="10.00">Json::throwRuntimeError</text>
</a>
</g>
</g>
<!-- Node349&#45;&gt;Node350 -->
<g id="edge1" class="edge"><title>Node349&#45;&gt;Node350</title>
<path fill="none" stroke="midnightblue" d="M76.425,-390.7C89.9694,-413.979 127.682,-473.277 176,-503 283.054,-568.855 324.812,-571 450.5,-571 450.5,-571 450.5,-571 998,-571 1152.41,-571 1308.4,-443.942 1360.12,-397.631"/>
<polygon fill="midnightblue" stroke="midnightblue" points="1362.72,-399.997 1367.77,-390.683 1358.02,-394.815 1362.72,-399.997"/>
</g>
<!-- Node351 -->
<g id="node3" class="node"><title>Node351</title>
<g id="a_node3"><a xlink:href="class_json_1_1_our_reader.html#a856dea44d92578c276856d7a65a4ebdc" target="_top" xlink:title="Json::OurReader::skipComment\lTokens">
<polygon fill="none" stroke="black" points="176,-6 176,-36 334,-36 334,-6 176,-6"/>
<text text-anchor="start" x="184" y="-24" font-family="Helvetica,sans-Serif" font-size="10.00">Json::OurReader::skipComment</text>
<text text-anchor="middle" x="255" y="-13" font-family="Helvetica,sans-Serif" font-size="10.00">Tokens</text>
</a>
</g>
</g>
<!-- Node349&#45;&gt;Node351 -->
<g id="edge2" class="edge"><title>Node349&#45;&gt;Node351</title>
<path fill="none" stroke="midnightblue" d="M71.1818,-371.414C72.5164,-328.157 83.628,-149.001 176,-51 179.517,-47.2684 183.55,-43.9954 187.889,-41.1254"/>
<polygon fill="midnightblue" stroke="midnightblue" points="189.668,-44.1395 196.555,-36.0885 186.151,-38.0874 189.668,-44.1395"/>
</g>
<!-- Node366 -->
<g id="node18" class="node"><title>Node366</title>
<g id="a_node18"><a xlink:href="class_json_1_1_our_reader.html#a2acd5b1d53e7d7e17c21ff8e96edc09d" target="_top" xlink:title="Json::OurReader::current\lValue">
<polygon fill="none" stroke="black" points="572.5,-442 572.5,-472 699.5,-472 699.5,-442 572.5,-442"/>
<text text-anchor="start" x="580.5" y="-460" font-family="Helvetica,sans-Serif" font-size="10.00">Json::OurReader::current</text>
<text text-anchor="middle" x="636" y="-449" font-family="Helvetica,sans-Serif" font-size="10.00">Value</text>
</a>
</g>
</g>
<!-- Node349&#45;&gt;Node366 -->
<g id="edge23" class="edge"><title>Node349&#45;&gt;Node366</title>
<path fill="none" stroke="midnightblue" d="M79.8127,-390.657C96.688,-408.543 135.501,-446.835 176,-467 255.417,-506.542 281.909,-503.481 370,-514 441.933,-522.589 462.894,-532.259 533,-514 559.897,-506.994 587.221,-491.16 606.811,-477.954"/>
<polygon fill="midnightblue" stroke="midnightblue" points="609.013,-480.686 615.237,-472.112 605.025,-474.933 609.013,-480.686"/>
</g>
<!-- Node367 -->
<g id="node19" class="node"><title>Node367</title>
<g id="a_node19"><a xlink:href="class_json_1_1_our_reader.html#aea198f8101dba55099f4d8121a993530" target="_top" xlink:title="Json::OurReader::readObject">
<polygon fill="none" stroke="black" points="183,-371.5 183,-390.5 327,-390.5 327,-371.5 183,-371.5"/>
<text text-anchor="middle" x="255" y="-378.5" font-family="Helvetica,sans-Serif" font-size="10.00">Json::OurReader::readObject</text>
</a>
</g>
</g>
<!-- Node349&#45;&gt;Node367 -->
<g id="edge24" class="edge"><title>Node349&#45;&gt;Node367</title>
<path fill="none" stroke="midnightblue" d="M140.184,-374.432C150.769,-374.256 161.779,-374.208 172.597,-374.287"/>
<polygon fill="midnightblue" stroke="midnightblue" points="172.853,-377.79 182.891,-374.401 172.931,-370.79 172.853,-377.79"/>
</g>
<!-- Node368 -->
<g id="node20" class="node"><title>Node368</title>
<g id="a_node20"><a xlink:href="class_json_1_1_our_reader.html#a34e31d8b8399b7ad493359702b6de6c9" target="_top" xlink:title="Json::OurReader::decodeString">
<polygon fill="none" stroke="black" points="374.5,-447.5 374.5,-466.5 528.5,-466.5 528.5,-447.5 374.5,-447.5"/>
<text text-anchor="middle" x="451.5" y="-454.5" font-family="Helvetica,sans-Serif" font-size="10.00">Json::OurReader::decodeString</text>
</a>
</g>
</g>
<!-- Node349&#45;&gt;Node368 -->
<g id="edge46" class="edge"><title>Node349&#45;&gt;Node368</title>
<path fill="none" stroke="midnightblue" d="M118.68,-390.548C188.363,-404.503 317.858,-430.437 392.813,-445.447"/>
<polygon fill="midnightblue" stroke="midnightblue" points="392.523,-448.959 403.015,-447.491 393.897,-442.095 392.523,-448.959"/>
</g>
<!-- Node370 -->
<g id="node22" class="node"><title>Node370</title>
<g id="a_node22"><a xlink:href="class_json_1_1_our_reader.html#a272d271290933a89abfd5096dd69c9e9" target="_top" xlink:title="Json::OurReader::decodeNumber">
<polygon fill="none" stroke="black" points="370,-485.5 370,-504.5 533,-504.5 533,-485.5 370,-485.5"/>
<text text-anchor="middle" x="451.5" y="-492.5" font-family="Helvetica,sans-Serif" font-size="10.00">Json::OurReader::decodeNumber</text>
</a>
</g>
</g>
<!-- Node349&#45;&gt;Node370 -->
<g id="edge45" class="edge"><title>Node349&#45;&gt;Node370</title>
<path fill="none" stroke="midnightblue" d="M87.5868,-390.522C107.866,-401.815 143.508,-420.547 176,-432 244.299,-456.074 325.449,-473.379 381.719,-483.69"/>
<polygon fill="midnightblue" stroke="midnightblue" points="381.115,-487.137 391.578,-485.471 382.36,-480.249 381.115,-487.137"/>
</g>
<!-- Node372 -->
<g id="node24" class="node"><title>Node372</title>
<g id="a_node24"><a xlink:href="class_json_1_1_our_reader.html#a5a48b71c1c16fa671814c8338e452bc0" target="_top" xlink:title="Json::OurReader::addError">
<polygon fill="none" stroke="black" points="569,-55.5 569,-74.5 703,-74.5 703,-55.5 569,-55.5"/>
<text text-anchor="middle" x="636" y="-62.5" font-family="Helvetica,sans-Serif" font-size="10.00">Json::OurReader::addError</text>
</a>
</g>
</g>
<!-- Node349&#45;&gt;Node372 -->
<g id="edge47" class="edge"><title>Node349&#45;&gt;Node372</title>
<path fill="none" stroke="midnightblue" d="M74.6503,-371.456C85.9255,-342.981 122.683,-257.299 176,-204 246.887,-133.136 274.628,-119.835 370,-89 431.424,-69.1406 504.753,-63.8111 558.686,-63.0663"/>
<polygon fill="midnightblue" stroke="midnightblue" points="558.895,-66.5647 568.864,-62.9768 558.834,-59.565 558.895,-66.5647"/>
</g>
<!-- Node373 -->
<g id="node25" class="node"><title>Node373</title>
<g id="a_node25"><a xlink:href="class_json_1_1_our_reader.html#a0b9f58faf4212c6ecb5d8e2a1ac10257" target="_top" xlink:title="Json::OurReader::readArray">
<polygon fill="none" stroke="black" points="185.5,-213.5 185.5,-232.5 324.5,-232.5 324.5,-213.5 185.5,-213.5"/>
<text text-anchor="middle" x="255" y="-220.5" font-family="Helvetica,sans-Serif" font-size="10.00">Json::OurReader::readArray</text>
</a>
</g>
</g>
<!-- Node349&#45;&gt;Node373 -->
<g id="edge38" class="edge"><title>Node349&#45;&gt;Node373</title>
<path fill="none" stroke="midnightblue" d="M78.8633,-371.258C104.849,-344.441 188.666,-271.484 230.208,-238.82"/>
<polygon fill="midnightblue" stroke="midnightblue" points="232.39,-241.557 238.16,-232.671 228.108,-236.02 232.39,-241.557"/>
</g>
<!-- Node352 -->
<g id="node4" class="node"><title>Node352</title>
<g id="a_node4"><a xlink:href="class_json_1_1_our_reader.html#a0d1e66da47fe2e85f5033c59326dfdc3" target="_top" xlink:title="Json::OurReader::readToken">
<polygon fill="none" stroke="black" points="739,-131.5 739,-150.5 882,-150.5 882,-131.5 739,-131.5"/>
<text text-anchor="middle" x="810.5" y="-138.5" font-family="Helvetica,sans-Serif" font-size="10.00">Json::OurReader::readToken</text>
</a>
</g>
</g>
<!-- Node351&#45;&gt;Node352 -->
<g id="edge3" class="edge"><title>Node351&#45;&gt;Node352</title>
<path fill="none" stroke="midnightblue" d="M334.138,-10.2653C426.151,-0.970273 581.794,4.12433 703,-46 743.022,-62.5508 778.042,-100.79 796.232,-123.384"/>
<polygon fill="midnightblue" stroke="midnightblue" points="793.638,-125.75 802.558,-131.467 799.151,-121.435 793.638,-125.75"/>
</g>
<!-- Node353 -->
<g id="node5" class="node"><title>Node353</title>
<g id="a_node5"><a xlink:href="class_json_1_1_our_reader.html#a6fbc6d58a4505e5ccadf330b57b17ca5" target="_top" xlink:title="Json::OurReader::skipSpaces">
<polygon fill="none" stroke="black" points="923,-0.5 923,-19.5 1071,-19.5 1071,-0.5 923,-0.5"/>
<text text-anchor="middle" x="997" y="-7.5" font-family="Helvetica,sans-Serif" font-size="10.00">Json::OurReader::skipSpaces</text>
</a>
</g>
</g>
<!-- Node352&#45;&gt;Node353 -->
<g id="edge4" class="edge"><title>Node352&#45;&gt;Node353</title>
<path fill="none" stroke="midnightblue" d="M858.268,-131.373C866.917,-127.941 875.316,-123.293 882,-117 912.766,-88.0324 885.973,-56.5674 918,-29 919.802,-27.4486 921.711,-26.0196 923.704,-24.7036"/>
<polygon fill="midnightblue" stroke="midnightblue" points="925.843,-27.5209 932.91,-19.6278 922.463,-21.3908 925.843,-27.5209"/>
</g>
<!-- Node354 -->
<g id="node6" class="node"><title>Node354</title>
<g id="a_node6"><a xlink:href="class_json_1_1_our_reader.html#a298285d035fdbc554caae09d9f0a5859" target="_top" xlink:title="Json::OurReader::getNextChar">
<polygon fill="none" stroke="black" points="1303,-139.5 1303,-158.5 1455,-158.5 1455,-139.5 1303,-139.5"/>
<text text-anchor="middle" x="1379" y="-146.5" font-family="Helvetica,sans-Serif" font-size="10.00">Json::OurReader::getNextChar</text>
</a>
</g>
</g>
<!-- Node352&#45;&gt;Node354 -->
<g id="edge5" class="edge"><title>Node352&#45;&gt;Node354</title>
<path fill="none" stroke="midnightblue" d="M882.102,-141.997C986.222,-143.467 1180.68,-146.213 1292.66,-147.795"/>
<polygon fill="midnightblue" stroke="midnightblue" points="1292.85,-151.298 1302.9,-147.939 1292.95,-144.298 1292.85,-151.298"/>
</g>
<!-- Node355 -->
<g id="node7" class="node"><title>Node355</title>
<g id="a_node7"><a xlink:href="class_json_1_1_our_reader.html#a5d39b12671499ec5975f3bbc84b7d438" target="_top" xlink:title="Json::OurReader::readString">
<polygon fill="none" stroke="black" points="1119,-82.5 1119,-101.5 1260,-101.5 1260,-82.5 1119,-82.5"/>
<text text-anchor="middle" x="1189.5" y="-89.5" font-family="Helvetica,sans-Serif" font-size="10.00">Json::OurReader::readString</text>
</a>
</g>
</g>
<!-- Node352&#45;&gt;Node355 -->
<g id="edge6" class="edge"><title>Node352&#45;&gt;Node355</title>
<path fill="none" stroke="midnightblue" d="M860.968,-131.473C878.891,-128.208 899.319,-124.699 918,-122 981.922,-112.764 1054.7,-104.838 1108.66,-99.4562"/>
<polygon fill="midnightblue" stroke="midnightblue" points="1109.24,-102.916 1118.85,-98.4477 1108.55,-95.9497 1109.24,-102.916"/>
</g>
<!-- Node356 -->
<g id="node8" class="node"><title>Node356</title>
<g id="a_node8"><a xlink:href="class_json_1_1_our_reader.html#ac78592defdc333faf56c6d0908758da3" target="_top" xlink:title="Json::OurReader::readString\lSingleQuote">
<polygon fill="none" stroke="black" points="926.5,-39 926.5,-69 1067.5,-69 1067.5,-39 926.5,-39"/>
<text text-anchor="start" x="934.5" y="-57" font-family="Helvetica,sans-Serif" font-size="10.00">Json::OurReader::readString</text>
<text text-anchor="middle" x="997" y="-46" font-family="Helvetica,sans-Serif" font-size="10.00">SingleQuote</text>
</a>
</g>
</g>
<!-- Node352&#45;&gt;Node356 -->
<g id="edge8" class="edge"><title>Node352&#45;&gt;Node356</title>
<path fill="none" stroke="midnightblue" d="M848.994,-131.418C860.045,-127.766 871.879,-122.999 882,-117 900.672,-105.933 899.548,-95.4292 918,-84 924.591,-79.9174 931.829,-76.2321 939.157,-72.956"/>
<polygon fill="midnightblue" stroke="midnightblue" points="940.599,-76.1463 948.445,-69.0261 937.872,-69.6996 940.599,-76.1463"/>
</g>
<!-- Node357 -->
<g id="node9" class="node"><title>Node357</title>
<g id="a_node9"><a xlink:href="class_json_1_1_our_reader.html#a90f6bb9e55b2bc3d6c1880809495c222" target="_top" xlink:title="Json::OurReader::readComment">
<polygon fill="none" stroke="black" points="918,-183.5 918,-202.5 1076,-202.5 1076,-183.5 918,-183.5"/>
<text text-anchor="middle" x="997" y="-190.5" font-family="Helvetica,sans-Serif" font-size="10.00">Json::OurReader::readComment</text>
</a>
</g>
</g>
<!-- Node352&#45;&gt;Node357 -->
<g id="edge10" class="edge"><title>Node352&#45;&gt;Node357</title>
<path fill="none" stroke="midnightblue" d="M845.34,-150.538C875.415,-159.014 919.559,-171.456 952.297,-180.683"/>
<polygon fill="midnightblue" stroke="midnightblue" points="951.488,-184.091 962.062,-183.435 953.387,-177.353 951.488,-184.091"/>
</g>
<!-- Node364 -->
<g id="node16" class="node"><title>Node364</title>
<g id="a_node16"><a xlink:href="class_json_1_1_our_reader.html#aefcb9a78cc45870ccac2db2a66c8ec50" target="_top" xlink:title="Json::OurReader::readNumber">
<polygon fill="none" stroke="black" points="922,-259.5 922,-278.5 1072,-278.5 1072,-259.5 922,-259.5"/>
<text text-anchor="middle" x="997" y="-266.5" font-family="Helvetica,sans-Serif" font-size="10.00">Json::OurReader::readNumber</text>
</a>
</g>
</g>
<!-- Node352&#45;&gt;Node364 -->
<g id="edge21" class="edge"><title>Node352&#45;&gt;Node364</title>
<path fill="none" stroke="midnightblue" d="M817.959,-150.605C832.884,-172.01 872.027,-223.802 918,-250 921.92,-252.234 926.097,-254.207 930.402,-255.949"/>
<polygon fill="midnightblue" stroke="midnightblue" points="929.387,-259.304 939.981,-259.406 931.763,-252.719 929.387,-259.304"/>
</g>
<!-- Node365 -->
<g id="node17" class="node"><title>Node365</title>
<g id="a_node17"><a xlink:href="class_json_1_1_our_reader.html#a4a03f1b266def9b47c4fef35386557fb" target="_top" xlink:title="Json::OurReader::match">
<polygon fill="none" stroke="black" points="935,-221.5 935,-240.5 1059,-240.5 1059,-221.5 935,-221.5"/>
<text text-anchor="middle" x="997" y="-228.5" font-family="Helvetica,sans-Serif" font-size="10.00">Json::OurReader::match</text>
</a>
</g>
</g>
<!-- Node352&#45;&gt;Node365 -->
<g id="edge22" class="edge"><title>Node352&#45;&gt;Node365</title>
<path fill="none" stroke="midnightblue" d="M822.845,-150.543C841.501,-165.759 880.354,-195.482 918,-212 923.696,-214.499 929.776,-216.704 935.933,-218.642"/>
<polygon fill="midnightblue" stroke="midnightblue" points="935.048,-222.03 945.628,-221.471 937.009,-215.31 935.048,-222.03"/>
</g>
<!-- Node355&#45;&gt;Node354 -->
<g id="edge7" class="edge"><title>Node355&#45;&gt;Node354</title>
<path fill="none" stroke="midnightblue" d="M1221.88,-101.541C1253.39,-111.117 1302.08,-125.921 1336.7,-136.446"/>
<polygon fill="midnightblue" stroke="midnightblue" points="1335.93,-139.868 1346.51,-139.428 1337.96,-133.171 1335.93,-139.868"/>
</g>
<!-- Node356&#45;&gt;Node354 -->
<g id="edge9" class="edge"><title>Node356&#45;&gt;Node354</title>
<path fill="none" stroke="midnightblue" d="M1067.71,-49.0704C1123.23,-47.4526 1202.12,-50.3831 1267,-73 1303.83,-85.8387 1339.84,-114.267 1360.43,-132.483"/>
<polygon fill="midnightblue" stroke="midnightblue" points="1358.26,-135.243 1368.03,-139.363 1362.96,-130.055 1358.26,-135.243"/>
</g>
<!-- Node357&#45;&gt;Node354 -->
<g id="edge11" class="edge"><title>Node357&#45;&gt;Node354</title>
<path fill="none" stroke="midnightblue" d="M1076.28,-183.937C1139.28,-176.641 1227.7,-166.403 1292.54,-158.895"/>
<polygon fill="midnightblue" stroke="midnightblue" points="1293.21,-162.341 1302.74,-157.714 1292.4,-155.388 1293.21,-162.341"/>
</g>
<!-- Node358 -->
<g id="node10" class="node"><title>Node358</title>
<g id="a_node10"><a xlink:href="class_json_1_1_our_reader.html#aba784b125baa1b62387e767b791f2f89" target="_top" xlink:title="Json::OurReader::readCStyle\lComment">
<polygon fill="none" stroke="black" points="1116.5,-246 1116.5,-276 1262.5,-276 1262.5,-246 1116.5,-246"/>
<text text-anchor="start" x="1124.5" y="-264" font-family="Helvetica,sans-Serif" font-size="10.00">Json::OurReader::readCStyle</text>
<text text-anchor="middle" x="1189.5" y="-253" font-family="Helvetica,sans-Serif" font-size="10.00">Comment</text>
</a>
</g>
</g>
<!-- Node357&#45;&gt;Node358 -->
<g id="edge12" class="edge"><title>Node357&#45;&gt;Node358</title>
<path fill="none" stroke="midnightblue" d="M1048.37,-202.529C1057.75,-205.066 1067.32,-208.192 1076,-212 1093.61,-219.726 1094.7,-227.602 1112,-236 1116.6,-238.231 1121.44,-240.335 1126.37,-242.302"/>
<polygon fill="midnightblue" stroke="midnightblue" points="1125.31,-245.644 1135.9,-245.914 1127.79,-239.098 1125.31,-245.644"/>
</g>
<!-- Node359 -->
<g id="node11" class="node"><title>Node359</title>
<g id="a_node11"><a xlink:href="class_json_1_1_our_reader.html#ae3de80671f0f997053e1c1c8a47a45c5" target="_top" xlink:title="Json::OurReader::readCpp\lStyleComment">
<polygon fill="none" stroke="black" points="1122.5,-197 1122.5,-227 1256.5,-227 1256.5,-197 1122.5,-197"/>
<text text-anchor="start" x="1130.5" y="-215" font-family="Helvetica,sans-Serif" font-size="10.00">Json::OurReader::readCpp</text>
<text text-anchor="middle" x="1189.5" y="-204" font-family="Helvetica,sans-Serif" font-size="10.00">StyleComment</text>
</a>
</g>
</g>
<!-- Node357&#45;&gt;Node359 -->
<g id="edge14" class="edge"><title>Node357&#45;&gt;Node359</title>
<path fill="none" stroke="midnightblue" d="M1076.03,-200.783C1088.07,-201.984 1100.5,-203.223 1112.49,-204.419"/>
<polygon fill="midnightblue" stroke="midnightblue" points="1112.15,-207.903 1122.45,-205.412 1112.85,-200.937 1112.15,-207.903"/>
</g>
<!-- Node360 -->
<g id="node12" class="node"><title>Node360</title>
<g id="a_node12"><a xlink:href="namespace_json.html#a4d6ab0f651348832e5cc49b577a854d2" target="_top" xlink:title="Json::containsNewLine">
<polygon fill="none" stroke="black" points="1130,-333.5 1130,-352.5 1249,-352.5 1249,-333.5 1130,-333.5"/>
<text text-anchor="middle" x="1189.5" y="-340.5" font-family="Helvetica,sans-Serif" font-size="10.00">Json::containsNewLine</text>
</a>
</g>
</g>
<!-- Node357&#45;&gt;Node360 -->
<g id="edge16" class="edge"><title>Node357&#45;&gt;Node360</title>
<path fill="none" stroke="midnightblue" d="M1062.16,-202.643C1067.21,-205.128 1071.92,-208.202 1076,-212 1114.28,-247.616 1073.8,-288.298 1112,-324 1114.63,-326.457 1117.53,-328.61 1120.61,-330.495"/>
<polygon fill="midnightblue" stroke="midnightblue" points="1119.21,-333.711 1129.71,-335.13 1122.38,-327.473 1119.21,-333.711"/>
</g>
<!-- Node361 -->
<g id="node13" class="node"><title>Node361</title>
<g id="a_node13"><a xlink:href="class_json_1_1_our_reader.html#ad7318c37469a9106069a236fb4b10e1f" target="_top" xlink:title="Json::OurReader::addComment">
<polygon fill="none" stroke="black" points="1112,-295.5 1112,-314.5 1267,-314.5 1267,-295.5 1112,-295.5"/>
<text text-anchor="middle" x="1189.5" y="-302.5" font-family="Helvetica,sans-Serif" font-size="10.00">Json::OurReader::addComment</text>
</a>
</g>
</g>
<!-- Node357&#45;&gt;Node361 -->
<g id="edge18" class="edge"><title>Node357&#45;&gt;Node361</title>
<path fill="none" stroke="midnightblue" d="M1060.04,-202.617C1065.77,-205.085 1071.22,-208.164 1076,-212 1104.22,-234.628 1083.97,-262.136 1112,-285 1114.74,-287.237 1117.71,-289.226 1120.83,-290.995"/>
<polygon fill="midnightblue" stroke="midnightblue" points="1119.42,-294.204 1129.95,-295.418 1122.48,-287.906 1119.42,-294.204"/>
</g>
<!-- Node358&#45;&gt;Node354 -->
<g id="edge13" class="edge"><title>Node358&#45;&gt;Node354</title>
<path fill="none" stroke="midnightblue" d="M1244.57,-245.965C1252.28,-243.07 1259.97,-239.75 1267,-236 1303.42,-216.559 1340.02,-184.984 1360.76,-165.694"/>
<polygon fill="midnightblue" stroke="midnightblue" points="1363.28,-168.13 1368.15,-158.719 1358.47,-163.042 1363.28,-168.13"/>
</g>
<!-- Node359&#45;&gt;Node354 -->
<g id="edge15" class="edge"><title>Node359&#45;&gt;Node354</title>
<path fill="none" stroke="midnightblue" d="M1235.41,-196.91C1267.24,-186.215 1309.49,-172.019 1339.72,-161.862"/>
<polygon fill="midnightblue" stroke="midnightblue" points="1341.12,-165.085 1349.48,-158.583 1338.89,-158.45 1341.12,-165.085"/>
</g>
<!-- Node360&#45;&gt;Node350 -->
<g id="edge17" class="edge"><title>Node360&#45;&gt;Node350</title>
<path fill="none" stroke="midnightblue" d="M1237.81,-352.589C1263.11,-357.716 1294.45,-364.067 1321.07,-369.463"/>
<polygon fill="midnightblue" stroke="midnightblue" points="1320.53,-372.924 1331.03,-371.48 1321.92,-366.063 1320.53,-372.924"/>
</g>
<!-- Node362 -->
<g id="node14" class="node"><title>Node362</title>
<g id="a_node14"><a xlink:href="namespace_json.html#a2e6b8616041876128cbef54b8c75da62" target="_top" xlink:title="Json::normalizeEOL">
<polygon fill="none" stroke="black" points="1326.5,-295.5 1326.5,-314.5 1431.5,-314.5 1431.5,-295.5 1326.5,-295.5"/>
<text text-anchor="middle" x="1379" y="-302.5" font-family="Helvetica,sans-Serif" font-size="10.00">Json::normalizeEOL</text>
</a>
</g>
</g>
<!-- Node361&#45;&gt;Node362 -->
<g id="edge19" class="edge"><title>Node361&#45;&gt;Node362</title>
<path fill="none" stroke="midnightblue" d="M1267.03,-305C1283.4,-305 1300.49,-305 1316.21,-305"/>
<polygon fill="midnightblue" stroke="midnightblue" points="1316.33,-308.5 1326.33,-305 1316.33,-301.5 1316.33,-308.5"/>
</g>
<!-- Node363 -->
<g id="node15" class="node"><title>Node363</title>
<g id="a_node15"><a xlink:href="namespace_json.html#adf0456e397a18cd7218a7b51dfc13c73" target="_top" xlink:title="Converts a unicode code&#45;point to UTF&#45;8. ">
<polygon fill="none" stroke="black" points="1491,-295.5 1491,-314.5 1614,-314.5 1614,-295.5 1491,-295.5"/>
<text text-anchor="middle" x="1552.5" y="-302.5" font-family="Helvetica,sans-Serif" font-size="10.00">Json::codePointToUTF8</text>
</a>
</g>
</g>
<!-- Node362&#45;&gt;Node363 -->
<g id="edge20" class="edge"><title>Node362&#45;&gt;Node363</title>
<path fill="none" stroke="midnightblue" d="M1431.92,-305C1447.27,-305 1464.34,-305 1480.67,-305"/>
<polygon fill="midnightblue" stroke="midnightblue" points="1480.71,-308.5 1490.71,-305 1480.71,-301.5 1480.71,-308.5"/>
</g>
<!-- Node367&#45;&gt;Node349 -->
<g id="edge37" class="edge"><title>Node367&#45;&gt;Node349</title>
<path fill="none" stroke="midnightblue" d="M182.891,-387.599C172.257,-387.759 161.236,-387.792 150.443,-387.698"/>
<polygon fill="midnightblue" stroke="midnightblue" points="150.228,-384.195 140.184,-387.568 150.14,-391.194 150.228,-384.195"/>
</g>
<!-- Node367&#45;&gt;Node350 -->
<g id="edge36" class="edge"><title>Node367&#45;&gt;Node350</title>
<path fill="none" stroke="midnightblue" d="M327.249,-381C403.424,-381 527.748,-381 635,-381 635,-381 635,-381 998,-381 1105.27,-381 1229.58,-381 1306,-381"/>
<polygon fill="midnightblue" stroke="midnightblue" points="1306.46,-384.5 1316.46,-381 1306.46,-377.5 1306.46,-384.5"/>
</g>
<!-- Node367&#45;&gt;Node352 -->
<g id="edge26" class="edge"><title>Node367&#45;&gt;Node352</title>
<path fill="none" stroke="midnightblue" d="M300.035,-371.441C382.739,-352.322 565.353,-304.52 703,-228 738.03,-208.526 772.914,-177.182 792.78,-157.909"/>
<polygon fill="midnightblue" stroke="midnightblue" points="795.435,-160.207 800.097,-150.693 790.52,-155.223 795.435,-160.207"/>
</g>
<!-- Node367&#45;&gt;Node366 -->
<g id="edge25" class="edge"><title>Node367&#45;&gt;Node366</title>
<path fill="none" stroke="midnightblue" d="M303.617,-390.548C368.784,-403.616 486.331,-427.188 562.481,-442.458"/>
<polygon fill="midnightblue" stroke="midnightblue" points="561.986,-445.928 572.479,-444.463 563.363,-439.065 561.986,-445.928"/>
</g>
<!-- Node367&#45;&gt;Node368 -->
<g id="edge27" class="edge"><title>Node367&#45;&gt;Node368</title>
<path fill="none" stroke="midnightblue" d="M275.021,-390.659C297.38,-401.782 335.782,-420.165 370,-433 381.089,-437.159 393.244,-441.095 404.672,-444.53"/>
<polygon fill="midnightblue" stroke="midnightblue" points="403.902,-447.952 414.483,-447.413 405.875,-441.236 403.902,-447.952"/>
</g>
<!-- Node369 -->
<g id="node21" class="node"><title>Node369</title>
<g id="a_node21"><a xlink:href="class_json_1_1_our_reader.html#a035651f0700a76a815e5f904c63ebb1c" target="_top" xlink:title="Json::OurReader::recover\lFromError">
<polygon fill="none" stroke="black" points="571.5,-189 571.5,-219 700.5,-219 700.5,-189 571.5,-189"/>
<text text-anchor="start" x="579.5" y="-207" font-family="Helvetica,sans-Serif" font-size="10.00">Json::OurReader::recover</text>
<text text-anchor="middle" x="636" y="-196" font-family="Helvetica,sans-Serif" font-size="10.00">FromError</text>
</a>
</g>
</g>
<!-- Node367&#45;&gt;Node369 -->
<g id="edge29" class="edge"><title>Node367&#45;&gt;Node369</title>
<path fill="none" stroke="midnightblue" d="M265.415,-371.304C283.806,-352.916 326.522,-312.866 370,-291 437.037,-257.286 462.043,-271.408 533,-247 553.118,-240.08 574.91,-231.104 593.167,-223.144"/>
<polygon fill="midnightblue" stroke="midnightblue" points="594.625,-226.326 602.364,-219.09 591.802,-219.921 594.625,-226.326"/>
</g>
<!-- Node367&#45;&gt;Node370 -->
<g id="edge31" class="edge"><title>Node367&#45;&gt;Node370</title>
<path fill="none" stroke="midnightblue" d="M264.678,-390.787C282.437,-410.181 325.057,-453.55 370,-476 374.817,-478.406 379.951,-480.515 385.204,-482.363"/>
<polygon fill="midnightblue" stroke="midnightblue" points="384.157,-485.702 394.748,-485.412 386.288,-479.034 384.157,-485.702"/>
</g>
<!-- Node371 -->
<g id="node23" class="node"><title>Node371</title>
<g id="a_node23"><a xlink:href="class_json_1_1_our_reader.html#ae68a7047acd692be8077e259d524c6d9" target="_top" xlink:title="Json::OurReader::addError\lAndRecover">
<polygon fill="none" stroke="black" points="384.5,-208 384.5,-238 518.5,-238 518.5,-208 384.5,-208"/>
<text text-anchor="start" x="392.5" y="-226" font-family="Helvetica,sans-Serif" font-size="10.00">Json::OurReader::addError</text>
<text text-anchor="middle" x="451.5" y="-215" font-family="Helvetica,sans-Serif" font-size="10.00">AndRecover</text>
</a>
</g>
</g>
<!-- Node367&#45;&gt;Node371 -->
<g id="edge33" class="edge"><title>Node367&#45;&gt;Node371</title>
<path fill="none" stroke="midnightblue" d="M262.224,-371.198C277.672,-347.609 320.141,-287.107 370,-253 375.924,-248.947 382.466,-245.358 389.183,-242.202"/>
<polygon fill="midnightblue" stroke="midnightblue" points="390.654,-245.379 398.411,-238.162 387.847,-238.966 390.654,-245.379"/>
</g>
<!-- Node368&#45;&gt;Node366 -->
<g id="edge28" class="edge"><title>Node368&#45;&gt;Node366</title>
<path fill="none" stroke="midnightblue" d="M528.575,-457C539.732,-457 551.201,-457 562.289,-457"/>
<polygon fill="midnightblue" stroke="midnightblue" points="562.344,-460.5 572.344,-457 562.344,-453.5 562.344,-460.5"/>
</g>
<!-- Node369&#45;&gt;Node352 -->
<g id="edge30" class="edge"><title>Node369&#45;&gt;Node352</title>
<path fill="none" stroke="midnightblue" d="M678.318,-188.91C707.346,-178.308 745.795,-164.266 773.556,-154.128"/>
<polygon fill="midnightblue" stroke="midnightblue" points="775.07,-157.301 783.262,-150.583 772.668,-150.726 775.07,-157.301"/>
</g>
<!-- Node370&#45;&gt;Node366 -->
<g id="edge32" class="edge"><title>Node370&#45;&gt;Node366</title>
<path fill="none" stroke="midnightblue" d="M498.552,-485.411C517.965,-481.369 541.029,-476.567 562.62,-472.071"/>
<polygon fill="midnightblue" stroke="midnightblue" points="563.341,-475.496 572.417,-470.031 561.914,-468.643 563.341,-475.496"/>
</g>
<!-- Node371&#45;&gt;Node369 -->
<g id="edge35" class="edge"><title>Node371&#45;&gt;Node369</title>
<path fill="none" stroke="midnightblue" d="M518.645,-216.114C532.435,-214.678 547.055,-213.156 561.105,-211.693"/>
<polygon fill="midnightblue" stroke="midnightblue" points="561.631,-215.157 571.214,-210.641 560.906,-208.195 561.631,-215.157"/>
</g>
<!-- Node371&#45;&gt;Node372 -->
<g id="edge34" class="edge"><title>Node371&#45;&gt;Node372</title>
<path fill="none" stroke="midnightblue" d="M469.999,-207.85C504.358,-178.104 580.385,-112.283 615.955,-81.4884"/>
<polygon fill="midnightblue" stroke="midnightblue" points="618.418,-83.9856 623.687,-74.7941 613.836,-78.6934 618.418,-83.9856"/>
</g>
<!-- Node373&#45;&gt;Node349 -->
<g id="edge42" class="edge"><title>Node373&#45;&gt;Node349</title>
<path fill="none" stroke="midnightblue" d="M246.176,-232.702C220.255,-259.466 136.478,-332.392 94.8834,-365.108"/>
<polygon fill="midnightblue" stroke="midnightblue" points="92.6876,-362.381 86.9199,-371.268 96.9709,-367.918 92.6876,-362.381"/>
</g>
<!-- Node373&#45;&gt;Node352 -->
<g id="edge41" class="edge"><title>Node373&#45;&gt;Node352</title>
<path fill="none" stroke="midnightblue" d="M285.213,-213.401C308.061,-206.236 340.749,-196.731 370,-191 494.086,-166.689 640.366,-152.967 728.958,-146.269"/>
<polygon fill="midnightblue" stroke="midnightblue" points="729.227,-149.759 738.939,-145.526 728.707,-142.778 729.227,-149.759"/>
</g>
<!-- Node373&#45;&gt;Node353 -->
<g id="edge40" class="edge"><title>Node373&#45;&gt;Node353</title>
<path fill="none" stroke="midnightblue" d="M270.889,-213.389C292.105,-200.084 332.616,-176.102 370,-162 512.224,-108.352 555.361,-120.171 703,-84 798.799,-60.5294 822.305,-52.8943 918,-29 927.233,-26.6945 937.09,-24.2672 946.581,-21.947"/>
<polygon fill="midnightblue" stroke="midnightblue" points="947.412,-25.3472 956.298,-19.5776 945.753,-18.5464 947.412,-25.3472"/>
</g>
<!-- Node373&#45;&gt;Node366 -->
<g id="edge39" class="edge"><title>Node373&#45;&gt;Node366</title>
<path fill="none" stroke="midnightblue" d="M271.803,-232.757C328.661,-267.862 523.596,-388.218 601.976,-436.61"/>
<polygon fill="midnightblue" stroke="midnightblue" points="600.156,-439.6 610.504,-441.876 603.834,-433.644 600.156,-439.6"/>
</g>
<!-- Node373&#45;&gt;Node369 -->
<g id="edge43" class="edge"><title>Node373&#45;&gt;Node369</title>
<path fill="none" stroke="midnightblue" d="M290.103,-213.499C312.59,-207.738 342.806,-200.947 370,-198 442.023,-190.195 460.587,-195.872 533,-198 542.115,-198.268 551.682,-198.67 561.153,-199.142"/>
<polygon fill="midnightblue" stroke="midnightblue" points="561.195,-202.649 571.365,-199.678 561.562,-195.658 561.195,-202.649"/>
</g>
<!-- Node373&#45;&gt;Node371 -->
<g id="edge44" class="edge"><title>Node373&#45;&gt;Node371</title>
<path fill="none" stroke="midnightblue" d="M324.573,-223C340.605,-223 357.778,-223 374.125,-223"/>
<polygon fill="midnightblue" stroke="midnightblue" points="374.179,-226.5 384.179,-223 374.179,-219.5 374.179,-226.5"/>
</g>
</g>
</svg>
