<?xml version="1.0" encoding="UTF-8" standalone="no"?>
<!DOCTYPE svg PUBLIC "-//W3C//DTD SVG 1.1//EN"
 "http://www.w3.org/Graphics/SVG/1.1/DTD/svg11.dtd">
<!-- Generated by graphviz version 2.38.0 (20140413.2041)
 -->
<!-- Title: MinecraftServerService::Server::getUIDAndGIDFromUsername Pages: 1 -->
<svg width="783pt" height="235pt"
 viewBox="0.00 0.00 783.00 235.00" xmlns="http://www.w3.org/2000/svg" xmlns:xlink="http://www.w3.org/1999/xlink">
<g id="graph0" class="graph" transform="scale(1 1) rotate(0) translate(4 231)">
<title>MinecraftServerService::Server::getUIDAndGIDFromUsername</title>
<!-- Node5 -->
<g id="node1" class="node"><title>Node5</title>
<polygon fill="#bfbfbf" stroke="black" points="0,-98.5 0,-128.5 191,-128.5 191,-98.5 0,-98.5"/>
<text text-anchor="start" x="8" y="-116.5" font-family="Helvetica,sans-Serif" font-size="10.00">MinecraftServerService</text>
<text text-anchor="middle" x="95.5" y="-105.5" font-family="Helvetica,sans-Serif" font-size="10.00">::Server::getUIDAndGIDFromUsername</text>
</g>
<!-- Node6 -->
<g id="node2" class="node"><title>Node6</title>
<g id="a_node2"><a xlink:href="class_minecraft_server_service_1_1_server.html#a16a19b4cfd94f23c20442cea9b46f678" target="_top" xlink:title="MinecraftServerService\l::Server::launchServerProcess">
<polygon fill="none" stroke="black" points="227,-98.5 227,-128.5 377,-128.5 377,-98.5 227,-98.5"/>
<text text-anchor="start" x="235" y="-116.5" font-family="Helvetica,sans-Serif" font-size="10.00">MinecraftServerService</text>
<text text-anchor="middle" x="302" y="-105.5" font-family="Helvetica,sans-Serif" font-size="10.00">::Server::launchServerProcess</text>
</a>
</g>
</g>
<!-- Node5&#45;&gt;Node6 -->
<g id="edge1" class="edge"><title>Node5&#45;&gt;Node6</title>
<path fill="none" stroke="midnightblue" d="M201.334,-113.5C209.913,-113.5 218.468,-113.5 226.756,-113.5"/>
<polygon fill="midnightblue" stroke="midnightblue" points="201.267,-110 191.267,-113.5 201.267,-117 201.267,-110"/>
</g>
<!-- Node7 -->
<g id="node3" class="node"><title>Node7</title>
<g id="a_node3"><a xlink:href="class_minecraft_server_service_1_1_bukkit_server.html#a40a879282d13c0996d05f1165fa5c4c2" target="_top" xlink:title="MinecraftServerService\l::BukkitServer::startServer">
<polygon fill="none" stroke="black" points="426,-196.5 426,-226.5 559,-226.5 559,-196.5 426,-196.5"/>
<text text-anchor="start" x="434" y="-214.5" font-family="Helvetica,sans-Serif" font-size="10.00">MinecraftServerService</text>
<text text-anchor="middle" x="492.5" y="-203.5" font-family="Helvetica,sans-Serif" font-size="10.00">::BukkitServer::startServer</text>
</a>
</g>
</g>
<!-- Node6&#45;&gt;Node7 -->
<g id="edge2" class="edge"><title>Node6&#45;&gt;Node7</title>
<path fill="none" stroke="midnightblue" d="M329.819,-134.856C351.294,-151.116 382.731,-173.085 413,-187.5 419.948,-190.809 427.458,-193.79 434.983,-196.433"/>
<polygon fill="midnightblue" stroke="midnightblue" points="331.882,-132.028 321.819,-128.714 327.619,-137.58 331.882,-132.028"/>
</g>
<!-- Node9 -->
<g id="node5" class="node"><title>Node9</title>
<g id="a_node5"><a xlink:href="class_minecraft_server_service_1_1_bungee_cord_server.html#a5f03992324f892fa1cedcef5153a7d3f" target="_top" xlink:title="MinecraftServerService\l::BungeeCordServer::startServer">
<polygon fill="none" stroke="black" points="413,-147.5 413,-177.5 572,-177.5 572,-147.5 413,-147.5"/>
<text text-anchor="start" x="421" y="-165.5" font-family="Helvetica,sans-Serif" font-size="10.00">MinecraftServerService</text>
<text text-anchor="middle" x="492.5" y="-154.5" font-family="Helvetica,sans-Serif" font-size="10.00">::BungeeCordServer::startServer</text>
</a>
</g>
</g>
<!-- Node6&#45;&gt;Node9 -->
<g id="edge4" class="edge"><title>Node6&#45;&gt;Node9</title>
<path fill="none" stroke="midnightblue" d="M370.794,-131.123C391.417,-136.484 413.879,-142.323 433.772,-147.494"/>
<polygon fill="midnightblue" stroke="midnightblue" points="371.396,-127.663 360.837,-128.535 369.635,-134.438 371.396,-127.663"/>
</g>
<!-- Node11 -->
<g id="node7" class="node"><title>Node11</title>
<g id="a_node7"><a xlink:href="class_minecraft_server_service_1_1_generic_server.html#aa3e2da3f6458e579697154360f6e05e5" target="_top" xlink:title="MinecraftServerService\l::GenericServer::startServer">
<polygon fill="none" stroke="black" points="423,-98.5 423,-128.5 562,-128.5 562,-98.5 423,-98.5"/>
<text text-anchor="start" x="431" y="-116.5" font-family="Helvetica,sans-Serif" font-size="10.00">MinecraftServerService</text>
<text text-anchor="middle" x="492.5" y="-105.5" font-family="Helvetica,sans-Serif" font-size="10.00">::GenericServer::startServer</text>
</a>
</g>
</g>
<!-- Node6&#45;&gt;Node11 -->
<g id="edge6" class="edge"><title>Node6&#45;&gt;Node11</title>
<path fill="none" stroke="midnightblue" d="M387.544,-113.5C399.363,-113.5 411.388,-113.5 422.865,-113.5"/>
<polygon fill="midnightblue" stroke="midnightblue" points="387.23,-110 377.23,-113.5 387.23,-117 387.23,-110"/>
</g>
<!-- Node13 -->
<g id="node9" class="node"><title>Node13</title>
<g id="a_node9"><a xlink:href="class_minecraft_server_service_1_1_spigot_server.html#a08bc3d74d604968034303efc7334dd08" target="_top" xlink:title="MinecraftServerService\l::SpigotServer::startServer">
<polygon fill="none" stroke="black" points="426,-49.5 426,-79.5 559,-79.5 559,-49.5 426,-49.5"/>
<text text-anchor="start" x="434" y="-67.5" font-family="Helvetica,sans-Serif" font-size="10.00">MinecraftServerService</text>
<text text-anchor="middle" x="492.5" y="-56.5" font-family="Helvetica,sans-Serif" font-size="10.00">::SpigotServer::startServer</text>
</a>
</g>
</g>
<!-- Node6&#45;&gt;Node13 -->
<g id="edge8" class="edge"><title>Node6&#45;&gt;Node13</title>
<path fill="none" stroke="midnightblue" d="M370.794,-95.8771C391.417,-90.5163 413.879,-84.6775 433.772,-79.5062"/>
<polygon fill="midnightblue" stroke="midnightblue" points="369.635,-92.562 360.837,-98.4654 371.396,-99.3369 369.635,-92.562"/>
</g>
<!-- Node15 -->
<g id="node11" class="node"><title>Node15</title>
<g id="a_node11"><a xlink:href="class_minecraft_server_service_1_1_vanilla_server.html#a9f1ea90c5bcd4f183303d169d0427b46" target="_top" xlink:title="MinecraftServerService\l::VanillaServer::startServer">
<polygon fill="none" stroke="black" points="425.5,-0.5 425.5,-30.5 559.5,-30.5 559.5,-0.5 425.5,-0.5"/>
<text text-anchor="start" x="433.5" y="-18.5" font-family="Helvetica,sans-Serif" font-size="10.00">MinecraftServerService</text>
<text text-anchor="middle" x="492.5" y="-7.5" font-family="Helvetica,sans-Serif" font-size="10.00">::VanillaServer::startServer</text>
</a>
</g>
</g>
<!-- Node6&#45;&gt;Node15 -->
<g id="edge10" class="edge"><title>Node6&#45;&gt;Node15</title>
<path fill="none" stroke="midnightblue" d="M330.303,-92.2608C351.818,-76.3153 383.078,-54.8474 413,-40.5 420.609,-36.8514 428.881,-33.5567 437.105,-30.6466"/>
<polygon fill="midnightblue" stroke="midnightblue" points="328.171,-89.4852 322.276,-98.2892 332.374,-95.0824 328.171,-89.4852"/>
</g>
<!-- Node8 -->
<g id="node4" class="node"><title>Node8</title>
<g id="a_node4"><a xlink:href="class_minecraft_server_service_1_1_bukkit_server.html#afdd768465fedfbea100da7f62cbd11d0" target="_top" xlink:title="MinecraftServerService\l::BukkitServer::restartServer">
<polygon fill="none" stroke="black" points="621,-196.5 621,-226.5 762,-226.5 762,-196.5 621,-196.5"/>
<text text-anchor="start" x="629" y="-214.5" font-family="Helvetica,sans-Serif" font-size="10.00">MinecraftServerService</text>
<text text-anchor="middle" x="691.5" y="-203.5" font-family="Helvetica,sans-Serif" font-size="10.00">::BukkitServer::restartServer</text>
</a>
</g>
</g>
<!-- Node7&#45;&gt;Node8 -->
<g id="edge3" class="edge"><title>Node7&#45;&gt;Node8</title>
<path fill="none" stroke="midnightblue" d="M569.472,-211.5C586.358,-211.5 604.176,-211.5 620.796,-211.5"/>
<polygon fill="midnightblue" stroke="midnightblue" points="569.098,-208 559.098,-211.5 569.098,-215 569.098,-208"/>
</g>
<!-- Node10 -->
<g id="node6" class="node"><title>Node10</title>
<g id="a_node6"><a xlink:href="class_minecraft_server_service_1_1_bungee_cord_server.html#a471a30d5fd0c2dca57970aef99eaa2b7" target="_top" xlink:title="MinecraftServerService\l::BungeeCordServer::restartServer">
<polygon fill="none" stroke="black" points="608,-147.5 608,-177.5 775,-177.5 775,-147.5 608,-147.5"/>
<text text-anchor="start" x="616" y="-165.5" font-family="Helvetica,sans-Serif" font-size="10.00">MinecraftServerService</text>
<text text-anchor="middle" x="691.5" y="-154.5" font-family="Helvetica,sans-Serif" font-size="10.00">::BungeeCordServer::restartServer</text>
</a>
</g>
</g>
<!-- Node9&#45;&gt;Node10 -->
<g id="edge5" class="edge"><title>Node9&#45;&gt;Node10</title>
<path fill="none" stroke="midnightblue" d="M582.42,-162.5C590.843,-162.5 599.36,-162.5 607.722,-162.5"/>
<polygon fill="midnightblue" stroke="midnightblue" points="582.209,-159 572.209,-162.5 582.209,-166 582.209,-159"/>
</g>
<!-- Node12 -->
<g id="node8" class="node"><title>Node12</title>
<g id="a_node8"><a xlink:href="class_minecraft_server_service_1_1_generic_server.html#a91d7fee4ca078709180084768e85149f" target="_top" xlink:title="MinecraftServerService\l::GenericServer::restartServer">
<polygon fill="none" stroke="black" points="618,-98.5 618,-128.5 765,-128.5 765,-98.5 618,-98.5"/>
<text text-anchor="start" x="626" y="-116.5" font-family="Helvetica,sans-Serif" font-size="10.00">MinecraftServerService</text>
<text text-anchor="middle" x="691.5" y="-105.5" font-family="Helvetica,sans-Serif" font-size="10.00">::GenericServer::restartServer</text>
</a>
</g>
</g>
<!-- Node11&#45;&gt;Node12 -->
<g id="edge7" class="edge"><title>Node11&#45;&gt;Node12</title>
<path fill="none" stroke="midnightblue" d="M572.38,-113.5C587.366,-113.5 602.982,-113.5 617.766,-113.5"/>
<polygon fill="midnightblue" stroke="midnightblue" points="572.125,-110 562.124,-113.5 572.124,-117 572.125,-110"/>
</g>
<!-- Node14 -->
<g id="node10" class="node"><title>Node14</title>
<g id="a_node10"><a xlink:href="class_minecraft_server_service_1_1_spigot_server.html#a8868ea31ed029270de60becebf36fc69" target="_top" xlink:title="MinecraftServerService\l::SpigotServer::restartServer">
<polygon fill="none" stroke="black" points="621,-49.5 621,-79.5 762,-79.5 762,-49.5 621,-49.5"/>
<text text-anchor="start" x="629" y="-67.5" font-family="Helvetica,sans-Serif" font-size="10.00">MinecraftServerService</text>
<text text-anchor="middle" x="691.5" y="-56.5" font-family="Helvetica,sans-Serif" font-size="10.00">::SpigotServer::restartServer</text>
</a>
</g>
</g>
<!-- Node13&#45;&gt;Node14 -->
<g id="edge9" class="edge"><title>Node13&#45;&gt;Node14</title>
<path fill="none" stroke="midnightblue" d="M569.472,-64.5C586.358,-64.5 604.176,-64.5 620.796,-64.5"/>
<polygon fill="midnightblue" stroke="midnightblue" points="569.098,-61.0001 559.098,-64.5 569.098,-68.0001 569.098,-61.0001"/>
</g>
<!-- Node16 -->
<g id="node12" class="node"><title>Node16</title>
<g id="a_node12"><a xlink:href="class_minecraft_server_service_1_1_vanilla_server.html#a99ac73bdf44e6d77933e95c769f4d95a" target="_top" xlink:title="MinecraftServerService\l::VanillaServer::restartServer">
<polygon fill="none" stroke="black" points="620,-0.5 620,-30.5 763,-30.5 763,-0.5 620,-0.5"/>
<text text-anchor="start" x="628" y="-18.5" font-family="Helvetica,sans-Serif" font-size="10.00">MinecraftServerService</text>
<text text-anchor="middle" x="691.5" y="-7.5" font-family="Helvetica,sans-Serif" font-size="10.00">::VanillaServer::restartServer</text>
</a>
</g>
</g>
<!-- Node15&#45;&gt;Node16 -->
<g id="edge11" class="edge"><title>Node15&#45;&gt;Node16</title>
<path fill="none" stroke="midnightblue" d="M569.765,-15.5C586.227,-15.5 603.563,-15.5 619.801,-15.5"/>
<polygon fill="midnightblue" stroke="midnightblue" points="569.646,-12.0001 559.646,-15.5 569.646,-19.0001 569.646,-12.0001"/>
</g>
</g>
</svg>
