<?xml version="1.0" encoding="UTF-8" standalone="no"?>
<!DOCTYPE svg PUBLIC "-//W3C//DTD SVG 1.1//EN"
 "http://www.w3.org/Graphics/SVG/1.1/DTD/svg11.dtd">
<!-- Generated by graphviz version 2.38.0 (20140413.2041)
 -->
<!-- Title: MinecraftServerService::ServerStream::rdbuf Pages: 1 -->
<svg width="441pt" height="225pt"
 viewBox="0.00 0.00 441.00 225.00" xmlns="http://www.w3.org/2000/svg" xmlns:xlink="http://www.w3.org/1999/xlink">
<g id="graph0" class="graph" transform="scale(1 1) rotate(0) translate(4 221)">
<title>MinecraftServerService::ServerStream::rdbuf</title>
<!-- Node8 -->
<g id="node1" class="node"><title>Node8</title>
<polygon fill="#bfbfbf" stroke="black" points="0,-98.5 0,-128.5 119,-128.5 119,-98.5 0,-98.5"/>
<text text-anchor="start" x="8" y="-116.5" font-family="Helvetica,sans-Serif" font-size="10.00">MinecraftServerService</text>
<text text-anchor="middle" x="59.5" y="-105.5" font-family="Helvetica,sans-Serif" font-size="10.00">::ServerStream::rdbuf</text>
</g>
<!-- Node9 -->
<g id="node2" class="node"><title>Node9</title>
<g id="a_node2"><a xlink:href="class_minecraft_server_service_1_1_server.html#a602c9585f3f9f1352996a04eab14f497" target="_top" xlink:title="MinecraftServerService\l::Server::startServer">
<polygon fill="none" stroke="black" points="157,-186.5 157,-216.5 276,-216.5 276,-186.5 157,-186.5"/>
<text text-anchor="start" x="165" y="-204.5" font-family="Helvetica,sans-Serif" font-size="10.00">MinecraftServerService</text>
<text text-anchor="middle" x="216.5" y="-193.5" font-family="Helvetica,sans-Serif" font-size="10.00">::Server::startServer</text>
</a>
</g>
</g>
<!-- Node8&#45;&gt;Node9 -->
<g id="edge1" class="edge"><title>Node8&#45;&gt;Node9</title>
<path fill="none" stroke="midnightblue" d="M92.2978,-134.006C110.432,-145.449 133.722,-159.726 155,-171.5 164.232,-176.609 174.451,-181.833 183.821,-186.461"/>
<polygon fill="midnightblue" stroke="midnightblue" points="94.1596,-131.042 83.8408,-128.639 90.409,-136.952 94.1596,-131.042"/>
</g>
<!-- Node10 -->
<g id="node3" class="node"><title>Node10</title>
<g id="a_node3"><a xlink:href="class_minecraft_server_service_1_1_server.html#abe2dd0647b2b549dee722f552e4c6a62" target="_top" xlink:title="MinecraftServerService\l::Server::restartServer">
<polygon fill="none" stroke="black" points="314,-142.5 314,-172.5 433,-172.5 433,-142.5 314,-142.5"/>
<text text-anchor="start" x="322" y="-160.5" font-family="Helvetica,sans-Serif" font-size="10.00">MinecraftServerService</text>
<text text-anchor="middle" x="373.5" y="-149.5" font-family="Helvetica,sans-Serif" font-size="10.00">::Server::restartServer</text>
</a>
</g>
</g>
<!-- Node8&#45;&gt;Node10 -->
<g id="edge5" class="edge"><title>Node8&#45;&gt;Node10</title>
<path fill="none" stroke="midnightblue" d="M120.9,-131.122C132.159,-133.938 143.88,-136.558 155,-138.5 208.395,-147.824 270.004,-152.66 313.989,-155.112"/>
<polygon fill="midnightblue" stroke="midnightblue" points="121.708,-127.716 111.151,-128.61 119.961,-134.495 121.708,-127.716"/>
</g>
<!-- Node11 -->
<g id="node4" class="node"><title>Node11</title>
<g id="a_node4"><a xlink:href="class_minecraft_server_service_1_1_server.html#a9061f08bdc394835afe2b42a495a3ab0" target="_top" xlink:title="MinecraftServerService\l::Server::stopServer">
<polygon fill="none" stroke="black" points="157,-98.5 157,-128.5 276,-128.5 276,-98.5 157,-98.5"/>
<text text-anchor="start" x="165" y="-116.5" font-family="Helvetica,sans-Serif" font-size="10.00">MinecraftServerService</text>
<text text-anchor="middle" x="216.5" y="-105.5" font-family="Helvetica,sans-Serif" font-size="10.00">::Server::stopServer</text>
</a>
</g>
</g>
<!-- Node8&#45;&gt;Node11 -->
<g id="edge3" class="edge"><title>Node8&#45;&gt;Node11</title>
<path fill="none" stroke="midnightblue" d="M129.351,-113.5C138.517,-113.5 147.847,-113.5 156.818,-113.5"/>
<polygon fill="midnightblue" stroke="midnightblue" points="129.099,-110 119.099,-113.5 129.099,-117 129.099,-110"/>
</g>
<!-- Node12 -->
<g id="node5" class="node"><title>Node12</title>
<g id="a_node5"><a xlink:href="class_minecraft_server_service_1_1_server.html#af147174068ff1ead44c9df54e2eb4355" target="_top" xlink:title="MinecraftServerService\l::Server::sendCommand">
<polygon fill="none" stroke="black" points="155,-49.5 155,-79.5 278,-79.5 278,-49.5 155,-49.5"/>
<text text-anchor="start" x="163" y="-67.5" font-family="Helvetica,sans-Serif" font-size="10.00">MinecraftServerService</text>
<text text-anchor="middle" x="216.5" y="-56.5" font-family="Helvetica,sans-Serif" font-size="10.00">::Server::sendCommand</text>
</a>
</g>
</g>
<!-- Node8&#45;&gt;Node12 -->
<g id="edge6" class="edge"><title>Node8&#45;&gt;Node12</title>
<path fill="none" stroke="midnightblue" d="M118.258,-95.2409C134.607,-90.0727 152.211,-84.5076 167.888,-79.5516"/>
<polygon fill="midnightblue" stroke="midnightblue" points="116.75,-92.047 108.27,-98.3986 118.86,-98.7215 116.75,-92.047"/>
</g>
<!-- Node13 -->
<g id="node6" class="node"><title>Node13</title>
<g id="a_node6"><a xlink:href="class_minecraft_server_service_1_1_server.html#a8a32d4779953b2c52d796b348f0528e3" target="_top" xlink:title="MinecraftServerService\l::Server::logger">
<polygon fill="none" stroke="black" points="157,-0.5 157,-30.5 276,-30.5 276,-0.5 157,-0.5"/>
<text text-anchor="start" x="165" y="-18.5" font-family="Helvetica,sans-Serif" font-size="10.00">MinecraftServerService</text>
<text text-anchor="middle" x="216.5" y="-7.5" font-family="Helvetica,sans-Serif" font-size="10.00">::Server::logger</text>
</a>
</g>
</g>
<!-- Node8&#45;&gt;Node13 -->
<g id="edge7" class="edge"><title>Node8&#45;&gt;Node13</title>
<path fill="none" stroke="midnightblue" d="M85.1246,-91.5245C103.474,-75.9067 129.64,-55.1824 155,-40.5 161.196,-36.9126 168.007,-33.5769 174.754,-30.5861"/>
<polygon fill="midnightblue" stroke="midnightblue" points="82.5573,-89.117 77.2747,-98.3009 87.1315,-94.4158 82.5573,-89.117"/>
</g>
<!-- Node9&#45;&gt;Node10 -->
<g id="edge2" class="edge"><title>Node9&#45;&gt;Node10</title>
<path fill="none" stroke="midnightblue" d="M280.246,-183.688C293.292,-179.985 306.916,-176.117 319.567,-172.526"/>
<polygon fill="midnightblue" stroke="midnightblue" points="279.073,-180.383 270.409,-186.481 280.984,-187.117 279.073,-180.383"/>
</g>
<!-- Node11&#45;&gt;Node10 -->
<g id="edge4" class="edge"><title>Node11&#45;&gt;Node10</title>
<path fill="none" stroke="midnightblue" d="M280.246,-131.312C293.292,-135.015 306.916,-138.883 319.567,-142.474"/>
<polygon fill="midnightblue" stroke="midnightblue" points="280.984,-127.883 270.409,-128.519 279.073,-134.617 280.984,-127.883"/>
</g>
</g>
</svg>
