<?xml version="1.0" encoding="UTF-8" standalone="no"?>
<!DOCTYPE svg PUBLIC "-//W3C//DTD SVG 1.1//EN"
 "http://www.w3.org/Graphics/SVG/1.1/DTD/svg11.dtd">
<!-- Generated by graphviz version 2.38.0 (20140413.2041)
 -->
<!-- Title: MinecraftServerService::Server::sendCommand Pages: 1 -->
<svg width="301pt" height="88pt"
 viewBox="0.00 0.00 301.00 88.00" xmlns="http://www.w3.org/2000/svg" xmlns:xlink="http://www.w3.org/1999/xlink">
<g id="graph0" class="graph" transform="scale(1 1) rotate(0) translate(4 84)">
<title>MinecraftServerService::Server::sendCommand</title>
<!-- Node26 -->
<g id="node1" class="node"><title>Node26</title>
<polygon fill="#bfbfbf" stroke="black" points="0,-24.5 0,-54.5 123,-54.5 123,-24.5 0,-24.5"/>
<text text-anchor="start" x="8" y="-42.5" font-family="Helvetica,sans-Serif" font-size="10.00">MinecraftServerService</text>
<text text-anchor="middle" x="61.5" y="-31.5" font-family="Helvetica,sans-Serif" font-size="10.00">::Server::sendCommand</text>
</g>
<!-- Node27 -->
<g id="node2" class="node"><title>Node27</title>
<g id="a_node2"><a xlink:href="class_minecraft_server_service_1_1_server_stream.html#acfaf50ff9b711062de3bb8a650ba11dd" target="_top" xlink:title="MinecraftServerService\l::ServerStream::rdbuf">
<polygon fill="none" stroke="black" points="166.5,-49.5 166.5,-79.5 285.5,-79.5 285.5,-49.5 166.5,-49.5"/>
<text text-anchor="start" x="174.5" y="-67.5" font-family="Helvetica,sans-Serif" font-size="10.00">MinecraftServerService</text>
<text text-anchor="middle" x="226" y="-56.5" font-family="Helvetica,sans-Serif" font-size="10.00">::ServerStream::rdbuf</text>
</a>
</g>
</g>
<!-- Node26&#45;&gt;Node27 -->
<g id="edge1" class="edge"><title>Node26&#45;&gt;Node27</title>
<path fill="none" stroke="midnightblue" d="M123.009,-48.8091C133.856,-50.4778 145.231,-52.2278 156.289,-53.929"/>
<polygon fill="midnightblue" stroke="midnightblue" points="155.914,-57.4125 166.33,-55.4739 156.979,-50.4939 155.914,-57.4125"/>
</g>
<!-- Node28 -->
<g id="node3" class="node"><title>Node28</title>
<g id="a_node3"><a xlink:href="class_minecraft_server_service_1_1_server_process_buf.html#aea2e874a9ba6aa6558201008d9b909f0" target="_top" xlink:title="MinecraftServerService\l::ServerProcessBuf::exited">
<polygon fill="none" stroke="black" points="159,-0.5 159,-30.5 293,-30.5 293,-0.5 159,-0.5"/>
<text text-anchor="start" x="167" y="-18.5" font-family="Helvetica,sans-Serif" font-size="10.00">MinecraftServerService</text>
<text text-anchor="middle" x="226" y="-7.5" font-family="Helvetica,sans-Serif" font-size="10.00">::ServerProcessBuf::exited</text>
</a>
</g>
</g>
<!-- Node26&#45;&gt;Node28 -->
<g id="edge2" class="edge"><title>Node26&#45;&gt;Node28</title>
<path fill="none" stroke="midnightblue" d="M123.009,-30.5633C131.44,-29.318 140.191,-28.0256 148.864,-26.7447"/>
<polygon fill="midnightblue" stroke="midnightblue" points="149.604,-30.1734 158.986,-25.2498 148.581,-23.2485 149.604,-30.1734"/>
</g>
</g>
</svg>
