<?xml version="1.0" encoding="UTF-8" standalone="no"?>
<!DOCTYPE svg PUBLIC "-//W3C//DTD SVG 1.1//EN"
 "http://www.w3.org/Graphics/SVG/1.1/DTD/svg11.dtd">
<!-- Generated by graphviz version 2.38.0 (20140413.2041)
 -->
<!-- Title: Json::OurReader::decodeString Pages: 1 -->
<svg width="666pt" height="104pt"
 viewBox="0.00 0.00 666.00 104.00" xmlns="http://www.w3.org/2000/svg" xmlns:xlink="http://www.w3.org/1999/xlink">
<g id="graph0" class="graph" transform="scale(1 1) rotate(0) translate(4 100)">
<title>Json::OurReader::decodeString</title>
<!-- Node86 -->
<g id="node1" class="node"><title>Node86</title>
<polygon fill="#bfbfbf" stroke="black" points="0,-57.5 0,-76.5 154,-76.5 154,-57.5 0,-57.5"/>
<text text-anchor="middle" x="77" y="-64.5" font-family="Helvetica,sans-Serif" font-size="10.00">Json::OurReader::decodeString</text>
</g>
<!-- Node87 -->
<g id="node2" class="node"><title>Node87</title>
<g id="a_node2"><a xlink:href="class_json_1_1_our_reader.html#a1765d9670d191c89a57a22ea5591d35f" target="_top" xlink:title="Json::OurReader::readValue">
<polygon fill="none" stroke="black" points="190,-38.5 190,-57.5 330,-57.5 330,-38.5 190,-38.5"/>
<text text-anchor="middle" x="260" y="-45.5" font-family="Helvetica,sans-Serif" font-size="10.00">Json::OurReader::readValue</text>
</a>
</g>
</g>
<!-- Node86&#45;&gt;Node87 -->
<g id="edge1" class="edge"><title>Node86&#45;&gt;Node87</title>
<path fill="none" stroke="midnightblue" d="M164.241,-57.9471C172.8,-57.0487 181.409,-56.1449 189.763,-55.268"/>
<polygon fill="midnightblue" stroke="midnightblue" points="163.816,-54.4724 154.236,-58.9974 164.546,-61.4342 163.816,-54.4724"/>
</g>
<!-- Node90 -->
<g id="node5" class="node"><title>Node90</title>
<g id="a_node5"><a xlink:href="class_json_1_1_our_reader.html#aea198f8101dba55099f4d8121a993530" target="_top" xlink:title="Json::OurReader::readObject">
<polygon fill="none" stroke="black" points="366,-76.5 366,-95.5 510,-95.5 510,-76.5 366,-76.5"/>
<text text-anchor="middle" x="438" y="-83.5" font-family="Helvetica,sans-Serif" font-size="10.00">Json::OurReader::readObject</text>
</a>
</g>
</g>
<!-- Node86&#45;&gt;Node90 -->
<g id="edge8" class="edge"><title>Node86&#45;&gt;Node90</title>
<path fill="none" stroke="midnightblue" d="M164.238,-71.5641C225.91,-74.8281 307.919,-79.1684 365.859,-82.2349"/>
<polygon fill="midnightblue" stroke="midnightblue" points="164.306,-68.0629 154.135,-71.0294 163.936,-75.0531 164.306,-68.0629"/>
</g>
<!-- Node88 -->
<g id="node3" class="node"><title>Node88</title>
<g id="a_node3"><a xlink:href="class_json_1_1_our_reader.html#aba4f8749aab7f02ec17f107e392caf80" target="_top" xlink:title="Json::OurReader::parse">
<polygon fill="none" stroke="black" points="377.5,-38.5 377.5,-57.5 498.5,-57.5 498.5,-38.5 377.5,-38.5"/>
<text text-anchor="middle" x="438" y="-45.5" font-family="Helvetica,sans-Serif" font-size="10.00">Json::OurReader::parse</text>
</a>
</g>
</g>
<!-- Node87&#45;&gt;Node88 -->
<g id="edge2" class="edge"><title>Node87&#45;&gt;Node88</title>
<path fill="none" stroke="midnightblue" d="M340.391,-48C352.786,-48 365.412,-48 377.271,-48"/>
<polygon fill="midnightblue" stroke="midnightblue" points="340.055,-44.5001 330.055,-48 340.055,-51.5001 340.055,-44.5001"/>
</g>
<!-- Node87&#45;&gt;Node90 -->
<g id="edge4" class="edge"><title>Node87&#45;&gt;Node90</title>
<path fill="none" stroke="midnightblue" d="M340.005,-58.3394C367.209,-64.0222 395.572,-70.8233 414.547,-76.4659"/>
<polygon fill="midnightblue" stroke="midnightblue" points="340.554,-54.8791 330.055,-56.3005 339.149,-61.7367 340.554,-54.8791"/>
</g>
<!-- Node91 -->
<g id="node6" class="node"><title>Node91</title>
<g id="a_node6"><a xlink:href="class_json_1_1_our_reader.html#a0b9f58faf4212c6ecb5d8e2a1ac10257" target="_top" xlink:title="Json::OurReader::readArray">
<polygon fill="none" stroke="black" points="368.5,-0.5 368.5,-19.5 507.5,-19.5 507.5,-0.5 368.5,-0.5"/>
<text text-anchor="middle" x="438" y="-7.5" font-family="Helvetica,sans-Serif" font-size="10.00">Json::OurReader::readArray</text>
</a>
</g>
</g>
<!-- Node87&#45;&gt;Node91 -->
<g id="edge6" class="edge"><title>Node87&#45;&gt;Node91</title>
<path fill="none" stroke="midnightblue" d="M293.314,-35.6573C314.254,-29.9161 342.336,-23.4396 368.117,-18.2661"/>
<polygon fill="midnightblue" stroke="midnightblue" points="292.309,-32.3041 283.649,-38.4076 294.225,-39.0368 292.309,-32.3041"/>
</g>
<!-- Node89 -->
<g id="node4" class="node"><title>Node89</title>
<g id="a_node4"><a xlink:href="class_json_1_1_our_char_reader.html#a52a1fb5fee88d9b63dd462f63b1c9570" target="_top" xlink:title="Json::OurCharReader\l::parse">
<polygon fill="none" stroke="black" points="546,-33 546,-63 658,-63 658,-33 546,-33"/>
<text text-anchor="start" x="554" y="-51" font-family="Helvetica,sans-Serif" font-size="10.00">Json::OurCharReader</text>
<text text-anchor="middle" x="602" y="-40" font-family="Helvetica,sans-Serif" font-size="10.00">::parse</text>
</a>
</g>
</g>
<!-- Node88&#45;&gt;Node89 -->
<g id="edge3" class="edge"><title>Node88&#45;&gt;Node89</title>
<path fill="none" stroke="midnightblue" d="M509.109,-48C521.434,-48 534.101,-48 545.941,-48"/>
<polygon fill="midnightblue" stroke="midnightblue" points="508.863,-44.5001 498.863,-48 508.863,-51.5001 508.863,-44.5001"/>
</g>
<!-- Node90&#45;&gt;Node87 -->
<g id="edge5" class="edge"><title>Node90&#45;&gt;Node87</title>
<path fill="none" stroke="midnightblue" d="M355.704,-75.1799C329.301,-69.617 302.089,-63.065 283.649,-57.5924"/>
<polygon fill="midnightblue" stroke="midnightblue" points="355.261,-78.6624 365.763,-77.2592 356.678,-71.8074 355.261,-78.6624"/>
</g>
<!-- Node91&#45;&gt;Node87 -->
<g id="edge7" class="edge"><title>Node91&#45;&gt;Node87</title>
<path fill="none" stroke="midnightblue" d="M404.898,-22.2846C383.982,-28.0274 355.876,-34.5142 330.055,-39.6995"/>
<polygon fill="midnightblue" stroke="midnightblue" points="405.89,-25.6414 414.547,-19.5341 403.971,-18.9096 405.89,-25.6414"/>
</g>
</g>
</svg>
