<?xml version="1.0" encoding="UTF-8" standalone="no"?>
<!DOCTYPE svg PUBLIC "-//W3C//DTD SVG 1.1//EN"
 "http://www.w3.org/Graphics/SVG/1.1/DTD/svg11.dtd">
<!-- Generated by graphviz version 2.38.0 (20140413.2041)
 -->
<!-- Title: Json::OurReader::readToken Pages: 1 -->
<svg width="883pt" height="355pt"
 viewBox="0.00 0.00 883.00 355.00" xmlns="http://www.w3.org/2000/svg" xmlns:xlink="http://www.w3.org/1999/xlink">
<g id="graph0" class="graph" transform="scale(1 1) rotate(0) translate(4 351)">
<title>Json::OurReader::readToken</title>
<!-- Node325 -->
<g id="node1" class="node"><title>Node325</title>
<polygon fill="#bfbfbf" stroke="black" points="0,-207.5 0,-226.5 143,-226.5 143,-207.5 0,-207.5"/>
<text text-anchor="middle" x="71.5" y="-214.5" font-family="Helvetica,sans-Serif" font-size="10.00">Json::OurReader::readToken</text>
</g>
<!-- Node326 -->
<g id="node2" class="node"><title>Node326</title>
<g id="a_node2"><a xlink:href="class_json_1_1_our_reader.html#a6fbc6d58a4505e5ccadf330b57b17ca5" target="_top" xlink:title="Json::OurReader::skipSpaces">
<polygon fill="none" stroke="black" points="184,-327.5 184,-346.5 332,-346.5 332,-327.5 184,-327.5"/>
<text text-anchor="middle" x="258" y="-334.5" font-family="Helvetica,sans-Serif" font-size="10.00">Json::OurReader::skipSpaces</text>
</a>
</g>
</g>
<!-- Node325&#45;&gt;Node326 -->
<g id="edge1" class="edge"><title>Node325&#45;&gt;Node326</title>
<path fill="none" stroke="midnightblue" d="M80.5674,-226.675C97.0868,-245.885 136.78,-289.048 179,-313 186.79,-317.419 195.488,-321.119 204.171,-324.186"/>
<polygon fill="midnightblue" stroke="midnightblue" points="203.327,-327.592 213.92,-327.384 205.509,-320.941 203.327,-327.592"/>
</g>
<!-- Node327 -->
<g id="node3" class="node"><title>Node327</title>
<g id="a_node3"><a xlink:href="class_json_1_1_our_reader.html#a298285d035fdbc554caae09d9f0a5859" target="_top" xlink:title="Json::OurReader::getNextChar">
<polygon fill="none" stroke="black" points="564,-194.5 564,-213.5 716,-213.5 716,-194.5 564,-194.5"/>
<text text-anchor="middle" x="640" y="-201.5" font-family="Helvetica,sans-Serif" font-size="10.00">Json::OurReader::getNextChar</text>
</a>
</g>
</g>
<!-- Node325&#45;&gt;Node327 -->
<g id="edge2" class="edge"><title>Node325&#45;&gt;Node327</title>
<path fill="none" stroke="midnightblue" d="M89.9726,-226.631C110.581,-237.489 146.195,-254.709 179,-263 329.56,-301.054 379.65,-325.92 528,-280 565.453,-268.407 601.517,-239.338 621.909,-220.697"/>
<polygon fill="midnightblue" stroke="midnightblue" points="624.511,-223.055 629.408,-213.66 619.721,-217.951 624.511,-223.055"/>
</g>
<!-- Node328 -->
<g id="node4" class="node"><title>Node328</title>
<g id="a_node4"><a xlink:href="class_json_1_1_our_reader.html#a5d39b12671499ec5975f3bbc84b7d438" target="_top" xlink:title="Json::OurReader::readString">
<polygon fill="none" stroke="black" points="380,-251.5 380,-270.5 521,-270.5 521,-251.5 380,-251.5"/>
<text text-anchor="middle" x="450.5" y="-258.5" font-family="Helvetica,sans-Serif" font-size="10.00">Json::OurReader::readString</text>
</a>
</g>
</g>
<!-- Node325&#45;&gt;Node328 -->
<g id="edge3" class="edge"><title>Node325&#45;&gt;Node328</title>
<path fill="none" stroke="midnightblue" d="M106.761,-226.52C127.507,-231.913 154.589,-238.302 179,-242 242.734,-251.655 315.674,-256.417 369.74,-258.759"/>
<polygon fill="midnightblue" stroke="midnightblue" points="369.814,-262.265 379.951,-259.182 370.104,-255.271 369.814,-262.265"/>
</g>
<!-- Node329 -->
<g id="node5" class="node"><title>Node329</title>
<g id="a_node5"><a xlink:href="class_json_1_1_our_reader.html#ac78592defdc333faf56c6d0908758da3" target="_top" xlink:title="Json::OurReader::readString\lSingleQuote">
<polygon fill="none" stroke="black" points="187.5,-202 187.5,-232 328.5,-232 328.5,-202 187.5,-202"/>
<text text-anchor="start" x="195.5" y="-220" font-family="Helvetica,sans-Serif" font-size="10.00">Json::OurReader::readString</text>
<text text-anchor="middle" x="258" y="-209" font-family="Helvetica,sans-Serif" font-size="10.00">SingleQuote</text>
</a>
</g>
</g>
<!-- Node325&#45;&gt;Node329 -->
<g id="edge5" class="edge"><title>Node325&#45;&gt;Node329</title>
<path fill="none" stroke="midnightblue" d="M143.041,-217C154.179,-217 165.764,-217 177.096,-217"/>
<polygon fill="midnightblue" stroke="midnightblue" points="177.412,-220.5 187.412,-217 177.412,-213.5 177.412,-220.5"/>
</g>
<!-- Node330 -->
<g id="node6" class="node"><title>Node330</title>
<g id="a_node6"><a xlink:href="class_json_1_1_our_reader.html#a90f6bb9e55b2bc3d6c1880809495c222" target="_top" xlink:title="Json::OurReader::readComment">
<polygon fill="none" stroke="black" points="179,-147.5 179,-166.5 337,-166.5 337,-147.5 179,-147.5"/>
<text text-anchor="middle" x="258" y="-154.5" font-family="Helvetica,sans-Serif" font-size="10.00">Json::OurReader::readComment</text>
</a>
</g>
</g>
<!-- Node325&#45;&gt;Node330 -->
<g id="edge7" class="edge"><title>Node325&#45;&gt;Node330</title>
<path fill="none" stroke="midnightblue" d="M101.735,-207.493C133.085,-197.297 183.036,-181.053 217.784,-169.753"/>
<polygon fill="midnightblue" stroke="midnightblue" points="219.17,-172.983 227.597,-166.562 217.005,-166.326 219.17,-172.983"/>
</g>
<!-- Node338 -->
<g id="node14" class="node"><title>Node338</title>
<g id="a_node14"><a xlink:href="class_json_1_1_our_reader.html#aefcb9a78cc45870ccac2db2a66c8ec50" target="_top" xlink:title="Json::OurReader::readNumber">
<polygon fill="none" stroke="black" points="183,-109.5 183,-128.5 333,-128.5 333,-109.5 183,-109.5"/>
<text text-anchor="middle" x="258" y="-116.5" font-family="Helvetica,sans-Serif" font-size="10.00">Json::OurReader::readNumber</text>
</a>
</g>
</g>
<!-- Node325&#45;&gt;Node338 -->
<g id="edge18" class="edge"><title>Node325&#45;&gt;Node338</title>
<path fill="none" stroke="midnightblue" d="M82.4716,-207.396C100.332,-190.731 139.608,-156.477 179,-138 184.254,-135.535 189.863,-133.37 195.572,-131.471"/>
<polygon fill="midnightblue" stroke="midnightblue" points="196.687,-134.791 205.229,-128.523 194.643,-128.096 196.687,-134.791"/>
</g>
<!-- Node339 -->
<g id="node15" class="node"><title>Node339</title>
<g id="a_node15"><a xlink:href="class_json_1_1_our_reader.html#a4a03f1b266def9b47c4fef35386557fb" target="_top" xlink:title="Json::OurReader::match">
<polygon fill="none" stroke="black" points="196,-71.5 196,-90.5 320,-90.5 320,-71.5 196,-71.5"/>
<text text-anchor="middle" x="258" y="-78.5" font-family="Helvetica,sans-Serif" font-size="10.00">Json::OurReader::match</text>
</a>
</g>
</g>
<!-- Node325&#45;&gt;Node339 -->
<g id="edge19" class="edge"><title>Node325&#45;&gt;Node339</title>
<path fill="none" stroke="midnightblue" d="M78.3479,-207.359C92.562,-184.793 131.287,-128.319 179,-100 182.708,-97.7992 186.659,-95.8529 190.74,-94.1316"/>
<polygon fill="midnightblue" stroke="midnightblue" points="192.3,-97.2853 200.445,-90.51 189.853,-90.727 192.3,-97.2853"/>
</g>
<!-- Node328&#45;&gt;Node327 -->
<g id="edge4" class="edge"><title>Node328&#45;&gt;Node327</title>
<path fill="none" stroke="midnightblue" d="M482.883,-251.459C514.385,-241.883 563.081,-227.079 597.703,-216.554"/>
<polygon fill="midnightblue" stroke="midnightblue" points="598.965,-219.829 607.514,-213.572 596.929,-213.132 598.965,-219.829"/>
</g>
<!-- Node329&#45;&gt;Node327 -->
<g id="edge6" class="edge"><title>Node329&#45;&gt;Node327</title>
<path fill="none" stroke="midnightblue" d="M328.698,-214.616C392.08,-212.447 485.804,-209.241 553.652,-206.92"/>
<polygon fill="midnightblue" stroke="midnightblue" points="554.014,-210.41 563.889,-206.57 553.775,-203.414 554.014,-210.41"/>
</g>
<!-- Node330&#45;&gt;Node327 -->
<g id="edge8" class="edge"><title>Node330&#45;&gt;Node327</title>
<path fill="none" stroke="midnightblue" d="M335.899,-166.511C398.994,-174.315 488.251,-185.355 553.566,-193.433"/>
<polygon fill="midnightblue" stroke="midnightblue" points="553.482,-196.949 563.836,-194.703 554.341,-190.002 553.482,-196.949"/>
</g>
<!-- Node331 -->
<g id="node7" class="node"><title>Node331</title>
<g id="a_node7"><a xlink:href="class_json_1_1_our_reader.html#aba784b125baa1b62387e767b791f2f89" target="_top" xlink:title="Json::OurReader::readCStyle\lComment">
<polygon fill="none" stroke="black" points="377.5,-126 377.5,-156 523.5,-156 523.5,-126 377.5,-126"/>
<text text-anchor="start" x="385.5" y="-144" font-family="Helvetica,sans-Serif" font-size="10.00">Json::OurReader::readCStyle</text>
<text text-anchor="middle" x="450.5" y="-133" font-family="Helvetica,sans-Serif" font-size="10.00">Comment</text>
</a>
</g>
</g>
<!-- Node330&#45;&gt;Node331 -->
<g id="edge9" class="edge"><title>Node330&#45;&gt;Node331</title>
<path fill="none" stroke="midnightblue" d="M337.033,-150.446C347.052,-149.605 357.333,-148.741 367.413,-147.894"/>
<polygon fill="midnightblue" stroke="midnightblue" points="367.738,-151.38 377.41,-147.055 367.152,-144.404 367.738,-151.38"/>
</g>
<!-- Node332 -->
<g id="node8" class="node"><title>Node332</title>
<g id="a_node8"><a xlink:href="class_json_1_1_our_reader.html#ae3de80671f0f997053e1c1c8a47a45c5" target="_top" xlink:title="Json::OurReader::readCpp\lStyleComment">
<polygon fill="none" stroke="black" points="383.5,-77 383.5,-107 517.5,-107 517.5,-77 383.5,-77"/>
<text text-anchor="start" x="391.5" y="-95" font-family="Helvetica,sans-Serif" font-size="10.00">Json::OurReader::readCpp</text>
<text text-anchor="middle" x="450.5" y="-84" font-family="Helvetica,sans-Serif" font-size="10.00">StyleComment</text>
</a>
</g>
</g>
<!-- Node330&#45;&gt;Node332 -->
<g id="edge11" class="edge"><title>Node330&#45;&gt;Node332</title>
<path fill="none" stroke="midnightblue" d="M307.538,-147.483C317.453,-144.901 327.694,-141.755 337,-138 354.178,-131.069 356.101,-124.586 373,-117 378.019,-114.747 383.304,-112.595 388.654,-110.567"/>
<polygon fill="midnightblue" stroke="midnightblue" points="390.11,-113.762 398.312,-107.056 387.718,-107.184 390.11,-113.762"/>
</g>
<!-- Node333 -->
<g id="node9" class="node"><title>Node333</title>
<g id="a_node9"><a xlink:href="namespace_json.html#a4d6ab0f651348832e5cc49b577a854d2" target="_top" xlink:title="Json::containsNewLine">
<polygon fill="none" stroke="black" points="391,-38.5 391,-57.5 510,-57.5 510,-38.5 391,-38.5"/>
<text text-anchor="middle" x="450.5" y="-45.5" font-family="Helvetica,sans-Serif" font-size="10.00">Json::containsNewLine</text>
</a>
</g>
</g>
<!-- Node330&#45;&gt;Node333 -->
<g id="edge13" class="edge"><title>Node330&#45;&gt;Node333</title>
<path fill="none" stroke="midnightblue" d="M320.6,-147.495C326.488,-145.009 332.085,-141.896 337,-138 364.727,-116.023 345.323,-89.0394 373,-67 375.623,-64.9115 378.444,-63.0486 381.402,-61.3875"/>
<polygon fill="midnightblue" stroke="midnightblue" points="383.108,-64.4518 390.624,-56.985 380.092,-58.1347 383.108,-64.4518"/>
</g>
<!-- Node335 -->
<g id="node11" class="node"><title>Node335</title>
<g id="a_node11"><a xlink:href="class_json_1_1_our_reader.html#ad7318c37469a9106069a236fb4b10e1f" target="_top" xlink:title="Json::OurReader::addComment">
<polygon fill="none" stroke="black" points="373,-0.5 373,-19.5 528,-19.5 528,-0.5 373,-0.5"/>
<text text-anchor="middle" x="450.5" y="-7.5" font-family="Helvetica,sans-Serif" font-size="10.00">Json::OurReader::addComment</text>
</a>
</g>
</g>
<!-- Node330&#45;&gt;Node335 -->
<g id="edge15" class="edge"><title>Node330&#45;&gt;Node335</title>
<path fill="none" stroke="midnightblue" d="M323.133,-147.322C328.182,-144.845 332.903,-141.781 337,-138 374.49,-103.397 335.588,-63.6871 373,-29 374.671,-27.4503 376.449,-26.0218 378.313,-24.7053"/>
<polygon fill="midnightblue" stroke="midnightblue" points="380.115,-27.7055 386.964,-19.622 376.569,-21.6701 380.115,-27.7055"/>
</g>
<!-- Node331&#45;&gt;Node327 -->
<g id="edge10" class="edge"><title>Node331&#45;&gt;Node327</title>
<path fill="none" stroke="midnightblue" d="M496.411,-156.09C528.24,-166.785 570.49,-180.981 600.721,-191.138"/>
<polygon fill="midnightblue" stroke="midnightblue" points="599.887,-194.55 610.481,-194.417 602.116,-187.915 599.887,-194.55"/>
</g>
<!-- Node332&#45;&gt;Node327 -->
<g id="edge12" class="edge"><title>Node332&#45;&gt;Node327</title>
<path fill="none" stroke="midnightblue" d="M505.575,-107.035C513.284,-109.93 520.974,-113.25 528,-117 564.421,-136.441 601.02,-168.016 621.761,-187.306"/>
<polygon fill="midnightblue" stroke="midnightblue" points="619.472,-189.958 629.145,-194.281 624.279,-184.87 619.472,-189.958"/>
</g>
<!-- Node334 -->
<g id="node10" class="node"><title>Node334</title>
<g id="a_node10"><a xlink:href="namespace_json.html#a97f039a107b3f6cf1c3edee50e978f76" target="_top" xlink:title="Json::throwRuntimeError">
<polygon fill="none" stroke="black" points="577.5,-38.5 577.5,-57.5 702.5,-57.5 702.5,-38.5 577.5,-38.5"/>
<text text-anchor="middle" x="640" y="-45.5" font-family="Helvetica,sans-Serif" font-size="10.00">Json::throwRuntimeError</text>
</a>
</g>
</g>
<!-- Node333&#45;&gt;Node334 -->
<g id="edge14" class="edge"><title>Node333&#45;&gt;Node334</title>
<path fill="none" stroke="midnightblue" d="M510.055,-48C528.18,-48 548.358,-48 567.27,-48"/>
<polygon fill="midnightblue" stroke="midnightblue" points="567.324,-51.5001 577.324,-48 567.324,-44.5001 567.324,-51.5001"/>
</g>
<!-- Node336 -->
<g id="node12" class="node"><title>Node336</title>
<g id="a_node12"><a xlink:href="namespace_json.html#a2e6b8616041876128cbef54b8c75da62" target="_top" xlink:title="Json::normalizeEOL">
<polygon fill="none" stroke="black" points="587.5,-0.5 587.5,-19.5 692.5,-19.5 692.5,-0.5 587.5,-0.5"/>
<text text-anchor="middle" x="640" y="-7.5" font-family="Helvetica,sans-Serif" font-size="10.00">Json::normalizeEOL</text>
</a>
</g>
</g>
<!-- Node335&#45;&gt;Node336 -->
<g id="edge16" class="edge"><title>Node335&#45;&gt;Node336</title>
<path fill="none" stroke="midnightblue" d="M528.034,-10C544.398,-10 561.487,-10 577.212,-10"/>
<polygon fill="midnightblue" stroke="midnightblue" points="577.328,-13.5001 587.328,-10 577.328,-6.5001 577.328,-13.5001"/>
</g>
<!-- Node337 -->
<g id="node13" class="node"><title>Node337</title>
<g id="a_node13"><a xlink:href="namespace_json.html#adf0456e397a18cd7218a7b51dfc13c73" target="_top" xlink:title="Converts a unicode code&#45;point to UTF&#45;8. ">
<polygon fill="none" stroke="black" points="752,-0.5 752,-19.5 875,-19.5 875,-0.5 752,-0.5"/>
<text text-anchor="middle" x="813.5" y="-7.5" font-family="Helvetica,sans-Serif" font-size="10.00">Json::codePointToUTF8</text>
</a>
</g>
</g>
<!-- Node336&#45;&gt;Node337 -->
<g id="edge17" class="edge"><title>Node336&#45;&gt;Node337</title>
<path fill="none" stroke="midnightblue" d="M692.921,-10C708.27,-10 725.341,-10 741.668,-10"/>
<polygon fill="midnightblue" stroke="midnightblue" points="741.715,-13.5001 751.715,-10 741.715,-6.5001 741.715,-13.5001"/>
</g>
</g>
</svg>
