<?xml version="1.0" encoding="UTF-8" standalone="no"?>
<!DOCTYPE svg PUBLIC "-//W3C//DTD SVG 1.1//EN"
 "http://www.w3.org/Graphics/SVG/1.1/DTD/svg11.dtd">
<!-- Generated by graphviz version 2.38.0 (20140413.2041)
 -->
<!-- Title: Json::OurReader::getLocationLineAndColumn Pages: 1 -->
<svg width="494pt" height="88pt"
 viewBox="0.00 0.00 494.00 88.00" xmlns="http://www.w3.org/2000/svg" xmlns:xlink="http://www.w3.org/1999/xlink">
<g id="graph0" class="graph" transform="scale(1 1) rotate(0) translate(4 84)">
<title>Json::OurReader::getLocationLineAndColumn</title>
<!-- Node113 -->
<g id="node1" class="node"><title>Node113</title>
<polygon fill="#bfbfbf" stroke="black" points="0,-24.5 0,-54.5 147,-54.5 147,-24.5 0,-24.5"/>
<text text-anchor="start" x="8" y="-42.5" font-family="Helvetica,sans-Serif" font-size="10.00">Json::OurReader::getLocation</text>
<text text-anchor="middle" x="73.5" y="-31.5" font-family="Helvetica,sans-Serif" font-size="10.00">LineAndColumn</text>
</g>
<!-- Node114 -->
<g id="node2" class="node"><title>Node114</title>
<g id="a_node2"><a xlink:href="class_json_1_1_our_reader.html#a579a7d2e493f63c4b122103844e3cedd" target="_top" xlink:title="Json::OurReader::getLocation\lLineAndColumn">
<polygon fill="none" stroke="black" points="187,-49.5 187,-79.5 334,-79.5 334,-49.5 187,-49.5"/>
<text text-anchor="start" x="195" y="-67.5" font-family="Helvetica,sans-Serif" font-size="10.00">Json::OurReader::getLocation</text>
<text text-anchor="middle" x="260.5" y="-56.5" font-family="Helvetica,sans-Serif" font-size="10.00">LineAndColumn</text>
</a>
</g>
</g>
<!-- Node113&#45;&gt;Node114 -->
<g id="edge1" class="edge"><title>Node113&#45;&gt;Node114</title>
<path fill="none" stroke="midnightblue" d="M157.278,-50.6862C167.127,-52.0172 177.126,-53.3684 186.82,-54.6783"/>
<polygon fill="midnightblue" stroke="midnightblue" points="157.465,-47.1797 147.086,-49.3089 156.527,-54.1166 157.465,-47.1797"/>
</g>
<!-- Node115 -->
<g id="node3" class="node"><title>Node115</title>
<g id="a_node3"><a xlink:href="class_json_1_1_our_reader.html#ae9cbb7dbd9c6c96be37432e8dfa1afcb" target="_top" xlink:title="Json::OurReader::getFormatted\lErrorMessages">
<polygon fill="none" stroke="black" points="183,-0.5 183,-30.5 338,-30.5 338,-0.5 183,-0.5"/>
<text text-anchor="start" x="191" y="-18.5" font-family="Helvetica,sans-Serif" font-size="10.00">Json::OurReader::getFormatted</text>
<text text-anchor="middle" x="260.5" y="-7.5" font-family="Helvetica,sans-Serif" font-size="10.00">ErrorMessages</text>
</a>
</g>
</g>
<!-- Node113&#45;&gt;Node115 -->
<g id="edge2" class="edge"><title>Node113&#45;&gt;Node115</title>
<path fill="none" stroke="midnightblue" d="M157.082,-28.7866C165.658,-27.6741 174.349,-26.5466 182.855,-25.4431"/>
<polygon fill="midnightblue" stroke="midnightblue" points="156.553,-25.3259 147.086,-30.0834 157.453,-32.2678 156.553,-25.3259"/>
</g>
<!-- Node116 -->
<g id="node4" class="node"><title>Node116</title>
<g id="a_node4"><a xlink:href="class_json_1_1_our_char_reader.html#a52a1fb5fee88d9b63dd462f63b1c9570" target="_top" xlink:title="Json::OurCharReader\l::parse">
<polygon fill="none" stroke="black" points="374,-0.5 374,-30.5 486,-30.5 486,-0.5 374,-0.5"/>
<text text-anchor="start" x="382" y="-18.5" font-family="Helvetica,sans-Serif" font-size="10.00">Json::OurCharReader</text>
<text text-anchor="middle" x="430" y="-7.5" font-family="Helvetica,sans-Serif" font-size="10.00">::parse</text>
</a>
</g>
</g>
<!-- Node115&#45;&gt;Node116 -->
<g id="edge3" class="edge"><title>Node115&#45;&gt;Node116</title>
<path fill="none" stroke="midnightblue" d="M348.423,-15.5C356.974,-15.5 365.48,-15.5 373.585,-15.5"/>
<polygon fill="midnightblue" stroke="midnightblue" points="348.387,-12.0001 338.387,-15.5 348.387,-19.0001 348.387,-12.0001"/>
</g>
</g>
</svg>
