<?xml version="1.0" encoding="UTF-8" standalone="no"?>
<!DOCTYPE svg PUBLIC "-//W3C//DTD SVG 1.1//EN"
 "http://www.w3.org/Graphics/SVG/1.1/DTD/svg11.dtd">
<!-- Generated by graphviz version 2.38.0 (20140413.2041)
 -->
<!-- Title: Json::OurReader::readNumber Pages: 1 -->
<!--zoomable 176 -->
<svg id="main" version="1.1" xmlns="http://www.w3.org/2000/svg" xmlns:xlink="http://www.w3.org/1999/xlink" xml:space="preserve" onload="init(evt)">
<style type="text/css"><![CDATA[
.edge:hover path { stroke: red; }
.edge:hover polygon { stroke: red; fill: red; }
]]></style>
<script type="text/javascript"><![CDATA[
var edges = document.getElementsByTagName('g');
if (edges && edges.length) {
  for (var i=0;i<edges.length;i++) {
    if (edges[i].id.substr(0,4)=='edge') {
      edges[i].setAttribute('class','edge');
    }
  }
}
]]></script>
        <defs>
                <circle id="rim" cx="0" cy="0" r="7"/>
                <circle id="rim2" cx="0" cy="0" r="3.5"/>
                <g id="zoomPlus">
                        <use xlink:href="#rim" fill="#404040">
                                <set attributeName="fill" to="#808080" begin="zoomplus.mouseover" end="zoomplus.mouseout"/>
                        </use>
                        <path d="M-4,0h8M0,-4v8" fill="none" stroke="white" stroke-width="1.5" pointer-events="none"/>
                </g>
                <g id="zoomMin">
                        <use xlink:href="#rim" fill="#404040">
                                <set attributeName="fill" to="#808080" begin="zoomminus.mouseover" end="zoomminus.mouseout"/>
                        </use>
                        <path d="M-4,0h8" fill="none" stroke="white" stroke-width="1.5" pointer-events="none"/>
                </g>
                <g id="dirArrow">
                        <path fill="none" stroke="white" stroke-width="1.5" d="M0,-3.0v7 M-2.5,-0.5L0,-3.0L2.5,-0.5"/>
                </g>
               <g id="resetDef">
                       <use xlink:href="#rim2" fill="#404040">
                               <set attributeName="fill" to="#808080" begin="reset.mouseover" end="reset.mouseout"/>
                       </use>
               </g>
        </defs>

<script type="text/javascript">
var viewWidth = 1035;
var viewHeight = 176;
var sectionId = 'dynsection-36';
</script>
<script xlink:href="svgpan.js"/>
<svg id="graph" class="graph">
<g id="viewport">
<title>Json::OurReader::readNumber</title>
<!-- Node261 -->
<g id="node1" class="node"><title>Node261</title>
<polygon fill="#bfbfbf" stroke="black" points="0,-66.056 0,-85.056 150,-85.056 150,-66.056 0,-66.056"/>
<text text-anchor="middle" x="75" y="-73.056" font-family="Helvetica,sans-Serif" font-size="10.00">Json::OurReader::readNumber</text>
</g>
<!-- Node262 -->
<g id="node2" class="node"><title>Node262</title>
<g id="a_node2"><a xlink:href="class_json_1_1_our_reader.html#a0d1e66da47fe2e85f5033c59326dfdc3" target="_top" xlink:title="Json::OurReader::readToken">
<polygon fill="none" stroke="black" points="186,-66.056 186,-85.056 329,-85.056 329,-66.056 186,-66.056"/>
<text text-anchor="middle" x="257.5" y="-73.056" font-family="Helvetica,sans-Serif" font-size="10.00">Json::OurReader::readToken</text>
</a>
</g>
</g>
<!-- Node261&#45;&gt;Node262 -->
<g id="edge1" class="edge"><title>Node261&#45;&gt;Node262</title>
<path fill="none" stroke="midnightblue" d="M160.475,-75.556C168.944,-75.556 177.482,-75.556 185.787,-75.556"/>
<polygon fill="midnightblue" stroke="midnightblue" points="160.198,-72.0561 150.198,-75.556 160.198,-79.0561 160.198,-72.0561"/>
</g>
<!-- Node263 -->
<g id="node3" class="node"><title>Node263</title>
<g id="a_node3"><a xlink:href="class_json_1_1_our_reader.html#a856dea44d92578c276856d7a65a4ebdc" target="_top" xlink:title="Json::OurReader::skipComment\lTokens">
<polygon fill="none" stroke="black" points="365,-85.556 365,-115.556 523,-115.556 523,-85.556 365,-85.556"/>
<text text-anchor="start" x="373" y="-103.556" font-family="Helvetica,sans-Serif" font-size="10.00">Json::OurReader::skipComment</text>
<text text-anchor="middle" x="444" y="-92.556" font-family="Helvetica,sans-Serif" font-size="10.00">Tokens</text>
</a>
</g>
</g>
<!-- Node262&#45;&gt;Node263 -->
<g id="edge2" class="edge"><title>Node262&#45;&gt;Node263</title>
<path fill="none" stroke="midnightblue" d="M338.847,-86.4432C347.497,-87.6152 356.288,-88.8064 364.91,-89.9747"/>
<polygon fill="midnightblue" stroke="midnightblue" points="339.157,-82.9532 328.778,-85.0787 338.217,-89.8899 339.157,-82.9532"/>
</g>
<!-- Node267 -->
<g id="node7" class="node"><title>Node267</title>
<g id="a_node7"><a xlink:href="class_json_1_1_our_reader.html#aea198f8101dba55099f4d8121a993530" target="_top" xlink:title="Json::OurReader::readObject">
<polygon fill="none" stroke="black" points="735,-86.056 735,-105.056 879,-105.056 879,-86.056 735,-86.056"/>
<text text-anchor="middle" x="807" y="-93.056" font-family="Helvetica,sans-Serif" font-size="10.00">Json::OurReader::readObject</text>
</a>
</g>
</g>
<!-- Node262&#45;&gt;Node267 -->
<g id="edge11" class="edge"><title>Node262&#45;&gt;Node267</title>
<path fill="none" stroke="midnightblue" d="M283.284,-90.1663C304.272,-101.739 335.56,-117.149 365,-124.556 509.05,-160.801 552.939,-163.582 699,-136.556 731.276,-130.584 766.396,-115.278 787.286,-105.151"/>
<polygon fill="midnightblue" stroke="midnightblue" points="284.839,-87.0249 274.409,-85.1617 281.401,-93.1223 284.839,-87.0249"/>
</g>
<!-- Node268 -->
<g id="node8" class="node"><title>Node268</title>
<g id="a_node8"><a xlink:href="class_json_1_1_our_reader.html#a0b9f58faf4212c6ecb5d8e2a1ac10257" target="_top" xlink:title="Json::OurReader::readArray">
<polygon fill="none" stroke="black" points="737.5,-42.056 737.5,-61.056 876.5,-61.056 876.5,-42.056 737.5,-42.056"/>
<text text-anchor="middle" x="807" y="-49.056" font-family="Helvetica,sans-Serif" font-size="10.00">Json::OurReader::readArray</text>
</a>
</g>
</g>
<!-- Node262&#45;&gt;Node268 -->
<g id="edge12" class="edge"><title>Node262&#45;&gt;Node268</title>
<path fill="none" stroke="midnightblue" d="M283.255,-60.827C304.226,-49.1836 335.504,-33.7362 365,-26.556 509.285,8.56752 552.255,5.19804 699,-17.556 728.855,-22.1853 761.783,-33.6729 783.118,-42.0168"/>
<polygon fill="midnightblue" stroke="midnightblue" points="281.353,-57.8819 274.388,-65.8656 284.812,-63.9678 281.353,-57.8819"/>
</g>
<!-- Node269 -->
<g id="node9" class="node"><title>Node269</title>
<g id="a_node9"><a xlink:href="class_json_1_1_our_reader.html#a035651f0700a76a815e5f904c63ebb1c" target="_top" xlink:title="Json::OurReader::recover\lFromError">
<polygon fill="none" stroke="black" points="379.5,-36.556 379.5,-66.556 508.5,-66.556 508.5,-36.556 379.5,-36.556"/>
<text text-anchor="start" x="387.5" y="-54.556" font-family="Helvetica,sans-Serif" font-size="10.00">Json::OurReader::recover</text>
<text text-anchor="middle" x="444" y="-43.556" font-family="Helvetica,sans-Serif" font-size="10.00">FromError</text>
</a>
</g>
</g>
<!-- Node262&#45;&gt;Node269 -->
<g id="edge13" class="edge"><title>Node262&#45;&gt;Node269</title>
<path fill="none" stroke="midnightblue" d="M339.249,-65.052C352.708,-63.3013 366.498,-61.5074 379.451,-59.8226"/>
<polygon fill="midnightblue" stroke="midnightblue" points="338.506,-61.6191 329.041,-66.3799 339.409,-68.5606 338.506,-61.6191"/>
</g>
<!-- Node264 -->
<g id="node4" class="node"><title>Node264</title>
<g id="a_node4"><a xlink:href="class_json_1_1_our_reader.html#aba4f8749aab7f02ec17f107e392caf80" target="_top" xlink:title="Json::OurReader::parse">
<polygon fill="none" stroke="black" points="746.5,-143.056 746.5,-162.056 867.5,-162.056 867.5,-143.056 746.5,-143.056"/>
<text text-anchor="middle" x="807" y="-150.056" font-family="Helvetica,sans-Serif" font-size="10.00">Json::OurReader::parse</text>
</a>
</g>
</g>
<!-- Node263&#45;&gt;Node264 -->
<g id="edge3" class="edge"><title>Node263&#45;&gt;Node264</title>
<path fill="none" stroke="midnightblue" d="M493.963,-118.87C513.868,-125.561 537.261,-132.481 559,-136.556 622.249,-148.411 696.02,-151.871 746.36,-152.702"/>
<polygon fill="midnightblue" stroke="midnightblue" points="495.09,-115.557 484.495,-115.618 492.815,-122.177 495.09,-115.557"/>
</g>
<!-- Node266 -->
<g id="node6" class="node"><title>Node266</title>
<g id="a_node6"><a xlink:href="class_json_1_1_our_reader.html#a1765d9670d191c89a57a22ea5591d35f" target="_top" xlink:title="Json::OurReader::readValue">
<polygon fill="none" stroke="black" points="559,-86.056 559,-105.056 699,-105.056 699,-86.056 559,-86.056"/>
<text text-anchor="middle" x="629" y="-93.056" font-family="Helvetica,sans-Serif" font-size="10.00">Json::OurReader::readValue</text>
</a>
</g>
</g>
<!-- Node263&#45;&gt;Node266 -->
<g id="edge5" class="edge"><title>Node263&#45;&gt;Node266</title>
<path fill="none" stroke="midnightblue" d="M533.194,-98.1463C541.789,-97.9115 550.424,-97.6756 558.793,-97.4469"/>
<polygon fill="midnightblue" stroke="midnightblue" points="533.04,-94.6491 523.139,-98.421 533.231,-101.647 533.04,-94.6491"/>
</g>
<!-- Node265 -->
<g id="node5" class="node"><title>Node265</title>
<g id="a_node5"><a xlink:href="class_json_1_1_our_char_reader.html#a52a1fb5fee88d9b63dd462f63b1c9570" target="_top" xlink:title="Json::OurCharReader\l::parse">
<polygon fill="none" stroke="black" points="915,-137.556 915,-167.556 1027,-167.556 1027,-137.556 915,-137.556"/>
<text text-anchor="start" x="923" y="-155.556" font-family="Helvetica,sans-Serif" font-size="10.00">Json::OurCharReader</text>
<text text-anchor="middle" x="971" y="-144.556" font-family="Helvetica,sans-Serif" font-size="10.00">::parse</text>
</a>
</g>
</g>
<!-- Node264&#45;&gt;Node265 -->
<g id="edge4" class="edge"><title>Node264&#45;&gt;Node265</title>
<path fill="none" stroke="midnightblue" d="M878.109,-152.556C890.434,-152.556 903.101,-152.556 914.941,-152.556"/>
<polygon fill="midnightblue" stroke="midnightblue" points="877.863,-149.056 867.863,-152.556 877.863,-156.056 877.863,-149.056"/>
</g>
<!-- Node266&#45;&gt;Node264 -->
<g id="edge6" class="edge"><title>Node266&#45;&gt;Node264</title>
<path fill="none" stroke="midnightblue" d="M669.077,-108.212C701.521,-118.719 746.968,-133.438 776.445,-142.984"/>
<polygon fill="midnightblue" stroke="midnightblue" points="670.05,-104.848 659.458,-105.096 667.894,-111.507 670.05,-104.848"/>
</g>
<!-- Node266&#45;&gt;Node267 -->
<g id="edge7" class="edge"><title>Node266&#45;&gt;Node267</title>
<path fill="none" stroke="midnightblue" d="M709.06,-88.837C717.645,-88.7772 726.345,-88.8038 734.828,-88.9169"/>
<polygon fill="midnightblue" stroke="midnightblue" points="709.016,-85.3372 699.055,-88.947 709.093,-92.3368 709.016,-85.3372"/>
</g>
<!-- Node266&#45;&gt;Node268 -->
<g id="edge9" class="edge"><title>Node266&#45;&gt;Node268</title>
<path fill="none" stroke="midnightblue" d="M659.768,-82.9024C682.106,-75.9055 713.525,-67.6108 741.518,-61.1454"/>
<polygon fill="midnightblue" stroke="midnightblue" points="658.619,-79.5958 650.189,-86.0147 660.782,-86.2533 658.619,-79.5958"/>
</g>
<!-- Node267&#45;&gt;Node266 -->
<g id="edge8" class="edge"><title>Node267&#45;&gt;Node266</title>
<path fill="none" stroke="midnightblue" d="M724.79,-102.288C716.188,-102.334 707.499,-102.292 699.055,-102.165"/>
<polygon fill="midnightblue" stroke="midnightblue" points="724.861,-105.788 734.828,-102.195 724.796,-98.788 724.861,-105.788"/>
</g>
<!-- Node268&#45;&gt;Node266 -->
<g id="edge10" class="edge"><title>Node268&#45;&gt;Node266</title>
<path fill="none" stroke="midnightblue" d="M776.054,-64.2652C753.742,-71.2459 722.442,-79.5076 694.537,-85.9539"/>
<polygon fill="midnightblue" stroke="midnightblue" points="777.196,-67.5743 785.628,-61.1591 775.036,-60.9159 777.196,-67.5743"/>
</g>
<!-- Node269&#45;&gt;Node267 -->
<g id="edge14" class="edge"><title>Node269&#45;&gt;Node267</title>
<path fill="none" stroke="midnightblue" d="M514.838,-70.932C517.653,-72.3712 520.387,-73.9105 523,-75.556 542.962,-88.1249 537.391,-105.095 559,-114.556 634.053,-147.417 734.181,-120.85 780.505,-105.104"/>
<polygon fill="midnightblue" stroke="midnightblue" points="516.167,-67.6903 505.621,-66.6686 513.228,-74.0436 516.167,-67.6903"/>
</g>
<!-- Node269&#45;&gt;Node268 -->
<g id="edge15" class="edge"><title>Node269&#45;&gt;Node268</title>
<path fill="none" stroke="midnightblue" d="M511.943,-34.3552C527.3,-31.1142 543.632,-28.2213 559,-26.556 620.86,-19.8527 637.187,-19.4308 699,-26.556 724.395,-29.4832 752.521,-36.1957 773.561,-41.9287"/>
<polygon fill="midnightblue" stroke="midnightblue" points="511.033,-30.9712 502.011,-36.5258 512.528,-37.8097 511.033,-30.9712"/>
</g>
<!-- Node270 -->
<g id="node10" class="node"><title>Node270</title>
<g id="a_node10"><a xlink:href="class_json_1_1_our_reader.html#ae68a7047acd692be8077e259d524c6d9" target="_top" xlink:title="Json::OurReader::addError\lAndRecover">
<polygon fill="none" stroke="black" points="562,-36.556 562,-66.556 696,-66.556 696,-36.556 562,-36.556"/>
<text text-anchor="start" x="570" y="-54.556" font-family="Helvetica,sans-Serif" font-size="10.00">Json::OurReader::addError</text>
<text text-anchor="middle" x="629" y="-43.556" font-family="Helvetica,sans-Serif" font-size="10.00">AndRecover</text>
</a>
</g>
</g>
<!-- Node269&#45;&gt;Node270 -->
<g id="edge16" class="edge"><title>Node269&#45;&gt;Node270</title>
<path fill="none" stroke="midnightblue" d="M518.986,-51.556C533.219,-51.556 548.038,-51.556 561.997,-51.556"/>
<polygon fill="midnightblue" stroke="midnightblue" points="518.748,-48.0561 508.748,-51.556 518.748,-55.0561 518.748,-48.0561"/>
</g>
<!-- Node270&#45;&gt;Node267 -->
<g id="edge17" class="edge"><title>Node270&#45;&gt;Node267</title>
<path fill="none" stroke="midnightblue" d="M699.896,-69.03C723.105,-74.8323 748.07,-81.0736 767.95,-86.0436"/>
<polygon fill="midnightblue" stroke="midnightblue" points="700.627,-65.6052 690.077,-66.5752 698.929,-72.3962 700.627,-65.6052"/>
</g>
<!-- Node270&#45;&gt;Node268 -->
<g id="edge18" class="edge"><title>Node270&#45;&gt;Node268</title>
<path fill="none" stroke="midnightblue" d="M706.248,-51.556C716.554,-51.556 727.078,-51.556 737.243,-51.556"/>
<polygon fill="midnightblue" stroke="midnightblue" points="706.037,-48.0561 696.037,-51.556 706.037,-55.0561 706.037,-48.0561"/>
</g>
</g>
</svg>
        <g id="navigator" transform="translate(0 0)" fill="#404254">
                <rect fill="#f2f5e9" fill-opacity="0.5" stroke="#606060" stroke-width=".5" x="0" y="0" width="60" height="60"/>
                <use id="zoomplus" xlink:href="#zoomPlus" x="17" y="9" onmousedown="handleZoom(evt,'in')"/>
                <use id="zoomminus" xlink:href="#zoomMin" x="42" y="9" onmousedown="handleZoom(evt,'out')"/>
                <use id="reset" xlink:href="#resetDef" x="30" y="36" onmousedown="handleReset()"/>
                <g id="arrowUp" xlink:href="#dirArrow" transform="translate(30 24)" onmousedown="handlePan(0,-1)">
                  <use xlink:href="#rim" fill="#404040">
                        <set attributeName="fill" to="#808080" begin="arrowUp.mouseover" end="arrowUp.mouseout"/>
                  </use>
                  <path fill="none" stroke="white" stroke-width="1.5" d="M0,-3.0v7 M-2.5,-0.5L0,-3.0L2.5,-0.5"/>
                </g>
                <g id="arrowRight" xlink:href="#dirArrow" transform="rotate(90) translate(36 -43)" onmousedown="handlePan(1,0)">
                  <use xlink:href="#rim" fill="#404040">
                        <set attributeName="fill" to="#808080" begin="arrowRight.mouseover" end="arrowRight.mouseout"/>
                  </use>
                  <path fill="none" stroke="white" stroke-width="1.5" d="M0,-3.0v7 M-2.5,-0.5L0,-3.0L2.5,-0.5"/>
                </g>
                <g id="arrowDown" xlink:href="#dirArrow" transform="rotate(180) translate(-30 -48)" onmousedown="handlePan(0,1)">
                  <use xlink:href="#rim" fill="#404040">
                        <set attributeName="fill" to="#808080" begin="arrowDown.mouseover" end="arrowDown.mouseout"/>
                  </use>
                  <path fill="none" stroke="white" stroke-width="1.5" d="M0,-3.0v7 M-2.5,-0.5L0,-3.0L2.5,-0.5"/>
                </g>
                <g id="arrowLeft" xlink:href="#dirArrow" transform="rotate(270) translate(-36 17)" onmousedown="handlePan(-1,0)">
                  <use xlink:href="#rim" fill="#404040">
                        <set attributeName="fill" to="#808080" begin="arrowLeft.mouseover" end="arrowLeft.mouseout"/>
                  </use>
                  <path fill="none" stroke="white" stroke-width="1.5" d="M0,-3.0v7 M-2.5,-0.5L0,-3.0L2.5,-0.5"/>
                </g>
        </g>
        <svg viewBox="0 0 15 15" width="100%" height="30px" preserveAspectRatio="xMaxYMin meet">
         <g id="arrow_out" transform="scale(0.3 0.3)">
          <a xlink:href="class_json_1_1_our_reader_aefcb9a78cc45870ccac2db2a66c8ec50_icgraph_org.svg" target="_base">
           <rect id="button" ry="5" rx="5" y="6" x="6" height="38" width="38"
                fill="#f2f5e9" fill-opacity="0.5" stroke="#606060" stroke-width="1.0"/>
           <path id="arrow"
             d="M 11.500037,31.436501 C 11.940474,20.09759 22.043105,11.32322 32.158766,21.979434 L 37.068811,17.246167 C 37.068811,17.246167 37.088388,32 37.088388,32 L 22.160133,31.978069 C 22.160133,31.978069 26.997745,27.140456 26.997745,27.140456 C 18.528582,18.264221 13.291696,25.230495 11.500037,31.436501 z"
             style="fill:#404040;"/>
          </a>
         </g>
        </svg>
</svg>
