<?xml version="1.0" encoding="UTF-8" standalone="no"?>
<!DOCTYPE svg PUBLIC "-//W3C//DTD SVG 1.1//EN"
 "http://www.w3.org/Graphics/SVG/1.1/DTD/svg11.dtd">
<!-- Generated by graphviz version 2.38.0 (20140413.2041)
 -->
<!-- Title: Json::OurReader::readArray Pages: 1 -->
<!--zoomable 542 -->
<svg id="main" version="1.1" xmlns="http://www.w3.org/2000/svg" xmlns:xlink="http://www.w3.org/1999/xlink" xml:space="preserve" onload="init(evt)">
<style type="text/css"><![CDATA[
.edge:hover path { stroke: red; }
.edge:hover polygon { stroke: red; fill: red; }
]]></style>
<script type="text/javascript"><![CDATA[
var edges = document.getElementsByTagName('g');
if (edges && edges.length) {
  for (var i=0;i<edges.length;i++) {
    if (edges[i].id.substr(0,4)=='edge') {
      edges[i].setAttribute('class','edge');
    }
  }
}
]]></script>
        <defs>
                <circle id="rim" cx="0" cy="0" r="7"/>
                <circle id="rim2" cx="0" cy="0" r="3.5"/>
                <g id="zoomPlus">
                        <use xlink:href="#rim" fill="#404040">
                                <set attributeName="fill" to="#808080" begin="zoomplus.mouseover" end="zoomplus.mouseout"/>
                        </use>
                        <path d="M-4,0h8M0,-4v8" fill="none" stroke="white" stroke-width="1.5" pointer-events="none"/>
                </g>
                <g id="zoomMin">
                        <use xlink:href="#rim" fill="#404040">
                                <set attributeName="fill" to="#808080" begin="zoomminus.mouseover" end="zoomminus.mouseout"/>
                        </use>
                        <path d="M-4,0h8" fill="none" stroke="white" stroke-width="1.5" pointer-events="none"/>
                </g>
                <g id="dirArrow">
                        <path fill="none" stroke="white" stroke-width="1.5" d="M0,-3.0v7 M-2.5,-0.5L0,-3.0L2.5,-0.5"/>
                </g>
               <g id="resetDef">
                       <use xlink:href="#rim2" fill="#404040">
                               <set attributeName="fill" to="#808080" begin="reset.mouseover" end="reset.mouseout"/>
                       </use>
               </g>
        </defs>

<script type="text/javascript">
var viewWidth = 1797;
var viewHeight = 542;
var sectionId = 'dynsection-28';
</script>
<script xlink:href="svgpan.js"/>
<svg id="graph" class="graph">
<g id="viewport">
<title>Json::OurReader::readArray</title>
<!-- Node185 -->
<g id="node1" class="node"><title>Node185</title>
<polygon fill="#bfbfbf" stroke="black" points="0,-179.5 0,-198.5 139,-198.5 139,-179.5 0,-179.5"/>
<text text-anchor="middle" x="69.5" y="-186.5" font-family="Helvetica,sans-Serif" font-size="10.00">Json::OurReader::readArray</text>
</g>
<!-- Node186 -->
<g id="node2" class="node"><title>Node186</title>
<g id="a_node2"><a xlink:href="class_json_1_1_our_reader.html#a2acd5b1d53e7d7e17c21ff8e96edc09d" target="_top" xlink:title="Json::OurReader::current\lValue">
<polygon fill="none" stroke="black" points="747.5,-440 747.5,-470 874.5,-470 874.5,-440 747.5,-440"/>
<text text-anchor="start" x="755.5" y="-458" font-family="Helvetica,sans-Serif" font-size="10.00">Json::OurReader::current</text>
<text text-anchor="middle" x="811" y="-447" font-family="Helvetica,sans-Serif" font-size="10.00">Value</text>
</a>
</g>
</g>
<!-- Node185&#45;&gt;Node186 -->
<g id="edge1" class="edge"><title>Node185&#45;&gt;Node186</title>
<path fill="none" stroke="midnightblue" d="M74.4099,-198.57C86.1311,-226.348 123.384,-308.289 175,-360 239.835,-424.955 264.534,-437.238 351,-468 500.884,-521.324 551.558,-522.888 708,-494 729.115,-490.101 751.511,-482.018 769.922,-474.217"/>
<polygon fill="midnightblue" stroke="midnightblue" points="771.393,-477.394 779.159,-470.187 768.594,-470.978 771.393,-477.394"/>
</g>
<!-- Node187 -->
<g id="node3" class="node"><title>Node187</title>
<g id="a_node3"><a xlink:href="class_json_1_1_our_reader.html#a6fbc6d58a4505e5ccadf330b57b17ca5" target="_top" xlink:title="Json::OurReader::skipSpaces">
<polygon fill="none" stroke="black" points="1098,-0.5 1098,-19.5 1246,-19.5 1246,-0.5 1098,-0.5"/>
<text text-anchor="middle" x="1172" y="-7.5" font-family="Helvetica,sans-Serif" font-size="10.00">Json::OurReader::skipSpaces</text>
</a>
</g>
</g>
<!-- Node185&#45;&gt;Node187 -->
<g id="edge2" class="edge"><title>Node185&#45;&gt;Node187</title>
<path fill="none" stroke="midnightblue" d="M76.7264,-179.177C91.1425,-157.294 129.112,-104.389 175,-78 275.466,-20.224 313.106,-19 429,-19 429,-19 429,-19 812,-19 906.528,-19 1015.01,-15.843 1087.76,-13.2686"/>
<polygon fill="midnightblue" stroke="midnightblue" points="1087.92,-16.7654 1097.79,-12.9096 1087.67,-9.7699 1087.92,-16.7654"/>
</g>
<!-- Node188 -->
<g id="node4" class="node"><title>Node188</title>
<g id="a_node4"><a xlink:href="class_json_1_1_our_reader.html#a0d1e66da47fe2e85f5033c59326dfdc3" target="_top" xlink:title="Json::OurReader::readToken">
<polygon fill="none" stroke="black" points="914,-164.5 914,-183.5 1057,-183.5 1057,-164.5 914,-164.5"/>
<text text-anchor="middle" x="985.5" y="-171.5" font-family="Helvetica,sans-Serif" font-size="10.00">Json::OurReader::readToken</text>
</a>
</g>
</g>
<!-- Node185&#45;&gt;Node188 -->
<g id="edge3" class="edge"><title>Node185&#45;&gt;Node188</title>
<path fill="none" stroke="midnightblue" d="M85.8923,-179.322C134.34,-149.818 288.81,-63 429,-63 429,-63 429,-63 627.5,-63 739.915,-63 773.576,-56.3747 878,-98 912.894,-111.909 947.149,-139.564 967.029,-157.4"/>
<polygon fill="midnightblue" stroke="midnightblue" points="964.894,-160.191 974.629,-164.374 969.627,-155.034 964.894,-160.191"/>
</g>
<!-- Node202 -->
<g id="node18" class="node"><title>Node202</title>
<g id="a_node18"><a xlink:href="class_json_1_1_our_reader.html#a1765d9670d191c89a57a22ea5591d35f" target="_top" xlink:title="Json::OurReader::readValue">
<polygon fill="none" stroke="black" points="175,-331.5 175,-350.5 315,-350.5 315,-331.5 175,-331.5"/>
<text text-anchor="middle" x="245" y="-338.5" font-family="Helvetica,sans-Serif" font-size="10.00">Json::OurReader::readValue</text>
</a>
</g>
</g>
<!-- Node185&#45;&gt;Node202 -->
<g id="edge23" class="edge"><title>Node185&#45;&gt;Node202</title>
<path fill="none" stroke="midnightblue" d="M86.203,-198.677C119.423,-224.195 196.435,-291.689 229.014,-323.869"/>
<polygon fill="midnightblue" stroke="midnightblue" points="226.772,-326.581 236.286,-331.243 231.756,-321.665 226.772,-326.581"/>
</g>
<!-- Node206 -->
<g id="node22" class="node"><title>Node206</title>
<g id="a_node22"><a xlink:href="class_json_1_1_our_reader.html#a035651f0700a76a815e5f904c63ebb1c" target="_top" xlink:title="Json::OurReader::recover\lFromError">
<polygon fill="none" stroke="black" points="746.5,-165 746.5,-195 875.5,-195 875.5,-165 746.5,-165"/>
<text text-anchor="start" x="754.5" y="-183" font-family="Helvetica,sans-Serif" font-size="10.00">Json::OurReader::recover</text>
<text text-anchor="middle" x="811" y="-172" font-family="Helvetica,sans-Serif" font-size="10.00">FromError</text>
</a>
</g>
</g>
<!-- Node185&#45;&gt;Node206 -->
<g id="edge46" class="edge"><title>Node185&#45;&gt;Node206</title>
<path fill="none" stroke="midnightblue" d="M139.075,-188.165C278.33,-186.471 593.148,-182.639 736.464,-180.895"/>
<polygon fill="midnightblue" stroke="midnightblue" points="736.525,-184.395 746.482,-180.773 736.44,-177.395 736.525,-184.395"/>
</g>
<!-- Node208 -->
<g id="node24" class="node"><title>Node208</title>
<g id="a_node24"><a xlink:href="class_json_1_1_our_reader.html#ae68a7047acd692be8077e259d524c6d9" target="_top" xlink:title="Json::OurReader::addError\lAndRecover">
<polygon fill="none" stroke="black" points="559.5,-130 559.5,-160 693.5,-160 693.5,-130 559.5,-130"/>
<text text-anchor="start" x="567.5" y="-148" font-family="Helvetica,sans-Serif" font-size="10.00">Json::OurReader::addError</text>
<text text-anchor="middle" x="626.5" y="-137" font-family="Helvetica,sans-Serif" font-size="10.00">AndRecover</text>
</a>
</g>
</g>
<!-- Node185&#45;&gt;Node208 -->
<g id="edge47" class="edge"><title>Node185&#45;&gt;Node208</title>
<path fill="none" stroke="midnightblue" d="M136.48,-179.482C149.242,-177.833 162.524,-176.25 175,-175 306.238,-161.854 459.581,-153.029 549.273,-148.523"/>
<polygon fill="midnightblue" stroke="midnightblue" points="549.541,-152.015 559.354,-148.022 549.193,-145.023 549.541,-152.015"/>
</g>
<!-- Node188&#45;&gt;Node187 -->
<g id="edge4" class="edge"><title>Node188&#45;&gt;Node187</title>
<path fill="none" stroke="midnightblue" d="M991.198,-164.186C1003.89,-138.721 1041.42,-70.0127 1093,-34 1099.15,-29.7065 1106.09,-26.1624 1113.23,-23.2414"/>
<polygon fill="midnightblue" stroke="midnightblue" points="1114.87,-26.3699 1123.04,-19.6325 1112.45,-19.8003 1114.87,-26.3699"/>
</g>
<!-- Node189 -->
<g id="node5" class="node"><title>Node189</title>
<g id="a_node5"><a xlink:href="class_json_1_1_our_reader.html#a298285d035fdbc554caae09d9f0a5859" target="_top" xlink:title="Json::OurReader::getNextChar">
<polygon fill="none" stroke="black" points="1478,-138.5 1478,-157.5 1630,-157.5 1630,-138.5 1478,-138.5"/>
<text text-anchor="middle" x="1554" y="-145.5" font-family="Helvetica,sans-Serif" font-size="10.00">Json::OurReader::getNextChar</text>
</a>
</g>
</g>
<!-- Node188&#45;&gt;Node189 -->
<g id="edge5" class="edge"><title>Node188&#45;&gt;Node189</title>
<path fill="none" stroke="midnightblue" d="M1033.25,-164.463C1051.78,-160.996 1073.33,-157.356 1093,-155 1247.1,-136.55 1286.84,-139.507 1442,-143 1450.32,-143.187 1458.98,-143.453 1467.64,-143.766"/>
<polygon fill="midnightblue" stroke="midnightblue" points="1467.66,-147.269 1477.78,-144.153 1467.92,-140.274 1467.66,-147.269"/>
</g>
<!-- Node190 -->
<g id="node6" class="node"><title>Node190</title>
<g id="a_node6"><a xlink:href="class_json_1_1_our_reader.html#a5d39b12671499ec5975f3bbc84b7d438" target="_top" xlink:title="Json::OurReader::readString">
<polygon fill="none" stroke="black" points="1294,-40.5 1294,-59.5 1435,-59.5 1435,-40.5 1294,-40.5"/>
<text text-anchor="middle" x="1364.5" y="-47.5" font-family="Helvetica,sans-Serif" font-size="10.00">Json::OurReader::readString</text>
</a>
</g>
</g>
<!-- Node188&#45;&gt;Node190 -->
<g id="edge6" class="edge"><title>Node188&#45;&gt;Node190</title>
<path fill="none" stroke="midnightblue" d="M992.49,-164.315C1006.73,-142.301 1045.01,-88.7337 1093,-67 1152.82,-39.9075 1227.81,-37.3024 1283.65,-40.5374"/>
<polygon fill="midnightblue" stroke="midnightblue" points="1283.64,-44.044 1293.85,-41.2048 1284.1,-37.059 1283.64,-44.044"/>
</g>
<!-- Node191 -->
<g id="node7" class="node"><title>Node191</title>
<g id="a_node7"><a xlink:href="class_json_1_1_our_reader.html#ac78592defdc333faf56c6d0908758da3" target="_top" xlink:title="Json::OurReader::readString\lSingleQuote">
<polygon fill="none" stroke="black" points="1101.5,-77 1101.5,-107 1242.5,-107 1242.5,-77 1101.5,-77"/>
<text text-anchor="start" x="1109.5" y="-95" font-family="Helvetica,sans-Serif" font-size="10.00">Json::OurReader::readString</text>
<text text-anchor="middle" x="1172" y="-84" font-family="Helvetica,sans-Serif" font-size="10.00">SingleQuote</text>
</a>
</g>
</g>
<!-- Node188&#45;&gt;Node191 -->
<g id="edge8" class="edge"><title>Node188&#45;&gt;Node191</title>
<path fill="none" stroke="midnightblue" d="M1004.74,-164.489C1025.77,-153.668 1061.5,-135.719 1093,-122 1101.79,-118.174 1111.23,-114.325 1120.41,-110.719"/>
<polygon fill="midnightblue" stroke="midnightblue" points="1121.78,-113.941 1129.84,-107.062 1119.25,-107.415 1121.78,-113.941"/>
</g>
<!-- Node192 -->
<g id="node8" class="node"><title>Node192</title>
<g id="a_node8"><a xlink:href="class_json_1_1_our_reader.html#a90f6bb9e55b2bc3d6c1880809495c222" target="_top" xlink:title="Json::OurReader::readComment">
<polygon fill="none" stroke="black" points="1093,-245.5 1093,-264.5 1251,-264.5 1251,-245.5 1093,-245.5"/>
<text text-anchor="middle" x="1172" y="-252.5" font-family="Helvetica,sans-Serif" font-size="10.00">Json::OurReader::readComment</text>
</a>
</g>
</g>
<!-- Node188&#45;&gt;Node192 -->
<g id="edge10" class="edge"><title>Node188&#45;&gt;Node192</title>
<path fill="none" stroke="midnightblue" d="M1002.27,-183.688C1022.65,-195.917 1059.51,-217.04 1093,-231 1103.21,-235.257 1114.45,-239.151 1125.14,-242.506"/>
<polygon fill="midnightblue" stroke="midnightblue" points="1124.18,-245.87 1134.76,-245.431 1126.21,-239.173 1124.18,-245.87"/>
</g>
<!-- Node200 -->
<g id="node16" class="node"><title>Node200</title>
<g id="a_node16"><a xlink:href="class_json_1_1_our_reader.html#aefcb9a78cc45870ccac2db2a66c8ec50" target="_top" xlink:title="Json::OurReader::readNumber">
<polygon fill="none" stroke="black" points="1097,-202.5 1097,-221.5 1247,-221.5 1247,-202.5 1097,-202.5"/>
<text text-anchor="middle" x="1172" y="-209.5" font-family="Helvetica,sans-Serif" font-size="10.00">Json::OurReader::readNumber</text>
</a>
</g>
</g>
<!-- Node188&#45;&gt;Node200 -->
<g id="edge21" class="edge"><title>Node188&#45;&gt;Node200</title>
<path fill="none" stroke="midnightblue" d="M1033.06,-183.589C1057.84,-188.694 1088.52,-195.011 1114.64,-200.392"/>
<polygon fill="midnightblue" stroke="midnightblue" points="1114.28,-203.891 1124.78,-202.48 1115.69,-197.035 1114.28,-203.891"/>
</g>
<!-- Node201 -->
<g id="node17" class="node"><title>Node201</title>
<g id="a_node17"><a xlink:href="class_json_1_1_our_reader.html#a4a03f1b266def9b47c4fef35386557fb" target="_top" xlink:title="Json::OurReader::match">
<polygon fill="none" stroke="black" points="1110,-164.5 1110,-183.5 1234,-183.5 1234,-164.5 1110,-164.5"/>
<text text-anchor="middle" x="1172" y="-171.5" font-family="Helvetica,sans-Serif" font-size="10.00">Json::OurReader::match</text>
</a>
</g>
</g>
<!-- Node188&#45;&gt;Node201 -->
<g id="edge22" class="edge"><title>Node188&#45;&gt;Node201</title>
<path fill="none" stroke="midnightblue" d="M1057.04,-174C1071.04,-174 1085.74,-174 1099.77,-174"/>
<polygon fill="midnightblue" stroke="midnightblue" points="1099.83,-177.5 1109.83,-174 1099.83,-170.5 1099.83,-177.5"/>
</g>
<!-- Node190&#45;&gt;Node189 -->
<g id="edge7" class="edge"><title>Node190&#45;&gt;Node189</title>
<path fill="none" stroke="midnightblue" d="M1397.8,-59.5725C1411.7,-64.1543 1427.95,-70.1413 1442,-77 1475.06,-93.1421 1510.4,-117.027 1532.1,-132.553"/>
<polygon fill="midnightblue" stroke="midnightblue" points="1530.09,-135.425 1540.25,-138.453 1534.2,-129.754 1530.09,-135.425"/>
</g>
<!-- Node191&#45;&gt;Node189 -->
<g id="edge9" class="edge"><title>Node191&#45;&gt;Node189</title>
<path fill="none" stroke="midnightblue" d="M1242.64,-94.0645C1297.26,-96.617 1374.99,-102.312 1442,-115 1467.41,-119.811 1495.31,-128.119 1516.78,-135.195"/>
<polygon fill="midnightblue" stroke="midnightblue" points="1515.87,-138.58 1526.46,-138.445 1518.09,-131.944 1515.87,-138.58"/>
</g>
<!-- Node192&#45;&gt;Node189 -->
<g id="edge11" class="edge"><title>Node192&#45;&gt;Node189</title>
<path fill="none" stroke="midnightblue" d="M1220.03,-245.474C1230.77,-241.99 1241.74,-237.295 1251,-231 1272.18,-216.596 1264.76,-198.704 1287,-186 1341.72,-154.743 1412.76,-145.893 1467.66,-144.505"/>
<polygon fill="midnightblue" stroke="midnightblue" points="1467.78,-148.004 1477.72,-144.33 1467.66,-141.005 1467.78,-148.004"/>
</g>
<!-- Node193 -->
<g id="node9" class="node"><title>Node193</title>
<g id="a_node9"><a xlink:href="class_json_1_1_our_reader.html#aba784b125baa1b62387e767b791f2f89" target="_top" xlink:title="Json::OurReader::readCStyle\lComment">
<polygon fill="none" stroke="black" points="1291.5,-245 1291.5,-275 1437.5,-275 1437.5,-245 1291.5,-245"/>
<text text-anchor="start" x="1299.5" y="-263" font-family="Helvetica,sans-Serif" font-size="10.00">Json::OurReader::readCStyle</text>
<text text-anchor="middle" x="1364.5" y="-252" font-family="Helvetica,sans-Serif" font-size="10.00">Comment</text>
</a>
</g>
</g>
<!-- Node192&#45;&gt;Node193 -->
<g id="edge12" class="edge"><title>Node192&#45;&gt;Node193</title>
<path fill="none" stroke="midnightblue" d="M1251.03,-257.048C1261.05,-257.311 1271.33,-257.581 1281.41,-257.845"/>
<polygon fill="midnightblue" stroke="midnightblue" points="1281.32,-261.344 1291.41,-258.108 1281.51,-254.347 1281.32,-261.344"/>
</g>
<!-- Node194 -->
<g id="node10" class="node"><title>Node194</title>
<g id="a_node10"><a xlink:href="class_json_1_1_our_reader.html#ae3de80671f0f997053e1c1c8a47a45c5" target="_top" xlink:title="Json::OurReader::readCpp\lStyleComment">
<polygon fill="none" stroke="black" points="1297.5,-196 1297.5,-226 1431.5,-226 1431.5,-196 1297.5,-196"/>
<text text-anchor="start" x="1305.5" y="-214" font-family="Helvetica,sans-Serif" font-size="10.00">Json::OurReader::readCpp</text>
<text text-anchor="middle" x="1364.5" y="-203" font-family="Helvetica,sans-Serif" font-size="10.00">StyleComment</text>
</a>
</g>
</g>
<!-- Node192&#45;&gt;Node194 -->
<g id="edge14" class="edge"><title>Node192&#45;&gt;Node194</title>
<path fill="none" stroke="midnightblue" d="M1214.34,-245.453C1235.98,-240.455 1263.15,-234.178 1288.36,-228.356"/>
<polygon fill="midnightblue" stroke="midnightblue" points="1289.32,-231.726 1298.27,-226.065 1287.74,-224.906 1289.32,-231.726"/>
</g>
<!-- Node195 -->
<g id="node11" class="node"><title>Node195</title>
<g id="a_node11"><a xlink:href="namespace_json.html#a4d6ab0f651348832e5cc49b577a854d2" target="_top" xlink:title="Json::containsNewLine">
<polygon fill="none" stroke="black" points="1305,-332.5 1305,-351.5 1424,-351.5 1424,-332.5 1305,-332.5"/>
<text text-anchor="middle" x="1364.5" y="-339.5" font-family="Helvetica,sans-Serif" font-size="10.00">Json::containsNewLine</text>
</a>
</g>
</g>
<!-- Node192&#45;&gt;Node195 -->
<g id="edge16" class="edge"><title>Node192&#45;&gt;Node195</title>
<path fill="none" stroke="midnightblue" d="M1186.01,-264.517C1206.51,-279.094 1248,-306.942 1287,-323 1293.12,-325.521 1299.66,-327.767 1306.24,-329.753"/>
<polygon fill="midnightblue" stroke="midnightblue" points="1305.29,-333.123 1315.87,-332.478 1307.2,-326.387 1305.29,-333.123"/>
</g>
<!-- Node197 -->
<g id="node13" class="node"><title>Node197</title>
<g id="a_node13"><a xlink:href="class_json_1_1_our_reader.html#ad7318c37469a9106069a236fb4b10e1f" target="_top" xlink:title="Json::OurReader::addComment">
<polygon fill="none" stroke="black" points="1287,-294.5 1287,-313.5 1442,-313.5 1442,-294.5 1287,-294.5"/>
<text text-anchor="middle" x="1364.5" y="-301.5" font-family="Helvetica,sans-Serif" font-size="10.00">Json::OurReader::addComment</text>
</a>
</g>
</g>
<!-- Node192&#45;&gt;Node197 -->
<g id="edge18" class="edge"><title>Node192&#45;&gt;Node197</title>
<path fill="none" stroke="midnightblue" d="M1210.18,-264.564C1240.6,-272.389 1283.8,-283.5 1316.59,-291.935"/>
<polygon fill="midnightblue" stroke="midnightblue" points="1315.85,-295.359 1326.41,-294.46 1317.6,-288.579 1315.85,-295.359"/>
</g>
<!-- Node193&#45;&gt;Node189 -->
<g id="edge13" class="edge"><title>Node193&#45;&gt;Node189</title>
<path fill="none" stroke="midnightblue" d="M1419.57,-244.965C1427.28,-242.07 1434.97,-238.75 1442,-235 1478.42,-215.559 1515.02,-183.984 1535.76,-164.694"/>
<polygon fill="midnightblue" stroke="midnightblue" points="1538.28,-167.13 1543.15,-157.719 1533.47,-162.042 1538.28,-167.13"/>
</g>
<!-- Node194&#45;&gt;Node189 -->
<g id="edge15" class="edge"><title>Node194&#45;&gt;Node189</title>
<path fill="none" stroke="midnightblue" d="M1410.41,-195.91C1442.24,-185.215 1484.49,-171.019 1514.72,-160.862"/>
<polygon fill="midnightblue" stroke="midnightblue" points="1516.12,-164.085 1524.48,-157.583 1513.89,-157.45 1516.12,-164.085"/>
</g>
<!-- Node196 -->
<g id="node12" class="node"><title>Node196</title>
<g id="a_node12"><a xlink:href="namespace_json.html#a97f039a107b3f6cf1c3edee50e978f76" target="_top" xlink:title="Json::throwRuntimeError">
<polygon fill="none" stroke="black" points="1491.5,-370.5 1491.5,-389.5 1616.5,-389.5 1616.5,-370.5 1491.5,-370.5"/>
<text text-anchor="middle" x="1554" y="-377.5" font-family="Helvetica,sans-Serif" font-size="10.00">Json::throwRuntimeError</text>
</a>
</g>
</g>
<!-- Node195&#45;&gt;Node196 -->
<g id="edge17" class="edge"><title>Node195&#45;&gt;Node196</title>
<path fill="none" stroke="midnightblue" d="M1412.81,-351.589C1438.11,-356.716 1469.45,-363.067 1496.07,-368.463"/>
<polygon fill="midnightblue" stroke="midnightblue" points="1495.53,-371.924 1506.03,-370.48 1496.92,-365.063 1495.53,-371.924"/>
</g>
<!-- Node198 -->
<g id="node14" class="node"><title>Node198</title>
<g id="a_node14"><a xlink:href="namespace_json.html#a2e6b8616041876128cbef54b8c75da62" target="_top" xlink:title="Json::normalizeEOL">
<polygon fill="none" stroke="black" points="1501.5,-294.5 1501.5,-313.5 1606.5,-313.5 1606.5,-294.5 1501.5,-294.5"/>
<text text-anchor="middle" x="1554" y="-301.5" font-family="Helvetica,sans-Serif" font-size="10.00">Json::normalizeEOL</text>
</a>
</g>
</g>
<!-- Node197&#45;&gt;Node198 -->
<g id="edge19" class="edge"><title>Node197&#45;&gt;Node198</title>
<path fill="none" stroke="midnightblue" d="M1442.03,-304C1458.4,-304 1475.49,-304 1491.21,-304"/>
<polygon fill="midnightblue" stroke="midnightblue" points="1491.33,-307.5 1501.33,-304 1491.33,-300.5 1491.33,-307.5"/>
</g>
<!-- Node199 -->
<g id="node15" class="node"><title>Node199</title>
<g id="a_node15"><a xlink:href="namespace_json.html#adf0456e397a18cd7218a7b51dfc13c73" target="_top" xlink:title="Converts a unicode code&#45;point to UTF&#45;8. ">
<polygon fill="none" stroke="black" points="1666,-294.5 1666,-313.5 1789,-313.5 1789,-294.5 1666,-294.5"/>
<text text-anchor="middle" x="1727.5" y="-301.5" font-family="Helvetica,sans-Serif" font-size="10.00">Json::codePointToUTF8</text>
</a>
</g>
</g>
<!-- Node198&#45;&gt;Node199 -->
<g id="edge20" class="edge"><title>Node198&#45;&gt;Node199</title>
<path fill="none" stroke="midnightblue" d="M1606.92,-304C1622.27,-304 1639.34,-304 1655.67,-304"/>
<polygon fill="midnightblue" stroke="midnightblue" points="1655.71,-307.5 1665.71,-304 1655.71,-300.5 1655.71,-307.5"/>
</g>
<!-- Node202&#45;&gt;Node185 -->
<g id="edge42" class="edge"><title>Node202&#45;&gt;Node185</title>
<path fill="none" stroke="midnightblue" d="M228.313,-331.335C195.181,-305.888 118.441,-238.641 85.7224,-206.364"/>
<polygon fill="midnightblue" stroke="midnightblue" points="87.9237,-203.612 78.4058,-198.958 82.944,-208.532 87.9237,-203.612"/>
</g>
<!-- Node202&#45;&gt;Node186 -->
<g id="edge27" class="edge"><title>Node202&#45;&gt;Node186</title>
<path fill="none" stroke="midnightblue" d="M254.813,-350.657C271.688,-368.543 310.501,-406.835 351,-427 494.26,-498.33 548.642,-488.716 708,-474 717.518,-473.121 727.473,-471.79 737.275,-470.232"/>
<polygon fill="midnightblue" stroke="midnightblue" points="738.124,-473.639 747.409,-468.536 736.969,-466.735 738.124,-473.639"/>
</g>
<!-- Node202&#45;&gt;Node196 -->
<g id="edge24" class="edge"><title>Node202&#45;&gt;Node196</title>
<path fill="none" stroke="midnightblue" d="M307.611,-350.568C310.246,-352.14 312.73,-353.94 315,-356 353.72,-391.137 312.484,-432.64 351,-468 443.207,-552.651 500.328,-531 625.5,-531 625.5,-531 625.5,-531 1173,-531 1318.59,-531 1474.79,-434.093 1531.16,-395.544"/>
<polygon fill="midnightblue" stroke="midnightblue" points="1533.4,-398.248 1539.63,-389.675 1529.42,-392.495 1533.4,-398.248"/>
</g>
<!-- Node203 -->
<g id="node19" class="node"><title>Node203</title>
<g id="a_node19"><a xlink:href="class_json_1_1_our_reader.html#a856dea44d92578c276856d7a65a4ebdc" target="_top" xlink:title="Json::OurReader::skipComment\lTokens">
<polygon fill="none" stroke="black" points="351,-269 351,-299 509,-299 509,-269 351,-269"/>
<text text-anchor="start" x="359" y="-287" font-family="Helvetica,sans-Serif" font-size="10.00">Json::OurReader::skipComment</text>
<text text-anchor="middle" x="430" y="-276" font-family="Helvetica,sans-Serif" font-size="10.00">Tokens</text>
</a>
</g>
</g>
<!-- Node202&#45;&gt;Node203 -->
<g id="edge25" class="edge"><title>Node202&#45;&gt;Node203</title>
<path fill="none" stroke="midnightblue" d="M276.63,-331.459C302.246,-323.481 339.51,-311.874 370.774,-302.136"/>
<polygon fill="midnightblue" stroke="midnightblue" points="372.185,-305.362 380.692,-299.047 370.103,-298.679 372.185,-305.362"/>
</g>
<!-- Node204 -->
<g id="node20" class="node"><title>Node204</title>
<g id="a_node20"><a xlink:href="class_json_1_1_our_reader.html#aea198f8101dba55099f4d8121a993530" target="_top" xlink:title="Json::OurReader::readObject">
<polygon fill="none" stroke="black" points="358,-331.5 358,-350.5 502,-350.5 502,-331.5 358,-331.5"/>
<text text-anchor="middle" x="430" y="-338.5" font-family="Helvetica,sans-Serif" font-size="10.00">Json::OurReader::readObject</text>
</a>
</g>
</g>
<!-- Node202&#45;&gt;Node204 -->
<g id="edge28" class="edge"><title>Node202&#45;&gt;Node204</title>
<path fill="none" stroke="midnightblue" d="M315.184,-334.432C325.769,-334.256 336.779,-334.208 347.597,-334.287"/>
<polygon fill="midnightblue" stroke="midnightblue" points="347.853,-337.79 357.891,-334.401 347.931,-330.79 347.853,-337.79"/>
</g>
<!-- Node205 -->
<g id="node21" class="node"><title>Node205</title>
<g id="a_node21"><a xlink:href="class_json_1_1_our_reader.html#a34e31d8b8399b7ad493359702b6de6c9" target="_top" xlink:title="Json::OurReader::decodeString">
<polygon fill="none" stroke="black" points="549.5,-445.5 549.5,-464.5 703.5,-464.5 703.5,-445.5 549.5,-445.5"/>
<text text-anchor="middle" x="626.5" y="-452.5" font-family="Helvetica,sans-Serif" font-size="10.00">Json::OurReader::decodeString</text>
</a>
</g>
</g>
<!-- Node202&#45;&gt;Node205 -->
<g id="edge44" class="edge"><title>Node202&#45;&gt;Node205</title>
<path fill="none" stroke="midnightblue" d="M262.587,-350.522C282.866,-361.815 318.508,-380.547 351,-392 419.299,-416.074 500.449,-433.379 556.719,-443.69"/>
<polygon fill="midnightblue" stroke="midnightblue" points="556.115,-447.137 566.578,-445.471 557.36,-440.249 556.115,-447.137"/>
</g>
<!-- Node207 -->
<g id="node23" class="node"><title>Node207</title>
<g id="a_node23"><a xlink:href="class_json_1_1_our_reader.html#a272d271290933a89abfd5096dd69c9e9" target="_top" xlink:title="Json::OurReader::decodeNumber">
<polygon fill="none" stroke="black" points="545,-407.5 545,-426.5 708,-426.5 708,-407.5 545,-407.5"/>
<text text-anchor="middle" x="626.5" y="-414.5" font-family="Helvetica,sans-Serif" font-size="10.00">Json::OurReader::decodeNumber</text>
</a>
</g>
</g>
<!-- Node202&#45;&gt;Node207 -->
<g id="edge43" class="edge"><title>Node202&#45;&gt;Node207</title>
<path fill="none" stroke="midnightblue" d="M293.68,-350.548C363.363,-364.503 492.858,-390.437 567.813,-405.447"/>
<polygon fill="midnightblue" stroke="midnightblue" points="567.523,-408.959 578.015,-407.491 568.897,-402.095 567.523,-408.959"/>
</g>
<!-- Node209 -->
<g id="node25" class="node"><title>Node209</title>
<g id="a_node25"><a xlink:href="class_json_1_1_our_reader.html#a5a48b71c1c16fa671814c8338e452bc0" target="_top" xlink:title="Json::OurReader::addError">
<polygon fill="none" stroke="black" points="744,-107.5 744,-126.5 878,-126.5 878,-107.5 744,-107.5"/>
<text text-anchor="middle" x="811" y="-114.5" font-family="Helvetica,sans-Serif" font-size="10.00">Json::OurReader::addError</text>
</a>
</g>
</g>
<!-- Node202&#45;&gt;Node209 -->
<g id="edge45" class="edge"><title>Node202&#45;&gt;Node209</title>
<path fill="none" stroke="midnightblue" d="M254.29,-331.493C286.787,-295.049 410.351,-164.101 545,-120 608.053,-99.3484 684.158,-101.011 738.602,-106.402"/>
<polygon fill="midnightblue" stroke="midnightblue" points="738.537,-109.914 748.85,-107.485 739.274,-102.953 738.537,-109.914"/>
</g>
<!-- Node203&#45;&gt;Node188 -->
<g id="edge26" class="edge"><title>Node203&#45;&gt;Node188</title>
<path fill="none" stroke="midnightblue" d="M509.391,-272.343C599.011,-258.468 749.877,-233.437 878,-204 899.941,-198.959 924.114,-192.246 943.876,-186.448"/>
<polygon fill="midnightblue" stroke="midnightblue" points="944.89,-189.798 953.483,-183.601 942.901,-183.087 944.89,-189.798"/>
</g>
<!-- Node204&#45;&gt;Node186 -->
<g id="edge29" class="edge"><title>Node204&#45;&gt;Node186</title>
<path fill="none" stroke="midnightblue" d="M502.1,-349.51C559.064,-357.769 640.358,-372.827 708,-398 733.06,-407.326 759.355,-422.16 778.97,-434.357"/>
<polygon fill="midnightblue" stroke="midnightblue" points="777.162,-437.355 787.484,-439.746 780.906,-431.44 777.162,-437.355"/>
</g>
<!-- Node204&#45;&gt;Node188 -->
<g id="edge30" class="edge"><title>Node204&#45;&gt;Node188</title>
<path fill="none" stroke="midnightblue" d="M491.066,-331.469C578.309,-316.492 744.267,-283.706 878,-232 908.106,-220.36 940.349,-201.86 961.372,-188.891"/>
<polygon fill="midnightblue" stroke="midnightblue" points="963.305,-191.81 969.924,-183.537 959.591,-185.877 963.305,-191.81"/>
</g>
<!-- Node204&#45;&gt;Node196 -->
<g id="edge40" class="edge"><title>Node204&#45;&gt;Node196</title>
<path fill="none" stroke="midnightblue" d="M502.037,-343.469C703.741,-350.48 1278.43,-370.456 1481.14,-377.502"/>
<polygon fill="midnightblue" stroke="midnightblue" points="1481.26,-381.008 1491.38,-377.858 1481.5,-374.013 1481.26,-381.008"/>
</g>
<!-- Node204&#45;&gt;Node202 -->
<g id="edge41" class="edge"><title>Node204&#45;&gt;Node202</title>
<path fill="none" stroke="midnightblue" d="M357.891,-347.599C347.257,-347.759 336.236,-347.792 325.443,-347.698"/>
<polygon fill="midnightblue" stroke="midnightblue" points="325.228,-344.195 315.184,-347.568 325.14,-351.194 325.228,-344.195"/>
</g>
<!-- Node204&#45;&gt;Node205 -->
<g id="edge31" class="edge"><title>Node204&#45;&gt;Node205</title>
<path fill="none" stroke="midnightblue" d="M439.678,-350.787C457.437,-370.181 500.057,-413.55 545,-436 549.817,-438.406 554.951,-440.515 560.204,-442.363"/>
<polygon fill="midnightblue" stroke="midnightblue" points="559.157,-445.702 569.748,-445.412 561.288,-439.034 559.157,-445.702"/>
</g>
<!-- Node204&#45;&gt;Node206 -->
<g id="edge33" class="edge"><title>Node204&#45;&gt;Node206</title>
<path fill="none" stroke="midnightblue" d="M455.131,-331.413C470.662,-325.09 491.198,-316.445 509,-308 525.346,-300.246 528.616,-296.672 545,-289 618.798,-254.444 706.652,-219.483 760.36,-198.783"/>
<polygon fill="midnightblue" stroke="midnightblue" points="761.9,-201.941 769.98,-195.088 759.39,-195.407 761.9,-201.941"/>
</g>
<!-- Node204&#45;&gt;Node207 -->
<g id="edge35" class="edge"><title>Node204&#45;&gt;Node207</title>
<path fill="none" stroke="midnightblue" d="M453.668,-350.508C469.31,-357.16 490.533,-366.366 509,-375 525.205,-382.577 528.366,-386.42 545,-393 555.803,-397.274 567.678,-401.212 578.912,-404.609"/>
<polygon fill="midnightblue" stroke="midnightblue" points="577.994,-407.987 588.576,-407.45 579.969,-401.271 577.994,-407.987"/>
</g>
<!-- Node204&#45;&gt;Node208 -->
<g id="edge37" class="edge"><title>Node204&#45;&gt;Node208</title>
<path fill="none" stroke="midnightblue" d="M465.749,-331.398C480.241,-326.169 496.558,-318.562 509,-308 531.842,-288.609 527.923,-275.62 545,-251 565.256,-221.795 590.231,-189.42 606.942,-168.226"/>
<polygon fill="midnightblue" stroke="midnightblue" points="609.881,-170.153 613.345,-160.141 604.393,-165.808 609.881,-170.153"/>
</g>
<!-- Node205&#45;&gt;Node186 -->
<g id="edge32" class="edge"><title>Node205&#45;&gt;Node186</title>
<path fill="none" stroke="midnightblue" d="M703.575,-455C714.732,-455 726.201,-455 737.289,-455"/>
<polygon fill="midnightblue" stroke="midnightblue" points="737.344,-458.5 747.344,-455 737.344,-451.5 737.344,-458.5"/>
</g>
<!-- Node206&#45;&gt;Node188 -->
<g id="edge34" class="edge"><title>Node206&#45;&gt;Node188</title>
<path fill="none" stroke="midnightblue" d="M875.743,-177.783C884.835,-177.467 894.285,-177.138 903.651,-176.812"/>
<polygon fill="midnightblue" stroke="midnightblue" points="903.887,-180.306 913.759,-176.461 903.644,-173.31 903.887,-180.306"/>
</g>
<!-- Node207&#45;&gt;Node186 -->
<g id="edge36" class="edge"><title>Node207&#45;&gt;Node186</title>
<path fill="none" stroke="midnightblue" d="M673.552,-426.589C692.965,-430.631 716.029,-435.433 737.62,-439.929"/>
<polygon fill="midnightblue" stroke="midnightblue" points="736.914,-443.357 747.417,-441.969 738.341,-436.504 736.914,-443.357"/>
</g>
<!-- Node208&#45;&gt;Node206 -->
<g id="edge39" class="edge"><title>Node208&#45;&gt;Node206</title>
<path fill="none" stroke="midnightblue" d="M693.645,-157.685C707.435,-160.33 722.055,-163.134 736.105,-165.828"/>
<polygon fill="midnightblue" stroke="midnightblue" points="735.734,-169.321 746.214,-167.767 737.053,-162.446 735.734,-169.321"/>
</g>
<!-- Node208&#45;&gt;Node209 -->
<g id="edge38" class="edge"><title>Node208&#45;&gt;Node209</title>
<path fill="none" stroke="midnightblue" d="M693.645,-134.852C708.066,-132.639 723.395,-130.287 738.03,-128.042"/>
<polygon fill="midnightblue" stroke="midnightblue" points="738.678,-131.484 748.032,-126.507 737.617,-124.565 738.678,-131.484"/>
</g>
</g>
</svg>
        <g id="navigator" transform="translate(0 0)" fill="#404254">
                <rect fill="#f2f5e9" fill-opacity="0.5" stroke="#606060" stroke-width=".5" x="0" y="0" width="60" height="60"/>
                <use id="zoomplus" xlink:href="#zoomPlus" x="17" y="9" onmousedown="handleZoom(evt,'in')"/>
                <use id="zoomminus" xlink:href="#zoomMin" x="42" y="9" onmousedown="handleZoom(evt,'out')"/>
                <use id="reset" xlink:href="#resetDef" x="30" y="36" onmousedown="handleReset()"/>
                <g id="arrowUp" xlink:href="#dirArrow" transform="translate(30 24)" onmousedown="handlePan(0,-1)">
                  <use xlink:href="#rim" fill="#404040">
                        <set attributeName="fill" to="#808080" begin="arrowUp.mouseover" end="arrowUp.mouseout"/>
                  </use>
                  <path fill="none" stroke="white" stroke-width="1.5" d="M0,-3.0v7 M-2.5,-0.5L0,-3.0L2.5,-0.5"/>
                </g>
                <g id="arrowRight" xlink:href="#dirArrow" transform="rotate(90) translate(36 -43)" onmousedown="handlePan(1,0)">
                  <use xlink:href="#rim" fill="#404040">
                        <set attributeName="fill" to="#808080" begin="arrowRight.mouseover" end="arrowRight.mouseout"/>
                  </use>
                  <path fill="none" stroke="white" stroke-width="1.5" d="M0,-3.0v7 M-2.5,-0.5L0,-3.0L2.5,-0.5"/>
                </g>
                <g id="arrowDown" xlink:href="#dirArrow" transform="rotate(180) translate(-30 -48)" onmousedown="handlePan(0,1)">
                  <use xlink:href="#rim" fill="#404040">
                        <set attributeName="fill" to="#808080" begin="arrowDown.mouseover" end="arrowDown.mouseout"/>
                  </use>
                  <path fill="none" stroke="white" stroke-width="1.5" d="M0,-3.0v7 M-2.5,-0.5L0,-3.0L2.5,-0.5"/>
                </g>
                <g id="arrowLeft" xlink:href="#dirArrow" transform="rotate(270) translate(-36 17)" onmousedown="handlePan(-1,0)">
                  <use xlink:href="#rim" fill="#404040">
                        <set attributeName="fill" to="#808080" begin="arrowLeft.mouseover" end="arrowLeft.mouseout"/>
                  </use>
                  <path fill="none" stroke="white" stroke-width="1.5" d="M0,-3.0v7 M-2.5,-0.5L0,-3.0L2.5,-0.5"/>
                </g>
        </g>
        <svg viewBox="0 0 15 15" width="100%" height="30px" preserveAspectRatio="xMaxYMin meet">
         <g id="arrow_out" transform="scale(0.3 0.3)">
          <a xlink:href="class_json_1_1_our_reader_a0b9f58faf4212c6ecb5d8e2a1ac10257_cgraph_org.svg" target="_base">
           <rect id="button" ry="5" rx="5" y="6" x="6" height="38" width="38"
                fill="#f2f5e9" fill-opacity="0.5" stroke="#606060" stroke-width="1.0"/>
           <path id="arrow"
             d="M 11.500037,31.436501 C 11.940474,20.09759 22.043105,11.32322 32.158766,21.979434 L 37.068811,17.246167 C 37.068811,17.246167 37.088388,32 37.088388,32 L 22.160133,31.978069 C 22.160133,31.978069 26.997745,27.140456 26.997745,27.140456 C 18.528582,18.264221 13.291696,25.230495 11.500037,31.436501 z"
             style="fill:#404040;"/>
          </a>
         </g>
        </svg>
</svg>
