<?xml version="1.0" encoding="UTF-8" standalone="no"?>
<!DOCTYPE svg PUBLIC "-//W3C//DTD SVG 1.1//EN"
 "http://www.w3.org/Graphics/SVG/1.1/DTD/svg11.dtd">
<!-- Generated by graphviz version 2.38.0 (20140413.2041)
 -->
<!-- Title: MinecraftServerService::ServerProcessBuf::ServerProcessBuf Pages: 1 -->
<svg width="782pt" height="50pt"
 viewBox="0.00 0.00 782.00 50.00" xmlns="http://www.w3.org/2000/svg" xmlns:xlink="http://www.w3.org/1999/xlink">
<g id="graph0" class="graph" transform="scale(1 1) rotate(0) translate(4 46)">
<title>MinecraftServerService::ServerProcessBuf::ServerProcessBuf</title>
<!-- Node0 -->
<g id="node1" class="node"><title>Node0</title>
<polygon fill="#bfbfbf" stroke="black" points="0,-6 0,-36 188,-36 188,-6 0,-6"/>
<text text-anchor="start" x="8" y="-24" font-family="Helvetica,sans-Serif" font-size="10.00">MinecraftServerService</text>
<text text-anchor="middle" x="94" y="-13" font-family="Helvetica,sans-Serif" font-size="10.00">::ServerProcessBuf::ServerProcessBuf</text>
</g>
<!-- Node1 -->
<g id="node2" class="node"><title>Node1</title>
<g id="a_node2"><a xlink:href="class_minecraft_server_service_1_1_server_process_buf.html#a53c4f3c1837c2d1f5ce2a3388f8eaecf" target="_top" xlink:title="MinecraftServerService\l::ServerProcessBuf::startServer">
<polygon fill="none" stroke="black" points="224,-6 224,-36 380,-36 380,-6 224,-6"/>
<text text-anchor="start" x="232" y="-24" font-family="Helvetica,sans-Serif" font-size="10.00">MinecraftServerService</text>
<text text-anchor="middle" x="302" y="-13" font-family="Helvetica,sans-Serif" font-size="10.00">::ServerProcessBuf::startServer</text>
</a>
</g>
</g>
<!-- Node0&#45;&gt;Node1 -->
<g id="edge1" class="edge"><title>Node0&#45;&gt;Node1</title>
<path fill="none" stroke="midnightblue" d="M188.056,-21C196.546,-21 205.127,-21 213.565,-21"/>
<polygon fill="midnightblue" stroke="midnightblue" points="213.771,-24.5001 223.771,-21 213.771,-17.5001 213.771,-24.5001"/>
</g>
<!-- Node2 -->
<g id="node3" class="node"><title>Node2</title>
<g id="a_node3"><a xlink:href="class_minecraft_server_service_1_1_server_process_buf.html#ac4ad22e1d1978d98b06a999a1100fd27" target="_top" xlink:title="MinecraftServerService\l::ServerProcessBuf::launchServer\lProcess">
<polygon fill="none" stroke="black" points="416,-0.5 416,-41.5 581,-41.5 581,-0.5 416,-0.5"/>
<text text-anchor="start" x="424" y="-29.5" font-family="Helvetica,sans-Serif" font-size="10.00">MinecraftServerService</text>
<text text-anchor="start" x="424" y="-18.5" font-family="Helvetica,sans-Serif" font-size="10.00">::ServerProcessBuf::launchServer</text>
<text text-anchor="middle" x="498.5" y="-7.5" font-family="Helvetica,sans-Serif" font-size="10.00">Process</text>
</a>
</g>
</g>
<!-- Node1&#45;&gt;Node2 -->
<g id="edge2" class="edge"><title>Node1&#45;&gt;Node2</title>
<path fill="none" stroke="midnightblue" d="M380.151,-21C388.613,-21 397.287,-21 405.901,-21"/>
<polygon fill="midnightblue" stroke="midnightblue" points="405.97,-24.5001 415.97,-21 405.97,-17.5001 405.97,-24.5001"/>
</g>
<!-- Node3 -->
<g id="node4" class="node"><title>Node3</title>
<g id="a_node4"><a xlink:href="class_minecraft_server_service_1_1_server_process_buf.html#a50b92162fbeba7f6cba82eab4ecabef0" target="_top" xlink:title="MinecraftServerService\l::ServerProcessBuf::getUIDAnd\lGIDFromUsername">
<polygon fill="none" stroke="black" points="617,-0.5 617,-41.5 774,-41.5 774,-0.5 617,-0.5"/>
<text text-anchor="start" x="625" y="-29.5" font-family="Helvetica,sans-Serif" font-size="10.00">MinecraftServerService</text>
<text text-anchor="start" x="625" y="-18.5" font-family="Helvetica,sans-Serif" font-size="10.00">::ServerProcessBuf::getUIDAnd</text>
<text text-anchor="middle" x="695.5" y="-7.5" font-family="Helvetica,sans-Serif" font-size="10.00">GIDFromUsername</text>
</a>
</g>
</g>
<!-- Node2&#45;&gt;Node3 -->
<g id="edge3" class="edge"><title>Node2&#45;&gt;Node3</title>
<path fill="none" stroke="midnightblue" d="M581.068,-21C589.452,-21 597.998,-21 606.448,-21"/>
<polygon fill="midnightblue" stroke="midnightblue" points="606.691,-24.5001 616.691,-21 606.691,-17.5001 606.691,-24.5001"/>
</g>
</g>
</svg>
