<?xml version="1.0" encoding="UTF-8" standalone="no"?>
<!DOCTYPE svg PUBLIC "-//W3C//DTD SVG 1.1//EN"
 "http://www.w3.org/Graphics/SVG/1.1/DTD/svg11.dtd">
<!-- Generated by graphviz version 2.38.0 (20140413.2041)
 -->
<!-- Title: MinecraftServerService::BukkitServer::restartServer Pages: 1 -->
<!--zoomable 147 -->
<svg id="main" version="1.1" xmlns="http://www.w3.org/2000/svg" xmlns:xlink="http://www.w3.org/1999/xlink" xml:space="preserve" onload="init(evt)">
<style type="text/css"><![CDATA[
.edge:hover path { stroke: red; }
.edge:hover polygon { stroke: red; fill: red; }
]]></style>
<script type="text/javascript"><![CDATA[
var edges = document.getElementsByTagName('g');
if (edges && edges.length) {
  for (var i=0;i<edges.length;i++) {
    if (edges[i].id.substr(0,4)=='edge') {
      edges[i].setAttribute('class','edge');
    }
  }
}
]]></script>
        <defs>
                <circle id="rim" cx="0" cy="0" r="7"/>
                <circle id="rim2" cx="0" cy="0" r="3.5"/>
                <g id="zoomPlus">
                        <use xlink:href="#rim" fill="#404040">
                                <set attributeName="fill" to="#808080" begin="zoomplus.mouseover" end="zoomplus.mouseout"/>
                        </use>
                        <path d="M-4,0h8M0,-4v8" fill="none" stroke="white" stroke-width="1.5" pointer-events="none"/>
                </g>
                <g id="zoomMin">
                        <use xlink:href="#rim" fill="#404040">
                                <set attributeName="fill" to="#808080" begin="zoomminus.mouseover" end="zoomminus.mouseout"/>
                        </use>
                        <path d="M-4,0h8" fill="none" stroke="white" stroke-width="1.5" pointer-events="none"/>
                </g>
                <g id="dirArrow">
                        <path fill="none" stroke="white" stroke-width="1.5" d="M0,-3.0v7 M-2.5,-0.5L0,-3.0L2.5,-0.5"/>
                </g>
               <g id="resetDef">
                       <use xlink:href="#rim2" fill="#404040">
                               <set attributeName="fill" to="#808080" begin="reset.mouseover" end="reset.mouseout"/>
                       </use>
               </g>
        </defs>

<script type="text/javascript">
var viewWidth = 906;
var viewHeight = 147;
var sectionId = 'dynsection-2';
</script>
<script xlink:href="svgpan.js"/>
<svg id="graph" class="graph">
<g id="viewport">
<title>MinecraftServerService::BukkitServer::restartServer</title>
<!-- Node18 -->
<g id="node1" class="node"><title>Node18</title>
<polygon fill="#bfbfbf" stroke="black" points="0,-93.5 0,-123.5 141,-123.5 141,-93.5 0,-93.5"/>
<text text-anchor="start" x="8" y="-111.5" font-family="Helvetica,sans-Serif" font-size="10.00">MinecraftServerService</text>
<text text-anchor="middle" x="70.5" y="-100.5" font-family="Helvetica,sans-Serif" font-size="10.00">::BukkitServer::restartServer</text>
</g>
<!-- Node19 -->
<g id="node2" class="node"><title>Node19</title>
<g id="a_node2"><a xlink:href="class_minecraft_server_service_1_1_server.html#a1954e7c7756cd956e7282887ffca73e4" target="_top" xlink:title="MinecraftServerService\l::Server::isRunning">
<polygon fill="none" stroke="black" points="361.5,-93.5 361.5,-123.5 480.5,-123.5 480.5,-93.5 361.5,-93.5"/>
<text text-anchor="start" x="369.5" y="-111.5" font-family="Helvetica,sans-Serif" font-size="10.00">MinecraftServerService</text>
<text text-anchor="middle" x="421" y="-100.5" font-family="Helvetica,sans-Serif" font-size="10.00">::Server::isRunning</text>
</a>
</g>
</g>
<!-- Node18&#45;&gt;Node19 -->
<g id="edge1" class="edge"><title>Node18&#45;&gt;Node19</title>
<path fill="none" stroke="midnightblue" d="M124.2,-123.528C140.935,-127.613 159.613,-131.468 177,-133.5 235.712,-140.361 251.258,-140.091 310,-133.5 324.706,-131.85 340.314,-128.996 355.011,-125.792"/>
<polygon fill="midnightblue" stroke="midnightblue" points="356.036,-129.149 365.017,-123.529 354.491,-122.321 356.036,-129.149"/>
</g>
<!-- Node20 -->
<g id="node3" class="node"><title>Node20</title>
<g id="a_node3"><a xlink:href="class_minecraft_server_service_1_1_bukkit_server.html#ace18180c1ffb7c6c24942b5569793539" target="_top" xlink:title="MinecraftServerService\l::BukkitServer::stopServer">
<polygon fill="none" stroke="black" points="177.5,-93.5 177.5,-123.5 309.5,-123.5 309.5,-93.5 177.5,-93.5"/>
<text text-anchor="start" x="185.5" y="-111.5" font-family="Helvetica,sans-Serif" font-size="10.00">MinecraftServerService</text>
<text text-anchor="middle" x="243.5" y="-100.5" font-family="Helvetica,sans-Serif" font-size="10.00">::BukkitServer::stopServer</text>
</a>
</g>
</g>
<!-- Node18&#45;&gt;Node20 -->
<g id="edge2" class="edge"><title>Node18&#45;&gt;Node20</title>
<path fill="none" stroke="midnightblue" d="M141.052,-108.5C149.692,-108.5 158.557,-108.5 167.277,-108.5"/>
<polygon fill="midnightblue" stroke="midnightblue" points="167.425,-112 177.425,-108.5 167.425,-105 167.425,-112"/>
</g>
<!-- Node21 -->
<g id="node4" class="node"><title>Node21</title>
<g id="a_node4"><a xlink:href="class_minecraft_server_service_1_1_bukkit_server.html#a40a879282d13c0996d05f1165fa5c4c2" target="_top" xlink:title="MinecraftServerService\l::BukkitServer::startServer">
<polygon fill="none" stroke="black" points="177,-44.5 177,-74.5 310,-74.5 310,-44.5 177,-44.5"/>
<text text-anchor="start" x="185" y="-62.5" font-family="Helvetica,sans-Serif" font-size="10.00">MinecraftServerService</text>
<text text-anchor="middle" x="243.5" y="-51.5" font-family="Helvetica,sans-Serif" font-size="10.00">::BukkitServer::startServer</text>
</a>
</g>
</g>
<!-- Node18&#45;&gt;Node21 -->
<g id="edge4" class="edge"><title>Node18&#45;&gt;Node21</title>
<path fill="none" stroke="midnightblue" d="M124.201,-93.3986C141.919,-88.3215 161.852,-82.6098 180.234,-77.3423"/>
<polygon fill="midnightblue" stroke="midnightblue" points="181.324,-80.6709 189.973,-74.5516 179.396,-73.9417 181.324,-80.6709"/>
</g>
<!-- Node20&#45;&gt;Node19 -->
<g id="edge3" class="edge"><title>Node20&#45;&gt;Node19</title>
<path fill="none" stroke="midnightblue" d="M309.85,-108.5C323.285,-108.5 337.471,-108.5 351.029,-108.5"/>
<polygon fill="midnightblue" stroke="midnightblue" points="351.252,-112 361.252,-108.5 351.252,-105 351.252,-112"/>
</g>
<!-- Node21&#45;&gt;Node19 -->
<g id="edge5" class="edge"><title>Node21&#45;&gt;Node19</title>
<path fill="none" stroke="midnightblue" d="M298.588,-74.6014C316.856,-79.7019 337.418,-85.4429 356.356,-90.7305"/>
<polygon fill="midnightblue" stroke="midnightblue" points="355.518,-94.1303 366.091,-93.4484 357.4,-87.3881 355.518,-94.1303"/>
</g>
<!-- Node22 -->
<g id="node5" class="node"><title>Node22</title>
<g id="a_node5"><a xlink:href="class_minecraft_server_service_1_1_server.html#a16a19b4cfd94f23c20442cea9b46f678" target="_top" xlink:title="MinecraftServerService\l::Server::launchServerProcess">
<polygon fill="none" stroke="black" points="346,-44.5 346,-74.5 496,-74.5 496,-44.5 346,-44.5"/>
<text text-anchor="start" x="354" y="-62.5" font-family="Helvetica,sans-Serif" font-size="10.00">MinecraftServerService</text>
<text text-anchor="middle" x="421" y="-51.5" font-family="Helvetica,sans-Serif" font-size="10.00">::Server::launchServerProcess</text>
</a>
</g>
</g>
<!-- Node21&#45;&gt;Node22 -->
<g id="edge6" class="edge"><title>Node21&#45;&gt;Node22</title>
<path fill="none" stroke="midnightblue" d="M310.349,-59.5C318.668,-59.5 327.268,-59.5 335.822,-59.5"/>
<polygon fill="midnightblue" stroke="midnightblue" points="335.824,-63.0001 345.824,-59.5 335.824,-56.0001 335.824,-63.0001"/>
</g>
<!-- Node24 -->
<g id="node7" class="node"><title>Node24</title>
<g id="a_node7"><a xlink:href="class_minecraft_server_service_1_1_server.html#a3040817c744456263f8ba36bdb72bf20" target="_top" xlink:title="MinecraftServerService\l::Server::outputListenerThread">
<polygon fill="none" stroke="black" points="553,-0.5 553,-30.5 702,-30.5 702,-0.5 553,-0.5"/>
<text text-anchor="start" x="561" y="-18.5" font-family="Helvetica,sans-Serif" font-size="10.00">MinecraftServerService</text>
<text text-anchor="middle" x="627.5" y="-7.5" font-family="Helvetica,sans-Serif" font-size="10.00">::Server::outputListenerThread</text>
</a>
</g>
</g>
<!-- Node21&#45;&gt;Node24 -->
<g id="edge11" class="edge"><title>Node21&#45;&gt;Node24</title>
<path fill="none" stroke="midnightblue" d="M298.14,-44.4427C313.487,-40.6388 330.31,-36.9447 346,-34.5 411.606,-24.2781 486.691,-19.5547 542.658,-17.3725"/>
<polygon fill="midnightblue" stroke="midnightblue" points="543.015,-20.8618 552.879,-16.9939 542.756,-13.8666 543.015,-20.8618"/>
</g>
<!-- Node23 -->
<g id="node6" class="node"><title>Node23</title>
<g id="a_node6"><a xlink:href="class_minecraft_server_service_1_1_server.html#a085f201bd563ce47e2b41778ef72d20d" target="_top" xlink:title="MinecraftServerService\l::Server::getUIDAndGIDFromUsername">
<polygon fill="none" stroke="black" points="532,-88.5 532,-118.5 723,-118.5 723,-88.5 532,-88.5"/>
<text text-anchor="start" x="540" y="-106.5" font-family="Helvetica,sans-Serif" font-size="10.00">MinecraftServerService</text>
<text text-anchor="middle" x="627.5" y="-95.5" font-family="Helvetica,sans-Serif" font-size="10.00">::Server::getUIDAndGIDFromUsername</text>
</a>
</g>
</g>
<!-- Node22&#45;&gt;Node23 -->
<g id="edge7" class="edge"><title>Node22&#45;&gt;Node23</title>
<path fill="none" stroke="midnightblue" d="M491.805,-74.5192C509.476,-78.3212 528.589,-82.4336 546.712,-86.3328"/>
<polygon fill="midnightblue" stroke="midnightblue" points="546.15,-89.792 556.662,-88.4738 547.622,-82.9486 546.15,-89.792"/>
</g>
<!-- Node22&#45;&gt;Node24 -->
<g id="edge8" class="edge"><title>Node22&#45;&gt;Node24</title>
<path fill="none" stroke="midnightblue" d="M491.805,-44.4808C509.476,-40.6788 528.589,-36.5664 546.712,-32.6672"/>
<polygon fill="midnightblue" stroke="midnightblue" points="547.622,-36.0514 556.662,-30.5262 546.15,-29.208 547.622,-36.0514"/>
</g>
<!-- Node25 -->
<g id="node8" class="node"><title>Node25</title>
<g id="a_node8"><a xlink:href="class_minecraft_server_service_1_1_server.html#a4ecf103c62bd8f1e54b2ff436fa1645a" target="_top" xlink:title="MinecraftServerService\l::Server::serverOutputEvent">
<polygon fill="none" stroke="black" points="759,-22.5 759,-52.5 898,-52.5 898,-22.5 759,-22.5"/>
<text text-anchor="start" x="767" y="-40.5" font-family="Helvetica,sans-Serif" font-size="10.00">MinecraftServerService</text>
<text text-anchor="middle" x="828.5" y="-29.5" font-family="Helvetica,sans-Serif" font-size="10.00">::Server::serverOutputEvent</text>
</a>
</g>
</g>
<!-- Node22&#45;&gt;Node25 -->
<g id="edge10" class="edge"><title>Node22&#45;&gt;Node25</title>
<path fill="none" stroke="midnightblue" d="M496.375,-55.4649C568,-51.5789 675.937,-45.7229 748.938,-41.7623"/>
<polygon fill="midnightblue" stroke="midnightblue" points="749.203,-45.2531 758.999,-41.2164 748.824,-38.2634 749.203,-45.2531"/>
</g>
<!-- Node24&#45;&gt;Node25 -->
<g id="edge9" class="edge"><title>Node24&#45;&gt;Node25</title>
<path fill="none" stroke="midnightblue" d="M702.035,-23.6295C717.293,-25.3163 733.427,-27.1 748.861,-28.8062"/>
<polygon fill="midnightblue" stroke="midnightblue" points="748.561,-32.2943 758.885,-29.9144 749.33,-25.3367 748.561,-32.2943"/>
</g>
</g>
</svg>
        <g id="navigator" transform="translate(0 0)" fill="#404254">
                <rect fill="#f2f5e9" fill-opacity="0.5" stroke="#606060" stroke-width=".5" x="0" y="0" width="60" height="60"/>
                <use id="zoomplus" xlink:href="#zoomPlus" x="17" y="9" onmousedown="handleZoom(evt,'in')"/>
                <use id="zoomminus" xlink:href="#zoomMin" x="42" y="9" onmousedown="handleZoom(evt,'out')"/>
                <use id="reset" xlink:href="#resetDef" x="30" y="36" onmousedown="handleReset()"/>
                <g id="arrowUp" xlink:href="#dirArrow" transform="translate(30 24)" onmousedown="handlePan(0,-1)">
                  <use xlink:href="#rim" fill="#404040">
                        <set attributeName="fill" to="#808080" begin="arrowUp.mouseover" end="arrowUp.mouseout"/>
                  </use>
                  <path fill="none" stroke="white" stroke-width="1.5" d="M0,-3.0v7 M-2.5,-0.5L0,-3.0L2.5,-0.5"/>
                </g>
                <g id="arrowRight" xlink:href="#dirArrow" transform="rotate(90) translate(36 -43)" onmousedown="handlePan(1,0)">
                  <use xlink:href="#rim" fill="#404040">
                        <set attributeName="fill" to="#808080" begin="arrowRight.mouseover" end="arrowRight.mouseout"/>
                  </use>
                  <path fill="none" stroke="white" stroke-width="1.5" d="M0,-3.0v7 M-2.5,-0.5L0,-3.0L2.5,-0.5"/>
                </g>
                <g id="arrowDown" xlink:href="#dirArrow" transform="rotate(180) translate(-30 -48)" onmousedown="handlePan(0,1)">
                  <use xlink:href="#rim" fill="#404040">
                        <set attributeName="fill" to="#808080" begin="arrowDown.mouseover" end="arrowDown.mouseout"/>
                  </use>
                  <path fill="none" stroke="white" stroke-width="1.5" d="M0,-3.0v7 M-2.5,-0.5L0,-3.0L2.5,-0.5"/>
                </g>
                <g id="arrowLeft" xlink:href="#dirArrow" transform="rotate(270) translate(-36 17)" onmousedown="handlePan(-1,0)">
                  <use xlink:href="#rim" fill="#404040">
                        <set attributeName="fill" to="#808080" begin="arrowLeft.mouseover" end="arrowLeft.mouseout"/>
                  </use>
                  <path fill="none" stroke="white" stroke-width="1.5" d="M0,-3.0v7 M-2.5,-0.5L0,-3.0L2.5,-0.5"/>
                </g>
        </g>
        <svg viewBox="0 0 15 15" width="100%" height="30px" preserveAspectRatio="xMaxYMin meet">
         <g id="arrow_out" transform="scale(0.3 0.3)">
          <a xlink:href="class_minecraft_server_service_1_1_bukkit_server_afdd768465fedfbea100da7f62cbd11d0_cgraph_org.svg" target="_base">
           <rect id="button" ry="5" rx="5" y="6" x="6" height="38" width="38"
                fill="#f2f5e9" fill-opacity="0.5" stroke="#606060" stroke-width="1.0"/>
           <path id="arrow"
             d="M 11.500037,31.436501 C 11.940474,20.09759 22.043105,11.32322 32.158766,21.979434 L 37.068811,17.246167 C 37.068811,17.246167 37.088388,32 37.088388,32 L 22.160133,31.978069 C 22.160133,31.978069 26.997745,27.140456 26.997745,27.140456 C 18.528582,18.264221 13.291696,25.230495 11.500037,31.436501 z"
             style="fill:#404040;"/>
          </a>
         </g>
        </svg>
</svg>
