<?xml version="1.0" encoding="UTF-8" standalone="no"?>
<!DOCTYPE svg PUBLIC "-//W3C//DTD SVG 1.1//EN"
 "http://www.w3.org/Graphics/SVG/1.1/DTD/svg11.dtd">
<!-- Generated by graphviz version 2.38.0 (20140413.2041)
 -->
<!-- Title: MinecraftServerService::GenericServer::startServer Pages: 1 -->
<svg width="735pt" height="132pt"
 viewBox="0.00 0.00 735.00 132.00" xmlns="http://www.w3.org/2000/svg" xmlns:xlink="http://www.w3.org/1999/xlink">
<g id="graph0" class="graph" transform="scale(1 1) rotate(0) translate(4 128)">
<title>MinecraftServerService::GenericServer::startServer</title>
<!-- Node33 -->
<g id="node1" class="node"><title>Node33</title>
<polygon fill="#bfbfbf" stroke="black" points="0,-44.5 0,-74.5 139,-74.5 139,-44.5 0,-44.5"/>
<text text-anchor="start" x="8" y="-62.5" font-family="Helvetica,sans-Serif" font-size="10.00">MinecraftServerService</text>
<text text-anchor="middle" x="69.5" y="-51.5" font-family="Helvetica,sans-Serif" font-size="10.00">::GenericServer::startServer</text>
</g>
<!-- Node34 -->
<g id="node2" class="node"><title>Node34</title>
<g id="a_node2"><a xlink:href="class_minecraft_server_service_1_1_server.html#a1954e7c7756cd956e7282887ffca73e4" target="_top" xlink:title="MinecraftServerService\l::Server::isRunning">
<polygon fill="none" stroke="black" points="190.5,-93.5 190.5,-123.5 309.5,-123.5 309.5,-93.5 190.5,-93.5"/>
<text text-anchor="start" x="198.5" y="-111.5" font-family="Helvetica,sans-Serif" font-size="10.00">MinecraftServerService</text>
<text text-anchor="middle" x="250" y="-100.5" font-family="Helvetica,sans-Serif" font-size="10.00">::Server::isRunning</text>
</a>
</g>
</g>
<!-- Node33&#45;&gt;Node34 -->
<g id="edge1" class="edge"><title>Node33&#45;&gt;Node34</title>
<path fill="none" stroke="midnightblue" d="M125.512,-74.6014C144.093,-79.7019 165.006,-85.4429 184.268,-90.7305"/>
<polygon fill="midnightblue" stroke="midnightblue" points="183.599,-94.1763 194.169,-93.4484 185.453,-87.426 183.599,-94.1763"/>
</g>
<!-- Node35 -->
<g id="node3" class="node"><title>Node35</title>
<g id="a_node3"><a xlink:href="class_minecraft_server_service_1_1_server.html#a16a19b4cfd94f23c20442cea9b46f678" target="_top" xlink:title="MinecraftServerService\l::Server::launchServerProcess">
<polygon fill="none" stroke="black" points="175,-44.5 175,-74.5 325,-74.5 325,-44.5 175,-44.5"/>
<text text-anchor="start" x="183" y="-62.5" font-family="Helvetica,sans-Serif" font-size="10.00">MinecraftServerService</text>
<text text-anchor="middle" x="250" y="-51.5" font-family="Helvetica,sans-Serif" font-size="10.00">::Server::launchServerProcess</text>
</a>
</g>
</g>
<!-- Node33&#45;&gt;Node35 -->
<g id="edge2" class="edge"><title>Node33&#45;&gt;Node35</title>
<path fill="none" stroke="midnightblue" d="M139.002,-59.5C147.411,-59.5 156.081,-59.5 164.688,-59.5"/>
<polygon fill="midnightblue" stroke="midnightblue" points="164.746,-63.0001 174.746,-59.5 164.746,-56.0001 164.746,-63.0001"/>
</g>
<!-- Node37 -->
<g id="node5" class="node"><title>Node37</title>
<g id="a_node5"><a xlink:href="class_minecraft_server_service_1_1_server.html#a3040817c744456263f8ba36bdb72bf20" target="_top" xlink:title="MinecraftServerService\l::Server::outputListenerThread">
<polygon fill="none" stroke="black" points="382,-0.5 382,-30.5 531,-30.5 531,-0.5 382,-0.5"/>
<text text-anchor="start" x="390" y="-18.5" font-family="Helvetica,sans-Serif" font-size="10.00">MinecraftServerService</text>
<text text-anchor="middle" x="456.5" y="-7.5" font-family="Helvetica,sans-Serif" font-size="10.00">::Server::outputListenerThread</text>
</a>
</g>
</g>
<!-- Node33&#45;&gt;Node37 -->
<g id="edge7" class="edge"><title>Node33&#45;&gt;Node37</title>
<path fill="none" stroke="midnightblue" d="M125.749,-44.4613C141.55,-40.6577 158.864,-36.959 175,-34.5 240.639,-24.4972 315.723,-19.76 371.68,-17.5169"/>
<polygon fill="midnightblue" stroke="midnightblue" points="372.04,-21.0057 381.899,-17.1263 371.773,-14.0108 372.04,-21.0057"/>
</g>
<!-- Node36 -->
<g id="node4" class="node"><title>Node36</title>
<g id="a_node4"><a xlink:href="class_minecraft_server_service_1_1_server.html#a085f201bd563ce47e2b41778ef72d20d" target="_top" xlink:title="MinecraftServerService\l::Server::getUIDAndGIDFromUsername">
<polygon fill="none" stroke="black" points="361,-88.5 361,-118.5 552,-118.5 552,-88.5 361,-88.5"/>
<text text-anchor="start" x="369" y="-106.5" font-family="Helvetica,sans-Serif" font-size="10.00">MinecraftServerService</text>
<text text-anchor="middle" x="456.5" y="-95.5" font-family="Helvetica,sans-Serif" font-size="10.00">::Server::getUIDAndGIDFromUsername</text>
</a>
</g>
</g>
<!-- Node35&#45;&gt;Node36 -->
<g id="edge3" class="edge"><title>Node35&#45;&gt;Node36</title>
<path fill="none" stroke="midnightblue" d="M320.805,-74.5192C338.476,-78.3212 357.589,-82.4336 375.712,-86.3328"/>
<polygon fill="midnightblue" stroke="midnightblue" points="375.15,-89.792 385.662,-88.4738 376.622,-82.9486 375.15,-89.792"/>
</g>
<!-- Node35&#45;&gt;Node37 -->
<g id="edge4" class="edge"><title>Node35&#45;&gt;Node37</title>
<path fill="none" stroke="midnightblue" d="M320.805,-44.4808C338.476,-40.6788 357.589,-36.5664 375.712,-32.6672"/>
<polygon fill="midnightblue" stroke="midnightblue" points="376.622,-36.0514 385.662,-30.5262 375.15,-29.208 376.622,-36.0514"/>
</g>
<!-- Node38 -->
<g id="node6" class="node"><title>Node38</title>
<g id="a_node6"><a xlink:href="class_minecraft_server_service_1_1_server.html#a4ecf103c62bd8f1e54b2ff436fa1645a" target="_top" xlink:title="MinecraftServerService\l::Server::serverOutputEvent">
<polygon fill="none" stroke="black" points="588,-22.5 588,-52.5 727,-52.5 727,-22.5 588,-22.5"/>
<text text-anchor="start" x="596" y="-40.5" font-family="Helvetica,sans-Serif" font-size="10.00">MinecraftServerService</text>
<text text-anchor="middle" x="657.5" y="-29.5" font-family="Helvetica,sans-Serif" font-size="10.00">::Server::serverOutputEvent</text>
</a>
</g>
</g>
<!-- Node35&#45;&gt;Node38 -->
<g id="edge6" class="edge"><title>Node35&#45;&gt;Node38</title>
<path fill="none" stroke="midnightblue" d="M325.375,-55.4649C397,-51.5789 504.937,-45.7229 577.938,-41.7623"/>
<polygon fill="midnightblue" stroke="midnightblue" points="578.203,-45.2531 587.999,-41.2164 577.824,-38.2634 578.203,-45.2531"/>
</g>
<!-- Node37&#45;&gt;Node38 -->
<g id="edge5" class="edge"><title>Node37&#45;&gt;Node38</title>
<path fill="none" stroke="midnightblue" d="M531.035,-23.6295C546.293,-25.3163 562.427,-27.1 577.861,-28.8062"/>
<polygon fill="midnightblue" stroke="midnightblue" points="577.561,-32.2943 587.885,-29.9144 578.33,-25.3367 577.561,-32.2943"/>
</g>
</g>
</svg>
