<?xml version="1.0" encoding="UTF-8" standalone="no"?>
<!DOCTYPE svg PUBLIC "-//W3C//DTD SVG 1.1//EN"
 "http://www.w3.org/Graphics/SVG/1.1/DTD/svg11.dtd">
<!-- Generated by graphviz version 2.38.0 (20140413.2041)
 -->
<!-- Title: MinecraftServerService::BungeeCordServer::reloadServer Pages: 1 -->
<svg width="387pt" height="148pt"
 viewBox="0.00 0.00 387.00 147.50" xmlns="http://www.w3.org/2000/svg" xmlns:xlink="http://www.w3.org/1999/xlink">
<g id="graph0" class="graph" transform="scale(1 1) rotate(0) translate(4 143.5)">
<title>MinecraftServerService::BungeeCordServer::reloadServer</title>
<!-- Node18 -->
<g id="node1" class="node"><title>Node18</title>
<polygon fill="#bfbfbf" stroke="black" points="0,-49.5 0,-79.5 166,-79.5 166,-49.5 0,-49.5"/>
<text text-anchor="start" x="8" y="-67.5" font-family="Helvetica,sans-Serif" font-size="10.00">MinecraftServerService</text>
<text text-anchor="middle" x="83" y="-56.5" font-family="Helvetica,sans-Serif" font-size="10.00">::BungeeCordServer::reloadServer</text>
</g>
<!-- Node19 -->
<g id="node2" class="node"><title>Node19</title>
<g id="a_node2"><a xlink:href="class_minecraft_server_service_1_1_bungee_cord_server.html#ab6b5e763d5197033293075062f441b82" target="_top" xlink:title="MinecraftServerService\l::BungeeCordServer::listOnline\lPlayers">
<polygon fill="none" stroke="black" points="214.5,-98 214.5,-139 366.5,-139 366.5,-98 214.5,-98"/>
<text text-anchor="start" x="222.5" y="-127" font-family="Helvetica,sans-Serif" font-size="10.00">MinecraftServerService</text>
<text text-anchor="start" x="222.5" y="-116" font-family="Helvetica,sans-Serif" font-size="10.00">::BungeeCordServer::listOnline</text>
<text text-anchor="middle" x="290.5" y="-105" font-family="Helvetica,sans-Serif" font-size="10.00">Players</text>
</a>
</g>
</g>
<!-- Node18&#45;&gt;Node19 -->
<g id="edge1" class="edge"><title>Node18&#45;&gt;Node19</title>
<path fill="none" stroke="midnightblue" d="M141.243,-79.542C160.914,-84.711 183.373,-90.6127 204.758,-96.2321"/>
<polygon fill="midnightblue" stroke="midnightblue" points="203.933,-99.634 214.494,-98.7905 205.712,-92.8639 203.933,-99.634"/>
</g>
<!-- Node20 -->
<g id="node3" class="node"><title>Node20</title>
<g id="a_node3"><a xlink:href="class_minecraft_server_service_1_1_bungee_cord_server.html#a4c398b65df83fe47cdaf8c4e5de66dff" target="_top" xlink:title="MinecraftServerService\l::BungeeCordServer::sendCommand">
<polygon fill="none" stroke="black" points="202,-49.5 202,-79.5 379,-79.5 379,-49.5 202,-49.5"/>
<text text-anchor="start" x="210" y="-67.5" font-family="Helvetica,sans-Serif" font-size="10.00">MinecraftServerService</text>
<text text-anchor="middle" x="290.5" y="-56.5" font-family="Helvetica,sans-Serif" font-size="10.00">::BungeeCordServer::sendCommand</text>
</a>
</g>
</g>
<!-- Node18&#45;&gt;Node20 -->
<g id="edge2" class="edge"><title>Node18&#45;&gt;Node20</title>
<path fill="none" stroke="midnightblue" d="M166.105,-64.5C174.542,-64.5 183.173,-64.5 191.757,-64.5"/>
<polygon fill="midnightblue" stroke="midnightblue" points="191.798,-68.0001 201.798,-64.5 191.798,-61.0001 191.798,-68.0001"/>
</g>
<!-- Node21 -->
<g id="node4" class="node"><title>Node21</title>
<g id="a_node4"><a xlink:href="class_minecraft_server_service_1_1_bungee_cord_server.html#abd82aabf8161c73d05ec9fc95d50a4a3" target="_top" xlink:title="MinecraftServerService\l::BungeeCordServer::logger">
<polygon fill="none" stroke="black" points="222,-0.5 222,-30.5 359,-30.5 359,-0.5 222,-0.5"/>
<text text-anchor="start" x="230" y="-18.5" font-family="Helvetica,sans-Serif" font-size="10.00">MinecraftServerService</text>
<text text-anchor="middle" x="290.5" y="-7.5" font-family="Helvetica,sans-Serif" font-size="10.00">::BungeeCordServer::logger</text>
</a>
</g>
</g>
<!-- Node18&#45;&gt;Node21 -->
<g id="edge3" class="edge"><title>Node18&#45;&gt;Node21</title>
<path fill="none" stroke="midnightblue" d="M147.053,-49.4654C169.047,-44.2211 193.908,-38.2931 216.634,-32.8745"/>
<polygon fill="midnightblue" stroke="midnightblue" points="217.65,-36.2302 226.566,-30.5062 216.027,-29.4211 217.65,-36.2302"/>
</g>
</g>
</svg>
