<?xml version="1.0" encoding="UTF-8" standalone="no"?>
<!DOCTYPE svg PUBLIC "-//W3C//DTD SVG 1.1//EN"
 "http://www.w3.org/Graphics/SVG/1.1/DTD/svg11.dtd">
<!-- Generated by graphviz version 2.38.0 (20140413.2041)
 -->
<!-- Title: MinecraftServerService::ServerStream::stopServer Pages: 1 -->
<!--zoomable 61 -->
<svg id="main" version="1.1" xmlns="http://www.w3.org/2000/svg" xmlns:xlink="http://www.w3.org/1999/xlink" xml:space="preserve" onload="init(evt)">
<style type="text/css"><![CDATA[
.edge:hover path { stroke: red; }
.edge:hover polygon { stroke: red; fill: red; }
]]></style>
<script type="text/javascript"><![CDATA[
var edges = document.getElementsByTagName('g');
if (edges && edges.length) {
  for (var i=0;i<edges.length;i++) {
    if (edges[i].id.substr(0,4)=='edge') {
      edges[i].setAttribute('class','edge');
    }
  }
}
]]></script>
        <defs>
                <circle id="rim" cx="0" cy="0" r="7"/>
                <circle id="rim2" cx="0" cy="0" r="3.5"/>
                <g id="zoomPlus">
                        <use xlink:href="#rim" fill="#404040">
                                <set attributeName="fill" to="#808080" begin="zoomplus.mouseover" end="zoomplus.mouseout"/>
                        </use>
                        <path d="M-4,0h8M0,-4v8" fill="none" stroke="white" stroke-width="1.5" pointer-events="none"/>
                </g>
                <g id="zoomMin">
                        <use xlink:href="#rim" fill="#404040">
                                <set attributeName="fill" to="#808080" begin="zoomminus.mouseover" end="zoomminus.mouseout"/>
                        </use>
                        <path d="M-4,0h8" fill="none" stroke="white" stroke-width="1.5" pointer-events="none"/>
                </g>
                <g id="dirArrow">
                        <path fill="none" stroke="white" stroke-width="1.5" d="M0,-3.0v7 M-2.5,-0.5L0,-3.0L2.5,-0.5"/>
                </g>
               <g id="resetDef">
                       <use xlink:href="#rim2" fill="#404040">
                               <set attributeName="fill" to="#808080" begin="reset.mouseover" end="reset.mouseout"/>
                       </use>
               </g>
        </defs>

<script type="text/javascript">
var viewWidth = 505;
var viewHeight = 61;
var sectionId = 'dynsection-5';
</script>
<script xlink:href="svgpan.js"/>
<svg id="graph" class="graph">
<g id="viewport">
<title>MinecraftServerService::ServerStream::stopServer</title>
<!-- Node14 -->
<g id="node1" class="node"><title>Node14</title>
<polygon fill="#bfbfbf" stroke="black" points="0,-22.5 0,-52.5 136,-52.5 136,-22.5 0,-22.5"/>
<text text-anchor="start" x="8" y="-40.5" font-family="Helvetica,sans-Serif" font-size="10.00">MinecraftServerService</text>
<text text-anchor="middle" x="68" y="-29.5" font-family="Helvetica,sans-Serif" font-size="10.00">::ServerStream::stopServer</text>
</g>
<!-- Node15 -->
<g id="node2" class="node"><title>Node15</title>
<g id="a_node2"><a xlink:href="class_minecraft_server_service_1_1_server_process_buf.html#aea2e874a9ba6aa6558201008d9b909f0" target="_top" xlink:title="MinecraftServerService\l::ServerProcessBuf::exited">
<polygon fill="none" stroke="black" points="363,-22.5 363,-52.5 497,-52.5 497,-22.5 363,-22.5"/>
<text text-anchor="start" x="371" y="-40.5" font-family="Helvetica,sans-Serif" font-size="10.00">MinecraftServerService</text>
<text text-anchor="middle" x="430" y="-29.5" font-family="Helvetica,sans-Serif" font-size="10.00">::ServerProcessBuf::exited</text>
</a>
</g>
</g>
<!-- Node14&#45;&gt;Node15 -->
<g id="edge1" class="edge"><title>Node14&#45;&gt;Node15</title>
<path fill="none" stroke="midnightblue" d="M136.035,-39.7353C148.01,-40.054 160.373,-40.3307 172,-40.5 240.882,-41.5029 258.119,-41.5127 327,-40.5 335.339,-40.3774 344.061,-40.1984 352.743,-39.988"/>
<polygon fill="midnightblue" stroke="midnightblue" points="352.983,-43.483 362.89,-39.7279 352.804,-36.4853 352.983,-43.483"/>
</g>
<!-- Node16 -->
<g id="node3" class="node"><title>Node16</title>
<g id="a_node3"><a xlink:href="class_minecraft_server_service_1_1_server_stream.html#a194212956c6eb928a2db1b25e70dc565" target="_top" xlink:title="MinecraftServerService\l::ServerStream::sendCommand">
<polygon fill="none" stroke="black" points="172,-0.5 172,-30.5 327,-30.5 327,-0.5 172,-0.5"/>
<text text-anchor="start" x="180" y="-18.5" font-family="Helvetica,sans-Serif" font-size="10.00">MinecraftServerService</text>
<text text-anchor="middle" x="249.5" y="-7.5" font-family="Helvetica,sans-Serif" font-size="10.00">::ServerStream::sendCommand</text>
</a>
</g>
</g>
<!-- Node14&#45;&gt;Node16 -->
<g id="edge2" class="edge"><title>Node14&#45;&gt;Node16</title>
<path fill="none" stroke="midnightblue" d="M136.094,-29.2767C144.468,-28.2504 153.124,-27.1895 161.743,-26.1332"/>
<polygon fill="midnightblue" stroke="midnightblue" points="162.324,-29.5882 171.824,-24.8976 161.473,-22.6402 162.324,-29.5882"/>
</g>
<!-- Node16&#45;&gt;Node15 -->
<g id="edge3" class="edge"><title>Node16&#45;&gt;Node15</title>
<path fill="none" stroke="midnightblue" d="M327.236,-24.9577C335.793,-26.0123 344.507,-27.0863 353.055,-28.1398"/>
<polygon fill="midnightblue" stroke="midnightblue" points="352.64,-31.6151 362.993,-29.3647 353.496,-24.6676 352.64,-31.6151"/>
</g>
</g>
</svg>
        <g id="navigator" transform="translate(0 0)" fill="#404254">
                <rect fill="#f2f5e9" fill-opacity="0.5" stroke="#606060" stroke-width=".5" x="0" y="0" width="60" height="60"/>
                <use id="zoomplus" xlink:href="#zoomPlus" x="17" y="9" onmousedown="handleZoom(evt,'in')"/>
                <use id="zoomminus" xlink:href="#zoomMin" x="42" y="9" onmousedown="handleZoom(evt,'out')"/>
                <use id="reset" xlink:href="#resetDef" x="30" y="36" onmousedown="handleReset()"/>
                <g id="arrowUp" xlink:href="#dirArrow" transform="translate(30 24)" onmousedown="handlePan(0,-1)">
                  <use xlink:href="#rim" fill="#404040">
                        <set attributeName="fill" to="#808080" begin="arrowUp.mouseover" end="arrowUp.mouseout"/>
                  </use>
                  <path fill="none" stroke="white" stroke-width="1.5" d="M0,-3.0v7 M-2.5,-0.5L0,-3.0L2.5,-0.5"/>
                </g>
                <g id="arrowRight" xlink:href="#dirArrow" transform="rotate(90) translate(36 -43)" onmousedown="handlePan(1,0)">
                  <use xlink:href="#rim" fill="#404040">
                        <set attributeName="fill" to="#808080" begin="arrowRight.mouseover" end="arrowRight.mouseout"/>
                  </use>
                  <path fill="none" stroke="white" stroke-width="1.5" d="M0,-3.0v7 M-2.5,-0.5L0,-3.0L2.5,-0.5"/>
                </g>
                <g id="arrowDown" xlink:href="#dirArrow" transform="rotate(180) translate(-30 -48)" onmousedown="handlePan(0,1)">
                  <use xlink:href="#rim" fill="#404040">
                        <set attributeName="fill" to="#808080" begin="arrowDown.mouseover" end="arrowDown.mouseout"/>
                  </use>
                  <path fill="none" stroke="white" stroke-width="1.5" d="M0,-3.0v7 M-2.5,-0.5L0,-3.0L2.5,-0.5"/>
                </g>
                <g id="arrowLeft" xlink:href="#dirArrow" transform="rotate(270) translate(-36 17)" onmousedown="handlePan(-1,0)">
                  <use xlink:href="#rim" fill="#404040">
                        <set attributeName="fill" to="#808080" begin="arrowLeft.mouseover" end="arrowLeft.mouseout"/>
                  </use>
                  <path fill="none" stroke="white" stroke-width="1.5" d="M0,-3.0v7 M-2.5,-0.5L0,-3.0L2.5,-0.5"/>
                </g>
        </g>
        <svg viewBox="0 0 15 15" width="100%" height="30px" preserveAspectRatio="xMaxYMin meet">
         <g id="arrow_out" transform="scale(0.3 0.3)">
          <a xlink:href="class_minecraft_server_service_1_1_server_stream_af8529e03480497e12e171cf93709e757_cgraph_org.svg" target="_base">
           <rect id="button" ry="5" rx="5" y="6" x="6" height="38" width="38"
                fill="#f2f5e9" fill-opacity="0.5" stroke="#606060" stroke-width="1.0"/>
           <path id="arrow"
             d="M 11.500037,31.436501 C 11.940474,20.09759 22.043105,11.32322 32.158766,21.979434 L 37.068811,17.246167 C 37.068811,17.246167 37.088388,32 37.088388,32 L 22.160133,31.978069 C 22.160133,31.978069 26.997745,27.140456 26.997745,27.140456 C 18.528582,18.264221 13.291696,25.230495 11.500037,31.436501 z"
             style="fill:#404040;"/>
          </a>
         </g>
        </svg>
</svg>
