<?xml version="1.0" encoding="UTF-8" standalone="no"?>
<!DOCTYPE svg PUBLIC "-//W3C//DTD SVG 1.1//EN"
 "http://www.w3.org/Graphics/SVG/1.1/DTD/svg11.dtd">
<!-- Generated by graphviz version 2.38.0 (20140413.2041)
 -->
<!-- Title: MinecraftServerService::ServerStream::~ServerStream Pages: 1 -->
<svg width="696pt" height="61pt"
 viewBox="0.00 0.00 696.00 61.00" xmlns="http://www.w3.org/2000/svg" xmlns:xlink="http://www.w3.org/1999/xlink">
<g id="graph0" class="graph" transform="scale(1 1) rotate(0) translate(4 57)">
<title>MinecraftServerService::ServerStream::~ServerStream</title>
<!-- Node2 -->
<g id="node1" class="node"><title>Node2</title>
<polygon fill="#bfbfbf" stroke="black" points="0,-22.5 0,-52.5 155,-52.5 155,-22.5 0,-22.5"/>
<text text-anchor="start" x="8" y="-40.5" font-family="Helvetica,sans-Serif" font-size="10.00">MinecraftServerService</text>
<text text-anchor="middle" x="77.5" y="-29.5" font-family="Helvetica,sans-Serif" font-size="10.00">::ServerStream::~ServerStream</text>
</g>
<!-- Node3 -->
<g id="node2" class="node"><title>Node3</title>
<g id="a_node2"><a xlink:href="class_minecraft_server_service_1_1_server_stream.html#af8529e03480497e12e171cf93709e757" target="_top" xlink:title="MinecraftServerService\l::ServerStream::stopServer">
<polygon fill="none" stroke="black" points="191,-22.5 191,-52.5 327,-52.5 327,-22.5 191,-22.5"/>
<text text-anchor="start" x="199" y="-40.5" font-family="Helvetica,sans-Serif" font-size="10.00">MinecraftServerService</text>
<text text-anchor="middle" x="259" y="-29.5" font-family="Helvetica,sans-Serif" font-size="10.00">::ServerStream::stopServer</text>
</a>
</g>
</g>
<!-- Node2&#45;&gt;Node3 -->
<g id="edge1" class="edge"><title>Node2&#45;&gt;Node3</title>
<path fill="none" stroke="midnightblue" d="M155.145,-37.5C163.613,-37.5 172.24,-37.5 180.716,-37.5"/>
<polygon fill="midnightblue" stroke="midnightblue" points="180.958,-41.0001 190.958,-37.5 180.958,-34.0001 180.958,-41.0001"/>
</g>
<!-- Node4 -->
<g id="node3" class="node"><title>Node4</title>
<g id="a_node3"><a xlink:href="class_minecraft_server_service_1_1_server_process_buf.html#aea2e874a9ba6aa6558201008d9b909f0" target="_top" xlink:title="MinecraftServerService\l::ServerProcessBuf::exited">
<polygon fill="none" stroke="black" points="554,-22.5 554,-52.5 688,-52.5 688,-22.5 554,-22.5"/>
<text text-anchor="start" x="562" y="-40.5" font-family="Helvetica,sans-Serif" font-size="10.00">MinecraftServerService</text>
<text text-anchor="middle" x="621" y="-29.5" font-family="Helvetica,sans-Serif" font-size="10.00">::ServerProcessBuf::exited</text>
</a>
</g>
</g>
<!-- Node3&#45;&gt;Node4 -->
<g id="edge2" class="edge"><title>Node3&#45;&gt;Node4</title>
<path fill="none" stroke="midnightblue" d="M327.035,-39.7353C339.01,-40.054 351.373,-40.3307 363,-40.5 431.882,-41.5029 449.119,-41.5127 518,-40.5 526.339,-40.3774 535.061,-40.1984 543.743,-39.988"/>
<polygon fill="midnightblue" stroke="midnightblue" points="543.983,-43.483 553.89,-39.7279 543.804,-36.4853 543.983,-43.483"/>
</g>
<!-- Node5 -->
<g id="node4" class="node"><title>Node5</title>
<g id="a_node4"><a xlink:href="class_minecraft_server_service_1_1_server_stream.html#a194212956c6eb928a2db1b25e70dc565" target="_top" xlink:title="MinecraftServerService\l::ServerStream::sendCommand">
<polygon fill="none" stroke="black" points="363,-0.5 363,-30.5 518,-30.5 518,-0.5 363,-0.5"/>
<text text-anchor="start" x="371" y="-18.5" font-family="Helvetica,sans-Serif" font-size="10.00">MinecraftServerService</text>
<text text-anchor="middle" x="440.5" y="-7.5" font-family="Helvetica,sans-Serif" font-size="10.00">::ServerStream::sendCommand</text>
</a>
</g>
</g>
<!-- Node3&#45;&gt;Node5 -->
<g id="edge3" class="edge"><title>Node3&#45;&gt;Node5</title>
<path fill="none" stroke="midnightblue" d="M327.094,-29.2767C335.468,-28.2504 344.124,-27.1895 352.743,-26.1332"/>
<polygon fill="midnightblue" stroke="midnightblue" points="353.324,-29.5882 362.824,-24.8976 352.473,-22.6402 353.324,-29.5882"/>
</g>
<!-- Node5&#45;&gt;Node4 -->
<g id="edge4" class="edge"><title>Node5&#45;&gt;Node4</title>
<path fill="none" stroke="midnightblue" d="M518.236,-24.9577C526.793,-26.0123 535.507,-27.0863 544.055,-28.1398"/>
<polygon fill="midnightblue" stroke="midnightblue" points="543.64,-31.6151 553.993,-29.3647 544.496,-24.6676 543.64,-31.6151"/>
</g>
</g>
</svg>
