<?xml version="1.0" encoding="UTF-8" standalone="no"?>
<!DOCTYPE svg PUBLIC "-//W3C//DTD SVG 1.1//EN"
 "http://www.w3.org/Graphics/SVG/1.1/DTD/svg11.dtd">
<!-- Generated by graphviz version 2.38.0 (20140413.2041)
 -->
<!-- Title: Server::sendCommand Pages: 1 -->
<svg width="286pt" height="66pt"
 viewBox="0.00 0.00 286.00 66.00" xmlns="http://www.w3.org/2000/svg" xmlns:xlink="http://www.w3.org/1999/xlink">
<g id="graph0" class="graph" transform="scale(1 1) rotate(0) translate(4 62)">
<title>Server::sendCommand</title>
<!-- Node22 -->
<g id="node1" class="node"><title>Node22</title>
<polygon fill="#bfbfbf" stroke="black" points="0,-19.5 0,-38.5 117,-38.5 117,-19.5 0,-19.5"/>
<text text-anchor="middle" x="58.5" y="-26.5" font-family="Helvetica,sans-Serif" font-size="10.00">Server::sendCommand</text>
</g>
<!-- Node23 -->
<g id="node2" class="node"><title>Node23</title>
<g id="a_node2"><a xlink:href="class_server.html#a1c24b1f9b8b8ac513382ae0e7ba229eb" target="_top" xlink:title="Server::backupServer">
<polygon fill="none" stroke="black" points="160,-38.5 160,-57.5 271,-57.5 271,-38.5 160,-38.5"/>
<text text-anchor="middle" x="215.5" y="-45.5" font-family="Helvetica,sans-Serif" font-size="10.00">Server::backupServer</text>
</a>
</g>
</g>
<!-- Node22&#45;&gt;Node23 -->
<g id="edge1" class="edge"><title>Node22&#45;&gt;Node23</title>
<path fill="none" stroke="midnightblue" d="M127.146,-37.2921C138.067,-38.6308 149.253,-40.002 159.819,-41.2971"/>
<polygon fill="midnightblue" stroke="midnightblue" points="127.568,-33.8177 117.216,-36.0749 126.716,-40.7657 127.568,-33.8177"/>
</g>
<!-- Node24 -->
<g id="node3" class="node"><title>Node24</title>
<g id="a_node3"><a xlink:href="class_server.html#ac773bd5a8ccf7e27690e252559e7846b" target="_top" xlink:title="Server::listOnlinePlayers">
<polygon fill="none" stroke="black" points="153,-0.5 153,-19.5 278,-19.5 278,-0.5 153,-0.5"/>
<text text-anchor="middle" x="215.5" y="-7.5" font-family="Helvetica,sans-Serif" font-size="10.00">Server::listOnlinePlayers</text>
</a>
</g>
</g>
<!-- Node22&#45;&gt;Node24 -->
<g id="edge2" class="edge"><title>Node22&#45;&gt;Node24</title>
<path fill="none" stroke="midnightblue" d="M127.146,-20.7079C135.69,-19.6606 144.396,-18.5934 152.84,-17.5583"/>
<polygon fill="midnightblue" stroke="midnightblue" points="126.716,-17.2343 117.216,-21.9251 127.568,-24.1823 126.716,-17.2343"/>
</g>
</g>
</svg>
