<?xml version="1.0" encoding="UTF-8" standalone="no"?>
<!DOCTYPE svg PUBLIC "-//W3C//DTD SVG 1.1//EN"
 "http://www.w3.org/Graphics/SVG/1.1/DTD/svg11.dtd">
<!-- Generated by graphviz version 2.38.0 (20140413.2041)
 -->
<!-- Title: Json::OurReader::match Pages: 1 -->
<!--zoomable 176 -->
<svg id="main" version="1.1" xmlns="http://www.w3.org/2000/svg" xmlns:xlink="http://www.w3.org/1999/xlink" xml:space="preserve" onload="init(evt)">
<style type="text/css"><![CDATA[
.edge:hover path { stroke: red; }
.edge:hover polygon { stroke: red; fill: red; }
]]></style>
<script type="text/javascript"><![CDATA[
var edges = document.getElementsByTagName('g');
if (edges && edges.length) {
  for (var i=0;i<edges.length;i++) {
    if (edges[i].id.substr(0,4)=='edge') {
      edges[i].setAttribute('class','edge');
    }
  }
}
]]></script>
        <defs>
                <circle id="rim" cx="0" cy="0" r="7"/>
                <circle id="rim2" cx="0" cy="0" r="3.5"/>
                <g id="zoomPlus">
                        <use xlink:href="#rim" fill="#404040">
                                <set attributeName="fill" to="#808080" begin="zoomplus.mouseover" end="zoomplus.mouseout"/>
                        </use>
                        <path d="M-4,0h8M0,-4v8" fill="none" stroke="white" stroke-width="1.5" pointer-events="none"/>
                </g>
                <g id="zoomMin">
                        <use xlink:href="#rim" fill="#404040">
                                <set attributeName="fill" to="#808080" begin="zoomminus.mouseover" end="zoomminus.mouseout"/>
                        </use>
                        <path d="M-4,0h8" fill="none" stroke="white" stroke-width="1.5" pointer-events="none"/>
                </g>
                <g id="dirArrow">
                        <path fill="none" stroke="white" stroke-width="1.5" d="M0,-3.0v7 M-2.5,-0.5L0,-3.0L2.5,-0.5"/>
                </g>
               <g id="resetDef">
                       <use xlink:href="#rim2" fill="#404040">
                               <set attributeName="fill" to="#808080" begin="reset.mouseover" end="reset.mouseout"/>
                       </use>
               </g>
        </defs>

<script type="text/javascript">
var viewWidth = 1009;
var viewHeight = 176;
var sectionId = 'dynsection-25';
</script>
<script xlink:href="svgpan.js"/>
<svg id="graph" class="graph">
<g id="viewport">
<title>Json::OurReader::match</title>
<!-- Node141 -->
<g id="node1" class="node"><title>Node141</title>
<polygon fill="#bfbfbf" stroke="black" points="0,-66.056 0,-85.056 124,-85.056 124,-66.056 0,-66.056"/>
<text text-anchor="middle" x="62" y="-73.056" font-family="Helvetica,sans-Serif" font-size="10.00">Json::OurReader::match</text>
</g>
<!-- Node142 -->
<g id="node2" class="node"><title>Node142</title>
<g id="a_node2"><a xlink:href="class_json_1_1_our_reader.html#a0d1e66da47fe2e85f5033c59326dfdc3" target="_top" xlink:title="Json::OurReader::readToken">
<polygon fill="none" stroke="black" points="160,-66.056 160,-85.056 303,-85.056 303,-66.056 160,-66.056"/>
<text text-anchor="middle" x="231.5" y="-73.056" font-family="Helvetica,sans-Serif" font-size="10.00">Json::OurReader::readToken</text>
</a>
</g>
</g>
<!-- Node141&#45;&gt;Node142 -->
<g id="edge1" class="edge"><title>Node141&#45;&gt;Node142</title>
<path fill="none" stroke="midnightblue" d="M134.507,-75.556C142.864,-75.556 151.386,-75.556 159.732,-75.556"/>
<polygon fill="midnightblue" stroke="midnightblue" points="134.42,-72.0561 124.42,-75.556 134.42,-79.0561 134.42,-72.0561"/>
</g>
<!-- Node143 -->
<g id="node3" class="node"><title>Node143</title>
<g id="a_node3"><a xlink:href="class_json_1_1_our_reader.html#a856dea44d92578c276856d7a65a4ebdc" target="_top" xlink:title="Json::OurReader::skipComment\lTokens">
<polygon fill="none" stroke="black" points="339,-85.556 339,-115.556 497,-115.556 497,-85.556 339,-85.556"/>
<text text-anchor="start" x="347" y="-103.556" font-family="Helvetica,sans-Serif" font-size="10.00">Json::OurReader::skipComment</text>
<text text-anchor="middle" x="418" y="-92.556" font-family="Helvetica,sans-Serif" font-size="10.00">Tokens</text>
</a>
</g>
</g>
<!-- Node142&#45;&gt;Node143 -->
<g id="edge2" class="edge"><title>Node142&#45;&gt;Node143</title>
<path fill="none" stroke="midnightblue" d="M312.847,-86.4432C321.497,-87.6152 330.288,-88.8064 338.91,-89.9747"/>
<polygon fill="midnightblue" stroke="midnightblue" points="313.157,-82.9532 302.778,-85.0787 312.217,-89.8899 313.157,-82.9532"/>
</g>
<!-- Node147 -->
<g id="node7" class="node"><title>Node147</title>
<g id="a_node7"><a xlink:href="class_json_1_1_our_reader.html#aea198f8101dba55099f4d8121a993530" target="_top" xlink:title="Json::OurReader::readObject">
<polygon fill="none" stroke="black" points="709,-86.056 709,-105.056 853,-105.056 853,-86.056 709,-86.056"/>
<text text-anchor="middle" x="781" y="-93.056" font-family="Helvetica,sans-Serif" font-size="10.00">Json::OurReader::readObject</text>
</a>
</g>
</g>
<!-- Node142&#45;&gt;Node147 -->
<g id="edge11" class="edge"><title>Node142&#45;&gt;Node147</title>
<path fill="none" stroke="midnightblue" d="M257.284,-90.1663C278.272,-101.739 309.56,-117.149 339,-124.556 483.05,-160.801 526.939,-163.582 673,-136.556 705.276,-130.584 740.396,-115.278 761.286,-105.151"/>
<polygon fill="midnightblue" stroke="midnightblue" points="258.839,-87.0249 248.409,-85.1617 255.401,-93.1223 258.839,-87.0249"/>
</g>
<!-- Node148 -->
<g id="node8" class="node"><title>Node148</title>
<g id="a_node8"><a xlink:href="class_json_1_1_our_reader.html#a0b9f58faf4212c6ecb5d8e2a1ac10257" target="_top" xlink:title="Json::OurReader::readArray">
<polygon fill="none" stroke="black" points="711.5,-42.056 711.5,-61.056 850.5,-61.056 850.5,-42.056 711.5,-42.056"/>
<text text-anchor="middle" x="781" y="-49.056" font-family="Helvetica,sans-Serif" font-size="10.00">Json::OurReader::readArray</text>
</a>
</g>
</g>
<!-- Node142&#45;&gt;Node148 -->
<g id="edge12" class="edge"><title>Node142&#45;&gt;Node148</title>
<path fill="none" stroke="midnightblue" d="M257.255,-60.827C278.226,-49.1836 309.504,-33.7362 339,-26.556 483.285,8.56752 526.255,5.19804 673,-17.556 702.855,-22.1853 735.783,-33.6729 757.118,-42.0168"/>
<polygon fill="midnightblue" stroke="midnightblue" points="255.353,-57.8819 248.388,-65.8656 258.812,-63.9678 255.353,-57.8819"/>
</g>
<!-- Node149 -->
<g id="node9" class="node"><title>Node149</title>
<g id="a_node9"><a xlink:href="class_json_1_1_our_reader.html#a035651f0700a76a815e5f904c63ebb1c" target="_top" xlink:title="Json::OurReader::recover\lFromError">
<polygon fill="none" stroke="black" points="353.5,-36.556 353.5,-66.556 482.5,-66.556 482.5,-36.556 353.5,-36.556"/>
<text text-anchor="start" x="361.5" y="-54.556" font-family="Helvetica,sans-Serif" font-size="10.00">Json::OurReader::recover</text>
<text text-anchor="middle" x="418" y="-43.556" font-family="Helvetica,sans-Serif" font-size="10.00">FromError</text>
</a>
</g>
</g>
<!-- Node142&#45;&gt;Node149 -->
<g id="edge13" class="edge"><title>Node142&#45;&gt;Node149</title>
<path fill="none" stroke="midnightblue" d="M313.249,-65.052C326.708,-63.3013 340.498,-61.5074 353.451,-59.8226"/>
<polygon fill="midnightblue" stroke="midnightblue" points="312.506,-61.6191 303.041,-66.3799 313.409,-68.5606 312.506,-61.6191"/>
</g>
<!-- Node144 -->
<g id="node4" class="node"><title>Node144</title>
<g id="a_node4"><a xlink:href="class_json_1_1_our_reader.html#aba4f8749aab7f02ec17f107e392caf80" target="_top" xlink:title="Json::OurReader::parse">
<polygon fill="none" stroke="black" points="720.5,-143.056 720.5,-162.056 841.5,-162.056 841.5,-143.056 720.5,-143.056"/>
<text text-anchor="middle" x="781" y="-150.056" font-family="Helvetica,sans-Serif" font-size="10.00">Json::OurReader::parse</text>
</a>
</g>
</g>
<!-- Node143&#45;&gt;Node144 -->
<g id="edge3" class="edge"><title>Node143&#45;&gt;Node144</title>
<path fill="none" stroke="midnightblue" d="M467.963,-118.87C487.868,-125.561 511.261,-132.481 533,-136.556 596.249,-148.411 670.02,-151.871 720.36,-152.702"/>
<polygon fill="midnightblue" stroke="midnightblue" points="469.09,-115.557 458.495,-115.618 466.815,-122.177 469.09,-115.557"/>
</g>
<!-- Node146 -->
<g id="node6" class="node"><title>Node146</title>
<g id="a_node6"><a xlink:href="class_json_1_1_our_reader.html#a1765d9670d191c89a57a22ea5591d35f" target="_top" xlink:title="Json::OurReader::readValue">
<polygon fill="none" stroke="black" points="533,-86.056 533,-105.056 673,-105.056 673,-86.056 533,-86.056"/>
<text text-anchor="middle" x="603" y="-93.056" font-family="Helvetica,sans-Serif" font-size="10.00">Json::OurReader::readValue</text>
</a>
</g>
</g>
<!-- Node143&#45;&gt;Node146 -->
<g id="edge5" class="edge"><title>Node143&#45;&gt;Node146</title>
<path fill="none" stroke="midnightblue" d="M507.194,-98.1463C515.789,-97.9115 524.424,-97.6756 532.793,-97.4469"/>
<polygon fill="midnightblue" stroke="midnightblue" points="507.04,-94.6491 497.139,-98.421 507.231,-101.647 507.04,-94.6491"/>
</g>
<!-- Node145 -->
<g id="node5" class="node"><title>Node145</title>
<g id="a_node5"><a xlink:href="class_json_1_1_our_char_reader.html#a52a1fb5fee88d9b63dd462f63b1c9570" target="_top" xlink:title="Json::OurCharReader\l::parse">
<polygon fill="none" stroke="black" points="889,-137.556 889,-167.556 1001,-167.556 1001,-137.556 889,-137.556"/>
<text text-anchor="start" x="897" y="-155.556" font-family="Helvetica,sans-Serif" font-size="10.00">Json::OurCharReader</text>
<text text-anchor="middle" x="945" y="-144.556" font-family="Helvetica,sans-Serif" font-size="10.00">::parse</text>
</a>
</g>
</g>
<!-- Node144&#45;&gt;Node145 -->
<g id="edge4" class="edge"><title>Node144&#45;&gt;Node145</title>
<path fill="none" stroke="midnightblue" d="M852.109,-152.556C864.434,-152.556 877.101,-152.556 888.941,-152.556"/>
<polygon fill="midnightblue" stroke="midnightblue" points="851.863,-149.056 841.863,-152.556 851.863,-156.056 851.863,-149.056"/>
</g>
<!-- Node146&#45;&gt;Node144 -->
<g id="edge6" class="edge"><title>Node146&#45;&gt;Node144</title>
<path fill="none" stroke="midnightblue" d="M643.077,-108.212C675.521,-118.719 720.968,-133.438 750.445,-142.984"/>
<polygon fill="midnightblue" stroke="midnightblue" points="644.05,-104.848 633.458,-105.096 641.894,-111.507 644.05,-104.848"/>
</g>
<!-- Node146&#45;&gt;Node147 -->
<g id="edge7" class="edge"><title>Node146&#45;&gt;Node147</title>
<path fill="none" stroke="midnightblue" d="M683.06,-88.837C691.645,-88.7772 700.345,-88.8038 708.828,-88.9169"/>
<polygon fill="midnightblue" stroke="midnightblue" points="683.016,-85.3372 673.055,-88.947 683.093,-92.3368 683.016,-85.3372"/>
</g>
<!-- Node146&#45;&gt;Node148 -->
<g id="edge9" class="edge"><title>Node146&#45;&gt;Node148</title>
<path fill="none" stroke="midnightblue" d="M633.768,-82.9024C656.106,-75.9055 687.525,-67.6108 715.518,-61.1454"/>
<polygon fill="midnightblue" stroke="midnightblue" points="632.619,-79.5958 624.189,-86.0147 634.782,-86.2533 632.619,-79.5958"/>
</g>
<!-- Node147&#45;&gt;Node146 -->
<g id="edge8" class="edge"><title>Node147&#45;&gt;Node146</title>
<path fill="none" stroke="midnightblue" d="M698.79,-102.288C690.188,-102.334 681.499,-102.292 673.055,-102.165"/>
<polygon fill="midnightblue" stroke="midnightblue" points="698.861,-105.788 708.828,-102.195 698.796,-98.788 698.861,-105.788"/>
</g>
<!-- Node148&#45;&gt;Node146 -->
<g id="edge10" class="edge"><title>Node148&#45;&gt;Node146</title>
<path fill="none" stroke="midnightblue" d="M750.054,-64.2652C727.742,-71.2459 696.442,-79.5076 668.537,-85.9539"/>
<polygon fill="midnightblue" stroke="midnightblue" points="751.196,-67.5743 759.628,-61.1591 749.036,-60.9159 751.196,-67.5743"/>
</g>
<!-- Node149&#45;&gt;Node147 -->
<g id="edge14" class="edge"><title>Node149&#45;&gt;Node147</title>
<path fill="none" stroke="midnightblue" d="M488.838,-70.932C491.653,-72.3712 494.387,-73.9105 497,-75.556 516.962,-88.1249 511.391,-105.095 533,-114.556 608.053,-147.417 708.181,-120.85 754.505,-105.104"/>
<polygon fill="midnightblue" stroke="midnightblue" points="490.167,-67.6903 479.621,-66.6686 487.228,-74.0436 490.167,-67.6903"/>
</g>
<!-- Node149&#45;&gt;Node148 -->
<g id="edge15" class="edge"><title>Node149&#45;&gt;Node148</title>
<path fill="none" stroke="midnightblue" d="M485.943,-34.3552C501.3,-31.1142 517.632,-28.2213 533,-26.556 594.86,-19.8527 611.187,-19.4308 673,-26.556 698.395,-29.4832 726.521,-36.1957 747.561,-41.9287"/>
<polygon fill="midnightblue" stroke="midnightblue" points="485.033,-30.9712 476.011,-36.5258 486.528,-37.8097 485.033,-30.9712"/>
</g>
<!-- Node150 -->
<g id="node10" class="node"><title>Node150</title>
<g id="a_node10"><a xlink:href="class_json_1_1_our_reader.html#ae68a7047acd692be8077e259d524c6d9" target="_top" xlink:title="Json::OurReader::addError\lAndRecover">
<polygon fill="none" stroke="black" points="536,-36.556 536,-66.556 670,-66.556 670,-36.556 536,-36.556"/>
<text text-anchor="start" x="544" y="-54.556" font-family="Helvetica,sans-Serif" font-size="10.00">Json::OurReader::addError</text>
<text text-anchor="middle" x="603" y="-43.556" font-family="Helvetica,sans-Serif" font-size="10.00">AndRecover</text>
</a>
</g>
</g>
<!-- Node149&#45;&gt;Node150 -->
<g id="edge16" class="edge"><title>Node149&#45;&gt;Node150</title>
<path fill="none" stroke="midnightblue" d="M492.986,-51.556C507.219,-51.556 522.038,-51.556 535.997,-51.556"/>
<polygon fill="midnightblue" stroke="midnightblue" points="492.748,-48.0561 482.748,-51.556 492.748,-55.0561 492.748,-48.0561"/>
</g>
<!-- Node150&#45;&gt;Node147 -->
<g id="edge17" class="edge"><title>Node150&#45;&gt;Node147</title>
<path fill="none" stroke="midnightblue" d="M673.896,-69.03C697.105,-74.8323 722.07,-81.0736 741.95,-86.0436"/>
<polygon fill="midnightblue" stroke="midnightblue" points="674.627,-65.6052 664.077,-66.5752 672.929,-72.3962 674.627,-65.6052"/>
</g>
<!-- Node150&#45;&gt;Node148 -->
<g id="edge18" class="edge"><title>Node150&#45;&gt;Node148</title>
<path fill="none" stroke="midnightblue" d="M680.248,-51.556C690.554,-51.556 701.078,-51.556 711.243,-51.556"/>
<polygon fill="midnightblue" stroke="midnightblue" points="680.037,-48.0561 670.037,-51.556 680.037,-55.0561 680.037,-48.0561"/>
</g>
</g>
</svg>
        <g id="navigator" transform="translate(0 0)" fill="#404254">
                <rect fill="#f2f5e9" fill-opacity="0.5" stroke="#606060" stroke-width=".5" x="0" y="0" width="60" height="60"/>
                <use id="zoomplus" xlink:href="#zoomPlus" x="17" y="9" onmousedown="handleZoom(evt,'in')"/>
                <use id="zoomminus" xlink:href="#zoomMin" x="42" y="9" onmousedown="handleZoom(evt,'out')"/>
                <use id="reset" xlink:href="#resetDef" x="30" y="36" onmousedown="handleReset()"/>
                <g id="arrowUp" xlink:href="#dirArrow" transform="translate(30 24)" onmousedown="handlePan(0,-1)">
                  <use xlink:href="#rim" fill="#404040">
                        <set attributeName="fill" to="#808080" begin="arrowUp.mouseover" end="arrowUp.mouseout"/>
                  </use>
                  <path fill="none" stroke="white" stroke-width="1.5" d="M0,-3.0v7 M-2.5,-0.5L0,-3.0L2.5,-0.5"/>
                </g>
                <g id="arrowRight" xlink:href="#dirArrow" transform="rotate(90) translate(36 -43)" onmousedown="handlePan(1,0)">
                  <use xlink:href="#rim" fill="#404040">
                        <set attributeName="fill" to="#808080" begin="arrowRight.mouseover" end="arrowRight.mouseout"/>
                  </use>
                  <path fill="none" stroke="white" stroke-width="1.5" d="M0,-3.0v7 M-2.5,-0.5L0,-3.0L2.5,-0.5"/>
                </g>
                <g id="arrowDown" xlink:href="#dirArrow" transform="rotate(180) translate(-30 -48)" onmousedown="handlePan(0,1)">
                  <use xlink:href="#rim" fill="#404040">
                        <set attributeName="fill" to="#808080" begin="arrowDown.mouseover" end="arrowDown.mouseout"/>
                  </use>
                  <path fill="none" stroke="white" stroke-width="1.5" d="M0,-3.0v7 M-2.5,-0.5L0,-3.0L2.5,-0.5"/>
                </g>
                <g id="arrowLeft" xlink:href="#dirArrow" transform="rotate(270) translate(-36 17)" onmousedown="handlePan(-1,0)">
                  <use xlink:href="#rim" fill="#404040">
                        <set attributeName="fill" to="#808080" begin="arrowLeft.mouseover" end="arrowLeft.mouseout"/>
                  </use>
                  <path fill="none" stroke="white" stroke-width="1.5" d="M0,-3.0v7 M-2.5,-0.5L0,-3.0L2.5,-0.5"/>
                </g>
        </g>
        <svg viewBox="0 0 15 15" width="100%" height="30px" preserveAspectRatio="xMaxYMin meet">
         <g id="arrow_out" transform="scale(0.3 0.3)">
          <a xlink:href="class_json_1_1_our_reader_a4a03f1b266def9b47c4fef35386557fb_icgraph_org.svg" target="_base">
           <rect id="button" ry="5" rx="5" y="6" x="6" height="38" width="38"
                fill="#f2f5e9" fill-opacity="0.5" stroke="#606060" stroke-width="1.0"/>
           <path id="arrow"
             d="M 11.500037,31.436501 C 11.940474,20.09759 22.043105,11.32322 32.158766,21.979434 L 37.068811,17.246167 C 37.068811,17.246167 37.088388,32 37.088388,32 L 22.160133,31.978069 C 22.160133,31.978069 26.997745,27.140456 26.997745,27.140456 C 18.528582,18.264221 13.291696,25.230495 11.500037,31.436501 z"
             style="fill:#404040;"/>
          </a>
         </g>
        </svg>
</svg>
