<?xml version="1.0" encoding="UTF-8" standalone="no"?>
<!DOCTYPE svg PUBLIC "-//W3C//DTD SVG 1.1//EN"
 "http://www.w3.org/Graphics/SVG/1.1/DTD/svg11.dtd">
<!-- Generated by graphviz version 2.38.0 (20140413.2041)
 -->
<!-- Title: Json::OurReader::readArray Pages: 1 -->
<!--zoomable 72 -->
<svg id="main" version="1.1" xmlns="http://www.w3.org/2000/svg" xmlns:xlink="http://www.w3.org/1999/xlink" xml:space="preserve" onload="init(evt)">
<style type="text/css"><![CDATA[
.edge:hover path { stroke: red; }
.edge:hover polygon { stroke: red; fill: red; }
]]></style>
<script type="text/javascript"><![CDATA[
var edges = document.getElementsByTagName('g');
if (edges && edges.length) {
  for (var i=0;i<edges.length;i++) {
    if (edges[i].id.substr(0,4)=='edge') {
      edges[i].setAttribute('class','edge');
    }
  }
}
]]></script>
        <defs>
                <circle id="rim" cx="0" cy="0" r="7"/>
                <circle id="rim2" cx="0" cy="0" r="3.5"/>
                <g id="zoomPlus">
                        <use xlink:href="#rim" fill="#404040">
                                <set attributeName="fill" to="#808080" begin="zoomplus.mouseover" end="zoomplus.mouseout"/>
                        </use>
                        <path d="M-4,0h8M0,-4v8" fill="none" stroke="white" stroke-width="1.5" pointer-events="none"/>
                </g>
                <g id="zoomMin">
                        <use xlink:href="#rim" fill="#404040">
                                <set attributeName="fill" to="#808080" begin="zoomminus.mouseover" end="zoomminus.mouseout"/>
                        </use>
                        <path d="M-4,0h8" fill="none" stroke="white" stroke-width="1.5" pointer-events="none"/>
                </g>
                <g id="dirArrow">
                        <path fill="none" stroke="white" stroke-width="1.5" d="M0,-3.0v7 M-2.5,-0.5L0,-3.0L2.5,-0.5"/>
                </g>
               <g id="resetDef">
                       <use xlink:href="#rim2" fill="#404040">
                               <set attributeName="fill" to="#808080" begin="reset.mouseover" end="reset.mouseout"/>
                       </use>
               </g>
        </defs>

<script type="text/javascript">
var viewWidth = 651;
var viewHeight = 72;
var sectionId = 'dynsection-29';
</script>
<script xlink:href="svgpan.js"/>
<svg id="graph" class="graph">
<g id="viewport">
<title>Json::OurReader::readArray</title>
<!-- Node210 -->
<g id="node1" class="node"><title>Node210</title>
<polygon fill="#bfbfbf" stroke="black" points="0,-0.5 0,-19.5 139,-19.5 139,-0.5 0,-0.5"/>
<text text-anchor="middle" x="69.5" y="-7.5" font-family="Helvetica,sans-Serif" font-size="10.00">Json::OurReader::readArray</text>
</g>
<!-- Node211 -->
<g id="node2" class="node"><title>Node211</title>
<g id="a_node2"><a xlink:href="class_json_1_1_our_reader.html#a1765d9670d191c89a57a22ea5591d35f" target="_top" xlink:title="Json::OurReader::readValue">
<polygon fill="none" stroke="black" points="175,-0.5 175,-19.5 315,-19.5 315,-0.5 175,-0.5"/>
<text text-anchor="middle" x="245" y="-7.5" font-family="Helvetica,sans-Serif" font-size="10.00">Json::OurReader::readValue</text>
</a>
</g>
</g>
<!-- Node210&#45;&gt;Node211 -->
<g id="edge1" class="edge"><title>Node210&#45;&gt;Node211</title>
<path fill="none" stroke="midnightblue" d="M149.072,-3.27673C157.65,-3.2205 166.336,-3.25298 174.789,-3.37415"/>
<polygon fill="midnightblue" stroke="midnightblue" points="149.034,0.22316 139.072,-3.38348 149.109,-6.77644 149.034,0.22316"/>
</g>
<!-- Node211&#45;&gt;Node210 -->
<g id="edge6" class="edge"><title>Node211&#45;&gt;Node210</title>
<path fill="none" stroke="midnightblue" d="M164.779,-16.7274C156.196,-16.7791 147.514,-16.7422 139.072,-16.6165"/>
<polygon fill="midnightblue" stroke="midnightblue" points="164.825,-20.2272 174.789,-16.6258 164.754,-13.2275 164.825,-20.2272"/>
</g>
<!-- Node212 -->
<g id="node3" class="node"><title>Node212</title>
<g id="a_node3"><a xlink:href="class_json_1_1_our_reader.html#aba4f8749aab7f02ec17f107e392caf80" target="_top" xlink:title="Json::OurReader::parse">
<polygon fill="none" stroke="black" points="362.5,-38.5 362.5,-57.5 483.5,-57.5 483.5,-38.5 362.5,-38.5"/>
<text text-anchor="middle" x="423" y="-45.5" font-family="Helvetica,sans-Serif" font-size="10.00">Json::OurReader::parse</text>
</a>
</g>
</g>
<!-- Node211&#45;&gt;Node212 -->
<g id="edge2" class="edge"><title>Node211&#45;&gt;Node212</title>
<path fill="none" stroke="midnightblue" d="M300.433,-21.7526C325.319,-27.1258 354.419,-33.4086 377.907,-38.4799"/>
<polygon fill="midnightblue" stroke="midnightblue" points="300.926,-18.2784 290.412,-19.589 299.448,-25.1207 300.926,-18.2784"/>
</g>
<!-- Node214 -->
<g id="node5" class="node"><title>Node214</title>
<g id="a_node5"><a xlink:href="class_json_1_1_our_reader.html#aea198f8101dba55099f4d8121a993530" target="_top" xlink:title="Json::OurReader::readObject">
<polygon fill="none" stroke="black" points="351,-0.5 351,-19.5 495,-19.5 495,-0.5 351,-0.5"/>
<text text-anchor="middle" x="423" y="-7.5" font-family="Helvetica,sans-Serif" font-size="10.00">Json::OurReader::readObject</text>
</a>
</g>
</g>
<!-- Node211&#45;&gt;Node214 -->
<g id="edge4" class="edge"><title>Node211&#45;&gt;Node214</title>
<path fill="none" stroke="midnightblue" d="M325.06,-3.28105C333.645,-3.22122 342.345,-3.24785 350.828,-3.36092"/>
<polygon fill="midnightblue" stroke="midnightblue" points="325.016,0.218764 315.055,-3.391 325.093,-6.78081 325.016,0.218764"/>
</g>
<!-- Node213 -->
<g id="node4" class="node"><title>Node213</title>
<g id="a_node4"><a xlink:href="class_json_1_1_our_char_reader.html#a52a1fb5fee88d9b63dd462f63b1c9570" target="_top" xlink:title="Json::OurCharReader\l::parse">
<polygon fill="none" stroke="black" points="531,-33 531,-63 643,-63 643,-33 531,-33"/>
<text text-anchor="start" x="539" y="-51" font-family="Helvetica,sans-Serif" font-size="10.00">Json::OurCharReader</text>
<text text-anchor="middle" x="587" y="-40" font-family="Helvetica,sans-Serif" font-size="10.00">::parse</text>
</a>
</g>
</g>
<!-- Node212&#45;&gt;Node213 -->
<g id="edge3" class="edge"><title>Node212&#45;&gt;Node213</title>
<path fill="none" stroke="midnightblue" d="M494.109,-48C506.434,-48 519.101,-48 530.941,-48"/>
<polygon fill="midnightblue" stroke="midnightblue" points="493.863,-44.5001 483.863,-48 493.863,-51.5001 493.863,-44.5001"/>
</g>
<!-- Node214&#45;&gt;Node211 -->
<g id="edge5" class="edge"><title>Node214&#45;&gt;Node211</title>
<path fill="none" stroke="midnightblue" d="M340.79,-16.7321C332.188,-16.7775 323.499,-16.7365 315.055,-16.609"/>
<polygon fill="midnightblue" stroke="midnightblue" points="340.861,-20.2317 350.828,-16.6391 340.796,-13.232 340.861,-20.2317"/>
</g>
</g>
</svg>
        <g id="navigator" transform="translate(0 0)" fill="#404254">
                <rect fill="#f2f5e9" fill-opacity="0.5" stroke="#606060" stroke-width=".5" x="0" y="0" width="60" height="60"/>
                <use id="zoomplus" xlink:href="#zoomPlus" x="17" y="9" onmousedown="handleZoom(evt,'in')"/>
                <use id="zoomminus" xlink:href="#zoomMin" x="42" y="9" onmousedown="handleZoom(evt,'out')"/>
                <use id="reset" xlink:href="#resetDef" x="30" y="36" onmousedown="handleReset()"/>
                <g id="arrowUp" xlink:href="#dirArrow" transform="translate(30 24)" onmousedown="handlePan(0,-1)">
                  <use xlink:href="#rim" fill="#404040">
                        <set attributeName="fill" to="#808080" begin="arrowUp.mouseover" end="arrowUp.mouseout"/>
                  </use>
                  <path fill="none" stroke="white" stroke-width="1.5" d="M0,-3.0v7 M-2.5,-0.5L0,-3.0L2.5,-0.5"/>
                </g>
                <g id="arrowRight" xlink:href="#dirArrow" transform="rotate(90) translate(36 -43)" onmousedown="handlePan(1,0)">
                  <use xlink:href="#rim" fill="#404040">
                        <set attributeName="fill" to="#808080" begin="arrowRight.mouseover" end="arrowRight.mouseout"/>
                  </use>
                  <path fill="none" stroke="white" stroke-width="1.5" d="M0,-3.0v7 M-2.5,-0.5L0,-3.0L2.5,-0.5"/>
                </g>
                <g id="arrowDown" xlink:href="#dirArrow" transform="rotate(180) translate(-30 -48)" onmousedown="handlePan(0,1)">
                  <use xlink:href="#rim" fill="#404040">
                        <set attributeName="fill" to="#808080" begin="arrowDown.mouseover" end="arrowDown.mouseout"/>
                  </use>
                  <path fill="none" stroke="white" stroke-width="1.5" d="M0,-3.0v7 M-2.5,-0.5L0,-3.0L2.5,-0.5"/>
                </g>
                <g id="arrowLeft" xlink:href="#dirArrow" transform="rotate(270) translate(-36 17)" onmousedown="handlePan(-1,0)">
                  <use xlink:href="#rim" fill="#404040">
                        <set attributeName="fill" to="#808080" begin="arrowLeft.mouseover" end="arrowLeft.mouseout"/>
                  </use>
                  <path fill="none" stroke="white" stroke-width="1.5" d="M0,-3.0v7 M-2.5,-0.5L0,-3.0L2.5,-0.5"/>
                </g>
        </g>
        <svg viewBox="0 0 15 15" width="100%" height="30px" preserveAspectRatio="xMaxYMin meet">
         <g id="arrow_out" transform="scale(0.3 0.3)">
          <a xlink:href="class_json_1_1_our_reader_a0b9f58faf4212c6ecb5d8e2a1ac10257_icgraph_org.svg" target="_base">
           <rect id="button" ry="5" rx="5" y="6" x="6" height="38" width="38"
                fill="#f2f5e9" fill-opacity="0.5" stroke="#606060" stroke-width="1.0"/>
           <path id="arrow"
             d="M 11.500037,31.436501 C 11.940474,20.09759 22.043105,11.32322 32.158766,21.979434 L 37.068811,17.246167 C 37.068811,17.246167 37.088388,32 37.088388,32 L 22.160133,31.978069 C 22.160133,31.978069 26.997745,27.140456 26.997745,27.140456 C 18.528582,18.264221 13.291696,25.230495 11.500037,31.436501 z"
             style="fill:#404040;"/>
          </a>
         </g>
        </svg>
</svg>
