<?xml version="1.0" encoding="UTF-8" standalone="no"?>
<!DOCTYPE svg PUBLIC "-//W3C//DTD SVG 1.1//EN"
 "http://www.w3.org/Graphics/SVG/1.1/DTD/svg11.dtd">
<!-- Generated by graphviz version 2.38.0 (20140413.2041)
 -->
<!-- Title: main Pages: 1 -->
<svg width="171pt" height="104pt"
 viewBox="0.00 0.00 171.00 104.00" xmlns="http://www.w3.org/2000/svg" xmlns:xlink="http://www.w3.org/1999/xlink">
<g id="graph0" class="graph" transform="scale(1 1) rotate(0) translate(4 100)">
<title>main</title>
<!-- Node3 -->
<g id="node1" class="node"><title>Node3</title>
<polygon fill="#bfbfbf" stroke="black" points="0,-38.5 0,-57.5 38,-57.5 38,-38.5 0,-38.5"/>
<text text-anchor="middle" x="19" y="-45.5" font-family="Helvetica,sans-Serif" font-size="10.00">main</text>
</g>
<!-- Node4 -->
<g id="node2" class="node"><title>Node4</title>
<g id="a_node2"><a xlink:href="client_8cpp.html#a99fe47c77223a44c3130ccc3902cf4b2" target="_top" xlink:title="writeToSocket">
<polygon fill="none" stroke="black" points="78.5,-76.5 78.5,-95.5 158.5,-95.5 158.5,-76.5 78.5,-76.5"/>
<text text-anchor="middle" x="118.5" y="-83.5" font-family="Helvetica,sans-Serif" font-size="10.00">writeToSocket</text>
</a>
</g>
</g>
<!-- Node3&#45;&gt;Node4 -->
<g id="edge1" class="edge"><title>Node3&#45;&gt;Node4</title>
<path fill="none" stroke="midnightblue" d="M38.339,-55.1475C51.0092,-60.0856 68.2426,-66.8022 83.3952,-72.7079"/>
<polygon fill="midnightblue" stroke="midnightblue" points="82.3948,-76.0744 92.9832,-76.4447 84.9368,-69.5522 82.3948,-76.0744"/>
</g>
<!-- Node5 -->
<g id="node3" class="node"><title>Node5</title>
<g id="a_node3"><a xlink:href="client_8cpp.html#a2e94eed3236d1d0ec1676a465f0a0651" target="_top" xlink:title="readFromSocket">
<polygon fill="none" stroke="black" points="74,-38.5 74,-57.5 163,-57.5 163,-38.5 74,-38.5"/>
<text text-anchor="middle" x="118.5" y="-45.5" font-family="Helvetica,sans-Serif" font-size="10.00">readFromSocket</text>
</a>
</g>
</g>
<!-- Node3&#45;&gt;Node5 -->
<g id="edge2" class="edge"><title>Node3&#45;&gt;Node5</title>
<path fill="none" stroke="midnightblue" d="M38.339,-48C45.6334,-48 54.4403,-48 63.4918,-48"/>
<polygon fill="midnightblue" stroke="midnightblue" points="63.7477,-51.5001 73.7477,-48 63.7476,-44.5001 63.7477,-51.5001"/>
</g>
<!-- Node6 -->
<g id="node4" class="node"><title>Node6</title>
<g id="a_node4"><a xlink:href="client_8cpp.html#ac5b3462ec0c812741cb7010d27232d35" target="_top" xlink:title="help">
<polygon fill="none" stroke="black" points="101,-0.5 101,-19.5 136,-19.5 136,-0.5 101,-0.5"/>
<text text-anchor="middle" x="118.5" y="-7.5" font-family="Helvetica,sans-Serif" font-size="10.00">help</text>
</a>
</g>
</g>
<!-- Node3&#45;&gt;Node6 -->
<g id="edge3" class="edge"><title>Node3&#45;&gt;Node6</title>
<path fill="none" stroke="midnightblue" d="M38.339,-40.8525C53.2312,-35.0483 74.4275,-26.7872 91.1394,-20.2739"/>
<polygon fill="midnightblue" stroke="midnightblue" points="92.8226,-23.3744 100.869,-16.4818 90.2806,-16.8522 92.8226,-23.3744"/>
</g>
</g>
</svg>
