<?xml version="1.0" encoding="UTF-8" standalone="no"?>
<!DOCTYPE svg PUBLIC "-//W3C//DTD SVG 1.1//EN"
 "http://www.w3.org/Graphics/SVG/1.1/DTD/svg11.dtd">
<!-- Generated by graphviz version 2.38.0 (20140413.2041)
 -->
<!-- Title: /home/mel/projects/Misc/Minecraft Server Service/src/jsoncpp.cpp Pages: 1 -->
<!--zoomable 106 -->
<svg id="main" version="1.1" xmlns="http://www.w3.org/2000/svg" xmlns:xlink="http://www.w3.org/1999/xlink" xml:space="preserve" onload="init(evt)">
<style type="text/css"><![CDATA[
.edge:hover path { stroke: red; }
.edge:hover polygon { stroke: red; fill: red; }
]]></style>
<script type="text/javascript"><![CDATA[
var edges = document.getElementsByTagName('g');
if (edges && edges.length) {
  for (var i=0;i<edges.length;i++) {
    if (edges[i].id.substr(0,4)=='edge') {
      edges[i].setAttribute('class','edge');
    }
  }
}
]]></script>
        <defs>
                <circle id="rim" cx="0" cy="0" r="7"/>
                <circle id="rim2" cx="0" cy="0" r="3.5"/>
                <g id="zoomPlus">
                        <use xlink:href="#rim" fill="#404040">
                                <set attributeName="fill" to="#808080" begin="zoomplus.mouseover" end="zoomplus.mouseout"/>
                        </use>
                        <path d="M-4,0h8M0,-4v8" fill="none" stroke="white" stroke-width="1.5" pointer-events="none"/>
                </g>
                <g id="zoomMin">
                        <use xlink:href="#rim" fill="#404040">
                                <set attributeName="fill" to="#808080" begin="zoomminus.mouseover" end="zoomminus.mouseout"/>
                        </use>
                        <path d="M-4,0h8" fill="none" stroke="white" stroke-width="1.5" pointer-events="none"/>
                </g>
                <g id="dirArrow">
                        <path fill="none" stroke="white" stroke-width="1.5" d="M0,-3.0v7 M-2.5,-0.5L0,-3.0L2.5,-0.5"/>
                </g>
               <g id="resetDef">
                       <use xlink:href="#rim2" fill="#404040">
                               <set attributeName="fill" to="#808080" begin="reset.mouseover" end="reset.mouseout"/>
                       </use>
               </g>
        </defs>

<script type="text/javascript">
var viewWidth = 1615;
var viewHeight = 106;
var sectionId = 'dynsection-0';
</script>
<script xlink:href="svgpan.js"/>
<svg id="graph" class="graph">
<g id="viewport">
<title>/home/mel/projects/Misc/Minecraft Server Service/src/jsoncpp.cpp</title>
<!-- Node0 -->
<g id="node1" class="node"><title>Node0</title>
<polygon fill="#bfbfbf" stroke="black" points="754.5,-56.5 754.5,-97.5 879.5,-97.5 879.5,-56.5 754.5,-56.5"/>
<text text-anchor="start" x="762.5" y="-85.5" font-family="Helvetica,sans-Serif" font-size="10.00">/home/mel/projects</text>
<text text-anchor="start" x="762.5" y="-74.5" font-family="Helvetica,sans-Serif" font-size="10.00">/Misc/Minecraft Server</text>
<text text-anchor="middle" x="817" y="-63.5" font-family="Helvetica,sans-Serif" font-size="10.00"> Service/src/jsoncpp.cpp</text>
</g>
<!-- Node1 -->
<g id="node2" class="node"><title>Node1</title>
<polygon fill="none" stroke="#bfbfbf" points="0,-0.5 0,-19.5 64,-19.5 64,-0.5 0,-0.5"/>
<text text-anchor="middle" x="32" y="-7.5" font-family="Helvetica,sans-Serif" font-size="10.00">json/json.h</text>
</g>
<!-- Node0&#45;&gt;Node1 -->
<g id="edge1" class="edge"><title>Node0&#45;&gt;Node1</title>
<path fill="none" stroke="midnightblue" d="M754.455,-74.2678C627.725,-70.1128 331.521,-57.1249 74.062,-19.9522"/>
<polygon fill="midnightblue" stroke="midnightblue" points="74.5506,-16.4865 64.15,-18.5062 73.54,-23.4132 74.5506,-16.4865"/>
</g>
<!-- Node2 -->
<g id="node3" class="node"><title>Node2</title>
<polygon fill="none" stroke="#bfbfbf" points="82,-0.5 82,-19.5 134,-19.5 134,-0.5 82,-0.5"/>
<text text-anchor="middle" x="108" y="-7.5" font-family="Helvetica,sans-Serif" font-size="10.00">stddef.h</text>
</g>
<!-- Node0&#45;&gt;Node2 -->
<g id="edge2" class="edge"><title>Node0&#45;&gt;Node2</title>
<path fill="none" stroke="midnightblue" d="M754.303,-74.3198C636.42,-70.394 373.715,-58.0069 144.472,-19.9757"/>
<polygon fill="midnightblue" stroke="midnightblue" points="144.713,-16.4672 134.271,-18.2625 143.553,-23.3705 144.713,-16.4672"/>
</g>
<!-- Node3 -->
<g id="node4" class="node"><title>Node3</title>
<polygon fill="none" stroke="#bfbfbf" points="152.5,-0.5 152.5,-19.5 193.5,-19.5 193.5,-0.5 152.5,-0.5"/>
<text text-anchor="middle" x="173" y="-7.5" font-family="Helvetica,sans-Serif" font-size="10.00">string</text>
</g>
<!-- Node0&#45;&gt;Node3 -->
<g id="edge3" class="edge"><title>Node0&#45;&gt;Node3</title>
<path fill="none" stroke="midnightblue" d="M754.101,-74.4156C644.068,-70.7401 409.594,-58.8878 203.618,-19.6954"/>
<polygon fill="midnightblue" stroke="midnightblue" points="204.003,-16.2054 193.521,-17.7478 202.677,-23.0787 204.003,-16.2054"/>
</g>
<!-- Node4 -->
<g id="node5" class="node"><title>Node4</title>
<polygon fill="none" stroke="#bfbfbf" points="212,-0.5 212,-19.5 256,-19.5 256,-0.5 212,-0.5"/>
<text text-anchor="middle" x="234" y="-7.5" font-family="Helvetica,sans-Serif" font-size="10.00">vector</text>
</g>
<!-- Node0&#45;&gt;Node4 -->
<g id="edge4" class="edge"><title>Node0&#45;&gt;Node4</title>
<path fill="none" stroke="midnightblue" d="M754.375,-73.349C653.302,-68.2603 447.996,-54.5734 266.24,-19.9129"/>
<polygon fill="midnightblue" stroke="midnightblue" points="266.715,-16.44 256.233,-17.9784 265.387,-23.3128 266.715,-16.44"/>
</g>
<!-- Node5 -->
<g id="node6" class="node"><title>Node5</title>
<polygon fill="none" stroke="#bfbfbf" points="274.5,-0.5 274.5,-19.5 333.5,-19.5 333.5,-0.5 274.5,-0.5"/>
<text text-anchor="middle" x="304" y="-7.5" font-family="Helvetica,sans-Serif" font-size="10.00">exception</text>
</g>
<!-- Node0&#45;&gt;Node5 -->
<g id="edge5" class="edge"><title>Node0&#45;&gt;Node5</title>
<path fill="none" stroke="midnightblue" d="M754.421,-70.9369C665.21,-63.2074 496.234,-46.6745 343.818,-20.1621"/>
<polygon fill="midnightblue" stroke="midnightblue" points="344.258,-16.686 333.803,-18.4013 343.046,-23.5802 344.258,-16.686"/>
</g>
<!-- Node6 -->
<g id="node7" class="node"><title>Node6</title>
<polygon fill="none" stroke="#bfbfbf" points="351.5,-0.5 351.5,-19.5 386.5,-19.5 386.5,-0.5 351.5,-0.5"/>
<text text-anchor="middle" x="369" y="-7.5" font-family="Helvetica,sans-Serif" font-size="10.00">map</text>
</g>
<!-- Node0&#45;&gt;Node6 -->
<g id="edge6" class="edge"><title>Node0&#45;&gt;Node6</title>
<path fill="none" stroke="midnightblue" d="M754.435,-71.6537C673.438,-65.153 527.993,-50.5069 396.6,-19.9978"/>
<polygon fill="midnightblue" stroke="midnightblue" points="397.299,-16.5669 386.763,-17.6774 395.692,-23.3799 397.299,-16.5669"/>
</g>
<!-- Node7 -->
<g id="node8" class="node"><title>Node7</title>
<polygon fill="none" stroke="#bfbfbf" points="404.5,-0.5 404.5,-19.5 447.5,-19.5 447.5,-0.5 404.5,-0.5"/>
<text text-anchor="middle" x="426" y="-7.5" font-family="Helvetica,sans-Serif" font-size="10.00">deque</text>
</g>
<!-- Node0&#45;&gt;Node7 -->
<g id="edge7" class="edge"><title>Node0&#45;&gt;Node7</title>
<path fill="none" stroke="midnightblue" d="M754.223,-68.9217C683.938,-60.402 566.583,-44.3987 457.398,-20.0726"/>
<polygon fill="midnightblue" stroke="midnightblue" points="458.061,-16.6343 447.536,-17.8473 456.52,-23.4626 458.061,-16.6343"/>
</g>
<!-- Node8 -->
<g id="node9" class="node"><title>Node8</title>
<polygon fill="none" stroke="#bfbfbf" points="465.5,-0.5 465.5,-19.5 510.5,-19.5 510.5,-0.5 465.5,-0.5"/>
<text text-anchor="middle" x="488" y="-7.5" font-family="Helvetica,sans-Serif" font-size="10.00">iosfwd</text>
</g>
<!-- Node0&#45;&gt;Node8 -->
<g id="edge8" class="edge"><title>Node0&#45;&gt;Node8</title>
<path fill="none" stroke="midnightblue" d="M754.416,-66.0521C696.105,-56.3732 606.594,-40.4718 520.55,-20.2039"/>
<polygon fill="midnightblue" stroke="midnightblue" points="521.158,-16.7509 510.62,-17.8412 519.538,-23.5608 521.158,-16.7509"/>
</g>
<!-- Node9 -->
<g id="node10" class="node"><title>Node9</title>
<polygon fill="none" stroke="#bfbfbf" points="528.5,-0.5 528.5,-19.5 569.5,-19.5 569.5,-0.5 528.5,-0.5"/>
<text text-anchor="middle" x="549" y="-7.5" font-family="Helvetica,sans-Serif" font-size="10.00">stack</text>
</g>
<!-- Node0&#45;&gt;Node9 -->
<g id="edge9" class="edge"><title>Node0&#45;&gt;Node9</title>
<path fill="none" stroke="midnightblue" d="M754.296,-62.5812C708.273,-52.4401 644.063,-37.6875 579.488,-20.2746"/>
<polygon fill="midnightblue" stroke="midnightblue" points="580.11,-16.8169 569.543,-17.5722 578.275,-23.572 580.11,-16.8169"/>
</g>
<!-- Node10 -->
<g id="node11" class="node"><title>Node10</title>
<polygon fill="none" stroke="#bfbfbf" points="587.5,-0.5 587.5,-19.5 636.5,-19.5 636.5,-0.5 587.5,-0.5"/>
<text text-anchor="middle" x="612" y="-7.5" font-family="Helvetica,sans-Serif" font-size="10.00">istream</text>
</g>
<!-- Node0&#45;&gt;Node10 -->
<g id="edge10" class="edge"><title>Node0&#45;&gt;Node10</title>
<path fill="none" stroke="midnightblue" d="M755.493,-56.4979C719.835,-45.1915 676.251,-31.3723 646.538,-21.951"/>
<polygon fill="midnightblue" stroke="midnightblue" points="647.232,-18.4995 636.642,-18.8133 645.116,-25.1721 647.232,-18.4995"/>
</g>
<!-- Node11 -->
<g id="node12" class="node"><title>Node11</title>
<polygon fill="none" stroke="#bfbfbf" points="655,-0.5 655,-19.5 707,-19.5 707,-0.5 655,-0.5"/>
<text text-anchor="middle" x="681" y="-7.5" font-family="Helvetica,sans-Serif" font-size="10.00">ostream</text>
</g>
<!-- Node0&#45;&gt;Node11 -->
<g id="edge11" class="edge"><title>Node0&#45;&gt;Node11</title>
<path fill="none" stroke="midnightblue" d="M776.196,-56.4979C754.241,-46.0051 727.759,-33.3482 708.306,-24.0507"/>
<polygon fill="midnightblue" stroke="midnightblue" points="709.635,-20.8069 699.104,-19.6525 706.617,-27.1226 709.635,-20.8069"/>
</g>
<!-- Node12 -->
<g id="node13" class="node"><title>Node12</title>
<polygon fill="none" stroke="#bfbfbf" points="725,-0.5 725,-19.5 773,-19.5 773,-0.5 725,-0.5"/>
<text text-anchor="middle" x="749" y="-7.5" font-family="Helvetica,sans-Serif" font-size="10.00">stdlib.h</text>
</g>
<!-- Node0&#45;&gt;Node12 -->
<g id="edge12" class="edge"><title>Node0&#45;&gt;Node12</title>
<path fill="none" stroke="midnightblue" d="M796.598,-56.4979C786.673,-47.0113 774.898,-35.7557 765.543,-26.8131"/>
<polygon fill="midnightblue" stroke="midnightblue" points="767.699,-24.0323 758.052,-19.6525 762.862,-29.0924 767.699,-24.0323"/>
</g>
<!-- Node13 -->
<g id="node14" class="node"><title>Node13</title>
<polygon fill="none" stroke="#bfbfbf" points="791,-0.5 791,-19.5 843,-19.5 843,-0.5 791,-0.5"/>
<text text-anchor="middle" x="817" y="-7.5" font-family="Helvetica,sans-Serif" font-size="10.00">sstream</text>
</g>
<!-- Node0&#45;&gt;Node13 -->
<g id="edge13" class="edge"><title>Node0&#45;&gt;Node13</title>
<path fill="none" stroke="midnightblue" d="M817,-56.4979C817,-48.0653 817,-38.2351 817,-29.874"/>
<polygon fill="midnightblue" stroke="midnightblue" points="820.5,-29.6525 817,-19.6525 813.5,-29.6525 820.5,-29.6525"/>
</g>
<!-- Node14 -->
<g id="node15" class="node"><title>Node14</title>
<polygon fill="none" stroke="#bfbfbf" points="861,-0.5 861,-19.5 901,-19.5 901,-0.5 861,-0.5"/>
<text text-anchor="middle" x="881" y="-7.5" font-family="Helvetica,sans-Serif" font-size="10.00">utility</text>
</g>
<!-- Node0&#45;&gt;Node14 -->
<g id="edge14" class="edge"><title>Node0&#45;&gt;Node14</title>
<path fill="none" stroke="midnightblue" d="M836.202,-56.4979C845.543,-47.0113 856.625,-35.7557 865.43,-26.8131"/>
<polygon fill="midnightblue" stroke="midnightblue" points="867.959,-29.2338 872.481,-19.6525 862.971,-24.3226 867.959,-29.2338"/>
</g>
<!-- Node15 -->
<g id="node16" class="node"><title>Node15</title>
<polygon fill="none" stroke="#bfbfbf" points="919.5,-0.5 919.5,-19.5 962.5,-19.5 962.5,-0.5 919.5,-0.5"/>
<text text-anchor="middle" x="941" y="-7.5" font-family="Helvetica,sans-Serif" font-size="10.00">cstdio</text>
</g>
<!-- Node0&#45;&gt;Node15 -->
<g id="edge15" class="edge"><title>Node0&#45;&gt;Node15</title>
<path fill="none" stroke="midnightblue" d="M854.204,-56.4979C873.947,-46.1488 897.706,-33.6946 915.371,-24.4346"/>
<polygon fill="midnightblue" stroke="midnightblue" points="917.262,-27.3952 924.494,-19.6525 914.012,-21.1954 917.262,-27.3952"/>
</g>
<!-- Node16 -->
<g id="node17" class="node"><title>Node16</title>
<polygon fill="none" stroke="#bfbfbf" points="980.5,-0.5 980.5,-19.5 1029.5,-19.5 1029.5,-0.5 980.5,-0.5"/>
<text text-anchor="middle" x="1005" y="-7.5" font-family="Helvetica,sans-Serif" font-size="10.00">cassert</text>
</g>
<!-- Node0&#45;&gt;Node16 -->
<g id="edge16" class="edge"><title>Node0&#45;&gt;Node16</title>
<path fill="none" stroke="midnightblue" d="M873.406,-56.4979C905.194,-45.5073 943.85,-32.1424 971.014,-22.7506"/>
<polygon fill="midnightblue" stroke="midnightblue" points="972.16,-26.0576 980.468,-19.482 969.873,-19.4418 972.16,-26.0576"/>
</g>
<!-- Node17 -->
<g id="node18" class="node"><title>Node17</title>
<polygon fill="none" stroke="#bfbfbf" points="1048,-0.5 1048,-19.5 1094,-19.5 1094,-0.5 1048,-0.5"/>
<text text-anchor="middle" x="1071" y="-7.5" font-family="Helvetica,sans-Serif" font-size="10.00">cstring</text>
</g>
<!-- Node0&#45;&gt;Node17 -->
<g id="edge17" class="edge"><title>Node0&#45;&gt;Node17</title>
<path fill="none" stroke="midnightblue" d="M879.794,-60.6408C921.968,-50.2143 979.024,-35.8953 1038.07,-20.1977"/>
<polygon fill="midnightblue" stroke="midnightblue" points="1039.19,-23.5222 1047.95,-17.5636 1037.38,-16.7585 1039.19,-23.5222"/>
</g>
<!-- Node18 -->
<g id="node19" class="node"><title>Node18</title>
<polygon fill="none" stroke="#bfbfbf" points="1112,-0.5 1112,-19.5 1164,-19.5 1164,-0.5 1112,-0.5"/>
<text text-anchor="middle" x="1138" y="-7.5" font-family="Helvetica,sans-Serif" font-size="10.00">memory</text>
</g>
<!-- Node0&#45;&gt;Node18 -->
<g id="edge18" class="edge"><title>Node0&#45;&gt;Node18</title>
<path fill="none" stroke="midnightblue" d="M879.707,-64.8099C935.53,-54.6008 1019.63,-38.6165 1101.67,-20.2041"/>
<polygon fill="midnightblue" stroke="midnightblue" points="1102.68,-23.5641 1111.67,-17.9469 1101.14,-16.7361 1102.68,-23.5641"/>
</g>
<!-- Node19 -->
<g id="node20" class="node"><title>Node19</title>
<polygon fill="none" stroke="#bfbfbf" points="1182,-0.5 1182,-19.5 1212,-19.5 1212,-0.5 1182,-0.5"/>
<text text-anchor="middle" x="1197" y="-7.5" font-family="Helvetica,sans-Serif" font-size="10.00">set</text>
</g>
<!-- Node0&#45;&gt;Node19 -->
<g id="edge19" class="edge"><title>Node0&#45;&gt;Node19</title>
<path fill="none" stroke="midnightblue" d="M879.528,-70.0452C949.146,-62.5511 1064.93,-47.5127 1172.22,-19.736"/>
<polygon fill="midnightblue" stroke="midnightblue" points="1173.13,-23.1157 1181.92,-17.186 1171.35,-16.3461 1173.13,-23.1157"/>
</g>
<!-- Node20 -->
<g id="node21" class="node"><title>Node20</title>
<polygon fill="none" stroke="#bfbfbf" points="1230,-0.5 1230,-19.5 1270,-19.5 1270,-0.5 1230,-0.5"/>
<text text-anchor="middle" x="1250" y="-7.5" font-family="Helvetica,sans-Serif" font-size="10.00">limits</text>
</g>
<!-- Node0&#45;&gt;Node20 -->
<g id="edge20" class="edge"><title>Node0&#45;&gt;Node20</title>
<path fill="none" stroke="midnightblue" d="M879.506,-70.5289C957.354,-63.006 1094.42,-47.4314 1220.04,-19.8968"/>
<polygon fill="midnightblue" stroke="midnightblue" points="1220.83,-23.3066 1229.83,-17.7203 1219.31,-16.4733 1220.83,-23.3066"/>
</g>
<!-- Node21 -->
<g id="node22" class="node"><title>Node21</title>
<polygon fill="none" stroke="#bfbfbf" points="1288.5,-0.5 1288.5,-19.5 1335.5,-19.5 1335.5,-0.5 1288.5,-0.5"/>
<text text-anchor="middle" x="1312" y="-7.5" font-family="Helvetica,sans-Serif" font-size="10.00">math.h</text>
</g>
<!-- Node0&#45;&gt;Node21 -->
<g id="edge21" class="edge"><title>Node0&#45;&gt;Node21</title>
<path fill="none" stroke="midnightblue" d="M879.85,-71.3023C967.16,-64.1311 1130.14,-48.412 1278.13,-19.8922"/>
<polygon fill="midnightblue" stroke="midnightblue" points="1279.16,-23.2569 1288.3,-17.906 1277.82,-16.3866 1279.16,-23.2569"/>
</g>
<!-- Node22 -->
<g id="node23" class="node"><title>Node22</title>
<polygon fill="none" stroke="#bfbfbf" points="1353.5,-0.5 1353.5,-19.5 1402.5,-19.5 1402.5,-0.5 1353.5,-0.5"/>
<text text-anchor="middle" x="1378" y="-7.5" font-family="Helvetica,sans-Serif" font-size="10.00">cstddef</text>
</g>
<!-- Node0&#45;&gt;Node22 -->
<g id="edge22" class="edge"><title>Node0&#45;&gt;Node22</title>
<path fill="none" stroke="midnightblue" d="M879.653,-72.6196C977.123,-66.644 1170.98,-51.8929 1343.23,-20.0849"/>
<polygon fill="midnightblue" stroke="midnightblue" points="1344.05,-23.4922 1353.23,-18.2131 1342.76,-16.6116 1344.05,-23.4922"/>
</g>
<!-- Node23 -->
<g id="node24" class="node"><title>Node23</title>
<polygon fill="none" stroke="#bfbfbf" points="1421,-0.5 1421,-19.5 1477,-19.5 1477,-0.5 1421,-0.5"/>
<text text-anchor="middle" x="1449" y="-7.5" font-family="Helvetica,sans-Serif" font-size="10.00">algorithm</text>
</g>
<!-- Node0&#45;&gt;Node23 -->
<g id="edge23" class="edge"><title>Node0&#45;&gt;Node23</title>
<path fill="none" stroke="midnightblue" d="M879.922,-73.0771C987.106,-67.4422 1212,-52.7726 1410.76,-19.9799"/>
<polygon fill="midnightblue" stroke="midnightblue" points="1411.52,-23.4023 1420.81,-18.3036 1410.37,-16.4978 1411.52,-23.4023"/>
</g>
<!-- Node24 -->
<g id="node25" class="node"><title>Node24</title>
<polygon fill="none" stroke="#bfbfbf" points="1495,-0.5 1495,-19.5 1545,-19.5 1545,-0.5 1495,-0.5"/>
<text text-anchor="middle" x="1520" y="-7.5" font-family="Helvetica,sans-Serif" font-size="10.00">iomanip</text>
</g>
<!-- Node0&#45;&gt;Node24 -->
<g id="edge24" class="edge"><title>Node0&#45;&gt;Node24</title>
<path fill="none" stroke="midnightblue" d="M879.72,-74.4108C996.996,-70.644 1257.43,-58.5232 1484.74,-19.9201"/>
<polygon fill="midnightblue" stroke="midnightblue" points="1485.6,-23.3249 1494.86,-18.1809 1484.41,-16.4261 1485.6,-23.3249"/>
</g>
<!-- Node25 -->
<g id="node26" class="node"><title>Node25</title>
<polygon fill="none" stroke="#bfbfbf" points="1563,-0.5 1563,-19.5 1607,-19.5 1607,-0.5 1563,-0.5"/>
<text text-anchor="middle" x="1585" y="-7.5" font-family="Helvetica,sans-Serif" font-size="10.00">cmath</text>
</g>
<!-- Node0&#45;&gt;Node25 -->
<g id="edge25" class="edge"><title>Node0&#45;&gt;Node25</title>
<path fill="none" stroke="midnightblue" d="M879.671,-75.5873C1005.83,-73.817 1299.28,-64.9522 1552.65,-19.8735"/>
<polygon fill="midnightblue" stroke="midnightblue" points="1553.56,-23.2656 1562.78,-18.0473 1552.32,-16.3766 1553.56,-23.2656"/>
</g>
</g>
</svg>
        <g id="navigator" transform="translate(0 0)" fill="#404254">
                <rect fill="#f2f5e9" fill-opacity="0.5" stroke="#606060" stroke-width=".5" x="0" y="0" width="60" height="60"/>
                <use id="zoomplus" xlink:href="#zoomPlus" x="17" y="9" onmousedown="handleZoom(evt,'in')"/>
                <use id="zoomminus" xlink:href="#zoomMin" x="42" y="9" onmousedown="handleZoom(evt,'out')"/>
                <use id="reset" xlink:href="#resetDef" x="30" y="36" onmousedown="handleReset()"/>
                <g id="arrowUp" xlink:href="#dirArrow" transform="translate(30 24)" onmousedown="handlePan(0,-1)">
                  <use xlink:href="#rim" fill="#404040">
                        <set attributeName="fill" to="#808080" begin="arrowUp.mouseover" end="arrowUp.mouseout"/>
                  </use>
                  <path fill="none" stroke="white" stroke-width="1.5" d="M0,-3.0v7 M-2.5,-0.5L0,-3.0L2.5,-0.5"/>
                </g>
                <g id="arrowRight" xlink:href="#dirArrow" transform="rotate(90) translate(36 -43)" onmousedown="handlePan(1,0)">
                  <use xlink:href="#rim" fill="#404040">
                        <set attributeName="fill" to="#808080" begin="arrowRight.mouseover" end="arrowRight.mouseout"/>
                  </use>
                  <path fill="none" stroke="white" stroke-width="1.5" d="M0,-3.0v7 M-2.5,-0.5L0,-3.0L2.5,-0.5"/>
                </g>
                <g id="arrowDown" xlink:href="#dirArrow" transform="rotate(180) translate(-30 -48)" onmousedown="handlePan(0,1)">
                  <use xlink:href="#rim" fill="#404040">
                        <set attributeName="fill" to="#808080" begin="arrowDown.mouseover" end="arrowDown.mouseout"/>
                  </use>
                  <path fill="none" stroke="white" stroke-width="1.5" d="M0,-3.0v7 M-2.5,-0.5L0,-3.0L2.5,-0.5"/>
                </g>
                <g id="arrowLeft" xlink:href="#dirArrow" transform="rotate(270) translate(-36 17)" onmousedown="handlePan(-1,0)">
                  <use xlink:href="#rim" fill="#404040">
                        <set attributeName="fill" to="#808080" begin="arrowLeft.mouseover" end="arrowLeft.mouseout"/>
                  </use>
                  <path fill="none" stroke="white" stroke-width="1.5" d="M0,-3.0v7 M-2.5,-0.5L0,-3.0L2.5,-0.5"/>
                </g>
        </g>
        <svg viewBox="0 0 15 15" width="100%" height="30px" preserveAspectRatio="xMaxYMin meet">
         <g id="arrow_out" transform="scale(0.3 0.3)">
          <a xlink:href="jsoncpp_8cpp__incl_org.svg" target="_base">
           <rect id="button" ry="5" rx="5" y="6" x="6" height="38" width="38"
                fill="#f2f5e9" fill-opacity="0.5" stroke="#606060" stroke-width="1.0"/>
           <path id="arrow"
             d="M 11.500037,31.436501 C 11.940474,20.09759 22.043105,11.32322 32.158766,21.979434 L 37.068811,17.246167 C 37.068811,17.246167 37.088388,32 37.088388,32 L 22.160133,31.978069 C 22.160133,31.978069 26.997745,27.140456 26.997745,27.140456 C 18.528582,18.264221 13.291696,25.230495 11.500037,31.436501 z"
             style="fill:#404040;"/>
          </a>
         </g>
        </svg>
</svg>
