<?xml version="1.0" encoding="UTF-8" standalone="no"?>
<!DOCTYPE svg PUBLIC "-//W3C//DTD SVG 1.1//EN"
 "http://www.w3.org/Graphics/SVG/1.1/DTD/svg11.dtd">
<!-- Generated by graphviz version 2.38.0 (20140413.2041)
 -->
<!-- Title: /home/mel/projects/Misc/Minecraft Server Service/src/main.cpp Pages: 1 -->
<svg width="2102pt" height="218pt"
 viewBox="0.00 0.00 2102.00 218.00" xmlns="http://www.w3.org/2000/svg" xmlns:xlink="http://www.w3.org/1999/xlink">
<g id="graph0" class="graph" transform="scale(1 1) rotate(0) translate(4 214)">
<title>/home/mel/projects/Misc/Minecraft Server Service/src/main.cpp</title>
<!-- Node0 -->
<g id="node1" class="node"><title>Node0</title>
<polygon fill="#bfbfbf" stroke="black" points="1557.5,-168.5 1557.5,-209.5 1673.5,-209.5 1673.5,-168.5 1557.5,-168.5"/>
<text text-anchor="start" x="1565.5" y="-197.5" font-family="Helvetica,sans-Serif" font-size="10.00">/home/mel/projects</text>
<text text-anchor="start" x="1565.5" y="-186.5" font-family="Helvetica,sans-Serif" font-size="10.00">/Misc/Minecraft Server</text>
<text text-anchor="middle" x="1615.5" y="-175.5" font-family="Helvetica,sans-Serif" font-size="10.00"> Service/src/main.cpp</text>
</g>
<!-- Node1 -->
<g id="node2" class="node"><title>Node1</title>
<g id="a_node2"><a xlink:href="server_8h.html" target="_top" xlink:title="server.h">
<polygon fill="none" stroke="black" points="979.5,-56.5 979.5,-75.5 1031.5,-75.5 1031.5,-56.5 979.5,-56.5"/>
<text text-anchor="middle" x="1005.5" y="-63.5" font-family="Helvetica,sans-Serif" font-size="10.00">server.h</text>
</a>
</g>
</g>
<!-- Node0&#45;&gt;Node1 -->
<g id="edge1" class="edge"><title>Node0&#45;&gt;Node1</title>
<path fill="none" stroke="midnightblue" d="M1557.29,-176.453C1432.75,-151.749 1143.53,-94.379 1041.73,-74.1873"/>
<polygon fill="midnightblue" stroke="midnightblue" points="1042.14,-70.6991 1031.65,-72.1864 1040.77,-77.5653 1042.14,-70.6991"/>
</g>
<!-- Node3 -->
<g id="node4" class="node"><title>Node3</title>
<polygon fill="none" stroke="#bfbfbf" points="1725,-0.5 1725,-19.5 1832,-19.5 1832,-0.5 1725,-0.5"/>
<text text-anchor="middle" x="1778.5" y="-7.5" font-family="Helvetica,sans-Serif" font-size="10.00">log4cpp/Category.hh</text>
</g>
<!-- Node0&#45;&gt;Node3 -->
<g id="edge45" class="edge"><title>Node0&#45;&gt;Node3</title>
<path fill="none" stroke="midnightblue" d="M1612.57,-168.385C1609.5,-140.075 1608.36,-87.6898 1635.5,-56 1647.38,-42.1312 1689.19,-29.9472 1724.56,-21.7672"/>
<polygon fill="midnightblue" stroke="midnightblue" points="1725.34,-25.1779 1734.33,-19.5682 1723.81,-18.3486 1725.34,-25.1779"/>
</g>
<!-- Node5 -->
<g id="node6" class="node"><title>Node5</title>
<polygon fill="none" stroke="#bfbfbf" points="1850,-0.5 1850,-19.5 1931,-19.5 1931,-0.5 1850,-0.5"/>
<text text-anchor="middle" x="1890.5" y="-7.5" font-family="Helvetica,sans-Serif" font-size="10.00">event2/event.h</text>
</g>
<!-- Node0&#45;&gt;Node5 -->
<g id="edge47" class="edge"><title>Node0&#45;&gt;Node5</title>
<path fill="none" stroke="midnightblue" d="M1658.83,-168.489C1701.89,-148.188 1768.91,-114.083 1821.5,-76 1841.78,-61.3142 1862.32,-41.1265 1875.66,-27.1633"/>
<polygon fill="midnightblue" stroke="midnightblue" points="1878.32,-29.436 1882.62,-19.7499 1873.22,-24.6446 1878.32,-29.436"/>
</g>
<!-- Node8 -->
<g id="node9" class="node"><title>Node8</title>
<polygon fill="none" stroke="#bfbfbf" points="0,-0.5 0,-19.5 51,-19.5 51,-0.5 0,-0.5"/>
<text text-anchor="middle" x="25.5" y="-7.5" font-family="Helvetica,sans-Serif" font-size="10.00">unistd.h</text>
</g>
<!-- Node0&#45;&gt;Node8 -->
<g id="edge42" class="edge"><title>Node0&#45;&gt;Node8</title>
<path fill="none" stroke="midnightblue" d="M1557.44,-186.369C1374.69,-180.51 795.417,-156.409 323.5,-76 208.795,-56.4556 178.425,-47.793 60.8327,-20.0103"/>
<polygon fill="midnightblue" stroke="midnightblue" points="61.6202,-16.6001 51.0837,-17.7105 60.0129,-23.4131 61.6202,-16.6001"/>
</g>
<!-- Node28 -->
<g id="node29" class="node"><title>Node28</title>
<g id="a_node29"><a xlink:href="parser_8h.html" target="_top" xlink:title="parser.h">
<polygon fill="none" stroke="black" points="768.5,-112.5 768.5,-131.5 820.5,-131.5 820.5,-112.5 768.5,-112.5"/>
<text text-anchor="middle" x="794.5" y="-119.5" font-family="Helvetica,sans-Serif" font-size="10.00">parser.h</text>
</a>
</g>
</g>
<!-- Node0&#45;&gt;Node28 -->
<g id="edge28" class="edge"><title>Node0&#45;&gt;Node28</title>
<path fill="none" stroke="midnightblue" d="M1557.04,-183.867C1433.54,-175.054 1136.96,-153.461 888.5,-132 869.564,-130.364 848.5,-128.364 831.119,-126.665"/>
<polygon fill="midnightblue" stroke="midnightblue" points="831.12,-123.149 820.825,-125.652 830.434,-130.115 831.12,-123.149"/>
</g>
<!-- Node29 -->
<g id="node30" class="node"><title>Node29</title>
<polygon fill="none" stroke="#bfbfbf" points="859.5,-56.5 859.5,-75.5 923.5,-75.5 923.5,-56.5 859.5,-56.5"/>
<text text-anchor="middle" x="891.5" y="-63.5" font-family="Helvetica,sans-Serif" font-size="10.00">json/json.h</text>
</g>
<!-- Node0&#45;&gt;Node29 -->
<g id="edge44" class="edge"><title>Node0&#45;&gt;Node29</title>
<path fill="none" stroke="midnightblue" d="M1557.31,-186.15C1402.1,-180.808 986.406,-163.679 933.5,-132 915.892,-121.457 904.344,-100.354 897.893,-85.0461"/>
<polygon fill="midnightblue" stroke="midnightblue" points="901.101,-83.6391 894.229,-75.5755 894.573,-86.1647 901.101,-83.6391"/>
</g>
<!-- Node30 -->
<g id="node31" class="node"><title>Node30</title>
<g id="a_node31"><a xlink:href="main_loop_8h.html" target="_top" xlink:title="mainLoop.h">
<polygon fill="none" stroke="black" points="1745,-56.5 1745,-75.5 1812,-75.5 1812,-56.5 1745,-56.5"/>
<text text-anchor="middle" x="1778.5" y="-63.5" font-family="Helvetica,sans-Serif" font-size="10.00">mainLoop.h</text>
</a>
</g>
</g>
<!-- Node0&#45;&gt;Node30 -->
<g id="edge32" class="edge"><title>Node0&#45;&gt;Node30</title>
<path fill="none" stroke="midnightblue" d="M1642.05,-168.29C1674.75,-144.015 1729.55,-103.339 1758.76,-81.6554"/>
<polygon fill="midnightblue" stroke="midnightblue" points="1761.01,-84.3457 1766.95,-75.5748 1756.83,-78.725 1761.01,-84.3457"/>
</g>
<!-- Node31 -->
<g id="node32" class="node"><title>Node31</title>
<g id="a_node32"><a xlink:href="create_socket_8h.html" target="_top" xlink:title="createSocket.h">
<polygon fill="none" stroke="black" points="1644,-56.5 1644,-75.5 1727,-75.5 1727,-56.5 1644,-56.5"/>
<text text-anchor="middle" x="1685.5" y="-63.5" font-family="Helvetica,sans-Serif" font-size="10.00">createSocket.h</text>
</a>
</g>
</g>
<!-- Node0&#45;&gt;Node31 -->
<g id="edge35" class="edge"><title>Node0&#45;&gt;Node31</title>
<path fill="none" stroke="midnightblue" d="M1626.9,-168.29C1640.4,-144.956 1662.67,-106.471 1675.51,-84.2627"/>
<polygon fill="midnightblue" stroke="midnightblue" points="1678.56,-85.9834 1680.54,-75.5748 1672.5,-82.4781 1678.56,-85.9834"/>
</g>
<!-- Node32 -->
<g id="node33" class="node"><title>Node32</title>
<g id="a_node33"><a xlink:href="setup_servers_8h.html" target="_top" xlink:title="setupServers.h">
<polygon fill="none" stroke="black" points="942,-112.5 942,-131.5 1025,-131.5 1025,-112.5 942,-112.5"/>
<text text-anchor="middle" x="983.5" y="-119.5" font-family="Helvetica,sans-Serif" font-size="10.00">setupServers.h</text>
</a>
</g>
</g>
<!-- Node0&#45;&gt;Node32 -->
<g id="edge38" class="edge"><title>Node0&#45;&gt;Node32</title>
<path fill="none" stroke="midnightblue" d="M1557.46,-182.03C1434.97,-169.433 1151.79,-140.308 1035.14,-128.311"/>
<polygon fill="midnightblue" stroke="midnightblue" points="1035.35,-124.814 1025.04,-127.273 1034.63,-131.778 1035.35,-124.814"/>
</g>
<!-- Node33 -->
<g id="node34" class="node"><title>Node33</title>
<polygon fill="none" stroke="#bfbfbf" points="1868.5,-112.5 1868.5,-131.5 1918.5,-131.5 1918.5,-112.5 1868.5,-112.5"/>
<text text-anchor="middle" x="1893.5" y="-119.5" font-family="Helvetica,sans-Serif" font-size="10.00">signal.h</text>
</g>
<!-- Node0&#45;&gt;Node33 -->
<g id="edge43" class="edge"><title>Node0&#45;&gt;Node33</title>
<path fill="none" stroke="midnightblue" d="M1673.78,-174.374C1729.58,-161.326 1811.95,-142.068 1858.36,-131.216"/>
<polygon fill="midnightblue" stroke="midnightblue" points="1859.31,-134.589 1868.25,-128.904 1857.71,-127.773 1859.31,-134.589"/>
</g>
<!-- Node34 -->
<g id="node35" class="node"><title>Node34</title>
<polygon fill="none" stroke="#bfbfbf" points="1937,-112.5 1937,-131.5 2094,-131.5 2094,-112.5 1937,-112.5"/>
<text text-anchor="middle" x="2015.5" y="-119.5" font-family="Helvetica,sans-Serif" font-size="10.00">log4cpp/PropertyConfigurator.hh</text>
</g>
<!-- Node0&#45;&gt;Node34 -->
<g id="edge46" class="edge"><title>Node0&#45;&gt;Node34</title>
<path fill="none" stroke="midnightblue" d="M1673.66,-178.548C1748.11,-166.451 1876.57,-145.576 1953.03,-133.151"/>
<polygon fill="midnightblue" stroke="midnightblue" points="1953.7,-136.589 1963.01,-131.53 1952.57,-129.68 1953.7,-136.589"/>
</g>
<!-- Node2 -->
<g id="node3" class="node"><title>Node2</title>
<polygon fill="none" stroke="#bfbfbf" points="381.5,-0.5 381.5,-19.5 467.5,-19.5 467.5,-0.5 381.5,-0.5"/>
<text text-anchor="middle" x="424.5" y="-7.5" font-family="Helvetica,sans-Serif" font-size="10.00">outputListener.h</text>
</g>
<!-- Node1&#45;&gt;Node2 -->
<g id="edge2" class="edge"><title>Node1&#45;&gt;Node2</title>
<path fill="none" stroke="midnightblue" d="M979.354,-58.5353C974.759,-57.5661 970.006,-56.6691 965.5,-56 753.204,-24.4789 694.557,-45.9419 477.694,-20.02"/>
<polygon fill="midnightblue" stroke="midnightblue" points="477.931,-16.5231 467.582,-18.7909 477.087,-23.472 477.931,-16.5231"/>
</g>
<!-- Node1&#45;&gt;Node3 -->
<g id="edge3" class="edge"><title>Node1&#45;&gt;Node3</title>
<path fill="none" stroke="midnightblue" d="M1031.67,-64.0845C1123.73,-60.7082 1441.31,-47.7399 1714.8,-19.9825"/>
<polygon fill="midnightblue" stroke="midnightblue" points="1715.33,-23.4469 1724.92,-18.9466 1714.61,-16.4833 1715.33,-23.4469"/>
</g>
<!-- Node4 -->
<g id="node5" class="node"><title>Node4</title>
<polygon fill="none" stroke="#bfbfbf" points="485.5,-0.5 485.5,-19.5 595.5,-19.5 595.5,-0.5 485.5,-0.5"/>
<text text-anchor="middle" x="540.5" y="-7.5" font-family="Helvetica,sans-Serif" font-size="10.00">event2/event&#45;config.h</text>
</g>
<!-- Node1&#45;&gt;Node4 -->
<g id="edge4" class="edge"><title>Node1&#45;&gt;Node4</title>
<path fill="none" stroke="midnightblue" d="M979.339,-58.6337C974.746,-57.6536 969.997,-56.7274 965.5,-56 809.593,-30.7831 766.351,-38.8771 605.876,-20.1123"/>
<polygon fill="midnightblue" stroke="midnightblue" points="605.982,-16.6005 595.64,-18.8978 605.157,-23.5518 605.982,-16.6005"/>
</g>
<!-- Node1&#45;&gt;Node5 -->
<g id="edge5" class="edge"><title>Node1&#45;&gt;Node5</title>
<path fill="none" stroke="midnightblue" d="M1031.61,-64.8085C1133.72,-63.806 1515.99,-57.6812 1839.87,-20.0466"/>
<polygon fill="midnightblue" stroke="midnightblue" points="1840.4,-23.5092 1849.92,-18.8667 1839.58,-16.557 1840.4,-23.5092"/>
</g>
<!-- Node6 -->
<g id="node7" class="node"><title>Node6</title>
<polygon fill="none" stroke="#bfbfbf" points="613.5,-0.5 613.5,-19.5 683.5,-19.5 683.5,-0.5 613.5,-0.5"/>
<text text-anchor="middle" x="648.5" y="-7.5" font-family="Helvetica,sans-Serif" font-size="10.00">event2/util.h</text>
</g>
<!-- Node1&#45;&gt;Node6 -->
<g id="edge6" class="edge"><title>Node1&#45;&gt;Node6</title>
<path fill="none" stroke="midnightblue" d="M979.318,-58.7539C974.728,-57.7604 969.985,-56.7986 965.5,-56 848.188,-35.1115 814.932,-39.992 693.579,-20.0702"/>
<polygon fill="midnightblue" stroke="midnightblue" points="693.962,-16.5858 683.523,-18.3961 692.812,-23.4908 693.962,-16.5858"/>
</g>
<!-- Node7 -->
<g id="node8" class="node"><title>Node7</title>
<polygon fill="none" stroke="#bfbfbf" points="701.5,-0.5 701.5,-19.5 763.5,-19.5 763.5,-0.5 701.5,-0.5"/>
<text text-anchor="middle" x="732.5" y="-7.5" font-family="Helvetica,sans-Serif" font-size="10.00">sys/wait.h</text>
</g>
<!-- Node1&#45;&gt;Node7 -->
<g id="edge7" class="edge"><title>Node1&#45;&gt;Node7</title>
<path fill="none" stroke="midnightblue" d="M979.28,-58.9551C974.693,-57.9392 969.962,-56.9178 965.5,-56 883.12,-39.0552 859.645,-37.6626 773.838,-20.2158"/>
<polygon fill="midnightblue" stroke="midnightblue" points="774.418,-16.7619 763.919,-18.1843 773.014,-23.6196 774.418,-16.7619"/>
</g>
<!-- Node1&#45;&gt;Node8 -->
<g id="edge8" class="edge"><title>Node1&#45;&gt;Node8</title>
<path fill="none" stroke="midnightblue" d="M979.198,-61.2322C965.334,-59.3793 948.027,-57.2755 932.5,-56 549.22,-24.514 445.991,-75.7239 61.3771,-19.7697"/>
<polygon fill="midnightblue" stroke="midnightblue" points="61.7723,-16.2902 51.3696,-18.2989 60.7544,-23.2158 61.7723,-16.2902"/>
</g>
<!-- Node9 -->
<g id="node10" class="node"><title>Node9</title>
<polygon fill="none" stroke="#bfbfbf" points="136,-0.5 136,-19.5 177,-19.5 177,-0.5 136,-0.5"/>
<text text-anchor="middle" x="156.5" y="-7.5" font-family="Helvetica,sans-Serif" font-size="10.00">string</text>
</g>
<!-- Node1&#45;&gt;Node9 -->
<g id="edge9" class="edge"><title>Node1&#45;&gt;Node9</title>
<path fill="none" stroke="midnightblue" d="M979.194,-61.2766C965.329,-59.4358 948.022,-57.3295 932.5,-56 605.161,-27.9625 515.498,-75.1205 187.595,-19.7094"/>
<polygon fill="midnightblue" stroke="midnightblue" points="187.773,-16.1892 177.326,-17.954 186.593,-23.0891 187.773,-16.1892"/>
</g>
<!-- Node10 -->
<g id="node11" class="node"><title>Node10</title>
<polygon fill="none" stroke="#bfbfbf" points="781.5,-0.5 781.5,-19.5 833.5,-19.5 833.5,-0.5 781.5,-0.5"/>
<text text-anchor="middle" x="807.5" y="-7.5" font-family="Helvetica,sans-Serif" font-size="10.00">sstream</text>
</g>
<!-- Node1&#45;&gt;Node10 -->
<g id="edge10" class="edge"><title>Node1&#45;&gt;Node10</title>
<path fill="none" stroke="midnightblue" d="M979.207,-57.8292C944.273,-48.3016 882.419,-31.4323 843.263,-20.7535"/>
<polygon fill="midnightblue" stroke="midnightblue" points="844.155,-17.369 833.586,-18.1144 842.313,-24.1224 844.155,-17.369"/>
</g>
<!-- Node11 -->
<g id="node12" class="node"><title>Node11</title>
<polygon fill="none" stroke="#bfbfbf" points="195.5,-0.5 195.5,-19.5 239.5,-19.5 239.5,-0.5 195.5,-0.5"/>
<text text-anchor="middle" x="217.5" y="-7.5" font-family="Helvetica,sans-Serif" font-size="10.00">vector</text>
</g>
<!-- Node1&#45;&gt;Node11 -->
<g id="edge11" class="edge"><title>Node1&#45;&gt;Node11</title>
<path fill="none" stroke="midnightblue" d="M979.367,-58.4466C974.77,-57.4872 970.014,-56.6165 965.5,-56 652.609,-13.2651 564.955,-71.6161 249.583,-19.7648"/>
<polygon fill="midnightblue" stroke="midnightblue" points="250.147,-16.3106 239.708,-18.1175 248.995,-23.2152 250.147,-16.3106"/>
</g>
<!-- Node12 -->
<g id="node13" class="node"><title>Node12</title>
<polygon fill="none" stroke="#bfbfbf" points="851.5,-0.5 851.5,-19.5 895.5,-19.5 895.5,-0.5 851.5,-0.5"/>
<text text-anchor="middle" x="873.5" y="-7.5" font-family="Helvetica,sans-Serif" font-size="10.00">thread</text>
</g>
<!-- Node1&#45;&gt;Node12 -->
<g id="edge12" class="edge"><title>Node1&#45;&gt;Node12</title>
<path fill="none" stroke="midnightblue" d="M984.584,-56.4435C962.764,-47.5171 928.35,-33.4387 903.608,-23.3168"/>
<polygon fill="midnightblue" stroke="midnightblue" points="904.899,-20.0634 894.318,-19.5164 902.248,-26.5422 904.899,-20.0634"/>
</g>
<!-- Node13 -->
<g id="node14" class="node"><title>Node13</title>
<polygon fill="none" stroke="#bfbfbf" points="913.5,-0.5 913.5,-19.5 957.5,-19.5 957.5,-0.5 913.5,-0.5"/>
<text text-anchor="middle" x="935.5" y="-7.5" font-family="Helvetica,sans-Serif" font-size="10.00">mutex</text>
</g>
<!-- Node1&#45;&gt;Node13 -->
<g id="edge13" class="edge"><title>Node1&#45;&gt;Node13</title>
<path fill="none" stroke="midnightblue" d="M994.253,-56.324C983.703,-48.1849 967.699,-35.8395 955.058,-26.0874"/>
<polygon fill="midnightblue" stroke="midnightblue" points="957.007,-23.1707 946.951,-19.8339 952.731,-28.7132 957.007,-23.1707"/>
</g>
<!-- Node14 -->
<g id="node15" class="node"><title>Node14</title>
<polygon fill="none" stroke="#bfbfbf" points="976,-0.5 976,-19.5 1035,-19.5 1035,-0.5 976,-0.5"/>
<text text-anchor="middle" x="1005.5" y="-7.5" font-family="Helvetica,sans-Serif" font-size="10.00">functional</text>
</g>
<!-- Node1&#45;&gt;Node14 -->
<g id="edge14" class="edge"><title>Node1&#45;&gt;Node14</title>
<path fill="none" stroke="midnightblue" d="M1005.5,-56.083C1005.5,-49.0059 1005.5,-38.8611 1005.5,-29.9865"/>
<polygon fill="midnightblue" stroke="midnightblue" points="1009,-29.751 1005.5,-19.7511 1002,-29.7511 1009,-29.751"/>
</g>
<!-- Node15 -->
<g id="node16" class="node"><title>Node15</title>
<polygon fill="none" stroke="#bfbfbf" points="1053,-0.5 1053,-19.5 1098,-19.5 1098,-0.5 1053,-0.5"/>
<text text-anchor="middle" x="1075.5" y="-7.5" font-family="Helvetica,sans-Serif" font-size="10.00">cstdlib</text>
</g>
<!-- Node1&#45;&gt;Node15 -->
<g id="edge15" class="edge"><title>Node1&#45;&gt;Node15</title>
<path fill="none" stroke="midnightblue" d="M1016.75,-56.324C1027.3,-48.1849 1043.3,-35.8395 1055.94,-26.0874"/>
<polygon fill="midnightblue" stroke="midnightblue" points="1058.27,-28.7132 1064.05,-19.8339 1053.99,-23.1707 1058.27,-28.7132"/>
</g>
<!-- Node16 -->
<g id="node17" class="node"><title>Node16</title>
<polygon fill="none" stroke="#bfbfbf" points="1116,-0.5 1116,-19.5 1161,-19.5 1161,-0.5 1116,-0.5"/>
<text text-anchor="middle" x="1138.5" y="-7.5" font-family="Helvetica,sans-Serif" font-size="10.00">iosfwd</text>
</g>
<!-- Node1&#45;&gt;Node16 -->
<g id="edge16" class="edge"><title>Node1&#45;&gt;Node16</title>
<path fill="none" stroke="midnightblue" d="M1026.57,-56.4435C1048.56,-47.5171 1083.23,-33.4387 1108.16,-23.3168"/>
<polygon fill="midnightblue" stroke="midnightblue" points="1109.58,-26.5213 1117.52,-19.5164 1106.94,-20.0355 1109.58,-26.5213"/>
</g>
<!-- Node17 -->
<g id="node18" class="node"><title>Node17</title>
<polygon fill="none" stroke="#bfbfbf" points="1179.5,-0.5 1179.5,-19.5 1225.5,-19.5 1225.5,-0.5 1179.5,-0.5"/>
<text text-anchor="middle" x="1202.5" y="-7.5" font-family="Helvetica,sans-Serif" font-size="10.00">cctype</text>
</g>
<!-- Node1&#45;&gt;Node17 -->
<g id="edge17" class="edge"><title>Node1&#45;&gt;Node17</title>
<path fill="none" stroke="midnightblue" d="M1031.52,-57.971C1062.21,-49.6677 1115.01,-35.3355 1169.59,-20.2375"/>
<polygon fill="midnightblue" stroke="midnightblue" points="1170.73,-23.5527 1179.43,-17.5108 1168.86,-16.8066 1170.73,-23.5527"/>
</g>
<!-- Node18 -->
<g id="node19" class="node"><title>Node18</title>
<polygon fill="none" stroke="#bfbfbf" points="1243.5,-0.5 1243.5,-19.5 1299.5,-19.5 1299.5,-0.5 1243.5,-0.5"/>
<text text-anchor="middle" x="1271.5" y="-7.5" font-family="Helvetica,sans-Serif" font-size="10.00">algorithm</text>
</g>
<!-- Node1&#45;&gt;Node18 -->
<g id="edge18" class="edge"><title>Node1&#45;&gt;Node18</title>
<path fill="none" stroke="midnightblue" d="M1031.68,-60.2484C1072.55,-52.7455 1154.23,-37.4144 1233.14,-20.2246"/>
<polygon fill="midnightblue" stroke="midnightblue" points="1234.23,-23.5693 1243.25,-18.0093 1232.73,-16.7316 1234.23,-23.5693"/>
</g>
<!-- Node19 -->
<g id="node20" class="node"><title>Node19</title>
<polygon fill="none" stroke="#bfbfbf" points="1318,-0.5 1318,-19.5 1365,-19.5 1365,-0.5 1318,-0.5"/>
<text text-anchor="middle" x="1341.5" y="-7.5" font-family="Helvetica,sans-Serif" font-size="10.00">iterator</text>
</g>
<!-- Node1&#45;&gt;Node19 -->
<g id="edge19" class="edge"><title>Node1&#45;&gt;Node19</title>
<path fill="none" stroke="midnightblue" d="M1031.62,-62.1803C1082.73,-56.4387 1199.64,-42.1954 1307.7,-19.9368"/>
<polygon fill="midnightblue" stroke="midnightblue" points="1308.72,-23.2996 1317.79,-17.8287 1307.28,-16.4475 1308.72,-23.2996"/>
</g>
<!-- Node20 -->
<g id="node21" class="node"><title>Node20</title>
<polygon fill="none" stroke="#bfbfbf" points="1383,-0.5 1383,-19.5 1432,-19.5 1432,-0.5 1383,-0.5"/>
<text text-anchor="middle" x="1407.5" y="-7.5" font-family="Helvetica,sans-Serif" font-size="10.00">cstddef</text>
</g>
<!-- Node1&#45;&gt;Node20 -->
<g id="edge20" class="edge"><title>Node1&#45;&gt;Node20</title>
<path fill="none" stroke="midnightblue" d="M1031.65,-63.1207C1090.85,-58.5894 1239.7,-45.6364 1372.77,-20.1107"/>
<polygon fill="midnightblue" stroke="midnightblue" points="1373.58,-23.5183 1382.72,-18.1706 1372.24,-16.6475 1373.58,-23.5183"/>
</g>
<!-- Node21 -->
<g id="node22" class="node"><title>Node21</title>
<polygon fill="none" stroke="#bfbfbf" points="1450.5,-0.5 1450.5,-19.5 1502.5,-19.5 1502.5,-0.5 1450.5,-0.5"/>
<text text-anchor="middle" x="1476.5" y="-7.5" font-family="Helvetica,sans-Serif" font-size="10.00">ostream</text>
</g>
<!-- Node1&#45;&gt;Node21 -->
<g id="edge21" class="edge"><title>Node1&#45;&gt;Node21</title>
<path fill="none" stroke="midnightblue" d="M1031.74,-63.6568C1098.42,-59.9543 1279.92,-48.0769 1440.18,-19.9908"/>
<polygon fill="midnightblue" stroke="midnightblue" points="1440.99,-23.4027 1450.22,-18.2053 1439.76,-16.5109 1440.99,-23.4027"/>
</g>
<!-- Node22 -->
<g id="node23" class="node"><title>Node22</title>
<polygon fill="none" stroke="#bfbfbf" points="1521,-0.5 1521,-19.5 1570,-19.5 1570,-0.5 1521,-0.5"/>
<text text-anchor="middle" x="1545.5" y="-7.5" font-family="Helvetica,sans-Serif" font-size="10.00">cassert</text>
</g>
<!-- Node1&#45;&gt;Node22 -->
<g id="edge22" class="edge"><title>Node1&#45;&gt;Node22</title>
<path fill="none" stroke="midnightblue" d="M1031.51,-64.2466C1105.2,-61.784 1321.72,-52.2815 1510.61,-19.8423"/>
<polygon fill="midnightblue" stroke="midnightblue" points="1511.48,-23.2449 1520.73,-18.0789 1510.27,-16.349 1511.48,-23.2449"/>
</g>
<!-- Node23 -->
<g id="node24" class="node"><title>Node23</title>
<polygon fill="none" stroke="#bfbfbf" points="1588.5,-0.5 1588.5,-19.5 1634.5,-19.5 1634.5,-0.5 1588.5,-0.5"/>
<text text-anchor="middle" x="1611.5" y="-7.5" font-family="Helvetica,sans-Serif" font-size="10.00">cstring</text>
</g>
<!-- Node1&#45;&gt;Node23 -->
<g id="edge23" class="edge"><title>Node1&#45;&gt;Node23</title>
<path fill="none" stroke="midnightblue" d="M1031.76,-64.7649C1112.3,-63.6619 1362.88,-57.3845 1578.3,-19.8734"/>
<polygon fill="midnightblue" stroke="midnightblue" points="1578.97,-23.3094 1588.2,-18.1216 1577.75,-16.4164 1578.97,-23.3094"/>
</g>
<!-- Node24 -->
<g id="node25" class="node"><title>Node24</title>
<polygon fill="none" stroke="#bfbfbf" points="1652.5,-0.5 1652.5,-19.5 1706.5,-19.5 1706.5,-0.5 1652.5,-0.5"/>
<text text-anchor="middle" x="1679.5" y="-7.5" font-family="Helvetica,sans-Serif" font-size="10.00">iostream</text>
</g>
<!-- Node1&#45;&gt;Node24 -->
<g id="edge24" class="edge"><title>Node1&#45;&gt;Node24</title>
<path fill="none" stroke="midnightblue" d="M1031.51,-64.7883C1117.46,-63.7491 1400.13,-57.6192 1642.43,-19.8808"/>
<polygon fill="midnightblue" stroke="midnightblue" points="1643.15,-23.3105 1652.48,-18.2931 1642.05,-16.3962 1643.15,-23.3105"/>
</g>
<!-- Node25 -->
<g id="node26" class="node"><title>Node25</title>
<polygon fill="none" stroke="#bfbfbf" points="69.5,-0.5 69.5,-19.5 117.5,-19.5 117.5,-0.5 69.5,-0.5"/>
<text text-anchor="middle" x="93.5" y="-7.5" font-family="Helvetica,sans-Serif" font-size="10.00">stdlib.h</text>
</g>
<!-- Node1&#45;&gt;Node25 -->
<g id="edge25" class="edge"><title>Node1&#45;&gt;Node25</title>
<path fill="none" stroke="midnightblue" d="M979.196,-61.2538C965.331,-59.4067 948.024,-57.3017 932.5,-56 578.49,-26.317 482.53,-74.6035 127.558,-19.7786"/>
<polygon fill="midnightblue" stroke="midnightblue" points="127.937,-16.2956 117.517,-18.2112 126.857,-23.2118 127.937,-16.2956"/>
</g>
<!-- Node26 -->
<g id="node27" class="node"><title>Node26</title>
<polygon fill="none" stroke="#bfbfbf" points="258,-0.5 258,-19.5 301,-19.5 301,-0.5 258,-0.5"/>
<text text-anchor="middle" x="279.5" y="-7.5" font-family="Helvetica,sans-Serif" font-size="10.00">pwd.h</text>
</g>
<!-- Node1&#45;&gt;Node26 -->
<g id="edge26" class="edge"><title>Node1&#45;&gt;Node26</title>
<path fill="none" stroke="midnightblue" d="M979.364,-58.4646C974.768,-57.5033 970.012,-56.6272 965.5,-56 679.969,-16.3125 599.707,-67.7796 310.954,-19.6115"/>
<polygon fill="midnightblue" stroke="midnightblue" points="311.478,-16.1505 301.034,-17.9314 310.309,-23.0522 311.478,-16.1505"/>
</g>
<!-- Node27 -->
<g id="node28" class="node"><title>Node27</title>
<polygon fill="none" stroke="#bfbfbf" points="319.5,-0.5 319.5,-19.5 363.5,-19.5 363.5,-0.5 319.5,-0.5"/>
<text text-anchor="middle" x="341.5" y="-7.5" font-family="Helvetica,sans-Serif" font-size="10.00">time.h</text>
</g>
<!-- Node1&#45;&gt;Node27 -->
<g id="edge27" class="edge"><title>Node1&#45;&gt;Node27</title>
<path fill="none" stroke="midnightblue" d="M979.361,-58.4864C974.766,-57.5226 970.01,-56.6401 965.5,-56 707.397,-19.3712 634.507,-63.9266 373.861,-19.8341"/>
<polygon fill="midnightblue" stroke="midnightblue" points="374.161,-16.3344 363.712,-18.0889 372.975,-23.2332 374.161,-16.3344"/>
</g>
<!-- Node28&#45;&gt;Node9 -->
<g id="edge30" class="edge"><title>Node28&#45;&gt;Node9</title>
<path fill="none" stroke="midnightblue" d="M768.192,-113.103C721.55,-99.3991 621.11,-71.2267 534.5,-56 384.497,-29.6282 340.761,-49.6179 186.843,-19.6622"/>
<polygon fill="midnightblue" stroke="midnightblue" points="187.518,-16.2281 177.028,-17.7141 186.155,-23.0941 187.518,-16.2281"/>
</g>
<!-- Node28&#45;&gt;Node25 -->
<g id="edge29" class="edge"><title>Node28&#45;&gt;Node25</title>
<path fill="none" stroke="midnightblue" d="M768.202,-118.138C679.296,-108.231 381.791,-73.1758 127.73,-20.051"/>
<polygon fill="midnightblue" stroke="midnightblue" points="128.078,-16.5476 117.572,-17.9122 126.636,-23.3974 128.078,-16.5476"/>
</g>
<!-- Node28&#45;&gt;Node29 -->
<g id="edge31" class="edge"><title>Node28&#45;&gt;Node29</title>
<path fill="none" stroke="midnightblue" d="M810.085,-112.324C825.499,-103.743 849.312,-90.486 867.21,-80.5224"/>
<polygon fill="midnightblue" stroke="midnightblue" points="868.919,-83.5767 875.954,-75.6545 865.514,-77.4606 868.919,-83.5767"/>
</g>
<!-- Node30&#45;&gt;Node3 -->
<g id="edge33" class="edge"><title>Node30&#45;&gt;Node3</title>
<path fill="none" stroke="midnightblue" d="M1778.5,-56.083C1778.5,-49.0059 1778.5,-38.8611 1778.5,-29.9865"/>
<polygon fill="midnightblue" stroke="midnightblue" points="1782,-29.751 1778.5,-19.7511 1775,-29.7511 1782,-29.751"/>
</g>
<!-- Node30&#45;&gt;Node5 -->
<g id="edge34" class="edge"><title>Node30&#45;&gt;Node5</title>
<path fill="none" stroke="midnightblue" d="M1796.49,-56.324C1814.54,-47.6247 1842.55,-34.1202 1863.3,-24.113"/>
<polygon fill="midnightblue" stroke="midnightblue" points="1865.06,-27.1502 1872.55,-19.6545 1862.02,-20.8449 1865.06,-27.1502"/>
</g>
<!-- Node31&#45;&gt;Node3 -->
<g id="edge36" class="edge"><title>Node31&#45;&gt;Node3</title>
<path fill="none" stroke="midnightblue" d="M1700.44,-56.324C1715.09,-47.8215 1737.63,-34.7288 1754.74,-24.7975"/>
<polygon fill="midnightblue" stroke="midnightblue" points="1756.7,-27.7027 1763.6,-19.6545 1753.19,-21.6491 1756.7,-27.7027"/>
</g>
<!-- Node31&#45;&gt;Node5 -->
<g id="edge37" class="edge"><title>Node31&#45;&gt;Node5</title>
<path fill="none" stroke="midnightblue" d="M1717.98,-56.4435C1753.22,-47.1616 1809.6,-32.3093 1848.26,-22.127"/>
<polygon fill="midnightblue" stroke="midnightblue" points="1849.39,-25.4483 1858.17,-19.5164 1847.61,-18.6792 1849.39,-25.4483"/>
</g>
<!-- Node32&#45;&gt;Node1 -->
<g id="edge39" class="edge"><title>Node32&#45;&gt;Node1</title>
<path fill="none" stroke="midnightblue" d="M987.133,-112.083C990.112,-104.77 994.426,-94.1814 998.125,-85.1034"/>
<polygon fill="midnightblue" stroke="midnightblue" points="1001.4,-86.3326 1001.93,-75.7511 994.92,-83.6914 1001.4,-86.3326"/>
</g>
<!-- Node32&#45;&gt;Node11 -->
<g id="edge40" class="edge"><title>Node32&#45;&gt;Node11</title>
<path fill="none" stroke="midnightblue" d="M979.682,-112.309C972.718,-97.6581 956.431,-68.4295 932.5,-56 800.193,12.7198 414.826,-42.9988 249.781,-19.6813"/>
<polygon fill="midnightblue" stroke="midnightblue" points="250.128,-16.1933 239.709,-18.1109 249.05,-23.1097 250.128,-16.1933"/>
</g>
<!-- Node32&#45;&gt;Node29 -->
<g id="edge41" class="edge"><title>Node32&#45;&gt;Node29</title>
<path fill="none" stroke="midnightblue" d="M968.719,-112.324C954.233,-103.822 931.927,-90.7288 915.007,-80.7975"/>
<polygon fill="midnightblue" stroke="midnightblue" points="916.641,-77.6981 906.245,-75.6545 913.097,-83.735 916.641,-77.6981"/>
</g>
</g>
</svg>
