<?xml version="1.0" encoding="UTF-8" standalone="no"?>
<!DOCTYPE svg PUBLIC "-//W3C//DTD SVG 1.1//EN"
 "http://www.w3.org/Graphics/SVG/1.1/DTD/svg11.dtd">
<!-- Generated by graphviz version 2.38.0 (20140413.2041)
 -->
<!-- Title: main Pages: 1 -->
<svg width="518pt" height="186pt"
 viewBox="0.00 0.00 518.00 186.00" xmlns="http://www.w3.org/2000/svg" xmlns:xlink="http://www.w3.org/1999/xlink">
<g id="graph0" class="graph" transform="scale(1 1) rotate(0) translate(4 182)">
<title>main</title>
<!-- Node0 -->
<g id="node1" class="node"><title>Node0</title>
<polygon fill="#bfbfbf" stroke="black" points="0,-79 0,-98 38,-98 38,-79 0,-79"/>
<text text-anchor="middle" x="19" y="-86" font-family="Helvetica,sans-Serif" font-size="10.00">main</text>
</g>
<!-- Node1 -->
<g id="node2" class="node"><title>Node1</title>
<g id="a_node2"><a xlink:href="class_minecraft_server_service_1_1_parser.html#ada78039cbd66d0fff11f0982c47ce6f3" target="_top" xlink:title="MinecraftServerService\l::Parser::parse">
<polygon fill="none" stroke="black" points="74,-147.5 74,-177.5 193,-177.5 193,-147.5 74,-147.5"/>
<text text-anchor="start" x="82" y="-165.5" font-family="Helvetica,sans-Serif" font-size="10.00">MinecraftServerService</text>
<text text-anchor="middle" x="133.5" y="-154.5" font-family="Helvetica,sans-Serif" font-size="10.00">::Parser::parse</text>
</a>
</g>
</g>
<!-- Node0&#45;&gt;Node1 -->
<g id="edge1" class="edge"><title>Node0&#45;&gt;Node1</title>
<path fill="none" stroke="midnightblue" d="M28.342,-98.0686C38.3054,-109.027 55.9072,-126.951 74,-138.5 76.429,-140.051 78.9749,-141.535 81.5882,-142.952"/>
<polygon fill="midnightblue" stroke="midnightblue" points="80.1532,-146.147 90.6614,-147.5 83.2899,-139.89 80.1532,-146.147"/>
</g>
<!-- Node3 -->
<g id="node4" class="node"><title>Node3</title>
<g id="a_node4"><a xlink:href="namespace_minecraft_server_service.html#ac571dfb6b3b68540e3b67f4a9205d6c7" target="_top" xlink:title="MinecraftServerService\l::createSocket">
<polygon fill="none" stroke="black" points="74,-98.5 74,-128.5 193,-128.5 193,-98.5 74,-98.5"/>
<text text-anchor="start" x="82" y="-116.5" font-family="Helvetica,sans-Serif" font-size="10.00">MinecraftServerService</text>
<text text-anchor="middle" x="133.5" y="-105.5" font-family="Helvetica,sans-Serif" font-size="10.00">::createSocket</text>
</a>
</g>
</g>
<!-- Node0&#45;&gt;Node3 -->
<g id="edge3" class="edge"><title>Node0&#45;&gt;Node3</title>
<path fill="none" stroke="midnightblue" d="M38.0751,-92.5167C45.3586,-94.1353 54.259,-96.1131 63.6536,-98.2008"/>
<polygon fill="midnightblue" stroke="midnightblue" points="63.0544,-101.653 73.5756,-100.406 64.573,-94.8196 63.0544,-101.653"/>
</g>
<!-- Node4 -->
<g id="node5" class="node"><title>Node4</title>
<g id="a_node5"><a xlink:href="namespace_minecraft_server_service.html#aedd7660501b96e4ad2b898c14034764c" target="_top" xlink:title="MinecraftServerService\l::setupServers">
<polygon fill="none" stroke="black" points="74,-49.5 74,-79.5 193,-79.5 193,-49.5 74,-49.5"/>
<text text-anchor="start" x="82" y="-67.5" font-family="Helvetica,sans-Serif" font-size="10.00">MinecraftServerService</text>
<text text-anchor="middle" x="133.5" y="-56.5" font-family="Helvetica,sans-Serif" font-size="10.00">::setupServers</text>
</a>
</g>
</g>
<!-- Node0&#45;&gt;Node4 -->
<g id="edge4" class="edge"><title>Node0&#45;&gt;Node4</title>
<path fill="none" stroke="midnightblue" d="M38.0751,-84.644C45.3586,-83.0902 54.259,-81.1914 63.6536,-79.1872"/>
<polygon fill="midnightblue" stroke="midnightblue" points="64.5259,-82.58 73.5756,-77.0705 63.0654,-75.734 64.5259,-82.58"/>
</g>
<!-- Node5 -->
<g id="node6" class="node"><title>Node5</title>
<g id="a_node6"><a xlink:href="namespace_minecraft_server_service.html#abb6ce84acaf8bf48db098c714eb54447" target="_top" xlink:title="MinecraftServerService\l::mainLoop">
<polygon fill="none" stroke="black" points="74,-0.5 74,-30.5 193,-30.5 193,-0.5 74,-0.5"/>
<text text-anchor="start" x="82" y="-18.5" font-family="Helvetica,sans-Serif" font-size="10.00">MinecraftServerService</text>
<text text-anchor="middle" x="133.5" y="-7.5" font-family="Helvetica,sans-Serif" font-size="10.00">::mainLoop</text>
</a>
</g>
</g>
<!-- Node0&#45;&gt;Node5 -->
<g id="edge5" class="edge"><title>Node0&#45;&gt;Node5</title>
<path fill="none" stroke="midnightblue" d="M29.1792,-78.6271C39.3527,-68.1187 56.6287,-51.5184 74,-40.5 76.9336,-38.6393 80.0294,-36.8584 83.2033,-35.1658"/>
<polygon fill="midnightblue" stroke="midnightblue" points="84.898,-38.2318 92.2848,-30.6366 81.7739,-31.9676 84.898,-38.2318"/>
</g>
<!-- Node2 -->
<g id="node3" class="node"><title>Node2</title>
<g id="a_node3"><a xlink:href="class_minecraft_server_service_1_1_parser.html#acbd833f446b47d2d67a029cde64946e4" target="_top" xlink:title="MinecraftServerService\l::Parser::getFileContents">
<polygon fill="none" stroke="black" points="229,-147.5 229,-177.5 355,-177.5 355,-147.5 229,-147.5"/>
<text text-anchor="start" x="237" y="-165.5" font-family="Helvetica,sans-Serif" font-size="10.00">MinecraftServerService</text>
<text text-anchor="middle" x="292" y="-154.5" font-family="Helvetica,sans-Serif" font-size="10.00">::Parser::getFileContents</text>
</a>
</g>
</g>
<!-- Node1&#45;&gt;Node2 -->
<g id="edge2" class="edge"><title>Node1&#45;&gt;Node2</title>
<path fill="none" stroke="midnightblue" d="M193.22,-162.5C201.483,-162.5 210.056,-162.5 218.538,-162.5"/>
<polygon fill="midnightblue" stroke="midnightblue" points="218.812,-166 228.812,-162.5 218.812,-159 218.812,-166"/>
</g>
<!-- Node6 -->
<g id="node7" class="node"><title>Node6</title>
<g id="a_node7"><a xlink:href="namespace_minecraft_server_service.html#a9e930ea5104432030a2a4af3f337ca2a" target="_top" xlink:title="MinecraftServerService\l::recieveCommand">
<polygon fill="none" stroke="black" points="232.5,-0.5 232.5,-30.5 351.5,-30.5 351.5,-0.5 232.5,-0.5"/>
<text text-anchor="start" x="240.5" y="-18.5" font-family="Helvetica,sans-Serif" font-size="10.00">MinecraftServerService</text>
<text text-anchor="middle" x="292" y="-7.5" font-family="Helvetica,sans-Serif" font-size="10.00">::recieveCommand</text>
</a>
</g>
</g>
<!-- Node5&#45;&gt;Node6 -->
<g id="edge6" class="edge"><title>Node5&#45;&gt;Node6</title>
<path fill="none" stroke="midnightblue" d="M193.22,-15.5C202.747,-15.5 212.687,-15.5 222.424,-15.5"/>
<polygon fill="midnightblue" stroke="midnightblue" points="222.471,-19.0001 232.471,-15.5 222.471,-12.0001 222.471,-19.0001"/>
</g>
<!-- Node7 -->
<g id="node8" class="node"><title>Node7</title>
<g id="a_node8"><a xlink:href="namespace_minecraft_server_service.html#ae8323881b42d77cf37de0c5eabbb56bc" target="_top" xlink:title="MinecraftServerService\l::writeToSocket">
<polygon fill="none" stroke="black" points="391,-0.5 391,-30.5 510,-30.5 510,-0.5 391,-0.5"/>
<text text-anchor="start" x="399" y="-18.5" font-family="Helvetica,sans-Serif" font-size="10.00">MinecraftServerService</text>
<text text-anchor="middle" x="450.5" y="-7.5" font-family="Helvetica,sans-Serif" font-size="10.00">::writeToSocket</text>
</a>
</g>
</g>
<!-- Node6&#45;&gt;Node7 -->
<g id="edge7" class="edge"><title>Node6&#45;&gt;Node7</title>
<path fill="none" stroke="midnightblue" d="M351.72,-15.5C361.247,-15.5 371.187,-15.5 380.924,-15.5"/>
<polygon fill="midnightblue" stroke="midnightblue" points="380.971,-19.0001 390.971,-15.5 380.971,-12.0001 380.971,-19.0001"/>
</g>
</g>
</svg>
