<?xml version="1.0" encoding="UTF-8" standalone="no"?>
<!DOCTYPE svg PUBLIC "-//W3C//DTD SVG 1.1//EN"
 "http://www.w3.org/Graphics/SVG/1.1/DTD/svg11.dtd">
<!-- Generated by graphviz version 2.38.0 (20140413.2041)
 -->
<!-- Title: /home/mel/projects/Misc/Minecraft Server Service/src/mainLoop.cpp Pages: 1 -->
<svg width="1938pt" height="218pt"
 viewBox="0.00 0.00 1937.50 218.00" xmlns="http://www.w3.org/2000/svg" xmlns:xlink="http://www.w3.org/1999/xlink">
<g id="graph0" class="graph" transform="scale(1 1) rotate(0) translate(4 214)">
<title>/home/mel/projects/Misc/Minecraft Server Service/src/mainLoop.cpp</title>
<!-- Node0 -->
<g id="node1" class="node"><title>Node0</title>
<polygon fill="#bfbfbf" stroke="black" points="901.5,-168.5 901.5,-209.5 1034.5,-209.5 1034.5,-168.5 901.5,-168.5"/>
<text text-anchor="start" x="909.5" y="-197.5" font-family="Helvetica,sans-Serif" font-size="10.00">/home/mel/projects</text>
<text text-anchor="start" x="909.5" y="-186.5" font-family="Helvetica,sans-Serif" font-size="10.00">/Misc/Minecraft Server</text>
<text text-anchor="middle" x="968" y="-175.5" font-family="Helvetica,sans-Serif" font-size="10.00"> Service/src/mainLoop.cpp</text>
</g>
<!-- Node1 -->
<g id="node2" class="node"><title>Node1</title>
<g id="a_node2"><a xlink:href="server_8h.html" target="_top" xlink:title="server.h">
<polygon fill="none" stroke="black" points="842,-56.5 842,-75.5 894,-75.5 894,-56.5 842,-56.5"/>
<text text-anchor="middle" x="868" y="-63.5" font-family="Helvetica,sans-Serif" font-size="10.00">server.h</text>
</a>
</g>
</g>
<!-- Node0&#45;&gt;Node1 -->
<g id="edge1" class="edge"><title>Node0&#45;&gt;Node1</title>
<path fill="none" stroke="midnightblue" d="M953.738,-168.217C942.303,-152.629 925.637,-130.512 910,-112 901.639,-102.101 891.776,-91.4845 883.71,-83.0504"/>
<polygon fill="midnightblue" stroke="midnightblue" points="886.1,-80.4871 876.634,-75.7276 881.066,-85.3511 886.1,-80.4871"/>
</g>
<!-- Node3 -->
<g id="node4" class="node"><title>Node3</title>
<polygon fill="none" stroke="#bfbfbf" points="1723.5,-0.5 1723.5,-19.5 1830.5,-19.5 1830.5,-0.5 1723.5,-0.5"/>
<text text-anchor="middle" x="1777" y="-7.5" font-family="Helvetica,sans-Serif" font-size="10.00">log4cpp/Category.hh</text>
</g>
<!-- Node0&#45;&gt;Node3 -->
<g id="edge40" class="edge"><title>Node0&#45;&gt;Node3</title>
<path fill="none" stroke="midnightblue" d="M964.035,-168.399C959.384,-139.119 955.843,-84.3704 987,-56 1044.95,-3.23047 1597.07,-26.2114 1713.16,-19.854"/>
<polygon fill="midnightblue" stroke="midnightblue" points="1713.55,-23.3348 1723.27,-19.1174 1713.04,-16.3533 1713.55,-23.3348"/>
</g>
<!-- Node5 -->
<g id="node6" class="node"><title>Node5</title>
<polygon fill="none" stroke="#bfbfbf" points="1848.5,-0.5 1848.5,-19.5 1929.5,-19.5 1929.5,-0.5 1848.5,-0.5"/>
<text text-anchor="middle" x="1889" y="-7.5" font-family="Helvetica,sans-Serif" font-size="10.00">event2/event.h</text>
</g>
<!-- Node0&#45;&gt;Node5 -->
<g id="edge49" class="edge"><title>Node0&#45;&gt;Node5</title>
<path fill="none" stroke="midnightblue" d="M985.909,-168.436C1003.61,-150.485 1032.41,-124.8 1063,-112 1380.74,20.9538 1493.99,-70.1097 1838.39,-20.1452"/>
<polygon fill="midnightblue" stroke="midnightblue" points="1839.01,-23.592 1848.39,-18.6648 1837.99,-16.6675 1839.01,-23.592"/>
</g>
<!-- Node7 -->
<g id="node8" class="node"><title>Node7</title>
<polygon fill="none" stroke="#bfbfbf" points="0,-0.5 0,-19.5 62,-19.5 62,-0.5 0,-0.5"/>
<text text-anchor="middle" x="31" y="-7.5" font-family="Helvetica,sans-Serif" font-size="10.00">sys/wait.h</text>
</g>
<!-- Node0&#45;&gt;Node7 -->
<g id="edge44" class="edge"><title>Node0&#45;&gt;Node7</title>
<path fill="none" stroke="midnightblue" d="M901.374,-185.228C797.328,-180.003 590.322,-165.993 418,-132 332.047,-115.045 312.628,-102.11 229,-76 171.655,-58.0959 105.4,-36.0718 65.9194,-22.8047"/>
<polygon fill="midnightblue" stroke="midnightblue" points="66.8353,-19.4201 56.2413,-19.5476 64.6025,-26.0545 66.8353,-19.4201"/>
</g>
<!-- Node8 -->
<g id="node9" class="node"><title>Node8</title>
<polygon fill="none" stroke="#bfbfbf" points="139.5,-0.5 139.5,-19.5 190.5,-19.5 190.5,-0.5 139.5,-0.5"/>
<text text-anchor="middle" x="165" y="-7.5" font-family="Helvetica,sans-Serif" font-size="10.00">unistd.h</text>
</g>
<!-- Node0&#45;&gt;Node8 -->
<g id="edge47" class="edge"><title>Node0&#45;&gt;Node8</title>
<path fill="none" stroke="midnightblue" d="M901.266,-181.006C824.287,-172.308 694.167,-155.661 584,-132 495.423,-112.976 475.045,-101.121 388,-76 321.681,-56.8607 244.354,-34.2568 200.387,-21.3775"/>
<polygon fill="midnightblue" stroke="midnightblue" points="201.321,-18.0043 190.741,-18.5511 199.353,-24.7219 201.321,-18.0043"/>
</g>
<!-- Node9 -->
<g id="node10" class="node"><title>Node9</title>
<polygon fill="none" stroke="#bfbfbf" points="80.5,-0.5 80.5,-19.5 121.5,-19.5 121.5,-0.5 80.5,-0.5"/>
<text text-anchor="middle" x="101" y="-7.5" font-family="Helvetica,sans-Serif" font-size="10.00">string</text>
</g>
<!-- Node0&#45;&gt;Node9 -->
<g id="edge41" class="edge"><title>Node0&#45;&gt;Node9</title>
<path fill="none" stroke="midnightblue" d="M901.287,-183.664C810.127,-176.909 641.87,-161.476 501,-132 360.165,-102.531 197.481,-46.104 131.32,-22.1722"/>
<polygon fill="midnightblue" stroke="midnightblue" points="132.504,-18.8786 121.91,-18.7515 130.113,-25.4574 132.504,-18.8786"/>
</g>
<!-- Node28 -->
<g id="node29" class="node"><title>Node28</title>
<g id="a_node29"><a xlink:href="parser_8h.html" target="_top" xlink:title="parser.h">
<polygon fill="none" stroke="black" points="593,-112.5 593,-131.5 645,-131.5 645,-112.5 593,-112.5"/>
<text text-anchor="middle" x="619" y="-119.5" font-family="Helvetica,sans-Serif" font-size="10.00">parser.h</text>
</a>
</g>
</g>
<!-- Node0&#45;&gt;Node28 -->
<g id="edge28" class="edge"><title>Node0&#45;&gt;Node28</title>
<path fill="none" stroke="midnightblue" d="M901.122,-175.544C827.895,-161.906 713.185,-140.542 655.179,-129.738"/>
<polygon fill="midnightblue" stroke="midnightblue" points="655.502,-126.238 645.031,-127.848 654.221,-133.12 655.502,-126.238"/>
</g>
<!-- Node29 -->
<g id="node30" class="node"><title>Node29</title>
<polygon fill="none" stroke="#bfbfbf" points="758,-56.5 758,-75.5 822,-75.5 822,-56.5 758,-56.5"/>
<text text-anchor="middle" x="790" y="-63.5" font-family="Helvetica,sans-Serif" font-size="10.00">json/json.h</text>
</g>
<!-- Node0&#45;&gt;Node29 -->
<g id="edge39" class="edge"><title>Node0&#45;&gt;Node29</title>
<path fill="none" stroke="midnightblue" d="M901.105,-178.872C869.293,-171.28 833.05,-157.391 809,-132 797.262,-119.607 792.727,-100.364 791,-86.0272"/>
<polygon fill="midnightblue" stroke="midnightblue" points="794.466,-85.4741 790.133,-75.8056 787.491,-86.0655 794.466,-85.4741"/>
</g>
<!-- Node30 -->
<g id="node31" class="node"><title>Node30</title>
<g id="a_node31"><a xlink:href="main_loop_8h.html" target="_top" xlink:title="mainLoop.h">
<polygon fill="none" stroke="black" points="996.5,-56.5 996.5,-75.5 1063.5,-75.5 1063.5,-56.5 996.5,-56.5"/>
<text text-anchor="middle" x="1030" y="-63.5" font-family="Helvetica,sans-Serif" font-size="10.00">mainLoop.h</text>
</a>
</g>
</g>
<!-- Node0&#45;&gt;Node30 -->
<g id="edge32" class="edge"><title>Node0&#45;&gt;Node30</title>
<path fill="none" stroke="midnightblue" d="M978.099,-168.29C990.002,-145.061 1009.6,-106.815 1021,-84.5624"/>
<polygon fill="midnightblue" stroke="midnightblue" points="1024.16,-86.0706 1025.61,-75.5748 1017.93,-82.8784 1024.16,-86.0706"/>
</g>
<!-- Node31 -->
<g id="node32" class="node"><title>Node31</title>
<g id="a_node32"><a xlink:href="setup_servers_8h.html" target="_top" xlink:title="setupServers.h">
<polygon fill="none" stroke="black" points="818.5,-112.5 818.5,-131.5 901.5,-131.5 901.5,-112.5 818.5,-112.5"/>
<text text-anchor="middle" x="860" y="-119.5" font-family="Helvetica,sans-Serif" font-size="10.00">setupServers.h</text>
</a>
</g>
</g>
<!-- Node0&#45;&gt;Node31 -->
<g id="edge35" class="edge"><title>Node0&#45;&gt;Node31</title>
<path fill="none" stroke="midnightblue" d="M935.596,-168.498C918.72,-158.34 898.473,-146.155 883.182,-136.952"/>
<polygon fill="midnightblue" stroke="midnightblue" points="884.749,-133.81 874.376,-131.652 881.14,-139.808 884.749,-133.81"/>
</g>
<!-- Node32 -->
<g id="node33" class="node"><title>Node32</title>
<polygon fill="none" stroke="#bfbfbf" points="1072,-112.5 1072,-131.5 1122,-131.5 1122,-112.5 1072,-112.5"/>
<text text-anchor="middle" x="1097" y="-119.5" font-family="Helvetica,sans-Serif" font-size="10.00">iomanip</text>
</g>
<!-- Node0&#45;&gt;Node32 -->
<g id="edge42" class="edge"><title>Node0&#45;&gt;Node32</title>
<path fill="none" stroke="midnightblue" d="M1006.7,-168.498C1027.43,-158.053 1052.42,-145.464 1070.85,-136.178"/>
<polygon fill="midnightblue" stroke="midnightblue" points="1072.47,-139.278 1079.83,-131.652 1069.32,-133.027 1072.47,-139.278"/>
</g>
<!-- Node33 -->
<g id="node34" class="node"><title>Node33</title>
<polygon fill="none" stroke="#bfbfbf" points="1140,-112.5 1140,-131.5 1208,-131.5 1208,-112.5 1140,-112.5"/>
<text text-anchor="middle" x="1174" y="-119.5" font-family="Helvetica,sans-Serif" font-size="10.00">sys/types.h</text>
</g>
<!-- Node0&#45;&gt;Node33 -->
<g id="edge43" class="edge"><title>Node0&#45;&gt;Node33</title>
<path fill="none" stroke="midnightblue" d="M1029.81,-168.498C1064.84,-157.444 1107.48,-143.99 1137.27,-134.59"/>
<polygon fill="midnightblue" stroke="midnightblue" points="1138.37,-137.914 1146.85,-131.567 1136.26,-131.238 1138.37,-137.914"/>
</g>
<!-- Node34 -->
<g id="node35" class="node"><title>Node34</title>
<polygon fill="none" stroke="#bfbfbf" points="1226.5,-112.5 1226.5,-131.5 1299.5,-131.5 1299.5,-112.5 1226.5,-112.5"/>
<text text-anchor="middle" x="1263" y="-119.5" font-family="Helvetica,sans-Serif" font-size="10.00">sys/socket.h</text>
</g>
<!-- Node0&#45;&gt;Node34 -->
<g id="edge45" class="edge"><title>Node0&#45;&gt;Node34</title>
<path fill="none" stroke="midnightblue" d="M1034.57,-173.332C1089.94,-161.132 1167.35,-144.076 1216.32,-133.286"/>
<polygon fill="midnightblue" stroke="midnightblue" points="1217.31,-136.652 1226.32,-131.082 1215.8,-129.816 1217.31,-136.652"/>
</g>
<!-- Node35 -->
<g id="node36" class="node"><title>Node35</title>
<polygon fill="none" stroke="#bfbfbf" points="1318,-112.5 1318,-131.5 1368,-131.5 1368,-112.5 1318,-112.5"/>
<text text-anchor="middle" x="1343" y="-119.5" font-family="Helvetica,sans-Serif" font-size="10.00">signal.h</text>
</g>
<!-- Node0&#45;&gt;Node35 -->
<g id="edge46" class="edge"><title>Node0&#45;&gt;Node35</title>
<path fill="none" stroke="midnightblue" d="M1034.68,-178.982C1101.46,-169.515 1207.31,-153.325 1307.79,-132.093"/>
<polygon fill="midnightblue" stroke="midnightblue" points="1308.76,-135.465 1317.81,-129.955 1307.3,-128.619 1308.76,-135.465"/>
</g>
<!-- Node36 -->
<g id="node37" class="node"><title>Node36</title>
<polygon fill="none" stroke="#bfbfbf" points="1386,-112.5 1386,-131.5 1440,-131.5 1440,-112.5 1386,-112.5"/>
<text text-anchor="middle" x="1413" y="-119.5" font-family="Helvetica,sans-Serif" font-size="10.00">sys/un.h</text>
</g>
<!-- Node0&#45;&gt;Node36 -->
<g id="edge48" class="edge"><title>Node0&#45;&gt;Node36</title>
<path fill="none" stroke="midnightblue" d="M1034.6,-181.138C1113.78,-172.473 1250.05,-155.972 1376.11,-131.989"/>
<polygon fill="midnightblue" stroke="midnightblue" points="1376.78,-135.425 1385.94,-130.1 1375.46,-128.55 1376.78,-135.425"/>
</g>
<!-- Node2 -->
<g id="node3" class="node"><title>Node2</title>
<polygon fill="none" stroke="#bfbfbf" points="1342,-0.5 1342,-19.5 1428,-19.5 1428,-0.5 1342,-0.5"/>
<text text-anchor="middle" x="1385" y="-7.5" font-family="Helvetica,sans-Serif" font-size="10.00">outputListener.h</text>
</g>
<!-- Node1&#45;&gt;Node2 -->
<g id="edge2" class="edge"><title>Node1&#45;&gt;Node2</title>
<path fill="none" stroke="midnightblue" d="M894.09,-59.2681C900.267,-58.0538 906.848,-56.8761 913,-56 1095.22,-30.0517 1145.44,-43.5037 1331.78,-20.0458"/>
<polygon fill="midnightblue" stroke="midnightblue" points="1332.44,-23.4901 1341.91,-18.7507 1331.55,-16.5466 1332.44,-23.4901"/>
</g>
<!-- Node1&#45;&gt;Node3 -->
<g id="edge3" class="edge"><title>Node1&#45;&gt;Node3</title>
<path fill="none" stroke="midnightblue" d="M894.312,-61.8537C911.319,-59.9173 933.942,-57.5228 954,-56 1288.33,-30.6187 1376.24,-51.9339 1713.23,-20.0825"/>
<polygon fill="midnightblue" stroke="midnightblue" points="1713.65,-23.5583 1723.27,-19.1245 1712.98,-16.5899 1713.65,-23.5583"/>
</g>
<!-- Node4 -->
<g id="node5" class="node"><title>Node4</title>
<polygon fill="none" stroke="#bfbfbf" points="1446,-0.5 1446,-19.5 1556,-19.5 1556,-0.5 1446,-0.5"/>
<text text-anchor="middle" x="1501" y="-7.5" font-family="Helvetica,sans-Serif" font-size="10.00">event2/event&#45;config.h</text>
</g>
<!-- Node1&#45;&gt;Node4 -->
<g id="edge4" class="edge"><title>Node1&#45;&gt;Node4</title>
<path fill="none" stroke="midnightblue" d="M894.079,-59.1926C900.257,-57.9815 906.84,-56.8241 913,-56 1141.1,-25.4837 1203.08,-43.7347 1435.74,-20.0526"/>
<polygon fill="midnightblue" stroke="midnightblue" points="1436.29,-23.515 1445.87,-19.0059 1435.57,-16.5521 1436.29,-23.515"/>
</g>
<!-- Node1&#45;&gt;Node5 -->
<g id="edge5" class="edge"><title>Node1&#45;&gt;Node5</title>
<path fill="none" stroke="midnightblue" d="M894.451,-62.7457C918.555,-60.7519 955.148,-57.8761 987,-56 1362.46,-33.885 1461.2,-61.8766 1838.32,-20.0329"/>
<polygon fill="midnightblue" stroke="midnightblue" points="1838.87,-23.4934 1848.42,-18.9033 1838.1,-16.5368 1838.87,-23.4934"/>
</g>
<!-- Node6 -->
<g id="node7" class="node"><title>Node6</title>
<polygon fill="none" stroke="#bfbfbf" points="1574,-0.5 1574,-19.5 1644,-19.5 1644,-0.5 1574,-0.5"/>
<text text-anchor="middle" x="1609" y="-7.5" font-family="Helvetica,sans-Serif" font-size="10.00">event2/util.h</text>
</g>
<!-- Node1&#45;&gt;Node6 -->
<g id="edge6" class="edge"><title>Node1&#45;&gt;Node6</title>
<path fill="none" stroke="midnightblue" d="M894.072,-59.1325C900.249,-57.9239 906.835,-56.7827 913,-56 1197.53,-19.8776 1275.36,-56.3052 1563.2,-20.0404"/>
<polygon fill="midnightblue" stroke="midnightblue" points="1564.06,-23.4598 1573.53,-18.7194 1563.17,-16.5163 1564.06,-23.4598"/>
</g>
<!-- Node1&#45;&gt;Node7 -->
<g id="edge7" class="edge"><title>Node1&#45;&gt;Node7</title>
<path fill="none" stroke="midnightblue" d="M841.844,-57.9825C838.223,-57.2032 834.533,-56.5087 831,-56 499.562,-8.28843 407.895,-64.1736 72.3484,-19.9334"/>
<polygon fill="midnightblue" stroke="midnightblue" points="72.7253,-16.4527 62.3493,-18.5951 71.7966,-23.3909 72.7253,-16.4527"/>
</g>
<!-- Node1&#45;&gt;Node8 -->
<g id="edge8" class="edge"><title>Node1&#45;&gt;Node8</title>
<path fill="none" stroke="midnightblue" d="M841.84,-58.0144C838.219,-57.2301 834.531,-56.5257 831,-56 556.418,-15.1187 479.361,-62.0568 200.869,-19.7939"/>
<polygon fill="midnightblue" stroke="midnightblue" points="201.293,-16.318 190.877,-18.2526 200.226,-23.2362 201.293,-16.318"/>
</g>
<!-- Node1&#45;&gt;Node9 -->
<g id="edge9" class="edge"><title>Node1&#45;&gt;Node9</title>
<path fill="none" stroke="midnightblue" d="M841.842,-57.9956C838.221,-57.2143 834.532,-56.5157 831,-56 525.622,-11.4198 438.996,-73.3019 131.84,-19.9025"/>
<polygon fill="midnightblue" stroke="midnightblue" points="132.211,-16.4141 121.755,-18.1219 130.994,-23.3074 132.211,-16.4141"/>
</g>
<!-- Node10 -->
<g id="node11" class="node"><title>Node10</title>
<polygon fill="none" stroke="#bfbfbf" points="275,-0.5 275,-19.5 327,-19.5 327,-0.5 275,-0.5"/>
<text text-anchor="middle" x="301" y="-7.5" font-family="Helvetica,sans-Serif" font-size="10.00">sstream</text>
</g>
<!-- Node1&#45;&gt;Node10 -->
<g id="edge10" class="edge"><title>Node1&#45;&gt;Node10</title>
<path fill="none" stroke="midnightblue" d="M841.832,-58.0658C838.212,-57.2736 834.527,-56.5533 831,-56 616.383,-22.3324 555.522,-54.602 337.434,-19.9383"/>
<polygon fill="midnightblue" stroke="midnightblue" points="337.697,-16.4353 327.266,-18.2921 336.578,-23.3454 337.697,-16.4353"/>
</g>
<!-- Node11 -->
<g id="node12" class="node"><title>Node11</title>
<polygon fill="none" stroke="#bfbfbf" points="1662,-0.5 1662,-19.5 1706,-19.5 1706,-0.5 1662,-0.5"/>
<text text-anchor="middle" x="1684" y="-7.5" font-family="Helvetica,sans-Serif" font-size="10.00">vector</text>
</g>
<!-- Node1&#45;&gt;Node11 -->
<g id="edge11" class="edge"><title>Node1&#45;&gt;Node11</title>
<path fill="none" stroke="midnightblue" d="M894.068,-59.1033C900.246,-57.8958 906.833,-56.7625 913,-56 1236.44,-16.0142 1326.39,-73.081 1651.61,-19.8131"/>
<polygon fill="midnightblue" stroke="midnightblue" points="1652.5,-23.2129 1661.79,-18.1218 1651.35,-16.3075 1652.5,-23.2129"/>
</g>
<!-- Node12 -->
<g id="node13" class="node"><title>Node12</title>
<polygon fill="none" stroke="#bfbfbf" points="345,-0.5 345,-19.5 389,-19.5 389,-0.5 345,-0.5"/>
<text text-anchor="middle" x="367" y="-7.5" font-family="Helvetica,sans-Serif" font-size="10.00">thread</text>
</g>
<!-- Node1&#45;&gt;Node12 -->
<g id="edge12" class="edge"><title>Node1&#45;&gt;Node12</title>
<path fill="none" stroke="midnightblue" d="M841.826,-58.0999C838.207,-57.3023 834.524,-56.5715 831,-56 643.64,-25.614 589.727,-54.087 399.282,-19.8702"/>
<polygon fill="midnightblue" stroke="midnightblue" points="399.69,-16.3868 389.223,-18.0279 398.429,-23.2722 399.69,-16.3868"/>
</g>
<!-- Node13 -->
<g id="node14" class="node"><title>Node13</title>
<polygon fill="none" stroke="#bfbfbf" points="407,-0.5 407,-19.5 451,-19.5 451,-0.5 407,-0.5"/>
<text text-anchor="middle" x="429" y="-7.5" font-family="Helvetica,sans-Serif" font-size="10.00">mutex</text>
</g>
<!-- Node1&#45;&gt;Node13 -->
<g id="edge13" class="edge"><title>Node1&#45;&gt;Node13</title>
<path fill="none" stroke="midnightblue" d="M841.819,-58.1452C838.201,-57.3406 834.52,-56.5958 831,-56 670.85,-28.893 624.495,-50.3547 461.134,-19.8745"/>
<polygon fill="midnightblue" stroke="midnightblue" points="461.708,-16.421 451.23,-17.9903 460.4,-23.2977 461.708,-16.421"/>
</g>
<!-- Node14 -->
<g id="node15" class="node"><title>Node14</title>
<polygon fill="none" stroke="#bfbfbf" points="469.5,-0.5 469.5,-19.5 528.5,-19.5 528.5,-0.5 469.5,-0.5"/>
<text text-anchor="middle" x="499" y="-7.5" font-family="Helvetica,sans-Serif" font-size="10.00">functional</text>
</g>
<!-- Node1&#45;&gt;Node14 -->
<g id="edge14" class="edge"><title>Node1&#45;&gt;Node14</title>
<path fill="none" stroke="midnightblue" d="M841.804,-58.2277C838.189,-57.4103 834.512,-56.6399 831,-56 704.651,-32.9789 668.342,-42.6982 538.715,-20.1435"/>
<polygon fill="midnightblue" stroke="midnightblue" points="539.263,-16.686 528.806,-18.3885 538.042,-23.5788 539.263,-16.686"/>
</g>
<!-- Node15 -->
<g id="node16" class="node"><title>Node15</title>
<polygon fill="none" stroke="#bfbfbf" points="546.5,-0.5 546.5,-19.5 591.5,-19.5 591.5,-0.5 546.5,-0.5"/>
<text text-anchor="middle" x="569" y="-7.5" font-family="Helvetica,sans-Serif" font-size="10.00">cstdlib</text>
</g>
<!-- Node1&#45;&gt;Node15 -->
<g id="edge15" class="edge"><title>Node1&#45;&gt;Node15</title>
<path fill="none" stroke="midnightblue" d="M841.784,-58.335C838.172,-57.501 834.501,-56.6973 831,-56 732.28,-36.3372 703.235,-42.1308 601.661,-20.1404"/>
<polygon fill="midnightblue" stroke="midnightblue" points="602.119,-16.6575 591.601,-17.9238 600.613,-23.4935 602.119,-16.6575"/>
</g>
<!-- Node16 -->
<g id="node17" class="node"><title>Node16</title>
<polygon fill="none" stroke="#bfbfbf" points="609.5,-0.5 609.5,-19.5 654.5,-19.5 654.5,-0.5 609.5,-0.5"/>
<text text-anchor="middle" x="632" y="-7.5" font-family="Helvetica,sans-Serif" font-size="10.00">iosfwd</text>
</g>
<!-- Node1&#45;&gt;Node16 -->
<g id="edge16" class="edge"><title>Node1&#45;&gt;Node16</title>
<path fill="none" stroke="midnightblue" d="M841.744,-58.5231C838.137,-57.6599 834.48,-56.7981 831,-56 760.03,-39.722 739.367,-38.3751 664.581,-20.017"/>
<polygon fill="midnightblue" stroke="midnightblue" points="665.228,-16.5716 654.68,-17.5656 663.545,-23.3664 665.228,-16.5716"/>
</g>
<!-- Node17 -->
<g id="node18" class="node"><title>Node17</title>
<polygon fill="none" stroke="#bfbfbf" points="673,-0.5 673,-19.5 719,-19.5 719,-0.5 673,-0.5"/>
<text text-anchor="middle" x="696" y="-7.5" font-family="Helvetica,sans-Serif" font-size="10.00">cctype</text>
</g>
<!-- Node1&#45;&gt;Node17 -->
<g id="edge17" class="edge"><title>Node1&#45;&gt;Node17</title>
<path fill="none" stroke="midnightblue" d="M841.877,-56.7986C811.557,-47.2797 761.526,-31.5722 728.664,-21.2549"/>
<polygon fill="midnightblue" stroke="midnightblue" points="729.646,-17.895 719.057,-18.2389 727.55,-24.5736 729.646,-17.895"/>
</g>
<!-- Node18 -->
<g id="node19" class="node"><title>Node18</title>
<polygon fill="none" stroke="#bfbfbf" points="737,-0.5 737,-19.5 793,-19.5 793,-0.5 737,-0.5"/>
<text text-anchor="middle" x="765" y="-7.5" font-family="Helvetica,sans-Serif" font-size="10.00">algorithm</text>
</g>
<!-- Node1&#45;&gt;Node18 -->
<g id="edge18" class="edge"><title>Node1&#45;&gt;Node18</title>
<path fill="none" stroke="midnightblue" d="M851.451,-56.324C835.008,-47.7034 809.565,-34.3643 790.532,-24.3855"/>
<polygon fill="midnightblue" stroke="midnightblue" points="791.989,-21.198 781.508,-19.6545 788.739,-27.3977 791.989,-21.198"/>
</g>
<!-- Node19 -->
<g id="node20" class="node"><title>Node19</title>
<polygon fill="none" stroke="#bfbfbf" points="811.5,-0.5 811.5,-19.5 858.5,-19.5 858.5,-0.5 811.5,-0.5"/>
<text text-anchor="middle" x="835" y="-7.5" font-family="Helvetica,sans-Serif" font-size="10.00">iterator</text>
</g>
<!-- Node1&#45;&gt;Node19 -->
<g id="edge19" class="edge"><title>Node1&#45;&gt;Node19</title>
<path fill="none" stroke="midnightblue" d="M862.551,-56.083C857.986,-48.6127 851.332,-37.7244 845.707,-28.5199"/>
<polygon fill="midnightblue" stroke="midnightblue" points="848.549,-26.4588 840.348,-19.7511 842.576,-30.109 848.549,-26.4588"/>
</g>
<!-- Node20 -->
<g id="node21" class="node"><title>Node20</title>
<polygon fill="none" stroke="#bfbfbf" points="876.5,-0.5 876.5,-19.5 925.5,-19.5 925.5,-0.5 876.5,-0.5"/>
<text text-anchor="middle" x="901" y="-7.5" font-family="Helvetica,sans-Serif" font-size="10.00">cstddef</text>
</g>
<!-- Node1&#45;&gt;Node20 -->
<g id="edge20" class="edge"><title>Node1&#45;&gt;Node20</title>
<path fill="none" stroke="midnightblue" d="M873.449,-56.083C878.014,-48.6127 884.668,-37.7244 890.293,-28.5199"/>
<polygon fill="midnightblue" stroke="midnightblue" points="893.424,-30.109 895.652,-19.7511 887.451,-26.4588 893.424,-30.109"/>
</g>
<!-- Node21 -->
<g id="node22" class="node"><title>Node21</title>
<polygon fill="none" stroke="#bfbfbf" points="944,-0.5 944,-19.5 996,-19.5 996,-0.5 944,-0.5"/>
<text text-anchor="middle" x="970" y="-7.5" font-family="Helvetica,sans-Serif" font-size="10.00">ostream</text>
</g>
<!-- Node1&#45;&gt;Node21 -->
<g id="edge21" class="edge"><title>Node1&#45;&gt;Node21</title>
<path fill="none" stroke="midnightblue" d="M884.388,-56.324C900.671,-47.7034 925.867,-34.3643 944.716,-24.3855"/>
<polygon fill="midnightblue" stroke="midnightblue" points="946.452,-27.4267 953.653,-19.6545 943.177,-21.2402 946.452,-27.4267"/>
</g>
<!-- Node22 -->
<g id="node23" class="node"><title>Node22</title>
<polygon fill="none" stroke="#bfbfbf" points="1014.5,-0.5 1014.5,-19.5 1063.5,-19.5 1063.5,-0.5 1014.5,-0.5"/>
<text text-anchor="middle" x="1039" y="-7.5" font-family="Helvetica,sans-Serif" font-size="10.00">cassert</text>
</g>
<!-- Node1&#45;&gt;Node22 -->
<g id="edge22" class="edge"><title>Node1&#45;&gt;Node22</title>
<path fill="none" stroke="midnightblue" d="M894.344,-56.6808C923.975,-47.3237 972.198,-32.0953 1004.74,-21.8201"/>
<polygon fill="midnightblue" stroke="midnightblue" points="1005.81,-25.1512 1014.29,-18.8023 1003.7,-18.4761 1005.81,-25.1512"/>
</g>
<!-- Node23 -->
<g id="node24" class="node"><title>Node23</title>
<polygon fill="none" stroke="#bfbfbf" points="1082,-0.5 1082,-19.5 1128,-19.5 1128,-0.5 1082,-0.5"/>
<text text-anchor="middle" x="1105" y="-7.5" font-family="Helvetica,sans-Serif" font-size="10.00">cstring</text>
</g>
<!-- Node1&#45;&gt;Node23 -->
<g id="edge23" class="edge"><title>Node1&#45;&gt;Node23</title>
<path fill="none" stroke="midnightblue" d="M894.18,-59.6548C933.093,-51.6127 1008.44,-35.6679 1072,-20 1072.1,-19.9751 1072.2,-19.9502 1072.3,-19.9251"/>
<polygon fill="midnightblue" stroke="midnightblue" points="1073.15,-23.3221 1081.96,-17.4391 1071.4,-16.5431 1073.15,-23.3221"/>
</g>
<!-- Node24 -->
<g id="node25" class="node"><title>Node24</title>
<polygon fill="none" stroke="#bfbfbf" points="1146,-0.5 1146,-19.5 1200,-19.5 1200,-0.5 1146,-0.5"/>
<text text-anchor="middle" x="1173" y="-7.5" font-family="Helvetica,sans-Serif" font-size="10.00">iostream</text>
</g>
<!-- Node1&#45;&gt;Node24 -->
<g id="edge24" class="edge"><title>Node1&#45;&gt;Node24</title>
<path fill="none" stroke="midnightblue" d="M894.143,-59.5966C900.318,-58.3688 906.884,-57.1026 913,-56 1009.13,-38.6684 1036.52,-40.1323 1136.07,-20.0441"/>
<polygon fill="midnightblue" stroke="midnightblue" points="1136.83,-23.4602 1145.93,-18.0314 1135.43,-16.6016 1136.83,-23.4602"/>
</g>
<!-- Node25 -->
<g id="node26" class="node"><title>Node25</title>
<polygon fill="none" stroke="#bfbfbf" points="209,-0.5 209,-19.5 257,-19.5 257,-0.5 209,-0.5"/>
<text text-anchor="middle" x="233" y="-7.5" font-family="Helvetica,sans-Serif" font-size="10.00">stdlib.h</text>
</g>
<!-- Node1&#45;&gt;Node25 -->
<g id="edge25" class="edge"><title>Node1&#45;&gt;Node25</title>
<path fill="none" stroke="midnightblue" d="M841.836,-58.0363C838.216,-57.2486 834.529,-56.5374 831,-56 585.527,-18.6191 516.031,-60.1898 267.099,-19.8194"/>
<polygon fill="midnightblue" stroke="midnightblue" points="267.462,-16.3319 257.026,-18.1571 266.322,-23.2385 267.462,-16.3319"/>
</g>
<!-- Node26 -->
<g id="node27" class="node"><title>Node26</title>
<polygon fill="none" stroke="#bfbfbf" points="1218.5,-0.5 1218.5,-19.5 1261.5,-19.5 1261.5,-0.5 1218.5,-0.5"/>
<text text-anchor="middle" x="1240" y="-7.5" font-family="Helvetica,sans-Serif" font-size="10.00">pwd.h</text>
</g>
<!-- Node1&#45;&gt;Node26 -->
<g id="edge26" class="edge"><title>Node1&#45;&gt;Node26</title>
<path fill="none" stroke="midnightblue" d="M894.114,-59.4264C900.29,-58.2056 906.864,-56.9852 913,-56 1040.65,-35.5025 1077.38,-46.0156 1208.41,-19.7841"/>
<polygon fill="midnightblue" stroke="midnightblue" points="1209.33,-23.1694 1218.43,-17.7447 1207.93,-16.3101 1209.33,-23.1694"/>
</g>
<!-- Node27 -->
<g id="node28" class="node"><title>Node27</title>
<polygon fill="none" stroke="#bfbfbf" points="1280,-0.5 1280,-19.5 1324,-19.5 1324,-0.5 1280,-0.5"/>
<text text-anchor="middle" x="1302" y="-7.5" font-family="Helvetica,sans-Serif" font-size="10.00">time.h</text>
</g>
<!-- Node1&#45;&gt;Node27 -->
<g id="edge27" class="edge"><title>Node1&#45;&gt;Node27</title>
<path fill="none" stroke="midnightblue" d="M894.099,-59.3337C900.276,-58.1168 906.854,-56.9214 913,-56 1067.9,-32.7774 1112.2,-49.6932 1269.72,-19.9135"/>
<polygon fill="midnightblue" stroke="midnightblue" points="1270.61,-23.3072 1279.77,-17.9808 1269.29,-16.4333 1270.61,-23.3072"/>
</g>
<!-- Node28&#45;&gt;Node9 -->
<g id="edge30" class="edge"><title>Node28&#45;&gt;Node9</title>
<path fill="none" stroke="midnightblue" d="M592.795,-116.61C520.528,-104.287 312.288,-67.3296 131.223,-20.1563"/>
<polygon fill="midnightblue" stroke="midnightblue" points="132.092,-16.7658 121.531,-17.6144 130.316,-23.5368 132.092,-16.7658"/>
</g>
<!-- Node28&#45;&gt;Node25 -->
<g id="edge29" class="edge"><title>Node28&#45;&gt;Node25</title>
<path fill="none" stroke="midnightblue" d="M592.772,-113.526C524.868,-94.1749 343.329,-42.4408 267.27,-20.7661"/>
<polygon fill="midnightblue" stroke="midnightblue" points="267.837,-17.2884 257.261,-17.9137 265.919,-24.0204 267.837,-17.2884"/>
</g>
<!-- Node28&#45;&gt;Node29 -->
<g id="edge31" class="edge"><title>Node28&#45;&gt;Node29</title>
<path fill="none" stroke="midnightblue" d="M645.344,-112.681C674.296,-103.538 720.997,-88.7904 753.474,-78.5344"/>
<polygon fill="midnightblue" stroke="midnightblue" points="754.58,-81.8558 763.061,-75.5069 752.472,-75.1807 754.58,-81.8558"/>
</g>
<!-- Node30&#45;&gt;Node3 -->
<g id="edge33" class="edge"><title>Node30&#45;&gt;Node3</title>
<path fill="none" stroke="midnightblue" d="M1063.74,-58.1079C1068.52,-57.2986 1073.37,-56.5624 1078,-56 1356.19,-22.2011 1431.11,-47.78 1713.15,-20.1014"/>
<polygon fill="midnightblue" stroke="midnightblue" points="1713.66,-23.5674 1723.27,-19.0942 1712.97,-16.6018 1713.66,-23.5674"/>
</g>
<!-- Node30&#45;&gt;Node5 -->
<g id="edge34" class="edge"><title>Node30&#45;&gt;Node5</title>
<path fill="none" stroke="midnightblue" d="M1063.74,-58.0683C1068.51,-57.265 1073.37,-56.541 1078,-56 1411.47,-17.0493 1501.42,-57.8984 1838.38,-20.0309"/>
<polygon fill="midnightblue" stroke="midnightblue" points="1838.88,-23.4964 1848.42,-18.8874 1838.09,-16.5414 1838.88,-23.4964"/>
</g>
<!-- Node31&#45;&gt;Node1 -->
<g id="edge36" class="edge"><title>Node31&#45;&gt;Node1</title>
<path fill="none" stroke="midnightblue" d="M861.321,-112.083C862.381,-104.927 863.906,-94.6353 865.231,-85.6911"/>
<polygon fill="midnightblue" stroke="midnightblue" points="868.7,-86.1561 866.704,-75.7511 861.776,-85.1302 868.7,-86.1561"/>
</g>
<!-- Node31&#45;&gt;Node11 -->
<g id="edge37" class="edge"><title>Node31&#45;&gt;Node11</title>
<path fill="none" stroke="midnightblue" d="M868.899,-112.223C884.547,-97.443 918.69,-68.0245 954,-56 1098.29,-6.8638 1483.77,-44.2901 1651.77,-19.6999"/>
<polygon fill="midnightblue" stroke="midnightblue" points="1652.46,-23.1344 1661.79,-18.114 1651.37,-16.2205 1652.46,-23.1344"/>
</g>
<!-- Node31&#45;&gt;Node29 -->
<g id="edge38" class="edge"><title>Node31&#45;&gt;Node29</title>
<path fill="none" stroke="midnightblue" d="M848.753,-112.324C838.203,-104.185 822.199,-91.8395 809.558,-82.0874"/>
<polygon fill="midnightblue" stroke="midnightblue" points="811.507,-79.1707 801.451,-75.8339 807.231,-84.7132 811.507,-79.1707"/>
</g>
</g>
</svg>
