<?xml version="1.0" encoding="UTF-8" standalone="no"?>
<!DOCTYPE svg PUBLIC "-//W3C//DTD SVG 1.1//EN"
 "http://www.w3.org/Graphics/SVG/1.1/DTD/svg11.dtd">
<!-- Generated by graphviz version 2.38.0 (20140413.2041)
 -->
<!-- Title: Json::containsControlCharacter Pages: 1 -->
<!--zoomable 145 -->
<svg id="main" version="1.1" xmlns="http://www.w3.org/2000/svg" xmlns:xlink="http://www.w3.org/1999/xlink" xml:space="preserve" onload="init(evt)">
<style type="text/css"><![CDATA[
.edge:hover path { stroke: red; }
.edge:hover polygon { stroke: red; fill: red; }
]]></style>
<script type="text/javascript"><![CDATA[
var edges = document.getElementsByTagName('g');
if (edges && edges.length) {
  for (var i=0;i<edges.length;i++) {
    if (edges[i].id.substr(0,4)=='edge') {
      edges[i].setAttribute('class','edge');
    }
  }
}
]]></script>
        <defs>
                <circle id="rim" cx="0" cy="0" r="7"/>
                <circle id="rim2" cx="0" cy="0" r="3.5"/>
                <g id="zoomPlus">
                        <use xlink:href="#rim" fill="#404040">
                                <set attributeName="fill" to="#808080" begin="zoomplus.mouseover" end="zoomplus.mouseout"/>
                        </use>
                        <path d="M-4,0h8M0,-4v8" fill="none" stroke="white" stroke-width="1.5" pointer-events="none"/>
                </g>
                <g id="zoomMin">
                        <use xlink:href="#rim" fill="#404040">
                                <set attributeName="fill" to="#808080" begin="zoomminus.mouseover" end="zoomminus.mouseout"/>
                        </use>
                        <path d="M-4,0h8" fill="none" stroke="white" stroke-width="1.5" pointer-events="none"/>
                </g>
                <g id="dirArrow">
                        <path fill="none" stroke="white" stroke-width="1.5" d="M0,-3.0v7 M-2.5,-0.5L0,-3.0L2.5,-0.5"/>
                </g>
               <g id="resetDef">
                       <use xlink:href="#rim2" fill="#404040">
                               <set attributeName="fill" to="#808080" begin="reset.mouseover" end="reset.mouseout"/>
                       </use>
               </g>
        </defs>

<script type="text/javascript">
var viewWidth = 1068;
var viewHeight = 145;
var sectionId = 'dynsection-2';
</script>
<script xlink:href="svgpan.js"/>
<svg id="graph" class="graph">
<g id="viewport">
<title>Json::containsControlCharacter</title>
<!-- Node19 -->
<g id="node1" class="node"><title>Node19</title>
<polygon fill="#bfbfbf" stroke="black" points="1.13687e-13,-59 1.13687e-13,-78 155,-78 155,-59 1.13687e-13,-59"/>
<text text-anchor="middle" x="77.5" y="-66" font-family="Helvetica,sans-Serif" font-size="10.00">Json::containsControlCharacter</text>
</g>
<!-- Node20 -->
<g id="node2" class="node"><title>Node20</title>
<g id="a_node2"><a xlink:href="namespace_json.html#aa0c8235a4a5c6599da5d3332743db8ac" target="_top" xlink:title="Json::valueToQuotedString">
<polygon fill="none" stroke="black" points="191,-59 191,-78 326,-78 326,-59 191,-59"/>
<text text-anchor="middle" x="258.5" y="-66" font-family="Helvetica,sans-Serif" font-size="10.00">Json::valueToQuotedString</text>
</a>
</g>
</g>
<!-- Node19&#45;&gt;Node20 -->
<g id="edge1" class="edge"><title>Node19&#45;&gt;Node20</title>
<path fill="none" stroke="midnightblue" d="M165.253,-68.5C173.853,-68.5 182.487,-68.5 190.838,-68.5"/>
<polygon fill="midnightblue" stroke="midnightblue" points="165.191,-65.0001 155.191,-68.5 165.191,-72.0001 165.191,-65.0001"/>
</g>
<!-- Node21 -->
<g id="node3" class="node"><title>Node21</title>
<g id="a_node3"><a xlink:href="namespace_json.html#a20d52b5a457ee5d833645d119451c2cd" target="_top" xlink:title="Json::valueToQuotedStringN">
<polygon fill="none" stroke="black" points="362,-59 362,-78 505,-78 505,-59 362,-59"/>
<text text-anchor="middle" x="433.5" y="-66" font-family="Helvetica,sans-Serif" font-size="10.00">Json::valueToQuotedStringN</text>
</a>
</g>
</g>
<!-- Node20&#45;&gt;Node21 -->
<g id="edge2" class="edge"><title>Node20&#45;&gt;Node21</title>
<path fill="none" stroke="midnightblue" d="M336.549,-68.5C344.947,-68.5 353.465,-68.5 361.781,-68.5"/>
<polygon fill="midnightblue" stroke="midnightblue" points="336.386,-65.0001 326.386,-68.5 336.386,-72.0001 336.386,-65.0001"/>
</g>
<!-- Node22 -->
<g id="node4" class="node"><title>Node22</title>
<g id="a_node4"><a xlink:href="struct_json_1_1_built_styled_stream_writer.html#a7c9da861861e570a51b45f270c9ff150" target="_top" xlink:title="Json::BuiltStyledStreamWriter\l::writeValue">
<polygon fill="none" stroke="black" points="541,-53.5 541,-83.5 690,-83.5 690,-53.5 541,-53.5"/>
<text text-anchor="start" x="549" y="-71.5" font-family="Helvetica,sans-Serif" font-size="10.00">Json::BuiltStyledStreamWriter</text>
<text text-anchor="middle" x="615.5" y="-60.5" font-family="Helvetica,sans-Serif" font-size="10.00">::writeValue</text>
</a>
</g>
</g>
<!-- Node21&#45;&gt;Node22 -->
<g id="edge3" class="edge"><title>Node21&#45;&gt;Node22</title>
<path fill="none" stroke="midnightblue" d="M515.383,-68.5C523.854,-68.5 532.435,-68.5 540.82,-68.5"/>
<polygon fill="midnightblue" stroke="midnightblue" points="515.124,-65.0001 505.124,-68.5 515.124,-72.0001 515.124,-65.0001"/>
</g>
<!-- Node23 -->
<g id="node5" class="node"><title>Node23</title>
<g id="a_node5"><a xlink:href="struct_json_1_1_built_styled_stream_writer.html#a2ecffc3d66c4feddf208e5cd3b1c0f18" target="_top" xlink:title="Json::BuiltStyledStreamWriter\l::write">
<polygon fill="none" stroke="black" points="726,-106.5 726,-136.5 875,-136.5 875,-106.5 726,-106.5"/>
<text text-anchor="start" x="734" y="-124.5" font-family="Helvetica,sans-Serif" font-size="10.00">Json::BuiltStyledStreamWriter</text>
<text text-anchor="middle" x="800.5" y="-113.5" font-family="Helvetica,sans-Serif" font-size="10.00">::write</text>
</a>
</g>
</g>
<!-- Node22&#45;&gt;Node23 -->
<g id="edge4" class="edge"><title>Node22&#45;&gt;Node23</title>
<path fill="none" stroke="midnightblue" d="M678.231,-86.3783C700.704,-92.8868 725.865,-100.174 747.419,-106.416"/>
<polygon fill="midnightblue" stroke="midnightblue" points="679.03,-82.966 668.451,-83.5459 677.083,-89.6897 679.03,-82.966"/>
</g>
<!-- Node24 -->
<g id="node6" class="node"><title>Node24</title>
<g id="a_node6"><a xlink:href="struct_json_1_1_built_styled_stream_writer.html#acd20e9274bbcf7876ef3af2e7d23a31f" target="_top" xlink:title="Json::BuiltStyledStreamWriter\l::writeArrayValue">
<polygon fill="none" stroke="black" points="911,-53.5 911,-83.5 1060,-83.5 1060,-53.5 911,-53.5"/>
<text text-anchor="start" x="919" y="-71.5" font-family="Helvetica,sans-Serif" font-size="10.00">Json::BuiltStyledStreamWriter</text>
<text text-anchor="middle" x="985.5" y="-60.5" font-family="Helvetica,sans-Serif" font-size="10.00">::writeArrayValue</text>
</a>
</g>
</g>
<!-- Node22&#45;&gt;Node24 -->
<g id="edge5" class="edge"><title>Node22&#45;&gt;Node24</title>
<path fill="none" stroke="midnightblue" d="M700.451,-62.7294C763.834,-61.348 849.975,-61.4279 910.727,-62.969"/>
<polygon fill="midnightblue" stroke="midnightblue" points="700.001,-59.239 690.086,-62.9737 700.166,-66.237 700.001,-59.239"/>
</g>
<!-- Node25 -->
<g id="node7" class="node"><title>Node25</title>
<g id="a_node7"><a xlink:href="struct_json_1_1_built_styled_stream_writer.html#af423fd33b3d580506ea3efc53b05a077" target="_top" xlink:title="Json::BuiltStyledStreamWriter\l::isMultineArray">
<polygon fill="none" stroke="black" points="726,-0.5 726,-30.5 875,-30.5 875,-0.5 726,-0.5"/>
<text text-anchor="start" x="734" y="-18.5" font-family="Helvetica,sans-Serif" font-size="10.00">Json::BuiltStyledStreamWriter</text>
<text text-anchor="middle" x="800.5" y="-7.5" font-family="Helvetica,sans-Serif" font-size="10.00">::isMultineArray</text>
</a>
</g>
</g>
<!-- Node22&#45;&gt;Node25 -->
<g id="edge7" class="edge"><title>Node22&#45;&gt;Node25</title>
<path fill="none" stroke="midnightblue" d="M678.231,-50.6217C700.704,-44.1132 725.865,-36.8259 747.419,-30.5835"/>
<polygon fill="midnightblue" stroke="midnightblue" points="677.083,-47.3103 668.451,-53.4541 679.03,-54.034 677.083,-47.3103"/>
</g>
<!-- Node24&#45;&gt;Node22 -->
<g id="edge6" class="edge"><title>Node24&#45;&gt;Node22</title>
<path fill="none" stroke="midnightblue" d="M900.353,-74.2748C836.924,-75.6532 750.785,-75.5704 690.086,-74.0263"/>
<polygon fill="midnightblue" stroke="midnightblue" points="900.812,-77.7651 910.727,-74.031 900.648,-70.767 900.812,-77.7651"/>
</g>
<!-- Node25&#45;&gt;Node24 -->
<g id="edge8" class="edge"><title>Node25&#45;&gt;Node24</title>
<path fill="none" stroke="midnightblue" d="M863.231,-33.3783C885.704,-39.8868 910.865,-47.1741 932.419,-53.4165"/>
<polygon fill="midnightblue" stroke="midnightblue" points="864.03,-29.966 853.451,-30.5459 862.083,-36.6897 864.03,-29.966"/>
</g>
</g>
</svg>
        <g id="navigator" transform="translate(0 0)" fill="#404254">
                <rect fill="#f2f5e9" fill-opacity="0.5" stroke="#606060" stroke-width=".5" x="0" y="0" width="60" height="60"/>
                <use id="zoomplus" xlink:href="#zoomPlus" x="17" y="9" onmousedown="handleZoom(evt,'in')"/>
                <use id="zoomminus" xlink:href="#zoomMin" x="42" y="9" onmousedown="handleZoom(evt,'out')"/>
                <use id="reset" xlink:href="#resetDef" x="30" y="36" onmousedown="handleReset()"/>
                <g id="arrowUp" xlink:href="#dirArrow" transform="translate(30 24)" onmousedown="handlePan(0,-1)">
                  <use xlink:href="#rim" fill="#404040">
                        <set attributeName="fill" to="#808080" begin="arrowUp.mouseover" end="arrowUp.mouseout"/>
                  </use>
                  <path fill="none" stroke="white" stroke-width="1.5" d="M0,-3.0v7 M-2.5,-0.5L0,-3.0L2.5,-0.5"/>
                </g>
                <g id="arrowRight" xlink:href="#dirArrow" transform="rotate(90) translate(36 -43)" onmousedown="handlePan(1,0)">
                  <use xlink:href="#rim" fill="#404040">
                        <set attributeName="fill" to="#808080" begin="arrowRight.mouseover" end="arrowRight.mouseout"/>
                  </use>
                  <path fill="none" stroke="white" stroke-width="1.5" d="M0,-3.0v7 M-2.5,-0.5L0,-3.0L2.5,-0.5"/>
                </g>
                <g id="arrowDown" xlink:href="#dirArrow" transform="rotate(180) translate(-30 -48)" onmousedown="handlePan(0,1)">
                  <use xlink:href="#rim" fill="#404040">
                        <set attributeName="fill" to="#808080" begin="arrowDown.mouseover" end="arrowDown.mouseout"/>
                  </use>
                  <path fill="none" stroke="white" stroke-width="1.5" d="M0,-3.0v7 M-2.5,-0.5L0,-3.0L2.5,-0.5"/>
                </g>
                <g id="arrowLeft" xlink:href="#dirArrow" transform="rotate(270) translate(-36 17)" onmousedown="handlePan(-1,0)">
                  <use xlink:href="#rim" fill="#404040">
                        <set attributeName="fill" to="#808080" begin="arrowLeft.mouseover" end="arrowLeft.mouseout"/>
                  </use>
                  <path fill="none" stroke="white" stroke-width="1.5" d="M0,-3.0v7 M-2.5,-0.5L0,-3.0L2.5,-0.5"/>
                </g>
        </g>
        <svg viewBox="0 0 15 15" width="100%" height="30px" preserveAspectRatio="xMaxYMin meet">
         <g id="arrow_out" transform="scale(0.3 0.3)">
          <a xlink:href="namespace_json_aa11b210ff98a4f4dd4e2df19260f8c3a_icgraph_org.svg" target="_base">
           <rect id="button" ry="5" rx="5" y="6" x="6" height="38" width="38"
                fill="#f2f5e9" fill-opacity="0.5" stroke="#606060" stroke-width="1.0"/>
           <path id="arrow"
             d="M 11.500037,31.436501 C 11.940474,20.09759 22.043105,11.32322 32.158766,21.979434 L 37.068811,17.246167 C 37.068811,17.246167 37.088388,32 37.088388,32 L 22.160133,31.978069 C 22.160133,31.978069 26.997745,27.140456 26.997745,27.140456 C 18.528582,18.264221 13.291696,25.230495 11.500037,31.436501 z"
             style="fill:#404040;"/>
          </a>
         </g>
        </svg>
</svg>
