<?xml version="1.0" encoding="UTF-8" standalone="no"?>
<!DOCTYPE svg PUBLIC "-//W3C//DTD SVG 1.1//EN"
 "http://www.w3.org/Graphics/SVG/1.1/DTD/svg11.dtd">
<!-- Generated by graphviz version 2.38.0 (20140413.2041)
 -->
<!-- Title: Json::containsControlCharacter Pages: 1 -->
<svg width="1068pt" height="145pt"
 viewBox="0.00 0.00 1068.00 145.00" xmlns="http://www.w3.org/2000/svg" xmlns:xlink="http://www.w3.org/1999/xlink">
<g id="graph0" class="graph" transform="scale(1 1) rotate(0) translate(4 141)">
<title>Json::containsControlCharacter</title>
<!-- Node19 -->
<g id="node1" class="node"><title>Node19</title>
<polygon fill="#bfbfbf" stroke="black" points="1.13687e-13,-59 1.13687e-13,-78 155,-78 155,-59 1.13687e-13,-59"/>
<text text-anchor="middle" x="77.5" y="-66" font-family="Helvetica,sans-Serif" font-size="10.00">Json::containsControlCharacter</text>
</g>
<!-- Node20 -->
<g id="node2" class="node"><title>Node20</title>
<g id="a_node2"><a xlink:href="namespace_json.html#aa0c8235a4a5c6599da5d3332743db8ac" target="_top" xlink:title="Json::valueToQuotedString">
<polygon fill="none" stroke="black" points="191,-59 191,-78 326,-78 326,-59 191,-59"/>
<text text-anchor="middle" x="258.5" y="-66" font-family="Helvetica,sans-Serif" font-size="10.00">Json::valueToQuotedString</text>
</a>
</g>
</g>
<!-- Node19&#45;&gt;Node20 -->
<g id="edge1" class="edge"><title>Node19&#45;&gt;Node20</title>
<path fill="none" stroke="midnightblue" d="M165.253,-68.5C173.853,-68.5 182.487,-68.5 190.838,-68.5"/>
<polygon fill="midnightblue" stroke="midnightblue" points="165.191,-65.0001 155.191,-68.5 165.191,-72.0001 165.191,-65.0001"/>
</g>
<!-- Node21 -->
<g id="node3" class="node"><title>Node21</title>
<g id="a_node3"><a xlink:href="namespace_json.html#a20d52b5a457ee5d833645d119451c2cd" target="_top" xlink:title="Json::valueToQuotedStringN">
<polygon fill="none" stroke="black" points="362,-59 362,-78 505,-78 505,-59 362,-59"/>
<text text-anchor="middle" x="433.5" y="-66" font-family="Helvetica,sans-Serif" font-size="10.00">Json::valueToQuotedStringN</text>
</a>
</g>
</g>
<!-- Node20&#45;&gt;Node21 -->
<g id="edge2" class="edge"><title>Node20&#45;&gt;Node21</title>
<path fill="none" stroke="midnightblue" d="M336.549,-68.5C344.947,-68.5 353.465,-68.5 361.781,-68.5"/>
<polygon fill="midnightblue" stroke="midnightblue" points="336.386,-65.0001 326.386,-68.5 336.386,-72.0001 336.386,-65.0001"/>
</g>
<!-- Node22 -->
<g id="node4" class="node"><title>Node22</title>
<g id="a_node4"><a xlink:href="struct_json_1_1_built_styled_stream_writer.html#a7c9da861861e570a51b45f270c9ff150" target="_top" xlink:title="Json::BuiltStyledStreamWriter\l::writeValue">
<polygon fill="none" stroke="black" points="541,-53.5 541,-83.5 690,-83.5 690,-53.5 541,-53.5"/>
<text text-anchor="start" x="549" y="-71.5" font-family="Helvetica,sans-Serif" font-size="10.00">Json::BuiltStyledStreamWriter</text>
<text text-anchor="middle" x="615.5" y="-60.5" font-family="Helvetica,sans-Serif" font-size="10.00">::writeValue</text>
</a>
</g>
</g>
<!-- Node21&#45;&gt;Node22 -->
<g id="edge3" class="edge"><title>Node21&#45;&gt;Node22</title>
<path fill="none" stroke="midnightblue" d="M515.383,-68.5C523.854,-68.5 532.435,-68.5 540.82,-68.5"/>
<polygon fill="midnightblue" stroke="midnightblue" points="515.124,-65.0001 505.124,-68.5 515.124,-72.0001 515.124,-65.0001"/>
</g>
<!-- Node23 -->
<g id="node5" class="node"><title>Node23</title>
<g id="a_node5"><a xlink:href="struct_json_1_1_built_styled_stream_writer.html#a2ecffc3d66c4feddf208e5cd3b1c0f18" target="_top" xlink:title="Json::BuiltStyledStreamWriter\l::write">
<polygon fill="none" stroke="black" points="726,-106.5 726,-136.5 875,-136.5 875,-106.5 726,-106.5"/>
<text text-anchor="start" x="734" y="-124.5" font-family="Helvetica,sans-Serif" font-size="10.00">Json::BuiltStyledStreamWriter</text>
<text text-anchor="middle" x="800.5" y="-113.5" font-family="Helvetica,sans-Serif" font-size="10.00">::write</text>
</a>
</g>
</g>
<!-- Node22&#45;&gt;Node23 -->
<g id="edge4" class="edge"><title>Node22&#45;&gt;Node23</title>
<path fill="none" stroke="midnightblue" d="M678.231,-86.3783C700.704,-92.8868 725.865,-100.174 747.419,-106.416"/>
<polygon fill="midnightblue" stroke="midnightblue" points="679.03,-82.966 668.451,-83.5459 677.083,-89.6897 679.03,-82.966"/>
</g>
<!-- Node24 -->
<g id="node6" class="node"><title>Node24</title>
<g id="a_node6"><a xlink:href="struct_json_1_1_built_styled_stream_writer.html#acd20e9274bbcf7876ef3af2e7d23a31f" target="_top" xlink:title="Json::BuiltStyledStreamWriter\l::writeArrayValue">
<polygon fill="none" stroke="black" points="911,-53.5 911,-83.5 1060,-83.5 1060,-53.5 911,-53.5"/>
<text text-anchor="start" x="919" y="-71.5" font-family="Helvetica,sans-Serif" font-size="10.00">Json::BuiltStyledStreamWriter</text>
<text text-anchor="middle" x="985.5" y="-60.5" font-family="Helvetica,sans-Serif" font-size="10.00">::writeArrayValue</text>
</a>
</g>
</g>
<!-- Node22&#45;&gt;Node24 -->
<g id="edge5" class="edge"><title>Node22&#45;&gt;Node24</title>
<path fill="none" stroke="midnightblue" d="M700.451,-62.7294C763.834,-61.348 849.975,-61.4279 910.727,-62.969"/>
<polygon fill="midnightblue" stroke="midnightblue" points="700.001,-59.239 690.086,-62.9737 700.166,-66.237 700.001,-59.239"/>
</g>
<!-- Node25 -->
<g id="node7" class="node"><title>Node25</title>
<g id="a_node7"><a xlink:href="struct_json_1_1_built_styled_stream_writer.html#af423fd33b3d580506ea3efc53b05a077" target="_top" xlink:title="Json::BuiltStyledStreamWriter\l::isMultineArray">
<polygon fill="none" stroke="black" points="726,-0.5 726,-30.5 875,-30.5 875,-0.5 726,-0.5"/>
<text text-anchor="start" x="734" y="-18.5" font-family="Helvetica,sans-Serif" font-size="10.00">Json::BuiltStyledStreamWriter</text>
<text text-anchor="middle" x="800.5" y="-7.5" font-family="Helvetica,sans-Serif" font-size="10.00">::isMultineArray</text>
</a>
</g>
</g>
<!-- Node22&#45;&gt;Node25 -->
<g id="edge7" class="edge"><title>Node22&#45;&gt;Node25</title>
<path fill="none" stroke="midnightblue" d="M678.231,-50.6217C700.704,-44.1132 725.865,-36.8259 747.419,-30.5835"/>
<polygon fill="midnightblue" stroke="midnightblue" points="677.083,-47.3103 668.451,-53.4541 679.03,-54.034 677.083,-47.3103"/>
</g>
<!-- Node24&#45;&gt;Node22 -->
<g id="edge6" class="edge"><title>Node24&#45;&gt;Node22</title>
<path fill="none" stroke="midnightblue" d="M900.353,-74.2748C836.924,-75.6532 750.785,-75.5704 690.086,-74.0263"/>
<polygon fill="midnightblue" stroke="midnightblue" points="900.812,-77.7651 910.727,-74.031 900.648,-70.767 900.812,-77.7651"/>
</g>
<!-- Node25&#45;&gt;Node24 -->
<g id="edge8" class="edge"><title>Node25&#45;&gt;Node24</title>
<path fill="none" stroke="midnightblue" d="M863.231,-33.3783C885.704,-39.8868 910.865,-47.1741 932.419,-53.4165"/>
<polygon fill="midnightblue" stroke="midnightblue" points="864.03,-29.966 853.451,-30.5459 862.083,-36.6897 864.03,-29.966"/>
</g>
</g>
</svg>
