<?xml version="1.0" encoding="UTF-8" standalone="no"?>
<!DOCTYPE svg PUBLIC "-//W3C//DTD SVG 1.1//EN"
 "http://www.w3.org/Graphics/SVG/1.1/DTD/svg11.dtd">
<!-- Generated by graphviz version 2.38.0 (20140413.2041)
 -->
<!-- Title: Json::valueToQuotedString Pages: 1 -->
<!--zoomable 145 -->
<svg id="main" version="1.1" xmlns="http://www.w3.org/2000/svg" xmlns:xlink="http://www.w3.org/1999/xlink" xml:space="preserve" onload="init(evt)">
<style type="text/css"><![CDATA[
.edge:hover path { stroke: red; }
.edge:hover polygon { stroke: red; fill: red; }
]]></style>
<script type="text/javascript"><![CDATA[
var edges = document.getElementsByTagName('g');
if (edges && edges.length) {
  for (var i=0;i<edges.length;i++) {
    if (edges[i].id.substr(0,4)=='edge') {
      edges[i].setAttribute('class','edge');
    }
  }
}
]]></script>
        <defs>
                <circle id="rim" cx="0" cy="0" r="7"/>
                <circle id="rim2" cx="0" cy="0" r="3.5"/>
                <g id="zoomPlus">
                        <use xlink:href="#rim" fill="#404040">
                                <set attributeName="fill" to="#808080" begin="zoomplus.mouseover" end="zoomplus.mouseout"/>
                        </use>
                        <path d="M-4,0h8M0,-4v8" fill="none" stroke="white" stroke-width="1.5" pointer-events="none"/>
                </g>
                <g id="zoomMin">
                        <use xlink:href="#rim" fill="#404040">
                                <set attributeName="fill" to="#808080" begin="zoomminus.mouseover" end="zoomminus.mouseout"/>
                        </use>
                        <path d="M-4,0h8" fill="none" stroke="white" stroke-width="1.5" pointer-events="none"/>
                </g>
                <g id="dirArrow">
                        <path fill="none" stroke="white" stroke-width="1.5" d="M0,-3.0v7 M-2.5,-0.5L0,-3.0L2.5,-0.5"/>
                </g>
               <g id="resetDef">
                       <use xlink:href="#rim2" fill="#404040">
                               <set attributeName="fill" to="#808080" begin="reset.mouseover" end="reset.mouseout"/>
                       </use>
               </g>
        </defs>

<script type="text/javascript">
var viewWidth = 877;
var viewHeight = 145;
var sectionId = 'dynsection-25';
</script>
<script xlink:href="svgpan.js"/>
<svg id="graph" class="graph">
<g id="viewport">
<title>Json::valueToQuotedString</title>
<!-- Node158 -->
<g id="node1" class="node"><title>Node158</title>
<polygon fill="#bfbfbf" stroke="black" points="0,-59 0,-78 135,-78 135,-59 0,-59"/>
<text text-anchor="middle" x="67.5" y="-66" font-family="Helvetica,sans-Serif" font-size="10.00">Json::valueToQuotedString</text>
</g>
<!-- Node159 -->
<g id="node2" class="node"><title>Node159</title>
<g id="a_node2"><a xlink:href="namespace_json.html#a20d52b5a457ee5d833645d119451c2cd" target="_top" xlink:title="Json::valueToQuotedStringN">
<polygon fill="none" stroke="black" points="171,-59 171,-78 314,-78 314,-59 171,-59"/>
<text text-anchor="middle" x="242.5" y="-66" font-family="Helvetica,sans-Serif" font-size="10.00">Json::valueToQuotedStringN</text>
</a>
</g>
</g>
<!-- Node158&#45;&gt;Node159 -->
<g id="edge1" class="edge"><title>Node158&#45;&gt;Node159</title>
<path fill="none" stroke="midnightblue" d="M145.549,-68.5C153.947,-68.5 162.465,-68.5 170.781,-68.5"/>
<polygon fill="midnightblue" stroke="midnightblue" points="145.386,-65.0001 135.386,-68.5 145.386,-72.0001 145.386,-65.0001"/>
</g>
<!-- Node160 -->
<g id="node3" class="node"><title>Node160</title>
<g id="a_node3"><a xlink:href="struct_json_1_1_built_styled_stream_writer.html#a7c9da861861e570a51b45f270c9ff150" target="_top" xlink:title="Json::BuiltStyledStreamWriter\l::writeValue">
<polygon fill="none" stroke="black" points="350,-53.5 350,-83.5 499,-83.5 499,-53.5 350,-53.5"/>
<text text-anchor="start" x="358" y="-71.5" font-family="Helvetica,sans-Serif" font-size="10.00">Json::BuiltStyledStreamWriter</text>
<text text-anchor="middle" x="424.5" y="-60.5" font-family="Helvetica,sans-Serif" font-size="10.00">::writeValue</text>
</a>
</g>
</g>
<!-- Node159&#45;&gt;Node160 -->
<g id="edge2" class="edge"><title>Node159&#45;&gt;Node160</title>
<path fill="none" stroke="midnightblue" d="M324.383,-68.5C332.854,-68.5 341.435,-68.5 349.82,-68.5"/>
<polygon fill="midnightblue" stroke="midnightblue" points="324.124,-65.0001 314.124,-68.5 324.124,-72.0001 324.124,-65.0001"/>
</g>
<!-- Node161 -->
<g id="node4" class="node"><title>Node161</title>
<g id="a_node4"><a xlink:href="struct_json_1_1_built_styled_stream_writer.html#a2ecffc3d66c4feddf208e5cd3b1c0f18" target="_top" xlink:title="Json::BuiltStyledStreamWriter\l::write">
<polygon fill="none" stroke="black" points="535,-106.5 535,-136.5 684,-136.5 684,-106.5 535,-106.5"/>
<text text-anchor="start" x="543" y="-124.5" font-family="Helvetica,sans-Serif" font-size="10.00">Json::BuiltStyledStreamWriter</text>
<text text-anchor="middle" x="609.5" y="-113.5" font-family="Helvetica,sans-Serif" font-size="10.00">::write</text>
</a>
</g>
</g>
<!-- Node160&#45;&gt;Node161 -->
<g id="edge3" class="edge"><title>Node160&#45;&gt;Node161</title>
<path fill="none" stroke="midnightblue" d="M487.231,-86.3783C509.704,-92.8868 534.865,-100.174 556.419,-106.416"/>
<polygon fill="midnightblue" stroke="midnightblue" points="488.03,-82.966 477.451,-83.5459 486.083,-89.6897 488.03,-82.966"/>
</g>
<!-- Node162 -->
<g id="node5" class="node"><title>Node162</title>
<g id="a_node5"><a xlink:href="struct_json_1_1_built_styled_stream_writer.html#acd20e9274bbcf7876ef3af2e7d23a31f" target="_top" xlink:title="Json::BuiltStyledStreamWriter\l::writeArrayValue">
<polygon fill="none" stroke="black" points="720,-53.5 720,-83.5 869,-83.5 869,-53.5 720,-53.5"/>
<text text-anchor="start" x="728" y="-71.5" font-family="Helvetica,sans-Serif" font-size="10.00">Json::BuiltStyledStreamWriter</text>
<text text-anchor="middle" x="794.5" y="-60.5" font-family="Helvetica,sans-Serif" font-size="10.00">::writeArrayValue</text>
</a>
</g>
</g>
<!-- Node160&#45;&gt;Node162 -->
<g id="edge4" class="edge"><title>Node160&#45;&gt;Node162</title>
<path fill="none" stroke="midnightblue" d="M509.451,-62.7294C572.834,-61.348 658.975,-61.4279 719.727,-62.969"/>
<polygon fill="midnightblue" stroke="midnightblue" points="509.001,-59.239 499.086,-62.9737 509.166,-66.237 509.001,-59.239"/>
</g>
<!-- Node163 -->
<g id="node6" class="node"><title>Node163</title>
<g id="a_node6"><a xlink:href="struct_json_1_1_built_styled_stream_writer.html#af423fd33b3d580506ea3efc53b05a077" target="_top" xlink:title="Json::BuiltStyledStreamWriter\l::isMultineArray">
<polygon fill="none" stroke="black" points="535,-0.5 535,-30.5 684,-30.5 684,-0.5 535,-0.5"/>
<text text-anchor="start" x="543" y="-18.5" font-family="Helvetica,sans-Serif" font-size="10.00">Json::BuiltStyledStreamWriter</text>
<text text-anchor="middle" x="609.5" y="-7.5" font-family="Helvetica,sans-Serif" font-size="10.00">::isMultineArray</text>
</a>
</g>
</g>
<!-- Node160&#45;&gt;Node163 -->
<g id="edge6" class="edge"><title>Node160&#45;&gt;Node163</title>
<path fill="none" stroke="midnightblue" d="M487.231,-50.6217C509.704,-44.1132 534.865,-36.8259 556.419,-30.5835"/>
<polygon fill="midnightblue" stroke="midnightblue" points="486.083,-47.3103 477.451,-53.4541 488.03,-54.034 486.083,-47.3103"/>
</g>
<!-- Node162&#45;&gt;Node160 -->
<g id="edge5" class="edge"><title>Node162&#45;&gt;Node160</title>
<path fill="none" stroke="midnightblue" d="M709.353,-74.2748C645.924,-75.6532 559.785,-75.5704 499.086,-74.0263"/>
<polygon fill="midnightblue" stroke="midnightblue" points="709.812,-77.7651 719.727,-74.031 709.648,-70.767 709.812,-77.7651"/>
</g>
<!-- Node163&#45;&gt;Node162 -->
<g id="edge7" class="edge"><title>Node163&#45;&gt;Node162</title>
<path fill="none" stroke="midnightblue" d="M672.231,-33.3783C694.704,-39.8868 719.865,-47.1741 741.419,-53.4165"/>
<polygon fill="midnightblue" stroke="midnightblue" points="673.03,-29.966 662.451,-30.5459 671.083,-36.6897 673.03,-29.966"/>
</g>
</g>
</svg>
        <g id="navigator" transform="translate(0 0)" fill="#404254">
                <rect fill="#f2f5e9" fill-opacity="0.5" stroke="#606060" stroke-width=".5" x="0" y="0" width="60" height="60"/>
                <use id="zoomplus" xlink:href="#zoomPlus" x="17" y="9" onmousedown="handleZoom(evt,'in')"/>
                <use id="zoomminus" xlink:href="#zoomMin" x="42" y="9" onmousedown="handleZoom(evt,'out')"/>
                <use id="reset" xlink:href="#resetDef" x="30" y="36" onmousedown="handleReset()"/>
                <g id="arrowUp" xlink:href="#dirArrow" transform="translate(30 24)" onmousedown="handlePan(0,-1)">
                  <use xlink:href="#rim" fill="#404040">
                        <set attributeName="fill" to="#808080" begin="arrowUp.mouseover" end="arrowUp.mouseout"/>
                  </use>
                  <path fill="none" stroke="white" stroke-width="1.5" d="M0,-3.0v7 M-2.5,-0.5L0,-3.0L2.5,-0.5"/>
                </g>
                <g id="arrowRight" xlink:href="#dirArrow" transform="rotate(90) translate(36 -43)" onmousedown="handlePan(1,0)">
                  <use xlink:href="#rim" fill="#404040">
                        <set attributeName="fill" to="#808080" begin="arrowRight.mouseover" end="arrowRight.mouseout"/>
                  </use>
                  <path fill="none" stroke="white" stroke-width="1.5" d="M0,-3.0v7 M-2.5,-0.5L0,-3.0L2.5,-0.5"/>
                </g>
                <g id="arrowDown" xlink:href="#dirArrow" transform="rotate(180) translate(-30 -48)" onmousedown="handlePan(0,1)">
                  <use xlink:href="#rim" fill="#404040">
                        <set attributeName="fill" to="#808080" begin="arrowDown.mouseover" end="arrowDown.mouseout"/>
                  </use>
                  <path fill="none" stroke="white" stroke-width="1.5" d="M0,-3.0v7 M-2.5,-0.5L0,-3.0L2.5,-0.5"/>
                </g>
                <g id="arrowLeft" xlink:href="#dirArrow" transform="rotate(270) translate(-36 17)" onmousedown="handlePan(-1,0)">
                  <use xlink:href="#rim" fill="#404040">
                        <set attributeName="fill" to="#808080" begin="arrowLeft.mouseover" end="arrowLeft.mouseout"/>
                  </use>
                  <path fill="none" stroke="white" stroke-width="1.5" d="M0,-3.0v7 M-2.5,-0.5L0,-3.0L2.5,-0.5"/>
                </g>
        </g>
        <svg viewBox="0 0 15 15" width="100%" height="30px" preserveAspectRatio="xMaxYMin meet">
         <g id="arrow_out" transform="scale(0.3 0.3)">
          <a xlink:href="namespace_json_aa0c8235a4a5c6599da5d3332743db8ac_icgraph_org.svg" target="_base">
           <rect id="button" ry="5" rx="5" y="6" x="6" height="38" width="38"
                fill="#f2f5e9" fill-opacity="0.5" stroke="#606060" stroke-width="1.0"/>
           <path id="arrow"
             d="M 11.500037,31.436501 C 11.940474,20.09759 22.043105,11.32322 32.158766,21.979434 L 37.068811,17.246167 C 37.068811,17.246167 37.088388,32 37.088388,32 L 22.160133,31.978069 C 22.160133,31.978069 26.997745,27.140456 26.997745,27.140456 C 18.528582,18.264221 13.291696,25.230495 11.500037,31.436501 z"
             style="fill:#404040;"/>
          </a>
         </g>
        </svg>
</svg>
