<?xml version="1.0" encoding="UTF-8" standalone="no"?>
<!DOCTYPE svg PUBLIC "-//W3C//DTD SVG 1.1//EN"
 "http://www.w3.org/Graphics/SVG/1.1/DTD/svg11.dtd">
<!-- Generated by graphviz version 2.38.0 (20140413.2041)
 -->
<!-- Title: Json::valueToQuotedStringN Pages: 1 -->
<!--zoomable 218 -->
<svg id="main" version="1.1" xmlns="http://www.w3.org/2000/svg" xmlns:xlink="http://www.w3.org/1999/xlink" xml:space="preserve" onload="init(evt)">
<style type="text/css"><![CDATA[
.edge:hover path { stroke: red; }
.edge:hover polygon { stroke: red; fill: red; }
]]></style>
<script type="text/javascript"><![CDATA[
var edges = document.getElementsByTagName('g');
if (edges && edges.length) {
  for (var i=0;i<edges.length;i++) {
    if (edges[i].id.substr(0,4)=='edge') {
      edges[i].setAttribute('class','edge');
    }
  }
}
]]></script>
        <defs>
                <circle id="rim" cx="0" cy="0" r="7"/>
                <circle id="rim2" cx="0" cy="0" r="3.5"/>
                <g id="zoomPlus">
                        <use xlink:href="#rim" fill="#404040">
                                <set attributeName="fill" to="#808080" begin="zoomplus.mouseover" end="zoomplus.mouseout"/>
                        </use>
                        <path d="M-4,0h8M0,-4v8" fill="none" stroke="white" stroke-width="1.5" pointer-events="none"/>
                </g>
                <g id="zoomMin">
                        <use xlink:href="#rim" fill="#404040">
                                <set attributeName="fill" to="#808080" begin="zoomminus.mouseover" end="zoomminus.mouseout"/>
                        </use>
                        <path d="M-4,0h8" fill="none" stroke="white" stroke-width="1.5" pointer-events="none"/>
                </g>
                <g id="dirArrow">
                        <path fill="none" stroke="white" stroke-width="1.5" d="M0,-3.0v7 M-2.5,-0.5L0,-3.0L2.5,-0.5"/>
                </g>
               <g id="resetDef">
                       <use xlink:href="#rim2" fill="#404040">
                               <set attributeName="fill" to="#808080" begin="reset.mouseover" end="reset.mouseout"/>
                       </use>
               </g>
        </defs>

<script type="text/javascript">
var viewWidth = 679;
var viewHeight = 218;
var sectionId = 'dynsection-26';
</script>
<script xlink:href="svgpan.js"/>
<svg id="graph" class="graph">
<g id="viewport">
<title>Json::valueToQuotedStringN</title>
<!-- Node164 -->
<g id="node1" class="node"><title>Node164</title>
<polygon fill="#bfbfbf" stroke="black" points="0,-114.5 0,-133.5 143,-133.5 143,-114.5 0,-114.5"/>
<text text-anchor="middle" x="71.5" y="-121.5" font-family="Helvetica,sans-Serif" font-size="10.00">Json::valueToQuotedStringN</text>
</g>
<!-- Node165 -->
<g id="node2" class="node"><title>Node165</title>
<g id="a_node2"><a xlink:href="namespace_json.html#a7492156d0c7d2dd2f672acacfb240320" target="_top" xlink:title="Json::strnpbrk">
<polygon fill="none" stroke="black" points="207,-190.5 207,-209.5 286,-209.5 286,-190.5 207,-190.5"/>
<text text-anchor="middle" x="246.5" y="-197.5" font-family="Helvetica,sans-Serif" font-size="10.00">Json::strnpbrk</text>
</a>
</g>
</g>
<!-- Node164&#45;&gt;Node165 -->
<g id="edge1" class="edge"><title>Node164&#45;&gt;Node165</title>
<path fill="none" stroke="midnightblue" d="M90.6917,-133.63C111.675,-144.561 147.355,-162.61 179,-176 188.061,-179.834 197.967,-183.62 207.301,-187.012"/>
<polygon fill="midnightblue" stroke="midnightblue" points="206.167,-190.323 216.761,-190.39 208.521,-183.731 206.167,-190.323"/>
</g>
<!-- Node166 -->
<g id="node3" class="node"><title>Node166</title>
<g id="a_node3"><a xlink:href="namespace_json.html#ae8a357381f264cf28f46449e79ab1dea" target="_top" xlink:title="Json::containsControlCharacter0">
<polygon fill="none" stroke="black" points="350,-152.5 350,-171.5 510,-171.5 510,-152.5 350,-152.5"/>
<text text-anchor="middle" x="430" y="-159.5" font-family="Helvetica,sans-Serif" font-size="10.00">Json::containsControlCharacter0</text>
</a>
</g>
</g>
<!-- Node164&#45;&gt;Node166 -->
<g id="edge2" class="edge"><title>Node164&#45;&gt;Node166</title>
<path fill="none" stroke="midnightblue" d="M142.062,-133.501C154.359,-135.078 167.049,-136.641 179,-138 232.288,-144.058 292.083,-149.836 339.83,-154.203"/>
<polygon fill="midnightblue" stroke="midnightblue" points="339.553,-157.692 349.829,-155.113 340.187,-150.721 339.553,-157.692"/>
</g>
<!-- Node167 -->
<g id="node4" class="node"><title>Node167</title>
<g id="a_node4"><a xlink:href="namespace_json.html#a0381e631737f51331065a388f4f59197" target="_top" xlink:title="Returns true if ch is a control character (in range [1,31]). ">
<polygon fill="none" stroke="black" points="546,-76.5 546,-95.5 671,-95.5 671,-76.5 546,-76.5"/>
<text text-anchor="middle" x="608.5" y="-83.5" font-family="Helvetica,sans-Serif" font-size="10.00">Json::isControlCharacter</text>
</a>
</g>
</g>
<!-- Node164&#45;&gt;Node167 -->
<g id="edge4" class="edge"><title>Node164&#45;&gt;Node167</title>
<path fill="none" stroke="midnightblue" d="M143.23,-124.161C229.951,-123.615 381.275,-120.251 510,-105 525.028,-103.22 541.209,-100.427 555.987,-97.526"/>
<polygon fill="midnightblue" stroke="midnightblue" points="556.854,-100.922 565.963,-95.5112 555.468,-94.0604 556.854,-100.922"/>
</g>
<!-- Node168 -->
<g id="node5" class="node"><title>Node168</title>
<g id="a_node5"><a xlink:href="namespace_json.html#abd9c650f70d9434f98f9025e2e2faf2d" target="_top" xlink:title="Json::valueToString">
<polygon fill="none" stroke="black" points="194.5,-76.5 194.5,-95.5 298.5,-95.5 298.5,-76.5 194.5,-76.5"/>
<text text-anchor="middle" x="246.5" y="-83.5" font-family="Helvetica,sans-Serif" font-size="10.00">Json::valueToString</text>
</a>
</g>
</g>
<!-- Node164&#45;&gt;Node168 -->
<g id="edge5" class="edge"><title>Node164&#45;&gt;Node168</title>
<path fill="none" stroke="midnightblue" d="M116.155,-114.411C139.293,-109.329 167.902,-103.045 192.327,-97.6797"/>
<polygon fill="midnightblue" stroke="midnightblue" points="193.142,-101.084 202.159,-95.5201 191.641,-94.247 193.142,-101.084"/>
</g>
<!-- Node170 -->
<g id="node7" class="node"><title>Node170</title>
<g id="a_node7"><a xlink:href="namespace_json.html#aa0c8235a4a5c6599da5d3332743db8ac" target="_top" xlink:title="Json::valueToQuotedString">
<polygon fill="none" stroke="black" points="179,-38.5 179,-57.5 314,-57.5 314,-38.5 179,-38.5"/>
<text text-anchor="middle" x="246.5" y="-45.5" font-family="Helvetica,sans-Serif" font-size="10.00">Json::valueToQuotedString</text>
</a>
</g>
</g>
<!-- Node164&#45;&gt;Node170 -->
<g id="edge7" class="edge"><title>Node164&#45;&gt;Node170</title>
<path fill="none" stroke="midnightblue" d="M87.8706,-114.419C108.133,-102.109 145.179,-80.6994 179,-67 184.77,-64.663 190.93,-62.4933 197.085,-60.519"/>
<polygon fill="midnightblue" stroke="midnightblue" points="198.158,-63.8511 206.698,-57.5814 196.112,-57.1567 198.158,-63.8511"/>
</g>
<!-- Node166&#45;&gt;Node167 -->
<g id="edge3" class="edge"><title>Node166&#45;&gt;Node167</title>
<path fill="none" stroke="midnightblue" d="M467.703,-152.465C481.205,-148.538 496.491,-143.592 510,-138 535.744,-127.344 563.658,-112.043 582.995,-100.796"/>
<polygon fill="midnightblue" stroke="midnightblue" points="584.911,-103.73 591.751,-95.6389 581.358,-97.698 584.911,-103.73"/>
</g>
<!-- Node169 -->
<g id="node6" class="node"><title>Node169</title>
<g id="a_node6"><a xlink:href="namespace_json.html#ac1ffd21a9e55122014353c773ccc496e" target="_top" xlink:title="Json::uintToString">
<polygon fill="none" stroke="black" points="382,-76.5 382,-95.5 478,-95.5 478,-76.5 382,-76.5"/>
<text text-anchor="middle" x="430" y="-83.5" font-family="Helvetica,sans-Serif" font-size="10.00">Json::uintToString</text>
</a>
</g>
</g>
<!-- Node168&#45;&gt;Node169 -->
<g id="edge6" class="edge"><title>Node168&#45;&gt;Node169</title>
<path fill="none" stroke="midnightblue" d="M298.541,-86C321.283,-86 348.17,-86 371.608,-86"/>
<polygon fill="midnightblue" stroke="midnightblue" points="371.762,-89.5001 381.762,-86 371.762,-82.5001 371.762,-89.5001"/>
</g>
<!-- Node170&#45;&gt;Node167 -->
<g id="edge10" class="edge"><title>Node170&#45;&gt;Node167</title>
<path fill="none" stroke="midnightblue" d="M314.074,-50.606C367.271,-53.2205 443.646,-58.166 510,-67 524.444,-68.923 539.974,-71.6463 554.3,-74.4322"/>
<polygon fill="midnightblue" stroke="midnightblue" points="553.995,-77.9401 564.486,-76.4613 555.363,-71.075 553.995,-77.9401"/>
</g>
<!-- Node171 -->
<g id="node8" class="node"><title>Node171</title>
<g id="a_node8"><a xlink:href="namespace_json.html#aa11b210ff98a4f4dd4e2df19260f8c3a" target="_top" xlink:title="Json::containsControlCharacter">
<polygon fill="none" stroke="black" points="352.5,-0.5 352.5,-19.5 507.5,-19.5 507.5,-0.5 352.5,-0.5"/>
<text text-anchor="middle" x="430" y="-7.5" font-family="Helvetica,sans-Serif" font-size="10.00">Json::containsControlCharacter</text>
</a>
</g>
</g>
<!-- Node170&#45;&gt;Node171 -->
<g id="edge8" class="edge"><title>Node170&#45;&gt;Node171</title>
<path fill="none" stroke="midnightblue" d="M293.3,-38.411C317.683,-33.3061 347.857,-26.9887 373.556,-21.6082"/>
<polygon fill="midnightblue" stroke="midnightblue" points="374.459,-24.9951 383.529,-19.5201 373.024,-18.1436 374.459,-24.9951"/>
</g>
<!-- Node171&#45;&gt;Node167 -->
<g id="edge9" class="edge"><title>Node171&#45;&gt;Node167</title>
<path fill="none" stroke="midnightblue" d="M467.703,-19.5354C481.205,-23.4623 496.491,-28.4082 510,-34 535.744,-44.6558 563.658,-59.9574 582.995,-71.204"/>
<polygon fill="midnightblue" stroke="midnightblue" points="581.358,-74.302 591.751,-76.3611 584.911,-68.2704 581.358,-74.302"/>
</g>
</g>
</svg>
        <g id="navigator" transform="translate(0 0)" fill="#404254">
                <rect fill="#f2f5e9" fill-opacity="0.5" stroke="#606060" stroke-width=".5" x="0" y="0" width="60" height="60"/>
                <use id="zoomplus" xlink:href="#zoomPlus" x="17" y="9" onmousedown="handleZoom(evt,'in')"/>
                <use id="zoomminus" xlink:href="#zoomMin" x="42" y="9" onmousedown="handleZoom(evt,'out')"/>
                <use id="reset" xlink:href="#resetDef" x="30" y="36" onmousedown="handleReset()"/>
                <g id="arrowUp" xlink:href="#dirArrow" transform="translate(30 24)" onmousedown="handlePan(0,-1)">
                  <use xlink:href="#rim" fill="#404040">
                        <set attributeName="fill" to="#808080" begin="arrowUp.mouseover" end="arrowUp.mouseout"/>
                  </use>
                  <path fill="none" stroke="white" stroke-width="1.5" d="M0,-3.0v7 M-2.5,-0.5L0,-3.0L2.5,-0.5"/>
                </g>
                <g id="arrowRight" xlink:href="#dirArrow" transform="rotate(90) translate(36 -43)" onmousedown="handlePan(1,0)">
                  <use xlink:href="#rim" fill="#404040">
                        <set attributeName="fill" to="#808080" begin="arrowRight.mouseover" end="arrowRight.mouseout"/>
                  </use>
                  <path fill="none" stroke="white" stroke-width="1.5" d="M0,-3.0v7 M-2.5,-0.5L0,-3.0L2.5,-0.5"/>
                </g>
                <g id="arrowDown" xlink:href="#dirArrow" transform="rotate(180) translate(-30 -48)" onmousedown="handlePan(0,1)">
                  <use xlink:href="#rim" fill="#404040">
                        <set attributeName="fill" to="#808080" begin="arrowDown.mouseover" end="arrowDown.mouseout"/>
                  </use>
                  <path fill="none" stroke="white" stroke-width="1.5" d="M0,-3.0v7 M-2.5,-0.5L0,-3.0L2.5,-0.5"/>
                </g>
                <g id="arrowLeft" xlink:href="#dirArrow" transform="rotate(270) translate(-36 17)" onmousedown="handlePan(-1,0)">
                  <use xlink:href="#rim" fill="#404040">
                        <set attributeName="fill" to="#808080" begin="arrowLeft.mouseover" end="arrowLeft.mouseout"/>
                  </use>
                  <path fill="none" stroke="white" stroke-width="1.5" d="M0,-3.0v7 M-2.5,-0.5L0,-3.0L2.5,-0.5"/>
                </g>
        </g>
        <svg viewBox="0 0 15 15" width="100%" height="30px" preserveAspectRatio="xMaxYMin meet">
         <g id="arrow_out" transform="scale(0.3 0.3)">
          <a xlink:href="namespace_json_a20d52b5a457ee5d833645d119451c2cd_cgraph_org.svg" target="_base">
           <rect id="button" ry="5" rx="5" y="6" x="6" height="38" width="38"
                fill="#f2f5e9" fill-opacity="0.5" stroke="#606060" stroke-width="1.0"/>
           <path id="arrow"
             d="M 11.500037,31.436501 C 11.940474,20.09759 22.043105,11.32322 32.158766,21.979434 L 37.068811,17.246167 C 37.068811,17.246167 37.088388,32 37.088388,32 L 22.160133,31.978069 C 22.160133,31.978069 26.997745,27.140456 26.997745,27.140456 C 18.528582,18.264221 13.291696,25.230495 11.500037,31.436501 z"
             style="fill:#404040;"/>
          </a>
         </g>
        </svg>
</svg>
