<?xml version="1.0" encoding="UTF-8" standalone="no"?>
<!DOCTYPE svg PUBLIC "-//W3C//DTD SVG 1.1//EN"
 "http://www.w3.org/Graphics/SVG/1.1/DTD/svg11.dtd">
<!-- Generated by graphviz version 2.38.0 (20140413.2041)
 -->
<!-- Title: Json::throwLogicError Pages: 1 -->
<svg width="454pt" height="230pt"
 viewBox="0.00 0.00 454.00 230.00" xmlns="http://www.w3.org/2000/svg" xmlns:xlink="http://www.w3.org/1999/xlink">
<g id="graph0" class="graph" transform="scale(1 1) rotate(0) translate(4 226)">
<title>Json::throwLogicError</title>
<!-- Node113 -->
<g id="node1" class="node"><title>Node113</title>
<polygon fill="#bfbfbf" stroke="black" points="0,-98.5 0,-117.5 112,-117.5 112,-98.5 0,-98.5"/>
<text text-anchor="middle" x="56" y="-105.5" font-family="Helvetica,sans-Serif" font-size="10.00">Json::throwLogicError</text>
</g>
<!-- Node114 -->
<g id="node2" class="node"><title>Node114</title>
<g id="a_node2"><a xlink:href="namespace_json.html#acf8dd162c01e37846e129556c50e4037" target="_top" xlink:title="Json::releaseStringValue">
<polygon fill="none" stroke="black" points="154,-202.5 154,-221.5 279,-221.5 279,-202.5 154,-202.5"/>
<text text-anchor="middle" x="216.5" y="-209.5" font-family="Helvetica,sans-Serif" font-size="10.00">Json::releaseStringValue</text>
</a>
</g>
</g>
<!-- Node113&#45;&gt;Node114 -->
<g id="edge1" class="edge"><title>Node113&#45;&gt;Node114</title>
<path fill="none" stroke="midnightblue" d="M64.6621,-117.738C79.0736,-135.396 112.021,-172.74 148,-193 151.925,-195.21 156.125,-197.178 160.44,-198.928"/>
<polygon fill="midnightblue" stroke="midnightblue" points="159.41,-202.278 170.003,-202.42 161.81,-195.703 159.41,-202.278"/>
</g>
<!-- Node115 -->
<g id="node3" class="node"><title>Node115</title>
<g id="a_node3"><a xlink:href="namespace_json.html#a678ac3a60cd70ec0fb4c9abfd40eb0c4" target="_top" xlink:title="Json::duplicateStringValue">
<polygon fill="none" stroke="black" points="150,-164.5 150,-183.5 283,-183.5 283,-164.5 150,-164.5"/>
<text text-anchor="middle" x="216.5" y="-171.5" font-family="Helvetica,sans-Serif" font-size="10.00">Json::duplicateStringValue</text>
</a>
</g>
</g>
<!-- Node113&#45;&gt;Node115 -->
<g id="edge2" class="edge"><title>Node113&#45;&gt;Node115</title>
<path fill="none" stroke="midnightblue" d="M72.9744,-117.515C90.7922,-127.824 120.706,-144.238 148,-155 153.946,-157.344 160.292,-159.526 166.624,-161.514"/>
<polygon fill="midnightblue" stroke="midnightblue" points="165.919,-164.956 176.503,-164.472 167.927,-158.25 165.919,-164.956"/>
</g>
<!-- Node117 -->
<g id="node5" class="node"><title>Node117</title>
<g id="a_node5"><a xlink:href="namespace_json.html#a9795a09a0141d1f12d307c4386aeaee6" target="_top" xlink:title="Json::duplicateAndPrefix\lStringValue">
<polygon fill="none" stroke="black" points="154,-115 154,-145 279,-145 279,-115 154,-115"/>
<text text-anchor="start" x="162" y="-133" font-family="Helvetica,sans-Serif" font-size="10.00">Json::duplicateAndPrefix</text>
<text text-anchor="middle" x="216.5" y="-122" font-family="Helvetica,sans-Serif" font-size="10.00">StringValue</text>
</a>
</g>
</g>
<!-- Node113&#45;&gt;Node117 -->
<g id="edge4" class="edge"><title>Node113&#45;&gt;Node117</title>
<path fill="none" stroke="midnightblue" d="M112.436,-115.695C122.583,-117.103 133.305,-118.591 143.846,-120.054"/>
<polygon fill="midnightblue" stroke="midnightblue" points="143.486,-123.538 153.872,-121.446 144.449,-116.604 143.486,-123.538"/>
</g>
<!-- Node118 -->
<g id="node6" class="node"><title>Node118</title>
<g id="a_node6"><a xlink:href="namespace_json.html#aad8b4982c1acd164f541fba396ac9fb1" target="_top" xlink:title="Json::decodePrefixedString">
<polygon fill="none" stroke="black" points="148,-76.5 148,-95.5 285,-95.5 285,-76.5 148,-76.5"/>
<text text-anchor="middle" x="216.5" y="-83.5" font-family="Helvetica,sans-Serif" font-size="10.00">Json::decodePrefixedString</text>
</a>
</g>
</g>
<!-- Node113&#45;&gt;Node118 -->
<g id="edge6" class="edge"><title>Node113&#45;&gt;Node118</title>
<path fill="none" stroke="midnightblue" d="M112.436,-100.305C120.649,-99.1655 129.238,-97.9733 137.803,-96.7845"/>
<polygon fill="midnightblue" stroke="midnightblue" points="138.398,-100.235 147.822,-95.3938 137.436,-93.3019 138.398,-100.235"/>
</g>
<!-- Node119 -->
<g id="node7" class="node"><title>Node119</title>
<g id="a_node7"><a xlink:href="namespace_json.html#abd9c650f70d9434f98f9025e2e2faf2d" target="_top" xlink:title="Json::valueToString">
<polygon fill="none" stroke="black" points="164.5,-38.5 164.5,-57.5 268.5,-57.5 268.5,-38.5 164.5,-38.5"/>
<text text-anchor="middle" x="216.5" y="-45.5" font-family="Helvetica,sans-Serif" font-size="10.00">Json::valueToString</text>
</a>
</g>
</g>
<!-- Node113&#45;&gt;Node119 -->
<g id="edge7" class="edge"><title>Node113&#45;&gt;Node119</title>
<path fill="none" stroke="midnightblue" d="M76.1796,-98.3489C94.3617,-89.4435 122.596,-76.2399 148,-67 154.38,-64.6794 161.184,-62.4683 167.923,-60.429"/>
<polygon fill="midnightblue" stroke="midnightblue" points="169.08,-63.7375 177.695,-57.5714 167.115,-57.0189 169.08,-63.7375"/>
</g>
<!-- Node121 -->
<g id="node9" class="node"><title>Node121</title>
<g id="a_node9"><a xlink:href="namespace_json.html#aff0180507262a244de61b961178d7443" target="_top" xlink:title="Json::InRange">
<polygon fill="none" stroke="black" points="176.5,-0.5 176.5,-19.5 256.5,-19.5 256.5,-0.5 176.5,-0.5"/>
<text text-anchor="middle" x="216.5" y="-7.5" font-family="Helvetica,sans-Serif" font-size="10.00">Json::InRange</text>
</a>
</g>
</g>
<!-- Node113&#45;&gt;Node121 -->
<g id="edge9" class="edge"><title>Node113&#45;&gt;Node121</title>
<path fill="none" stroke="midnightblue" d="M65.2855,-98.4561C80.1831,-81.8853 113.198,-47.7714 148,-29 153.696,-25.9279 159.936,-23.3124 166.25,-21.0963"/>
<polygon fill="midnightblue" stroke="midnightblue" points="167.7,-24.3076 176.164,-17.9345 165.573,-17.6386 167.7,-24.3076"/>
</g>
<!-- Node116 -->
<g id="node4" class="node"><title>Node116</title>
<g id="a_node4"><a xlink:href="namespace_json.html#a97f039a107b3f6cf1c3edee50e978f76" target="_top" xlink:title="Json::throwRuntimeError">
<polygon fill="none" stroke="black" points="321,-142.5 321,-161.5 446,-161.5 446,-142.5 321,-142.5"/>
<text text-anchor="middle" x="383.5" y="-149.5" font-family="Helvetica,sans-Serif" font-size="10.00">Json::throwRuntimeError</text>
</a>
</g>
</g>
<!-- Node115&#45;&gt;Node116 -->
<g id="edge3" class="edge"><title>Node115&#45;&gt;Node116</title>
<path fill="none" stroke="midnightblue" d="M283.186,-165.242C292.197,-164.04 301.488,-162.802 310.602,-161.586"/>
<polygon fill="midnightblue" stroke="midnightblue" points="311.345,-165.018 320.794,-160.227 310.419,-158.08 311.345,-165.018"/>
</g>
<!-- Node117&#45;&gt;Node116 -->
<g id="edge5" class="edge"><title>Node117&#45;&gt;Node116</title>
<path fill="none" stroke="midnightblue" d="M279.409,-138.255C289.665,-139.622 300.375,-141.05 310.847,-142.446"/>
<polygon fill="midnightblue" stroke="midnightblue" points="310.418,-145.92 320.792,-143.772 311.343,-138.981 310.418,-145.92"/>
</g>
<!-- Node120 -->
<g id="node8" class="node"><title>Node120</title>
<g id="a_node8"><a xlink:href="namespace_json.html#ac1ffd21a9e55122014353c773ccc496e" target="_top" xlink:title="Json::uintToString">
<polygon fill="none" stroke="black" points="335.5,-38.5 335.5,-57.5 431.5,-57.5 431.5,-38.5 335.5,-38.5"/>
<text text-anchor="middle" x="383.5" y="-45.5" font-family="Helvetica,sans-Serif" font-size="10.00">Json::uintToString</text>
</a>
</g>
</g>
<!-- Node119&#45;&gt;Node120 -->
<g id="edge8" class="edge"><title>Node119&#45;&gt;Node120</title>
<path fill="none" stroke="midnightblue" d="M268.803,-48C286.762,-48 307.035,-48 325.436,-48"/>
<polygon fill="midnightblue" stroke="midnightblue" points="325.44,-51.5001 335.44,-48 325.44,-44.5001 325.44,-51.5001"/>
</g>
</g>
</svg>
