<?xml version="1.0" encoding="UTF-8" standalone="no"?>
<!DOCTYPE svg PUBLIC "-//W3C//DTD SVG 1.1//EN"
 "http://www.w3.org/Graphics/SVG/1.1/DTD/svg11.dtd">
<!-- Generated by graphviz version 2.38.0 (20140413.2041)
 -->
<!-- Title: Json::isControlCharacter Pages: 1 -->
<!--zoomable 163 -->
<svg id="main" version="1.1" xmlns="http://www.w3.org/2000/svg" xmlns:xlink="http://www.w3.org/1999/xlink" xml:space="preserve" onload="init(evt)">
<style type="text/css"><![CDATA[
.edge:hover path { stroke: red; }
.edge:hover polygon { stroke: red; fill: red; }
]]></style>
<script type="text/javascript"><![CDATA[
var edges = document.getElementsByTagName('g');
if (edges && edges.length) {
  for (var i=0;i<edges.length;i++) {
    if (edges[i].id.substr(0,4)=='edge') {
      edges[i].setAttribute('class','edge');
    }
  }
}
]]></script>
        <defs>
                <circle id="rim" cx="0" cy="0" r="7"/>
                <circle id="rim2" cx="0" cy="0" r="3.5"/>
                <g id="zoomPlus">
                        <use xlink:href="#rim" fill="#404040">
                                <set attributeName="fill" to="#808080" begin="zoomplus.mouseover" end="zoomplus.mouseout"/>
                        </use>
                        <path d="M-4,0h8M0,-4v8" fill="none" stroke="white" stroke-width="1.5" pointer-events="none"/>
                </g>
                <g id="zoomMin">
                        <use xlink:href="#rim" fill="#404040">
                                <set attributeName="fill" to="#808080" begin="zoomminus.mouseover" end="zoomminus.mouseout"/>
                        </use>
                        <path d="M-4,0h8" fill="none" stroke="white" stroke-width="1.5" pointer-events="none"/>
                </g>
                <g id="dirArrow">
                        <path fill="none" stroke="white" stroke-width="1.5" d="M0,-3.0v7 M-2.5,-0.5L0,-3.0L2.5,-0.5"/>
                </g>
               <g id="resetDef">
                       <use xlink:href="#rim2" fill="#404040">
                               <set attributeName="fill" to="#808080" begin="reset.mouseover" end="reset.mouseout"/>
                       </use>
               </g>
        </defs>

<script type="text/javascript">
var viewWidth = 1254;
var viewHeight = 163;
var sectionId = 'dynsection-14';
</script>
<script xlink:href="svgpan.js"/>
<svg id="graph" class="graph">
<g id="viewport">
<title>Json::isControlCharacter</title>
<!-- Node69 -->
<g id="node1" class="node"><title>Node69</title>
<polygon fill="#bfbfbf" stroke="black" points="0,-78 0,-97 125,-97 125,-78 0,-78"/>
<text text-anchor="middle" x="62.5" y="-85" font-family="Helvetica,sans-Serif" font-size="10.00">Json::isControlCharacter</text>
</g>
<!-- Node70 -->
<g id="node2" class="node"><title>Node70</title>
<g id="a_node2"><a xlink:href="namespace_json.html#aa11b210ff98a4f4dd4e2df19260f8c3a" target="_top" xlink:title="Json::containsControlCharacter">
<polygon fill="none" stroke="black" points="161,-135 161,-154 316,-154 316,-135 161,-135"/>
<text text-anchor="middle" x="238.5" y="-142" font-family="Helvetica,sans-Serif" font-size="10.00">Json::containsControlCharacter</text>
</a>
</g>
</g>
<!-- Node69&#45;&gt;Node70 -->
<g id="edge1" class="edge"><title>Node69&#45;&gt;Node70</title>
<path fill="none" stroke="midnightblue" d="M100.807,-100.345C118.942,-106.533 141.074,-114.003 161,-120.5 175.954,-125.376 192.612,-130.623 206.556,-134.964"/>
<polygon fill="midnightblue" stroke="midnightblue" points="101.777,-96.9777 91.1826,-97.0532 99.5119,-103.601 101.777,-96.9777"/>
</g>
<!-- Node71 -->
<g id="node3" class="node"><title>Node71</title>
<g id="a_node3"><a xlink:href="namespace_json.html#aa0c8235a4a5c6599da5d3332743db8ac" target="_top" xlink:title="Json::valueToQuotedString">
<polygon fill="none" stroke="black" points="364.5,-97 364.5,-116 499.5,-116 499.5,-97 364.5,-97"/>
<text text-anchor="middle" x="432" y="-104" font-family="Helvetica,sans-Serif" font-size="10.00">Json::valueToQuotedString</text>
</a>
</g>
</g>
<!-- Node69&#45;&gt;Node71 -->
<g id="edge12" class="edge"><title>Node69&#45;&gt;Node71</title>
<path fill="none" stroke="midnightblue" d="M135.387,-91.2166C201.779,-94.6491 299.624,-99.7078 364.309,-103.052"/>
<polygon fill="midnightblue" stroke="midnightblue" points="135.179,-87.7012 125.011,-90.6802 134.817,-94.6919 135.179,-87.7012"/>
</g>
<!-- Node72 -->
<g id="node4" class="node"><title>Node72</title>
<g id="a_node4"><a xlink:href="namespace_json.html#a20d52b5a457ee5d833645d119451c2cd" target="_top" xlink:title="Json::valueToQuotedStringN">
<polygon fill="none" stroke="black" points="548,-59 548,-78 691,-78 691,-59 548,-59"/>
<text text-anchor="middle" x="619.5" y="-66" font-family="Helvetica,sans-Serif" font-size="10.00">Json::valueToQuotedStringN</text>
</a>
</g>
</g>
<!-- Node69&#45;&gt;Node72 -->
<g id="edge13" class="edge"><title>Node69&#45;&gt;Node72</title>
<path fill="none" stroke="midnightblue" d="M135.055,-85.0504C241.871,-81.3936 441.797,-74.5493 547.998,-70.9136"/>
<polygon fill="midnightblue" stroke="midnightblue" points="134.89,-81.5539 125.015,-85.3941 135.129,-88.5498 134.89,-81.5539"/>
</g>
<!-- Node77 -->
<g id="node9" class="node"><title>Node77</title>
<g id="a_node9"><a xlink:href="namespace_json.html#ae8a357381f264cf28f46449e79ab1dea" target="_top" xlink:title="Json::containsControlCharacter0">
<polygon fill="none" stroke="black" points="352,-21 352,-40 512,-40 512,-21 352,-21"/>
<text text-anchor="middle" x="432" y="-28" font-family="Helvetica,sans-Serif" font-size="10.00">Json::containsControlCharacter0</text>
</a>
</g>
</g>
<!-- Node69&#45;&gt;Node77 -->
<g id="edge10" class="edge"><title>Node69&#45;&gt;Node77</title>
<path fill="none" stroke="midnightblue" d="M96.2133,-74.2522C114.888,-67.2441 138.914,-59.15 161,-54.5 224.434,-41.1447 297.777,-35.2131 351.999,-32.5829"/>
<polygon fill="midnightblue" stroke="midnightblue" points="94.7883,-71.05 86.705,-77.8991 97.2952,-77.5858 94.7883,-71.05"/>
</g>
<!-- Node70&#45;&gt;Node71 -->
<g id="edge2" class="edge"><title>Node70&#45;&gt;Node71</title>
<path fill="none" stroke="midnightblue" d="M297.646,-132.962C324.959,-127.542 357.126,-121.159 383.024,-116.02"/>
<polygon fill="midnightblue" stroke="midnightblue" points="296.951,-129.531 287.824,-134.911 298.314,-136.398 296.951,-129.531"/>
</g>
<!-- Node71&#45;&gt;Node72 -->
<g id="edge3" class="edge"><title>Node71&#45;&gt;Node72</title>
<path fill="none" stroke="midnightblue" d="M489.673,-94.8905C516.055,-89.486 547.051,-83.1365 572.027,-78.0201"/>
<polygon fill="midnightblue" stroke="midnightblue" points="488.904,-91.4753 479.809,-96.911 490.308,-98.3329 488.904,-91.4753"/>
</g>
<!-- Node73 -->
<g id="node5" class="node"><title>Node73</title>
<g id="a_node5"><a xlink:href="struct_json_1_1_built_styled_stream_writer.html#a7c9da861861e570a51b45f270c9ff150" target="_top" xlink:title="Json::BuiltStyledStreamWriter\l::writeValue">
<polygon fill="none" stroke="black" points="727,-53.5 727,-83.5 876,-83.5 876,-53.5 727,-53.5"/>
<text text-anchor="start" x="735" y="-71.5" font-family="Helvetica,sans-Serif" font-size="10.00">Json::BuiltStyledStreamWriter</text>
<text text-anchor="middle" x="801.5" y="-60.5" font-family="Helvetica,sans-Serif" font-size="10.00">::writeValue</text>
</a>
</g>
</g>
<!-- Node72&#45;&gt;Node73 -->
<g id="edge4" class="edge"><title>Node72&#45;&gt;Node73</title>
<path fill="none" stroke="midnightblue" d="M701.383,-68.5C709.854,-68.5 718.435,-68.5 726.82,-68.5"/>
<polygon fill="midnightblue" stroke="midnightblue" points="701.124,-65.0001 691.124,-68.5 701.124,-72.0001 701.124,-65.0001"/>
</g>
<!-- Node74 -->
<g id="node6" class="node"><title>Node74</title>
<g id="a_node6"><a xlink:href="struct_json_1_1_built_styled_stream_writer.html#a2ecffc3d66c4feddf208e5cd3b1c0f18" target="_top" xlink:title="Json::BuiltStyledStreamWriter\l::write">
<polygon fill="none" stroke="black" points="912,-106.5 912,-136.5 1061,-136.5 1061,-106.5 912,-106.5"/>
<text text-anchor="start" x="920" y="-124.5" font-family="Helvetica,sans-Serif" font-size="10.00">Json::BuiltStyledStreamWriter</text>
<text text-anchor="middle" x="986.5" y="-113.5" font-family="Helvetica,sans-Serif" font-size="10.00">::write</text>
</a>
</g>
</g>
<!-- Node73&#45;&gt;Node74 -->
<g id="edge5" class="edge"><title>Node73&#45;&gt;Node74</title>
<path fill="none" stroke="midnightblue" d="M864.231,-86.3783C886.704,-92.8868 911.865,-100.174 933.419,-106.416"/>
<polygon fill="midnightblue" stroke="midnightblue" points="865.03,-82.966 854.451,-83.5459 863.083,-89.6897 865.03,-82.966"/>
</g>
<!-- Node75 -->
<g id="node7" class="node"><title>Node75</title>
<g id="a_node7"><a xlink:href="struct_json_1_1_built_styled_stream_writer.html#acd20e9274bbcf7876ef3af2e7d23a31f" target="_top" xlink:title="Json::BuiltStyledStreamWriter\l::writeArrayValue">
<polygon fill="none" stroke="black" points="1097,-53.5 1097,-83.5 1246,-83.5 1246,-53.5 1097,-53.5"/>
<text text-anchor="start" x="1105" y="-71.5" font-family="Helvetica,sans-Serif" font-size="10.00">Json::BuiltStyledStreamWriter</text>
<text text-anchor="middle" x="1171.5" y="-60.5" font-family="Helvetica,sans-Serif" font-size="10.00">::writeArrayValue</text>
</a>
</g>
</g>
<!-- Node73&#45;&gt;Node75 -->
<g id="edge6" class="edge"><title>Node73&#45;&gt;Node75</title>
<path fill="none" stroke="midnightblue" d="M886.451,-62.7294C949.834,-61.348 1035.98,-61.4279 1096.73,-62.969"/>
<polygon fill="midnightblue" stroke="midnightblue" points="886.001,-59.239 876.086,-62.9737 886.166,-66.237 886.001,-59.239"/>
</g>
<!-- Node76 -->
<g id="node8" class="node"><title>Node76</title>
<g id="a_node8"><a xlink:href="struct_json_1_1_built_styled_stream_writer.html#af423fd33b3d580506ea3efc53b05a077" target="_top" xlink:title="Json::BuiltStyledStreamWriter\l::isMultineArray">
<polygon fill="none" stroke="black" points="912,-0.5 912,-30.5 1061,-30.5 1061,-0.5 912,-0.5"/>
<text text-anchor="start" x="920" y="-18.5" font-family="Helvetica,sans-Serif" font-size="10.00">Json::BuiltStyledStreamWriter</text>
<text text-anchor="middle" x="986.5" y="-7.5" font-family="Helvetica,sans-Serif" font-size="10.00">::isMultineArray</text>
</a>
</g>
</g>
<!-- Node73&#45;&gt;Node76 -->
<g id="edge8" class="edge"><title>Node73&#45;&gt;Node76</title>
<path fill="none" stroke="midnightblue" d="M864.231,-50.6217C886.704,-44.1132 911.865,-36.8259 933.419,-30.5835"/>
<polygon fill="midnightblue" stroke="midnightblue" points="863.083,-47.3103 854.451,-53.4541 865.03,-54.034 863.083,-47.3103"/>
</g>
<!-- Node75&#45;&gt;Node73 -->
<g id="edge7" class="edge"><title>Node75&#45;&gt;Node73</title>
<path fill="none" stroke="midnightblue" d="M1086.35,-74.2748C1022.92,-75.6532 936.785,-75.5704 876.086,-74.0263"/>
<polygon fill="midnightblue" stroke="midnightblue" points="1086.81,-77.7651 1096.73,-74.031 1086.65,-70.767 1086.81,-77.7651"/>
</g>
<!-- Node76&#45;&gt;Node75 -->
<g id="edge9" class="edge"><title>Node76&#45;&gt;Node75</title>
<path fill="none" stroke="midnightblue" d="M1049.23,-33.3783C1071.7,-39.8868 1096.87,-47.1741 1118.42,-53.4165"/>
<polygon fill="midnightblue" stroke="midnightblue" points="1050.03,-29.966 1039.45,-30.5459 1048.08,-36.6897 1050.03,-29.966"/>
</g>
<!-- Node77&#45;&gt;Node72 -->
<g id="edge11" class="edge"><title>Node77&#45;&gt;Node72</title>
<path fill="none" stroke="midnightblue" d="M489.673,-42.1095C516.055,-47.514 547.051,-53.8635 572.027,-58.9799"/>
<polygon fill="midnightblue" stroke="midnightblue" points="490.308,-38.6671 479.809,-40.089 488.904,-45.5247 490.308,-38.6671"/>
</g>
</g>
</svg>
        <g id="navigator" transform="translate(0 0)" fill="#404254">
                <rect fill="#f2f5e9" fill-opacity="0.5" stroke="#606060" stroke-width=".5" x="0" y="0" width="60" height="60"/>
                <use id="zoomplus" xlink:href="#zoomPlus" x="17" y="9" onmousedown="handleZoom(evt,'in')"/>
                <use id="zoomminus" xlink:href="#zoomMin" x="42" y="9" onmousedown="handleZoom(evt,'out')"/>
                <use id="reset" xlink:href="#resetDef" x="30" y="36" onmousedown="handleReset()"/>
                <g id="arrowUp" xlink:href="#dirArrow" transform="translate(30 24)" onmousedown="handlePan(0,-1)">
                  <use xlink:href="#rim" fill="#404040">
                        <set attributeName="fill" to="#808080" begin="arrowUp.mouseover" end="arrowUp.mouseout"/>
                  </use>
                  <path fill="none" stroke="white" stroke-width="1.5" d="M0,-3.0v7 M-2.5,-0.5L0,-3.0L2.5,-0.5"/>
                </g>
                <g id="arrowRight" xlink:href="#dirArrow" transform="rotate(90) translate(36 -43)" onmousedown="handlePan(1,0)">
                  <use xlink:href="#rim" fill="#404040">
                        <set attributeName="fill" to="#808080" begin="arrowRight.mouseover" end="arrowRight.mouseout"/>
                  </use>
                  <path fill="none" stroke="white" stroke-width="1.5" d="M0,-3.0v7 M-2.5,-0.5L0,-3.0L2.5,-0.5"/>
                </g>
                <g id="arrowDown" xlink:href="#dirArrow" transform="rotate(180) translate(-30 -48)" onmousedown="handlePan(0,1)">
                  <use xlink:href="#rim" fill="#404040">
                        <set attributeName="fill" to="#808080" begin="arrowDown.mouseover" end="arrowDown.mouseout"/>
                  </use>
                  <path fill="none" stroke="white" stroke-width="1.5" d="M0,-3.0v7 M-2.5,-0.5L0,-3.0L2.5,-0.5"/>
                </g>
                <g id="arrowLeft" xlink:href="#dirArrow" transform="rotate(270) translate(-36 17)" onmousedown="handlePan(-1,0)">
                  <use xlink:href="#rim" fill="#404040">
                        <set attributeName="fill" to="#808080" begin="arrowLeft.mouseover" end="arrowLeft.mouseout"/>
                  </use>
                  <path fill="none" stroke="white" stroke-width="1.5" d="M0,-3.0v7 M-2.5,-0.5L0,-3.0L2.5,-0.5"/>
                </g>
        </g>
        <svg viewBox="0 0 15 15" width="100%" height="30px" preserveAspectRatio="xMaxYMin meet">
         <g id="arrow_out" transform="scale(0.3 0.3)">
          <a xlink:href="namespace_json_a0381e631737f51331065a388f4f59197_icgraph_org.svg" target="_base">
           <rect id="button" ry="5" rx="5" y="6" x="6" height="38" width="38"
                fill="#f2f5e9" fill-opacity="0.5" stroke="#606060" stroke-width="1.0"/>
           <path id="arrow"
             d="M 11.500037,31.436501 C 11.940474,20.09759 22.043105,11.32322 32.158766,21.979434 L 37.068811,17.246167 C 37.068811,17.246167 37.088388,32 37.088388,32 L 22.160133,31.978069 C 22.160133,31.978069 26.997745,27.140456 26.997745,27.140456 C 18.528582,18.264221 13.291696,25.230495 11.500037,31.436501 z"
             style="fill:#404040;"/>
          </a>
         </g>
        </svg>
</svg>
