<?xml version="1.0" encoding="UTF-8" standalone="no"?>
<!DOCTYPE svg PUBLIC "-//W3C//DTD SVG 1.1//EN"
 "http://www.w3.org/Graphics/SVG/1.1/DTD/svg11.dtd">
<!-- Generated by graphviz version 2.38.0 (20140413.2041)
 -->
<!-- Title: Json::uintToString Pages: 1 -->
<!--zoomable 182 -->
<svg id="main" version="1.1" xmlns="http://www.w3.org/2000/svg" xmlns:xlink="http://www.w3.org/1999/xlink" xml:space="preserve" onload="init(evt)">
<style type="text/css"><![CDATA[
.edge:hover path { stroke: red; }
.edge:hover polygon { stroke: red; fill: red; }
]]></style>
<script type="text/javascript"><![CDATA[
var edges = document.getElementsByTagName('g');
if (edges && edges.length) {
  for (var i=0;i<edges.length;i++) {
    if (edges[i].id.substr(0,4)=='edge') {
      edges[i].setAttribute('class','edge');
    }
  }
}
]]></script>
        <defs>
                <circle id="rim" cx="0" cy="0" r="7"/>
                <circle id="rim2" cx="0" cy="0" r="3.5"/>
                <g id="zoomPlus">
                        <use xlink:href="#rim" fill="#404040">
                                <set attributeName="fill" to="#808080" begin="zoomplus.mouseover" end="zoomplus.mouseout"/>
                        </use>
                        <path d="M-4,0h8M0,-4v8" fill="none" stroke="white" stroke-width="1.5" pointer-events="none"/>
                </g>
                <g id="zoomMin">
                        <use xlink:href="#rim" fill="#404040">
                                <set attributeName="fill" to="#808080" begin="zoomminus.mouseover" end="zoomminus.mouseout"/>
                        </use>
                        <path d="M-4,0h8" fill="none" stroke="white" stroke-width="1.5" pointer-events="none"/>
                </g>
                <g id="dirArrow">
                        <path fill="none" stroke="white" stroke-width="1.5" d="M0,-3.0v7 M-2.5,-0.5L0,-3.0L2.5,-0.5"/>
                </g>
               <g id="resetDef">
                       <use xlink:href="#rim2" fill="#404040">
                               <set attributeName="fill" to="#808080" begin="reset.mouseover" end="reset.mouseout"/>
                       </use>
               </g>
        </defs>

<script type="text/javascript">
var viewWidth = 978;
var viewHeight = 182;
var sectionId = 'dynsection-23';
</script>
<script xlink:href="svgpan.js"/>
<svg id="graph" class="graph">
<g id="viewport">
<title>Json::uintToString</title>
<!-- Node146 -->
<g id="node1" class="node"><title>Node146</title>
<polygon fill="#bfbfbf" stroke="black" points="0,-97 0,-116 96,-116 96,-97 0,-97"/>
<text text-anchor="middle" x="48" y="-104" font-family="Helvetica,sans-Serif" font-size="10.00">Json::uintToString</text>
</g>
<!-- Node147 -->
<g id="node2" class="node"><title>Node147</title>
<g id="a_node2"><a xlink:href="namespace_json.html#abd9c650f70d9434f98f9025e2e2faf2d" target="_top" xlink:title="Json::valueToString">
<polygon fill="none" stroke="black" points="132,-97 132,-116 236,-116 236,-97 132,-97"/>
<text text-anchor="middle" x="184" y="-104" font-family="Helvetica,sans-Serif" font-size="10.00">Json::valueToString</text>
</a>
</g>
</g>
<!-- Node146&#45;&gt;Node147 -->
<g id="edge1" class="edge"><title>Node146&#45;&gt;Node147</title>
<path fill="none" stroke="midnightblue" d="M106.351,-106.5C114.751,-106.5 123.359,-106.5 131.629,-106.5"/>
<polygon fill="midnightblue" stroke="midnightblue" points="106.243,-103 96.2434,-106.5 106.243,-110 106.243,-103"/>
</g>
<!-- Node148 -->
<g id="node3" class="node"><title>Node148</title>
<g id="a_node3"><a xlink:href="namespace_json.html#a27613326e9e36bbfe04a905ac90caa91" target="_top" xlink:title="Json::throwLogicError">
<polygon fill="none" stroke="black" points="287.5,-154 287.5,-173 399.5,-173 399.5,-154 287.5,-154"/>
<text text-anchor="middle" x="343.5" y="-161" font-family="Helvetica,sans-Serif" font-size="10.00">Json::throwLogicError</text>
</a>
</g>
</g>
<!-- Node147&#45;&gt;Node148 -->
<g id="edge2" class="edge"><title>Node147&#45;&gt;Node148</title>
<path fill="none" stroke="midnightblue" d="M213.939,-120.431C230.662,-128.153 252.239,-137.565 272,-144.5 281.928,-147.984 292.829,-151.206 303.028,-153.97"/>
<polygon fill="midnightblue" stroke="midnightblue" points="215.246,-117.178 204.705,-116.111 212.28,-123.519 215.246,-117.178"/>
</g>
<!-- Node149 -->
<g id="node4" class="node"><title>Node149</title>
<g id="a_node4"><a xlink:href="namespace_json.html#a5d3eba6789f9a9c1ab563ff8b4a5090f" target="_top" xlink:title="Json::valueToString">
<polygon fill="none" stroke="black" points="291.5,-116 291.5,-135 395.5,-135 395.5,-116 291.5,-116"/>
<text text-anchor="middle" x="343.5" y="-123" font-family="Helvetica,sans-Serif" font-size="10.00">Json::valueToString</text>
</a>
</g>
</g>
<!-- Node147&#45;&gt;Node149 -->
<g id="edge3" class="edge"><title>Node147&#45;&gt;Node149</title>
<path fill="none" stroke="midnightblue" d="M246.286,-113.893C261.19,-115.691 276.974,-117.595 291.352,-119.33"/>
<polygon fill="midnightblue" stroke="midnightblue" points="246.483,-110.392 236.136,-112.669 245.645,-117.341 246.483,-110.392"/>
</g>
<!-- Node150 -->
<g id="node5" class="node"><title>Node150</title>
<g id="a_node5"><a xlink:href="namespace_json.html#a20d52b5a457ee5d833645d119451c2cd" target="_top" xlink:title="Json::valueToQuotedStringN">
<polygon fill="none" stroke="black" points="272,-78 272,-97 415,-97 415,-78 272,-78"/>
<text text-anchor="middle" x="343.5" y="-85" font-family="Helvetica,sans-Serif" font-size="10.00">Json::valueToQuotedStringN</text>
</a>
</g>
</g>
<!-- Node147&#45;&gt;Node150 -->
<g id="edge4" class="edge"><title>Node147&#45;&gt;Node150</title>
<path fill="none" stroke="midnightblue" d="M246.222,-99.1144C254.628,-98.1004 263.315,-97.0525 271.872,-96.0201"/>
<polygon fill="midnightblue" stroke="midnightblue" points="245.645,-95.6587 236.136,-100.331 246.483,-102.608 245.645,-95.6587"/>
</g>
<!-- Node151 -->
<g id="node6" class="node"><title>Node151</title>
<g id="a_node6"><a xlink:href="struct_json_1_1_built_styled_stream_writer.html#a7c9da861861e570a51b45f270c9ff150" target="_top" xlink:title="Json::BuiltStyledStreamWriter\l::writeValue">
<polygon fill="none" stroke="black" points="451,-53.5 451,-83.5 600,-83.5 600,-53.5 451,-53.5"/>
<text text-anchor="start" x="459" y="-71.5" font-family="Helvetica,sans-Serif" font-size="10.00">Json::BuiltStyledStreamWriter</text>
<text text-anchor="middle" x="525.5" y="-60.5" font-family="Helvetica,sans-Serif" font-size="10.00">::writeValue</text>
</a>
</g>
</g>
<!-- Node147&#45;&gt;Node151 -->
<g id="edge11" class="edge"><title>Node147&#45;&gt;Node151</title>
<path fill="none" stroke="midnightblue" d="M210.493,-92.0255C227.357,-83.3047 250.286,-73.0353 272,-68.5 331.217,-56.1317 399.964,-57.098 450.759,-60.6166"/>
<polygon fill="midnightblue" stroke="midnightblue" points="208.49,-89.1272 201.319,-96.9263 211.789,-95.3014 208.49,-89.1272"/>
</g>
<!-- Node150&#45;&gt;Node151 -->
<g id="edge5" class="edge"><title>Node150&#45;&gt;Node151</title>
<path fill="none" stroke="midnightblue" d="M425.104,-78.9918C433.666,-78.0881 442.343,-77.1722 450.82,-76.2774"/>
<polygon fill="midnightblue" stroke="midnightblue" points="424.701,-75.5148 415.124,-80.0452 425.436,-82.4761 424.701,-75.5148"/>
</g>
<!-- Node152 -->
<g id="node7" class="node"><title>Node152</title>
<g id="a_node7"><a xlink:href="struct_json_1_1_built_styled_stream_writer.html#a2ecffc3d66c4feddf208e5cd3b1c0f18" target="_top" xlink:title="Json::BuiltStyledStreamWriter\l::write">
<polygon fill="none" stroke="black" points="636,-106.5 636,-136.5 785,-136.5 785,-106.5 636,-106.5"/>
<text text-anchor="start" x="644" y="-124.5" font-family="Helvetica,sans-Serif" font-size="10.00">Json::BuiltStyledStreamWriter</text>
<text text-anchor="middle" x="710.5" y="-113.5" font-family="Helvetica,sans-Serif" font-size="10.00">::write</text>
</a>
</g>
</g>
<!-- Node151&#45;&gt;Node152 -->
<g id="edge6" class="edge"><title>Node151&#45;&gt;Node152</title>
<path fill="none" stroke="midnightblue" d="M588.231,-86.3783C610.704,-92.8868 635.865,-100.174 657.419,-106.416"/>
<polygon fill="midnightblue" stroke="midnightblue" points="589.03,-82.966 578.451,-83.5459 587.083,-89.6897 589.03,-82.966"/>
</g>
<!-- Node153 -->
<g id="node8" class="node"><title>Node153</title>
<g id="a_node8"><a xlink:href="struct_json_1_1_built_styled_stream_writer.html#acd20e9274bbcf7876ef3af2e7d23a31f" target="_top" xlink:title="Json::BuiltStyledStreamWriter\l::writeArrayValue">
<polygon fill="none" stroke="black" points="821,-53.5 821,-83.5 970,-83.5 970,-53.5 821,-53.5"/>
<text text-anchor="start" x="829" y="-71.5" font-family="Helvetica,sans-Serif" font-size="10.00">Json::BuiltStyledStreamWriter</text>
<text text-anchor="middle" x="895.5" y="-60.5" font-family="Helvetica,sans-Serif" font-size="10.00">::writeArrayValue</text>
</a>
</g>
</g>
<!-- Node151&#45;&gt;Node153 -->
<g id="edge7" class="edge"><title>Node151&#45;&gt;Node153</title>
<path fill="none" stroke="midnightblue" d="M610.451,-62.7294C673.834,-61.348 759.975,-61.4279 820.727,-62.969"/>
<polygon fill="midnightblue" stroke="midnightblue" points="610.001,-59.239 600.086,-62.9737 610.166,-66.237 610.001,-59.239"/>
</g>
<!-- Node154 -->
<g id="node9" class="node"><title>Node154</title>
<g id="a_node9"><a xlink:href="struct_json_1_1_built_styled_stream_writer.html#af423fd33b3d580506ea3efc53b05a077" target="_top" xlink:title="Json::BuiltStyledStreamWriter\l::isMultineArray">
<polygon fill="none" stroke="black" points="636,-0.5 636,-30.5 785,-30.5 785,-0.5 636,-0.5"/>
<text text-anchor="start" x="644" y="-18.5" font-family="Helvetica,sans-Serif" font-size="10.00">Json::BuiltStyledStreamWriter</text>
<text text-anchor="middle" x="710.5" y="-7.5" font-family="Helvetica,sans-Serif" font-size="10.00">::isMultineArray</text>
</a>
</g>
</g>
<!-- Node151&#45;&gt;Node154 -->
<g id="edge9" class="edge"><title>Node151&#45;&gt;Node154</title>
<path fill="none" stroke="midnightblue" d="M588.231,-50.6217C610.704,-44.1132 635.865,-36.8259 657.419,-30.5835"/>
<polygon fill="midnightblue" stroke="midnightblue" points="587.083,-47.3103 578.451,-53.4541 589.03,-54.034 587.083,-47.3103"/>
</g>
<!-- Node153&#45;&gt;Node151 -->
<g id="edge8" class="edge"><title>Node153&#45;&gt;Node151</title>
<path fill="none" stroke="midnightblue" d="M810.353,-74.2748C746.924,-75.6532 660.785,-75.5704 600.086,-74.0263"/>
<polygon fill="midnightblue" stroke="midnightblue" points="810.812,-77.7651 820.727,-74.031 810.648,-70.767 810.812,-77.7651"/>
</g>
<!-- Node154&#45;&gt;Node153 -->
<g id="edge10" class="edge"><title>Node154&#45;&gt;Node153</title>
<path fill="none" stroke="midnightblue" d="M773.231,-33.3783C795.704,-39.8868 820.865,-47.1741 842.419,-53.4165"/>
<polygon fill="midnightblue" stroke="midnightblue" points="774.03,-29.966 763.451,-30.5459 772.083,-36.6897 774.03,-29.966"/>
</g>
</g>
</svg>
        <g id="navigator" transform="translate(0 0)" fill="#404254">
                <rect fill="#f2f5e9" fill-opacity="0.5" stroke="#606060" stroke-width=".5" x="0" y="0" width="60" height="60"/>
                <use id="zoomplus" xlink:href="#zoomPlus" x="17" y="9" onmousedown="handleZoom(evt,'in')"/>
                <use id="zoomminus" xlink:href="#zoomMin" x="42" y="9" onmousedown="handleZoom(evt,'out')"/>
                <use id="reset" xlink:href="#resetDef" x="30" y="36" onmousedown="handleReset()"/>
                <g id="arrowUp" xlink:href="#dirArrow" transform="translate(30 24)" onmousedown="handlePan(0,-1)">
                  <use xlink:href="#rim" fill="#404040">
                        <set attributeName="fill" to="#808080" begin="arrowUp.mouseover" end="arrowUp.mouseout"/>
                  </use>
                  <path fill="none" stroke="white" stroke-width="1.5" d="M0,-3.0v7 M-2.5,-0.5L0,-3.0L2.5,-0.5"/>
                </g>
                <g id="arrowRight" xlink:href="#dirArrow" transform="rotate(90) translate(36 -43)" onmousedown="handlePan(1,0)">
                  <use xlink:href="#rim" fill="#404040">
                        <set attributeName="fill" to="#808080" begin="arrowRight.mouseover" end="arrowRight.mouseout"/>
                  </use>
                  <path fill="none" stroke="white" stroke-width="1.5" d="M0,-3.0v7 M-2.5,-0.5L0,-3.0L2.5,-0.5"/>
                </g>
                <g id="arrowDown" xlink:href="#dirArrow" transform="rotate(180) translate(-30 -48)" onmousedown="handlePan(0,1)">
                  <use xlink:href="#rim" fill="#404040">
                        <set attributeName="fill" to="#808080" begin="arrowDown.mouseover" end="arrowDown.mouseout"/>
                  </use>
                  <path fill="none" stroke="white" stroke-width="1.5" d="M0,-3.0v7 M-2.5,-0.5L0,-3.0L2.5,-0.5"/>
                </g>
                <g id="arrowLeft" xlink:href="#dirArrow" transform="rotate(270) translate(-36 17)" onmousedown="handlePan(-1,0)">
                  <use xlink:href="#rim" fill="#404040">
                        <set attributeName="fill" to="#808080" begin="arrowLeft.mouseover" end="arrowLeft.mouseout"/>
                  </use>
                  <path fill="none" stroke="white" stroke-width="1.5" d="M0,-3.0v7 M-2.5,-0.5L0,-3.0L2.5,-0.5"/>
                </g>
        </g>
        <svg viewBox="0 0 15 15" width="100%" height="30px" preserveAspectRatio="xMaxYMin meet">
         <g id="arrow_out" transform="scale(0.3 0.3)">
          <a xlink:href="namespace_json_ac1ffd21a9e55122014353c773ccc496e_icgraph_org.svg" target="_base">
           <rect id="button" ry="5" rx="5" y="6" x="6" height="38" width="38"
                fill="#f2f5e9" fill-opacity="0.5" stroke="#606060" stroke-width="1.0"/>
           <path id="arrow"
             d="M 11.500037,31.436501 C 11.940474,20.09759 22.043105,11.32322 32.158766,21.979434 L 37.068811,17.246167 C 37.068811,17.246167 37.088388,32 37.088388,32 L 22.160133,31.978069 C 22.160133,31.978069 26.997745,27.140456 26.997745,27.140456 C 18.528582,18.264221 13.291696,25.230495 11.500037,31.436501 z"
             style="fill:#404040;"/>
          </a>
         </g>
        </svg>
</svg>
