<?xml version="1.0" encoding="UTF-8" standalone="no"?>
<!DOCTYPE svg PUBLIC "-//W3C//DTD SVG 1.1//EN"
 "http://www.w3.org/Graphics/SVG/1.1/DTD/svg11.dtd">
<!-- Generated by graphviz version 2.38.0 (20140413.2041)
 -->
<!-- Title: Json::throwRuntimeError Pages: 1 -->
<!--zoomable 481 -->
<svg id="main" version="1.1" xmlns="http://www.w3.org/2000/svg" xmlns:xlink="http://www.w3.org/1999/xlink" xml:space="preserve" onload="init(evt)">
<style type="text/css"><![CDATA[
.edge:hover path { stroke: red; }
.edge:hover polygon { stroke: red; fill: red; }
]]></style>
<script type="text/javascript"><![CDATA[
var edges = document.getElementsByTagName('g');
if (edges && edges.length) {
  for (var i=0;i<edges.length;i++) {
    if (edges[i].id.substr(0,4)=='edge') {
      edges[i].setAttribute('class','edge');
    }
  }
}
]]></script>
        <defs>
                <circle id="rim" cx="0" cy="0" r="7"/>
                <circle id="rim2" cx="0" cy="0" r="3.5"/>
                <g id="zoomPlus">
                        <use xlink:href="#rim" fill="#404040">
                                <set attributeName="fill" to="#808080" begin="zoomplus.mouseover" end="zoomplus.mouseout"/>
                        </use>
                        <path d="M-4,0h8M0,-4v8" fill="none" stroke="white" stroke-width="1.5" pointer-events="none"/>
                </g>
                <g id="zoomMin">
                        <use xlink:href="#rim" fill="#404040">
                                <set attributeName="fill" to="#808080" begin="zoomminus.mouseover" end="zoomminus.mouseout"/>
                        </use>
                        <path d="M-4,0h8" fill="none" stroke="white" stroke-width="1.5" pointer-events="none"/>
                </g>
                <g id="dirArrow">
                        <path fill="none" stroke="white" stroke-width="1.5" d="M0,-3.0v7 M-2.5,-0.5L0,-3.0L2.5,-0.5"/>
                </g>
               <g id="resetDef">
                       <use xlink:href="#rim2" fill="#404040">
                               <set attributeName="fill" to="#808080" begin="reset.mouseover" end="reset.mouseout"/>
                       </use>
               </g>
        </defs>

<script type="text/javascript">
var viewWidth = 1404;
var viewHeight = 481;
var sectionId = 'dynsection-22';
</script>
<script xlink:href="svgpan.js"/>
<svg id="graph" class="graph">
<g id="viewport">
<title>Json::throwRuntimeError</title>
<!-- Node124 -->
<g id="node1" class="node"><title>Node124</title>
<polygon fill="#bfbfbf" stroke="black" points="0,-138 0,-157 125,-157 125,-138 0,-138"/>
<text text-anchor="middle" x="62.5" y="-145" font-family="Helvetica,sans-Serif" font-size="10.00">Json::throwRuntimeError</text>
</g>
<!-- Node125 -->
<g id="node2" class="node"><title>Node125</title>
<g id="a_node2"><a xlink:href="namespace_json.html#a4d6ab0f651348832e5cc49b577a854d2" target="_top" xlink:title="Json::containsNewLine">
<polygon fill="none" stroke="black" points="176,-226 176,-245 295,-245 295,-226 176,-226"/>
<text text-anchor="middle" x="235.5" y="-233" font-family="Helvetica,sans-Serif" font-size="10.00">Json::containsNewLine</text>
</a>
</g>
</g>
<!-- Node124&#45;&gt;Node125 -->
<g id="edge1" class="edge"><title>Node124&#45;&gt;Node125</title>
<path fill="none" stroke="midnightblue" d="M89.9388,-161.918C109.478,-172.496 136.781,-187.115 161,-199.5 178.964,-208.686 199.614,-218.758 214.442,-225.906"/>
<polygon fill="midnightblue" stroke="midnightblue" points="91.4765,-158.771 81.0178,-157.077 88.1379,-164.923 91.4765,-158.771"/>
</g>
<!-- Node131 -->
<g id="node8" class="node"><title>Node131</title>
<g id="a_node8"><a xlink:href="class_json_1_1_our_reader.html#a1765d9670d191c89a57a22ea5591d35f" target="_top" xlink:title="Json::OurReader::readValue">
<polygon fill="none" stroke="black" points="923.5,-223 923.5,-242 1063.5,-242 1063.5,-223 923.5,-223"/>
<text text-anchor="middle" x="993.5" y="-230" font-family="Helvetica,sans-Serif" font-size="10.00">Json::OurReader::readValue</text>
</a>
</g>
</g>
<!-- Node124&#45;&gt;Node131 -->
<g id="edge21" class="edge"><title>Node124&#45;&gt;Node131</title>
<path fill="none" stroke="midnightblue" d="M116.7,-159.069C131.026,-161.855 146.556,-164.578 161,-166.5 277.17,-181.958 306.806,-185.5 424,-185.5 424,-185.5 424,-185.5 615.5,-185.5 734.688,-185.5 765.346,-185.437 883,-204.5 909.73,-208.831 939.461,-216.629 961.19,-222.898"/>
<polygon fill="midnightblue" stroke="midnightblue" points="117.005,-155.561 106.513,-157.04 115.637,-162.426 117.005,-155.561"/>
</g>
<!-- Node132 -->
<g id="node9" class="node"><title>Node132</title>
<g id="a_node9"><a xlink:href="class_json_1_1_our_reader.html#aea198f8101dba55099f4d8121a993530" target="_top" xlink:title="Json::OurReader::readObject">
<polygon fill="none" stroke="black" points="1104,-365 1104,-384 1248,-384 1248,-365 1104,-365"/>
<text text-anchor="middle" x="1176" y="-372" font-family="Helvetica,sans-Serif" font-size="10.00">Json::OurReader::readObject</text>
</a>
</g>
</g>
<!-- Node124&#45;&gt;Node132 -->
<g id="edge22" class="edge"><title>Node124&#45;&gt;Node132</title>
<path fill="none" stroke="midnightblue" d="M72.6867,-166.575C107.688,-236.187 240.053,-472.5 424,-472.5 424,-472.5 424,-472.5 805,-472.5 942.222,-472.5 1098.81,-408.734 1154.24,-384.075"/>
<polygon fill="midnightblue" stroke="midnightblue" points="75.637,-164.644 68.0722,-157.227 69.3601,-167.743 75.637,-164.644"/>
</g>
<!-- Node136 -->
<g id="node13" class="node"><title>Node136</title>
<g id="a_node13"><a xlink:href="namespace_json.html#a2434499c0c7f057890b32787c05fc4a3" target="_top" xlink:title="Json::operator\&gt;\&gt;">
<polygon fill="none" stroke="black" points="190,-138 190,-157 281,-157 281,-138 190,-138"/>
<text text-anchor="middle" x="235.5" y="-145" font-family="Helvetica,sans-Serif" font-size="10.00">Json::operator&gt;&gt;</text>
</a>
</g>
</g>
<!-- Node124&#45;&gt;Node136 -->
<g id="edge23" class="edge"><title>Node124&#45;&gt;Node136</title>
<path fill="none" stroke="midnightblue" d="M135.369,-147.5C153.813,-147.5 173.125,-147.5 189.753,-147.5"/>
<polygon fill="midnightblue" stroke="midnightblue" points="135.235,-144 125.235,-147.5 135.235,-151 135.235,-144"/>
</g>
<!-- Node137 -->
<g id="node14" class="node"><title>Node137</title>
<g id="a_node14"><a xlink:href="namespace_json.html#a678ac3a60cd70ec0fb4c9abfd40eb0c4" target="_top" xlink:title="Json::duplicateStringValue">
<polygon fill="none" stroke="black" points="169,-50 169,-69 302,-69 302,-50 169,-50"/>
<text text-anchor="middle" x="235.5" y="-57" font-family="Helvetica,sans-Serif" font-size="10.00">Json::duplicateStringValue</text>
</a>
</g>
</g>
<!-- Node124&#45;&gt;Node137 -->
<g id="edge24" class="edge"><title>Node124&#45;&gt;Node137</title>
<path fill="none" stroke="midnightblue" d="M82.1118,-131.175C100.839,-115.545 131.148,-92.3507 161,-78.5 169.13,-74.7279 178.127,-71.6192 186.956,-69.0875"/>
<polygon fill="midnightblue" stroke="midnightblue" points="79.7151,-128.619 74.3654,-137.764 84.2504,-133.951 79.7151,-128.619"/>
</g>
<!-- Node139 -->
<g id="node16" class="node"><title>Node139</title>
<g id="a_node16"><a xlink:href="namespace_json.html#a9795a09a0141d1f12d307c4386aeaee6" target="_top" xlink:title="Json::duplicateAndPrefix\lStringValue">
<polygon fill="none" stroke="black" points="173,-88.5 173,-118.5 298,-118.5 298,-88.5 173,-88.5"/>
<text text-anchor="start" x="181" y="-106.5" font-family="Helvetica,sans-Serif" font-size="10.00">Json::duplicateAndPrefix</text>
<text text-anchor="middle" x="235.5" y="-95.5" font-family="Helvetica,sans-Serif" font-size="10.00">StringValue</text>
</a>
</g>
</g>
<!-- Node124&#45;&gt;Node139 -->
<g id="edge26" class="edge"><title>Node124&#45;&gt;Node139</title>
<path fill="none" stroke="midnightblue" d="M110.515,-135.403C130.739,-130.199 154.594,-124.061 175.951,-118.565"/>
<polygon fill="midnightblue" stroke="midnightblue" points="109.417,-132.071 100.604,-137.953 111.161,-138.85 109.417,-132.071"/>
</g>
<!-- Node140 -->
<g id="node17" class="node"><title>Node140</title>
<g id="a_node17"><a xlink:href="struct_json_1_1_built_styled_stream_writer.html#a457c2f3c1e8c952caeb60e52477d0c9a" target="_top" xlink:title="Json::BuiltStyledStreamWriter\l::hasCommentForValue">
<polygon fill="none" stroke="black" points="161,-0.5 161,-30.5 310,-30.5 310,-0.5 161,-0.5"/>
<text text-anchor="start" x="169" y="-18.5" font-family="Helvetica,sans-Serif" font-size="10.00">Json::BuiltStyledStreamWriter</text>
<text text-anchor="middle" x="235.5" y="-7.5" font-family="Helvetica,sans-Serif" font-size="10.00">::hasCommentForValue</text>
</a>
</g>
</g>
<!-- Node124&#45;&gt;Node140 -->
<g id="edge28" class="edge"><title>Node124&#45;&gt;Node140</title>
<path fill="none" stroke="midnightblue" d="M75.6139,-129.297C92.2301,-105.654 124.251,-64.5686 161,-40.5 166.863,-36.66 173.377,-33.3485 180.035,-30.5092"/>
<polygon fill="midnightblue" stroke="midnightblue" points="72.6124,-127.485 69.8361,-137.71 78.3826,-131.448 72.6124,-127.485"/>
</g>
<!-- Node126 -->
<g id="node3" class="node"><title>Node126</title>
<g id="a_node3"><a xlink:href="class_json_1_1_our_reader.html#a90f6bb9e55b2bc3d6c1880809495c222" target="_top" xlink:title="Json::OurReader::readComment">
<polygon fill="none" stroke="black" points="346,-251 346,-270 504,-270 504,-251 346,-251"/>
<text text-anchor="middle" x="425" y="-258" font-family="Helvetica,sans-Serif" font-size="10.00">Json::OurReader::readComment</text>
</a>
</g>
</g>
<!-- Node125&#45;&gt;Node126 -->
<g id="edge2" class="edge"><title>Node125&#45;&gt;Node126</title>
<path fill="none" stroke="midnightblue" d="M305.084,-244.645C320.593,-246.712 337.094,-248.913 352.712,-250.995"/>
<polygon fill="midnightblue" stroke="midnightblue" points="305.43,-241.16 295.055,-243.307 304.505,-248.098 305.43,-241.16"/>
</g>
<!-- Node127 -->
<g id="node4" class="node"><title>Node127</title>
<g id="a_node4"><a xlink:href="class_json_1_1_our_reader.html#a0d1e66da47fe2e85f5033c59326dfdc3" target="_top" xlink:title="Json::OurReader::readToken">
<polygon fill="none" stroke="black" points="543,-264 543,-283 686,-283 686,-264 543,-264"/>
<text text-anchor="middle" x="614.5" y="-271" font-family="Helvetica,sans-Serif" font-size="10.00">Json::OurReader::readToken</text>
</a>
</g>
</g>
<!-- Node126&#45;&gt;Node127 -->
<g id="edge3" class="edge"><title>Node126&#45;&gt;Node127</title>
<path fill="none" stroke="midnightblue" d="M514.17,-266.613C523.821,-267.282 533.55,-267.957 542.948,-268.608"/>
<polygon fill="midnightblue" stroke="midnightblue" points="514.377,-263.119 504.159,-265.919 513.893,-270.102 514.377,-263.119"/>
</g>
<!-- Node128 -->
<g id="node5" class="node"><title>Node128</title>
<g id="a_node5"><a xlink:href="class_json_1_1_our_reader.html#a856dea44d92578c276856d7a65a4ebdc" target="_top" xlink:title="Json::OurReader::skipComment\lTokens">
<polygon fill="none" stroke="black" points="725,-214.5 725,-244.5 883,-244.5 883,-214.5 725,-214.5"/>
<text text-anchor="start" x="733" y="-232.5" font-family="Helvetica,sans-Serif" font-size="10.00">Json::OurReader::skipComment</text>
<text text-anchor="middle" x="804" y="-221.5" font-family="Helvetica,sans-Serif" font-size="10.00">Tokens</text>
</a>
</g>
</g>
<!-- Node127&#45;&gt;Node128 -->
<g id="edge4" class="edge"><title>Node127&#45;&gt;Node128</title>
<path fill="none" stroke="midnightblue" d="M666.142,-261.616C688.51,-256.367 715.063,-250.136 738.801,-244.565"/>
<polygon fill="midnightblue" stroke="midnightblue" points="665.121,-258.261 656.185,-263.953 666.72,-265.075 665.121,-258.261"/>
</g>
<!-- Node127&#45;&gt;Node132 -->
<g id="edge13" class="edge"><title>Node127&#45;&gt;Node132</title>
<path fill="none" stroke="midnightblue" d="M631.824,-290.304C651.874,-309.889 687.825,-341.708 725,-358.5 864.734,-421.62 915.39,-410.334 1068,-395.5 1090.8,-393.284 1115.95,-388.471 1136.14,-384.012"/>
<polygon fill="midnightblue" stroke="midnightblue" points="634.267,-287.797 624.714,-283.215 629.324,-292.754 634.267,-287.797"/>
</g>
<!-- Node133 -->
<g id="node10" class="node"><title>Node133</title>
<g id="a_node10"><a xlink:href="class_json_1_1_our_reader.html#a0b9f58faf4212c6ecb5d8e2a1ac10257" target="_top" xlink:title="Json::OurReader::readArray">
<polygon fill="none" stroke="black" points="1106.5,-261 1106.5,-280 1245.5,-280 1245.5,-261 1106.5,-261"/>
<text text-anchor="middle" x="1176" y="-268" font-family="Helvetica,sans-Serif" font-size="10.00">Json::OurReader::readArray</text>
</a>
</g>
</g>
<!-- Node127&#45;&gt;Node133 -->
<g id="edge14" class="edge"><title>Node127&#45;&gt;Node133</title>
<path fill="none" stroke="midnightblue" d="M696.158,-273.068C806.525,-272.476 1002.7,-271.424 1106.39,-270.868"/>
<polygon fill="midnightblue" stroke="midnightblue" points="696.059,-269.568 686.078,-273.122 696.096,-276.568 696.059,-269.568"/>
</g>
<!-- Node134 -->
<g id="node11" class="node"><title>Node134</title>
<g id="a_node11"><a xlink:href="class_json_1_1_our_reader.html#a035651f0700a76a815e5f904c63ebb1c" target="_top" xlink:title="Json::OurReader::recover\lFromError">
<polygon fill="none" stroke="black" points="739.5,-318.5 739.5,-348.5 868.5,-348.5 868.5,-318.5 739.5,-318.5"/>
<text text-anchor="start" x="747.5" y="-336.5" font-family="Helvetica,sans-Serif" font-size="10.00">Json::OurReader::recover</text>
<text text-anchor="middle" x="804" y="-325.5" font-family="Helvetica,sans-Serif" font-size="10.00">FromError</text>
</a>
</g>
</g>
<!-- Node127&#45;&gt;Node134 -->
<g id="edge15" class="edge"><title>Node127&#45;&gt;Node134</title>
<path fill="none" stroke="midnightblue" d="M654.751,-286.06C684.217,-295.489 724.686,-308.439 755.898,-318.427"/>
<polygon fill="midnightblue" stroke="midnightblue" points="655.801,-282.722 645.21,-283.007 653.667,-289.388 655.801,-282.722"/>
</g>
<!-- Node129 -->
<g id="node6" class="node"><title>Node129</title>
<g id="a_node6"><a xlink:href="class_json_1_1_our_reader.html#aba4f8749aab7f02ec17f107e392caf80" target="_top" xlink:title="Json::OurReader::parse">
<polygon fill="none" stroke="black" points="1115.5,-204 1115.5,-223 1236.5,-223 1236.5,-204 1115.5,-204"/>
<text text-anchor="middle" x="1176" y="-211" font-family="Helvetica,sans-Serif" font-size="10.00">Json::OurReader::parse</text>
</a>
</g>
</g>
<!-- Node128&#45;&gt;Node129 -->
<g id="edge5" class="edge"><title>Node128&#45;&gt;Node129</title>
<path fill="none" stroke="midnightblue" d="M893.218,-215.88C901.913,-214.91 910.617,-214.085 919,-213.5 986.17,-208.809 1063.5,-209.67 1115.43,-211.155"/>
<polygon fill="midnightblue" stroke="midnightblue" points="892.558,-212.433 883.036,-217.079 893.377,-219.385 892.558,-212.433"/>
</g>
<!-- Node128&#45;&gt;Node131 -->
<g id="edge7" class="edge"><title>Node128&#45;&gt;Node131</title>
<path fill="none" stroke="midnightblue" d="M893.246,-230.912C903.38,-231.074 913.599,-231.238 923.429,-231.395"/>
<polygon fill="midnightblue" stroke="midnightblue" points="893.214,-227.411 883.159,-230.751 893.102,-234.41 893.214,-227.411"/>
</g>
<!-- Node130 -->
<g id="node7" class="node"><title>Node130</title>
<g id="a_node7"><a xlink:href="class_json_1_1_our_char_reader.html#a52a1fb5fee88d9b63dd462f63b1c9570" target="_top" xlink:title="Json::OurCharReader\l::parse">
<polygon fill="none" stroke="black" points="1284,-198.5 1284,-228.5 1396,-228.5 1396,-198.5 1284,-198.5"/>
<text text-anchor="start" x="1292" y="-216.5" font-family="Helvetica,sans-Serif" font-size="10.00">Json::OurCharReader</text>
<text text-anchor="middle" x="1340" y="-205.5" font-family="Helvetica,sans-Serif" font-size="10.00">::parse</text>
</a>
</g>
</g>
<!-- Node129&#45;&gt;Node130 -->
<g id="edge6" class="edge"><title>Node129&#45;&gt;Node130</title>
<path fill="none" stroke="midnightblue" d="M1247.11,-213.5C1259.43,-213.5 1272.1,-213.5 1283.94,-213.5"/>
<polygon fill="midnightblue" stroke="midnightblue" points="1246.86,-210 1236.86,-213.5 1246.86,-217 1246.86,-210"/>
</g>
<!-- Node131&#45;&gt;Node129 -->
<g id="edge8" class="edge"><title>Node131&#45;&gt;Node129</title>
<path fill="none" stroke="midnightblue" d="M1073.65,-224.169C1087.68,-222.692 1102.08,-221.176 1115.45,-219.768"/>
<polygon fill="midnightblue" stroke="midnightblue" points="1073.09,-220.708 1063.51,-225.236 1073.82,-227.669 1073.09,-220.708"/>
</g>
<!-- Node131&#45;&gt;Node132 -->
<g id="edge9" class="edge"><title>Node131&#45;&gt;Node132</title>
<path fill="none" stroke="midnightblue" d="M1020.37,-247.954C1061.82,-277.583 1141.06,-340.537 1166.74,-364.965"/>
<polygon fill="midnightblue" stroke="midnightblue" points="1022.33,-245.05 1012.14,-242.163 1018.3,-250.777 1022.33,-245.05"/>
</g>
<!-- Node131&#45;&gt;Node133 -->
<g id="edge11" class="edge"><title>Node131&#45;&gt;Node133</title>
<path fill="none" stroke="midnightblue" d="M1073.5,-242.429C1101.97,-248.185 1131.96,-255.169 1151.9,-260.944"/>
<polygon fill="midnightblue" stroke="midnightblue" points="1074,-238.96 1063.51,-240.448 1072.64,-245.826 1074,-238.96"/>
</g>
<!-- Node132&#45;&gt;Node131 -->
<g id="edge10" class="edge"><title>Node132&#45;&gt;Node131</title>
<path fill="none" stroke="midnightblue" d="M1149.33,-359.189C1107.91,-329.606 1028.42,-266.446 1002.72,-242.002"/>
<polygon fill="midnightblue" stroke="midnightblue" points="1147.36,-362.082 1157.55,-364.965 1151.38,-356.354 1147.36,-362.082"/>
</g>
<!-- Node133&#45;&gt;Node131 -->
<g id="edge12" class="edge"><title>Node133&#45;&gt;Node131</title>
<path fill="none" stroke="midnightblue" d="M1096.35,-260.643C1067.83,-254.885 1037.74,-247.884 1017.73,-242.092"/>
<polygon fill="midnightblue" stroke="midnightblue" points="1095.87,-264.115 1106.36,-262.624 1097.23,-257.248 1095.87,-264.115"/>
</g>
<!-- Node134&#45;&gt;Node132 -->
<g id="edge16" class="edge"><title>Node134&#45;&gt;Node132</title>
<path fill="none" stroke="midnightblue" d="M844.203,-352.759C865.719,-362.26 893.202,-372.694 919,-377.5 980.611,-388.977 1052.01,-386.902 1103.73,-382.721"/>
<polygon fill="midnightblue" stroke="midnightblue" points="845.621,-349.559 835.067,-348.623 842.734,-355.936 845.621,-349.559"/>
</g>
<!-- Node134&#45;&gt;Node133 -->
<g id="edge17" class="edge"><title>Node134&#45;&gt;Node133</title>
<path fill="none" stroke="midnightblue" d="M878.797,-320.935C949.635,-308.873 1055.06,-290.922 1119.17,-280.006"/>
<polygon fill="midnightblue" stroke="midnightblue" points="877.876,-317.541 868.605,-322.67 879.051,-324.442 877.876,-317.541"/>
</g>
<!-- Node135 -->
<g id="node12" class="node"><title>Node135</title>
<g id="a_node12"><a xlink:href="class_json_1_1_our_reader.html#ae68a7047acd692be8077e259d524c6d9" target="_top" xlink:title="Json::OurReader::addError\lAndRecover">
<polygon fill="none" stroke="black" points="926.5,-337.5 926.5,-367.5 1060.5,-367.5 1060.5,-337.5 926.5,-337.5"/>
<text text-anchor="start" x="934.5" y="-355.5" font-family="Helvetica,sans-Serif" font-size="10.00">Json::OurReader::addError</text>
<text text-anchor="middle" x="993.5" y="-344.5" font-family="Helvetica,sans-Serif" font-size="10.00">AndRecover</text>
</a>
</g>
</g>
<!-- Node134&#45;&gt;Node135 -->
<g id="edge18" class="edge"><title>Node134&#45;&gt;Node135</title>
<path fill="none" stroke="midnightblue" d="M878.906,-340.989C894.576,-342.577 911.02,-344.243 926.379,-345.8"/>
<polygon fill="midnightblue" stroke="midnightblue" points="879.043,-337.485 868.741,-339.959 878.337,-344.449 879.043,-337.485"/>
</g>
<!-- Node135&#45;&gt;Node132 -->
<g id="edge19" class="edge"><title>Node135&#45;&gt;Node132</title>
<path fill="none" stroke="midnightblue" d="M1070.71,-361.789C1081.73,-363.132 1093.04,-364.511 1103.96,-365.842"/>
<polygon fill="midnightblue" stroke="midnightblue" points="1071.04,-358.303 1060.69,-360.567 1070.19,-365.251 1071.04,-358.303"/>
</g>
<!-- Node135&#45;&gt;Node133 -->
<g id="edge20" class="edge"><title>Node135&#45;&gt;Node133</title>
<path fill="none" stroke="midnightblue" d="M1042.1,-333.598C1050.76,-330.01 1059.68,-326.214 1068,-322.5 1099.31,-308.521 1135,-290.807 1156.23,-280.079"/>
<polygon fill="midnightblue" stroke="midnightblue" points="1040.77,-330.361 1032.85,-337.396 1043.43,-336.837 1040.77,-330.361"/>
</g>
<!-- Node138 -->
<g id="node15" class="node"><title>Node138</title>
<g id="a_node15"><a xlink:href="namespace_json.html#a27613326e9e36bbfe04a905ac90caa91" target="_top" xlink:title="Json::throwLogicError">
<polygon fill="none" stroke="black" points="369,-72 369,-91 481,-91 481,-72 369,-72"/>
<text text-anchor="middle" x="425" y="-79" font-family="Helvetica,sans-Serif" font-size="10.00">Json::throwLogicError</text>
</a>
</g>
</g>
<!-- Node137&#45;&gt;Node138 -->
<g id="edge25" class="edge"><title>Node137&#45;&gt;Node138</title>
<path fill="none" stroke="midnightblue" d="M312.157,-68.3771C331.069,-70.5962 351.003,-72.935 368.718,-75.0136"/>
<polygon fill="midnightblue" stroke="midnightblue" points="312.418,-64.8838 302.078,-67.1945 311.602,-71.8361 312.418,-64.8838"/>
</g>
<!-- Node139&#45;&gt;Node138 -->
<g id="edge27" class="edge"><title>Node139&#45;&gt;Node138</title>
<path fill="none" stroke="midnightblue" d="M308.22,-95.0849C328.361,-92.7217 349.939,-90.1898 368.945,-87.9598"/>
<polygon fill="midnightblue" stroke="midnightblue" points="307.678,-91.6243 298.154,-96.2659 308.494,-98.5766 307.678,-91.6243"/>
</g>
<!-- Node141 -->
<g id="node18" class="node"><title>Node141</title>
<g id="a_node18"><a xlink:href="struct_json_1_1_built_styled_stream_writer.html#af423fd33b3d580506ea3efc53b05a077" target="_top" xlink:title="Json::BuiltStyledStreamWriter\l::isMultineArray">
<polygon fill="none" stroke="black" points="350.5,-0.5 350.5,-30.5 499.5,-30.5 499.5,-0.5 350.5,-0.5"/>
<text text-anchor="start" x="358.5" y="-18.5" font-family="Helvetica,sans-Serif" font-size="10.00">Json::BuiltStyledStreamWriter</text>
<text text-anchor="middle" x="425" y="-7.5" font-family="Helvetica,sans-Serif" font-size="10.00">::isMultineArray</text>
</a>
</g>
</g>
<!-- Node140&#45;&gt;Node141 -->
<g id="edge29" class="edge"><title>Node140&#45;&gt;Node141</title>
<path fill="none" stroke="midnightblue" d="M320.081,-15.5C330.166,-15.5 340.409,-15.5 350.338,-15.5"/>
<polygon fill="midnightblue" stroke="midnightblue" points="320.067,-12.0001 310.067,-15.5 320.067,-19.0001 320.067,-12.0001"/>
</g>
<!-- Node142 -->
<g id="node19" class="node"><title>Node142</title>
<g id="a_node19"><a xlink:href="struct_json_1_1_built_styled_stream_writer.html#acd20e9274bbcf7876ef3af2e7d23a31f" target="_top" xlink:title="Json::BuiltStyledStreamWriter\l::writeArrayValue">
<polygon fill="none" stroke="black" points="540,-22.5 540,-52.5 689,-52.5 689,-22.5 540,-22.5"/>
<text text-anchor="start" x="548" y="-40.5" font-family="Helvetica,sans-Serif" font-size="10.00">Json::BuiltStyledStreamWriter</text>
<text text-anchor="middle" x="614.5" y="-29.5" font-family="Helvetica,sans-Serif" font-size="10.00">::writeArrayValue</text>
</a>
</g>
</g>
<!-- Node141&#45;&gt;Node142 -->
<g id="edge30" class="edge"><title>Node141&#45;&gt;Node142</title>
<path fill="none" stroke="midnightblue" d="M509.581,-25.3068C519.666,-26.4901 529.909,-27.692 539.838,-28.8569"/>
<polygon fill="midnightblue" stroke="midnightblue" points="509.907,-21.8211 499.567,-24.1318 509.091,-28.7734 509.907,-21.8211"/>
</g>
<!-- Node143 -->
<g id="node20" class="node"><title>Node143</title>
<g id="a_node20"><a xlink:href="struct_json_1_1_built_styled_stream_writer.html#a7c9da861861e570a51b45f270c9ff150" target="_top" xlink:title="Json::BuiltStyledStreamWriter\l::writeValue">
<polygon fill="none" stroke="black" points="729.5,-22.5 729.5,-52.5 878.5,-52.5 878.5,-22.5 729.5,-22.5"/>
<text text-anchor="start" x="737.5" y="-40.5" font-family="Helvetica,sans-Serif" font-size="10.00">Json::BuiltStyledStreamWriter</text>
<text text-anchor="middle" x="804" y="-29.5" font-family="Helvetica,sans-Serif" font-size="10.00">::writeValue</text>
</a>
</g>
</g>
<!-- Node142&#45;&gt;Node143 -->
<g id="edge31" class="edge"><title>Node142&#45;&gt;Node143</title>
<path fill="none" stroke="midnightblue" d="M699.081,-30.7854C709.166,-30.7149 719.409,-30.7497 729.338,-30.8897"/>
<polygon fill="midnightblue" stroke="midnightblue" points="699.029,-27.2857 689.067,-30.891 699.103,-34.2853 699.029,-27.2857"/>
</g>
<!-- Node143&#45;&gt;Node141 -->
<g id="edge34" class="edge"><title>Node143&#45;&gt;Node141</title>
<path fill="none" stroke="midnightblue" d="M736.057,-20.2992C720.7,-17.0582 704.368,-14.1653 689,-12.5 625.331,-5.6007 552.487,-7.16141 499.631,-9.98323"/>
<polygon fill="midnightblue" stroke="midnightblue" points="735.472,-23.7538 745.989,-22.4698 736.967,-16.9152 735.472,-23.7538"/>
</g>
<!-- Node143&#45;&gt;Node142 -->
<g id="edge33" class="edge"><title>Node143&#45;&gt;Node142</title>
<path fill="none" stroke="midnightblue" d="M719.322,-44.2153C709.236,-44.2851 698.993,-44.2497 689.067,-44.109"/>
<polygon fill="midnightblue" stroke="midnightblue" points="719.375,-47.715 729.338,-44.1103 719.301,-40.7154 719.375,-47.715"/>
</g>
<!-- Node144 -->
<g id="node21" class="node"><title>Node144</title>
<g id="a_node21"><a xlink:href="struct_json_1_1_built_styled_stream_writer.html#a2ecffc3d66c4feddf208e5cd3b1c0f18" target="_top" xlink:title="Json::BuiltStyledStreamWriter\l::write">
<polygon fill="none" stroke="black" points="919,-22.5 919,-52.5 1068,-52.5 1068,-22.5 919,-22.5"/>
<text text-anchor="start" x="927" y="-40.5" font-family="Helvetica,sans-Serif" font-size="10.00">Json::BuiltStyledStreamWriter</text>
<text text-anchor="middle" x="993.5" y="-29.5" font-family="Helvetica,sans-Serif" font-size="10.00">::write</text>
</a>
</g>
</g>
<!-- Node143&#45;&gt;Node144 -->
<g id="edge32" class="edge"><title>Node143&#45;&gt;Node144</title>
<path fill="none" stroke="midnightblue" d="M888.581,-37.5C898.666,-37.5 908.909,-37.5 918.838,-37.5"/>
<polygon fill="midnightblue" stroke="midnightblue" points="888.567,-34.0001 878.567,-37.5 888.567,-41.0001 888.567,-34.0001"/>
</g>
</g>
</svg>
        <g id="navigator" transform="translate(0 0)" fill="#404254">
                <rect fill="#f2f5e9" fill-opacity="0.5" stroke="#606060" stroke-width=".5" x="0" y="0" width="60" height="60"/>
                <use id="zoomplus" xlink:href="#zoomPlus" x="17" y="9" onmousedown="handleZoom(evt,'in')"/>
                <use id="zoomminus" xlink:href="#zoomMin" x="42" y="9" onmousedown="handleZoom(evt,'out')"/>
                <use id="reset" xlink:href="#resetDef" x="30" y="36" onmousedown="handleReset()"/>
                <g id="arrowUp" xlink:href="#dirArrow" transform="translate(30 24)" onmousedown="handlePan(0,-1)">
                  <use xlink:href="#rim" fill="#404040">
                        <set attributeName="fill" to="#808080" begin="arrowUp.mouseover" end="arrowUp.mouseout"/>
                  </use>
                  <path fill="none" stroke="white" stroke-width="1.5" d="M0,-3.0v7 M-2.5,-0.5L0,-3.0L2.5,-0.5"/>
                </g>
                <g id="arrowRight" xlink:href="#dirArrow" transform="rotate(90) translate(36 -43)" onmousedown="handlePan(1,0)">
                  <use xlink:href="#rim" fill="#404040">
                        <set attributeName="fill" to="#808080" begin="arrowRight.mouseover" end="arrowRight.mouseout"/>
                  </use>
                  <path fill="none" stroke="white" stroke-width="1.5" d="M0,-3.0v7 M-2.5,-0.5L0,-3.0L2.5,-0.5"/>
                </g>
                <g id="arrowDown" xlink:href="#dirArrow" transform="rotate(180) translate(-30 -48)" onmousedown="handlePan(0,1)">
                  <use xlink:href="#rim" fill="#404040">
                        <set attributeName="fill" to="#808080" begin="arrowDown.mouseover" end="arrowDown.mouseout"/>
                  </use>
                  <path fill="none" stroke="white" stroke-width="1.5" d="M0,-3.0v7 M-2.5,-0.5L0,-3.0L2.5,-0.5"/>
                </g>
                <g id="arrowLeft" xlink:href="#dirArrow" transform="rotate(270) translate(-36 17)" onmousedown="handlePan(-1,0)">
                  <use xlink:href="#rim" fill="#404040">
                        <set attributeName="fill" to="#808080" begin="arrowLeft.mouseover" end="arrowLeft.mouseout"/>
                  </use>
                  <path fill="none" stroke="white" stroke-width="1.5" d="M0,-3.0v7 M-2.5,-0.5L0,-3.0L2.5,-0.5"/>
                </g>
        </g>
        <svg viewBox="0 0 15 15" width="100%" height="30px" preserveAspectRatio="xMaxYMin meet">
         <g id="arrow_out" transform="scale(0.3 0.3)">
          <a xlink:href="namespace_json_a97f039a107b3f6cf1c3edee50e978f76_icgraph_org.svg" target="_base">
           <rect id="button" ry="5" rx="5" y="6" x="6" height="38" width="38"
                fill="#f2f5e9" fill-opacity="0.5" stroke="#606060" stroke-width="1.0"/>
           <path id="arrow"
             d="M 11.500037,31.436501 C 11.940474,20.09759 22.043105,11.32322 32.158766,21.979434 L 37.068811,17.246167 C 37.068811,17.246167 37.088388,32 37.088388,32 L 22.160133,31.978069 C 22.160133,31.978069 26.997745,27.140456 26.997745,27.140456 C 18.528582,18.264221 13.291696,25.230495 11.500037,31.436501 z"
             style="fill:#404040;"/>
          </a>
         </g>
        </svg>
</svg>
