<?xml version="1.0" encoding="UTF-8" standalone="no"?>
<!DOCTYPE svg PUBLIC "-//W3C//DTD SVG 1.1//EN"
 "http://www.w3.org/Graphics/SVG/1.1/DTD/svg11.dtd">
<!-- Generated by graphviz version 2.38.0 (20140413.2041)
 -->
<!-- Title: Json::containsControlCharacter0 Pages: 1 -->
<!--zoomable 145 -->
<svg id="main" version="1.1" xmlns="http://www.w3.org/2000/svg" xmlns:xlink="http://www.w3.org/1999/xlink" xml:space="preserve" onload="init(evt)">
<style type="text/css"><![CDATA[
.edge:hover path { stroke: red; }
.edge:hover polygon { stroke: red; fill: red; }
]]></style>
<script type="text/javascript"><![CDATA[
var edges = document.getElementsByTagName('g');
if (edges && edges.length) {
  for (var i=0;i<edges.length;i++) {
    if (edges[i].id.substr(0,4)=='edge') {
      edges[i].setAttribute('class','edge');
    }
  }
}
]]></script>
        <defs>
                <circle id="rim" cx="0" cy="0" r="7"/>
                <circle id="rim2" cx="0" cy="0" r="3.5"/>
                <g id="zoomPlus">
                        <use xlink:href="#rim" fill="#404040">
                                <set attributeName="fill" to="#808080" begin="zoomplus.mouseover" end="zoomplus.mouseout"/>
                        </use>
                        <path d="M-4,0h8M0,-4v8" fill="none" stroke="white" stroke-width="1.5" pointer-events="none"/>
                </g>
                <g id="zoomMin">
                        <use xlink:href="#rim" fill="#404040">
                                <set attributeName="fill" to="#808080" begin="zoomminus.mouseover" end="zoomminus.mouseout"/>
                        </use>
                        <path d="M-4,0h8" fill="none" stroke="white" stroke-width="1.5" pointer-events="none"/>
                </g>
                <g id="dirArrow">
                        <path fill="none" stroke="white" stroke-width="1.5" d="M0,-3.0v7 M-2.5,-0.5L0,-3.0L2.5,-0.5"/>
                </g>
               <g id="resetDef">
                       <use xlink:href="#rim2" fill="#404040">
                               <set attributeName="fill" to="#808080" begin="reset.mouseover" end="reset.mouseout"/>
                       </use>
               </g>
        </defs>

<script type="text/javascript">
var viewWidth = 902;
var viewHeight = 145;
var sectionId = 'dynsection-4';
</script>
<script xlink:href="svgpan.js"/>
<svg id="graph" class="graph">
<g id="viewport">
<title>Json::containsControlCharacter0</title>
<!-- Node28 -->
<g id="node1" class="node"><title>Node28</title>
<polygon fill="#bfbfbf" stroke="black" points="0,-59 0,-78 160,-78 160,-59 0,-59"/>
<text text-anchor="middle" x="80" y="-66" font-family="Helvetica,sans-Serif" font-size="10.00">Json::containsControlCharacter0</text>
</g>
<!-- Node29 -->
<g id="node2" class="node"><title>Node29</title>
<g id="a_node2"><a xlink:href="namespace_json.html#a20d52b5a457ee5d833645d119451c2cd" target="_top" xlink:title="Json::valueToQuotedStringN">
<polygon fill="none" stroke="black" points="196,-59 196,-78 339,-78 339,-59 196,-59"/>
<text text-anchor="middle" x="267.5" y="-66" font-family="Helvetica,sans-Serif" font-size="10.00">Json::valueToQuotedStringN</text>
</a>
</g>
</g>
<!-- Node28&#45;&gt;Node29 -->
<g id="edge1" class="edge"><title>Node28&#45;&gt;Node29</title>
<path fill="none" stroke="midnightblue" d="M170.231,-68.5C178.8,-68.5 187.41,-68.5 195.767,-68.5"/>
<polygon fill="midnightblue" stroke="midnightblue" points="170.207,-65.0001 160.207,-68.5 170.207,-72.0001 170.207,-65.0001"/>
</g>
<!-- Node30 -->
<g id="node3" class="node"><title>Node30</title>
<g id="a_node3"><a xlink:href="struct_json_1_1_built_styled_stream_writer.html#a7c9da861861e570a51b45f270c9ff150" target="_top" xlink:title="Json::BuiltStyledStreamWriter\l::writeValue">
<polygon fill="none" stroke="black" points="375,-53.5 375,-83.5 524,-83.5 524,-53.5 375,-53.5"/>
<text text-anchor="start" x="383" y="-71.5" font-family="Helvetica,sans-Serif" font-size="10.00">Json::BuiltStyledStreamWriter</text>
<text text-anchor="middle" x="449.5" y="-60.5" font-family="Helvetica,sans-Serif" font-size="10.00">::writeValue</text>
</a>
</g>
</g>
<!-- Node29&#45;&gt;Node30 -->
<g id="edge2" class="edge"><title>Node29&#45;&gt;Node30</title>
<path fill="none" stroke="midnightblue" d="M349.383,-68.5C357.854,-68.5 366.435,-68.5 374.82,-68.5"/>
<polygon fill="midnightblue" stroke="midnightblue" points="349.124,-65.0001 339.124,-68.5 349.124,-72.0001 349.124,-65.0001"/>
</g>
<!-- Node31 -->
<g id="node4" class="node"><title>Node31</title>
<g id="a_node4"><a xlink:href="struct_json_1_1_built_styled_stream_writer.html#a2ecffc3d66c4feddf208e5cd3b1c0f18" target="_top" xlink:title="Json::BuiltStyledStreamWriter\l::write">
<polygon fill="none" stroke="black" points="560,-106.5 560,-136.5 709,-136.5 709,-106.5 560,-106.5"/>
<text text-anchor="start" x="568" y="-124.5" font-family="Helvetica,sans-Serif" font-size="10.00">Json::BuiltStyledStreamWriter</text>
<text text-anchor="middle" x="634.5" y="-113.5" font-family="Helvetica,sans-Serif" font-size="10.00">::write</text>
</a>
</g>
</g>
<!-- Node30&#45;&gt;Node31 -->
<g id="edge3" class="edge"><title>Node30&#45;&gt;Node31</title>
<path fill="none" stroke="midnightblue" d="M512.231,-86.3783C534.704,-92.8868 559.865,-100.174 581.419,-106.416"/>
<polygon fill="midnightblue" stroke="midnightblue" points="513.03,-82.966 502.451,-83.5459 511.083,-89.6897 513.03,-82.966"/>
</g>
<!-- Node32 -->
<g id="node5" class="node"><title>Node32</title>
<g id="a_node5"><a xlink:href="struct_json_1_1_built_styled_stream_writer.html#acd20e9274bbcf7876ef3af2e7d23a31f" target="_top" xlink:title="Json::BuiltStyledStreamWriter\l::writeArrayValue">
<polygon fill="none" stroke="black" points="745,-53.5 745,-83.5 894,-83.5 894,-53.5 745,-53.5"/>
<text text-anchor="start" x="753" y="-71.5" font-family="Helvetica,sans-Serif" font-size="10.00">Json::BuiltStyledStreamWriter</text>
<text text-anchor="middle" x="819.5" y="-60.5" font-family="Helvetica,sans-Serif" font-size="10.00">::writeArrayValue</text>
</a>
</g>
</g>
<!-- Node30&#45;&gt;Node32 -->
<g id="edge4" class="edge"><title>Node30&#45;&gt;Node32</title>
<path fill="none" stroke="midnightblue" d="M534.451,-62.7294C597.834,-61.348 683.975,-61.4279 744.727,-62.969"/>
<polygon fill="midnightblue" stroke="midnightblue" points="534.001,-59.239 524.086,-62.9737 534.166,-66.237 534.001,-59.239"/>
</g>
<!-- Node33 -->
<g id="node6" class="node"><title>Node33</title>
<g id="a_node6"><a xlink:href="struct_json_1_1_built_styled_stream_writer.html#af423fd33b3d580506ea3efc53b05a077" target="_top" xlink:title="Json::BuiltStyledStreamWriter\l::isMultineArray">
<polygon fill="none" stroke="black" points="560,-0.5 560,-30.5 709,-30.5 709,-0.5 560,-0.5"/>
<text text-anchor="start" x="568" y="-18.5" font-family="Helvetica,sans-Serif" font-size="10.00">Json::BuiltStyledStreamWriter</text>
<text text-anchor="middle" x="634.5" y="-7.5" font-family="Helvetica,sans-Serif" font-size="10.00">::isMultineArray</text>
</a>
</g>
</g>
<!-- Node30&#45;&gt;Node33 -->
<g id="edge6" class="edge"><title>Node30&#45;&gt;Node33</title>
<path fill="none" stroke="midnightblue" d="M512.231,-50.6217C534.704,-44.1132 559.865,-36.8259 581.419,-30.5835"/>
<polygon fill="midnightblue" stroke="midnightblue" points="511.083,-47.3103 502.451,-53.4541 513.03,-54.034 511.083,-47.3103"/>
</g>
<!-- Node32&#45;&gt;Node30 -->
<g id="edge5" class="edge"><title>Node32&#45;&gt;Node30</title>
<path fill="none" stroke="midnightblue" d="M734.353,-74.2748C670.924,-75.6532 584.785,-75.5704 524.086,-74.0263"/>
<polygon fill="midnightblue" stroke="midnightblue" points="734.812,-77.7651 744.727,-74.031 734.648,-70.767 734.812,-77.7651"/>
</g>
<!-- Node33&#45;&gt;Node32 -->
<g id="edge7" class="edge"><title>Node33&#45;&gt;Node32</title>
<path fill="none" stroke="midnightblue" d="M697.231,-33.3783C719.704,-39.8868 744.865,-47.1741 766.419,-53.4165"/>
<polygon fill="midnightblue" stroke="midnightblue" points="698.03,-29.966 687.451,-30.5459 696.083,-36.6897 698.03,-29.966"/>
</g>
</g>
</svg>
        <g id="navigator" transform="translate(0 0)" fill="#404254">
                <rect fill="#f2f5e9" fill-opacity="0.5" stroke="#606060" stroke-width=".5" x="0" y="0" width="60" height="60"/>
                <use id="zoomplus" xlink:href="#zoomPlus" x="17" y="9" onmousedown="handleZoom(evt,'in')"/>
                <use id="zoomminus" xlink:href="#zoomMin" x="42" y="9" onmousedown="handleZoom(evt,'out')"/>
                <use id="reset" xlink:href="#resetDef" x="30" y="36" onmousedown="handleReset()"/>
                <g id="arrowUp" xlink:href="#dirArrow" transform="translate(30 24)" onmousedown="handlePan(0,-1)">
                  <use xlink:href="#rim" fill="#404040">
                        <set attributeName="fill" to="#808080" begin="arrowUp.mouseover" end="arrowUp.mouseout"/>
                  </use>
                  <path fill="none" stroke="white" stroke-width="1.5" d="M0,-3.0v7 M-2.5,-0.5L0,-3.0L2.5,-0.5"/>
                </g>
                <g id="arrowRight" xlink:href="#dirArrow" transform="rotate(90) translate(36 -43)" onmousedown="handlePan(1,0)">
                  <use xlink:href="#rim" fill="#404040">
                        <set attributeName="fill" to="#808080" begin="arrowRight.mouseover" end="arrowRight.mouseout"/>
                  </use>
                  <path fill="none" stroke="white" stroke-width="1.5" d="M0,-3.0v7 M-2.5,-0.5L0,-3.0L2.5,-0.5"/>
                </g>
                <g id="arrowDown" xlink:href="#dirArrow" transform="rotate(180) translate(-30 -48)" onmousedown="handlePan(0,1)">
                  <use xlink:href="#rim" fill="#404040">
                        <set attributeName="fill" to="#808080" begin="arrowDown.mouseover" end="arrowDown.mouseout"/>
                  </use>
                  <path fill="none" stroke="white" stroke-width="1.5" d="M0,-3.0v7 M-2.5,-0.5L0,-3.0L2.5,-0.5"/>
                </g>
                <g id="arrowLeft" xlink:href="#dirArrow" transform="rotate(270) translate(-36 17)" onmousedown="handlePan(-1,0)">
                  <use xlink:href="#rim" fill="#404040">
                        <set attributeName="fill" to="#808080" begin="arrowLeft.mouseover" end="arrowLeft.mouseout"/>
                  </use>
                  <path fill="none" stroke="white" stroke-width="1.5" d="M0,-3.0v7 M-2.5,-0.5L0,-3.0L2.5,-0.5"/>
                </g>
        </g>
        <svg viewBox="0 0 15 15" width="100%" height="30px" preserveAspectRatio="xMaxYMin meet">
         <g id="arrow_out" transform="scale(0.3 0.3)">
          <a xlink:href="namespace_json_ae8a357381f264cf28f46449e79ab1dea_icgraph_org.svg" target="_base">
           <rect id="button" ry="5" rx="5" y="6" x="6" height="38" width="38"
                fill="#f2f5e9" fill-opacity="0.5" stroke="#606060" stroke-width="1.0"/>
           <path id="arrow"
             d="M 11.500037,31.436501 C 11.940474,20.09759 22.043105,11.32322 32.158766,21.979434 L 37.068811,17.246167 C 37.068811,17.246167 37.088388,32 37.088388,32 L 22.160133,31.978069 C 22.160133,31.978069 26.997745,27.140456 26.997745,27.140456 C 18.528582,18.264221 13.291696,25.230495 11.500037,31.436501 z"
             style="fill:#404040;"/>
          </a>
         </g>
        </svg>
</svg>
