<?xml version="1.0" encoding="UTF-8" standalone="no"?>
<!DOCTYPE svg PUBLIC "-//W3C//DTD SVG 1.1//EN"
 "http://www.w3.org/Graphics/SVG/1.1/DTD/svg11.dtd">
<!-- Generated by graphviz version 2.38.0 (20140413.2041)
 -->
<!-- Title: Json::valueToString Pages: 1 -->
<!--zoomable 182 -->
<svg id="main" version="1.1" xmlns="http://www.w3.org/2000/svg" xmlns:xlink="http://www.w3.org/1999/xlink" xml:space="preserve" onload="init(evt)">
<style type="text/css"><![CDATA[
.edge:hover path { stroke: red; }
.edge:hover polygon { stroke: red; fill: red; }
]]></style>
<script type="text/javascript"><![CDATA[
var edges = document.getElementsByTagName('g');
if (edges && edges.length) {
  for (var i=0;i<edges.length;i++) {
    if (edges[i].id.substr(0,4)=='edge') {
      edges[i].setAttribute('class','edge');
    }
  }
}
]]></script>
        <defs>
                <circle id="rim" cx="0" cy="0" r="7"/>
                <circle id="rim2" cx="0" cy="0" r="3.5"/>
                <g id="zoomPlus">
                        <use xlink:href="#rim" fill="#404040">
                                <set attributeName="fill" to="#808080" begin="zoomplus.mouseover" end="zoomplus.mouseout"/>
                        </use>
                        <path d="M-4,0h8M0,-4v8" fill="none" stroke="white" stroke-width="1.5" pointer-events="none"/>
                </g>
                <g id="zoomMin">
                        <use xlink:href="#rim" fill="#404040">
                                <set attributeName="fill" to="#808080" begin="zoomminus.mouseover" end="zoomminus.mouseout"/>
                        </use>
                        <path d="M-4,0h8" fill="none" stroke="white" stroke-width="1.5" pointer-events="none"/>
                </g>
                <g id="dirArrow">
                        <path fill="none" stroke="white" stroke-width="1.5" d="M0,-3.0v7 M-2.5,-0.5L0,-3.0L2.5,-0.5"/>
                </g>
               <g id="resetDef">
                       <use xlink:href="#rim2" fill="#404040">
                               <set attributeName="fill" to="#808080" begin="reset.mouseover" end="reset.mouseout"/>
                       </use>
               </g>
        </defs>

<script type="text/javascript">
var viewWidth = 846;
var viewHeight = 182;
var sectionId = 'dynsection-29';
</script>
<script xlink:href="svgpan.js"/>
<svg id="graph" class="graph">
<g id="viewport">
<title>Json::valueToString</title>
<!-- Node179 -->
<g id="node1" class="node"><title>Node179</title>
<polygon fill="#bfbfbf" stroke="black" points="0,-97 0,-116 104,-116 104,-97 0,-97"/>
<text text-anchor="middle" x="52" y="-104" font-family="Helvetica,sans-Serif" font-size="10.00">Json::valueToString</text>
</g>
<!-- Node180 -->
<g id="node2" class="node"><title>Node180</title>
<g id="a_node2"><a xlink:href="namespace_json.html#a27613326e9e36bbfe04a905ac90caa91" target="_top" xlink:title="Json::throwLogicError">
<polygon fill="none" stroke="black" points="155.5,-154 155.5,-173 267.5,-173 267.5,-154 155.5,-154"/>
<text text-anchor="middle" x="211.5" y="-161" font-family="Helvetica,sans-Serif" font-size="10.00">Json::throwLogicError</text>
</a>
</g>
</g>
<!-- Node179&#45;&gt;Node180 -->
<g id="edge1" class="edge"><title>Node179&#45;&gt;Node180</title>
<path fill="none" stroke="midnightblue" d="M81.9393,-120.431C98.6618,-128.153 120.239,-137.565 140,-144.5 149.928,-147.984 160.829,-151.206 171.028,-153.97"/>
<polygon fill="midnightblue" stroke="midnightblue" points="83.2458,-117.178 72.7048,-116.111 80.2798,-123.519 83.2458,-117.178"/>
</g>
<!-- Node181 -->
<g id="node3" class="node"><title>Node181</title>
<g id="a_node3"><a xlink:href="namespace_json.html#a5d3eba6789f9a9c1ab563ff8b4a5090f" target="_top" xlink:title="Json::valueToString">
<polygon fill="none" stroke="black" points="159.5,-116 159.5,-135 263.5,-135 263.5,-116 159.5,-116"/>
<text text-anchor="middle" x="211.5" y="-123" font-family="Helvetica,sans-Serif" font-size="10.00">Json::valueToString</text>
</a>
</g>
</g>
<!-- Node179&#45;&gt;Node181 -->
<g id="edge2" class="edge"><title>Node179&#45;&gt;Node181</title>
<path fill="none" stroke="midnightblue" d="M114.286,-113.893C129.19,-115.691 144.974,-117.595 159.352,-119.33"/>
<polygon fill="midnightblue" stroke="midnightblue" points="114.483,-110.392 104.136,-112.669 113.645,-117.341 114.483,-110.392"/>
</g>
<!-- Node182 -->
<g id="node4" class="node"><title>Node182</title>
<g id="a_node4"><a xlink:href="namespace_json.html#a20d52b5a457ee5d833645d119451c2cd" target="_top" xlink:title="Json::valueToQuotedStringN">
<polygon fill="none" stroke="black" points="140,-78 140,-97 283,-97 283,-78 140,-78"/>
<text text-anchor="middle" x="211.5" y="-85" font-family="Helvetica,sans-Serif" font-size="10.00">Json::valueToQuotedStringN</text>
</a>
</g>
</g>
<!-- Node179&#45;&gt;Node182 -->
<g id="edge3" class="edge"><title>Node179&#45;&gt;Node182</title>
<path fill="none" stroke="midnightblue" d="M114.222,-99.1144C122.628,-98.1004 131.315,-97.0525 139.872,-96.0201"/>
<polygon fill="midnightblue" stroke="midnightblue" points="113.645,-95.6587 104.136,-100.331 114.483,-102.608 113.645,-95.6587"/>
</g>
<!-- Node183 -->
<g id="node5" class="node"><title>Node183</title>
<g id="a_node5"><a xlink:href="struct_json_1_1_built_styled_stream_writer.html#a7c9da861861e570a51b45f270c9ff150" target="_top" xlink:title="Json::BuiltStyledStreamWriter\l::writeValue">
<polygon fill="none" stroke="black" points="319,-53.5 319,-83.5 468,-83.5 468,-53.5 319,-53.5"/>
<text text-anchor="start" x="327" y="-71.5" font-family="Helvetica,sans-Serif" font-size="10.00">Json::BuiltStyledStreamWriter</text>
<text text-anchor="middle" x="393.5" y="-60.5" font-family="Helvetica,sans-Serif" font-size="10.00">::writeValue</text>
</a>
</g>
</g>
<!-- Node179&#45;&gt;Node183 -->
<g id="edge10" class="edge"><title>Node179&#45;&gt;Node183</title>
<path fill="none" stroke="midnightblue" d="M78.4929,-92.0255C95.3575,-83.3047 118.286,-73.0353 140,-68.5 199.217,-56.1317 267.964,-57.098 318.759,-60.6166"/>
<polygon fill="midnightblue" stroke="midnightblue" points="76.4903,-89.1272 69.3191,-96.9263 79.7886,-95.3014 76.4903,-89.1272"/>
</g>
<!-- Node182&#45;&gt;Node183 -->
<g id="edge4" class="edge"><title>Node182&#45;&gt;Node183</title>
<path fill="none" stroke="midnightblue" d="M293.104,-78.9918C301.666,-78.0881 310.343,-77.1722 318.82,-76.2774"/>
<polygon fill="midnightblue" stroke="midnightblue" points="292.701,-75.5148 283.124,-80.0452 293.436,-82.4761 292.701,-75.5148"/>
</g>
<!-- Node184 -->
<g id="node6" class="node"><title>Node184</title>
<g id="a_node6"><a xlink:href="struct_json_1_1_built_styled_stream_writer.html#a2ecffc3d66c4feddf208e5cd3b1c0f18" target="_top" xlink:title="Json::BuiltStyledStreamWriter\l::write">
<polygon fill="none" stroke="black" points="504,-106.5 504,-136.5 653,-136.5 653,-106.5 504,-106.5"/>
<text text-anchor="start" x="512" y="-124.5" font-family="Helvetica,sans-Serif" font-size="10.00">Json::BuiltStyledStreamWriter</text>
<text text-anchor="middle" x="578.5" y="-113.5" font-family="Helvetica,sans-Serif" font-size="10.00">::write</text>
</a>
</g>
</g>
<!-- Node183&#45;&gt;Node184 -->
<g id="edge5" class="edge"><title>Node183&#45;&gt;Node184</title>
<path fill="none" stroke="midnightblue" d="M456.231,-86.3783C478.704,-92.8868 503.865,-100.174 525.419,-106.416"/>
<polygon fill="midnightblue" stroke="midnightblue" points="457.03,-82.966 446.451,-83.5459 455.083,-89.6897 457.03,-82.966"/>
</g>
<!-- Node185 -->
<g id="node7" class="node"><title>Node185</title>
<g id="a_node7"><a xlink:href="struct_json_1_1_built_styled_stream_writer.html#acd20e9274bbcf7876ef3af2e7d23a31f" target="_top" xlink:title="Json::BuiltStyledStreamWriter\l::writeArrayValue">
<polygon fill="none" stroke="black" points="689,-53.5 689,-83.5 838,-83.5 838,-53.5 689,-53.5"/>
<text text-anchor="start" x="697" y="-71.5" font-family="Helvetica,sans-Serif" font-size="10.00">Json::BuiltStyledStreamWriter</text>
<text text-anchor="middle" x="763.5" y="-60.5" font-family="Helvetica,sans-Serif" font-size="10.00">::writeArrayValue</text>
</a>
</g>
</g>
<!-- Node183&#45;&gt;Node185 -->
<g id="edge6" class="edge"><title>Node183&#45;&gt;Node185</title>
<path fill="none" stroke="midnightblue" d="M478.451,-62.7294C541.834,-61.348 627.975,-61.4279 688.727,-62.969"/>
<polygon fill="midnightblue" stroke="midnightblue" points="478.001,-59.239 468.086,-62.9737 478.166,-66.237 478.001,-59.239"/>
</g>
<!-- Node186 -->
<g id="node8" class="node"><title>Node186</title>
<g id="a_node8"><a xlink:href="struct_json_1_1_built_styled_stream_writer.html#af423fd33b3d580506ea3efc53b05a077" target="_top" xlink:title="Json::BuiltStyledStreamWriter\l::isMultineArray">
<polygon fill="none" stroke="black" points="504,-0.5 504,-30.5 653,-30.5 653,-0.5 504,-0.5"/>
<text text-anchor="start" x="512" y="-18.5" font-family="Helvetica,sans-Serif" font-size="10.00">Json::BuiltStyledStreamWriter</text>
<text text-anchor="middle" x="578.5" y="-7.5" font-family="Helvetica,sans-Serif" font-size="10.00">::isMultineArray</text>
</a>
</g>
</g>
<!-- Node183&#45;&gt;Node186 -->
<g id="edge8" class="edge"><title>Node183&#45;&gt;Node186</title>
<path fill="none" stroke="midnightblue" d="M456.231,-50.6217C478.704,-44.1132 503.865,-36.8259 525.419,-30.5835"/>
<polygon fill="midnightblue" stroke="midnightblue" points="455.083,-47.3103 446.451,-53.4541 457.03,-54.034 455.083,-47.3103"/>
</g>
<!-- Node185&#45;&gt;Node183 -->
<g id="edge7" class="edge"><title>Node185&#45;&gt;Node183</title>
<path fill="none" stroke="midnightblue" d="M678.353,-74.2748C614.924,-75.6532 528.785,-75.5704 468.086,-74.0263"/>
<polygon fill="midnightblue" stroke="midnightblue" points="678.812,-77.7651 688.727,-74.031 678.648,-70.767 678.812,-77.7651"/>
</g>
<!-- Node186&#45;&gt;Node185 -->
<g id="edge9" class="edge"><title>Node186&#45;&gt;Node185</title>
<path fill="none" stroke="midnightblue" d="M641.231,-33.3783C663.704,-39.8868 688.865,-47.1741 710.419,-53.4165"/>
<polygon fill="midnightblue" stroke="midnightblue" points="642.03,-29.966 631.451,-30.5459 640.083,-36.6897 642.03,-29.966"/>
</g>
</g>
</svg>
        <g id="navigator" transform="translate(0 0)" fill="#404254">
                <rect fill="#f2f5e9" fill-opacity="0.5" stroke="#606060" stroke-width=".5" x="0" y="0" width="60" height="60"/>
                <use id="zoomplus" xlink:href="#zoomPlus" x="17" y="9" onmousedown="handleZoom(evt,'in')"/>
                <use id="zoomminus" xlink:href="#zoomMin" x="42" y="9" onmousedown="handleZoom(evt,'out')"/>
                <use id="reset" xlink:href="#resetDef" x="30" y="36" onmousedown="handleReset()"/>
                <g id="arrowUp" xlink:href="#dirArrow" transform="translate(30 24)" onmousedown="handlePan(0,-1)">
                  <use xlink:href="#rim" fill="#404040">
                        <set attributeName="fill" to="#808080" begin="arrowUp.mouseover" end="arrowUp.mouseout"/>
                  </use>
                  <path fill="none" stroke="white" stroke-width="1.5" d="M0,-3.0v7 M-2.5,-0.5L0,-3.0L2.5,-0.5"/>
                </g>
                <g id="arrowRight" xlink:href="#dirArrow" transform="rotate(90) translate(36 -43)" onmousedown="handlePan(1,0)">
                  <use xlink:href="#rim" fill="#404040">
                        <set attributeName="fill" to="#808080" begin="arrowRight.mouseover" end="arrowRight.mouseout"/>
                  </use>
                  <path fill="none" stroke="white" stroke-width="1.5" d="M0,-3.0v7 M-2.5,-0.5L0,-3.0L2.5,-0.5"/>
                </g>
                <g id="arrowDown" xlink:href="#dirArrow" transform="rotate(180) translate(-30 -48)" onmousedown="handlePan(0,1)">
                  <use xlink:href="#rim" fill="#404040">
                        <set attributeName="fill" to="#808080" begin="arrowDown.mouseover" end="arrowDown.mouseout"/>
                  </use>
                  <path fill="none" stroke="white" stroke-width="1.5" d="M0,-3.0v7 M-2.5,-0.5L0,-3.0L2.5,-0.5"/>
                </g>
                <g id="arrowLeft" xlink:href="#dirArrow" transform="rotate(270) translate(-36 17)" onmousedown="handlePan(-1,0)">
                  <use xlink:href="#rim" fill="#404040">
                        <set attributeName="fill" to="#808080" begin="arrowLeft.mouseover" end="arrowLeft.mouseout"/>
                  </use>
                  <path fill="none" stroke="white" stroke-width="1.5" d="M0,-3.0v7 M-2.5,-0.5L0,-3.0L2.5,-0.5"/>
                </g>
        </g>
        <svg viewBox="0 0 15 15" width="100%" height="30px" preserveAspectRatio="xMaxYMin meet">
         <g id="arrow_out" transform="scale(0.3 0.3)">
          <a xlink:href="namespace_json_abd9c650f70d9434f98f9025e2e2faf2d_icgraph_org.svg" target="_base">
           <rect id="button" ry="5" rx="5" y="6" x="6" height="38" width="38"
                fill="#f2f5e9" fill-opacity="0.5" stroke="#606060" stroke-width="1.0"/>
           <path id="arrow"
             d="M 11.500037,31.436501 C 11.940474,20.09759 22.043105,11.32322 32.158766,21.979434 L 37.068811,17.246167 C 37.068811,17.246167 37.088388,32 37.088388,32 L 22.160133,31.978069 C 22.160133,31.978069 26.997745,27.140456 26.997745,27.140456 C 18.528582,18.264221 13.291696,25.230495 11.500037,31.436501 z"
             style="fill:#404040;"/>
          </a>
         </g>
        </svg>
</svg>
