<?xml version="1.0" encoding="UTF-8" standalone="no"?>
<!DOCTYPE svg PUBLIC "-//W3C//DTD SVG 1.1//EN"
 "http://www.w3.org/Graphics/SVG/1.1/DTD/svg11.dtd">
<!-- Generated by graphviz version 2.38.0 (20140413.2041)
 -->
<!-- Title: /home/mel/projects/Misc/Minecraft Server Service/src/outputListener.h Pages: 1 -->
<!--zoomable 284 -->
<svg id="main" version="1.1" xmlns="http://www.w3.org/2000/svg" xmlns:xlink="http://www.w3.org/1999/xlink" xml:space="preserve" onload="init(evt)">
<style type="text/css"><![CDATA[
.edge:hover path { stroke: red; }
.edge:hover polygon { stroke: red; fill: red; }
]]></style>
<script type="text/javascript"><![CDATA[
var edges = document.getElementsByTagName('g');
if (edges && edges.length) {
  for (var i=0;i<edges.length;i++) {
    if (edges[i].id.substr(0,4)=='edge') {
      edges[i].setAttribute('class','edge');
    }
  }
}
]]></script>
        <defs>
                <circle id="rim" cx="0" cy="0" r="7"/>
                <circle id="rim2" cx="0" cy="0" r="3.5"/>
                <g id="zoomPlus">
                        <use xlink:href="#rim" fill="#404040">
                                <set attributeName="fill" to="#808080" begin="zoomplus.mouseover" end="zoomplus.mouseout"/>
                        </use>
                        <path d="M-4,0h8M0,-4v8" fill="none" stroke="white" stroke-width="1.5" pointer-events="none"/>
                </g>
                <g id="zoomMin">
                        <use xlink:href="#rim" fill="#404040">
                                <set attributeName="fill" to="#808080" begin="zoomminus.mouseover" end="zoomminus.mouseout"/>
                        </use>
                        <path d="M-4,0h8" fill="none" stroke="white" stroke-width="1.5" pointer-events="none"/>
                </g>
                <g id="dirArrow">
                        <path fill="none" stroke="white" stroke-width="1.5" d="M0,-3.0v7 M-2.5,-0.5L0,-3.0L2.5,-0.5"/>
                </g>
               <g id="resetDef">
                       <use xlink:href="#rim2" fill="#404040">
                               <set attributeName="fill" to="#808080" begin="reset.mouseover" end="reset.mouseout"/>
                       </use>
               </g>
        </defs>

<script type="text/javascript">
var viewWidth = 1325;
var viewHeight = 284;
var sectionId = 'dynsection-1';
</script>
<script xlink:href="svgpan.js"/>
<svg id="graph" class="graph">
<g id="viewport">
<title>/home/mel/projects/Misc/Minecraft Server Service/src/outputListener.h</title>
<!-- Node5 -->
<g id="node1" class="node"><title>Node5</title>
<polygon fill="#bfbfbf" stroke="black" points="809,-234.5 809,-275.5 951,-275.5 951,-234.5 809,-234.5"/>
<text text-anchor="start" x="817" y="-263.5" font-family="Helvetica,sans-Serif" font-size="10.00">/home/mel/projects</text>
<text text-anchor="start" x="817" y="-252.5" font-family="Helvetica,sans-Serif" font-size="10.00">/Misc/Minecraft Server</text>
<text text-anchor="middle" x="880" y="-241.5" font-family="Helvetica,sans-Serif" font-size="10.00"> Service/src/outputListener.h</text>
</g>
<!-- Node6 -->
<g id="node2" class="node"><title>Node6</title>
<g id="a_node2"><a xlink:href="server_8h.html" target="_top" xlink:title="/home/mel/projects\l/Misc/Minecraft Server\l Service/src/server.h">
<polygon fill="none" stroke="black" points="746,-156.5 746,-197.5 862,-197.5 862,-156.5 746,-156.5"/>
<text text-anchor="start" x="754" y="-185.5" font-family="Helvetica,sans-Serif" font-size="10.00">/home/mel/projects</text>
<text text-anchor="start" x="754" y="-174.5" font-family="Helvetica,sans-Serif" font-size="10.00">/Misc/Minecraft Server</text>
<text text-anchor="middle" x="804" y="-163.5" font-family="Helvetica,sans-Serif" font-size="10.00"> Service/src/server.h</text>
</a>
</g>
</g>
<!-- Node5&#45;&gt;Node6 -->
<g id="edge1" class="edge"><title>Node5&#45;&gt;Node6</title>
<path fill="none" stroke="midnightblue" d="M853.204,-227.204C843.416,-217.416 832.539,-206.539 823.506,-197.506"/>
<polygon fill="midnightblue" stroke="midnightblue" points="850.882,-229.832 860.428,-234.428 855.832,-224.882 850.882,-229.832"/>
</g>
<!-- Node22 -->
<g id="node18" class="node"><title>Node22</title>
<g id="a_node18"><a xlink:href="output_listener_8cpp.html" target="_top" xlink:title="/home/mel/projects\l/Misc/Minecraft Server\l Service/src/outputListener.cpp">
<polygon fill="none" stroke="black" points="880,-156.5 880,-197.5 1032,-197.5 1032,-156.5 880,-156.5"/>
<text text-anchor="start" x="888" y="-185.5" font-family="Helvetica,sans-Serif" font-size="10.00">/home/mel/projects</text>
<text text-anchor="start" x="888" y="-174.5" font-family="Helvetica,sans-Serif" font-size="10.00">/Misc/Minecraft Server</text>
<text text-anchor="middle" x="956" y="-163.5" font-family="Helvetica,sans-Serif" font-size="10.00"> Service/src/outputListener.cpp</text>
</a>
</g>
</g>
<!-- Node5&#45;&gt;Node22 -->
<g id="edge25" class="edge"><title>Node5&#45;&gt;Node22</title>
<path fill="none" stroke="midnightblue" d="M906.796,-227.204C916.584,-217.416 927.461,-206.539 936.494,-197.506"/>
<polygon fill="midnightblue" stroke="midnightblue" points="904.168,-224.882 899.572,-234.428 909.118,-229.832 904.168,-224.882"/>
</g>
<!-- Node7 -->
<g id="node3" class="node"><title>Node7</title>
<g id="a_node3"><a xlink:href="bukkit_server_8h.html" target="_top" xlink:title="/home/mel/projects\l/Misc/Minecraft Server\l Service/src/bukkitServer.h">
<polygon fill="none" stroke="black" points="131.5,-78.5 131.5,-119.5 266.5,-119.5 266.5,-78.5 131.5,-78.5"/>
<text text-anchor="start" x="139.5" y="-107.5" font-family="Helvetica,sans-Serif" font-size="10.00">/home/mel/projects</text>
<text text-anchor="start" x="139.5" y="-96.5" font-family="Helvetica,sans-Serif" font-size="10.00">/Misc/Minecraft Server</text>
<text text-anchor="middle" x="199" y="-85.5" font-family="Helvetica,sans-Serif" font-size="10.00"> Service/src/bukkitServer.h</text>
</a>
</g>
</g>
<!-- Node6&#45;&gt;Node7 -->
<g id="edge2" class="edge"><title>Node6&#45;&gt;Node7</title>
<path fill="none" stroke="midnightblue" d="M735.564,-172.087C634.28,-165.545 438.788,-150.041 275,-120 272.316,-119.508 269.588,-118.97 266.838,-118.398"/>
<polygon fill="midnightblue" stroke="midnightblue" points="735.459,-175.587 745.661,-172.729 735.904,-168.601 735.459,-175.587"/>
</g>
<!-- Node9 -->
<g id="node5" class="node"><title>Node9</title>
<g id="a_node5"><a xlink:href="setup_servers_8cpp.html" target="_top" xlink:title="/home/mel/projects\l/Misc/Minecraft Server\l Service/src/setupServers.cpp">
<polygon fill="none" stroke="black" points="521.5,-0.5 521.5,-41.5 670.5,-41.5 670.5,-0.5 521.5,-0.5"/>
<text text-anchor="start" x="529.5" y="-29.5" font-family="Helvetica,sans-Serif" font-size="10.00">/home/mel/projects</text>
<text text-anchor="start" x="529.5" y="-18.5" font-family="Helvetica,sans-Serif" font-size="10.00">/Misc/Minecraft Server</text>
<text text-anchor="middle" x="596" y="-7.5" font-family="Helvetica,sans-Serif" font-size="10.00"> Service/src/setupServers.cpp</text>
</a>
</g>
</g>
<!-- Node6&#45;&gt;Node9 -->
<g id="edge18" class="edge"><title>Node6&#45;&gt;Node9</title>
<path fill="none" stroke="midnightblue" d="M736.032,-162.893C706.691,-154.527 673.545,-141.134 649,-120 624.521,-98.9232 609.425,-63.6409 601.888,-41.6561"/>
<polygon fill="midnightblue" stroke="midnightblue" points="735.252,-166.308 745.819,-165.542 737.08,-159.551 735.252,-166.308"/>
</g>
<!-- Node10 -->
<g id="node6" class="node"><title>Node10</title>
<g id="a_node6"><a xlink:href="bungeecord_server_8h.html" target="_top" xlink:title="/home/mel/projects\l/Misc/Minecraft Server\l Service/src/bungeecordServer.h">
<polygon fill="none" stroke="black" points="284.5,-78.5 284.5,-119.5 443.5,-119.5 443.5,-78.5 284.5,-78.5"/>
<text text-anchor="start" x="292.5" y="-107.5" font-family="Helvetica,sans-Serif" font-size="10.00">/home/mel/projects</text>
<text text-anchor="start" x="292.5" y="-96.5" font-family="Helvetica,sans-Serif" font-size="10.00">/Misc/Minecraft Server</text>
<text text-anchor="middle" x="364" y="-85.5" font-family="Helvetica,sans-Serif" font-size="10.00"> Service/src/bungeecordServer.h</text>
</a>
</g>
</g>
<!-- Node6&#45;&gt;Node10 -->
<g id="edge5" class="edge"><title>Node6&#45;&gt;Node10</title>
<path fill="none" stroke="midnightblue" d="M735.592,-166.385C664.69,-156.116 550.761,-138.764 453,-120 449.889,-119.403 446.722,-118.777 443.525,-118.131"/>
<polygon fill="midnightblue" stroke="midnightblue" points="735.336,-169.885 745.734,-167.848 736.336,-162.956 735.336,-169.885"/>
</g>
<!-- Node12 -->
<g id="node8" class="node"><title>Node12</title>
<g id="a_node8"><a xlink:href="generic_server_8h.html" target="_top" xlink:title="/home/mel/projects\l/Misc/Minecraft Server\l Service/src/genericServer.h">
<polygon fill="none" stroke="black" points="462,-78.5 462,-119.5 602,-119.5 602,-78.5 462,-78.5"/>
<text text-anchor="start" x="470" y="-107.5" font-family="Helvetica,sans-Serif" font-size="10.00">/home/mel/projects</text>
<text text-anchor="start" x="470" y="-96.5" font-family="Helvetica,sans-Serif" font-size="10.00">/Misc/Minecraft Server</text>
<text text-anchor="middle" x="532" y="-85.5" font-family="Helvetica,sans-Serif" font-size="10.00"> Service/src/genericServer.h</text>
</a>
</g>
</g>
<!-- Node6&#45;&gt;Node12 -->
<g id="edge8" class="edge"><title>Node6&#45;&gt;Node12</title>
<path fill="none" stroke="midnightblue" d="M736.106,-157.03C695.215,-145.604 643.252,-131.085 601.99,-119.556"/>
<polygon fill="midnightblue" stroke="midnightblue" points="735.41,-160.469 745.983,-159.789 737.294,-153.727 735.41,-160.469"/>
</g>
<!-- Node14 -->
<g id="node10" class="node"><title>Node14</title>
<g id="a_node10"><a xlink:href="main_8cpp.html" target="_top" xlink:title="/home/mel/projects\l/Misc/Minecraft Server\l Service/src/main.cpp">
<polygon fill="none" stroke="black" points="1018,-0.5 1018,-41.5 1134,-41.5 1134,-0.5 1018,-0.5"/>
<text text-anchor="start" x="1026" y="-29.5" font-family="Helvetica,sans-Serif" font-size="10.00">/home/mel/projects</text>
<text text-anchor="start" x="1026" y="-18.5" font-family="Helvetica,sans-Serif" font-size="10.00">/Misc/Minecraft Server</text>
<text text-anchor="middle" x="1076" y="-7.5" font-family="Helvetica,sans-Serif" font-size="10.00"> Service/src/main.cpp</text>
</a>
</g>
</g>
<!-- Node6&#45;&gt;Node14 -->
<g id="edge11" class="edge"><title>Node6&#45;&gt;Node14</title>
<path fill="none" stroke="midnightblue" d="M872.46,-156.164C939.631,-145.755 1080.15,-159.233 1114,-120 1133.67,-97.2026 1112.2,-63.0813 1094.45,-41.7038"/>
<polygon fill="midnightblue" stroke="midnightblue" points="871.526,-152.777 862.336,-158.051 872.809,-159.659 871.526,-152.777"/>
</g>
<!-- Node15 -->
<g id="node11" class="node"><title>Node15</title>
<g id="a_node11"><a xlink:href="setup_servers_8h.html" target="_top" xlink:title="/home/mel/projects\l/Misc/Minecraft Server\l Service/src/setupServers.h">
<polygon fill="none" stroke="black" points="967,-78.5 967,-119.5 1105,-119.5 1105,-78.5 967,-78.5"/>
<text text-anchor="start" x="975" y="-107.5" font-family="Helvetica,sans-Serif" font-size="10.00">/home/mel/projects</text>
<text text-anchor="start" x="975" y="-96.5" font-family="Helvetica,sans-Serif" font-size="10.00">/Misc/Minecraft Server</text>
<text text-anchor="middle" x="1036" y="-85.5" font-family="Helvetica,sans-Serif" font-size="10.00"> Service/src/setupServers.h</text>
</a>
</g>
</g>
<!-- Node6&#45;&gt;Node15 -->
<g id="edge12" class="edge"><title>Node6&#45;&gt;Node15</title>
<path fill="none" stroke="midnightblue" d="M871.826,-153.781C904.852,-142.962 944.213,-130.068 976.115,-119.618"/>
<polygon fill="midnightblue" stroke="midnightblue" points="870.657,-150.481 862.244,-156.92 872.837,-157.133 870.657,-150.481"/>
</g>
<!-- Node16 -->
<g id="node12" class="node"><title>Node16</title>
<g id="a_node12"><a xlink:href="main_loop_8cpp.html" target="_top" xlink:title="/home/mel/projects\l/Misc/Minecraft Server\l Service/src/mainLoop.cpp">
<polygon fill="none" stroke="black" points="1152.5,-0.5 1152.5,-41.5 1285.5,-41.5 1285.5,-0.5 1152.5,-0.5"/>
<text text-anchor="start" x="1160.5" y="-29.5" font-family="Helvetica,sans-Serif" font-size="10.00">/home/mel/projects</text>
<text text-anchor="start" x="1160.5" y="-18.5" font-family="Helvetica,sans-Serif" font-size="10.00">/Misc/Minecraft Server</text>
<text text-anchor="middle" x="1219" y="-7.5" font-family="Helvetica,sans-Serif" font-size="10.00"> Service/src/mainLoop.cpp</text>
</a>
</g>
</g>
<!-- Node6&#45;&gt;Node16 -->
<g id="edge16" class="edge"><title>Node6&#45;&gt;Node16</title>
<path fill="none" stroke="midnightblue" d="M872.251,-155.97C987.85,-133.514 1031.56,-173.696 1132,-120 1166.11,-101.766 1193.28,-64.5332 1207.69,-41.575"/>
<polygon fill="midnightblue" stroke="midnightblue" points="871.416,-152.569 862.329,-158.016 872.829,-159.424 871.416,-152.569"/>
</g>
<!-- Node17 -->
<g id="node13" class="node"><title>Node17</title>
<g id="a_node13"><a xlink:href="server_8cpp.html" target="_top" xlink:title="/home/mel/projects\l/Misc/Minecraft Server\l Service/src/server.cpp">
<polygon fill="none" stroke="black" points="1199,-78.5 1199,-119.5 1317,-119.5 1317,-78.5 1199,-78.5"/>
<text text-anchor="start" x="1207" y="-107.5" font-family="Helvetica,sans-Serif" font-size="10.00">/home/mel/projects</text>
<text text-anchor="start" x="1207" y="-96.5" font-family="Helvetica,sans-Serif" font-size="10.00">/Misc/Minecraft Server</text>
<text text-anchor="middle" x="1258" y="-85.5" font-family="Helvetica,sans-Serif" font-size="10.00"> Service/src/server.cpp</text>
</a>
</g>
</g>
<!-- Node6&#45;&gt;Node17 -->
<g id="edge17" class="edge"><title>Node6&#45;&gt;Node17</title>
<path fill="none" stroke="midnightblue" d="M872.423,-155.896C1010.47,-128.659 1050.31,-146.012 1185,-120 1189.52,-119.128 1194.16,-118.12 1198.82,-117.031"/>
<polygon fill="midnightblue" stroke="midnightblue" points="871.422,-152.527 862.312,-157.935 872.806,-159.389 871.422,-152.527"/>
</g>
<!-- Node18 -->
<g id="node14" class="node"><title>Node18</title>
<g id="a_node14"><a xlink:href="vanilla_server_8h.html" target="_top" xlink:title="/home/mel/projects\l/Misc/Minecraft Server\l Service/src/vanillaServer.h">
<polygon fill="none" stroke="black" points="658.5,-78.5 658.5,-119.5 795.5,-119.5 795.5,-78.5 658.5,-78.5"/>
<text text-anchor="start" x="666.5" y="-107.5" font-family="Helvetica,sans-Serif" font-size="10.00">/home/mel/projects</text>
<text text-anchor="start" x="666.5" y="-96.5" font-family="Helvetica,sans-Serif" font-size="10.00">/Misc/Minecraft Server</text>
<text text-anchor="middle" x="727" y="-85.5" font-family="Helvetica,sans-Serif" font-size="10.00"> Service/src/vanillaServer.h</text>
</a>
</g>
</g>
<!-- Node6&#45;&gt;Node18 -->
<g id="edge19" class="edge"><title>Node6&#45;&gt;Node18</title>
<path fill="none" stroke="midnightblue" d="M776.851,-149.204C766.935,-139.416 755.914,-128.539 746.762,-119.506"/>
<polygon fill="midnightblue" stroke="midnightblue" points="774.595,-151.894 784.171,-156.428 779.512,-146.912 774.595,-151.894"/>
</g>
<!-- Node20 -->
<g id="node16" class="node"><title>Node20</title>
<g id="a_node16"><a xlink:href="spigot_server_8h.html" target="_top" xlink:title="/home/mel/projects\l/Misc/Minecraft Server\l Service/src/spigotServer.h">
<polygon fill="none" stroke="black" points="813.5,-78.5 813.5,-119.5 948.5,-119.5 948.5,-78.5 813.5,-78.5"/>
<text text-anchor="start" x="821.5" y="-107.5" font-family="Helvetica,sans-Serif" font-size="10.00">/home/mel/projects</text>
<text text-anchor="start" x="821.5" y="-96.5" font-family="Helvetica,sans-Serif" font-size="10.00">/Misc/Minecraft Server</text>
<text text-anchor="middle" x="881" y="-85.5" font-family="Helvetica,sans-Serif" font-size="10.00"> Service/src/spigotServer.h</text>
</a>
</g>
</g>
<!-- Node6&#45;&gt;Node20 -->
<g id="edge22" class="edge"><title>Node6&#45;&gt;Node20</title>
<path fill="none" stroke="midnightblue" d="M831.149,-149.204C841.065,-139.416 852.086,-128.539 861.238,-119.506"/>
<polygon fill="midnightblue" stroke="midnightblue" points="828.488,-146.912 823.829,-156.428 833.405,-151.894 828.488,-146.912"/>
</g>
<!-- Node8 -->
<g id="node4" class="node"><title>Node8</title>
<g id="a_node4"><a xlink:href="bukkit_server_8cpp.html" target="_top" xlink:title="/home/mel/projects\l/Misc/Minecraft Server\l Service/src/bukkitServer.cpp">
<polygon fill="none" stroke="black" points="0,-0.5 0,-41.5 146,-41.5 146,-0.5 0,-0.5"/>
<text text-anchor="start" x="8" y="-29.5" font-family="Helvetica,sans-Serif" font-size="10.00">/home/mel/projects</text>
<text text-anchor="start" x="8" y="-18.5" font-family="Helvetica,sans-Serif" font-size="10.00">/Misc/Minecraft Server</text>
<text text-anchor="middle" x="73" y="-7.5" font-family="Helvetica,sans-Serif" font-size="10.00"> Service/src/bukkitServer.cpp</text>
</a>
</g>
</g>
<!-- Node7&#45;&gt;Node8 -->
<g id="edge3" class="edge"><title>Node7&#45;&gt;Node8</title>
<path fill="none" stroke="midnightblue" d="M157.889,-73.2029C140.837,-62.9176 121.342,-51.1587 105.338,-41.5056"/>
<polygon fill="midnightblue" stroke="midnightblue" points="156.181,-76.2602 166.552,-78.4281 159.797,-70.2661 156.181,-76.2602"/>
</g>
<!-- Node7&#45;&gt;Node9 -->
<g id="edge4" class="edge"><title>Node7&#45;&gt;Node9</title>
<path fill="none" stroke="midnightblue" d="M276.855,-77.7156C381.102,-56.7481 410.587,-61.7399 512,-42 515.09,-41.3985 518.239,-40.7611 521.415,-40.0978"/>
<polygon fill="midnightblue" stroke="midnightblue" points="275.965,-74.3251 266.868,-79.7568 277.366,-81.1833 275.965,-74.3251"/>
</g>
<!-- Node10&#45;&gt;Node9 -->
<g id="edge7" class="edge"><title>Node10&#45;&gt;Node9</title>
<path fill="none" stroke="midnightblue" d="M433.283,-75.3039C466.123,-64.5458 504.962,-51.8229 536.457,-41.5056"/>
<polygon fill="midnightblue" stroke="midnightblue" points="432.159,-71.9889 423.746,-78.4281 434.338,-78.641 432.159,-71.9889"/>
</g>
<!-- Node11 -->
<g id="node7" class="node"><title>Node11</title>
<g id="a_node7"><a xlink:href="bungeecord_server_8cpp.html" target="_top" xlink:title="/home/mel/projects\l/Misc/Minecraft Server\l Service/src/bungeecordServer.cpp">
<polygon fill="none" stroke="black" points="164,-0.5 164,-41.5 334,-41.5 334,-0.5 164,-0.5"/>
<text text-anchor="start" x="172" y="-29.5" font-family="Helvetica,sans-Serif" font-size="10.00">/home/mel/projects</text>
<text text-anchor="start" x="172" y="-18.5" font-family="Helvetica,sans-Serif" font-size="10.00">/Misc/Minecraft Server</text>
<text text-anchor="middle" x="249" y="-7.5" font-family="Helvetica,sans-Serif" font-size="10.00"> Service/src/bungeecordServer.cpp</text>
</a>
</g>
</g>
<!-- Node10&#45;&gt;Node11 -->
<g id="edge6" class="edge"><title>Node10&#45;&gt;Node11</title>
<path fill="none" stroke="midnightblue" d="M325.619,-72.6352C310.263,-62.4868 292.854,-50.9816 278.515,-41.5056"/>
<polygon fill="midnightblue" stroke="midnightblue" points="324.112,-75.8346 334.385,-78.4281 327.972,-69.9946 324.112,-75.8346"/>
</g>
<!-- Node12&#45;&gt;Node9 -->
<g id="edge10" class="edge"><title>Node12&#45;&gt;Node9</title>
<path fill="none" stroke="midnightblue" d="M555.051,-70.627C563.166,-60.9901 572.117,-50.3617 579.574,-41.5056"/>
<polygon fill="midnightblue" stroke="midnightblue" points="552.246,-68.5245 548.482,-78.4281 557.6,-73.0335 552.246,-68.5245"/>
</g>
<!-- Node13 -->
<g id="node9" class="node"><title>Node13</title>
<g id="a_node9"><a xlink:href="generic_server_8cpp.html" target="_top" xlink:title="/home/mel/projects\l/Misc/Minecraft Server\l Service/src/genericServer.cpp">
<polygon fill="none" stroke="black" points="352.5,-0.5 352.5,-41.5 503.5,-41.5 503.5,-0.5 352.5,-0.5"/>
<text text-anchor="start" x="360.5" y="-29.5" font-family="Helvetica,sans-Serif" font-size="10.00">/home/mel/projects</text>
<text text-anchor="start" x="360.5" y="-18.5" font-family="Helvetica,sans-Serif" font-size="10.00">/Misc/Minecraft Server</text>
<text text-anchor="middle" x="428" y="-7.5" font-family="Helvetica,sans-Serif" font-size="10.00"> Service/src/genericServer.cpp</text>
</a>
</g>
</g>
<!-- Node12&#45;&gt;Node13 -->
<g id="edge9" class="edge"><title>Node12&#45;&gt;Node13</title>
<path fill="none" stroke="midnightblue" d="M496.9,-72.3503C483.109,-62.2719 467.538,-50.893 454.692,-41.5056"/>
<polygon fill="midnightblue" stroke="midnightblue" points="495.078,-75.3538 505.217,-78.4281 499.209,-69.702 495.078,-75.3538"/>
</g>
<!-- Node15&#45;&gt;Node9 -->
<g id="edge15" class="edge"><title>Node15&#45;&gt;Node9</title>
<path fill="none" stroke="midnightblue" d="M956.866,-78.1096C832.878,-55.1549 798.405,-64.0511 679,-42 676.231,-41.4886 673.415,-40.9429 670.576,-40.3708"/>
<polygon fill="midnightblue" stroke="midnightblue" points="956.267,-81.5582 966.742,-79.9696 957.563,-74.6791 956.267,-81.5582"/>
</g>
<!-- Node15&#45;&gt;Node14 -->
<g id="edge13" class="edge"><title>Node15&#45;&gt;Node14</title>
<path fill="none" stroke="midnightblue" d="M1051.02,-69.466C1055.92,-60.1427 1061.26,-50.0074 1065.73,-41.5056"/>
<polygon fill="midnightblue" stroke="midnightblue" points="1047.86,-67.9488 1046.3,-78.4281 1054.06,-71.209 1047.86,-67.9488"/>
</g>
<!-- Node15&#45;&gt;Node16 -->
<g id="edge14" class="edge"><title>Node15&#45;&gt;Node16</title>
<path fill="none" stroke="midnightblue" d="M1092.66,-74.4689C1118.13,-63.8921 1147.83,-51.5572 1172.03,-41.5056"/>
<polygon fill="midnightblue" stroke="midnightblue" points="1091.02,-71.3603 1083.13,-78.4281 1093.7,-77.825 1091.02,-71.3603"/>
</g>
<!-- Node18&#45;&gt;Node9 -->
<g id="edge20" class="edge"><title>Node18&#45;&gt;Node9</title>
<path fill="none" stroke="midnightblue" d="M684.258,-73.2029C666.529,-62.9176 646.26,-51.1587 629.621,-41.5056"/>
<polygon fill="midnightblue" stroke="midnightblue" points="682.858,-76.4373 693.264,-78.4281 686.371,-70.3825 682.858,-76.4373"/>
</g>
<!-- Node19 -->
<g id="node15" class="node"><title>Node19</title>
<g id="a_node15"><a xlink:href="vanilla_server_8cpp.html" target="_top" xlink:title="/home/mel/projects\l/Misc/Minecraft Server\l Service/src/vanillaServer.cpp">
<polygon fill="none" stroke="black" points="688.5,-0.5 688.5,-41.5 835.5,-41.5 835.5,-0.5 688.5,-0.5"/>
<text text-anchor="start" x="696.5" y="-29.5" font-family="Helvetica,sans-Serif" font-size="10.00">/home/mel/projects</text>
<text text-anchor="start" x="696.5" y="-18.5" font-family="Helvetica,sans-Serif" font-size="10.00">/Misc/Minecraft Server</text>
<text text-anchor="middle" x="762" y="-7.5" font-family="Helvetica,sans-Serif" font-size="10.00"> Service/src/vanillaServer.cpp</text>
</a>
</g>
</g>
<!-- Node18&#45;&gt;Node19 -->
<g id="edge21" class="edge"><title>Node18&#45;&gt;Node19</title>
<path fill="none" stroke="midnightblue" d="M740.275,-69.1744C744.531,-59.9317 749.143,-49.9188 753.017,-41.5056"/>
<polygon fill="midnightblue" stroke="midnightblue" points="737.017,-67.8809 736.013,-78.4281 743.376,-70.8091 737.017,-67.8809"/>
</g>
<!-- Node20&#45;&gt;Node9 -->
<g id="edge23" class="edge"><title>Node20&#45;&gt;Node9</title>
<path fill="none" stroke="midnightblue" d="M803.598,-77.3594C761.79,-66.2106 710.459,-52.5225 669.301,-41.5468"/>
<polygon fill="midnightblue" stroke="midnightblue" points="802.895,-80.7942 813.459,-79.9891 804.698,-74.0305 802.895,-80.7942"/>
</g>
<!-- Node21 -->
<g id="node17" class="node"><title>Node21</title>
<g id="a_node17"><a xlink:href="spigot_server_8cpp.html" target="_top" xlink:title="/home/mel/projects\l/Misc/Minecraft Server\l Service/src/spigotServer.cpp">
<polygon fill="none" stroke="black" points="854,-0.5 854,-41.5 1000,-41.5 1000,-0.5 854,-0.5"/>
<text text-anchor="start" x="862" y="-29.5" font-family="Helvetica,sans-Serif" font-size="10.00">/home/mel/projects</text>
<text text-anchor="start" x="862" y="-18.5" font-family="Helvetica,sans-Serif" font-size="10.00">/Misc/Minecraft Server</text>
<text text-anchor="middle" x="927" y="-7.5" font-family="Helvetica,sans-Serif" font-size="10.00"> Service/src/spigotServer.cpp</text>
</a>
</g>
</g>
<!-- Node20&#45;&gt;Node21 -->
<g id="edge24" class="edge"><title>Node20&#45;&gt;Node21</title>
<path fill="none" stroke="midnightblue" d="M898.094,-69.7571C903.786,-60.354 909.995,-50.096 915.194,-41.5056"/>
<polygon fill="midnightblue" stroke="midnightblue" points="895.03,-68.0608 892.846,-78.4281 901.018,-71.6854 895.03,-68.0608"/>
</g>
</g>
</svg>
        <g id="navigator" transform="translate(0 0)" fill="#404254">
                <rect fill="#f2f5e9" fill-opacity="0.5" stroke="#606060" stroke-width=".5" x="0" y="0" width="60" height="60"/>
                <use id="zoomplus" xlink:href="#zoomPlus" x="17" y="9" onmousedown="handleZoom(evt,'in')"/>
                <use id="zoomminus" xlink:href="#zoomMin" x="42" y="9" onmousedown="handleZoom(evt,'out')"/>
                <use id="reset" xlink:href="#resetDef" x="30" y="36" onmousedown="handleReset()"/>
                <g id="arrowUp" xlink:href="#dirArrow" transform="translate(30 24)" onmousedown="handlePan(0,-1)">
                  <use xlink:href="#rim" fill="#404040">
                        <set attributeName="fill" to="#808080" begin="arrowUp.mouseover" end="arrowUp.mouseout"/>
                  </use>
                  <path fill="none" stroke="white" stroke-width="1.5" d="M0,-3.0v7 M-2.5,-0.5L0,-3.0L2.5,-0.5"/>
                </g>
                <g id="arrowRight" xlink:href="#dirArrow" transform="rotate(90) translate(36 -43)" onmousedown="handlePan(1,0)">
                  <use xlink:href="#rim" fill="#404040">
                        <set attributeName="fill" to="#808080" begin="arrowRight.mouseover" end="arrowRight.mouseout"/>
                  </use>
                  <path fill="none" stroke="white" stroke-width="1.5" d="M0,-3.0v7 M-2.5,-0.5L0,-3.0L2.5,-0.5"/>
                </g>
                <g id="arrowDown" xlink:href="#dirArrow" transform="rotate(180) translate(-30 -48)" onmousedown="handlePan(0,1)">
                  <use xlink:href="#rim" fill="#404040">
                        <set attributeName="fill" to="#808080" begin="arrowDown.mouseover" end="arrowDown.mouseout"/>
                  </use>
                  <path fill="none" stroke="white" stroke-width="1.5" d="M0,-3.0v7 M-2.5,-0.5L0,-3.0L2.5,-0.5"/>
                </g>
                <g id="arrowLeft" xlink:href="#dirArrow" transform="rotate(270) translate(-36 17)" onmousedown="handlePan(-1,0)">
                  <use xlink:href="#rim" fill="#404040">
                        <set attributeName="fill" to="#808080" begin="arrowLeft.mouseover" end="arrowLeft.mouseout"/>
                  </use>
                  <path fill="none" stroke="white" stroke-width="1.5" d="M0,-3.0v7 M-2.5,-0.5L0,-3.0L2.5,-0.5"/>
                </g>
        </g>
        <svg viewBox="0 0 15 15" width="100%" height="30px" preserveAspectRatio="xMaxYMin meet">
         <g id="arrow_out" transform="scale(0.3 0.3)">
          <a xlink:href="output_listener_8h__dep__incl_org.svg" target="_base">
           <rect id="button" ry="5" rx="5" y="6" x="6" height="38" width="38"
                fill="#f2f5e9" fill-opacity="0.5" stroke="#606060" stroke-width="1.0"/>
           <path id="arrow"
             d="M 11.500037,31.436501 C 11.940474,20.09759 22.043105,11.32322 32.158766,21.979434 L 37.068811,17.246167 C 37.068811,17.246167 37.088388,32 37.088388,32 L 22.160133,31.978069 C 22.160133,31.978069 26.997745,27.140456 26.997745,27.140456 C 18.528582,18.264221 13.291696,25.230495 11.500037,31.436501 z"
             style="fill:#404040;"/>
          </a>
         </g>
        </svg>
</svg>
