<?xml version="1.0" encoding="UTF-8" standalone="no"?>
<!DOCTYPE svg PUBLIC "-//W3C//DTD SVG 1.1//EN"
 "http://www.w3.org/Graphics/SVG/1.1/DTD/svg11.dtd">
<!-- Generated by graphviz version 2.38.0 (20140413.2041)
 -->
<!-- Title: /home/mel/projects/Misc/Minecraft Server Service/src/server.cpp Pages: 1 -->
<svg width="1940pt" height="162pt"
 viewBox="0.00 0.00 1940.00 162.00" xmlns="http://www.w3.org/2000/svg" xmlns:xlink="http://www.w3.org/1999/xlink">
<g id="graph0" class="graph" transform="scale(1 1) rotate(0) translate(4 158)">
<title>/home/mel/projects/Misc/Minecraft Server Service/src/server.cpp</title>
<!-- Node0 -->
<g id="node1" class="node"><title>Node0</title>
<polygon fill="#bfbfbf" stroke="black" points="1102,-112.5 1102,-153.5 1220,-153.5 1220,-112.5 1102,-112.5"/>
<text text-anchor="start" x="1110" y="-141.5" font-family="Helvetica,sans-Serif" font-size="10.00">/home/mel/projects</text>
<text text-anchor="start" x="1110" y="-130.5" font-family="Helvetica,sans-Serif" font-size="10.00">/Misc/Minecraft Server</text>
<text text-anchor="middle" x="1161" y="-119.5" font-family="Helvetica,sans-Serif" font-size="10.00"> Service/src/server.cpp</text>
</g>
<!-- Node1 -->
<g id="node2" class="node"><title>Node1</title>
<g id="a_node2"><a xlink:href="server_8h.html" target="_top" xlink:title="server.h">
<polygon fill="none" stroke="black" points="1043,-56.5 1043,-75.5 1095,-75.5 1095,-56.5 1043,-56.5"/>
<text text-anchor="middle" x="1069" y="-63.5" font-family="Helvetica,sans-Serif" font-size="10.00">server.h</text>
</a>
</g>
</g>
<!-- Node0&#45;&gt;Node1 -->
<g id="edge1" class="edge"><title>Node0&#45;&gt;Node1</title>
<path fill="none" stroke="midnightblue" d="M1133.4,-112.498C1119.29,-102.532 1102.42,-90.6142 1089.49,-81.4764"/>
<polygon fill="midnightblue" stroke="midnightblue" points="1091.43,-78.5643 1081.25,-75.6525 1087.39,-84.2814 1091.43,-78.5643"/>
</g>
<!-- Node4 -->
<g id="node5" class="node"><title>Node4</title>
<polygon fill="none" stroke="#bfbfbf" points="0,-0.5 0,-19.5 110,-19.5 110,-0.5 0,-0.5"/>
<text text-anchor="middle" x="55" y="-7.5" font-family="Helvetica,sans-Serif" font-size="10.00">event2/event&#45;config.h</text>
</g>
<!-- Node0&#45;&gt;Node4 -->
<g id="edge28" class="edge"><title>Node0&#45;&gt;Node4</title>
<path fill="none" stroke="midnightblue" d="M1101.79,-132.016C961.882,-131.211 600.28,-124.205 303,-76 226.091,-63.5289 138.405,-37.7214 90.6401,-22.647"/>
<polygon fill="midnightblue" stroke="midnightblue" points="91.6623,-19.2994 81.0718,-19.6018 89.5394,-25.9697 91.6623,-19.2994"/>
</g>
<!-- Node5 -->
<g id="node6" class="node"><title>Node5</title>
<polygon fill="none" stroke="#bfbfbf" points="128.5,-0.5 128.5,-19.5 209.5,-19.5 209.5,-0.5 128.5,-0.5"/>
<text text-anchor="middle" x="169" y="-7.5" font-family="Helvetica,sans-Serif" font-size="10.00">event2/event.h</text>
</g>
<!-- Node0&#45;&gt;Node5 -->
<g id="edge29" class="edge"><title>Node0&#45;&gt;Node5</title>
<path fill="none" stroke="midnightblue" d="M1101.54,-132.148C970.815,-131.507 649.014,-124.636 385,-76 318.288,-63.7107 242.964,-38.2931 201.224,-23.1396"/>
<polygon fill="midnightblue" stroke="midnightblue" points="202.202,-19.7703 191.609,-19.6138 199.792,-26.3425 202.202,-19.7703"/>
</g>
<!-- Node6 -->
<g id="node7" class="node"><title>Node6</title>
<polygon fill="none" stroke="#bfbfbf" points="228,-0.5 228,-19.5 298,-19.5 298,-0.5 228,-0.5"/>
<text text-anchor="middle" x="263" y="-7.5" font-family="Helvetica,sans-Serif" font-size="10.00">event2/util.h</text>
</g>
<!-- Node0&#45;&gt;Node6 -->
<g id="edge30" class="edge"><title>Node0&#45;&gt;Node6</title>
<path fill="none" stroke="midnightblue" d="M1101.72,-132.013C980.134,-131.004 694.263,-123.295 460,-76 399.237,-63.7328 331.129,-38.5784 293.02,-23.4112"/>
<polygon fill="midnightblue" stroke="midnightblue" points="294.132,-20.0862 283.548,-19.6007 291.519,-26.5803 294.132,-20.0862"/>
</g>
<!-- Node7 -->
<g id="node8" class="node"><title>Node7</title>
<polygon fill="none" stroke="#bfbfbf" points="316,-0.5 316,-19.5 378,-19.5 378,-0.5 316,-0.5"/>
<text text-anchor="middle" x="347" y="-7.5" font-family="Helvetica,sans-Serif" font-size="10.00">sys/wait.h</text>
</g>
<!-- Node0&#45;&gt;Node7 -->
<g id="edge50" class="edge"><title>Node0&#45;&gt;Node7</title>
<path fill="none" stroke="midnightblue" d="M1101.97,-131.706C989.401,-130.062 736.84,-121.148 530,-76 473.545,-63.6774 410.66,-38.7211 375.258,-23.5701"/>
<polygon fill="midnightblue" stroke="midnightblue" points="376.597,-20.336 366.029,-19.5754 373.816,-26.76 376.597,-20.336"/>
</g>
<!-- Node8 -->
<g id="node9" class="node"><title>Node8</title>
<polygon fill="none" stroke="#bfbfbf" points="396.5,-0.5 396.5,-19.5 447.5,-19.5 447.5,-0.5 396.5,-0.5"/>
<text text-anchor="middle" x="422" y="-7.5" font-family="Helvetica,sans-Serif" font-size="10.00">unistd.h</text>
</g>
<!-- Node0&#45;&gt;Node8 -->
<g id="edge43" class="edge"><title>Node0&#45;&gt;Node8</title>
<path fill="none" stroke="midnightblue" d="M1101.85,-131.044C998.394,-128.285 778.427,-117.573 598,-76 543.832,-63.5191 483.672,-38.7935 449.58,-23.6945"/>
<polygon fill="midnightblue" stroke="midnightblue" points="450.834,-20.4211 440.277,-19.5256 447.971,-26.809 450.834,-20.4211"/>
</g>
<!-- Node9 -->
<g id="node10" class="node"><title>Node9</title>
<polygon fill="none" stroke="#bfbfbf" points="465.5,-0.5 465.5,-19.5 506.5,-19.5 506.5,-0.5 465.5,-0.5"/>
<text text-anchor="middle" x="486" y="-7.5" font-family="Helvetica,sans-Serif" font-size="10.00">string</text>
</g>
<!-- Node0&#45;&gt;Node9 -->
<g id="edge31" class="edge"><title>Node0&#45;&gt;Node9</title>
<path fill="none" stroke="midnightblue" d="M1101.82,-129.669C1008.51,-125.015 821.975,-111.738 668,-76 612.135,-63.0335 549.733,-38.4043 514.429,-23.4673"/>
<polygon fill="midnightblue" stroke="midnightblue" points="515.789,-20.2423 505.218,-19.5291 513.037,-26.6787 515.789,-20.2423"/>
</g>
<!-- Node10 -->
<g id="node11" class="node"><title>Node10</title>
<polygon fill="none" stroke="#bfbfbf" points="525,-0.5 525,-19.5 577,-19.5 577,-0.5 525,-0.5"/>
<text text-anchor="middle" x="551" y="-7.5" font-family="Helvetica,sans-Serif" font-size="10.00">sstream</text>
</g>
<!-- Node0&#45;&gt;Node10 -->
<g id="edge32" class="edge"><title>Node0&#45;&gt;Node10</title>
<path fill="none" stroke="midnightblue" d="M1101.76,-127.856C1019.65,-121.27 867.02,-105.975 740,-76 682.584,-62.4508 618.07,-38.2294 581.21,-23.4871"/>
<polygon fill="midnightblue" stroke="midnightblue" points="582.159,-20.0957 571.576,-19.5971 579.538,-26.5866 582.159,-20.0957"/>
</g>
<!-- Node11 -->
<g id="node12" class="node"><title>Node11</title>
<polygon fill="none" stroke="#bfbfbf" points="595,-0.5 595,-19.5 639,-19.5 639,-0.5 595,-0.5"/>
<text text-anchor="middle" x="617" y="-7.5" font-family="Helvetica,sans-Serif" font-size="10.00">vector</text>
</g>
<!-- Node0&#45;&gt;Node11 -->
<g id="edge33" class="edge"><title>Node0&#45;&gt;Node11</title>
<path fill="none" stroke="midnightblue" d="M1101.81,-125.805C1031,-117.669 909.211,-101.366 807,-76 749.627,-61.7616 684.903,-37.8695 647.735,-23.358"/>
<polygon fill="midnightblue" stroke="midnightblue" points="648.599,-19.9365 638.012,-19.5296 646.034,-26.4498 648.599,-19.9365"/>
</g>
<!-- Node12 -->
<g id="node13" class="node"><title>Node12</title>
<polygon fill="none" stroke="#bfbfbf" points="657,-0.5 657,-19.5 701,-19.5 701,-0.5 657,-0.5"/>
<text text-anchor="middle" x="679" y="-7.5" font-family="Helvetica,sans-Serif" font-size="10.00">thread</text>
</g>
<!-- Node0&#45;&gt;Node12 -->
<g id="edge34" class="edge"><title>Node0&#45;&gt;Node12</title>
<path fill="none" stroke="midnightblue" d="M1101.78,-122.501C1043.99,-112.722 953.816,-96.1014 877,-76 817.399,-60.4034 749.482,-36.7964 710.683,-22.7361"/>
<polygon fill="midnightblue" stroke="midnightblue" points="711.6,-19.3451 701.006,-19.208 709.202,-25.9216 711.6,-19.3451"/>
</g>
<!-- Node13 -->
<g id="node14" class="node"><title>Node13</title>
<polygon fill="none" stroke="#bfbfbf" points="719,-0.5 719,-19.5 763,-19.5 763,-0.5 719,-0.5"/>
<text text-anchor="middle" x="741" y="-7.5" font-family="Helvetica,sans-Serif" font-size="10.00">mutex</text>
</g>
<!-- Node0&#45;&gt;Node13 -->
<g id="edge35" class="edge"><title>Node0&#45;&gt;Node13</title>
<path fill="none" stroke="midnightblue" d="M1101.89,-118.059C1057.44,-107.307 995.138,-91.6697 941,-76 880.993,-58.6314 811.854,-35.4428 772.598,-21.9733"/>
<polygon fill="midnightblue" stroke="midnightblue" points="773.646,-18.6326 763.051,-18.687 771.368,-25.2514 773.646,-18.6326"/>
</g>
<!-- Node14 -->
<g id="node15" class="node"><title>Node14</title>
<polygon fill="none" stroke="#bfbfbf" points="781.5,-0.5 781.5,-19.5 840.5,-19.5 840.5,-0.5 781.5,-0.5"/>
<text text-anchor="middle" x="811" y="-7.5" font-family="Helvetica,sans-Serif" font-size="10.00">functional</text>
</g>
<!-- Node0&#45;&gt;Node14 -->
<g id="edge36" class="edge"><title>Node0&#45;&gt;Node14</title>
<path fill="none" stroke="midnightblue" d="M1104.38,-112.425C1031.22,-87.1335 906.106,-43.8797 845.68,-22.9892"/>
<polygon fill="midnightblue" stroke="midnightblue" points="846.459,-19.5555 835.864,-19.596 844.172,-26.1713 846.459,-19.5555"/>
</g>
<!-- Node15 -->
<g id="node16" class="node"><title>Node15</title>
<polygon fill="none" stroke="#bfbfbf" points="1088.5,-0.5 1088.5,-19.5 1133.5,-19.5 1133.5,-0.5 1088.5,-0.5"/>
<text text-anchor="middle" x="1111" y="-7.5" font-family="Helvetica,sans-Serif" font-size="10.00">cstdlib</text>
</g>
<!-- Node0&#45;&gt;Node15 -->
<g id="edge37" class="edge"><title>Node0&#45;&gt;Node15</title>
<path fill="none" stroke="midnightblue" d="M1152.86,-112.29C1143.3,-89.1656 1127.59,-51.1597 1118.38,-28.8641"/>
<polygon fill="midnightblue" stroke="midnightblue" points="1121.6,-27.4802 1114.54,-19.5748 1115.13,-30.1535 1121.6,-27.4802"/>
</g>
<!-- Node16 -->
<g id="node17" class="node"><title>Node16</title>
<polygon fill="none" stroke="#bfbfbf" points="1151.5,-0.5 1151.5,-19.5 1196.5,-19.5 1196.5,-0.5 1151.5,-0.5"/>
<text text-anchor="middle" x="1174" y="-7.5" font-family="Helvetica,sans-Serif" font-size="10.00">iosfwd</text>
</g>
<!-- Node0&#45;&gt;Node16 -->
<g id="edge38" class="edge"><title>Node0&#45;&gt;Node16</title>
<path fill="none" stroke="midnightblue" d="M1163.12,-112.29C1165.57,-89.4795 1169.57,-52.1888 1171.98,-29.7807"/>
<polygon fill="midnightblue" stroke="midnightblue" points="1175.49,-29.8915 1173.08,-19.5748 1168.53,-29.1437 1175.49,-29.8915"/>
</g>
<!-- Node17 -->
<g id="node18" class="node"><title>Node17</title>
<polygon fill="none" stroke="#bfbfbf" points="1215,-0.5 1215,-19.5 1261,-19.5 1261,-0.5 1215,-0.5"/>
<text text-anchor="middle" x="1238" y="-7.5" font-family="Helvetica,sans-Serif" font-size="10.00">cctype</text>
</g>
<!-- Node0&#45;&gt;Node17 -->
<g id="edge39" class="edge"><title>Node0&#45;&gt;Node17</title>
<path fill="none" stroke="midnightblue" d="M1173.54,-112.29C1188.39,-88.9564 1212.88,-50.4706 1227.01,-28.2627"/>
<polygon fill="midnightblue" stroke="midnightblue" points="1230.13,-29.8905 1232.54,-19.5748 1224.22,-26.1324 1230.13,-29.8905"/>
</g>
<!-- Node18 -->
<g id="node19" class="node"><title>Node18</title>
<polygon fill="none" stroke="#bfbfbf" points="1279,-0.5 1279,-19.5 1335,-19.5 1335,-0.5 1279,-0.5"/>
<text text-anchor="middle" x="1307" y="-7.5" font-family="Helvetica,sans-Serif" font-size="10.00">algorithm</text>
</g>
<!-- Node0&#45;&gt;Node18 -->
<g id="edge40" class="edge"><title>Node0&#45;&gt;Node18</title>
<path fill="none" stroke="midnightblue" d="M1184.78,-112.29C1213.82,-88.2239 1262.31,-48.0395 1288.63,-26.2204"/>
<polygon fill="midnightblue" stroke="midnightblue" points="1291.19,-28.6507 1296.65,-19.5748 1286.72,-23.2611 1291.19,-28.6507"/>
</g>
<!-- Node19 -->
<g id="node20" class="node"><title>Node19</title>
<polygon fill="none" stroke="#bfbfbf" points="1353.5,-0.5 1353.5,-19.5 1400.5,-19.5 1400.5,-0.5 1353.5,-0.5"/>
<text text-anchor="middle" x="1377" y="-7.5" font-family="Helvetica,sans-Serif" font-size="10.00">iterator</text>
</g>
<!-- Node0&#45;&gt;Node19 -->
<g id="edge41" class="edge"><title>Node0&#45;&gt;Node19</title>
<path fill="none" stroke="midnightblue" d="M1196.18,-112.29C1240.27,-87.5961 1314.64,-45.932 1352.81,-24.551"/>
<polygon fill="midnightblue" stroke="midnightblue" points="1354.68,-27.5157 1361.69,-19.5748 1351.26,-21.4086 1354.68,-27.5157"/>
</g>
<!-- Node20 -->
<g id="node21" class="node"><title>Node20</title>
<polygon fill="none" stroke="#bfbfbf" points="1418.5,-0.5 1418.5,-19.5 1467.5,-19.5 1467.5,-0.5 1418.5,-0.5"/>
<text text-anchor="middle" x="1443" y="-7.5" font-family="Helvetica,sans-Serif" font-size="10.00">cstddef</text>
</g>
<!-- Node0&#45;&gt;Node20 -->
<g id="edge42" class="edge"><title>Node0&#45;&gt;Node20</title>
<path fill="none" stroke="midnightblue" d="M1207.86,-112.462C1233.14,-101.833 1264.85,-88.3654 1293,-76 1312.67,-67.3602 1317.33,-64.6422 1337,-56 1362.44,-44.8207 1391.5,-32.5159 1412.75,-23.6031"/>
<polygon fill="midnightblue" stroke="midnightblue" points="1414.34,-26.7315 1422.22,-19.6416 1411.64,-20.2743 1414.34,-26.7315"/>
</g>
<!-- Node21 -->
<g id="node22" class="node"><title>Node21</title>
<polygon fill="none" stroke="#bfbfbf" points="1486,-0.5 1486,-19.5 1538,-19.5 1538,-0.5 1486,-0.5"/>
<text text-anchor="middle" x="1512" y="-7.5" font-family="Helvetica,sans-Serif" font-size="10.00">ostream</text>
</g>
<!-- Node0&#45;&gt;Node21 -->
<g id="edge44" class="edge"><title>Node0&#45;&gt;Node21</title>
<path fill="none" stroke="midnightblue" d="M1220.15,-113.694C1252.55,-103.316 1293.26,-89.6964 1329,-76 1349.82,-68.0229 1354.17,-63.9314 1375,-56 1408.97,-43.0697 1448.47,-30.3334 1476.3,-21.7292"/>
<polygon fill="midnightblue" stroke="midnightblue" points="1477.46,-25.0337 1485.99,-18.7534 1475.41,-18.3418 1477.46,-25.0337"/>
</g>
<!-- Node22 -->
<g id="node23" class="node"><title>Node22</title>
<polygon fill="none" stroke="#bfbfbf" points="1556.5,-0.5 1556.5,-19.5 1605.5,-19.5 1605.5,-0.5 1556.5,-0.5"/>
<text text-anchor="middle" x="1581" y="-7.5" font-family="Helvetica,sans-Serif" font-size="10.00">cassert</text>
</g>
<!-- Node0&#45;&gt;Node22 -->
<g id="edge45" class="edge"><title>Node0&#45;&gt;Node22</title>
<path fill="none" stroke="midnightblue" d="M1220.41,-118.039C1261.69,-107.79 1317.73,-92.7752 1366,-76 1387.44,-68.5473 1391.54,-63.3996 1413,-56 1416.22,-54.8888 1498.56,-32.9375 1546.74,-20.1117"/>
<polygon fill="midnightblue" stroke="midnightblue" points="1547.7,-23.4781 1556.47,-17.5241 1545.9,-16.7135 1547.7,-23.4781"/>
</g>
<!-- Node23 -->
<g id="node24" class="node"><title>Node23</title>
<polygon fill="none" stroke="#bfbfbf" points="1624,-0.5 1624,-19.5 1670,-19.5 1670,-0.5 1624,-0.5"/>
<text text-anchor="middle" x="1647" y="-7.5" font-family="Helvetica,sans-Serif" font-size="10.00">cstring</text>
</g>
<!-- Node0&#45;&gt;Node23 -->
<g id="edge46" class="edge"><title>Node0&#45;&gt;Node23</title>
<path fill="none" stroke="midnightblue" d="M1220.22,-121.381C1269.92,-111.752 1342.45,-96.0161 1404,-76 1425.59,-68.9794 1429.38,-62.9081 1451,-56 1519.17,-34.2232 1540.84,-37.7608 1614.26,-20.0431"/>
<polygon fill="midnightblue" stroke="midnightblue" points="1615.1,-23.4408 1623.97,-17.6495 1613.42,-16.6442 1615.1,-23.4408"/>
</g>
<!-- Node24 -->
<g id="node25" class="node"><title>Node24</title>
<polygon fill="none" stroke="#bfbfbf" points="1688,-0.5 1688,-19.5 1742,-19.5 1742,-0.5 1688,-0.5"/>
<text text-anchor="middle" x="1715" y="-7.5" font-family="Helvetica,sans-Serif" font-size="10.00">iostream</text>
</g>
<!-- Node0&#45;&gt;Node24 -->
<g id="edge47" class="edge"><title>Node0&#45;&gt;Node24</title>
<path fill="none" stroke="midnightblue" d="M1220.27,-123.817C1277.75,-115.036 1367.02,-99.1536 1442,-76 1463.69,-69.3017 1467.28,-62.5956 1489,-56 1568.27,-31.9316 1593.26,-37.9377 1678.11,-20.0635"/>
<polygon fill="midnightblue" stroke="midnightblue" points="1678.88,-23.4793 1687.91,-17.9498 1677.4,-16.6366 1678.88,-23.4793"/>
</g>
<!-- Node25 -->
<g id="node26" class="node"><title>Node25</title>
<polygon fill="none" stroke="#bfbfbf" points="1760,-0.5 1760,-19.5 1808,-19.5 1808,-0.5 1760,-0.5"/>
<text text-anchor="middle" x="1784" y="-7.5" font-family="Helvetica,sans-Serif" font-size="10.00">stdlib.h</text>
</g>
<!-- Node0&#45;&gt;Node25 -->
<g id="edge48" class="edge"><title>Node0&#45;&gt;Node25</title>
<path fill="none" stroke="midnightblue" d="M1220.14,-125.722C1284.89,-117.906 1391.31,-102.277 1480,-76 1501.77,-69.5509 1505.19,-62.2919 1527,-56 1620.86,-28.9265 1650.59,-40.5084 1750.07,-19.9756"/>
<polygon fill="midnightblue" stroke="midnightblue" points="1750.87,-23.3852 1759.92,-17.886 1749.41,-16.5376 1750.87,-23.3852"/>
</g>
<!-- Node26 -->
<g id="node27" class="node"><title>Node26</title>
<polygon fill="none" stroke="#bfbfbf" points="1826.5,-0.5 1826.5,-19.5 1869.5,-19.5 1869.5,-0.5 1826.5,-0.5"/>
<text text-anchor="middle" x="1848" y="-7.5" font-family="Helvetica,sans-Serif" font-size="10.00">pwd.h</text>
</g>
<!-- Node0&#45;&gt;Node26 -->
<g id="edge52" class="edge"><title>Node0&#45;&gt;Node26</title>
<path fill="none" stroke="midnightblue" d="M1220.08,-127.229C1291.68,-120.426 1415.47,-105.367 1518,-76 1539.82,-69.7491 1543.13,-62.1013 1565,-56 1670.89,-26.454 1704.5,-42.8368 1816.43,-19.8026"/>
<polygon fill="midnightblue" stroke="midnightblue" points="1817.36,-23.1828 1826.42,-17.686 1815.91,-16.3349 1817.36,-23.1828"/>
</g>
<!-- Node27 -->
<g id="node28" class="node"><title>Node27</title>
<polygon fill="none" stroke="#bfbfbf" points="1888,-0.5 1888,-19.5 1932,-19.5 1932,-0.5 1888,-0.5"/>
<text text-anchor="middle" x="1910" y="-7.5" font-family="Helvetica,sans-Serif" font-size="10.00">time.h</text>
</g>
<!-- Node0&#45;&gt;Node27 -->
<g id="edge53" class="edge"><title>Node0&#45;&gt;Node27</title>
<path fill="none" stroke="midnightblue" d="M1220.09,-129.209C1298.38,-124.257 1440.11,-110.915 1556,-76 1575.8,-70.0359 1578.16,-61.8312 1598,-56 1715.73,-21.3901 1753.8,-44.3919 1877.88,-19.9181"/>
<polygon fill="midnightblue" stroke="midnightblue" points="1878.65,-23.3321 1887.75,-17.9068 1877.26,-16.4729 1878.65,-23.3321"/>
</g>
<!-- Node28 -->
<g id="node29" class="node"><title>Node28</title>
<polygon fill="none" stroke="#bfbfbf" points="1607,-56.5 1607,-75.5 1675,-75.5 1675,-56.5 1607,-56.5"/>
<text text-anchor="middle" x="1641" y="-63.5" font-family="Helvetica,sans-Serif" font-size="10.00">sys/types.h</text>
</g>
<!-- Node0&#45;&gt;Node28 -->
<g id="edge49" class="edge"><title>Node0&#45;&gt;Node28</title>
<path fill="none" stroke="midnightblue" d="M1220.2,-125.398C1303.56,-115.857 1460.23,-97.0358 1593,-76 1594.27,-75.7985 1595.56,-75.5892 1596.86,-75.3738"/>
<polygon fill="midnightblue" stroke="midnightblue" points="1597.7,-78.7819 1606.95,-73.6294 1596.5,-71.8843 1597.7,-78.7819"/>
</g>
<!-- Node29 -->
<g id="node30" class="node"><title>Node29</title>
<polygon fill="none" stroke="#bfbfbf" points="1693,-56.5 1693,-75.5 1755,-75.5 1755,-56.5 1693,-56.5"/>
<text text-anchor="middle" x="1724" y="-63.5" font-family="Helvetica,sans-Serif" font-size="10.00">sys/ioctl.h</text>
</g>
<!-- Node0&#45;&gt;Node29 -->
<g id="edge51" class="edge"><title>Node0&#45;&gt;Node29</title>
<path fill="none" stroke="midnightblue" d="M1220.12,-127.89C1315.5,-120.773 1509.32,-104.298 1682.56,-76.0738"/>
<polygon fill="midnightblue" stroke="midnightblue" points="1683.33,-79.4948 1692.62,-74.4167 1682.19,-72.5877 1683.33,-79.4948"/>
</g>
<!-- Node2 -->
<g id="node3" class="node"><title>Node2</title>
<polygon fill="none" stroke="#bfbfbf" points="859,-0.5 859,-19.5 945,-19.5 945,-0.5 859,-0.5"/>
<text text-anchor="middle" x="902" y="-7.5" font-family="Helvetica,sans-Serif" font-size="10.00">outputListener.h</text>
</g>
<!-- Node1&#45;&gt;Node2 -->
<g id="edge2" class="edge"><title>Node1&#45;&gt;Node2</title>
<path fill="none" stroke="midnightblue" d="M1042.91,-56.5625C1014.76,-47.462 969.753,-32.9083 938.196,-22.7042"/>
<polygon fill="midnightblue" stroke="midnightblue" points="939.053,-19.303 928.462,-19.5565 936.9,-25.9634 939.053,-19.303"/>
</g>
<!-- Node3 -->
<g id="node4" class="node"><title>Node3</title>
<polygon fill="none" stroke="#bfbfbf" points="963.5,-0.5 963.5,-19.5 1070.5,-19.5 1070.5,-0.5 963.5,-0.5"/>
<text text-anchor="middle" x="1017" y="-7.5" font-family="Helvetica,sans-Serif" font-size="10.00">log4cpp/Category.hh</text>
</g>
<!-- Node1&#45;&gt;Node3 -->
<g id="edge3" class="edge"><title>Node1&#45;&gt;Node3</title>
<path fill="none" stroke="midnightblue" d="M1060.41,-56.083C1052.84,-48.2195 1041.62,-36.5688 1032.49,-27.0813"/>
<polygon fill="midnightblue" stroke="midnightblue" points="1034.88,-24.5266 1025.43,-19.7511 1029.84,-29.3821 1034.88,-24.5266"/>
</g>
<!-- Node1&#45;&gt;Node4 -->
<g id="edge4" class="edge"><title>Node1&#45;&gt;Node4</title>
<path fill="none" stroke="midnightblue" d="M1042.87,-64.6467C932.367,-62.9681 492.414,-54.4256 120.279,-20.0278"/>
<polygon fill="midnightblue" stroke="midnightblue" points="120.402,-16.5241 110.12,-19.0806 119.752,-23.4939 120.402,-16.5241"/>
</g>
<!-- Node1&#45;&gt;Node5 -->
<g id="edge5" class="edge"><title>Node1&#45;&gt;Node5</title>
<path fill="none" stroke="midnightblue" d="M1042.82,-64.8067C939.543,-63.7952 550.402,-57.6348 219.85,-19.9281"/>
<polygon fill="midnightblue" stroke="midnightblue" points="219.931,-16.4143 209.596,-18.746 219.129,-23.3682 219.931,-16.4143"/>
</g>
<!-- Node1&#45;&gt;Node6 -->
<g id="edge6" class="edge"><title>Node1&#45;&gt;Node6</title>
<path fill="none" stroke="midnightblue" d="M1042.89,-64.8059C946.51,-63.8078 601.641,-57.7399 308.438,-20.0057"/>
<polygon fill="midnightblue" stroke="midnightblue" points="308.836,-16.528 298.468,-18.7076 307.933,-23.4695 308.836,-16.528"/>
</g>
<!-- Node1&#45;&gt;Node7 -->
<g id="edge7" class="edge"><title>Node1&#45;&gt;Node7</title>
<path fill="none" stroke="midnightblue" d="M1042.83,-64.7339C952.952,-63.5141 648.532,-56.8516 388.371,-19.9768"/>
<polygon fill="midnightblue" stroke="midnightblue" points="388.753,-16.4959 378.357,-18.5393 387.758,-23.4248 388.753,-16.4959"/>
</g>
<!-- Node1&#45;&gt;Node8 -->
<g id="edge8" class="edge"><title>Node1&#45;&gt;Node8</title>
<path fill="none" stroke="midnightblue" d="M1042.8,-64.8077C958.818,-63.8286 688.753,-57.8675 457.451,-19.9494"/>
<polygon fill="midnightblue" stroke="midnightblue" points="457.948,-16.4839 447.509,-18.2956 456.799,-23.3891 457.948,-16.4839"/>
</g>
<!-- Node1&#45;&gt;Node9 -->
<g id="edge9" class="edge"><title>Node1&#45;&gt;Node9</title>
<path fill="none" stroke="midnightblue" d="M1042.83,-64.8146C964.303,-63.8511 723.873,-57.9294 516.371,-19.6236"/>
<polygon fill="midnightblue" stroke="midnightblue" points="516.99,-16.1786 506.516,-17.7749 515.699,-23.0586 516.99,-16.1786"/>
</g>
<!-- Node1&#45;&gt;Node10 -->
<g id="edge10" class="edge"><title>Node1&#45;&gt;Node10</title>
<path fill="none" stroke="midnightblue" d="M1042.89,-64.0256C971.395,-61.0501 766.375,-50.4605 587.142,-19.9388"/>
<polygon fill="midnightblue" stroke="midnightblue" points="587.726,-16.4879 577.276,-18.2338 586.534,-23.3857 587.726,-16.4879"/>
</g>
<!-- Node1&#45;&gt;Node11 -->
<g id="edge11" class="edge"><title>Node1&#45;&gt;Node11</title>
<path fill="none" stroke="midnightblue" d="M1042.65,-63.797C977.423,-60.4792 803.19,-49.5403 649.339,-19.9405"/>
<polygon fill="midnightblue" stroke="midnightblue" points="649.722,-16.4492 639.236,-17.9637 648.377,-23.3189 649.722,-16.4492"/>
</g>
<!-- Node1&#45;&gt;Node12 -->
<g id="edge12" class="edge"><title>Node1&#45;&gt;Node12</title>
<path fill="none" stroke="midnightblue" d="M1042.64,-63.1291C984.459,-58.6959 840.587,-46.0683 711.317,-19.9806"/>
<polygon fill="midnightblue" stroke="midnightblue" points="711.745,-16.4955 701.246,-17.9142 710.338,-23.3527 711.745,-16.4955"/>
</g>
<!-- Node1&#45;&gt;Node13 -->
<g id="edge13" class="edge"><title>Node1&#45;&gt;Node13</title>
<path fill="none" stroke="midnightblue" d="M1042.97,-62.2285C992.612,-56.6184 878.268,-42.6649 773.083,-19.9933"/>
<polygon fill="midnightblue" stroke="midnightblue" points="773.777,-16.5626 763.26,-17.8445 772.281,-23.4009 773.777,-16.5626"/>
</g>
<!-- Node1&#45;&gt;Node14 -->
<g id="edge14" class="edge"><title>Node1&#45;&gt;Node14</title>
<path fill="none" stroke="midnightblue" d="M1043,-59.8685C1003.7,-52.0675 926.591,-36.5829 850.967,-20.1693"/>
<polygon fill="midnightblue" stroke="midnightblue" points="851.31,-16.6618 840.794,-17.9534 849.82,-23.5015 851.31,-16.6618"/>
</g>
<!-- Node1&#45;&gt;Node15 -->
<g id="edge15" class="edge"><title>Node1&#45;&gt;Node15</title>
<path fill="none" stroke="midnightblue" d="M1075.94,-56.083C1081.93,-48.3768 1090.75,-37.0333 1098.05,-27.6531"/>
<polygon fill="midnightblue" stroke="midnightblue" points="1100.82,-29.7934 1104.19,-19.7511 1095.29,-25.4958 1100.82,-29.7934"/>
</g>
<!-- Node1&#45;&gt;Node16 -->
<g id="edge16" class="edge"><title>Node1&#45;&gt;Node16</title>
<path fill="none" stroke="midnightblue" d="M1085.87,-56.324C1102.71,-47.6641 1128.81,-34.2424 1148.24,-24.249"/>
<polygon fill="midnightblue" stroke="midnightblue" points="1149.88,-27.3405 1157.17,-19.6545 1146.68,-21.1155 1149.88,-27.3405"/>
</g>
<!-- Node1&#45;&gt;Node17 -->
<g id="edge17" class="edge"><title>Node1&#45;&gt;Node17</title>
<path fill="none" stroke="midnightblue" d="M1095.04,-56.6808C1124.61,-47.2306 1172.93,-31.7916 1205.09,-21.5147"/>
<polygon fill="midnightblue" stroke="midnightblue" points="1206.46,-24.7513 1214.92,-18.3736 1204.33,-18.0834 1206.46,-24.7513"/>
</g>
<!-- Node1&#45;&gt;Node18 -->
<g id="edge18" class="edge"><title>Node1&#45;&gt;Node18</title>
<path fill="none" stroke="midnightblue" d="M1095.05,-59.3271C1131.61,-51.3321 1200.47,-36.1493 1268.68,-20.2786"/>
<polygon fill="midnightblue" stroke="midnightblue" points="1269.79,-23.6133 1278.73,-17.9328 1268.2,-16.7964 1269.79,-23.6133"/>
</g>
<!-- Node1&#45;&gt;Node19 -->
<g id="edge19" class="edge"><title>Node1&#45;&gt;Node19</title>
<path fill="none" stroke="midnightblue" d="M1095.33,-61.6204C1142.87,-55.3217 1246.3,-40.7088 1343.31,-19.947"/>
<polygon fill="midnightblue" stroke="midnightblue" points="1344.25,-23.3251 1353.28,-17.7862 1342.77,-16.4839 1344.25,-23.3251"/>
</g>
<!-- Node1&#45;&gt;Node20 -->
<g id="edge20" class="edge"><title>Node1&#45;&gt;Node20</title>
<path fill="none" stroke="midnightblue" d="M1095.2,-62.6784C1150.99,-57.493 1285.7,-43.6771 1408.27,-19.907"/>
<polygon fill="midnightblue" stroke="midnightblue" points="1409.07,-23.3181 1418.2,-17.9539 1407.71,-16.4497 1409.07,-23.3181"/>
</g>
<!-- Node1&#45;&gt;Node21 -->
<g id="edge21" class="edge"><title>Node1&#45;&gt;Node21</title>
<path fill="none" stroke="midnightblue" d="M1095.36,-63.3223C1158.95,-59.0144 1325.88,-46.1468 1475.46,-19.8341"/>
<polygon fill="midnightblue" stroke="midnightblue" points="1476.51,-23.2017 1485.74,-17.999 1475.28,-16.3106 1476.51,-23.2017"/>
</g>
<!-- Node1&#45;&gt;Node22 -->
<g id="edge22" class="edge"><title>Node1&#45;&gt;Node22</title>
<path fill="none" stroke="midnightblue" d="M1095.11,-64.0546C1166.1,-61.1657 1368.61,-50.8053 1546.18,-19.8422"/>
<polygon fill="midnightblue" stroke="midnightblue" points="1546.99,-23.2538 1556.22,-18.0639 1545.77,-16.361 1546.99,-23.2538"/>
</g>
<!-- Node1&#45;&gt;Node23 -->
<g id="edge23" class="edge"><title>Node1&#45;&gt;Node23</title>
<path fill="none" stroke="midnightblue" d="M1095.09,-64.6205C1172.8,-63.1188 1409.46,-55.8553 1613.69,-19.9003"/>
<polygon fill="midnightblue" stroke="midnightblue" points="1614.47,-23.3164 1623.7,-18.1105 1613.24,-16.4258 1614.47,-23.3164"/>
</g>
<!-- Node1&#45;&gt;Node24 -->
<g id="edge24" class="edge"><title>Node1&#45;&gt;Node24</title>
<path fill="none" stroke="midnightblue" d="M1095.05,-64.6698C1178.56,-63.2774 1447.14,-56.2115 1678.05,-19.8679"/>
<polygon fill="midnightblue" stroke="midnightblue" points="1678.65,-23.3161 1687.98,-18.2836 1677.55,-16.4036 1678.65,-23.3161"/>
</g>
<!-- Node1&#45;&gt;Node25 -->
<g id="edge25" class="edge"><title>Node1&#45;&gt;Node25</title>
<path fill="none" stroke="midnightblue" d="M1095.23,-65.1506C1185.32,-65.2749 1490.34,-62.4426 1749.98,-19.8149"/>
<polygon fill="midnightblue" stroke="midnightblue" points="1750.68,-23.246 1759.97,-18.1507 1749.53,-16.3411 1750.68,-23.246"/>
</g>
<!-- Node1&#45;&gt;Node26 -->
<g id="edge26" class="edge"><title>Node1&#45;&gt;Node26</title>
<path fill="none" stroke="midnightblue" d="M1095.18,-64.2067C1208.02,-60.6703 1654,-45.459 1816.2,-19.6332"/>
<polygon fill="midnightblue" stroke="midnightblue" points="1817.18,-23.0179 1826.46,-17.9167 1816.02,-16.1137 1817.18,-23.0179"/>
</g>
<!-- Node1&#45;&gt;Node27 -->
<g id="edge27" class="edge"><title>Node1&#45;&gt;Node27</title>
<path fill="none" stroke="midnightblue" d="M1095.29,-64.3423C1214.22,-61.2461 1703.35,-47.1892 1877.75,-19.7582"/>
<polygon fill="midnightblue" stroke="midnightblue" points="1878.49,-23.1828 1887.79,-18.1029 1877.35,-16.276 1878.49,-23.1828"/>
</g>
</g>
</svg>
