<?xml version="1.0" encoding="UTF-8" standalone="no"?>
<!DOCTYPE svg PUBLIC "-//W3C//DTD SVG 1.1//EN"
 "http://www.w3.org/Graphics/SVG/1.1/DTD/svg11.dtd">
<!-- Generated by graphviz version 2.38.0 (20140413.2041)
 -->
<!-- Title: /home/mel/projects/Misc/Minecraft Server Service/src/setupServers.cpp Pages: 1 -->
<!--zoomable 218 -->
<svg id="main" version="1.1" xmlns="http://www.w3.org/2000/svg" xmlns:xlink="http://www.w3.org/1999/xlink" xml:space="preserve" onload="init(evt)">
<style type="text/css"><![CDATA[
.edge:hover path { stroke: red; }
.edge:hover polygon { stroke: red; fill: red; }
]]></style>
<script type="text/javascript"><![CDATA[
var edges = document.getElementsByTagName('g');
if (edges && edges.length) {
  for (var i=0;i<edges.length;i++) {
    if (edges[i].id.substr(0,4)=='edge') {
      edges[i].setAttribute('class','edge');
    }
  }
}
]]></script>
        <defs>
                <circle id="rim" cx="0" cy="0" r="7"/>
                <circle id="rim2" cx="0" cy="0" r="3.5"/>
                <g id="zoomPlus">
                        <use xlink:href="#rim" fill="#404040">
                                <set attributeName="fill" to="#808080" begin="zoomplus.mouseover" end="zoomplus.mouseout"/>
                        </use>
                        <path d="M-4,0h8M0,-4v8" fill="none" stroke="white" stroke-width="1.5" pointer-events="none"/>
                </g>
                <g id="zoomMin">
                        <use xlink:href="#rim" fill="#404040">
                                <set attributeName="fill" to="#808080" begin="zoomminus.mouseover" end="zoomminus.mouseout"/>
                        </use>
                        <path d="M-4,0h8" fill="none" stroke="white" stroke-width="1.5" pointer-events="none"/>
                </g>
                <g id="dirArrow">
                        <path fill="none" stroke="white" stroke-width="1.5" d="M0,-3.0v7 M-2.5,-0.5L0,-3.0L2.5,-0.5"/>
                </g>
               <g id="resetDef">
                       <use xlink:href="#rim2" fill="#404040">
                               <set attributeName="fill" to="#808080" begin="reset.mouseover" end="reset.mouseout"/>
                       </use>
               </g>
        </defs>

<script type="text/javascript">
var viewWidth = 2385;
var viewHeight = 218;
var sectionId = 'dynsection-0';
</script>
<script xlink:href="svgpan.js"/>
<svg id="graph" class="graph">
<g id="viewport">
<title>/home/mel/projects/Misc/Minecraft Server Service/src/setupServers.cpp</title>
<!-- Node0 -->
<g id="node1" class="node"><title>Node0</title>
<polygon fill="#bfbfbf" stroke="black" points="1246.5,-168.5 1246.5,-209.5 1395.5,-209.5 1395.5,-168.5 1246.5,-168.5"/>
<text text-anchor="start" x="1254.5" y="-197.5" font-family="Helvetica,sans-Serif" font-size="10.00">/home/mel/projects</text>
<text text-anchor="start" x="1254.5" y="-186.5" font-family="Helvetica,sans-Serif" font-size="10.00">/Misc/Minecraft Server</text>
<text text-anchor="middle" x="1321" y="-175.5" font-family="Helvetica,sans-Serif" font-size="10.00"> Service/src/setupServers.cpp</text>
</g>
<!-- Node1 -->
<g id="node2" class="node"><title>Node1</title>
<g id="a_node2"><a xlink:href="setup_servers_8h.html" target="_top" xlink:title="setupServers.h">
<polygon fill="none" stroke="black" points="1000.5,-112.5 1000.5,-131.5 1083.5,-131.5 1083.5,-112.5 1000.5,-112.5"/>
<text text-anchor="middle" x="1042" y="-119.5" font-family="Helvetica,sans-Serif" font-size="10.00">setupServers.h</text>
</a>
</g>
</g>
<!-- Node0&#45;&gt;Node1 -->
<g id="edge1" class="edge"><title>Node0&#45;&gt;Node1</title>
<path fill="none" stroke="midnightblue" d="M1246.23,-170.581C1196.02,-158.884 1131.44,-143.837 1088.48,-133.828"/>
<polygon fill="midnightblue" stroke="midnightblue" points="1089.12,-130.383 1078.58,-131.523 1087.53,-137.2 1089.12,-130.383"/>
</g>
<!-- Node2 -->
<g id="node3" class="node"><title>Node2</title>
<g id="a_node3"><a xlink:href="server_8h.html" target="_top" xlink:title="server.h">
<polygon fill="none" stroke="black" points="1123,-56.5 1123,-75.5 1175,-75.5 1175,-56.5 1123,-56.5"/>
<text text-anchor="middle" x="1149" y="-63.5" font-family="Helvetica,sans-Serif" font-size="10.00">server.h</text>
</a>
</g>
</g>
<!-- Node0&#45;&gt;Node2 -->
<g id="edge31" class="edge"><title>Node0&#45;&gt;Node2</title>
<path fill="none" stroke="midnightblue" d="M1253.02,-168.38C1230.94,-159.718 1207.4,-147.824 1189,-132 1174.12,-119.209 1163.08,-99.4707 1156.4,-85.1"/>
<polygon fill="midnightblue" stroke="midnightblue" points="1159.53,-83.5249 1152.33,-75.7606 1153.12,-86.3257 1159.53,-83.5249"/>
</g>
<!-- Node4 -->
<g id="node5" class="node"><title>Node4</title>
<polygon fill="none" stroke="#bfbfbf" points="1570.5,-0.5 1570.5,-19.5 1677.5,-19.5 1677.5,-0.5 1570.5,-0.5"/>
<text text-anchor="middle" x="1624" y="-7.5" font-family="Helvetica,sans-Serif" font-size="10.00">log4cpp/Category.hh</text>
</g>
<!-- Node0&#45;&gt;Node4 -->
<g id="edge75" class="edge"><title>Node0&#45;&gt;Node4</title>
<path fill="none" stroke="midnightblue" d="M1262.61,-168.421C1232.63,-155.048 1205.53,-135.516 1222,-112 1263.78,-52.3479 1305.7,-75.0138 1376,-56 1410.01,-46.8015 1499.37,-31.3692 1560.98,-21.1856"/>
<polygon fill="midnightblue" stroke="midnightblue" points="1561.7,-24.6143 1571,-19.5356 1560.56,-17.7074 1561.7,-24.6143"/>
</g>
<!-- Node10 -->
<g id="node11" class="node"><title>Node10</title>
<polygon fill="none" stroke="#bfbfbf" points="2018.5,-0.5 2018.5,-19.5 2059.5,-19.5 2059.5,-0.5 2018.5,-0.5"/>
<text text-anchor="middle" x="2039" y="-7.5" font-family="Helvetica,sans-Serif" font-size="10.00">string</text>
</g>
<!-- Node0&#45;&gt;Node10 -->
<g id="edge74" class="edge"><title>Node0&#45;&gt;Node10</title>
<path fill="none" stroke="midnightblue" d="M1395.83,-185.474C1486.07,-180.882 1641.6,-168.003 1770,-132 1865.06,-105.345 1969.5,-50.2147 2015.28,-24.6138"/>
<polygon fill="midnightblue" stroke="midnightblue" points="2017.15,-27.5809 2024.14,-19.6199 2013.71,-21.4837 2017.15,-27.5809"/>
</g>
<!-- Node12 -->
<g id="node13" class="node"><title>Node12</title>
<polygon fill="none" stroke="#bfbfbf" points="0,-0.5 0,-19.5 44,-19.5 44,-0.5 0,-0.5"/>
<text text-anchor="middle" x="22" y="-7.5" font-family="Helvetica,sans-Serif" font-size="10.00">vector</text>
</g>
<!-- Node0&#45;&gt;Node12 -->
<g id="edge72" class="edge"><title>Node0&#45;&gt;Node12</title>
<path fill="none" stroke="midnightblue" d="M1246.37,-182.074C1051.04,-165.717 508.96,-114.889 54.2989,-20.0026"/>
<polygon fill="midnightblue" stroke="midnightblue" points="54.7551,-16.5222 44.2496,-17.8951 53.3183,-23.3731 54.7551,-16.5222"/>
</g>
<!-- Node29 -->
<g id="node30" class="node"><title>Node29</title>
<polygon fill="none" stroke="#bfbfbf" points="813,-56.5 813,-75.5 877,-75.5 877,-56.5 813,-56.5"/>
<text text-anchor="middle" x="845" y="-63.5" font-family="Helvetica,sans-Serif" font-size="10.00">json/json.h</text>
</g>
<!-- Node0&#45;&gt;Node29 -->
<g id="edge73" class="edge"><title>Node0&#45;&gt;Node29</title>
<path fill="none" stroke="midnightblue" d="M1246.38,-180.743C1178.68,-172.895 1076.66,-157.888 991,-132 946.81,-118.645 898.389,-95.1932 869.903,-80.41"/>
<polygon fill="midnightblue" stroke="midnightblue" points="871.178,-77.1266 860.698,-75.5734 867.922,-83.3232 871.178,-77.1266"/>
</g>
<!-- Node30 -->
<g id="node31" class="node"><title>Node30</title>
<g id="a_node31"><a xlink:href="vanilla_server_8h.html" target="_top" xlink:title="vanillaServer.h">
<polygon fill="none" stroke="black" points="1231.5,-112.5 1231.5,-131.5 1312.5,-131.5 1312.5,-112.5 1231.5,-112.5"/>
<text text-anchor="middle" x="1272" y="-119.5" font-family="Helvetica,sans-Serif" font-size="10.00">vanillaServer.h</text>
</a>
</g>
</g>
<!-- Node0&#45;&gt;Node30 -->
<g id="edge32" class="edge"><title>Node0&#45;&gt;Node30</title>
<path fill="none" stroke="midnightblue" d="M1306.3,-168.498C1299.44,-159.395 1291.35,-148.662 1284.75,-139.908"/>
<polygon fill="midnightblue" stroke="midnightblue" points="1287.34,-137.531 1278.52,-131.652 1281.75,-141.745 1287.34,-137.531"/>
</g>
<!-- Node31 -->
<g id="node32" class="node"><title>Node31</title>
<g id="a_node32"><a xlink:href="spigot_server_8h.html" target="_top" xlink:title="spigotServer.h">
<polygon fill="none" stroke="black" points="1331,-112.5 1331,-131.5 1411,-131.5 1411,-112.5 1331,-112.5"/>
<text text-anchor="middle" x="1371" y="-119.5" font-family="Helvetica,sans-Serif" font-size="10.00">spigotServer.h</text>
</a>
</g>
</g>
<!-- Node0&#45;&gt;Node31 -->
<g id="edge40" class="edge"><title>Node0&#45;&gt;Node31</title>
<path fill="none" stroke="midnightblue" d="M1336,-168.498C1343.08,-159.299 1351.43,-148.436 1358.21,-139.632"/>
<polygon fill="midnightblue" stroke="midnightblue" points="1361.02,-141.713 1364.34,-131.652 1355.47,-137.445 1361.02,-141.713"/>
</g>
<!-- Node32 -->
<g id="node33" class="node"><title>Node32</title>
<g id="a_node33"><a xlink:href="bukkit_server_8h.html" target="_top" xlink:title="bukkitServer.h">
<polygon fill="none" stroke="black" points="1429,-112.5 1429,-131.5 1509,-131.5 1509,-112.5 1429,-112.5"/>
<text text-anchor="middle" x="1469" y="-119.5" font-family="Helvetica,sans-Serif" font-size="10.00">bukkitServer.h</text>
</a>
</g>
</g>
<!-- Node0&#45;&gt;Node32 -->
<g id="edge48" class="edge"><title>Node0&#45;&gt;Node32</title>
<path fill="none" stroke="midnightblue" d="M1365.4,-168.498C1389.51,-157.909 1418.64,-145.117 1439.86,-135.797"/>
<polygon fill="midnightblue" stroke="midnightblue" points="1441.55,-138.878 1449.3,-131.652 1438.74,-132.469 1441.55,-138.878"/>
</g>
<!-- Node33 -->
<g id="node34" class="node"><title>Node33</title>
<g id="a_node34"><a xlink:href="bungeecord_server_8h.html" target="_top" xlink:title="bungeecordServer.h">
<polygon fill="none" stroke="black" points="1657,-112.5 1657,-131.5 1761,-131.5 1761,-112.5 1657,-112.5"/>
<text text-anchor="middle" x="1709" y="-119.5" font-family="Helvetica,sans-Serif" font-size="10.00">bungeecordServer.h</text>
</a>
</g>
</g>
<!-- Node0&#45;&gt;Node33 -->
<g id="edge56" class="edge"><title>Node0&#45;&gt;Node33</title>
<path fill="none" stroke="midnightblue" d="M1395.81,-175.467C1469.23,-163.168 1579.82,-144.641 1648.05,-133.21"/>
<polygon fill="midnightblue" stroke="midnightblue" points="1648.93,-136.612 1658.21,-131.508 1647.77,-129.708 1648.93,-136.612"/>
</g>
<!-- Node34 -->
<g id="node35" class="node"><title>Node34</title>
<g id="a_node35"><a xlink:href="generic_server_8h.html" target="_top" xlink:title="genericServer.h">
<polygon fill="none" stroke="black" points="1527.5,-112.5 1527.5,-131.5 1612.5,-131.5 1612.5,-112.5 1527.5,-112.5"/>
<text text-anchor="middle" x="1570" y="-119.5" font-family="Helvetica,sans-Serif" font-size="10.00">genericServer.h</text>
</a>
</g>
</g>
<!-- Node0&#45;&gt;Node34 -->
<g id="edge64" class="edge"><title>Node0&#45;&gt;Node34</title>
<path fill="none" stroke="midnightblue" d="M1395.71,-168.498C1438.79,-157.252 1491.39,-143.521 1527.47,-134.103"/>
<polygon fill="midnightblue" stroke="midnightblue" points="1528.39,-137.479 1537.18,-131.567 1526.62,-130.706 1528.39,-137.479"/>
</g>
<!-- Node35 -->
<g id="node36" class="node"><title>Node35</title>
<polygon fill="none" stroke="#bfbfbf" points="2219.5,-112.5 2219.5,-131.5 2376.5,-131.5 2376.5,-112.5 2219.5,-112.5"/>
<text text-anchor="middle" x="2298" y="-119.5" font-family="Helvetica,sans-Serif" font-size="10.00">log4cpp/PropertyConfigurator.hh</text>
</g>
<!-- Node0&#45;&gt;Node35 -->
<g id="edge76" class="edge"><title>Node0&#45;&gt;Node35</title>
<path fill="none" stroke="midnightblue" d="M1395.57,-184.114C1547.81,-175.996 1905.32,-155.986 2205,-132 2206.32,-131.894 2207.65,-131.786 2208.99,-131.676"/>
<polygon fill="midnightblue" stroke="midnightblue" points="2209.7,-135.128 2219.37,-130.794 2209.11,-128.153 2209.7,-135.128"/>
</g>
<!-- Node1&#45;&gt;Node2 -->
<g id="edge2" class="edge"><title>Node1&#45;&gt;Node2</title>
<path fill="none" stroke="midnightblue" d="M1059.19,-112.324C1076.35,-103.664 1102.95,-90.2424 1122.75,-80.249"/>
<polygon fill="midnightblue" stroke="midnightblue" points="1124.5,-83.2847 1131.85,-75.6545 1121.35,-77.0354 1124.5,-83.2847"/>
</g>
<!-- Node1&#45;&gt;Node12 -->
<g id="edge29" class="edge"><title>Node1&#45;&gt;Node12</title>
<path fill="none" stroke="midnightblue" d="M1019.33,-112.406C996.409,-103.613 960.024,-89.3797 929,-76 909.646,-67.6533 906.477,-60.9952 886,-56 529.241,31.0295 420.623,-78.0833 54.287,-19.7732"/>
<polygon fill="midnightblue" stroke="midnightblue" points="54.636,-16.2841 44.2044,-18.1366 53.5144,-23.1937 54.636,-16.2841"/>
</g>
<!-- Node1&#45;&gt;Node29 -->
<g id="edge30" class="edge"><title>Node1&#45;&gt;Node29</title>
<path fill="none" stroke="midnightblue" d="M1010.78,-112.444C977.067,-103.201 923.2,-88.4356 886.068,-78.2572"/>
<polygon fill="midnightblue" stroke="midnightblue" points="886.639,-74.7846 876.069,-75.5164 884.788,-81.5356 886.639,-74.7846"/>
</g>
<!-- Node3 -->
<g id="node4" class="node"><title>Node3</title>
<polygon fill="none" stroke="#bfbfbf" points="326,-0.5 326,-19.5 412,-19.5 412,-0.5 326,-0.5"/>
<text text-anchor="middle" x="369" y="-7.5" font-family="Helvetica,sans-Serif" font-size="10.00">outputListener.h</text>
</g>
<!-- Node2&#45;&gt;Node3 -->
<g id="edge3" class="edge"><title>Node2&#45;&gt;Node3</title>
<path fill="none" stroke="midnightblue" d="M1122.87,-58.4546C1118.27,-57.4944 1113.51,-56.6212 1109,-56 808.923,-14.6926 727.036,-53.3218 422.087,-19.9738"/>
<polygon fill="midnightblue" stroke="midnightblue" points="422.399,-16.487 412.074,-18.8618 421.626,-23.4442 422.399,-16.487"/>
</g>
<!-- Node2&#45;&gt;Node4 -->
<g id="edge4" class="edge"><title>Node2&#45;&gt;Node4</title>
<path fill="none" stroke="midnightblue" d="M1175.16,-58.6226C1179.75,-57.6437 1184.5,-56.7208 1189,-56 1349.81,-30.231 1394.34,-39.3725 1560.34,-20.0164"/>
<polygon fill="midnightblue" stroke="midnightblue" points="1560.89,-23.4762 1570.41,-18.8252 1560.06,-16.5247 1560.89,-23.4762"/>
</g>
<!-- Node5 -->
<g id="node6" class="node"><title>Node5</title>
<polygon fill="none" stroke="#bfbfbf" points="430,-0.5 430,-19.5 540,-19.5 540,-0.5 430,-0.5"/>
<text text-anchor="middle" x="485" y="-7.5" font-family="Helvetica,sans-Serif" font-size="10.00">event2/event&#45;config.h</text>
</g>
<!-- Node2&#45;&gt;Node5 -->
<g id="edge5" class="edge"><title>Node2&#45;&gt;Node5</title>
<path fill="none" stroke="midnightblue" d="M1122.86,-58.5C1118.26,-57.5347 1113.51,-56.6481 1109,-56 865.389,-20.9849 798.854,-44.7382 550.19,-20.0375"/>
<polygon fill="midnightblue" stroke="midnightblue" points="550.427,-16.5437 540.126,-19.0214 549.724,-23.5083 550.427,-16.5437"/>
</g>
<!-- Node6 -->
<g id="node7" class="node"><title>Node6</title>
<polygon fill="none" stroke="#bfbfbf" points="558.5,-0.5 558.5,-19.5 639.5,-19.5 639.5,-0.5 558.5,-0.5"/>
<text text-anchor="middle" x="599" y="-7.5" font-family="Helvetica,sans-Serif" font-size="10.00">event2/event.h</text>
</g>
<!-- Node2&#45;&gt;Node6 -->
<g id="edge6" class="edge"><title>Node2&#45;&gt;Node6</title>
<path fill="none" stroke="midnightblue" d="M1122.85,-58.5528C1118.26,-57.5817 1113.5,-56.6795 1109,-56 909.492,-25.9068 854.163,-45.5406 649.77,-19.9536"/>
<polygon fill="midnightblue" stroke="midnightblue" points="649.968,-16.4507 639.606,-18.6596 649.084,-23.3946 649.968,-16.4507"/>
</g>
<!-- Node7 -->
<g id="node8" class="node"><title>Node7</title>
<polygon fill="none" stroke="#bfbfbf" points="658,-0.5 658,-19.5 728,-19.5 728,-0.5 658,-0.5"/>
<text text-anchor="middle" x="693" y="-7.5" font-family="Helvetica,sans-Serif" font-size="10.00">event2/util.h</text>
</g>
<!-- Node2&#45;&gt;Node7 -->
<g id="edge7" class="edge"><title>Node2&#45;&gt;Node7</title>
<path fill="none" stroke="midnightblue" d="M1122.84,-58.6226C1118.25,-57.6437 1113.5,-56.7208 1109,-56 948.19,-30.231 903.016,-44.109 738.011,-19.9934"/>
<polygon fill="midnightblue" stroke="midnightblue" points="738.411,-16.5145 728.005,-18.5064 737.382,-23.4385 738.411,-16.5145"/>
</g>
<!-- Node8 -->
<g id="node9" class="node"><title>Node8</title>
<polygon fill="none" stroke="#bfbfbf" points="746,-0.5 746,-19.5 808,-19.5 808,-0.5 746,-0.5"/>
<text text-anchor="middle" x="777" y="-7.5" font-family="Helvetica,sans-Serif" font-size="10.00">sys/wait.h</text>
</g>
<!-- Node2&#45;&gt;Node8 -->
<g id="edge8" class="edge"><title>Node2&#45;&gt;Node8</title>
<path fill="none" stroke="midnightblue" d="M1122.82,-58.7219C1118.23,-57.732 1113.49,-56.7797 1109,-56 983.314,-34.1674 947.564,-41.9699 818.27,-20.0697"/>
<polygon fill="midnightblue" stroke="midnightblue" points="818.833,-16.6152 808.384,-18.3688 817.646,-23.5139 818.833,-16.6152"/>
</g>
<!-- Node9 -->
<g id="node10" class="node"><title>Node9</title>
<polygon fill="none" stroke="#bfbfbf" points="826.5,-0.5 826.5,-19.5 877.5,-19.5 877.5,-0.5 826.5,-0.5"/>
<text text-anchor="middle" x="852" y="-7.5" font-family="Helvetica,sans-Serif" font-size="10.00">unistd.h</text>
</g>
<!-- Node2&#45;&gt;Node9 -->
<g id="edge9" class="edge"><title>Node2&#45;&gt;Node9</title>
<path fill="none" stroke="midnightblue" d="M1122.8,-58.8659C1118.21,-57.86 1113.47,-56.865 1109,-56 1013.93,-37.6137 986.535,-40.2741 887.376,-19.9013"/>
<polygon fill="midnightblue" stroke="midnightblue" points="888.055,-16.4676 877.551,-17.8563 886.628,-23.3207 888.055,-16.4676"/>
</g>
<!-- Node2&#45;&gt;Node10 -->
<g id="edge10" class="edge"><title>Node2&#45;&gt;Node10</title>
<path fill="none" stroke="midnightblue" d="M1175.15,-63.4131C1303.75,-55.6107 1868.37,-21.3529 2007.79,-12.8936"/>
<polygon fill="midnightblue" stroke="midnightblue" points="2008.4,-16.3634 2018.17,-12.2641 2007.97,-9.37626 2008.4,-16.3634"/>
</g>
<!-- Node11 -->
<g id="node12" class="node"><title>Node11</title>
<polygon fill="none" stroke="#bfbfbf" points="1757,-0.5 1757,-19.5 1809,-19.5 1809,-0.5 1757,-0.5"/>
<text text-anchor="middle" x="1783" y="-7.5" font-family="Helvetica,sans-Serif" font-size="10.00">sstream</text>
</g>
<!-- Node2&#45;&gt;Node11 -->
<g id="edge11" class="edge"><title>Node2&#45;&gt;Node11</title>
<path fill="none" stroke="midnightblue" d="M1175.18,-64.6798C1257.84,-63.3237 1520.71,-56.3712 1746.68,-19.9301"/>
<polygon fill="midnightblue" stroke="midnightblue" points="1747.43,-23.3542 1756.73,-18.2853 1746.3,-16.446 1747.43,-23.3542"/>
</g>
<!-- Node2&#45;&gt;Node12 -->
<g id="edge12" class="edge"><title>Node2&#45;&gt;Node12</title>
<path fill="none" stroke="midnightblue" d="M1122.87,-58.3852C1118.28,-57.4327 1113.52,-56.5801 1109,-56 646.515,3.38058 518.541,-92.6586 54.1852,-19.7472"/>
<polygon fill="midnightblue" stroke="midnightblue" points="54.6255,-16.2733 44.2003,-18.1616 53.5276,-23.1867 54.6255,-16.2733"/>
</g>
<!-- Node13 -->
<g id="node14" class="node"><title>Node13</title>
<polygon fill="none" stroke="#bfbfbf" points="1827,-0.5 1827,-19.5 1871,-19.5 1871,-0.5 1827,-0.5"/>
<text text-anchor="middle" x="1849" y="-7.5" font-family="Helvetica,sans-Serif" font-size="10.00">thread</text>
</g>
<!-- Node2&#45;&gt;Node13 -->
<g id="edge13" class="edge"><title>Node2&#45;&gt;Node13</title>
<path fill="none" stroke="midnightblue" d="M1175.07,-65.2528C1263.87,-65.6954 1562.66,-63.7451 1816.63,-19.8528"/>
<polygon fill="midnightblue" stroke="midnightblue" points="1817.54,-23.2467 1826.78,-18.071 1816.33,-16.352 1817.54,-23.2467"/>
</g>
<!-- Node14 -->
<g id="node15" class="node"><title>Node14</title>
<polygon fill="none" stroke="#bfbfbf" points="896,-0.5 896,-19.5 940,-19.5 940,-0.5 896,-0.5"/>
<text text-anchor="middle" x="918" y="-7.5" font-family="Helvetica,sans-Serif" font-size="10.00">mutex</text>
</g>
<!-- Node2&#45;&gt;Node14 -->
<g id="edge14" class="edge"><title>Node2&#45;&gt;Node14</title>
<path fill="none" stroke="midnightblue" d="M1122.94,-59.1382C1076.48,-48.691 981.809,-27.3967 950.244,-20.0376"/>
<polygon fill="midnightblue" stroke="midnightblue" points="950.847,-16.5829 940.306,-17.653 949.213,-23.3897 950.847,-16.5829"/>
</g>
<!-- Node15 -->
<g id="node16" class="node"><title>Node15</title>
<polygon fill="none" stroke="#bfbfbf" points="958.5,-0.5 958.5,-19.5 1017.5,-19.5 1017.5,-0.5 958.5,-0.5"/>
<text text-anchor="middle" x="988" y="-7.5" font-family="Helvetica,sans-Serif" font-size="10.00">functional</text>
</g>
<!-- Node2&#45;&gt;Node15 -->
<g id="edge15" class="edge"><title>Node2&#45;&gt;Node15</title>
<path fill="none" stroke="midnightblue" d="M1123.49,-56.4435C1096.4,-47.3591 1053.41,-32.9388 1023.13,-22.7831"/>
<polygon fill="midnightblue" stroke="midnightblue" points="1023.99,-19.3781 1013.39,-19.5164 1021.76,-26.0148 1023.99,-19.3781"/>
</g>
<!-- Node16 -->
<g id="node17" class="node"><title>Node16</title>
<polygon fill="none" stroke="#bfbfbf" points="1035.5,-0.5 1035.5,-19.5 1080.5,-19.5 1080.5,-0.5 1035.5,-0.5"/>
<text text-anchor="middle" x="1058" y="-7.5" font-family="Helvetica,sans-Serif" font-size="10.00">cstdlib</text>
</g>
<!-- Node2&#45;&gt;Node16 -->
<g id="edge16" class="edge"><title>Node2&#45;&gt;Node16</title>
<path fill="none" stroke="midnightblue" d="M1134.38,-56.324C1120.05,-47.8215 1097.99,-34.7288 1081.25,-24.7975"/>
<polygon fill="midnightblue" stroke="midnightblue" points="1082.97,-21.7478 1072.58,-19.6545 1079.4,-27.7677 1082.97,-21.7478"/>
</g>
<!-- Node17 -->
<g id="node18" class="node"><title>Node17</title>
<polygon fill="none" stroke="#bfbfbf" points="1098.5,-0.5 1098.5,-19.5 1143.5,-19.5 1143.5,-0.5 1098.5,-0.5"/>
<text text-anchor="middle" x="1121" y="-7.5" font-family="Helvetica,sans-Serif" font-size="10.00">iosfwd</text>
</g>
<!-- Node2&#45;&gt;Node17 -->
<g id="edge17" class="edge"><title>Node2&#45;&gt;Node17</title>
<path fill="none" stroke="midnightblue" d="M1144.38,-56.083C1140.54,-48.6913 1134.98,-37.9533 1130.24,-28.8111"/>
<polygon fill="midnightblue" stroke="midnightblue" points="1133.25,-27.0175 1125.54,-19.7511 1127.03,-30.2398 1133.25,-27.0175"/>
</g>
<!-- Node18 -->
<g id="node19" class="node"><title>Node18</title>
<polygon fill="none" stroke="#bfbfbf" points="1162,-0.5 1162,-19.5 1208,-19.5 1208,-0.5 1162,-0.5"/>
<text text-anchor="middle" x="1185" y="-7.5" font-family="Helvetica,sans-Serif" font-size="10.00">cctype</text>
</g>
<!-- Node2&#45;&gt;Node18 -->
<g id="edge18" class="edge"><title>Node2&#45;&gt;Node18</title>
<path fill="none" stroke="midnightblue" d="M1154.94,-56.083C1159.98,-48.5341 1167.34,-37.4948 1173.51,-28.2298"/>
<polygon fill="midnightblue" stroke="midnightblue" points="1176.53,-30.0131 1179.17,-19.7511 1170.71,-26.1301 1176.53,-30.0131"/>
</g>
<!-- Node19 -->
<g id="node20" class="node"><title>Node19</title>
<polygon fill="none" stroke="#bfbfbf" points="1226,-0.5 1226,-19.5 1282,-19.5 1282,-0.5 1226,-0.5"/>
<text text-anchor="middle" x="1254" y="-7.5" font-family="Helvetica,sans-Serif" font-size="10.00">algorithm</text>
</g>
<!-- Node2&#45;&gt;Node19 -->
<g id="edge19" class="edge"><title>Node2&#45;&gt;Node19</title>
<path fill="none" stroke="midnightblue" d="M1165.87,-56.324C1182.71,-47.6641 1208.81,-34.2424 1228.24,-24.249"/>
<polygon fill="midnightblue" stroke="midnightblue" points="1229.88,-27.3405 1237.17,-19.6545 1226.68,-21.1155 1229.88,-27.3405"/>
</g>
<!-- Node20 -->
<g id="node21" class="node"><title>Node20</title>
<polygon fill="none" stroke="#bfbfbf" points="1300.5,-0.5 1300.5,-19.5 1347.5,-19.5 1347.5,-0.5 1300.5,-0.5"/>
<text text-anchor="middle" x="1324" y="-7.5" font-family="Helvetica,sans-Serif" font-size="10.00">iterator</text>
</g>
<!-- Node2&#45;&gt;Node20 -->
<g id="edge20" class="edge"><title>Node2&#45;&gt;Node20</title>
<path fill="none" stroke="midnightblue" d="M1175.2,-56.9157C1205.96,-47.4233 1257.04,-31.6625 1290.61,-21.302"/>
<polygon fill="midnightblue" stroke="midnightblue" points="1291.91,-24.566 1300.43,-18.273 1289.84,-17.8772 1291.91,-24.566"/>
</g>
<!-- Node21 -->
<g id="node22" class="node"><title>Node21</title>
<polygon fill="none" stroke="#bfbfbf" points="1365.5,-0.5 1365.5,-19.5 1414.5,-19.5 1414.5,-0.5 1365.5,-0.5"/>
<text text-anchor="middle" x="1390" y="-7.5" font-family="Helvetica,sans-Serif" font-size="10.00">cstddef</text>
</g>
<!-- Node2&#45;&gt;Node21 -->
<g id="edge21" class="edge"><title>Node2&#45;&gt;Node21</title>
<path fill="none" stroke="midnightblue" d="M1175.24,-59.06C1179.83,-58.0325 1184.55,-56.98 1189,-56 1260.11,-40.3363 1280.52,-37.9033 1355.26,-20.0921"/>
<polygon fill="midnightblue" stroke="midnightblue" points="1356.24,-23.4546 1365.15,-17.7201 1354.61,-16.6474 1356.24,-23.4546"/>
</g>
<!-- Node22 -->
<g id="node23" class="node"><title>Node22</title>
<polygon fill="none" stroke="#bfbfbf" points="1433,-0.5 1433,-19.5 1485,-19.5 1485,-0.5 1433,-0.5"/>
<text text-anchor="middle" x="1459" y="-7.5" font-family="Helvetica,sans-Serif" font-size="10.00">ostream</text>
</g>
<!-- Node2&#45;&gt;Node22 -->
<g id="edge22" class="edge"><title>Node2&#45;&gt;Node22</title>
<path fill="none" stroke="midnightblue" d="M1175.2,-58.8353C1179.79,-57.8328 1184.52,-56.8469 1189,-56 1289.26,-37.0317 1318.12,-40.5413 1422.7,-19.8758"/>
<polygon fill="midnightblue" stroke="midnightblue" points="1423.6,-23.2646 1432.72,-17.8683 1422.22,-16.401 1423.6,-23.2646"/>
</g>
<!-- Node23 -->
<g id="node24" class="node"><title>Node23</title>
<polygon fill="none" stroke="#bfbfbf" points="1503.5,-0.5 1503.5,-19.5 1552.5,-19.5 1552.5,-0.5 1503.5,-0.5"/>
<text text-anchor="middle" x="1528" y="-7.5" font-family="Helvetica,sans-Serif" font-size="10.00">cassert</text>
</g>
<!-- Node2&#45;&gt;Node23 -->
<g id="edge23" class="edge"><title>Node2&#45;&gt;Node23</title>
<path fill="none" stroke="midnightblue" d="M1175.17,-58.7023C1179.76,-57.7146 1184.51,-56.768 1189,-56 1320.39,-33.527 1358.15,-44.9596 1493.31,-19.8658"/>
<polygon fill="midnightblue" stroke="midnightblue" points="1494.03,-23.2907 1503.21,-17.995 1492.73,-16.4124 1494.03,-23.2907"/>
</g>
<!-- Node24 -->
<g id="node25" class="node"><title>Node24</title>
<polygon fill="none" stroke="#bfbfbf" points="62,-0.5 62,-19.5 108,-19.5 108,-0.5 62,-0.5"/>
<text text-anchor="middle" x="85" y="-7.5" font-family="Helvetica,sans-Serif" font-size="10.00">cstring</text>
</g>
<!-- Node2&#45;&gt;Node24 -->
<g id="edge24" class="edge"><title>Node2&#45;&gt;Node24</title>
<path fill="none" stroke="midnightblue" d="M1122.87,-58.3936C1118.28,-57.4402 1113.52,-56.5851 1109,-56 674.786,0.235591 554.688,-86.8687 118.316,-19.799"/>
<polygon fill="midnightblue" stroke="midnightblue" points="118.696,-16.3162 108.277,-18.2376 117.62,-23.233 118.696,-16.3162"/>
</g>
<!-- Node25 -->
<g id="node26" class="node"><title>Node25</title>
<polygon fill="none" stroke="#bfbfbf" points="126,-0.5 126,-19.5 180,-19.5 180,-0.5 126,-0.5"/>
<text text-anchor="middle" x="153" y="-7.5" font-family="Helvetica,sans-Serif" font-size="10.00">iostream</text>
</g>
<!-- Node2&#45;&gt;Node25 -->
<g id="edge25" class="edge"><title>Node2&#45;&gt;Node25</title>
<path fill="none" stroke="midnightblue" d="M1122.87,-58.4044C1118.28,-57.4498 1113.52,-56.5915 1109,-56 706.531,-3.29534 595.859,-76.7285 189.957,-19.7988"/>
<polygon fill="midnightblue" stroke="midnightblue" points="190.401,-16.3268 180.008,-18.3857 189.417,-23.2573 190.401,-16.3268"/>
</g>
<!-- Node26 -->
<g id="node27" class="node"><title>Node26</title>
<polygon fill="none" stroke="#bfbfbf" points="198,-0.5 198,-19.5 246,-19.5 246,-0.5 198,-0.5"/>
<text text-anchor="middle" x="222" y="-7.5" font-family="Helvetica,sans-Serif" font-size="10.00">stdlib.h</text>
</g>
<!-- Node2&#45;&gt;Node26 -->
<g id="edge26" class="edge"><title>Node2&#45;&gt;Node26</title>
<path fill="none" stroke="midnightblue" d="M1122.87,-58.4159C1118.27,-57.46 1113.52,-56.5983 1109,-56 735.708,-6.54288 632.2,-77.0837 256.085,-19.7732"/>
<polygon fill="midnightblue" stroke="midnightblue" points="256.433,-16.2854 246.016,-18.2183 255.364,-23.2034 256.433,-16.2854"/>
</g>
<!-- Node27 -->
<g id="node28" class="node"><title>Node27</title>
<polygon fill="none" stroke="#bfbfbf" points="264.5,-0.5 264.5,-19.5 307.5,-19.5 307.5,-0.5 264.5,-0.5"/>
<text text-anchor="middle" x="286" y="-7.5" font-family="Helvetica,sans-Serif" font-size="10.00">pwd.h</text>
</g>
<!-- Node2&#45;&gt;Node27 -->
<g id="edge27" class="edge"><title>Node2&#45;&gt;Node27</title>
<path fill="none" stroke="midnightblue" d="M1122.87,-58.4285C1118.27,-57.4712 1113.52,-56.6058 1109,-56 763.006,-9.57957 666.423,-76.2663 317.401,-19.5833"/>
<polygon fill="midnightblue" stroke="midnightblue" points="317.965,-16.1291 307.529,-17.9583 316.828,-23.0362 317.965,-16.1291"/>
</g>
<!-- Node28 -->
<g id="node29" class="node"><title>Node28</title>
<polygon fill="none" stroke="#bfbfbf" points="1695,-0.5 1695,-19.5 1739,-19.5 1739,-0.5 1695,-0.5"/>
<text text-anchor="middle" x="1717" y="-7.5" font-family="Helvetica,sans-Serif" font-size="10.00">time.h</text>
</g>
<!-- Node2&#45;&gt;Node28 -->
<g id="edge28" class="edge"><title>Node2&#45;&gt;Node28</title>
<path fill="none" stroke="midnightblue" d="M1175.23,-64.6437C1252.22,-63.2118 1484.25,-56.1367 1684.65,-19.8871"/>
<polygon fill="midnightblue" stroke="midnightblue" points="1685.57,-23.2768 1694.78,-18.0261 1684.31,-16.3922 1685.57,-23.2768"/>
</g>
<!-- Node30&#45;&gt;Node2 -->
<g id="edge33" class="edge"><title>Node30&#45;&gt;Node2</title>
<path fill="none" stroke="midnightblue" d="M1252.51,-112.444C1232.36,-103.596 1200.68,-89.6875 1177.67,-79.5865"/>
<polygon fill="midnightblue" stroke="midnightblue" points="1178.96,-76.3316 1168.4,-75.5164 1176.15,-82.7411 1178.96,-76.3316"/>
</g>
<!-- Node30&#45;&gt;Node4 -->
<g id="edge34" class="edge"><title>Node30&#45;&gt;Node4</title>
<path fill="none" stroke="midnightblue" d="M1290.5,-112.452C1320.09,-99.0236 1380.14,-72.7902 1433,-56 1478.16,-41.6574 1530.62,-29.6176 1569.12,-21.6114"/>
<polygon fill="midnightblue" stroke="midnightblue" points="1570,-25.0035 1579.09,-19.5629 1568.59,-18.1466 1570,-25.0035"/>
</g>
<!-- Node30&#45;&gt;Node10 -->
<g id="edge35" class="edge"><title>Node30&#45;&gt;Node10</title>
<path fill="none" stroke="midnightblue" d="M1312.63,-113.482C1315.79,-112.958 1318.95,-112.458 1322,-112 1454.81,-92.0965 1488.97,-94.3442 1622,-76 1766.68,-56.0489 1938.88,-27.758 2008.02,-16.2115"/>
<polygon fill="midnightblue" stroke="midnightblue" points="2008.93,-19.6085 2018.21,-14.506 2007.77,-12.7045 2008.93,-19.6085"/>
</g>
<!-- Node30&#45;&gt;Node11 -->
<g id="edge36" class="edge"><title>Node30&#45;&gt;Node11</title>
<path fill="none" stroke="midnightblue" d="M1312.56,-113C1393.28,-96.9484 1579.94,-59.1792 1746.71,-20.231"/>
<polygon fill="midnightblue" stroke="midnightblue" points="1747.72,-23.5907 1756.66,-17.9022 1746.12,-16.7752 1747.72,-23.5907"/>
</g>
<!-- Node30&#45;&gt;Node12 -->
<g id="edge37" class="edge"><title>Node30&#45;&gt;Node12</title>
<path fill="none" stroke="midnightblue" d="M1231.29,-118.518C1172.1,-114.122 1059.27,-102.769 967,-76 945.98,-69.9021 943.311,-60.9856 922,-56 548.826,31.303 436.412,-80.3999 54.1477,-19.7484"/>
<polygon fill="midnightblue" stroke="midnightblue" points="54.6338,-16.2816 44.2035,-18.1415 53.5172,-23.192 54.6338,-16.2816"/>
</g>
<!-- Node30&#45;&gt;Node13 -->
<g id="edge38" class="edge"><title>Node30&#45;&gt;Node13</title>
<path fill="none" stroke="midnightblue" d="M1312.64,-113.597C1315.81,-113.047 1318.96,-112.509 1322,-112 1425.35,-94.7172 1451.94,-94.9187 1555,-76 1669.33,-55.0127 1700.41,-49.4259 1816.69,-20.2052"/>
<polygon fill="midnightblue" stroke="midnightblue" points="1817.86,-23.52 1826.7,-17.6839 1816.15,-16.7319 1817.86,-23.52"/>
</g>
<!-- Node30&#45;&gt;Node28 -->
<g id="edge39" class="edge"><title>Node30&#45;&gt;Node28</title>
<path fill="none" stroke="midnightblue" d="M1299.67,-112.492C1342.98,-99.3471 1429.54,-73.7656 1504,-56 1581.07,-37.6104 1604.1,-39.3396 1684.6,-20.1675"/>
<polygon fill="midnightblue" stroke="midnightblue" points="1685.81,-23.4753 1694.71,-17.7231 1684.17,-16.6714 1685.81,-23.4753"/>
</g>
<!-- Node31&#45;&gt;Node2 -->
<g id="edge41" class="edge"><title>Node31&#45;&gt;Node2</title>
<path fill="none" stroke="midnightblue" d="M1335.82,-112.444C1294.6,-102.416 1226.64,-85.8856 1185.04,-75.7674"/>
<polygon fill="midnightblue" stroke="midnightblue" points="1185.87,-72.3654 1175.32,-73.4026 1184.21,-79.167 1185.87,-72.3654"/>
</g>
<!-- Node31&#45;&gt;Node4 -->
<g id="edge42" class="edge"><title>Node31&#45;&gt;Node4</title>
<path fill="none" stroke="midnightblue" d="M1381.78,-112.469C1399.47,-98.8263 1436.2,-72.0112 1471,-56 1503.88,-40.8719 1543.08,-29.46 1573.56,-21.9137"/>
<polygon fill="midnightblue" stroke="midnightblue" points="1574.65,-25.2525 1583.55,-19.5029 1573,-18.448 1574.65,-25.2525"/>
</g>
<!-- Node31&#45;&gt;Node10 -->
<g id="edge43" class="edge"><title>Node31&#45;&gt;Node10</title>
<path fill="none" stroke="midnightblue" d="M1411.05,-113.249C1414.07,-112.785 1417.08,-112.361 1420,-112 1543.1,-96.7703 1864.61,-128.47 1977,-76 1999,-65.7292 2017.17,-43.9105 2028.04,-28.3884"/>
<polygon fill="midnightblue" stroke="midnightblue" points="2031.19,-29.9601 2033.82,-19.6969 2025.37,-26.08 2031.19,-29.9601"/>
</g>
<!-- Node31&#45;&gt;Node11 -->
<g id="edge44" class="edge"><title>Node31&#45;&gt;Node11</title>
<path fill="none" stroke="midnightblue" d="M1411.24,-113.298C1473.83,-101.274 1588.27,-79.0939 1597,-76 1614.99,-69.6261 1617.35,-63.2529 1635,-56 1655.32,-47.6507 1710.12,-31.592 1747.03,-21.0892"/>
<polygon fill="midnightblue" stroke="midnightblue" points="1748.25,-24.3799 1756.92,-18.2852 1746.34,-17.6453 1748.25,-24.3799"/>
</g>
<!-- Node31&#45;&gt;Node12 -->
<g id="edge45" class="edge"><title>Node31&#45;&gt;Node12</title>
<path fill="none" stroke="midnightblue" d="M1330.92,-113.55C1327.57,-112.999 1324.23,-112.474 1321,-112 1181.15,-91.4687 1141.54,-112.582 1005,-76 983.466,-70.2305 980.732,-60.972 959,-56 569.427,33.1312 452.699,-82.7006 54.2673,-19.7643"/>
<polygon fill="midnightblue" stroke="midnightblue" points="54.6316,-16.278 44.2028,-18.1462 53.5204,-23.1893 54.6316,-16.278"/>
</g>
<!-- Node31&#45;&gt;Node13 -->
<g id="edge46" class="edge"><title>Node31&#45;&gt;Node13</title>
<path fill="none" stroke="midnightblue" d="M1411.07,-113.358C1414.09,-112.869 1417.09,-112.41 1420,-112 1501.15,-100.588 1713.33,-111.895 1787,-76 1808.83,-65.365 1827.04,-43.6251 1837.96,-28.2206"/>
<polygon fill="midnightblue" stroke="midnightblue" points="1841.08,-29.8489 1843.78,-19.6038 1835.28,-25.929 1841.08,-29.8489"/>
</g>
<!-- Node31&#45;&gt;Node28 -->
<g id="edge47" class="edge"><title>Node31&#45;&gt;Node28</title>
<path fill="none" stroke="midnightblue" d="M1395.99,-112.458C1433.16,-99.806 1505.29,-75.4836 1567,-56 1607.65,-43.1659 1654.77,-29.1742 1685.19,-20.2561"/>
<polygon fill="midnightblue" stroke="midnightblue" points="1686.21,-23.6023 1694.83,-17.4352 1684.25,-16.8839 1686.21,-23.6023"/>
</g>
<!-- Node32&#45;&gt;Node2 -->
<g id="edge49" class="edge"><title>Node32&#45;&gt;Node2</title>
<path fill="none" stroke="midnightblue" d="M1428.9,-113.577C1425.89,-113.037 1422.9,-112.507 1420,-112 1336.05,-97.3217 1237.26,-81.2099 1185.25,-72.8173"/>
<polygon fill="midnightblue" stroke="midnightblue" points="1185.62,-69.3312 1175.19,-71.1956 1184.5,-76.242 1185.62,-69.3312"/>
</g>
<!-- Node32&#45;&gt;Node4 -->
<g id="edge50" class="edge"><title>Node32&#45;&gt;Node4</title>
<path fill="none" stroke="midnightblue" d="M1468.63,-112.182C1468.54,-98.384 1470.43,-71.6531 1485,-56 1497.31,-42.7763 1538.95,-30.3367 1573.48,-21.9025"/>
<polygon fill="midnightblue" stroke="midnightblue" points="1574.54,-25.2471 1583.46,-19.525 1572.92,-18.4376 1574.54,-25.2471"/>
</g>
<!-- Node32&#45;&gt;Node10 -->
<g id="edge51" class="edge"><title>Node32&#45;&gt;Node10</title>
<path fill="none" stroke="midnightblue" d="M1509.06,-113.274C1512.08,-112.805 1515.08,-112.372 1518,-112 1572.92,-104.988 1970.75,-109.273 2015,-76 2029.25,-65.285 2035.05,-45.1884 2037.4,-30.1656"/>
<polygon fill="midnightblue" stroke="midnightblue" points="2040.91,-30.2474 2038.61,-19.906 2033.96,-29.4265 2040.91,-30.2474"/>
</g>
<!-- Node32&#45;&gt;Node11 -->
<g id="edge52" class="edge"><title>Node32&#45;&gt;Node11</title>
<path fill="none" stroke="midnightblue" d="M1509.03,-112.749C1543.16,-105.105 1593.18,-92.4431 1635,-76 1652.76,-69.0167 1655.7,-64.0669 1673,-56 1698.78,-43.9748 1728.7,-31.849 1750.82,-23.2194"/>
<polygon fill="midnightblue" stroke="midnightblue" points="1752.33,-26.3879 1760.4,-19.5134 1749.81,-19.8601 1752.33,-26.3879"/>
</g>
<!-- Node32&#45;&gt;Node12 -->
<g id="edge53" class="edge"><title>Node32&#45;&gt;Node12</title>
<path fill="none" stroke="midnightblue" d="M1428.93,-113.35C1425.92,-112.863 1422.91,-112.406 1420,-112 1253.29,-88.7749 1206.14,-117.44 1043,-76 1021,-70.4108 1018.15,-60.9594 996,-56 590.012,34.8888 468.983,-85.0067 54.3632,-19.7767"/>
<polygon fill="midnightblue" stroke="midnightblue" points="54.6296,-16.2748 44.2021,-18.1504 53.5233,-23.1869 54.6296,-16.2748"/>
</g>
<!-- Node32&#45;&gt;Node13 -->
<g id="edge54" class="edge"><title>Node32&#45;&gt;Node13</title>
<path fill="none" stroke="midnightblue" d="M1509.08,-113.42C1512.09,-112.917 1515.09,-112.437 1518,-112 1585.93,-101.79 1771.03,-118.489 1825,-76 1839.01,-64.9712 1844.84,-44.9241 1847.27,-29.9987"/>
<polygon fill="midnightblue" stroke="midnightblue" points="1850.77,-30.1744 1848.54,-19.8176 1843.83,-29.3066 1850.77,-30.1744"/>
</g>
<!-- Node32&#45;&gt;Node28 -->
<g id="edge55" class="edge"><title>Node32&#45;&gt;Node28</title>
<path fill="none" stroke="midnightblue" d="M1488.46,-112.368C1532.01,-93.0507 1637.51,-46.2592 1688.48,-23.6481"/>
<polygon fill="midnightblue" stroke="midnightblue" points="1689.91,-26.8454 1697.63,-19.5914 1687.07,-20.4466 1689.91,-26.8454"/>
</g>
<!-- Node33&#45;&gt;Node2 -->
<g id="edge57" class="edge"><title>Node33&#45;&gt;Node2</title>
<path fill="none" stroke="midnightblue" d="M1656.89,-115.611C1645.09,-114.407 1632.62,-113.148 1621,-112 1458.66,-95.9598 1264.8,-77.7863 1185.51,-70.3951"/>
<polygon fill="midnightblue" stroke="midnightblue" points="1185.38,-66.8679 1175.1,-69.4251 1184.73,-73.8377 1185.38,-66.8679"/>
</g>
<!-- Node33&#45;&gt;Node4 -->
<g id="edge58" class="edge"><title>Node33&#45;&gt;Node4</title>
<path fill="none" stroke="midnightblue" d="M1702.33,-112.368C1688.24,-94.135 1655.24,-51.4257 1636.89,-27.6752"/>
<polygon fill="midnightblue" stroke="midnightblue" points="1639.52,-25.3642 1630.64,-19.5914 1633.98,-29.6444 1639.52,-25.3642"/>
</g>
<!-- Node33&#45;&gt;Node10 -->
<g id="edge59" class="edge"><title>Node33&#45;&gt;Node10</title>
<path fill="none" stroke="midnightblue" d="M1734.62,-112.46C1794.71,-92.4315 1944.46,-42.5138 2008.82,-21.0601"/>
<polygon fill="midnightblue" stroke="midnightblue" points="2010.01,-24.353 2018.39,-17.8703 2007.8,-17.7122 2010.01,-24.353"/>
</g>
<!-- Node33&#45;&gt;Node11 -->
<g id="edge60" class="edge"><title>Node33&#45;&gt;Node11</title>
<path fill="none" stroke="midnightblue" d="M1714.81,-112.368C1727.02,-94.2153 1755.55,-51.8015 1771.57,-27.9902"/>
<polygon fill="midnightblue" stroke="midnightblue" points="1774.54,-29.8423 1777.22,-19.5914 1768.73,-25.935 1774.54,-29.8423"/>
</g>
<!-- Node33&#45;&gt;Node12 -->
<g id="edge61" class="edge"><title>Node33&#45;&gt;Node12</title>
<path fill="none" stroke="midnightblue" d="M1656.91,-115.403C1645.11,-114.21 1632.63,-113.007 1621,-112 1395.94,-92.5059 1332.44,-133.562 1114,-76 1094.01,-70.7318 1092.08,-60.9118 1072,-56 855.018,-2.93158 292.948,-54.3619 54.2829,-19.7054"/>
<polygon fill="midnightblue" stroke="midnightblue" points="54.6161,-16.2157 44.2008,-18.1582 53.5542,-23.1347 54.6161,-16.2157"/>
</g>
<!-- Node33&#45;&gt;Node13 -->
<g id="edge62" class="edge"><title>Node33&#45;&gt;Node13</title>
<path fill="none" stroke="midnightblue" d="M1719.99,-112.368C1743.81,-93.6531 1800.44,-49.1509 1830.12,-25.8324"/>
<polygon fill="midnightblue" stroke="midnightblue" points="1832.36,-28.5218 1838.07,-19.5914 1828.04,-23.0176 1832.36,-28.5218"/>
</g>
<!-- Node33&#45;&gt;Node28 -->
<g id="edge63" class="edge"><title>Node33&#45;&gt;Node28</title>
<path fill="none" stroke="midnightblue" d="M1709.63,-112.368C1710.92,-94.617 1713.9,-53.6664 1715.65,-29.5974"/>
<polygon fill="midnightblue" stroke="midnightblue" points="1719.14,-29.819 1716.38,-19.5914 1712.16,-29.3112 1719.14,-29.819"/>
</g>
<!-- Node34&#45;&gt;Node2 -->
<g id="edge65" class="edge"><title>Node34&#45;&gt;Node2</title>
<path fill="none" stroke="midnightblue" d="M1527.46,-113.459C1524.26,-112.947 1521.08,-112.454 1518,-112 1396.43,-94.0789 1251.58,-77.923 1185.32,-70.8199"/>
<polygon fill="midnightblue" stroke="midnightblue" points="1185.32,-67.2999 1175.01,-69.7191 1184.58,-74.2604 1185.32,-67.2999"/>
</g>
<!-- Node34&#45;&gt;Node4 -->
<g id="edge66" class="edge"><title>Node34&#45;&gt;Node4</title>
<path fill="none" stroke="midnightblue" d="M1544.67,-112.411C1516.05,-101.292 1475.57,-80.4193 1493,-56 1502.75,-42.3422 1540.8,-30.2016 1573.4,-21.9832"/>
<polygon fill="midnightblue" stroke="midnightblue" points="1574.42,-25.3365 1583.31,-19.5613 1572.76,-18.5369 1574.42,-25.3365"/>
</g>
<!-- Node34&#45;&gt;Node10 -->
<g id="edge67" class="edge"><title>Node34&#45;&gt;Node10</title>
<path fill="none" stroke="midnightblue" d="M1612.89,-115.846C1624.3,-114.532 1636.61,-113.163 1648,-112 1692.94,-107.41 2022.5,-109.329 2053,-76 2064.65,-63.2683 2057.92,-43.2394 2050.3,-28.7781"/>
<polygon fill="midnightblue" stroke="midnightblue" points="2053.15,-26.708 2045.1,-19.8141 2047.09,-30.2204 2053.15,-26.708"/>
</g>
<!-- Node34&#45;&gt;Node11 -->
<g id="edge68" class="edge"><title>Node34&#45;&gt;Node11</title>
<path fill="none" stroke="midnightblue" d="M1591.66,-112.438C1612.75,-103.891 1645.55,-90.0405 1673,-76 1704.45,-59.9135 1739.34,-38.6877 1761.22,-24.9417"/>
<polygon fill="midnightblue" stroke="midnightblue" points="1763.17,-27.8486 1769.75,-19.5452 1759.43,-21.9326 1763.17,-27.8486"/>
</g>
<!-- Node34&#45;&gt;Node12 -->
<g id="edge69" class="edge"><title>Node34&#45;&gt;Node12</title>
<path fill="none" stroke="midnightblue" d="M1527.48,-113.323C1524.28,-112.842 1521.09,-112.394 1518,-112 1324.68,-87.3579 1270.19,-122.751 1081,-76 1058.96,-70.554 1056.16,-60.9431 1034,-56 824.206,-9.19597 284.494,-53.3398 54.2622,-19.7066"/>
<polygon fill="midnightblue" stroke="midnightblue" points="54.6182,-16.2202 44.2015,-18.1545 53.5509,-23.1383 54.6182,-16.2202"/>
</g>
<!-- Node34&#45;&gt;Node13 -->
<g id="edge70" class="edge"><title>Node34&#45;&gt;Node13</title>
<path fill="none" stroke="midnightblue" d="M1612.72,-115.915C1692.07,-106.268 1854.9,-85.4343 1863,-76 1874.24,-62.9036 1867.58,-42.9359 1860.09,-28.5888"/>
<polygon fill="midnightblue" stroke="midnightblue" points="1863,-26.6323 1854.98,-19.7076 1856.93,-30.1214 1863,-26.6323"/>
</g>
<!-- Node34&#45;&gt;Node28 -->
<g id="edge71" class="edge"><title>Node34&#45;&gt;Node28</title>
<path fill="none" stroke="midnightblue" d="M1581.53,-112.368C1606.55,-93.6531 1666.02,-49.1509 1697.18,-25.8324"/>
<polygon fill="midnightblue" stroke="midnightblue" points="1699.61,-28.385 1705.52,-19.5914 1695.42,-22.7804 1699.61,-28.385"/>
</g>
</g>
</svg>
        <g id="navigator" transform="translate(0 0)" fill="#404254">
                <rect fill="#f2f5e9" fill-opacity="0.5" stroke="#606060" stroke-width=".5" x="0" y="0" width="60" height="60"/>
                <use id="zoomplus" xlink:href="#zoomPlus" x="17" y="9" onmousedown="handleZoom(evt,'in')"/>
                <use id="zoomminus" xlink:href="#zoomMin" x="42" y="9" onmousedown="handleZoom(evt,'out')"/>
                <use id="reset" xlink:href="#resetDef" x="30" y="36" onmousedown="handleReset()"/>
                <g id="arrowUp" xlink:href="#dirArrow" transform="translate(30 24)" onmousedown="handlePan(0,-1)">
                  <use xlink:href="#rim" fill="#404040">
                        <set attributeName="fill" to="#808080" begin="arrowUp.mouseover" end="arrowUp.mouseout"/>
                  </use>
                  <path fill="none" stroke="white" stroke-width="1.5" d="M0,-3.0v7 M-2.5,-0.5L0,-3.0L2.5,-0.5"/>
                </g>
                <g id="arrowRight" xlink:href="#dirArrow" transform="rotate(90) translate(36 -43)" onmousedown="handlePan(1,0)">
                  <use xlink:href="#rim" fill="#404040">
                        <set attributeName="fill" to="#808080" begin="arrowRight.mouseover" end="arrowRight.mouseout"/>
                  </use>
                  <path fill="none" stroke="white" stroke-width="1.5" d="M0,-3.0v7 M-2.5,-0.5L0,-3.0L2.5,-0.5"/>
                </g>
                <g id="arrowDown" xlink:href="#dirArrow" transform="rotate(180) translate(-30 -48)" onmousedown="handlePan(0,1)">
                  <use xlink:href="#rim" fill="#404040">
                        <set attributeName="fill" to="#808080" begin="arrowDown.mouseover" end="arrowDown.mouseout"/>
                  </use>
                  <path fill="none" stroke="white" stroke-width="1.5" d="M0,-3.0v7 M-2.5,-0.5L0,-3.0L2.5,-0.5"/>
                </g>
                <g id="arrowLeft" xlink:href="#dirArrow" transform="rotate(270) translate(-36 17)" onmousedown="handlePan(-1,0)">
                  <use xlink:href="#rim" fill="#404040">
                        <set attributeName="fill" to="#808080" begin="arrowLeft.mouseover" end="arrowLeft.mouseout"/>
                  </use>
                  <path fill="none" stroke="white" stroke-width="1.5" d="M0,-3.0v7 M-2.5,-0.5L0,-3.0L2.5,-0.5"/>
                </g>
        </g>
        <svg viewBox="0 0 15 15" width="100%" height="30px" preserveAspectRatio="xMaxYMin meet">
         <g id="arrow_out" transform="scale(0.3 0.3)">
          <a xlink:href="setup_servers_8cpp__incl_org.svg" target="_base">
           <rect id="button" ry="5" rx="5" y="6" x="6" height="38" width="38"
                fill="#f2f5e9" fill-opacity="0.5" stroke="#606060" stroke-width="1.0"/>
           <path id="arrow"
             d="M 11.500037,31.436501 C 11.940474,20.09759 22.043105,11.32322 32.158766,21.979434 L 37.068811,17.246167 C 37.068811,17.246167 37.088388,32 37.088388,32 L 22.160133,31.978069 C 22.160133,31.978069 26.997745,27.140456 26.997745,27.140456 C 18.528582,18.264221 13.291696,25.230495 11.500037,31.436501 z"
             style="fill:#404040;"/>
          </a>
         </g>
        </svg>
</svg>
