<?xml version="1.0" encoding="UTF-8" standalone="no"?>
<!DOCTYPE svg PUBLIC "-//W3C//DTD SVG 1.1//EN"
 "http://www.w3.org/Graphics/SVG/1.1/DTD/svg11.dtd">
<!-- Generated by graphviz version 2.38.0 (20140413.2041)
 -->
<!-- Title: /home/mel/projects/Misc/Minecraft Server Service/src/setupServers.h Pages: 1 -->
<svg width="443pt" height="128pt"
 viewBox="0.00 0.00 442.50 128.00" xmlns="http://www.w3.org/2000/svg" xmlns:xlink="http://www.w3.org/1999/xlink">
<g id="graph0" class="graph" transform="scale(1 1) rotate(0) translate(4 124)">
<title>/home/mel/projects/Misc/Minecraft Server Service/src/setupServers.h</title>
<!-- Node29 -->
<g id="node1" class="node"><title>Node29</title>
<polygon fill="#bfbfbf" stroke="black" points="132,-78.5 132,-119.5 270,-119.5 270,-78.5 132,-78.5"/>
<text text-anchor="start" x="140" y="-107.5" font-family="Helvetica,sans-Serif" font-size="10.00">/home/mel/projects</text>
<text text-anchor="start" x="140" y="-96.5" font-family="Helvetica,sans-Serif" font-size="10.00">/Misc/Minecraft Server</text>
<text text-anchor="middle" x="201" y="-85.5" font-family="Helvetica,sans-Serif" font-size="10.00"> Service/src/setupServers.h</text>
</g>
<!-- Node30 -->
<g id="node2" class="node"><title>Node30</title>
<g id="a_node2"><a xlink:href="main_8cpp.html" target="_top" xlink:title="/home/mel/projects\l/Misc/Minecraft Server\l Service/src/main.cpp">
<polygon fill="none" stroke="black" points="0,-0.5 0,-41.5 116,-41.5 116,-0.5 0,-0.5"/>
<text text-anchor="start" x="8" y="-29.5" font-family="Helvetica,sans-Serif" font-size="10.00">/home/mel/projects</text>
<text text-anchor="start" x="8" y="-18.5" font-family="Helvetica,sans-Serif" font-size="10.00">/Misc/Minecraft Server</text>
<text text-anchor="middle" x="58" y="-7.5" font-family="Helvetica,sans-Serif" font-size="10.00"> Service/src/main.cpp</text>
</a>
</g>
</g>
<!-- Node29&#45;&gt;Node30 -->
<g id="edge1" class="edge"><title>Node29&#45;&gt;Node30</title>
<path fill="none" stroke="midnightblue" d="M155.14,-73.6266C135.599,-63.2416 113.114,-51.2915 94.7013,-41.5056"/>
<polygon fill="midnightblue" stroke="midnightblue" points="153.701,-76.8256 164.174,-78.4281 156.986,-70.6444 153.701,-76.8256"/>
</g>
<!-- Node31 -->
<g id="node3" class="node"><title>Node31</title>
<g id="a_node3"><a xlink:href="main_loop_8cpp.html" target="_top" xlink:title="/home/mel/projects\l/Misc/Minecraft Server\l Service/src/mainLoop.cpp">
<polygon fill="none" stroke="black" points="134.5,-0.5 134.5,-41.5 267.5,-41.5 267.5,-0.5 134.5,-0.5"/>
<text text-anchor="start" x="142.5" y="-29.5" font-family="Helvetica,sans-Serif" font-size="10.00">/home/mel/projects</text>
<text text-anchor="start" x="142.5" y="-18.5" font-family="Helvetica,sans-Serif" font-size="10.00">/Misc/Minecraft Server</text>
<text text-anchor="middle" x="201" y="-7.5" font-family="Helvetica,sans-Serif" font-size="10.00"> Service/src/mainLoop.cpp</text>
</a>
</g>
</g>
<!-- Node29&#45;&gt;Node31 -->
<g id="edge2" class="edge"><title>Node29&#45;&gt;Node31</title>
<path fill="none" stroke="midnightblue" d="M201,-68.2965C201,-59.3009 201,-49.6532 201,-41.5056"/>
<polygon fill="midnightblue" stroke="midnightblue" points="197.5,-68.4281 201,-78.4281 204.5,-68.4281 197.5,-68.4281"/>
</g>
<!-- Node32 -->
<g id="node4" class="node"><title>Node32</title>
<g id="a_node4"><a xlink:href="setup_servers_8cpp.html" target="_top" xlink:title="/home/mel/projects\l/Misc/Minecraft Server\l Service/src/setupServers.cpp">
<polygon fill="none" stroke="black" points="285.5,-0.5 285.5,-41.5 434.5,-41.5 434.5,-0.5 285.5,-0.5"/>
<text text-anchor="start" x="293.5" y="-29.5" font-family="Helvetica,sans-Serif" font-size="10.00">/home/mel/projects</text>
<text text-anchor="start" x="293.5" y="-18.5" font-family="Helvetica,sans-Serif" font-size="10.00">/Misc/Minecraft Server</text>
<text text-anchor="middle" x="360" y="-7.5" font-family="Helvetica,sans-Serif" font-size="10.00"> Service/src/setupServers.cpp</text>
</a>
</g>
</g>
<!-- Node29&#45;&gt;Node32 -->
<g id="edge3" class="edge"><title>Node29&#45;&gt;Node32</title>
<path fill="none" stroke="midnightblue" d="M251.109,-74.0487C273.039,-63.5665 298.441,-51.4244 319.192,-41.5056"/>
<polygon fill="midnightblue" stroke="midnightblue" points="249.459,-70.9577 241.946,-78.4281 252.478,-77.2733 249.459,-70.9577"/>
</g>
</g>
</svg>
