<?xml version="1.0" encoding="UTF-8" standalone="no"?>
<!DOCTYPE svg PUBLIC "-//W3C//DTD SVG 1.1//EN"
 "http://www.w3.org/Graphics/SVG/1.1/DTD/svg11.dtd">
<!-- Generated by graphviz version 2.38.0 (20140413.2041)
 -->
<!-- Title: Json::BuiltStyledStreamWriter::writeIndent Pages: 1 -->
<!--zoomable 238 -->
<svg id="main" version="1.1" xmlns="http://www.w3.org/2000/svg" xmlns:xlink="http://www.w3.org/1999/xlink" xml:space="preserve" onload="init(evt)">
<style type="text/css"><![CDATA[
.edge:hover path { stroke: red; }
.edge:hover polygon { stroke: red; fill: red; }
]]></style>
<script type="text/javascript"><![CDATA[
var edges = document.getElementsByTagName('g');
if (edges && edges.length) {
  for (var i=0;i<edges.length;i++) {
    if (edges[i].id.substr(0,4)=='edge') {
      edges[i].setAttribute('class','edge');
    }
  }
}
]]></script>
        <defs>
                <circle id="rim" cx="0" cy="0" r="7"/>
                <circle id="rim2" cx="0" cy="0" r="3.5"/>
                <g id="zoomPlus">
                        <use xlink:href="#rim" fill="#404040">
                                <set attributeName="fill" to="#808080" begin="zoomplus.mouseover" end="zoomplus.mouseout"/>
                        </use>
                        <path d="M-4,0h8M0,-4v8" fill="none" stroke="white" stroke-width="1.5" pointer-events="none"/>
                </g>
                <g id="zoomMin">
                        <use xlink:href="#rim" fill="#404040">
                                <set attributeName="fill" to="#808080" begin="zoomminus.mouseover" end="zoomminus.mouseout"/>
                        </use>
                        <path d="M-4,0h8" fill="none" stroke="white" stroke-width="1.5" pointer-events="none"/>
                </g>
                <g id="dirArrow">
                        <path fill="none" stroke="white" stroke-width="1.5" d="M0,-3.0v7 M-2.5,-0.5L0,-3.0L2.5,-0.5"/>
                </g>
               <g id="resetDef">
                       <use xlink:href="#rim2" fill="#404040">
                               <set attributeName="fill" to="#808080" begin="reset.mouseover" end="reset.mouseout"/>
                       </use>
               </g>
        </defs>

<script type="text/javascript">
var viewWidth = 936;
var viewHeight = 238;
var sectionId = 'dynsection-17';
</script>
<script xlink:href="svgpan.js"/>
<svg id="graph" class="graph">
<g id="viewport">
<title>Json::BuiltStyledStreamWriter::writeIndent</title>
<!-- Node121 -->
<g id="node1" class="node"><title>Node121</title>
<polygon fill="#bfbfbf" stroke="black" points="0,-111.427 0,-141.427 149,-141.427 149,-111.427 0,-111.427"/>
<text text-anchor="start" x="8" y="-129.427" font-family="Helvetica,sans-Serif" font-size="10.00">Json::BuiltStyledStreamWriter</text>
<text text-anchor="middle" x="74.5" y="-118.427" font-family="Helvetica,sans-Serif" font-size="10.00">::writeIndent</text>
</g>
<!-- Node122 -->
<g id="node2" class="node"><title>Node122</title>
<g id="a_node2"><a xlink:href="struct_json_1_1_built_styled_stream_writer.html#a2ecffc3d66c4feddf208e5cd3b1c0f18" target="_top" xlink:title="Json::BuiltStyledStreamWriter\l::write">
<polygon fill="none" stroke="black" points="779,-42.4269 779,-72.4269 928,-72.4269 928,-42.4269 779,-42.4269"/>
<text text-anchor="start" x="787" y="-60.4269" font-family="Helvetica,sans-Serif" font-size="10.00">Json::BuiltStyledStreamWriter</text>
<text text-anchor="middle" x="853.5" y="-49.4269" font-family="Helvetica,sans-Serif" font-size="10.00">::write</text>
</a>
</g>
</g>
<!-- Node121&#45;&gt;Node122 -->
<g id="edge1" class="edge"><title>Node121&#45;&gt;Node122</title>
<path fill="none" stroke="midnightblue" d="M95.2275,-103.71C115.334,-82.4459 148.657,-52.1071 185,-39.4269 398.988,35.2336 675.425,-14.6356 794.134,-42.3765"/>
<polygon fill="midnightblue" stroke="midnightblue" points="92.6364,-101.357 88.4369,-111.084 97.7856,-106.099 92.6364,-101.357"/>
</g>
<!-- Node123 -->
<g id="node3" class="node"><title>Node123</title>
<g id="a_node3"><a xlink:href="struct_json_1_1_built_styled_stream_writer.html#acd20e9274bbcf7876ef3af2e7d23a31f" target="_top" xlink:title="Json::BuiltStyledStreamWriter\l::writeArrayValue">
<polygon fill="none" stroke="black" points="409,-162.427 409,-192.427 558,-192.427 558,-162.427 409,-162.427"/>
<text text-anchor="start" x="417" y="-180.427" font-family="Helvetica,sans-Serif" font-size="10.00">Json::BuiltStyledStreamWriter</text>
<text text-anchor="middle" x="483.5" y="-169.427" font-family="Helvetica,sans-Serif" font-size="10.00">::writeArrayValue</text>
</a>
</g>
</g>
<!-- Node121&#45;&gt;Node123 -->
<g id="edge2" class="edge"><title>Node121&#45;&gt;Node123</title>
<path fill="none" stroke="midnightblue" d="M147.401,-143.529C159.887,-146.114 172.783,-148.541 185,-150.427 260.857,-162.135 348.437,-169.33 408.832,-173.317"/>
<polygon fill="midnightblue" stroke="midnightblue" points="148.005,-140.08 137.497,-141.431 146.554,-146.928 148.005,-140.08"/>
</g>
<!-- Node126 -->
<g id="node6" class="node"><title>Node126</title>
<g id="a_node6"><a xlink:href="struct_json_1_1_built_styled_stream_writer.html#a764c6d530b5bd660c4a7d1ad4eff6b8d" target="_top" xlink:title="Json::BuiltStyledStreamWriter\l::writeWithIndent">
<polygon fill="none" stroke="black" points="204.5,-199.427 204.5,-229.427 353.5,-229.427 353.5,-199.427 204.5,-199.427"/>
<text text-anchor="start" x="212.5" y="-217.427" font-family="Helvetica,sans-Serif" font-size="10.00">Json::BuiltStyledStreamWriter</text>
<text text-anchor="middle" x="279" y="-206.427" font-family="Helvetica,sans-Serif" font-size="10.00">::writeWithIndent</text>
</a>
</g>
</g>
<!-- Node121&#45;&gt;Node126 -->
<g id="edge8" class="edge"><title>Node121&#45;&gt;Node126</title>
<path fill="none" stroke="midnightblue" d="M109.92,-146.658C131.118,-158.609 159.105,-173.492 185,-184.427 197.972,-189.905 212.308,-194.984 225.761,-199.348"/>
<polygon fill="midnightblue" stroke="midnightblue" points="111.405,-143.476 100.984,-141.567 107.94,-149.558 111.405,-143.476"/>
</g>
<!-- Node127 -->
<g id="node7" class="node"><title>Node127</title>
<g id="a_node7"><a xlink:href="struct_json_1_1_built_styled_stream_writer.html#a32c4afca4e08fba79bb0a80a8010283a" target="_top" xlink:title="Json::BuiltStyledStreamWriter\l::writeCommentBeforeValue">
<polygon fill="none" stroke="black" points="204.5,-49.4269 204.5,-79.4269 353.5,-79.4269 353.5,-49.4269 204.5,-49.4269"/>
<text text-anchor="start" x="212.5" y="-67.4269" font-family="Helvetica,sans-Serif" font-size="10.00">Json::BuiltStyledStreamWriter</text>
<text text-anchor="middle" x="279" y="-56.4269" font-family="Helvetica,sans-Serif" font-size="10.00">::writeCommentBeforeValue</text>
</a>
</g>
</g>
<!-- Node121&#45;&gt;Node127 -->
<g id="edge11" class="edge"><title>Node121&#45;&gt;Node127</title>
<path fill="none" stroke="midnightblue" d="M134.419,-108.388C164.346,-99.2246 200.292,-88.2191 228.73,-79.512"/>
<polygon fill="midnightblue" stroke="midnightblue" points="133.057,-105.144 124.52,-111.418 135.106,-111.837 133.057,-105.144"/>
</g>
<!-- Node128 -->
<g id="node8" class="node"><title>Node128</title>
<g id="a_node8"><a xlink:href="struct_json_1_1_built_styled_stream_writer.html#a89625b134fce0255263ca40e6125742b" target="_top" xlink:title="Json::BuiltStyledStreamWriter\l::writeCommentAfterValueOnSameLine">
<polygon fill="none" stroke="black" points="185,-111.427 185,-141.427 373,-141.427 373,-111.427 185,-111.427"/>
<text text-anchor="start" x="193" y="-129.427" font-family="Helvetica,sans-Serif" font-size="10.00">Json::BuiltStyledStreamWriter</text>
<text text-anchor="middle" x="279" y="-118.427" font-family="Helvetica,sans-Serif" font-size="10.00">::writeCommentAfterValueOnSameLine</text>
</a>
</g>
</g>
<!-- Node121&#45;&gt;Node128 -->
<g id="edge15" class="edge"><title>Node121&#45;&gt;Node128</title>
<path fill="none" stroke="midnightblue" d="M159.296,-126.427C167.67,-126.427 176.207,-126.427 184.671,-126.427"/>
<polygon fill="midnightblue" stroke="midnightblue" points="159.18,-122.927 149.18,-126.427 159.18,-129.927 159.18,-122.927"/>
</g>
<!-- Node124 -->
<g id="node4" class="node"><title>Node124</title>
<g id="a_node4"><a xlink:href="struct_json_1_1_built_styled_stream_writer.html#a7c9da861861e570a51b45f270c9ff150" target="_top" xlink:title="Json::BuiltStyledStreamWriter\l::writeValue">
<polygon fill="none" stroke="black" points="594,-124.427 594,-154.427 743,-154.427 743,-124.427 594,-124.427"/>
<text text-anchor="start" x="602" y="-142.427" font-family="Helvetica,sans-Serif" font-size="10.00">Json::BuiltStyledStreamWriter</text>
<text text-anchor="middle" x="668.5" y="-131.427" font-family="Helvetica,sans-Serif" font-size="10.00">::writeValue</text>
</a>
</g>
</g>
<!-- Node123&#45;&gt;Node124 -->
<g id="edge3" class="edge"><title>Node123&#45;&gt;Node124</title>
<path fill="none" stroke="midnightblue" d="M538.727,-159.941C556.052,-155.829 575.527,-151.649 593.986,-148.059"/>
<polygon fill="midnightblue" stroke="midnightblue" points="537.692,-156.591 528.799,-162.35 539.343,-163.393 537.692,-156.591"/>
</g>
<!-- Node124&#45;&gt;Node122 -->
<g id="edge4" class="edge"><title>Node124&#45;&gt;Node122</title>
<path fill="none" stroke="midnightblue" d="M716.784,-120.582C725.537,-116.965 734.573,-113.144 743,-109.427 769.957,-97.5358 800.178,-83.0988 822.031,-72.4568"/>
<polygon fill="midnightblue" stroke="midnightblue" points="715.365,-117.381 707.44,-124.413 718.02,-123.858 715.365,-117.381"/>
</g>
<!-- Node124&#45;&gt;Node123 -->
<g id="edge5" class="edge"><title>Node124&#45;&gt;Node123</title>
<path fill="none" stroke="midnightblue" d="M613.536,-156.85C596.186,-160.973 576.656,-165.167 558.142,-168.77"/>
<polygon fill="midnightblue" stroke="midnightblue" points="614.585,-160.197 623.476,-154.435 612.933,-153.395 614.585,-160.197"/>
</g>
<!-- Node125 -->
<g id="node5" class="node"><title>Node125</title>
<g id="a_node5"><a xlink:href="struct_json_1_1_built_styled_stream_writer.html#af423fd33b3d580506ea3efc53b05a077" target="_top" xlink:title="Json::BuiltStyledStreamWriter\l::isMultineArray">
<polygon fill="none" stroke="black" points="779,-146.427 779,-176.427 928,-176.427 928,-146.427 779,-146.427"/>
<text text-anchor="start" x="787" y="-164.427" font-family="Helvetica,sans-Serif" font-size="10.00">Json::BuiltStyledStreamWriter</text>
<text text-anchor="middle" x="853.5" y="-153.427" font-family="Helvetica,sans-Serif" font-size="10.00">::isMultineArray</text>
</a>
</g>
</g>
<!-- Node124&#45;&gt;Node125 -->
<g id="edge6" class="edge"><title>Node124&#45;&gt;Node125</title>
<path fill="none" stroke="midnightblue" d="M753.109,-149.478C761.651,-150.505 770.285,-151.543 778.711,-152.556"/>
<polygon fill="midnightblue" stroke="midnightblue" points="753.488,-145.999 743.142,-148.28 752.653,-152.949 753.488,-145.999"/>
</g>
<!-- Node125&#45;&gt;Node123 -->
<g id="edge7" class="edge"><title>Node125&#45;&gt;Node123</title>
<path fill="none" stroke="midnightblue" d="M768.353,-165.085C704.924,-167.843 618.785,-171.588 558.086,-174.228"/>
<polygon fill="midnightblue" stroke="midnightblue" points="768.889,-168.566 778.727,-164.634 768.584,-161.572 768.889,-168.566"/>
</g>
<!-- Node126&#45;&gt;Node123 -->
<g id="edge10" class="edge"><title>Node126&#45;&gt;Node123</title>
<path fill="none" stroke="midnightblue" d="M363.91,-199.095C378.83,-196.369 394.268,-193.548 408.875,-190.879"/>
<polygon fill="midnightblue" stroke="midnightblue" points="362.888,-195.724 353.68,-200.964 364.146,-202.61 362.888,-195.724"/>
</g>
<!-- Node126&#45;&gt;Node124 -->
<g id="edge9" class="edge"><title>Node126&#45;&gt;Node124</title>
<path fill="none" stroke="midnightblue" d="M363.748,-220.528C419.801,-222.196 494.632,-219.715 558,-201.427 591.793,-191.674 626.391,-169.666 647.415,-154.675"/>
<polygon fill="midnightblue" stroke="midnightblue" points="363.623,-217.021 353.507,-220.171 363.379,-224.017 363.623,-217.021"/>
</g>
<!-- Node127&#45;&gt;Node122 -->
<g id="edge12" class="edge"><title>Node127&#45;&gt;Node122</title>
<path fill="none" stroke="midnightblue" d="M363.9,-63.401C475.794,-62.0329 672.109,-59.6325 778.658,-58.3298"/>
<polygon fill="midnightblue" stroke="midnightblue" points="363.629,-59.904 353.672,-63.5261 363.714,-66.9035 363.629,-59.904"/>
</g>
<!-- Node127&#45;&gt;Node123 -->
<g id="edge14" class="edge"><title>Node127&#45;&gt;Node123</title>
<path fill="none" stroke="midnightblue" d="M333.442,-83.2716C346.641,-88.5791 360.557,-94.7469 373,-101.427 406.641,-119.487 442.405,-145.838 463.58,-162.291"/>
<polygon fill="midnightblue" stroke="midnightblue" points="334.576,-79.957 323.989,-79.5639 332.02,-86.4737 334.576,-79.957"/>
</g>
<!-- Node127&#45;&gt;Node124 -->
<g id="edge13" class="edge"><title>Node127&#45;&gt;Node124</title>
<path fill="none" stroke="midnightblue" d="M363.707,-80.6283C432.272,-93.8989 528.343,-112.493 593.977,-125.197"/>
<polygon fill="midnightblue" stroke="midnightblue" points="364.281,-77.1744 353.798,-78.7104 362.951,-84.0469 364.281,-77.1744"/>
</g>
<!-- Node128&#45;&gt;Node122 -->
<g id="edge16" class="edge"><title>Node128&#45;&gt;Node122</title>
<path fill="none" stroke="midnightblue" d="M383.329,-116.083C477.261,-106.379 619.619,-90.9255 743,-74.4269 754.632,-72.8715 766.937,-71.0921 778.935,-69.2838"/>
<polygon fill="midnightblue" stroke="midnightblue" points="382.846,-112.614 373.258,-117.12 383.564,-119.577 382.846,-112.614"/>
</g>
<!-- Node128&#45;&gt;Node123 -->
<g id="edge18" class="edge"><title>Node128&#45;&gt;Node123</title>
<path fill="none" stroke="midnightblue" d="M349.38,-143.9C373.295,-149.923 399.852,-156.612 422.915,-162.42"/>
<polygon fill="midnightblue" stroke="midnightblue" points="350.213,-140.501 339.661,-141.453 348.504,-147.289 350.213,-140.501"/>
</g>
<!-- Node128&#45;&gt;Node124 -->
<g id="edge17" class="edge"><title>Node128&#45;&gt;Node124</title>
<path fill="none" stroke="midnightblue" d="M383.372,-129.895C449.684,-132.12 534.199,-134.955 593.757,-136.953"/>
<polygon fill="midnightblue" stroke="midnightblue" points="383.421,-126.395 373.309,-129.557 383.186,-133.391 383.421,-126.395"/>
</g>
</g>
</svg>
        <g id="navigator" transform="translate(0 0)" fill="#404254">
                <rect fill="#f2f5e9" fill-opacity="0.5" stroke="#606060" stroke-width=".5" x="0" y="0" width="60" height="60"/>
                <use id="zoomplus" xlink:href="#zoomPlus" x="17" y="9" onmousedown="handleZoom(evt,'in')"/>
                <use id="zoomminus" xlink:href="#zoomMin" x="42" y="9" onmousedown="handleZoom(evt,'out')"/>
                <use id="reset" xlink:href="#resetDef" x="30" y="36" onmousedown="handleReset()"/>
                <g id="arrowUp" xlink:href="#dirArrow" transform="translate(30 24)" onmousedown="handlePan(0,-1)">
                  <use xlink:href="#rim" fill="#404040">
                        <set attributeName="fill" to="#808080" begin="arrowUp.mouseover" end="arrowUp.mouseout"/>
                  </use>
                  <path fill="none" stroke="white" stroke-width="1.5" d="M0,-3.0v7 M-2.5,-0.5L0,-3.0L2.5,-0.5"/>
                </g>
                <g id="arrowRight" xlink:href="#dirArrow" transform="rotate(90) translate(36 -43)" onmousedown="handlePan(1,0)">
                  <use xlink:href="#rim" fill="#404040">
                        <set attributeName="fill" to="#808080" begin="arrowRight.mouseover" end="arrowRight.mouseout"/>
                  </use>
                  <path fill="none" stroke="white" stroke-width="1.5" d="M0,-3.0v7 M-2.5,-0.5L0,-3.0L2.5,-0.5"/>
                </g>
                <g id="arrowDown" xlink:href="#dirArrow" transform="rotate(180) translate(-30 -48)" onmousedown="handlePan(0,1)">
                  <use xlink:href="#rim" fill="#404040">
                        <set attributeName="fill" to="#808080" begin="arrowDown.mouseover" end="arrowDown.mouseout"/>
                  </use>
                  <path fill="none" stroke="white" stroke-width="1.5" d="M0,-3.0v7 M-2.5,-0.5L0,-3.0L2.5,-0.5"/>
                </g>
                <g id="arrowLeft" xlink:href="#dirArrow" transform="rotate(270) translate(-36 17)" onmousedown="handlePan(-1,0)">
                  <use xlink:href="#rim" fill="#404040">
                        <set attributeName="fill" to="#808080" begin="arrowLeft.mouseover" end="arrowLeft.mouseout"/>
                  </use>
                  <path fill="none" stroke="white" stroke-width="1.5" d="M0,-3.0v7 M-2.5,-0.5L0,-3.0L2.5,-0.5"/>
                </g>
        </g>
        <svg viewBox="0 0 15 15" width="100%" height="30px" preserveAspectRatio="xMaxYMin meet">
         <g id="arrow_out" transform="scale(0.3 0.3)">
          <a xlink:href="struct_json_1_1_built_styled_stream_writer_a2b38a3714d415c4bd3b4812897130f3d_icgraph_org.svg" target="_base">
           <rect id="button" ry="5" rx="5" y="6" x="6" height="38" width="38"
                fill="#f2f5e9" fill-opacity="0.5" stroke="#606060" stroke-width="1.0"/>
           <path id="arrow"
             d="M 11.500037,31.436501 C 11.940474,20.09759 22.043105,11.32322 32.158766,21.979434 L 37.068811,17.246167 C 37.068811,17.246167 37.088388,32 37.088388,32 L 22.160133,31.978069 C 22.160133,31.978069 26.997745,27.140456 26.997745,27.140456 C 18.528582,18.264221 13.291696,25.230495 11.500037,31.436501 z"
             style="fill:#404040;"/>
          </a>
         </g>
        </svg>
</svg>
