<?xml version="1.0" encoding="UTF-8" standalone="no"?>
<!DOCTYPE svg PUBLIC "-//W3C//DTD SVG 1.1//EN"
 "http://www.w3.org/Graphics/SVG/1.1/DTD/svg11.dtd">
<!-- Generated by graphviz version 2.38.0 (20140413.2041)
 -->
<!-- Title: Json::BuiltStyledStreamWriter::isMultineArray Pages: 1 -->
<svg width="1108pt" height="563pt"
 viewBox="0.00 0.00 1108.00 562.50" xmlns="http://www.w3.org/2000/svg" xmlns:xlink="http://www.w3.org/1999/xlink">
<g id="graph0" class="graph" transform="scale(1 1) rotate(0) translate(4 558.5)">
<title>Json::BuiltStyledStreamWriter::isMultineArray</title>
<!-- Node21 -->
<g id="node1" class="node"><title>Node21</title>
<polygon fill="#bfbfbf" stroke="black" points="0,-360 0,-390 149,-390 149,-360 0,-360"/>
<text text-anchor="start" x="8" y="-378" font-family="Helvetica,sans-Serif" font-size="10.00">Json::BuiltStyledStreamWriter</text>
<text text-anchor="middle" x="74.5" y="-367" font-family="Helvetica,sans-Serif" font-size="10.00">::isMultineArray</text>
</g>
<!-- Node22 -->
<g id="node2" class="node"><title>Node22</title>
<g id="a_node2"><a xlink:href="struct_json_1_1_built_styled_stream_writer.html#a457c2f3c1e8c952caeb60e52477d0c9a" target="_top" xlink:title="Json::BuiltStyledStreamWriter\l::hasCommentForValue">
<polygon fill="none" stroke="black" points="185,-480 185,-510 334,-510 334,-480 185,-480"/>
<text text-anchor="start" x="193" y="-498" font-family="Helvetica,sans-Serif" font-size="10.00">Json::BuiltStyledStreamWriter</text>
<text text-anchor="middle" x="259.5" y="-487" font-family="Helvetica,sans-Serif" font-size="10.00">::hasCommentForValue</text>
</a>
</g>
</g>
<!-- Node21&#45;&gt;Node22 -->
<g id="edge1" class="edge"><title>Node21&#45;&gt;Node22</title>
<path fill="none" stroke="midnightblue" d="M98.6771,-390.198C131.128,-411.477 190.216,-450.224 226.741,-474.175"/>
<polygon fill="midnightblue" stroke="midnightblue" points="225.229,-477.369 235.511,-479.925 229.068,-471.515 225.229,-477.369"/>
</g>
<!-- Node25 -->
<g id="node5" class="node"><title>Node25</title>
<g id="a_node5"><a xlink:href="struct_json_1_1_built_styled_stream_writer.html#a7c9da861861e570a51b45f270c9ff150" target="_top" xlink:title="Json::BuiltStyledStreamWriter\l::writeValue">
<polygon fill="none" stroke="black" points="185,-316 185,-346 334,-346 334,-316 185,-316"/>
<text text-anchor="start" x="193" y="-334" font-family="Helvetica,sans-Serif" font-size="10.00">Json::BuiltStyledStreamWriter</text>
<text text-anchor="middle" x="259.5" y="-323" font-family="Helvetica,sans-Serif" font-size="10.00">::writeValue</text>
</a>
</g>
</g>
<!-- Node21&#45;&gt;Node25 -->
<g id="edge4" class="edge"><title>Node21&#45;&gt;Node25</title>
<path fill="none" stroke="midnightblue" d="M137.966,-359.981C153.486,-356.249 170.25,-352.219 186.198,-348.384"/>
<polygon fill="midnightblue" stroke="midnightblue" points="187.1,-351.767 196.005,-346.026 185.463,-344.961 187.1,-351.767"/>
</g>
<!-- Node23 -->
<g id="node3" class="node"><title>Node23</title>
<g id="a_node3"><a xlink:href="namespace_json.html#a97f039a107b3f6cf1c3edee50e978f76" target="_top" xlink:title="Json::throwRuntimeError">
<polygon fill="none" stroke="black" points="382,-485.5 382,-504.5 507,-504.5 507,-485.5 382,-485.5"/>
<text text-anchor="middle" x="444.5" y="-492.5" font-family="Helvetica,sans-Serif" font-size="10.00">Json::throwRuntimeError</text>
</a>
</g>
</g>
<!-- Node22&#45;&gt;Node23 -->
<g id="edge2" class="edge"><title>Node22&#45;&gt;Node23</title>
<path fill="none" stroke="midnightblue" d="M334.142,-495C346.479,-495 359.267,-495 371.561,-495"/>
<polygon fill="midnightblue" stroke="midnightblue" points="371.75,-498.5 381.75,-495 371.75,-491.5 371.75,-498.5"/>
</g>
<!-- Node24 -->
<g id="node4" class="node"><title>Node24</title>
<g id="a_node4"><a xlink:href="struct_json_1_1_built_styled_stream_writer.html#ab0c2e665c86b22f8fafb0e52c8069954" target="_top" xlink:title="Json::BuiltStyledStreamWriter\l::BuiltStyledStreamWriter">
<polygon fill="none" stroke="black" points="370,-524 370,-554 519,-554 519,-524 370,-524"/>
<text text-anchor="start" x="378" y="-542" font-family="Helvetica,sans-Serif" font-size="10.00">Json::BuiltStyledStreamWriter</text>
<text text-anchor="middle" x="444.5" y="-531" font-family="Helvetica,sans-Serif" font-size="10.00">::BuiltStyledStreamWriter</text>
</a>
</g>
</g>
<!-- Node22&#45;&gt;Node24 -->
<g id="edge3" class="edge"><title>Node22&#45;&gt;Node24</title>
<path fill="none" stroke="midnightblue" d="M322.966,-510.019C338.486,-513.751 355.25,-517.781 371.198,-521.616"/>
<polygon fill="midnightblue" stroke="midnightblue" points="370.463,-525.039 381.005,-523.974 372.1,-518.233 370.463,-525.039"/>
</g>
<!-- Node26 -->
<g id="node6" class="node"><title>Node26</title>
<g id="a_node6"><a xlink:href="struct_json_1_1_built_styled_stream_writer.html#a53de0fe57c883d621c7255e49248651e" target="_top" xlink:title="Json::BuiltStyledStreamWriter\l::pushValue">
<polygon fill="none" stroke="black" points="574.5,-289 574.5,-319 723.5,-319 723.5,-289 574.5,-289"/>
<text text-anchor="start" x="582.5" y="-307" font-family="Helvetica,sans-Serif" font-size="10.00">Json::BuiltStyledStreamWriter</text>
<text text-anchor="middle" x="649" y="-296" font-family="Helvetica,sans-Serif" font-size="10.00">::pushValue</text>
</a>
</g>
</g>
<!-- Node25&#45;&gt;Node26 -->
<g id="edge5" class="edge"><title>Node25&#45;&gt;Node26</title>
<path fill="none" stroke="midnightblue" d="M334.298,-325.858C399.882,-321.288 495.698,-314.612 564.158,-309.842"/>
<polygon fill="midnightblue" stroke="midnightblue" points="564.744,-313.31 574.477,-309.123 564.258,-306.327 564.744,-313.31"/>
</g>
<!-- Node27 -->
<g id="node7" class="node"><title>Node27</title>
<g id="a_node7"><a xlink:href="namespace_json.html#abd9c650f70d9434f98f9025e2e2faf2d" target="_top" xlink:title="Json::valueToString">
<polygon fill="none" stroke="black" points="597,-152.5 597,-171.5 701,-171.5 701,-152.5 597,-152.5"/>
<text text-anchor="middle" x="649" y="-159.5" font-family="Helvetica,sans-Serif" font-size="10.00">Json::valueToString</text>
</a>
</g>
</g>
<!-- Node25&#45;&gt;Node27 -->
<g id="edge6" class="edge"><title>Node25&#45;&gt;Node27</title>
<path fill="none" stroke="midnightblue" d="M273.863,-315.918C293.127,-295.06 330.724,-257.548 370,-236 438.88,-198.21 528.077,-178.921 586.614,-169.665"/>
<polygon fill="midnightblue" stroke="midnightblue" points="587.46,-173.077 596.816,-168.105 586.402,-166.157 587.46,-173.077"/>
</g>
<!-- Node29 -->
<g id="node9" class="node"><title>Node29</title>
<g id="a_node9"><a xlink:href="namespace_json.html#a20d52b5a457ee5d833645d119451c2cd" target="_top" xlink:title="Json::valueToQuotedStringN">
<polygon fill="none" stroke="black" points="373,-95.5 373,-114.5 516,-114.5 516,-95.5 373,-95.5"/>
<text text-anchor="middle" x="444.5" y="-102.5" font-family="Helvetica,sans-Serif" font-size="10.00">Json::valueToQuotedStringN</text>
</a>
</g>
</g>
<!-- Node25&#45;&gt;Node29 -->
<g id="edge8" class="edge"><title>Node25&#45;&gt;Node29</title>
<path fill="none" stroke="midnightblue" d="M267.099,-315.657C281.792,-282.807 319.894,-204.479 370,-153 382.993,-139.651 400.334,-128.107 414.909,-119.688"/>
<polygon fill="midnightblue" stroke="midnightblue" points="416.979,-122.541 424.014,-114.618 413.574,-116.425 416.979,-122.541"/>
</g>
<!-- Node35 -->
<g id="node15" class="node"><title>Node35</title>
<g id="a_node15"><a xlink:href="struct_json_1_1_built_styled_stream_writer.html#acd20e9274bbcf7876ef3af2e7d23a31f" target="_top" xlink:title="Json::BuiltStyledStreamWriter\l::writeArrayValue">
<polygon fill="none" stroke="black" points="370,-360 370,-390 519,-390 519,-360 370,-360"/>
<text text-anchor="start" x="378" y="-378" font-family="Helvetica,sans-Serif" font-size="10.00">Json::BuiltStyledStreamWriter</text>
<text text-anchor="middle" x="444.5" y="-367" font-family="Helvetica,sans-Serif" font-size="10.00">::writeArrayValue</text>
</a>
</g>
</g>
<!-- Node25&#45;&gt;Node35 -->
<g id="edge18" class="edge"><title>Node25&#45;&gt;Node35</title>
<path fill="none" stroke="midnightblue" d="M334.142,-342.072C354.515,-346.704 376.118,-352.093 394.694,-357.216"/>
<polygon fill="midnightblue" stroke="midnightblue" points="393.818,-360.605 404.392,-359.947 395.715,-353.867 393.818,-360.605"/>
</g>
<!-- Node36 -->
<g id="node16" class="node"><title>Node36</title>
<g id="a_node16"><a xlink:href="struct_json_1_1_built_styled_stream_writer.html#a764c6d530b5bd660c4a7d1ad4eff6b8d" target="_top" xlink:title="Json::BuiltStyledStreamWriter\l::writeWithIndent">
<polygon fill="none" stroke="black" points="574.5,-240 574.5,-270 723.5,-270 723.5,-240 574.5,-240"/>
<text text-anchor="start" x="582.5" y="-258" font-family="Helvetica,sans-Serif" font-size="10.00">Json::BuiltStyledStreamWriter</text>
<text text-anchor="middle" x="649" y="-247" font-family="Helvetica,sans-Serif" font-size="10.00">::writeWithIndent</text>
</a>
</g>
</g>
<!-- Node25&#45;&gt;Node36 -->
<g id="edge31" class="edge"><title>Node25&#45;&gt;Node36</title>
<path fill="none" stroke="midnightblue" d="M334.298,-316.526C400.017,-303.637 496.091,-284.794 564.579,-271.361"/>
<polygon fill="midnightblue" stroke="midnightblue" points="565.337,-274.779 574.477,-269.42 563.99,-267.91 565.337,-274.779"/>
</g>
<!-- Node38 -->
<g id="node18" class="node"><title>Node38</title>
<g id="a_node18"><a xlink:href="struct_json_1_1_built_styled_stream_writer.html#a73e09692a2cfbd6e67836b060dc34a9f" target="_top" xlink:title="Json::BuiltStyledStreamWriter\l::indent">
<polygon fill="none" stroke="black" points="574.5,-426 574.5,-456 723.5,-456 723.5,-426 574.5,-426"/>
<text text-anchor="start" x="582.5" y="-444" font-family="Helvetica,sans-Serif" font-size="10.00">Json::BuiltStyledStreamWriter</text>
<text text-anchor="middle" x="649" y="-433" font-family="Helvetica,sans-Serif" font-size="10.00">::indent</text>
</a>
</g>
</g>
<!-- Node25&#45;&gt;Node38 -->
<g id="edge32" class="edge"><title>Node25&#45;&gt;Node38</title>
<path fill="none" stroke="midnightblue" d="M278.991,-346.081C299.791,-362.19 335.228,-387.135 370,-400 432.565,-423.147 507.608,-433.264 563.948,-437.667"/>
<polygon fill="midnightblue" stroke="midnightblue" points="564.014,-441.181 574.243,-438.424 564.527,-434.2 564.014,-441.181"/>
</g>
<!-- Node39 -->
<g id="node19" class="node"><title>Node39</title>
<g id="a_node19"><a xlink:href="struct_json_1_1_built_styled_stream_writer.html#a32c4afca4e08fba79bb0a80a8010283a" target="_top" xlink:title="Json::BuiltStyledStreamWriter\l::writeCommentBeforeValue">
<polygon fill="none" stroke="black" points="574.5,-191 574.5,-221 723.5,-221 723.5,-191 574.5,-191"/>
<text text-anchor="start" x="582.5" y="-209" font-family="Helvetica,sans-Serif" font-size="10.00">Json::BuiltStyledStreamWriter</text>
<text text-anchor="middle" x="649" y="-198" font-family="Helvetica,sans-Serif" font-size="10.00">::writeCommentBeforeValue</text>
</a>
</g>
</g>
<!-- Node25&#45;&gt;Node39 -->
<g id="edge33" class="edge"><title>Node25&#45;&gt;Node39</title>
<path fill="none" stroke="midnightblue" d="M287.747,-315.947C309.513,-304.383 341.059,-288.641 370,-278 449.727,-248.688 472.764,-251.28 555,-230 563.006,-227.928 571.4,-225.759 579.732,-223.607"/>
<polygon fill="midnightblue" stroke="midnightblue" points="580.65,-226.985 589.457,-221.095 578.899,-220.207 580.65,-226.985"/>
</g>
<!-- Node40 -->
<g id="node20" class="node"><title>Node40</title>
<g id="a_node20"><a xlink:href="struct_json_1_1_built_styled_stream_writer.html#a89625b134fce0255263ca40e6125742b" target="_top" xlink:title="Json::BuiltStyledStreamWriter\l::writeCommentAfterValueOnSameLine">
<polygon fill="none" stroke="black" points="555,-475 555,-505 743,-505 743,-475 555,-475"/>
<text text-anchor="start" x="563" y="-493" font-family="Helvetica,sans-Serif" font-size="10.00">Json::BuiltStyledStreamWriter</text>
<text text-anchor="middle" x="649" y="-482" font-family="Helvetica,sans-Serif" font-size="10.00">::writeCommentAfterValueOnSameLine</text>
</a>
</g>
</g>
<!-- Node25&#45;&gt;Node40 -->
<g id="edge34" class="edge"><title>Node25&#45;&gt;Node40</title>
<path fill="none" stroke="midnightblue" d="M272.56,-346.063C291.076,-368.109 328.723,-408.834 370,-430 400.35,-445.563 478.91,-461.803 544.804,-473.457"/>
<polygon fill="midnightblue" stroke="midnightblue" points="544.39,-476.938 554.844,-475.215 545.598,-470.042 544.39,-476.938"/>
</g>
<!-- Node41 -->
<g id="node21" class="node"><title>Node41</title>
<g id="a_node21"><a xlink:href="struct_json_1_1_built_styled_stream_writer.html#a0da6c6f603e00c8c6e38af553edd8c55" target="_top" xlink:title="Json::BuiltStyledStreamWriter\l::unindent">
<polygon fill="none" stroke="black" points="574.5,-338 574.5,-368 723.5,-368 723.5,-338 574.5,-338"/>
<text text-anchor="start" x="582.5" y="-356" font-family="Helvetica,sans-Serif" font-size="10.00">Json::BuiltStyledStreamWriter</text>
<text text-anchor="middle" x="649" y="-345" font-family="Helvetica,sans-Serif" font-size="10.00">::unindent</text>
</a>
</g>
</g>
<!-- Node25&#45;&gt;Node41 -->
<g id="edge35" class="edge"><title>Node25&#45;&gt;Node41</title>
<path fill="none" stroke="midnightblue" d="M334.298,-335.19C399.882,-338.913 495.698,-344.353 564.158,-348.24"/>
<polygon fill="midnightblue" stroke="midnightblue" points="564.295,-351.753 574.477,-348.826 564.691,-344.764 564.295,-351.753"/>
</g>
<!-- Node28 -->
<g id="node8" class="node"><title>Node28</title>
<g id="a_node8"><a xlink:href="namespace_json.html#ac1ffd21a9e55122014353c773ccc496e" target="_top" xlink:title="Json::uintToString">
<polygon fill="none" stroke="black" points="811,-152.5 811,-171.5 907,-171.5 907,-152.5 811,-152.5"/>
<text text-anchor="middle" x="859" y="-159.5" font-family="Helvetica,sans-Serif" font-size="10.00">Json::uintToString</text>
</a>
</g>
</g>
<!-- Node27&#45;&gt;Node28 -->
<g id="edge7" class="edge"><title>Node27&#45;&gt;Node28</title>
<path fill="none" stroke="midnightblue" d="M701.149,-162C731.301,-162 769.524,-162 800.689,-162"/>
<polygon fill="midnightblue" stroke="midnightblue" points="800.966,-165.5 810.966,-162 800.966,-158.5 800.966,-165.5"/>
</g>
<!-- Node29&#45;&gt;Node27 -->
<g id="edge13" class="edge"><title>Node29&#45;&gt;Node27</title>
<path fill="none" stroke="midnightblue" d="M469.995,-114.548C491.996,-122.872 525.31,-134.854 555,-143 565.116,-145.776 575.952,-148.346 586.523,-150.641"/>
<polygon fill="midnightblue" stroke="midnightblue" points="586.039,-154.115 596.546,-152.755 587.484,-147.266 586.039,-154.115"/>
</g>
<!-- Node30 -->
<g id="node10" class="node"><title>Node30</title>
<g id="a_node10"><a xlink:href="namespace_json.html#a7492156d0c7d2dd2f672acacfb240320" target="_top" xlink:title="Json::strnpbrk">
<polygon fill="none" stroke="black" points="609.5,-114.5 609.5,-133.5 688.5,-133.5 688.5,-114.5 609.5,-114.5"/>
<text text-anchor="middle" x="649" y="-121.5" font-family="Helvetica,sans-Serif" font-size="10.00">Json::strnpbrk</text>
</a>
</g>
</g>
<!-- Node29&#45;&gt;Node30 -->
<g id="edge9" class="edge"><title>Node29&#45;&gt;Node30</title>
<path fill="none" stroke="midnightblue" d="M516.04,-111.619C543.406,-114.186 574.078,-117.064 598.959,-119.399"/>
<polygon fill="midnightblue" stroke="midnightblue" points="598.958,-122.914 609.241,-120.363 599.612,-115.944 598.958,-122.914"/>
</g>
<!-- Node31 -->
<g id="node11" class="node"><title>Node31</title>
<g id="a_node11"><a xlink:href="namespace_json.html#ae8a357381f264cf28f46449e79ab1dea" target="_top" xlink:title="Json::containsControlCharacter0">
<polygon fill="none" stroke="black" points="779,-0.5 779,-19.5 939,-19.5 939,-0.5 779,-0.5"/>
<text text-anchor="middle" x="859" y="-7.5" font-family="Helvetica,sans-Serif" font-size="10.00">Json::containsControlCharacter0</text>
</a>
</g>
</g>
<!-- Node29&#45;&gt;Node31 -->
<g id="edge10" class="edge"><title>Node29&#45;&gt;Node31</title>
<path fill="none" stroke="midnightblue" d="M456.332,-95.2738C474.945,-79.2237 514.879,-47.6148 555,-34 624.228,-10.5083 707.264,-5.4137 768.89,-5.68425"/>
<polygon fill="midnightblue" stroke="midnightblue" points="768.945,-9.18481 778.977,-5.77707 769.01,-2.18511 768.945,-9.18481"/>
</g>
<!-- Node32 -->
<g id="node12" class="node"><title>Node32</title>
<g id="a_node12"><a xlink:href="namespace_json.html#a0381e631737f51331065a388f4f59197" target="_top" xlink:title="Returns true if ch is a control character (in range [1,31]). ">
<polygon fill="none" stroke="black" points="975,-57.5 975,-76.5 1100,-76.5 1100,-57.5 975,-57.5"/>
<text text-anchor="middle" x="1037.5" y="-64.5" font-family="Helvetica,sans-Serif" font-size="10.00">Json::isControlCharacter</text>
</a>
</g>
</g>
<!-- Node29&#45;&gt;Node32 -->
<g id="edge12" class="edge"><title>Node29&#45;&gt;Node32</title>
<path fill="none" stroke="midnightblue" d="M466.348,-95.4099C487.98,-86.0271 523.053,-72.3857 555,-67 698.755,-42.7651 870.102,-51.5494 964.735,-59.6123"/>
<polygon fill="midnightblue" stroke="midnightblue" points="964.502,-63.1052 974.769,-60.4891 965.111,-56.1317 964.502,-63.1052"/>
</g>
<!-- Node33 -->
<g id="node13" class="node"><title>Node33</title>
<g id="a_node13"><a xlink:href="namespace_json.html#aa0c8235a4a5c6599da5d3332743db8ac" target="_top" xlink:title="Json::valueToQuotedString">
<polygon fill="none" stroke="black" points="581.5,-76.5 581.5,-95.5 716.5,-95.5 716.5,-76.5 581.5,-76.5"/>
<text text-anchor="middle" x="649" y="-83.5" font-family="Helvetica,sans-Serif" font-size="10.00">Json::valueToQuotedString</text>
</a>
</g>
</g>
<!-- Node29&#45;&gt;Node33 -->
<g id="edge14" class="edge"><title>Node29&#45;&gt;Node33</title>
<path fill="none" stroke="midnightblue" d="M516.04,-98.3814C533.954,-96.7006 553.284,-94.887 571.479,-93.1798"/>
<polygon fill="midnightblue" stroke="midnightblue" points="571.825,-96.6628 581.454,-92.2438 571.171,-89.6934 571.825,-96.6628"/>
</g>
<!-- Node31&#45;&gt;Node32 -->
<g id="edge11" class="edge"><title>Node31&#45;&gt;Node32</title>
<path fill="none" stroke="midnightblue" d="M892.358,-19.5801C906.682,-23.8854 923.714,-29.0926 939,-34 958.955,-40.4065 981.09,-47.8691 999.219,-54.0756"/>
<polygon fill="midnightblue" stroke="midnightblue" points="998.244,-57.4415 1008.84,-57.3797 1000.52,-50.8211 998.244,-57.4415"/>
</g>
<!-- Node33&#45;&gt;Node32 -->
<g id="edge17" class="edge"><title>Node33&#45;&gt;Node32</title>
<path fill="none" stroke="midnightblue" d="M693.493,-95.5746C750.405,-106.577 853.016,-121.164 939,-105 963.479,-100.398 989.703,-89.8265 1008.78,-80.999"/>
<polygon fill="midnightblue" stroke="midnightblue" points="1010.54,-84.0407 1018.06,-76.5827 1007.53,-77.7201 1010.54,-84.0407"/>
</g>
<!-- Node34 -->
<g id="node14" class="node"><title>Node34</title>
<g id="a_node14"><a xlink:href="namespace_json.html#aa11b210ff98a4f4dd4e2df19260f8c3a" target="_top" xlink:title="Json::containsControlCharacter">
<polygon fill="none" stroke="black" points="781.5,-76.5 781.5,-95.5 936.5,-95.5 936.5,-76.5 781.5,-76.5"/>
<text text-anchor="middle" x="859" y="-83.5" font-family="Helvetica,sans-Serif" font-size="10.00">Json::containsControlCharacter</text>
</a>
</g>
</g>
<!-- Node33&#45;&gt;Node34 -->
<g id="edge15" class="edge"><title>Node33&#45;&gt;Node34</title>
<path fill="none" stroke="midnightblue" d="M716.671,-86C734.016,-86 752.958,-86 771.177,-86"/>
<polygon fill="midnightblue" stroke="midnightblue" points="771.209,-89.5001 781.209,-86 771.209,-82.5001 771.209,-89.5001"/>
</g>
<!-- Node34&#45;&gt;Node32 -->
<g id="edge16" class="edge"><title>Node34&#45;&gt;Node32</title>
<path fill="none" stroke="midnightblue" d="M936.645,-77.7492C946.005,-76.7416 955.542,-75.715 964.826,-74.7156"/>
<polygon fill="midnightblue" stroke="midnightblue" points="965.211,-78.1945 974.779,-73.6442 964.462,-71.2347 965.211,-78.1945"/>
</g>
<!-- Node35&#45;&gt;Node21 -->
<g id="edge20" class="edge"><title>Node35&#45;&gt;Node21</title>
<path fill="none" stroke="midnightblue" d="M369.727,-375C308.975,-375 222.834,-375 159.451,-375"/>
<polygon fill="midnightblue" stroke="midnightblue" points="159.086,-371.5 149.086,-375 159.086,-378.5 159.086,-371.5"/>
</g>
<!-- Node35&#45;&gt;Node25 -->
<g id="edge27" class="edge"><title>Node35&#45;&gt;Node25</title>
<path fill="none" stroke="midnightblue" d="M369.978,-363.955C349.625,-359.33 328.037,-353.947 309.459,-348.826"/>
<polygon fill="midnightblue" stroke="midnightblue" points="310.332,-345.436 299.758,-346.096 308.436,-352.174 310.332,-345.436"/>
</g>
<!-- Node35&#45;&gt;Node26 -->
<g id="edge19" class="edge"><title>Node35&#45;&gt;Node26</title>
<path fill="none" stroke="midnightblue" d="M477.098,-359.91C498.704,-349.974 528.178,-337.157 555,-328 561.255,-325.864 567.804,-323.815 574.404,-321.875"/>
<polygon fill="midnightblue" stroke="midnightblue" points="575.425,-325.224 584.083,-319.116 573.506,-318.492 575.425,-325.224"/>
</g>
<!-- Node35&#45;&gt;Node36 -->
<g id="edge21" class="edge"><title>Node35&#45;&gt;Node36</title>
<path fill="none" stroke="midnightblue" d="M458.401,-359.908C477.396,-338.655 514.989,-300.145 555,-279 558.547,-277.125 562.25,-275.391 566.046,-273.787"/>
<polygon fill="midnightblue" stroke="midnightblue" points="567.586,-276.944 575.643,-270.064 565.054,-270.418 567.586,-276.944"/>
</g>
<!-- Node37 -->
<g id="node17" class="node"><title>Node37</title>
<g id="a_node17"><a xlink:href="struct_json_1_1_built_styled_stream_writer.html#a2b38a3714d415c4bd3b4812897130f3d" target="_top" xlink:title="Json::BuiltStyledStreamWriter\l::writeIndent">
<polygon fill="none" stroke="black" points="784.5,-311 784.5,-341 933.5,-341 933.5,-311 784.5,-311"/>
<text text-anchor="start" x="792.5" y="-329" font-family="Helvetica,sans-Serif" font-size="10.00">Json::BuiltStyledStreamWriter</text>
<text text-anchor="middle" x="859" y="-318" font-family="Helvetica,sans-Serif" font-size="10.00">::writeIndent</text>
</a>
</g>
</g>
<!-- Node35&#45;&gt;Node37 -->
<g id="edge26" class="edge"><title>Node35&#45;&gt;Node37</title>
<path fill="none" stroke="midnightblue" d="M519.126,-384.169C579.875,-389.674 667.964,-392.892 743,-377 771.418,-370.981 801.347,-357.451 823.548,-345.838"/>
<polygon fill="midnightblue" stroke="midnightblue" points="825.402,-348.816 832.562,-341.007 822.095,-342.646 825.402,-348.816"/>
</g>
<!-- Node35&#45;&gt;Node38 -->
<g id="edge23" class="edge"><title>Node35&#45;&gt;Node38</title>
<path fill="none" stroke="midnightblue" d="M491.032,-390.033C510.698,-396.509 533.974,-404.153 555,-411 566.838,-414.855 579.53,-418.965 591.615,-422.867"/>
<polygon fill="midnightblue" stroke="midnightblue" points="590.557,-426.204 601.149,-425.943 592.707,-419.542 590.557,-426.204"/>
</g>
<!-- Node35&#45;&gt;Node39 -->
<g id="edge24" class="edge"><title>Node35&#45;&gt;Node39</title>
<path fill="none" stroke="midnightblue" d="M452.699,-359.581C467.457,-329.72 504.089,-263.96 555,-230 558.169,-227.886 561.513,-225.959 564.975,-224.201"/>
<polygon fill="midnightblue" stroke="midnightblue" points="566.719,-227.253 574.378,-219.933 563.826,-220.879 566.719,-227.253"/>
</g>
<!-- Node35&#45;&gt;Node40 -->
<g id="edge28" class="edge"><title>Node35&#45;&gt;Node40</title>
<path fill="none" stroke="midnightblue" d="M461.809,-390.087C487.045,-413.162 534.756,-455.641 555,-466 558.757,-467.923 562.681,-469.7 566.701,-471.341"/>
<polygon fill="midnightblue" stroke="midnightblue" points="565.632,-474.679 576.224,-474.93 568.101,-468.129 565.632,-474.679"/>
</g>
<!-- Node35&#45;&gt;Node41 -->
<g id="edge30" class="edge"><title>Node35&#45;&gt;Node41</title>
<path fill="none" stroke="midnightblue" d="M519.18,-366.995C533.789,-365.408 549.227,-363.731 564.146,-362.11"/>
<polygon fill="midnightblue" stroke="midnightblue" points="564.811,-365.558 574.375,-360.999 564.055,-358.599 564.811,-365.558"/>
</g>
<!-- Node36&#45;&gt;Node37 -->
<g id="edge22" class="edge"><title>Node36&#45;&gt;Node37</title>
<path fill="none" stroke="midnightblue" d="M713.369,-270.124C723.35,-272.859 733.504,-275.85 743,-279 767.144,-287.008 793.449,-297.613 814.8,-306.722"/>
<polygon fill="midnightblue" stroke="midnightblue" points="813.667,-310.045 824.236,-310.788 816.437,-303.616 813.667,-310.045"/>
</g>
<!-- Node39&#45;&gt;Node37 -->
<g id="edge25" class="edge"><title>Node39&#45;&gt;Node37</title>
<path fill="none" stroke="midnightblue" d="M721.783,-221.055C729.121,-223.612 736.324,-226.574 743,-230 780.051,-249.011 815.743,-281.797 837.281,-303.689"/>
<polygon fill="midnightblue" stroke="midnightblue" points="834.822,-306.18 844.288,-310.937 839.854,-301.315 834.822,-306.18"/>
</g>
<!-- Node40&#45;&gt;Node37 -->
<g id="edge29" class="edge"><title>Node40&#45;&gt;Node37</title>
<path fill="none" stroke="midnightblue" d="M725.84,-474.843C731.853,-472.333 737.658,-469.408 743,-466 789.382,-436.412 826.067,-381.903 844.654,-350.338"/>
<polygon fill="midnightblue" stroke="midnightblue" points="847.882,-351.745 849.833,-341.331 841.814,-348.256 847.882,-351.745"/>
</g>
</g>
</svg>
