<?xml version="1.0" encoding="UTF-8" standalone="no"?>
<!DOCTYPE svg PUBLIC "-//W3C//DTD SVG 1.1//EN"
 "http://www.w3.org/Graphics/SVG/1.1/DTD/svg11.dtd">
<!-- Generated by graphviz version 2.38.0 (20140413.2041)
 -->
<!-- Title: Json::BuiltStyledStreamWriter::writeArrayValue Pages: 1 -->
<!--zoomable 478 -->
<svg id="main" version="1.1" xmlns="http://www.w3.org/2000/svg" xmlns:xlink="http://www.w3.org/1999/xlink" xml:space="preserve" onload="init(evt)">
<style type="text/css"><![CDATA[
.edge:hover path { stroke: red; }
.edge:hover polygon { stroke: red; fill: red; }
]]></style>
<script type="text/javascript"><![CDATA[
var edges = document.getElementsByTagName('g');
if (edges && edges.length) {
  for (var i=0;i<edges.length;i++) {
    if (edges[i].id.substr(0,4)=='edge') {
      edges[i].setAttribute('class','edge');
    }
  }
}
]]></script>
        <defs>
                <circle id="rim" cx="0" cy="0" r="7"/>
                <circle id="rim2" cx="0" cy="0" r="3.5"/>
                <g id="zoomPlus">
                        <use xlink:href="#rim" fill="#404040">
                                <set attributeName="fill" to="#808080" begin="zoomplus.mouseover" end="zoomplus.mouseout"/>
                        </use>
                        <path d="M-4,0h8M0,-4v8" fill="none" stroke="white" stroke-width="1.5" pointer-events="none"/>
                </g>
                <g id="zoomMin">
                        <use xlink:href="#rim" fill="#404040">
                                <set attributeName="fill" to="#808080" begin="zoomminus.mouseover" end="zoomminus.mouseout"/>
                        </use>
                        <path d="M-4,0h8" fill="none" stroke="white" stroke-width="1.5" pointer-events="none"/>
                </g>
                <g id="dirArrow">
                        <path fill="none" stroke="white" stroke-width="1.5" d="M0,-3.0v7 M-2.5,-0.5L0,-3.0L2.5,-0.5"/>
                </g>
               <g id="resetDef">
                       <use xlink:href="#rim2" fill="#404040">
                               <set attributeName="fill" to="#808080" begin="reset.mouseover" end="reset.mouseout"/>
                       </use>
               </g>
        </defs>

<script type="text/javascript">
var viewWidth = 1293;
var viewHeight = 478;
var sectionId = 'dynsection-11';
</script>
<script xlink:href="svgpan.js"/>
<svg id="graph" class="graph">
<g id="viewport">
<title>Json::BuiltStyledStreamWriter::writeArrayValue</title>
<!-- Node81 -->
<g id="node1" class="node"><title>Node81</title>
<polygon fill="#bfbfbf" stroke="black" points="0,-184.674 0,-214.674 149,-214.674 149,-184.674 0,-184.674"/>
<text text-anchor="start" x="8" y="-202.674" font-family="Helvetica,sans-Serif" font-size="10.00">Json::BuiltStyledStreamWriter</text>
<text text-anchor="middle" x="74.5" y="-191.674" font-family="Helvetica,sans-Serif" font-size="10.00">::writeArrayValue</text>
</g>
<!-- Node82 -->
<g id="node2" class="node"><title>Node82</title>
<g id="a_node2"><a xlink:href="struct_json_1_1_built_styled_stream_writer.html#a53de0fe57c883d621c7255e49248651e" target="_top" xlink:title="Json::BuiltStyledStreamWriter\l::pushValue">
<polygon fill="none" stroke="black" points="574.5,-351.674 574.5,-381.674 723.5,-381.674 723.5,-351.674 574.5,-351.674"/>
<text text-anchor="start" x="582.5" y="-369.674" font-family="Helvetica,sans-Serif" font-size="10.00">Json::BuiltStyledStreamWriter</text>
<text text-anchor="middle" x="649" y="-358.674" font-family="Helvetica,sans-Serif" font-size="10.00">::pushValue</text>
</a>
</g>
</g>
<!-- Node81&#45;&gt;Node82 -->
<g id="edge1" class="edge"><title>Node81&#45;&gt;Node82</title>
<path fill="none" stroke="midnightblue" d="M83.959,-214.955C99.7998,-241.891 136.742,-297.275 185,-321.674 305.946,-382.824 467.278,-383.141 564.079,-376.103"/>
<polygon fill="midnightblue" stroke="midnightblue" points="564.408,-379.588 574.109,-375.33 563.87,-372.609 564.408,-379.588"/>
</g>
<!-- Node83 -->
<g id="node3" class="node"><title>Node83</title>
<g id="a_node3"><a xlink:href="struct_json_1_1_built_styled_stream_writer.html#af423fd33b3d580506ea3efc53b05a077" target="_top" xlink:title="Json::BuiltStyledStreamWriter\l::isMultineArray">
<polygon fill="none" stroke="black" points="185,-261.674 185,-291.674 334,-291.674 334,-261.674 185,-261.674"/>
<text text-anchor="start" x="193" y="-279.674" font-family="Helvetica,sans-Serif" font-size="10.00">Json::BuiltStyledStreamWriter</text>
<text text-anchor="middle" x="259.5" y="-268.674" font-family="Helvetica,sans-Serif" font-size="10.00">::isMultineArray</text>
</a>
</g>
</g>
<!-- Node81&#45;&gt;Node83 -->
<g id="edge2" class="edge"><title>Node81&#45;&gt;Node83</title>
<path fill="none" stroke="midnightblue" d="M110.445,-214.863C131.914,-224.147 160.002,-236.208 185,-246.674 193.589,-250.27 202.764,-254.058 211.618,-257.685"/>
<polygon fill="midnightblue" stroke="midnightblue" points="210.474,-260.999 221.055,-261.542 213.122,-254.519 210.474,-260.999"/>
</g>
<!-- Node87 -->
<g id="node7" class="node"><title>Node87</title>
<g id="a_node7"><a xlink:href="struct_json_1_1_built_styled_stream_writer.html#a7c9da861861e570a51b45f270c9ff150" target="_top" xlink:title="Json::BuiltStyledStreamWriter\l::writeValue">
<polygon fill="none" stroke="black" points="370,-208.674 370,-238.674 519,-238.674 519,-208.674 370,-208.674"/>
<text text-anchor="start" x="378" y="-226.674" font-family="Helvetica,sans-Serif" font-size="10.00">Json::BuiltStyledStreamWriter</text>
<text text-anchor="middle" x="444.5" y="-215.674" font-family="Helvetica,sans-Serif" font-size="10.00">::writeValue</text>
</a>
</g>
</g>
<!-- Node81&#45;&gt;Node87 -->
<g id="edge33" class="edge"><title>Node81&#45;&gt;Node87</title>
<path fill="none" stroke="midnightblue" d="M149.086,-198.947C209.91,-201.367 296.279,-206.919 359.745,-212.446"/>
<polygon fill="midnightblue" stroke="midnightblue" points="359.457,-215.934 369.727,-213.332 360.076,-208.961 359.457,-215.934"/>
</g>
<!-- Node96 -->
<g id="node16" class="node"><title>Node96</title>
<g id="a_node16"><a xlink:href="struct_json_1_1_built_styled_stream_writer.html#a764c6d530b5bd660c4a7d1ad4eff6b8d" target="_top" xlink:title="Json::BuiltStyledStreamWriter\l::writeWithIndent">
<polygon fill="none" stroke="black" points="574.5,-126.674 574.5,-156.674 723.5,-156.674 723.5,-126.674 574.5,-126.674"/>
<text text-anchor="start" x="582.5" y="-144.674" font-family="Helvetica,sans-Serif" font-size="10.00">Json::BuiltStyledStreamWriter</text>
<text text-anchor="middle" x="649" y="-133.674" font-family="Helvetica,sans-Serif" font-size="10.00">::writeWithIndent</text>
</a>
</g>
</g>
<!-- Node81&#45;&gt;Node96 -->
<g id="edge29" class="edge"><title>Node81&#45;&gt;Node96</title>
<path fill="none" stroke="midnightblue" d="M149.172,-192.21C255.625,-181.426 451.938,-161.537 563.922,-150.192"/>
<polygon fill="midnightblue" stroke="midnightblue" points="564.561,-153.645 574.158,-149.155 563.856,-146.681 564.561,-153.645"/>
</g>
<!-- Node97 -->
<g id="node17" class="node"><title>Node97</title>
<g id="a_node17"><a xlink:href="struct_json_1_1_built_styled_stream_writer.html#a2b38a3714d415c4bd3b4812897130f3d" target="_top" xlink:title="Json::BuiltStyledStreamWriter\l::writeIndent">
<polygon fill="none" stroke="black" points="779,-150.674 779,-180.674 928,-180.674 928,-150.674 779,-150.674"/>
<text text-anchor="start" x="787" y="-168.674" font-family="Helvetica,sans-Serif" font-size="10.00">Json::BuiltStyledStreamWriter</text>
<text text-anchor="middle" x="853.5" y="-157.674" font-family="Helvetica,sans-Serif" font-size="10.00">::writeIndent</text>
</a>
</g>
</g>
<!-- Node81&#45;&gt;Node97 -->
<g id="edge32" class="edge"><title>Node81&#45;&gt;Node97</title>
<path fill="none" stroke="midnightblue" d="M86.3488,-184.461C104.103,-160.791 141.748,-115.502 185,-92.6742 333.312,-14.398 388.115,-35.199 555,-18.6742 638.149,-10.4408 668.327,18.8153 743,-18.6742 793.993,-44.2752 827.271,-106.126 842.634,-140.889"/>
<polygon fill="midnightblue" stroke="midnightblue" points="839.518,-142.505 846.66,-150.331 845.958,-139.76 839.518,-142.505"/>
</g>
<!-- Node98 -->
<g id="node18" class="node"><title>Node98</title>
<g id="a_node18"><a xlink:href="struct_json_1_1_built_styled_stream_writer.html#a73e09692a2cfbd6e67836b060dc34a9f" target="_top" xlink:title="Json::BuiltStyledStreamWriter\l::indent">
<polygon fill="none" stroke="black" points="574.5,-77.6742 574.5,-107.674 723.5,-107.674 723.5,-77.6742 574.5,-77.6742"/>
<text text-anchor="start" x="582.5" y="-95.6742" font-family="Helvetica,sans-Serif" font-size="10.00">Json::BuiltStyledStreamWriter</text>
<text text-anchor="middle" x="649" y="-84.6742" font-family="Helvetica,sans-Serif" font-size="10.00">::indent</text>
</a>
</g>
</g>
<!-- Node81&#45;&gt;Node98 -->
<g id="edge30" class="edge"><title>Node81&#45;&gt;Node98</title>
<path fill="none" stroke="midnightblue" d="M128.173,-184.674C146.118,-179.844 166.355,-174.705 185,-170.674 316.645,-142.216 471.231,-118 564.303,-104.405"/>
<polygon fill="midnightblue" stroke="midnightblue" points="564.836,-107.865 574.228,-102.962 563.829,-100.938 564.836,-107.865"/>
</g>
<!-- Node99 -->
<g id="node19" class="node"><title>Node99</title>
<g id="a_node19"><a xlink:href="struct_json_1_1_built_styled_stream_writer.html#a32c4afca4e08fba79bb0a80a8010283a" target="_top" xlink:title="Json::BuiltStyledStreamWriter\l::writeCommentBeforeValue">
<polygon fill="none" stroke="black" points="574.5,-175.674 574.5,-205.674 723.5,-205.674 723.5,-175.674 574.5,-175.674"/>
<text text-anchor="start" x="582.5" y="-193.674" font-family="Helvetica,sans-Serif" font-size="10.00">Json::BuiltStyledStreamWriter</text>
<text text-anchor="middle" x="649" y="-182.674" font-family="Helvetica,sans-Serif" font-size="10.00">::writeCommentBeforeValue</text>
</a>
</g>
</g>
<!-- Node81&#45;&gt;Node99 -->
<g id="edge31" class="edge"><title>Node81&#45;&gt;Node99</title>
<path fill="none" stroke="midnightblue" d="M149.172,-198.516C255.625,-196.843 451.938,-193.756 563.922,-191.996"/>
<polygon fill="midnightblue" stroke="midnightblue" points="564.214,-195.492 574.158,-191.835 564.104,-188.493 564.214,-195.492"/>
</g>
<!-- Node100 -->
<g id="node20" class="node"><title>Node100</title>
<g id="a_node20"><a xlink:href="struct_json_1_1_built_styled_stream_writer.html#a89625b134fce0255263ca40e6125742b" target="_top" xlink:title="Json::BuiltStyledStreamWriter\l::writeCommentAfterValueOnSameLine">
<polygon fill="none" stroke="black" points="555,-263.674 555,-293.674 743,-293.674 743,-263.674 555,-263.674"/>
<text text-anchor="start" x="563" y="-281.674" font-family="Helvetica,sans-Serif" font-size="10.00">Json::BuiltStyledStreamWriter</text>
<text text-anchor="middle" x="649" y="-270.674" font-family="Helvetica,sans-Serif" font-size="10.00">::writeCommentAfterValueOnSameLine</text>
</a>
</g>
</g>
<!-- Node81&#45;&gt;Node100 -->
<g id="edge34" class="edge"><title>Node81&#45;&gt;Node100</title>
<path fill="none" stroke="midnightblue" d="M86.0947,-215.038C103.5,-238.755 140.677,-283.354 185,-300.674 248.181,-325.363 428.939,-307.994 545.016,-293.253"/>
<polygon fill="midnightblue" stroke="midnightblue" points="545.523,-296.717 554.996,-291.972 544.632,-289.774 545.523,-296.717"/>
</g>
<!-- Node101 -->
<g id="node21" class="node"><title>Node101</title>
<g id="a_node21"><a xlink:href="struct_json_1_1_built_styled_stream_writer.html#a0da6c6f603e00c8c6e38af553edd8c55" target="_top" xlink:title="Json::BuiltStyledStreamWriter\l::unindent">
<polygon fill="none" stroke="black" points="574.5,-28.6742 574.5,-58.6742 723.5,-58.6742 723.5,-28.6742 574.5,-28.6742"/>
<text text-anchor="start" x="582.5" y="-46.6742" font-family="Helvetica,sans-Serif" font-size="10.00">Json::BuiltStyledStreamWriter</text>
<text text-anchor="middle" x="649" y="-35.6742" font-family="Helvetica,sans-Serif" font-size="10.00">::unindent</text>
</a>
</g>
</g>
<!-- Node81&#45;&gt;Node101 -->
<g id="edge35" class="edge"><title>Node81&#45;&gt;Node101</title>
<path fill="none" stroke="midnightblue" d="M98.0025,-184.429C119.474,-170.552 153.173,-150.484 185,-138.674 312.855,-91.2315 469.838,-65.3497 564.244,-53.0293"/>
<polygon fill="midnightblue" stroke="midnightblue" points="564.838,-56.4819 574.31,-51.7362 563.946,-49.539 564.838,-56.4819"/>
</g>
<!-- Node84 -->
<g id="node4" class="node"><title>Node84</title>
<g id="a_node4"><a xlink:href="struct_json_1_1_built_styled_stream_writer.html#a457c2f3c1e8c952caeb60e52477d0c9a" target="_top" xlink:title="Json::BuiltStyledStreamWriter\l::hasCommentForValue">
<polygon fill="none" stroke="black" points="370,-400.674 370,-430.674 519,-430.674 519,-400.674 370,-400.674"/>
<text text-anchor="start" x="378" y="-418.674" font-family="Helvetica,sans-Serif" font-size="10.00">Json::BuiltStyledStreamWriter</text>
<text text-anchor="middle" x="444.5" y="-407.674" font-family="Helvetica,sans-Serif" font-size="10.00">::hasCommentForValue</text>
</a>
</g>
</g>
<!-- Node83&#45;&gt;Node84 -->
<g id="edge3" class="edge"><title>Node83&#45;&gt;Node84</title>
<path fill="none" stroke="midnightblue" d="M280.433,-291.814C313.022,-316.568 377.812,-365.78 415.168,-394.154"/>
<polygon fill="midnightblue" stroke="midnightblue" points="413.512,-397.291 423.592,-400.553 417.746,-391.717 413.512,-397.291"/>
</g>
<!-- Node83&#45;&gt;Node87 -->
<g id="edge6" class="edge"><title>Node83&#45;&gt;Node87</title>
<path fill="none" stroke="midnightblue" d="M312.451,-261.628C333.99,-255.39 359.15,-248.103 381.634,-241.592"/>
<polygon fill="midnightblue" stroke="midnightblue" points="382.788,-244.901 391.419,-238.758 380.84,-238.178 382.788,-244.901"/>
</g>
<!-- Node85 -->
<g id="node5" class="node"><title>Node85</title>
<g id="a_node5"><a xlink:href="namespace_json.html#a97f039a107b3f6cf1c3edee50e978f76" target="_top" xlink:title="Json::throwRuntimeError">
<polygon fill="none" stroke="black" points="586.5,-450.174 586.5,-469.174 711.5,-469.174 711.5,-450.174 586.5,-450.174"/>
<text text-anchor="middle" x="649" y="-457.174" font-family="Helvetica,sans-Serif" font-size="10.00">Json::throwRuntimeError</text>
</a>
</g>
</g>
<!-- Node84&#45;&gt;Node85 -->
<g id="edge4" class="edge"><title>Node84&#45;&gt;Node85</title>
<path fill="none" stroke="midnightblue" d="M510.295,-430.726C524.98,-434.065 540.515,-437.541 555,-440.674 566.337,-443.126 578.469,-445.666 590.103,-448.06"/>
<polygon fill="midnightblue" stroke="midnightblue" points="589.667,-451.543 600.166,-450.12 591.072,-444.686 589.667,-451.543"/>
</g>
<!-- Node86 -->
<g id="node6" class="node"><title>Node86</title>
<g id="a_node6"><a xlink:href="struct_json_1_1_built_styled_stream_writer.html#ab0c2e665c86b22f8fafb0e52c8069954" target="_top" xlink:title="Json::BuiltStyledStreamWriter\l::BuiltStyledStreamWriter">
<polygon fill="none" stroke="black" points="574.5,-400.674 574.5,-430.674 723.5,-430.674 723.5,-400.674 574.5,-400.674"/>
<text text-anchor="start" x="582.5" y="-418.674" font-family="Helvetica,sans-Serif" font-size="10.00">Json::BuiltStyledStreamWriter</text>
<text text-anchor="middle" x="649" y="-407.674" font-family="Helvetica,sans-Serif" font-size="10.00">::BuiltStyledStreamWriter</text>
</a>
</g>
</g>
<!-- Node84&#45;&gt;Node86 -->
<g id="edge5" class="edge"><title>Node84&#45;&gt;Node86</title>
<path fill="none" stroke="midnightblue" d="M519.18,-415.674C533.789,-415.674 549.227,-415.674 564.146,-415.674"/>
<polygon fill="midnightblue" stroke="midnightblue" points="564.375,-419.174 574.375,-415.674 564.375,-412.174 564.375,-419.174"/>
</g>
<!-- Node87&#45;&gt;Node81 -->
<g id="edge20" class="edge"><title>Node87&#45;&gt;Node81</title>
<path fill="none" stroke="midnightblue" d="M369.727,-224.394C308.85,-221.968 222.479,-216.412 159.06,-210.886"/>
<polygon fill="midnightblue" stroke="midnightblue" points="159.356,-207.398 149.086,-210 158.737,-214.371 159.356,-207.398"/>
</g>
<!-- Node87&#45;&gt;Node82 -->
<g id="edge7" class="edge"><title>Node87&#45;&gt;Node82</title>
<path fill="none" stroke="midnightblue" d="M455.323,-238.888C472.447,-264.162 510.246,-314.684 555,-341.674 558.624,-343.86 562.441,-345.857 566.376,-347.683"/>
<polygon fill="midnightblue" stroke="midnightblue" points="565.167,-350.972 575.741,-351.638 567.891,-344.523 565.167,-350.972"/>
</g>
<!-- Node88 -->
<g id="node8" class="node"><title>Node88</title>
<g id="a_node8"><a xlink:href="namespace_json.html#abd9c650f70d9434f98f9025e2e2faf2d" target="_top" xlink:title="Json::valueToString">
<polygon fill="none" stroke="black" points="801.5,-228.174 801.5,-247.174 905.5,-247.174 905.5,-228.174 801.5,-228.174"/>
<text text-anchor="middle" x="853.5" y="-235.174" font-family="Helvetica,sans-Serif" font-size="10.00">Json::valueToString</text>
</a>
</g>
</g>
<!-- Node87&#45;&gt;Node88 -->
<g id="edge8" class="edge"><title>Node87&#45;&gt;Node88</title>
<path fill="none" stroke="midnightblue" d="M519.205,-226.209C596.933,-228.883 718.019,-233.048 790.857,-235.554"/>
<polygon fill="midnightblue" stroke="midnightblue" points="791.129,-239.065 801.243,-235.911 791.369,-232.069 791.129,-239.065"/>
</g>
<!-- Node90 -->
<g id="node10" class="node"><title>Node90</title>
<g id="a_node10"><a xlink:href="namespace_json.html#a20d52b5a457ee5d833645d119451c2cd" target="_top" xlink:title="Json::valueToQuotedStringN">
<polygon fill="none" stroke="black" points="577.5,-313.174 577.5,-332.174 720.5,-332.174 720.5,-313.174 577.5,-313.174"/>
<text text-anchor="middle" x="649" y="-320.174" font-family="Helvetica,sans-Serif" font-size="10.00">Json::valueToQuotedStringN</text>
</a>
</g>
</g>
<!-- Node87&#45;&gt;Node90 -->
<g id="edge10" class="edge"><title>Node87&#45;&gt;Node90</title>
<path fill="none" stroke="midnightblue" d="M461.942,-238.949C482.248,-256.958 518.587,-286.483 555,-302.674 561.82,-305.707 569.131,-308.292 576.546,-310.493"/>
<polygon fill="midnightblue" stroke="midnightblue" points="575.753,-313.905 586.322,-313.171 577.602,-307.154 575.753,-313.905"/>
</g>
<!-- Node87&#45;&gt;Node96 -->
<g id="edge21" class="edge"><title>Node87&#45;&gt;Node96</title>
<path fill="none" stroke="midnightblue" d="M469.937,-208.587C491.625,-195.725 524.512,-177.494 555,-165.674 560.478,-163.551 566.21,-161.557 572.022,-159.697"/>
<polygon fill="midnightblue" stroke="midnightblue" points="573.307,-162.965 581.848,-156.696 571.262,-156.27 573.307,-162.965"/>
</g>
<!-- Node87&#45;&gt;Node98 -->
<g id="edge23" class="edge"><title>Node87&#45;&gt;Node98</title>
<path fill="none" stroke="midnightblue" d="M456.797,-208.36C474.879,-184.971 512.625,-140.555 555,-116.674 558.241,-114.847 561.624,-113.157 565.099,-111.593"/>
<polygon fill="midnightblue" stroke="midnightblue" points="566.558,-114.777 574.479,-107.74 563.899,-108.302 566.558,-114.777"/>
</g>
<!-- Node87&#45;&gt;Node99 -->
<g id="edge24" class="edge"><title>Node87&#45;&gt;Node99</title>
<path fill="none" stroke="midnightblue" d="M519.18,-211.667C533.789,-209.286 549.227,-206.77 564.146,-204.339"/>
<polygon fill="midnightblue" stroke="midnightblue" points="565.068,-207.735 574.375,-202.672 563.942,-200.826 565.068,-207.735"/>
</g>
<!-- Node87&#45;&gt;Node100 -->
<g id="edge26" class="edge"><title>Node87&#45;&gt;Node100</title>
<path fill="none" stroke="midnightblue" d="M500.834,-238.703C526.17,-245.585 556.373,-253.788 582.805,-260.967"/>
<polygon fill="midnightblue" stroke="midnightblue" points="582.165,-264.42 592.733,-263.663 584,-257.665 582.165,-264.42"/>
</g>
<!-- Node87&#45;&gt;Node101 -->
<g id="edge28" class="edge"><title>Node87&#45;&gt;Node101</title>
<path fill="none" stroke="midnightblue" d="M451.728,-208.549C465.454,-177.16 501.409,-104.785 555,-67.6742 558.132,-65.5056 561.445,-63.5329 564.882,-61.7385"/>
<polygon fill="midnightblue" stroke="midnightblue" points="566.639,-64.7814 574.233,-57.3925 563.689,-58.4336 566.639,-64.7814"/>
</g>
<!-- Node89 -->
<g id="node9" class="node"><title>Node89</title>
<g id="a_node9"><a xlink:href="namespace_json.html#ac1ffd21a9e55122014353c773ccc496e" target="_top" xlink:title="Json::uintToString">
<polygon fill="none" stroke="black" points="996,-228.174 996,-247.174 1092,-247.174 1092,-228.174 996,-228.174"/>
<text text-anchor="middle" x="1044" y="-235.174" font-family="Helvetica,sans-Serif" font-size="10.00">Json::uintToString</text>
</a>
</g>
</g>
<!-- Node88&#45;&gt;Node89 -->
<g id="edge9" class="edge"><title>Node88&#45;&gt;Node89</title>
<path fill="none" stroke="midnightblue" d="M905.511,-237.674C930.235,-237.674 960.027,-237.674 985.549,-237.674"/>
<polygon fill="midnightblue" stroke="midnightblue" points="985.831,-241.174 995.831,-237.674 985.831,-234.174 985.831,-241.174"/>
</g>
<!-- Node90&#45;&gt;Node88 -->
<g id="edge15" class="edge"><title>Node90&#45;&gt;Node88</title>
<path fill="none" stroke="midnightblue" d="M716.667,-313.12C725.81,-310.452 734.847,-307.04 743,-302.674 762.673,-292.141 760.327,-279.893 779,-267.674 789.169,-261.02 801.052,-255.391 812.262,-250.87"/>
<polygon fill="midnightblue" stroke="midnightblue" points="813.795,-254.031 821.88,-247.185 811.29,-247.495 813.795,-254.031"/>
</g>
<!-- Node91 -->
<g id="node11" class="node"><title>Node91</title>
<g id="a_node11"><a xlink:href="namespace_json.html#a7492156d0c7d2dd2f672acacfb240320" target="_top" xlink:title="Json::strnpbrk">
<polygon fill="none" stroke="black" points="814,-310.174 814,-329.174 893,-329.174 893,-310.174 814,-310.174"/>
<text text-anchor="middle" x="853.5" y="-317.174" font-family="Helvetica,sans-Serif" font-size="10.00">Json::strnpbrk</text>
</a>
</g>
</g>
<!-- Node90&#45;&gt;Node91 -->
<g id="edge11" class="edge"><title>Node90&#45;&gt;Node91</title>
<path fill="none" stroke="midnightblue" d="M720.54,-321.629C747.906,-321.224 778.578,-320.769 803.459,-320.401"/>
<polygon fill="midnightblue" stroke="midnightblue" points="803.794,-323.896 813.741,-320.248 803.691,-316.897 803.794,-323.896"/>
</g>
<!-- Node92 -->
<g id="node12" class="node"><title>Node92</title>
<g id="a_node12"><a xlink:href="namespace_json.html#ae8a357381f264cf28f46449e79ab1dea" target="_top" xlink:title="Json::containsControlCharacter0">
<polygon fill="none" stroke="black" points="964,-272.174 964,-291.174 1124,-291.174 1124,-272.174 964,-272.174"/>
<text text-anchor="middle" x="1044" y="-279.174" font-family="Helvetica,sans-Serif" font-size="10.00">Json::containsControlCharacter0</text>
</a>
</g>
</g>
<!-- Node90&#45;&gt;Node92 -->
<g id="edge12" class="edge"><title>Node90&#45;&gt;Node92</title>
<path fill="none" stroke="midnightblue" d="M699.148,-313.139C723.148,-308.778 752.498,-303.88 779,-300.674 837.058,-293.651 902.636,-288.915 953.908,-285.928"/>
<polygon fill="midnightblue" stroke="midnightblue" points="954.182,-289.418 963.966,-285.354 953.782,-282.43 954.182,-289.418"/>
</g>
<!-- Node93 -->
<g id="node13" class="node"><title>Node93</title>
<g id="a_node13"><a xlink:href="namespace_json.html#a0381e631737f51331065a388f4f59197" target="_top" xlink:title="Returns true if ch is a control character (in range [1,31]). ">
<polygon fill="none" stroke="black" points="1160,-329.174 1160,-348.174 1285,-348.174 1285,-329.174 1160,-329.174"/>
<text text-anchor="middle" x="1222.5" y="-336.174" font-family="Helvetica,sans-Serif" font-size="10.00">Json::isControlCharacter</text>
</a>
</g>
</g>
<!-- Node90&#45;&gt;Node93 -->
<g id="edge14" class="edge"><title>Node90&#45;&gt;Node93</title>
<path fill="none" stroke="midnightblue" d="M719.593,-332.301C727.73,-334.75 735.716,-337.822 743,-341.674 762.727,-352.106 758.324,-368.28 779,-376.674 921.899,-434.689 1111.63,-378.849 1187.77,-351.653"/>
<polygon fill="midnightblue" stroke="midnightblue" points="1189.13,-354.885 1197.33,-348.176 1186.74,-348.307 1189.13,-354.885"/>
</g>
<!-- Node94 -->
<g id="node14" class="node"><title>Node94</title>
<g id="a_node14"><a xlink:href="namespace_json.html#aa0c8235a4a5c6599da5d3332743db8ac" target="_top" xlink:title="Json::valueToQuotedString">
<polygon fill="none" stroke="black" points="786,-348.174 786,-367.174 921,-367.174 921,-348.174 786,-348.174"/>
<text text-anchor="middle" x="853.5" y="-355.174" font-family="Helvetica,sans-Serif" font-size="10.00">Json::valueToQuotedString</text>
</a>
</g>
</g>
<!-- Node90&#45;&gt;Node94 -->
<g id="edge16" class="edge"><title>Node90&#45;&gt;Node94</title>
<path fill="none" stroke="midnightblue" d="M705.067,-332.192C730.51,-336.589 760.905,-341.843 787.469,-346.434"/>
<polygon fill="midnightblue" stroke="midnightblue" points="786.994,-349.904 797.444,-348.158 788.187,-343.006 786.994,-349.904"/>
</g>
<!-- Node92&#45;&gt;Node93 -->
<g id="edge13" class="edge"><title>Node92&#45;&gt;Node93</title>
<path fill="none" stroke="midnightblue" d="M1089.17,-291.179C1100.6,-293.943 1112.83,-297.171 1124,-300.674 1146.44,-307.709 1171.11,-317.345 1190.02,-325.153"/>
<polygon fill="midnightblue" stroke="midnightblue" points="1188.77,-328.422 1199.35,-329.046 1191.47,-321.963 1188.77,-328.422"/>
</g>
<!-- Node94&#45;&gt;Node93 -->
<g id="edge19" class="edge"><title>Node94&#45;&gt;Node93</title>
<path fill="none" stroke="midnightblue" d="M921.387,-354.211C985.953,-350.869 1083.41,-345.823 1149.61,-342.396"/>
<polygon fill="midnightblue" stroke="midnightblue" points="1150.15,-345.873 1159.96,-341.86 1149.79,-338.882 1150.15,-345.873"/>
</g>
<!-- Node95 -->
<g id="node15" class="node"><title>Node95</title>
<g id="a_node15"><a xlink:href="namespace_json.html#aa11b210ff98a4f4dd4e2df19260f8c3a" target="_top" xlink:title="Json::containsControlCharacter">
<polygon fill="none" stroke="black" points="966.5,-310.174 966.5,-329.174 1121.5,-329.174 1121.5,-310.174 966.5,-310.174"/>
<text text-anchor="middle" x="1044" y="-317.174" font-family="Helvetica,sans-Serif" font-size="10.00">Json::containsControlCharacter</text>
</a>
</g>
</g>
<!-- Node94&#45;&gt;Node95 -->
<g id="edge17" class="edge"><title>Node94&#45;&gt;Node95</title>
<path fill="none" stroke="midnightblue" d="M902.067,-348.085C927.501,-342.958 959.005,-336.607 985.771,-331.211"/>
<polygon fill="midnightblue" stroke="midnightblue" points="986.664,-334.601 995.776,-329.194 985.281,-327.739 986.664,-334.601"/>
</g>
<!-- Node95&#45;&gt;Node93 -->
<g id="edge18" class="edge"><title>Node95&#45;&gt;Node93</title>
<path fill="none" stroke="midnightblue" d="M1121.65,-327.925C1131.01,-328.933 1140.54,-329.959 1149.83,-330.959"/>
<polygon fill="midnightblue" stroke="midnightblue" points="1149.46,-334.439 1159.78,-332.03 1150.21,-327.48 1149.46,-334.439"/>
</g>
<!-- Node96&#45;&gt;Node97 -->
<g id="edge22" class="edge"><title>Node96&#45;&gt;Node97</title>
<path fill="none" stroke="midnightblue" d="M723.68,-150.407C738.289,-152.138 753.727,-153.968 768.646,-155.736"/>
<polygon fill="midnightblue" stroke="midnightblue" points="768.532,-159.247 778.875,-156.948 769.356,-152.296 768.532,-159.247"/>
</g>
<!-- Node99&#45;&gt;Node97 -->
<g id="edge25" class="edge"><title>Node99&#45;&gt;Node97</title>
<path fill="none" stroke="midnightblue" d="M723.68,-181.578C738.289,-179.774 753.727,-177.868 768.646,-176.027"/>
<polygon fill="midnightblue" stroke="midnightblue" points="769.379,-179.463 778.875,-174.764 768.521,-172.515 769.379,-179.463"/>
</g>
<!-- Node100&#45;&gt;Node97 -->
<g id="edge27" class="edge"><title>Node100&#45;&gt;Node97</title>
<path fill="none" stroke="midnightblue" d="M676.89,-263.669C712.822,-243.618 776.601,-208.028 816.607,-185.704"/>
<polygon fill="midnightblue" stroke="midnightblue" points="818.471,-188.671 825.498,-180.742 815.06,-182.558 818.471,-188.671"/>
</g>
</g>
</svg>
        <g id="navigator" transform="translate(0 0)" fill="#404254">
                <rect fill="#f2f5e9" fill-opacity="0.5" stroke="#606060" stroke-width=".5" x="0" y="0" width="60" height="60"/>
                <use id="zoomplus" xlink:href="#zoomPlus" x="17" y="9" onmousedown="handleZoom(evt,'in')"/>
                <use id="zoomminus" xlink:href="#zoomMin" x="42" y="9" onmousedown="handleZoom(evt,'out')"/>
                <use id="reset" xlink:href="#resetDef" x="30" y="36" onmousedown="handleReset()"/>
                <g id="arrowUp" xlink:href="#dirArrow" transform="translate(30 24)" onmousedown="handlePan(0,-1)">
                  <use xlink:href="#rim" fill="#404040">
                        <set attributeName="fill" to="#808080" begin="arrowUp.mouseover" end="arrowUp.mouseout"/>
                  </use>
                  <path fill="none" stroke="white" stroke-width="1.5" d="M0,-3.0v7 M-2.5,-0.5L0,-3.0L2.5,-0.5"/>
                </g>
                <g id="arrowRight" xlink:href="#dirArrow" transform="rotate(90) translate(36 -43)" onmousedown="handlePan(1,0)">
                  <use xlink:href="#rim" fill="#404040">
                        <set attributeName="fill" to="#808080" begin="arrowRight.mouseover" end="arrowRight.mouseout"/>
                  </use>
                  <path fill="none" stroke="white" stroke-width="1.5" d="M0,-3.0v7 M-2.5,-0.5L0,-3.0L2.5,-0.5"/>
                </g>
                <g id="arrowDown" xlink:href="#dirArrow" transform="rotate(180) translate(-30 -48)" onmousedown="handlePan(0,1)">
                  <use xlink:href="#rim" fill="#404040">
                        <set attributeName="fill" to="#808080" begin="arrowDown.mouseover" end="arrowDown.mouseout"/>
                  </use>
                  <path fill="none" stroke="white" stroke-width="1.5" d="M0,-3.0v7 M-2.5,-0.5L0,-3.0L2.5,-0.5"/>
                </g>
                <g id="arrowLeft" xlink:href="#dirArrow" transform="rotate(270) translate(-36 17)" onmousedown="handlePan(-1,0)">
                  <use xlink:href="#rim" fill="#404040">
                        <set attributeName="fill" to="#808080" begin="arrowLeft.mouseover" end="arrowLeft.mouseout"/>
                  </use>
                  <path fill="none" stroke="white" stroke-width="1.5" d="M0,-3.0v7 M-2.5,-0.5L0,-3.0L2.5,-0.5"/>
                </g>
        </g>
        <svg viewBox="0 0 15 15" width="100%" height="30px" preserveAspectRatio="xMaxYMin meet">
         <g id="arrow_out" transform="scale(0.3 0.3)">
          <a xlink:href="struct_json_1_1_built_styled_stream_writer_acd20e9274bbcf7876ef3af2e7d23a31f_cgraph_org.svg" target="_base">
           <rect id="button" ry="5" rx="5" y="6" x="6" height="38" width="38"
                fill="#f2f5e9" fill-opacity="0.5" stroke="#606060" stroke-width="1.0"/>
           <path id="arrow"
             d="M 11.500037,31.436501 C 11.940474,20.09759 22.043105,11.32322 32.158766,21.979434 L 37.068811,17.246167 C 37.068811,17.246167 37.088388,32 37.088388,32 L 22.160133,31.978069 C 22.160133,31.978069 26.997745,27.140456 26.997745,27.140456 C 18.528582,18.264221 13.291696,25.230495 11.500037,31.436501 z"
             style="fill:#404040;"/>
          </a>
         </g>
        </svg>
</svg>
