<?xml version="1.0" encoding="UTF-8" standalone="no"?>
<!DOCTYPE svg PUBLIC "-//W3C//DTD SVG 1.1//EN"
 "http://www.w3.org/Graphics/SVG/1.1/DTD/svg11.dtd">
<!-- Generated by graphviz version 2.38.0 (20140413.2041)
 -->
<!-- Title: Json::BuiltStyledStreamWriter::writeCommentAfterValueOnSameLine Pages: 1 -->
<svg width="751pt" height="165pt"
 viewBox="0.00 0.00 751.00 164.78" xmlns="http://www.w3.org/2000/svg" xmlns:xlink="http://www.w3.org/1999/xlink">
<g id="graph0" class="graph" transform="scale(1 1) rotate(0) translate(4 160.78)">
<title>Json::BuiltStyledStreamWriter::writeCommentAfterValueOnSameLine</title>
<!-- Node108 -->
<g id="node1" class="node"><title>Node108</title>
<polygon fill="#bfbfbf" stroke="black" points="0,-73.2796 0,-103.28 188,-103.28 188,-73.2796 0,-73.2796"/>
<text text-anchor="start" x="8" y="-91.2796" font-family="Helvetica,sans-Serif" font-size="10.00">Json::BuiltStyledStreamWriter</text>
<text text-anchor="middle" x="94" y="-80.2796" font-family="Helvetica,sans-Serif" font-size="10.00">::writeCommentAfterValueOnSameLine</text>
</g>
<!-- Node109 -->
<g id="node2" class="node"><title>Node109</title>
<g id="a_node2"><a xlink:href="struct_json_1_1_built_styled_stream_writer.html#a2ecffc3d66c4feddf208e5cd3b1c0f18" target="_top" xlink:title="Json::BuiltStyledStreamWriter\l::write">
<polygon fill="none" stroke="black" points="409,-126.28 409,-156.28 558,-156.28 558,-126.28 409,-126.28"/>
<text text-anchor="start" x="417" y="-144.28" font-family="Helvetica,sans-Serif" font-size="10.00">Json::BuiltStyledStreamWriter</text>
<text text-anchor="middle" x="483.5" y="-133.28" font-family="Helvetica,sans-Serif" font-size="10.00">::write</text>
</a>
</g>
</g>
<!-- Node108&#45;&gt;Node109 -->
<g id="edge1" class="edge"><title>Node108&#45;&gt;Node109</title>
<path fill="none" stroke="midnightblue" d="M180.507,-105.084C194.993,-107.674 209.904,-110.18 224,-112.28 286.088,-121.526 356.962,-129.281 408.776,-134.438"/>
<polygon fill="midnightblue" stroke="midnightblue" points="181.026,-101.622 170.562,-103.283 179.778,-108.509 181.026,-101.622"/>
</g>
<!-- Node110 -->
<g id="node3" class="node"><title>Node110</title>
<g id="a_node3"><a xlink:href="struct_json_1_1_built_styled_stream_writer.html#a7c9da861861e570a51b45f270c9ff150" target="_top" xlink:title="Json::BuiltStyledStreamWriter\l::writeValue">
<polygon fill="none" stroke="black" points="224,-73.2796 224,-103.28 373,-103.28 373,-73.2796 224,-73.2796"/>
<text text-anchor="start" x="232" y="-91.2796" font-family="Helvetica,sans-Serif" font-size="10.00">Json::BuiltStyledStreamWriter</text>
<text text-anchor="middle" x="298.5" y="-80.2796" font-family="Helvetica,sans-Serif" font-size="10.00">::writeValue</text>
</a>
</g>
</g>
<!-- Node108&#45;&gt;Node110 -->
<g id="edge2" class="edge"><title>Node108&#45;&gt;Node110</title>
<path fill="none" stroke="midnightblue" d="M198.341,-88.2796C206.943,-88.2796 215.525,-88.2796 223.838,-88.2796"/>
<polygon fill="midnightblue" stroke="midnightblue" points="198.248,-84.7797 188.248,-88.2796 198.248,-91.7797 198.248,-84.7797"/>
</g>
<!-- Node111 -->
<g id="node4" class="node"><title>Node111</title>
<g id="a_node4"><a xlink:href="struct_json_1_1_built_styled_stream_writer.html#acd20e9274bbcf7876ef3af2e7d23a31f" target="_top" xlink:title="Json::BuiltStyledStreamWriter\l::writeArrayValue">
<polygon fill="none" stroke="black" points="594,-46.2796 594,-76.2796 743,-76.2796 743,-46.2796 594,-46.2796"/>
<text text-anchor="start" x="602" y="-64.2796" font-family="Helvetica,sans-Serif" font-size="10.00">Json::BuiltStyledStreamWriter</text>
<text text-anchor="middle" x="668.5" y="-53.2796" font-family="Helvetica,sans-Serif" font-size="10.00">::writeArrayValue</text>
</a>
</g>
</g>
<!-- Node108&#45;&gt;Node111 -->
<g id="edge8" class="edge"><title>Node108&#45;&gt;Node111</title>
<path fill="none" stroke="midnightblue" d="M139.442,-69.4522C222.269,-36.8689 405.655,23.4581 558,-10.2796 588.917,-17.1265 621.459,-33.6399 642.952,-46.0342"/>
<polygon fill="midnightblue" stroke="midnightblue" points="138.076,-66.2287 130.084,-73.1845 140.669,-72.7306 138.076,-66.2287"/>
</g>
<!-- Node110&#45;&gt;Node109 -->
<g id="edge3" class="edge"><title>Node110&#45;&gt;Node109</title>
<path fill="none" stroke="midnightblue" d="M361.231,-106.158C383.704,-112.666 408.865,-119.954 430.419,-126.196"/>
<polygon fill="midnightblue" stroke="midnightblue" points="362.03,-102.746 351.451,-103.326 360.083,-109.469 362.03,-102.746"/>
</g>
<!-- Node110&#45;&gt;Node111 -->
<g id="edge4" class="edge"><title>Node110&#45;&gt;Node111</title>
<path fill="none" stroke="midnightblue" d="M383.06,-76.3868C446.479,-70.3436 532.85,-64.0835 593.727,-61.1612"/>
<polygon fill="midnightblue" stroke="midnightblue" points="382.701,-72.9051 373.086,-77.3544 383.377,-79.8724 382.701,-72.9051"/>
</g>
<!-- Node112 -->
<g id="node5" class="node"><title>Node112</title>
<g id="a_node5"><a xlink:href="struct_json_1_1_built_styled_stream_writer.html#af423fd33b3d580506ea3efc53b05a077" target="_top" xlink:title="Json::BuiltStyledStreamWriter\l::isMultineArray">
<polygon fill="none" stroke="black" points="409,-20.2796 409,-50.2796 558,-50.2796 558,-20.2796 409,-20.2796"/>
<text text-anchor="start" x="417" y="-38.2796" font-family="Helvetica,sans-Serif" font-size="10.00">Json::BuiltStyledStreamWriter</text>
<text text-anchor="middle" x="483.5" y="-27.2796" font-family="Helvetica,sans-Serif" font-size="10.00">::isMultineArray</text>
</a>
</g>
</g>
<!-- Node110&#45;&gt;Node112 -->
<g id="edge6" class="edge"><title>Node110&#45;&gt;Node112</title>
<path fill="none" stroke="midnightblue" d="M361.231,-70.4013C383.704,-63.8928 408.865,-56.6055 430.419,-50.3631"/>
<polygon fill="midnightblue" stroke="midnightblue" points="360.083,-67.0899 351.451,-73.2337 362.03,-73.8136 360.083,-67.0899"/>
</g>
<!-- Node111&#45;&gt;Node110 -->
<g id="edge5" class="edge"><title>Node111&#45;&gt;Node110</title>
<path fill="none" stroke="midnightblue" d="M583.745,-73.1909C520.279,-79.2347 433.91,-85.4915 373.086,-88.4069"/>
<polygon fill="midnightblue" stroke="midnightblue" points="584.111,-76.6719 593.727,-72.2233 583.436,-69.7046 584.111,-76.6719"/>
</g>
<!-- Node112&#45;&gt;Node111 -->
<g id="edge7" class="edge"><title>Node112&#45;&gt;Node111</title>
<path fill="none" stroke="midnightblue" d="M568.109,-47.1585C576.651,-48.3721 585.285,-49.5988 593.711,-50.7959"/>
<polygon fill="midnightblue" stroke="midnightblue" points="568.535,-43.6839 558.142,-45.7424 567.55,-50.6143 568.535,-43.6839"/>
</g>
</g>
</svg>
