<?xml version="1.0" encoding="UTF-8" standalone="no"?>
<!DOCTYPE svg PUBLIC "-//W3C//DTD SVG 1.1//EN"
 "http://www.w3.org/Graphics/SVG/1.1/DTD/svg11.dtd">
<!-- Generated by graphviz version 2.38.0 (20140413.2041)
 -->
<!-- Title: /home/mel/projects/Misc/Minecraft Server Service/src/vanillaServer.h Pages: 1 -->
<svg width="1940pt" height="162pt"
 viewBox="0.00 0.00 1939.50 162.00" xmlns="http://www.w3.org/2000/svg" xmlns:xlink="http://www.w3.org/1999/xlink">
<g id="graph0" class="graph" transform="scale(1 1) rotate(0) translate(4 158)">
<title>/home/mel/projects/Misc/Minecraft Server Service/src/vanillaServer.h</title>
<!-- Node0 -->
<g id="node1" class="node"><title>Node0</title>
<polygon fill="#bfbfbf" stroke="black" points="208,-112.5 208,-153.5 345,-153.5 345,-112.5 208,-112.5"/>
<text text-anchor="start" x="216" y="-141.5" font-family="Helvetica,sans-Serif" font-size="10.00">/home/mel/projects</text>
<text text-anchor="start" x="216" y="-130.5" font-family="Helvetica,sans-Serif" font-size="10.00">/Misc/Minecraft Server</text>
<text text-anchor="middle" x="276.5" y="-119.5" font-family="Helvetica,sans-Serif" font-size="10.00"> Service/src/vanillaServer.h</text>
</g>
<!-- Node1 -->
<g id="node2" class="node"><title>Node1</title>
<g id="a_node2"><a xlink:href="server_8h.html" target="_top" xlink:title="server.h">
<polygon fill="none" stroke="black" points="1006.5,-56.5 1006.5,-75.5 1058.5,-75.5 1058.5,-56.5 1006.5,-56.5"/>
<text text-anchor="middle" x="1032.5" y="-63.5" font-family="Helvetica,sans-Serif" font-size="10.00">server.h</text>
</a>
</g>
</g>
<!-- Node0&#45;&gt;Node1 -->
<g id="edge1" class="edge"><title>Node0&#45;&gt;Node1</title>
<path fill="none" stroke="midnightblue" d="M345.258,-126.088C501.428,-112.661 878.46,-80.2442 996.527,-70.0929"/>
<polygon fill="midnightblue" stroke="midnightblue" points="996.833,-73.5796 1006.5,-69.2358 996.233,-66.6053 996.833,-73.5796"/>
</g>
<!-- Node3 -->
<g id="node4" class="node"><title>Node3</title>
<polygon fill="none" stroke="#bfbfbf" points="0,-0.5 0,-19.5 107,-19.5 107,-0.5 0,-0.5"/>
<text text-anchor="middle" x="53.5" y="-7.5" font-family="Helvetica,sans-Serif" font-size="10.00">log4cpp/Category.hh</text>
</g>
<!-- Node0&#45;&gt;Node3 -->
<g id="edge28" class="edge"><title>Node0&#45;&gt;Node3</title>
<path fill="none" stroke="midnightblue" d="M240.175,-112.29C194.665,-87.5961 117.879,-45.932 78.4741,-24.551"/>
<polygon fill="midnightblue" stroke="midnightblue" points="79.7619,-21.2677 69.3031,-19.5748 76.4234,-27.4204 79.7619,-21.2677"/>
</g>
<!-- Node9 -->
<g id="node10" class="node"><title>Node9</title>
<polygon fill="none" stroke="#bfbfbf" points="125,-0.5 125,-19.5 166,-19.5 166,-0.5 125,-0.5"/>
<text text-anchor="middle" x="145.5" y="-7.5" font-family="Helvetica,sans-Serif" font-size="10.00">string</text>
</g>
<!-- Node0&#45;&gt;Node9 -->
<g id="edge29" class="edge"><title>Node0&#45;&gt;Node9</title>
<path fill="none" stroke="midnightblue" d="M255.161,-112.29C229.219,-88.3286 185.979,-48.3886 162.288,-26.5061"/>
<polygon fill="midnightblue" stroke="midnightblue" points="164.504,-23.7889 154.783,-19.5748 159.755,-28.931 164.504,-23.7889"/>
</g>
<!-- Node10 -->
<g id="node11" class="node"><title>Node10</title>
<polygon fill="none" stroke="#bfbfbf" points="184.5,-0.5 184.5,-19.5 236.5,-19.5 236.5,-0.5 184.5,-0.5"/>
<text text-anchor="middle" x="210.5" y="-7.5" font-family="Helvetica,sans-Serif" font-size="10.00">sstream</text>
</g>
<!-- Node0&#45;&gt;Node10 -->
<g id="edge30" class="edge"><title>Node0&#45;&gt;Node10</title>
<path fill="none" stroke="midnightblue" d="M265.749,-112.29C253.079,-89.061 232.218,-50.8154 220.079,-28.5624"/>
<polygon fill="midnightblue" stroke="midnightblue" points="223.038,-26.6778 215.177,-19.5748 216.893,-30.0298 223.038,-26.6778"/>
</g>
<!-- Node11 -->
<g id="node12" class="node"><title>Node11</title>
<polygon fill="none" stroke="#bfbfbf" points="254.5,-0.5 254.5,-19.5 298.5,-19.5 298.5,-0.5 254.5,-0.5"/>
<text text-anchor="middle" x="276.5" y="-7.5" font-family="Helvetica,sans-Serif" font-size="10.00">vector</text>
</g>
<!-- Node0&#45;&gt;Node11 -->
<g id="edge31" class="edge"><title>Node0&#45;&gt;Node11</title>
<path fill="none" stroke="midnightblue" d="M276.5,-112.29C276.5,-89.4795 276.5,-52.1888 276.5,-29.7807"/>
<polygon fill="midnightblue" stroke="midnightblue" points="280,-29.5748 276.5,-19.5748 273,-29.5748 280,-29.5748"/>
</g>
<!-- Node12 -->
<g id="node13" class="node"><title>Node12</title>
<polygon fill="none" stroke="#bfbfbf" points="316.5,-0.5 316.5,-19.5 360.5,-19.5 360.5,-0.5 316.5,-0.5"/>
<text text-anchor="middle" x="338.5" y="-7.5" font-family="Helvetica,sans-Serif" font-size="10.00">thread</text>
</g>
<!-- Node0&#45;&gt;Node12 -->
<g id="edge32" class="edge"><title>Node0&#45;&gt;Node12</title>
<path fill="none" stroke="midnightblue" d="M286.599,-112.29C298.502,-89.061 318.099,-50.8154 329.501,-28.5624"/>
<polygon fill="midnightblue" stroke="midnightblue" points="332.661,-30.0706 334.106,-19.5748 326.431,-26.8784 332.661,-30.0706"/>
</g>
<!-- Node27 -->
<g id="node28" class="node"><title>Node27</title>
<polygon fill="none" stroke="#bfbfbf" points="1887.5,-0.5 1887.5,-19.5 1931.5,-19.5 1931.5,-0.5 1887.5,-0.5"/>
<text text-anchor="middle" x="1909.5" y="-7.5" font-family="Helvetica,sans-Serif" font-size="10.00">time.h</text>
</g>
<!-- Node0&#45;&gt;Node27 -->
<g id="edge33" class="edge"><title>Node0&#45;&gt;Node27</title>
<path fill="none" stroke="midnightblue" d="M345.059,-132.39C566.735,-132.557 1283.67,-124.54 1877.24,-19.8467"/>
<polygon fill="midnightblue" stroke="midnightblue" points="1878.05,-23.2578 1887.28,-18.0638 1876.83,-16.3656 1878.05,-23.2578"/>
</g>
<!-- Node2 -->
<g id="node3" class="node"><title>Node2</title>
<polygon fill="none" stroke="#bfbfbf" points="506.5,-0.5 506.5,-19.5 592.5,-19.5 592.5,-0.5 506.5,-0.5"/>
<text text-anchor="middle" x="549.5" y="-7.5" font-family="Helvetica,sans-Serif" font-size="10.00">outputListener.h</text>
</g>
<!-- Node1&#45;&gt;Node2 -->
<g id="edge2" class="edge"><title>Node1&#45;&gt;Node2</title>
<path fill="none" stroke="midnightblue" d="M1006.19,-62.8744C940.131,-57.4061 761.785,-41.8277 602.57,-20.064"/>
<polygon fill="midnightblue" stroke="midnightblue" points="602.98,-16.5875 592.595,-18.6889 602.024,-23.5219 602.98,-16.5875"/>
</g>
<!-- Node1&#45;&gt;Node3 -->
<g id="edge3" class="edge"><title>Node1&#45;&gt;Node3</title>
<path fill="none" stroke="midnightblue" d="M1006.17,-64.6237C897.726,-62.8822 474.857,-54.213 117.259,-20.0842"/>
<polygon fill="midnightblue" stroke="midnightblue" points="117.52,-16.5932 107.231,-19.1187 116.849,-23.561 117.52,-16.5932"/>
</g>
<!-- Node4 -->
<g id="node5" class="node"><title>Node4</title>
<polygon fill="none" stroke="#bfbfbf" points="610.5,-0.5 610.5,-19.5 720.5,-19.5 720.5,-0.5 610.5,-0.5"/>
<text text-anchor="middle" x="665.5" y="-7.5" font-family="Helvetica,sans-Serif" font-size="10.00">event2/event&#45;config.h</text>
</g>
<!-- Node1&#45;&gt;Node4 -->
<g id="edge4" class="edge"><title>Node1&#45;&gt;Node4</title>
<path fill="none" stroke="midnightblue" d="M1006.4,-61.1597C949.415,-52.7749 812.416,-32.6171 730.492,-20.5628"/>
<polygon fill="midnightblue" stroke="midnightblue" points="730.941,-17.0913 720.538,-19.0982 729.922,-24.0167 730.941,-17.0913"/>
</g>
<!-- Node5 -->
<g id="node6" class="node"><title>Node5</title>
<polygon fill="none" stroke="#bfbfbf" points="739,-0.5 739,-19.5 820,-19.5 820,-0.5 739,-0.5"/>
<text text-anchor="middle" x="779.5" y="-7.5" font-family="Helvetica,sans-Serif" font-size="10.00">event2/event.h</text>
</g>
<!-- Node1&#45;&gt;Node5 -->
<g id="edge5" class="edge"><title>Node1&#45;&gt;Node5</title>
<path fill="none" stroke="midnightblue" d="M1006.38,-59.4244C964.746,-50.5387 882.633,-33.0127 829.451,-21.6614"/>
<polygon fill="midnightblue" stroke="midnightblue" points="830.057,-18.2122 819.547,-19.5476 828.596,-25.058 830.057,-18.2122"/>
</g>
<!-- Node6 -->
<g id="node7" class="node"><title>Node6</title>
<polygon fill="none" stroke="#bfbfbf" points="838.5,-0.5 838.5,-19.5 908.5,-19.5 908.5,-0.5 838.5,-0.5"/>
<text text-anchor="middle" x="873.5" y="-7.5" font-family="Helvetica,sans-Serif" font-size="10.00">event2/util.h</text>
</g>
<!-- Node1&#45;&gt;Node6 -->
<g id="edge6" class="edge"><title>Node1&#45;&gt;Node6</title>
<path fill="none" stroke="midnightblue" d="M1007.31,-56.4435C980.557,-47.3591 938.097,-32.9388 908.195,-22.7831"/>
<polygon fill="midnightblue" stroke="midnightblue" points="909.171,-19.4182 898.576,-19.5164 906.919,-26.0464 909.171,-19.4182"/>
</g>
<!-- Node7 -->
<g id="node8" class="node"><title>Node7</title>
<polygon fill="none" stroke="#bfbfbf" points="926.5,-0.5 926.5,-19.5 988.5,-19.5 988.5,-0.5 926.5,-0.5"/>
<text text-anchor="middle" x="957.5" y="-7.5" font-family="Helvetica,sans-Serif" font-size="10.00">sys/wait.h</text>
</g>
<!-- Node1&#45;&gt;Node7 -->
<g id="edge7" class="edge"><title>Node1&#45;&gt;Node7</title>
<path fill="none" stroke="midnightblue" d="M1020.45,-56.324C1009.04,-48.1066 991.669,-35.6017 978.065,-25.8069"/>
<polygon fill="midnightblue" stroke="midnightblue" points="979.93,-22.8366 969.769,-19.8339 975.84,-28.5174 979.93,-22.8366"/>
</g>
<!-- Node8 -->
<g id="node9" class="node"><title>Node8</title>
<polygon fill="none" stroke="#bfbfbf" points="1007,-0.5 1007,-19.5 1058,-19.5 1058,-0.5 1007,-0.5"/>
<text text-anchor="middle" x="1032.5" y="-7.5" font-family="Helvetica,sans-Serif" font-size="10.00">unistd.h</text>
</g>
<!-- Node1&#45;&gt;Node8 -->
<g id="edge8" class="edge"><title>Node1&#45;&gt;Node8</title>
<path fill="none" stroke="midnightblue" d="M1032.5,-56.083C1032.5,-49.0059 1032.5,-38.8611 1032.5,-29.9865"/>
<polygon fill="midnightblue" stroke="midnightblue" points="1036,-29.751 1032.5,-19.7511 1029,-29.7511 1036,-29.751"/>
</g>
<!-- Node1&#45;&gt;Node9 -->
<g id="edge9" class="edge"><title>Node1&#45;&gt;Node9</title>
<path fill="none" stroke="midnightblue" d="M1006.37,-64.4689C883.415,-61.8438 361.084,-49.2559 176.125,-19.5577"/>
<polygon fill="midnightblue" stroke="midnightblue" points="176.444,-16.0622 166.002,-17.8549 175.282,-22.9652 176.444,-16.0622"/>
</g>
<!-- Node1&#45;&gt;Node10 -->
<g id="edge10" class="edge"><title>Node1&#45;&gt;Node10</title>
<path fill="none" stroke="midnightblue" d="M1006.49,-65.3402C908.169,-66.2457 549.821,-66.0965 247.054,-19.9277"/>
<polygon fill="midnightblue" stroke="midnightblue" points="247.176,-16.4052 236.759,-18.3366 246.107,-23.323 247.176,-16.4052"/>
</g>
<!-- Node1&#45;&gt;Node11 -->
<g id="edge11" class="edge"><title>Node1&#45;&gt;Node11</title>
<path fill="none" stroke="midnightblue" d="M1006.25,-65.4472C912.501,-66.6116 585.536,-66.9567 308.944,-19.8533"/>
<polygon fill="midnightblue" stroke="midnightblue" points="309.163,-16.3394 298.713,-18.0852 307.971,-23.2371 309.163,-16.3394"/>
</g>
<!-- Node1&#45;&gt;Node12 -->
<g id="edge12" class="edge"><title>Node1&#45;&gt;Node12</title>
<path fill="none" stroke="midnightblue" d="M1006.35,-65.2307C917.959,-65.5919 622.254,-63.3859 370.771,-19.837"/>
<polygon fill="midnightblue" stroke="midnightblue" points="371.171,-16.3537 360.716,-18.0694 369.959,-23.248 371.171,-16.3537"/>
</g>
<!-- Node13 -->
<g id="node14" class="node"><title>Node13</title>
<polygon fill="none" stroke="#bfbfbf" points="1076.5,-0.5 1076.5,-19.5 1120.5,-19.5 1120.5,-0.5 1076.5,-0.5"/>
<text text-anchor="middle" x="1098.5" y="-7.5" font-family="Helvetica,sans-Serif" font-size="10.00">mutex</text>
</g>
<!-- Node1&#45;&gt;Node13 -->
<g id="edge13" class="edge"><title>Node1&#45;&gt;Node13</title>
<path fill="none" stroke="midnightblue" d="M1043.1,-56.324C1052.96,-48.2631 1067.85,-36.0765 1079.72,-26.3695"/>
<polygon fill="midnightblue" stroke="midnightblue" points="1082.18,-28.8752 1087.7,-19.8339 1077.75,-23.4575 1082.18,-28.8752"/>
</g>
<!-- Node14 -->
<g id="node15" class="node"><title>Node14</title>
<polygon fill="none" stroke="#bfbfbf" points="1139,-0.5 1139,-19.5 1198,-19.5 1198,-0.5 1139,-0.5"/>
<text text-anchor="middle" x="1168.5" y="-7.5" font-family="Helvetica,sans-Serif" font-size="10.00">functional</text>
</g>
<!-- Node1&#45;&gt;Node14 -->
<g id="edge14" class="edge"><title>Node1&#45;&gt;Node14</title>
<path fill="none" stroke="midnightblue" d="M1054.05,-56.4435C1076.53,-47.5171 1111.99,-33.4387 1137.48,-23.3168"/>
<polygon fill="midnightblue" stroke="midnightblue" points="1139.05,-26.4598 1147.05,-19.5164 1136.47,-19.9539 1139.05,-26.4598"/>
</g>
<!-- Node15 -->
<g id="node16" class="node"><title>Node15</title>
<polygon fill="none" stroke="#bfbfbf" points="1216,-0.5 1216,-19.5 1261,-19.5 1261,-0.5 1216,-0.5"/>
<text text-anchor="middle" x="1238.5" y="-7.5" font-family="Helvetica,sans-Serif" font-size="10.00">cstdlib</text>
</g>
<!-- Node1&#45;&gt;Node15 -->
<g id="edge15" class="edge"><title>Node1&#45;&gt;Node15</title>
<path fill="none" stroke="midnightblue" d="M1058.78,-58.3869C1091.09,-50.2166 1147.84,-35.7382 1206.06,-20.0765"/>
<polygon fill="midnightblue" stroke="midnightblue" points="1207.05,-23.4348 1215.79,-17.4508 1205.22,-16.6764 1207.05,-23.4348"/>
</g>
<!-- Node16 -->
<g id="node17" class="node"><title>Node16</title>
<polygon fill="none" stroke="#bfbfbf" points="1279,-0.5 1279,-19.5 1324,-19.5 1324,-0.5 1279,-0.5"/>
<text text-anchor="middle" x="1301.5" y="-7.5" font-family="Helvetica,sans-Serif" font-size="10.00">iosfwd</text>
</g>
<!-- Node1&#45;&gt;Node16 -->
<g id="edge16" class="edge"><title>Node1&#45;&gt;Node16</title>
<path fill="none" stroke="midnightblue" d="M1058.61,-60.8033C1100.76,-53.8637 1186.6,-39.0602 1269.06,-19.9281"/>
<polygon fill="midnightblue" stroke="midnightblue" points="1269.9,-23.3263 1278.84,-17.6354 1268.3,-16.5112 1269.9,-23.3263"/>
</g>
<!-- Node17 -->
<g id="node18" class="node"><title>Node17</title>
<polygon fill="none" stroke="#bfbfbf" points="1342.5,-0.5 1342.5,-19.5 1388.5,-19.5 1388.5,-0.5 1342.5,-0.5"/>
<text text-anchor="middle" x="1365.5" y="-7.5" font-family="Helvetica,sans-Serif" font-size="10.00">cctype</text>
</g>
<!-- Node1&#45;&gt;Node17 -->
<g id="edge17" class="edge"><title>Node1&#45;&gt;Node17</title>
<path fill="none" stroke="midnightblue" d="M1058.77,-62.1116C1109.58,-56.3002 1224.99,-42.0107 1332.14,-19.8333"/>
<polygon fill="midnightblue" stroke="midnightblue" points="1333.08,-23.2123 1342.15,-17.7332 1331.64,-16.3615 1333.08,-23.2123"/>
</g>
<!-- Node18 -->
<g id="node19" class="node"><title>Node18</title>
<polygon fill="none" stroke="#bfbfbf" points="1406.5,-0.5 1406.5,-19.5 1462.5,-19.5 1462.5,-0.5 1406.5,-0.5"/>
<text text-anchor="middle" x="1434.5" y="-7.5" font-family="Helvetica,sans-Serif" font-size="10.00">algorithm</text>
</g>
<!-- Node1&#45;&gt;Node18 -->
<g id="edge18" class="edge"><title>Node1&#45;&gt;Node18</title>
<path fill="none" stroke="midnightblue" d="M1058.77,-62.8149C1117.53,-57.7034 1264.17,-43.7051 1396.39,-20.0154"/>
<polygon fill="midnightblue" stroke="midnightblue" points="1397.08,-23.4485 1406.29,-18.2186 1395.83,-16.5611 1397.08,-23.4485"/>
</g>
<!-- Node19 -->
<g id="node20" class="node"><title>Node19</title>
<polygon fill="none" stroke="#bfbfbf" points="1481,-0.5 1481,-19.5 1528,-19.5 1528,-0.5 1481,-0.5"/>
<text text-anchor="middle" x="1504.5" y="-7.5" font-family="Helvetica,sans-Serif" font-size="10.00">iterator</text>
</g>
<!-- Node1&#45;&gt;Node19 -->
<g id="edge19" class="edge"><title>Node1&#45;&gt;Node19</title>
<path fill="none" stroke="midnightblue" d="M1058.69,-63.8165C1125.69,-60.4725 1308.81,-49.342 1470.68,-19.8369"/>
<polygon fill="midnightblue" stroke="midnightblue" points="1471.62,-23.222 1480.81,-17.9594 1470.34,-16.339 1471.62,-23.222"/>
</g>
<!-- Node20 -->
<g id="node21" class="node"><title>Node20</title>
<polygon fill="none" stroke="#bfbfbf" points="1546,-0.5 1546,-19.5 1595,-19.5 1595,-0.5 1546,-0.5"/>
<text text-anchor="middle" x="1570.5" y="-7.5" font-family="Helvetica,sans-Serif" font-size="10.00">cstddef</text>
</g>
<!-- Node1&#45;&gt;Node20 -->
<g id="edge20" class="edge"><title>Node1&#45;&gt;Node20</title>
<path fill="none" stroke="midnightblue" d="M1058.74,-64.3008C1132.57,-61.9886 1348.44,-52.8615 1535.72,-20.0431"/>
<polygon fill="midnightblue" stroke="midnightblue" points="1536.51,-23.4572 1545.74,-18.2586 1535.28,-16.5655 1536.51,-23.4572"/>
</g>
<!-- Node21 -->
<g id="node22" class="node"><title>Node21</title>
<polygon fill="none" stroke="#bfbfbf" points="1613.5,-0.5 1613.5,-19.5 1665.5,-19.5 1665.5,-0.5 1613.5,-0.5"/>
<text text-anchor="middle" x="1639.5" y="-7.5" font-family="Helvetica,sans-Serif" font-size="10.00">ostream</text>
</g>
<!-- Node1&#45;&gt;Node21 -->
<g id="edge21" class="edge"><title>Node1&#45;&gt;Node21</title>
<path fill="none" stroke="midnightblue" d="M1058.63,-64.551C1138.79,-62.8366 1388.24,-54.9909 1603.34,-19.9119"/>
<polygon fill="midnightblue" stroke="midnightblue" points="1603.94,-23.3606 1613.23,-18.2751 1602.79,-16.4545 1603.94,-23.3606"/>
</g>
<!-- Node22 -->
<g id="node23" class="node"><title>Node22</title>
<polygon fill="none" stroke="#bfbfbf" points="1684,-0.5 1684,-19.5 1733,-19.5 1733,-0.5 1684,-0.5"/>
<text text-anchor="middle" x="1708.5" y="-7.5" font-family="Helvetica,sans-Serif" font-size="10.00">cassert</text>
</g>
<!-- Node1&#45;&gt;Node22 -->
<g id="edge22" class="edge"><title>Node1&#45;&gt;Node22</title>
<path fill="none" stroke="midnightblue" d="M1058.7,-64.9297C1145.24,-64.328 1429.86,-59.4008 1673.62,-19.8005"/>
<polygon fill="midnightblue" stroke="midnightblue" points="1674.44,-23.2135 1683.74,-18.1337 1673.3,-16.3067 1674.44,-23.2135"/>
</g>
<!-- Node23 -->
<g id="node24" class="node"><title>Node23</title>
<polygon fill="none" stroke="#bfbfbf" points="1751.5,-0.5 1751.5,-19.5 1797.5,-19.5 1797.5,-0.5 1751.5,-0.5"/>
<text text-anchor="middle" x="1774.5" y="-7.5" font-family="Helvetica,sans-Serif" font-size="10.00">cstring</text>
</g>
<!-- Node1&#45;&gt;Node23 -->
<g id="edge23" class="edge"><title>Node1&#45;&gt;Node23</title>
<path fill="none" stroke="midnightblue" d="M1058.52,-65.3188C1150.71,-66.0382 1470.35,-65.0341 1741.19,-19.858"/>
<polygon fill="midnightblue" stroke="midnightblue" points="1741.94,-23.2822 1751.21,-18.1628 1740.77,-16.3803 1741.94,-23.2822"/>
</g>
<!-- Node24 -->
<g id="node25" class="node"><title>Node24</title>
<polygon fill="none" stroke="#bfbfbf" points="1815.5,-0.5 1815.5,-19.5 1869.5,-19.5 1869.5,-0.5 1815.5,-0.5"/>
<text text-anchor="middle" x="1842.5" y="-7.5" font-family="Helvetica,sans-Serif" font-size="10.00">iostream</text>
</g>
<!-- Node1&#45;&gt;Node24 -->
<g id="edge24" class="edge"><title>Node1&#45;&gt;Node24</title>
<path fill="none" stroke="midnightblue" d="M1058.74,-65.2439C1156.36,-65.7821 1507.75,-64.4254 1805.36,-19.8648"/>
<polygon fill="midnightblue" stroke="midnightblue" points="1806.12,-23.29 1815.48,-18.3296 1805.07,-16.3691 1806.12,-23.29"/>
</g>
<!-- Node25 -->
<g id="node26" class="node"><title>Node25</title>
<polygon fill="none" stroke="#bfbfbf" points="378.5,-0.5 378.5,-19.5 426.5,-19.5 426.5,-0.5 378.5,-0.5"/>
<text text-anchor="middle" x="402.5" y="-7.5" font-family="Helvetica,sans-Serif" font-size="10.00">stdlib.h</text>
</g>
<!-- Node1&#45;&gt;Node25 -->
<g id="edge25" class="edge"><title>Node1&#45;&gt;Node25</title>
<path fill="none" stroke="midnightblue" d="M1006.39,-64.8052C923.937,-63.8188 661.763,-57.8408 436.55,-19.8402"/>
<polygon fill="midnightblue" stroke="midnightblue" points="436.979,-16.3627 426.531,-18.1241 435.797,-23.2622 436.979,-16.3627"/>
</g>
<!-- Node26 -->
<g id="node27" class="node"><title>Node26</title>
<polygon fill="none" stroke="#bfbfbf" points="445,-0.5 445,-19.5 488,-19.5 488,-0.5 445,-0.5"/>
<text text-anchor="middle" x="466.5" y="-7.5" font-family="Helvetica,sans-Serif" font-size="10.00">pwd.h</text>
</g>
<!-- Node1&#45;&gt;Node26 -->
<g id="edge26" class="edge"><title>Node1&#45;&gt;Node26</title>
<path fill="none" stroke="midnightblue" d="M1006.37,-64.6341C929.661,-63.1759 698.5,-56.0362 498.167,-19.714"/>
<polygon fill="midnightblue" stroke="midnightblue" points="498.517,-16.2196 488.049,-17.8494 497.249,-23.1037 498.517,-16.2196"/>
</g>
<!-- Node1&#45;&gt;Node27 -->
<g id="edge27" class="edge"><title>Node1&#45;&gt;Node27</title>
<path fill="none" stroke="midnightblue" d="M1058.7,-64.4157C1180.81,-61.5714 1695.4,-48.2135 1877.33,-19.7405"/>
<polygon fill="midnightblue" stroke="midnightblue" points="1877.99,-23.18 1887.29,-18.1094 1876.86,-16.2721 1877.99,-23.18"/>
</g>
</g>
</svg>
